<?xml version="1.0" encoding="UTF-8"?>
<!DOCTYPE svg PUBLIC "-//W3C//DTD SVG 1.1//EN" "http://www.w3.org/Graphics/SVG/1.1/DTD/svg11.dtd">
<svg xmlns="http://www.w3.org/2000/svg" version="1.1" width="1268px" height="1192px" style="shape-rendering:geometricPrecision; text-rendering:geometricPrecision; image-rendering:optimizeQuality; fill-rule:evenodd; clip-rule:evenodd" xmlns:xlink="http://www.w3.org/1999/xlink">
<g><path style="opacity:0.237" fill="#0039f8" d="M 687.5,513.5 C 688.598,514.601 688.765,515.934 688,517.5C 687.51,516.207 687.343,514.873 687.5,513.5 Z"/></g>
<g><path style="opacity:0.188" fill="#0039f8" d="M 690.5,514.5 C 690.897,513.475 691.563,513.308 692.5,514C 691.906,514.464 691.239,514.631 690.5,514.5 Z"/></g>
<g><path style="opacity:0.227" fill="#0039f8" d="M 681.5,514.5 C 683.337,514.639 683.67,515.306 682.5,516.5C 681.702,516.043 681.369,515.376 681.5,514.5 Z"/></g>
<g><path style="opacity:0.873" fill="#0039f8" d="M 728.5,552.5 C 727.251,554.829 727.918,556.662 730.5,558C 730.167,558.333 729.833,558.667 729.5,559C 732.108,560.378 733.608,562.545 734,565.5C 735.419,566.46 736.919,567.293 738.5,568C 738.043,568.414 737.709,568.914 737.5,569.5C 738.5,570.167 739.5,570.833 740.5,571.5C 739.897,573.452 740.23,575.452 741.5,577.5C 742.833,577.5 744.167,577.5 745.5,577.5C 744.548,580.107 743.548,583.107 742.5,586.5C 742.977,587.478 743.643,588.311 744.5,589C 742.122,589.974 742.456,590.641 745.5,591C 744.529,592.204 743.529,592.704 742.5,592.5C 743.383,593.548 744.05,594.715 744.5,596C 743.534,597.829 743.367,599.662 744,601.5C 742.482,601.057 741.315,601.724 740.5,603.5C 740.977,604.478 741.643,605.311 742.5,606C 738.835,607.668 736.668,610.501 736,614.5C 735.333,613.167 734.667,613.167 734,614.5C 733.333,615.5 733.333,616.5 734,617.5C 734.914,616.346 735.747,616.513 736.5,618C 734.345,620.489 731.678,622.156 728.5,623C 727.213,624.41 726.046,625.91 725,627.5C 723.989,626.663 722.822,626.33 721.5,626.5C 721.5,627.833 721.5,629.167 721.5,630.5C 718.924,631.107 716.591,632.274 714.5,634C 712.174,635.547 711.007,637.381 711,639.5C 709.671,638.506 708.338,637.506 707,636.5C 706.5,636.833 706,637.167 705.5,637.5C 707.738,638.853 709.071,640.853 709.5,643.5C 707.016,645.483 704.683,647.65 702.5,650C 701.551,650.617 700.718,650.451 700,649.5C 699.667,647.833 699.333,646.167 699,644.5C 698.626,645.416 698.126,646.25 697.5,647C 698.853,649.869 699.186,652.702 698.5,655.5C 695.582,658.941 692.416,662.274 689,665.5C 688.5,665.167 688,664.833 687.5,664.5C 688.811,663.742 689.311,662.742 689,661.5C 688.586,661.957 688.086,662.291 687.5,662.5C 686.306,659.381 684.806,659.048 683,661.5C 681.731,660.095 681.231,658.429 681.5,656.5C 679.876,656.64 678.71,655.973 678,654.5C 676.535,658.889 674.701,659.222 672.5,655.5C 674.848,654.14 675.015,652.473 673,650.5C 672.329,651.252 671.496,651.586 670.5,651.5C 670.751,649.83 671.418,648.33 672.5,647C 669.599,647.544 666.599,648.211 663.5,649C 664.191,647.933 664.691,646.766 665,645.5C 667.129,646.863 667.629,646.529 666.5,644.5C 667.849,641.493 669.849,639.16 672.5,637.5C 671.323,635.897 671.489,634.564 673,633.5C 673.333,633.833 673.667,634.167 674,634.5C 675.768,631.92 677.268,629.253 678.5,626.5C 680.143,626.52 681.476,625.853 682.5,624.5C 683.086,624.709 683.586,625.043 684,625.5C 684.844,622.322 686.511,619.655 689,617.5C 689.414,617.957 689.914,618.291 690.5,618.5C 692.504,613.674 695.67,610.007 700,607.5C 700.374,606.584 700.874,605.75 701.5,605C 700.069,604.535 698.903,603.701 698,602.5C 695.658,602.368 693.325,603.035 691,604.5C 687.24,603.037 683.573,602.037 680,601.5C 676.098,603.125 672.431,604.459 669,605.5C 668,604.167 667,602.833 666,601.5C 664.64,603.504 662.807,604.337 660.5,604C 662.396,602.935 662.563,602.102 661,601.5C 659.715,601.95 658.548,602.617 657.5,603.5C 655.899,602.835 654.399,602.501 653,602.5C 651.687,603.573 650.187,604.24 648.5,604.5C 645.815,603.829 643.148,603.162 640.5,602.5C 639.721,604.927 638.554,604.927 637,602.5C 635.004,602.996 633.337,603.996 632,605.5C 630.542,604.253 629.042,604.253 627.5,605.5C 625.751,603.469 623.751,603.135 621.5,604.5C 620.5,603.833 619.5,603.167 618.5,602.5C 615.987,603.287 613.487,604.287 611,605.5C 610.319,602.612 608.819,601.945 606.5,603.5C 605.833,603.333 605.167,603.167 604.5,603C 605.696,602.346 605.696,601.846 604.5,601.5C 602.627,605.979 600.46,606.312 598,602.5C 597.333,603.833 596.667,605.167 596,606.5C 595.463,603.237 593.796,602.57 591,604.5C 589.105,604.385 587.438,603.718 586,602.5C 582.599,604.962 578.766,604.962 574.5,602.5C 573.167,603.167 571.833,603.833 570.5,604.5C 568.958,603.253 567.458,603.253 566,604.5C 565.667,603.5 565.333,602.5 565,601.5C 563.672,603.669 562.006,604.002 560,602.5C 556.533,604.975 553.533,604.309 551,600.5C 550.517,601.448 550.351,602.448 550.5,603.5C 545.035,604.324 539.535,603.991 534,602.5C 531.667,603.167 529.333,603.833 527,604.5C 525.451,601.997 523.784,601.997 522,604.5C 520.503,601.532 518.837,601.199 517,603.5C 514.804,602.91 512.638,602.243 510.5,601.5C 504.264,602.598 498.098,602.598 492,601.5C 489.07,599.934 485.903,599.1 482.5,599C 481.167,597.16 481.334,596.66 483,597.5C 483.829,594.326 482.829,593.326 480,594.5C 479.1,593.23 477.934,592.23 476.5,591.5C 478.375,590.031 478.375,588.198 476.5,586C 477.357,585.311 478.023,584.478 478.5,583.5C 477.067,581.878 475.401,580.545 473.5,579.5C 475.265,577.947 477.098,577.614 479,578.5C 479.283,575.258 480.117,574.924 481.5,577.5C 480.081,579.127 480.414,579.627 482.5,579C 482.982,577.992 483.148,576.825 483,575.5C 483.741,574.359 484.575,574.359 485.5,575.5C 486.298,573.922 486.798,572.256 487,570.5C 487.893,571.711 488.726,571.711 489.5,570.5C 489.291,569.914 488.957,569.414 488.5,569C 490.367,568.289 491.867,568.789 493,570.5C 494.395,569.185 495.395,569.519 496,571.5C 498.25,571.695 500.584,571.361 503,570.5C 504.711,570.439 506.044,571.106 507,572.5C 507.324,570.431 508.158,570.098 509.5,571.5C 512.446,568.571 513.613,568.905 513,572.5C 514.085,573.293 515.252,573.96 516.5,574.5C 517.645,573.108 518.478,571.441 519,569.5C 519.333,570.167 519.667,570.833 520,571.5C 521.699,570.594 523.533,570.261 525.5,570.5C 524.986,572.512 524.82,574.512 525,576.5C 525.911,573.367 527.744,572.367 530.5,573.5C 535.129,570.565 538.629,571.565 541,576.5C 542.109,574.185 543.943,572.685 546.5,572C 545.549,571.282 545.383,570.449 546,569.5C 547.685,571.017 549.185,572.684 550.5,574.5C 551.281,573.263 552.281,572.263 553.5,571.5C 557.673,573.717 561.84,575.051 566,575.5C 566.271,573.193 565.105,572.026 562.5,572C 564.353,568.997 566.186,569.164 568,572.5C 569.913,570.813 572.08,570.313 574.5,571C 573.04,571.811 572.707,572.645 573.5,573.5C 575.754,571.027 577.92,571.027 580,573.5C 580.249,572.376 580.749,571.376 581.5,570.5C 584.034,573.485 586.701,573.818 589.5,571.5C 590.478,571.977 591.311,572.643 592,573.5C 592.333,572.833 592.667,572.167 593,571.5C 594.563,573.985 596.23,575.651 598,576.5C 597.92,572.013 599.42,571.013 602.5,573.5C 603.62,572.167 604.953,571.667 606.5,572C 602.588,575.454 602.588,576.288 606.5,574.5C 607.451,575.326 608.451,575.492 609.5,575C 608.396,573.869 608.729,573.035 610.5,572.5C 612.009,574.915 613.676,575.081 615.5,573C 614.833,572.667 614.167,572.333 613.5,572C 614.766,571.691 615.933,571.191 617,570.5C 618.571,572.923 620.737,574.256 623.5,574.5C 623.351,573.448 623.517,572.448 624,571.5C 625.194,572.43 626.527,573.097 628,573.5C 629.808,572.31 631.641,572.31 633.5,573.5C 635.029,573.471 636.196,572.804 637,571.5C 639.333,572.5 641.667,573.5 644,574.5C 644.464,573.906 644.631,573.239 644.5,572.5C 645.583,572.539 646.583,572.873 647.5,573.5C 650.479,571.664 653.479,570.998 656.5,571.5C 657.446,572.931 658.612,574.264 660,575.5C 660.76,573.503 661.26,571.837 661.5,570.5C 663.801,573.99 666.468,574.323 669.5,571.5C 670.478,571.977 671.311,572.643 672,573.5C 672.417,572.244 673.25,571.577 674.5,571.5C 675.484,574.07 676.651,574.07 678,571.5C 679.396,573.527 681.062,573.86 683,572.5C 684.572,574.589 686.405,574.589 688.5,572.5C 689.719,573.263 690.719,574.263 691.5,575.5C 691.911,574.738 692.077,573.738 692,572.5C 693.333,571.833 694.667,571.167 696,570.5C 698,571.833 700,573.167 702,574.5C 703.333,573.833 704.333,572.833 705,571.5C 705.346,573.218 705.846,574.885 706.5,576.5C 705.391,578.214 706.058,578.881 708.5,578.5C 708.64,580.124 707.973,581.29 706.5,582C 707.274,584.405 707.774,586.905 708,589.5C 709.156,588.007 709.99,588.174 710.5,590C 709.846,591.987 708.513,593.32 706.5,594C 708.259,594.798 709.926,594.631 711.5,593.5C 713.892,590.278 715.225,586.945 715.5,583.5C 713.808,580.769 712.142,578.102 710.5,575.5C 709.408,572.937 707.742,570.77 705.5,569C 706.554,567.612 706.72,566.112 706,564.5C 704.951,565.517 703.784,565.684 702.5,565C 702.957,564.586 703.291,564.086 703.5,563.5C 700.015,560.516 696.682,557.349 693.5,554C 693.165,552.836 693.165,551.503 693.5,550C 692.1,548.562 690.433,547.729 688.5,547.5C 688.657,546.127 688.49,544.793 688,543.5C 683.228,541.977 680.894,538.644 681,533.5C 679.312,531.211 677.479,529.877 675.5,529.5C 677.217,529.209 679.217,528.543 681.5,527.5C 681.023,526.522 680.357,525.689 679.5,525C 680.5,524.667 681.5,524.333 682.5,524C 681.062,523.781 679.729,523.281 678.5,522.5C 679.025,521.808 679.692,521.308 680.5,521C 680.167,520.667 679.833,520.333 679.5,520C 681.329,519.727 682.829,518.893 684,517.5C 686.559,519.853 688.726,519.687 690.5,517C 692.218,516.654 693.885,516.154 695.5,515.5C 696.204,517.071 697.537,518.738 699.5,520.5C 700.167,519.833 700.833,519.167 701.5,518.5C 702.711,519.274 702.711,520.107 701.5,521C 702.325,522.688 703.325,522.855 704.5,521.5C 705.622,523.044 705.289,524.377 703.5,525.5C 705.5,526.5 707.5,527.5 709.5,528.5C 709.291,529.086 708.957,529.586 708.5,530C 709.646,530.645 710.646,531.478 711.5,532.5C 712.5,531.833 713.5,531.167 714.5,530.5C 716.592,532.789 716.926,535.289 715.5,538C 716.416,538.374 717.25,538.874 718,539.5C 718.878,542.709 720.211,545.709 722,548.5C 722.414,548.043 722.914,547.709 723.5,547.5C 724.522,549.855 726.188,551.522 728.5,552.5 Z M 510.5,573.5 C 511.773,574.077 511.773,574.743 510.5,575.5C 509.537,575.03 509.537,574.363 510.5,573.5 Z M 679.5,576.5 C 677.663,576.361 677.33,575.694 678.5,574.5C 679.298,574.957 679.631,575.624 679.5,576.5 Z M 534.5,576.5 C 535.077,575.227 535.743,575.227 536.5,576.5C 536.03,577.463 535.363,577.463 534.5,576.5 Z M 679.5,576.5 C 681.068,575.527 682.735,575.36 684.5,576C 682.756,577.454 681.089,577.621 679.5,576.5 Z M 703.5,582.5 C 706.131,583.425 706.798,585.091 705.5,587.5C 704.438,585.978 703.771,584.312 703.5,582.5 Z M 486.5,592.5 C 487.773,593.077 487.773,593.743 486.5,594.5C 485.537,594.03 485.537,593.363 486.5,592.5 Z M 708.5,595.5 C 709.289,595.783 709.956,596.283 710.5,597C 706.45,598.274 703.783,600.441 702.5,603.5C 701.269,602.349 701.269,601.183 702.5,600C 698.575,596.202 699.075,595.702 704,598.5C 705.31,597.103 706.81,596.103 708.5,595.5 Z M 592.5,596.5 C 593.267,597.172 593.934,598.005 594.5,599C 592.939,599.188 592.272,598.355 592.5,596.5 Z M 548.5,598.5 C 549.773,599.077 549.773,599.743 548.5,600.5C 547.537,600.03 547.537,599.363 548.5,598.5 Z M 553.5,598.5 C 555.337,598.639 555.67,599.306 554.5,600.5C 553.702,600.043 553.369,599.376 553.5,598.5 Z M 571.5,598.5 C 573.337,598.639 573.67,599.306 572.5,600.5C 571.702,600.043 571.369,599.376 571.5,598.5 Z M 640.5,602.5 C 638.557,601.922 638.223,600.922 639.5,599.5C 640.833,598.167 642.167,598.167 643.5,599.5C 642.007,600.141 641.007,601.141 640.5,602.5 Z M 727.5,616.5 C 729.379,616.393 729.712,616.893 728.5,618C 726.899,618.273 725.399,618.773 724,619.5C 723.833,619.167 723.667,618.833 723.5,618.5C 724.949,617.828 726.282,617.161 727.5,616.5 Z M 725.5,623.5 C 724.711,623.217 724.044,622.717 723.5,622C 724.816,621.472 725.483,621.972 725.5,623.5 Z M 672.5,637.5 C 674.859,638.389 675.025,639.722 673,641.5C 672.51,640.207 672.343,638.873 672.5,637.5 Z M 687.5,656.5 C 688.289,656.783 688.956,657.283 689.5,658C 688.184,658.528 687.517,658.028 687.5,656.5 Z M 690.5,660.5 C 690.843,658.775 691.843,658.275 693.5,659C 692.756,660.039 691.756,660.539 690.5,660.5 Z"/></g>
<g><path style="opacity:0.271" fill="#0039f8" d="M 678.5,517.5 C 679.833,518.167 679.833,518.167 678.5,517.5 Z"/></g>
<g><path style="opacity:0.376" fill="#0039f8" d="M 728.5,551.5 C 729.833,552.167 729.833,552.167 728.5,551.5 Z"/></g>
<g><path style="opacity:0.269" fill="#0039f8" d="M 512.5,565.5 C 513.525,565.897 513.692,566.563 513,567.5C 512.536,566.906 512.369,566.239 512.5,565.5 Z"/></g>
<g><path style="opacity:0.38" fill="#0039f8" d="M 578.5,568.5 C 579.773,569.077 579.773,569.743 578.5,570.5C 577.537,570.03 577.537,569.363 578.5,568.5 Z"/></g>
<g><path style="opacity:0.836" fill="#0039f8" d="M 627.5,569.5 C 629.337,569.639 629.67,570.306 628.5,571.5C 627.702,571.043 627.369,570.376 627.5,569.5 Z"/></g>
<g><path style="opacity:0.337" fill="#0039f8" d="M 484.5,570.5 C 485.833,571.167 485.833,571.167 484.5,570.5 Z"/></g>
<g><path style="opacity:0.165" fill="#0039f8" d="M 656.5,570.5 C 657.833,571.167 657.833,571.167 656.5,570.5 Z"/></g>
<g><path style="opacity:0.259" fill="#0039f8" d="M 674.5,570.5 C 675.833,571.167 675.833,571.167 674.5,570.5 Z"/></g>
<g><path style="opacity:0.016" fill="#0039f8" d="M 682.5,570.5 C 683.833,571.167 683.833,571.167 682.5,570.5 Z"/></g>
<g><path style="opacity:0.286" fill="#0039f8" d="M 514.5,571.5 C 515.833,572.167 515.833,572.167 514.5,571.5 Z"/></g>
<g><path style="opacity:0.376" fill="#0039f8" d="M 644.5,572.5 C 643.833,571.167 643.833,571.167 644.5,572.5 Z"/></g>
<g><path style="opacity:0.153" fill="#0039f8" d="M 684.5,571.5 C 685.833,572.167 685.833,572.167 684.5,571.5 Z"/></g>
<g><path style="opacity:0.259" fill="#0039f8" d="M 707.5,573.5 C 708.833,574.167 708.833,574.167 707.5,573.5 Z"/></g>
<g><path style="opacity:0.375" fill="#0039f8" d="M 710.5,575.5 C 709.749,576.573 708.749,576.74 707.5,576C 708.448,575.517 709.448,575.351 710.5,575.5 Z"/></g>
<g><path style="opacity:0.016" fill="#0039f8" d="M 709.5,578.5 C 708.833,577.167 708.833,577.167 709.5,578.5 Z"/></g>
<g><path style="opacity:0.11" fill="#0039f8" d="M 709.5,578.5 C 710.833,579.167 710.833,579.167 709.5,578.5 Z"/></g>
<g><path style="opacity:0.118" fill="#0039f8" d="M 712.5,581.5 C 713.833,582.167 713.833,582.167 712.5,581.5 Z"/></g>
<g><path style="opacity:0.293" fill="#0039f8" d="M 473.5,585.5 C 472.711,585.217 472.044,584.717 471.5,584C 472.816,583.472 473.483,583.972 473.5,585.5 Z"/></g>
<g><path style="opacity:0.09" fill="#0039f8" d="M 473.5,585.5 C 474.833,586.167 474.833,586.167 473.5,585.5 Z"/></g>
<g><path style="opacity:0.192" fill="#0039f8" d="M 472.5,590.5 C 472.897,589.475 473.563,589.308 474.5,590C 473.906,590.464 473.239,590.631 472.5,590.5 Z"/></g>
<g><path style="opacity:0.067" fill="#0039f8" d="M 635.5,606.5 C 636.833,607.167 636.833,607.167 635.5,606.5 Z"/></g>
<g><path style="opacity:0.304" fill="#0039f8" d="M 728.5,625.5 C 730.657,626.053 730.49,627.053 728,628.5C 727.53,627.423 727.697,626.423 728.5,625.5 Z"/></g>
<g><path style="opacity:0.818" fill="#0039f8" d="M 522.5,648.5 C 523.647,652.624 524.647,657.124 525.5,662C 525.109,665.552 525.109,669.052 525.5,672.5C 524.96,673.748 524.293,674.915 523.5,676C 523.833,676.333 524.167,676.667 524.5,677C 523.142,677.934 521.808,678.768 520.5,679.5C 518.348,680.077 518.015,681.244 519.5,683C 519,683.5 518.5,684 518,684.5C 515.74,684.673 513.407,684.673 511,684.5C 510.481,685.516 509.647,686.182 508.5,686.5C 506.964,685.751 505.631,684.751 504.5,683.5C 502.262,685.893 502.262,688.06 504.5,690C 503.376,690.249 502.376,690.749 501.5,691.5C 501.846,692.696 502.346,692.696 503,691.5C 505.028,694.763 504.861,697.93 502.5,701C 502.95,702.285 503.617,703.452 504.5,704.5C 503.696,705.941 503.029,707.441 502.5,709C 503.695,710.533 503.695,712.033 502.5,713.5C 503.167,713.833 503.833,714.167 504.5,714.5C 504.055,717.053 504.055,719.72 504.5,722.5C 504.317,724.317 504.317,726.15 504.5,728C 502.146,729.378 502.146,730.878 504.5,732.5C 504.333,733.167 504.167,733.833 504,734.5C 503.667,733.5 503.333,732.5 503,731.5C 500.676,732.719 498.509,734.052 496.5,735.5C 494.428,734.081 492.428,733.414 490.5,733.5C 490.709,732.914 491.043,732.414 491.5,732C 489.313,729.441 488.313,726.441 488.5,723C 488.629,721.019 489.296,719.353 490.5,718C 489.232,715.859 488.565,713.526 488.5,711C 487.895,707.26 488.561,703.593 490.5,700C 488.616,695.328 487.282,690.661 486.5,686C 487.167,685.667 487.833,685.333 488.5,685C 487.643,684.311 486.977,683.478 486.5,682.5C 487.833,681.5 487.833,680.5 486.5,679.5C 488.04,678.468 488.54,677.135 488,675.5C 487.667,676.167 487.333,676.833 487,677.5C 486.689,675.444 486.189,673.444 485.5,671.5C 484.607,667.273 484.607,663.106 485.5,659C 484.692,658.692 484.025,658.192 483.5,657.5C 484.441,657.511 485.108,657.011 485.5,656C 484.38,654.444 483.38,652.944 482.5,651.5C 483.46,650.188 483.294,648.854 482,647.5C 481.333,645.167 481.333,642.833 482,640.5C 485.262,641.841 485.762,641.508 483.5,639.5C 484.735,636.956 485.901,636.956 487,639.5C 488.885,637.285 490.718,637.618 492.5,640.5C 493.308,640.192 493.975,639.692 494.5,639C 493.289,638.107 493.289,637.274 494.5,636.5C 496.936,637.891 497.602,637.391 496.5,635C 499.689,633.252 502.856,632.419 506,632.5C 510.268,635.411 514.435,637.744 518.5,639.5C 519.855,642.592 521.188,645.592 522.5,648.5 Z M 503.5,634.5 C 506.001,634.511 506.168,635.178 504,636.5C 503.536,635.906 503.369,635.239 503.5,634.5 Z M 497.5,648.5 C 499.844,649.672 502.177,649.672 504.5,648.5C 506.382,649.093 508.215,649.76 510,650.5C 510.716,653.72 511.883,656.72 513.5,659.5C 511.978,661.156 512.311,662.323 514.5,663C 513.572,663.388 512.905,664.055 512.5,665C 512.913,666.796 512.913,668.463 512.5,670C 509.126,669.179 506.46,670.346 504.5,673.5C 502.833,672.667 501.167,671.833 499.5,671C 500.167,670.333 500.833,669.667 501.5,669C 500.149,662.394 498.816,655.561 497.5,648.5 Z M 495.5,652.5 C 496.773,653.077 496.773,653.743 495.5,654.5C 494.537,654.03 494.537,653.363 495.5,652.5 Z"/></g>
<g><path style="opacity:0.098" fill="#0039f8" d="M 486.5,634.5 C 487.833,635.167 487.833,635.167 486.5,634.5 Z"/></g>
<g><path style="opacity:0.839" fill="#0039f8" d="M 544.5,672.5 C 543.876,672.917 543.543,673.584 543.5,674.5C 545.362,675.948 546.028,677.615 545.5,679.5C 544.737,680.719 543.737,681.719 542.5,682.5C 544.475,683.749 544.809,685.249 543.5,687C 546.167,687.667 546.167,688.333 543.5,689C 544.167,689.333 544.833,689.667 545.5,690C 542.535,693.492 542.202,697.159 544.5,701C 542.016,702.606 542.016,704.106 544.5,705.5C 542.401,709.467 541.067,713.467 540.5,717.5C 541.167,717.833 541.833,718.167 542.5,718.5C 541.975,719.192 541.308,719.692 540.5,720C 541.252,720.671 541.586,721.504 541.5,722.5C 540.167,722.833 540.167,723.167 541.5,723.5C 541.047,724.458 540.381,725.292 539.5,726C 540.428,726.388 541.095,727.055 541.5,728C 539.943,731.143 538.443,734.309 537,737.5C 535.667,736.833 534.667,735.833 534,734.5C 533.174,736.405 532.007,736.739 530.5,735.5C 530.18,733.422 529.18,731.256 527.5,729C 529.584,727.573 529.584,725.907 527.5,724C 527.491,721.563 528.158,719.396 529.5,717.5C 527.252,716.676 527.086,715.676 529,714.5C 529.651,712.765 529.485,711.098 528.5,709.5C 529.896,708.148 530.563,706.481 530.5,704.5C 529.875,701.48 529.542,698.48 529.5,695.5C 531.737,691.408 532.071,687.408 530.5,683.5C 532.589,681.405 532.589,679.572 530.5,678C 531.167,677 531.833,676 532.5,675C 533.291,664.605 533.291,654.105 532.5,643.5C 533.954,640.994 534.621,638.328 534.5,635.5C 536.835,636.413 539.001,637.747 541,639.5C 541.333,639.167 541.667,638.833 542,638.5C 543.985,640.663 545.152,642.83 545.5,645C 544.498,646.766 544.832,648.433 546.5,650C 545.833,650.333 545.167,650.667 544.5,651C 545.573,652.25 545.573,653.584 544.5,655C 544.892,656.011 545.559,656.511 546.5,656.5C 545.833,657.167 545.167,657.833 544.5,658.5C 545.833,659.833 545.833,661.167 544.5,662.5C 545.167,663.167 545.833,663.833 546.5,664.5C 546.213,666.986 545.546,669.653 544.5,672.5 Z"/></g>
<g><path style="opacity:0.251" fill="#0039f8" d="M 718.5,635.5 C 719.833,636.167 719.833,636.167 718.5,635.5 Z"/></g>
<g><path style="opacity:0.027" fill="#0039f8" d="M 522.5,647.5 C 523.833,648.167 523.833,648.167 522.5,647.5 Z"/></g>
<g><path style="opacity:0.349" fill="#0039f8" d="M 670.5,651.5 C 669.833,652.167 669.833,652.167 670.5,651.5 Z"/></g>
<g><path style="opacity:0.18" fill="#0039f8" d="M 667.5,654.5 C 668.833,655.167 668.833,655.167 667.5,654.5 Z"/></g>
<g><path style="opacity:0.25" fill="#0039f8" d="M 698.5,655.5 C 699.575,654.438 700.575,654.438 701.5,655.5C 700.478,656.354 699.645,657.354 699,658.5C 698.517,657.552 698.351,656.552 698.5,655.5 Z"/></g>
<g><path style="opacity:0.059" fill="#0039f8" d="M 669.5,659.5 C 670.833,660.167 670.833,660.167 669.5,659.5 Z"/></g>
<g><path style="opacity:0.165" fill="#0039f8" d="M 683.5,666.5 C 684.077,665.227 684.743,665.227 685.5,666.5C 685.03,667.463 684.363,667.463 683.5,666.5 Z"/></g>
<g><path style="opacity:0.87" fill="#0039f8" d="M 729.5,690.5 C 727.16,689.157 724.827,687.823 722.5,686.5C 721.353,686.818 720.519,687.484 720,688.5C 719.751,687.376 719.251,686.376 718.5,685.5C 717.28,686.711 716.113,686.711 715,685.5C 714.51,686.793 714.343,688.127 714.5,689.5C 711.639,689.513 710.639,690.679 711.5,693C 707.575,695.68 705.908,699.18 706.5,703.5C 703.887,704.095 703.887,704.929 706.5,706C 705.484,706.519 704.818,707.353 704.5,708.5C 704.94,710.765 705.606,712.932 706.5,715C 705.328,715.419 704.328,716.085 703.5,717C 705.353,719.944 706.019,722.944 705.5,726C 703.611,728.194 701.444,728.694 699,727.5C 697.846,728.743 696.512,729.743 695,730.5C 694,729.167 693,727.833 692,726.5C 691.395,728.481 690.395,728.815 689,727.5C 688.535,721.51 687.701,715.343 686.5,709C 687.167,708 687.833,707 688.5,706C 688.015,698.138 687.348,690.305 686.5,682.5C 688.26,678.58 689.76,674.913 691,671.5C 691.333,671.833 691.667,672.167 692,672.5C 692.739,671.426 693.739,670.759 695,670.5C 696.394,671.613 697.561,672.947 698.5,674.5C 699.086,674.291 699.586,673.957 700,673.5C 700.406,675.779 701.739,677.113 704,677.5C 706.897,673.998 710.397,672.331 714.5,672.5C 715.647,672.818 716.481,673.484 717,674.5C 717.7,672.968 718.866,671.968 720.5,671.5C 726.286,673.474 731.12,676.808 735,681.5C 735.236,683.764 735.736,685.931 736.5,688C 733.383,686.556 731.05,687.389 729.5,690.5 Z"/></g>
<g><path style="opacity:0.838" fill="#0039f8" d="M 673.5,713.5 C 675.201,713.966 676.701,713.966 678,713.5C 678.21,715.058 678.71,716.391 679.5,717.5C 677.792,719.216 676.458,721.216 675.5,723.5C 674.274,725.278 672.607,726.278 670.5,726.5C 670.167,725.167 669.833,725.167 669.5,726.5C 667.18,727.474 664.847,728.474 662.5,729.5C 659.919,728.544 657.419,728.544 655,729.5C 653.846,727.043 652.512,727.043 651,729.5C 650.558,727.321 649.558,726.655 648,727.5C 646.686,726.687 645.519,725.687 644.5,724.5C 641.861,720.427 639.695,716.093 638,711.5C 637.682,713.061 636.849,714.228 635.5,715C 636.815,716.395 636.481,717.395 634.5,718C 636.891,719.309 636.891,720.309 634.5,721C 634.957,721.414 635.291,721.914 635.5,722.5C 634.401,725.029 633.401,727.529 632.5,730C 633.056,730.383 633.389,730.883 633.5,731.5C 630.833,731.833 630.833,732.167 633.5,732.5C 632.402,733.397 632.402,734.23 633.5,735C 630.057,735.221 629.724,736.221 632.5,738C 630.911,740.749 629.411,743.916 628,747.5C 627.257,749.441 627.424,751.274 628.5,753C 626.646,755.543 625.479,758.376 625,761.5C 621.956,763.499 618.956,765.499 616,767.5C 615.792,765.223 614.958,763.057 613.5,761C 613.957,760.586 614.291,760.086 614.5,759.5C 613.833,759.167 613.167,758.833 612.5,758.5C 614.335,757.572 614.668,756.406 613.5,755C 613.909,752.053 614.909,749.386 616.5,747C 615.803,744.656 616.469,742.489 618.5,740.5C 618.291,739.914 617.957,739.414 617.5,739C 619.354,734.91 620.687,730.91 621.5,727C 619.939,726.682 618.772,725.849 618,724.5C 617.333,727.167 616.667,727.167 616,724.5C 615.692,725.308 615.192,725.975 614.5,726.5C 613.3,725.469 611.966,724.635 610.5,724C 612.932,722.913 612.598,722.413 609.5,722.5C 604.52,710.878 598.687,699.544 592,688.5C 591.667,686.833 591.333,685.167 591,683.5C 590.346,684.696 589.846,684.696 589.5,683.5C 591.446,681.021 592.946,678.354 594,675.5C 595,676.167 596,676.833 597,677.5C 599.851,676.756 602.517,676.756 605,677.5C 605.658,679.108 605.158,680.275 603.5,681C 605.521,681.513 607.021,682.68 608,684.5C 609.624,688.477 611.29,692.477 613,696.5C 616.184,697.406 617.017,699.239 615.5,702C 616.328,702.915 617.328,703.581 618.5,704C 618.167,704.333 617.833,704.667 617.5,705C 619.726,707.953 621.559,711.12 623,714.5C 624.221,713.226 625.054,711.726 625.5,710C 625.475,708.012 625.475,706.012 625.5,704C 628.67,700.959 629.337,697.626 627.5,694C 628.5,693.667 629.5,693.333 630.5,693C 629.257,691.846 628.257,690.512 627.5,689C 629.683,685.826 631.35,682.326 632.5,678.5C 633.998,678.166 635.665,678.166 637.5,678.5C 637.856,681.688 639.523,683.855 642.5,685C 641.269,686.183 641.269,687.349 642.5,688.5C 644.133,685.223 646.8,681.556 650.5,677.5C 652.132,676.703 653.632,675.703 655,674.5C 657.078,675.943 657.911,675.276 657.5,672.5C 675.743,669.944 684.41,677.444 683.5,695C 680.833,697.333 678.167,699.667 675.5,702C 675.833,702.333 676.167,702.667 676.5,703C 673.423,703.941 670.756,705.441 668.5,707.5C 667.137,706.802 665.971,706.802 665,707.5C 663.488,705.043 662.154,705.043 661,707.5C 658.942,706.891 658.109,705.891 658.5,704.5C 657.549,705.326 656.549,705.492 655.5,705C 656.451,704.282 656.617,703.449 656,702.5C 651.382,710.597 653.715,715.264 663,716.5C 665.133,715.745 666.8,714.412 668,712.5C 669.067,713.191 670.234,713.691 671.5,714C 670.304,714.654 670.304,715.154 671.5,715.5C 672.522,715.145 673.189,714.478 673.5,713.5 Z M 663.5,684.5 C 667.174,686.343 668.507,689.176 667.5,693C 664.327,693.024 661.993,691.524 660.5,688.5C 660.787,686.557 661.787,685.223 663.5,684.5 Z M 656.5,687.5 C 658.416,688.665 659.249,690.332 659,692.5C 657.628,691.09 656.795,689.423 656.5,687.5 Z M 620.5,722.5 C 623.001,722.511 623.168,723.178 621,724.5C 620.536,723.906 620.369,723.239 620.5,722.5 Z"/></g>
<g><path style="opacity:0.482" fill="#0039f8" d="M 544.5,672.5 C 545.833,673.167 545.833,673.167 544.5,672.5 Z"/></g>
<g><path style="opacity:0.345" fill="#0039f8" d="M 592.5,673.5 C 593.833,674.167 593.833,674.167 592.5,673.5 Z"/></g>
<g><path style="opacity:0.869" fill="#0039f8" d="M 567.5,678.5 C 569.03,679.067 570.53,679.733 572,680.5C 572.333,679.833 572.667,679.167 573,678.5C 574.399,679.227 575.899,679.727 577.5,680C 577.93,680.92 578.264,681.753 578.5,682.5C 580.838,680.989 581.504,681.323 580.5,683.5C 581.501,686.173 583.001,688.507 585,690.5C 585.093,693.007 585.926,695.174 587.5,697C 587.167,697.333 586.833,697.667 586.5,698C 589.047,699.316 589.713,701.149 588.5,703.5C 592.021,709.293 593.188,715.627 592,722.5C 590.846,724.957 589.512,724.957 588,722.5C 586.333,723.833 584.667,723.833 583,722.5C 582.667,723.167 582.333,723.833 582,724.5C 580.078,721.952 577.745,719.952 575,718.5C 573.681,720.487 571.848,721.654 569.5,722C 570.458,723.147 570.125,724.147 568.5,725C 564.516,726.357 560.683,727.191 557,727.5C 551.862,726.683 548.028,724.016 545.5,719.5C 546.244,716.317 546.244,713.317 545.5,710.5C 545.689,707.159 547.023,703.992 549.5,701C 547.203,699.84 547.536,698.84 550.5,698C 549.465,696.493 549.632,694.993 551,693.5C 553.428,695.974 553.928,695.474 552.5,692C 555.683,688.985 558.683,685.818 561.5,682.5C 563.849,681.457 565.849,680.124 567.5,678.5 Z M 568.5,693.5 C 571.945,694.199 572.278,695.866 569.5,698.5C 570.67,704.144 568.67,708.31 563.5,711C 563.833,711.333 564.167,711.667 564.5,712C 562.075,712.986 560.409,712.319 559.5,710C 561.796,706.469 562.796,702.802 562.5,699C 563.047,698.075 563.713,697.242 564.5,696.5C 564.833,697.167 565.167,697.833 565.5,698.5C 566.32,696.681 567.32,695.014 568.5,693.5 Z"/></g>
<g><path style="opacity:0.153" fill="#0039f8" d="M 520.5,679.5 C 521.525,679.897 521.692,680.563 521,681.5C 520.536,680.906 520.369,680.239 520.5,679.5 Z"/></g>
<g><path style="opacity:0.082" fill="#0039f8" d="M 724.5,689.5 C 725.833,690.167 725.833,690.167 724.5,689.5 Z"/></g>
<g><path style="opacity:0.102" fill="#0039f8" d="M 729.5,690.5 C 730.833,691.167 730.833,691.167 729.5,690.5 Z"/></g>
<g><path style="opacity:0.239" fill="#0039f8" d="M 706.5,703.5 C 707.833,704.167 707.833,704.167 706.5,703.5 Z"/></g>
<g><path style="opacity:0.31" fill="#0039f8" d="M 673.5,713.5 C 672.833,712.167 672.833,712.167 673.5,713.5 Z"/></g>
<g><path style="opacity:0.322" fill="#0039f8" d="M 679.5,716.5 C 680.833,717.167 680.833,717.167 679.5,716.5 Z"/></g>
<g><path style="opacity:0.125" fill="#0039f8" d="M 504.5,722.5 C 505.833,723.167 505.833,723.167 504.5,722.5 Z"/></g>
<g><path style="opacity:0.051" fill="#0039f8" d="M 541.5,722.5 C 542.833,723.167 542.833,723.167 541.5,722.5 Z"/></g>
<g><path style="opacity:0.278" fill="#0039f8" d="M 669.5,726.5 C 669.833,726.5 670.167,726.5 670.5,726.5C 670.167,729.167 669.833,729.167 669.5,726.5 Z"/></g>
<g><path style="opacity:0.278" fill="#0039f8" d="M 703.5,728.5 C 704.833,729.167 704.833,729.167 703.5,728.5 Z"/></g>
<g><path style="opacity:0.071" fill="#0039f8" d="M 633.5,731.5 C 634.833,732.167 634.833,732.167 633.5,731.5 Z"/></g>
<g><path style="opacity:0.396" fill="#0039f8" d="M 540.5,732.5 C 541.833,733.167 541.833,733.167 540.5,732.5 Z"/></g>
<g><path style="opacity:0.059" fill="#0039f8" d="M 531.5,737.5 C 532.833,738.167 532.833,738.167 531.5,737.5 Z"/></g>
<g><path style="opacity:0.854" fill="#0039f8" d="M 726.5,752.5 C 727.158,753.398 727.824,754.398 728.5,755.5C 730.366,754.437 730.866,755.104 730,757.5C 729.346,756.304 728.846,756.304 728.5,757.5C 729.59,759.362 730.59,761.195 731.5,763C 730.978,765.186 730.978,767.519 731.5,770C 729.475,771.194 729.141,772.694 730.5,774.5C 728.554,777.307 727.054,780.307 726,783.5C 725.026,781.122 724.359,781.456 724,784.5C 723.086,783.346 722.253,783.513 721.5,785C 721.833,785.333 722.167,785.667 722.5,786C 720.131,786.314 717.964,787.148 716,788.5C 715.228,788.355 714.561,788.022 714,787.5C 711.931,788.264 709.764,788.764 707.5,789C 710.167,791 712.5,793.333 714.5,796C 715.833,796.333 717.167,796.667 718.5,797C 717.398,799.391 718.064,799.891 720.5,798.5C 721.167,799.167 721.833,799.833 722.5,800.5C 724.648,799.242 726.815,799.242 729,800.5C 731.561,798.656 734.394,798.156 737.5,799C 737.387,800.747 737.721,802.58 738.5,804.5C 736.443,804.957 736.443,805.957 738.5,807.5C 737.4,808.605 736.733,809.938 736.5,811.5C 735.883,811.389 735.383,811.056 735,810.5C 733.988,813.426 732.155,814.26 729.5,813C 730.654,813.914 730.487,814.747 729,815.5C 727.316,813.541 725.316,813.541 723,815.5C 706.087,810.541 695.587,799.874 691.5,783.5C 691.048,779.821 691.548,776.154 693,772.5C 695.709,766.792 699.209,761.626 703.5,757C 706.69,754.34 710.023,752.506 713.5,751.5C 714.086,751.709 714.586,752.043 715,752.5C 716.667,748.5 718.333,748.5 720,752.5C 720.308,751.692 720.808,751.025 721.5,750.5C 721.833,751.167 722.167,751.833 722.5,752.5C 723.995,751.295 725.328,751.295 726.5,752.5 Z M 726.5,752.5 C 726.217,753.289 725.717,753.956 725,754.5C 724.472,753.184 724.972,752.517 726.5,752.5 Z M 717.5,766.5 C 718.091,767.151 718.757,767.818 719.5,768.5C 717.014,773.571 713.681,774.404 709.5,771C 711.269,768.943 713.269,767.11 715.5,765.5C 716.183,765.863 716.85,766.196 717.5,766.5 Z"/></g>
<g><path style="opacity:0.822" fill="#0039f8" d="M 572.5,758.5 C 572.029,759.901 571.362,761.234 570.5,762.5C 568.566,762.901 567.066,763.901 566,765.5C 564.853,764.542 563.853,764.875 563,766.5C 561.062,765.14 559.396,765.473 558,767.5C 556.684,764.972 555.517,764.972 554.5,767.5C 552.045,767.743 549.545,767.743 547,767.5C 545.829,768.893 544.329,769.727 542.5,770C 542.727,772.369 542.893,774.869 543,777.5C 544.587,778.727 545.921,778.394 547,776.5C 548.835,777.119 551.001,777.286 553.5,777C 551.405,776.444 551.238,775.944 553,775.5C 554.416,776.573 555.75,776.573 557,775.5C 557.451,777.929 558.285,778.096 559.5,776C 559.167,775.667 558.833,775.333 558.5,775C 559.825,775.148 560.992,774.982 562,774.5C 564.405,777.001 566.905,779.501 569.5,782C 568.747,783.487 567.914,783.654 567,782.5C 567.213,785.053 565.88,787.053 563,788.5C 560.544,788.623 558.044,788.623 555.5,788.5C 554.803,790.385 553.803,790.718 552.5,789.5C 549.605,791.702 546.772,791.369 544,788.5C 542.513,789.253 542.346,790.086 543.5,791C 540.85,794.207 541.016,794.707 544,792.5C 544.265,794.163 543.765,795.663 542.5,797C 545.167,797.667 545.167,798.333 542.5,799C 543.788,801.466 543.788,803.966 542.5,806.5C 542.977,807.478 543.643,808.311 544.5,809C 543.289,810.113 543.289,811.28 544.5,812.5C 544.023,813.478 543.357,814.311 542.5,815C 544.091,819.666 543.258,823.833 540,827.5C 539.667,826.833 539.333,826.167 539,825.5C 535.847,826.402 533.847,825.069 533,821.5C 532.667,821.833 532.333,822.167 532,822.5C 531.627,820.302 531.127,818.135 530.5,816C 531.285,811.915 531.618,807.915 531.5,804C 530.833,803.667 530.167,803.333 529.5,803C 533.169,801.075 533.169,799.408 529.5,798C 530.5,797.667 531.5,797.333 532.5,797C 531.399,794.18 530.399,791.346 529.5,788.5C 531.375,787.031 531.375,785.198 529.5,783C 530.536,780.741 530.536,778.408 529.5,776C 529.615,774.105 530.282,772.438 531.5,771C 527.728,769.611 527.728,768.611 531.5,768C 528.427,765.03 527.427,761.53 528.5,757.5C 530.929,756.735 532.262,755.069 532.5,752.5C 533.552,752.649 534.552,752.483 535.5,752C 534.112,751.111 534.278,750.611 536,750.5C 537.826,751.01 537.993,751.844 536.5,753C 538.049,754.214 539.215,755.714 540,757.5C 541.891,755.347 544.057,754.68 546.5,755.5C 546.489,754.559 546.989,753.892 548,753.5C 548.945,753.905 549.612,754.572 550,755.5C 550.308,754.692 550.808,754.025 551.5,753.5C 553.815,752.235 556.148,752.235 558.5,753.5C 561.046,752.344 563.546,751.344 566,750.5C 566.333,751.5 566.667,752.5 567,753.5C 568.566,752.939 569.899,753.606 571,755.5C 571.617,756.449 571.451,757.282 570.5,758C 571.094,758.464 571.761,758.631 572.5,758.5 Z"/></g>
<g><path style="opacity:0.194" fill="#0039f8" d="M 528.5,757.5 C 527.475,757.103 527.308,756.437 528,755.5C 528.464,756.094 528.631,756.761 528.5,757.5 Z"/></g>
<g><path style="opacity:0.212" fill="#0039f8" d="M 572.5,757.5 C 573.833,758.167 573.833,758.167 572.5,757.5 Z"/></g>
<g><path style="opacity:0.833" fill="#0039f8" d="M 670.5,767.5 C 673.813,766.203 676.979,764.536 680,762.5C 681.416,763.573 682.75,763.573 684,762.5C 684.483,763.448 684.649,764.448 684.5,765.5C 685.873,765.343 687.207,765.51 688.5,766C 688.835,767.164 688.835,768.497 688.5,770C 689.167,770.333 689.833,770.667 690.5,771C 688.197,773.157 685.53,774.823 682.5,776C 683.654,776.914 683.487,777.747 682,778.5C 681.667,778.167 681.333,777.833 681,777.5C 671.118,780.628 666.118,787.295 666,797.5C 672.041,804.331 678.874,804.831 686.5,799C 688.167,798.333 689.833,798.333 691.5,799C 693.167,801.167 694.833,803.333 696.5,805.5C 693.67,810.496 689.503,813.829 684,815.5C 683.127,815.265 682.293,814.931 681.5,814.5C 679.719,816.473 677.552,817.807 675,818.5C 672.667,817.5 670.333,816.5 668,815.5C 667.586,815.957 667.086,816.291 666.5,816.5C 663.611,813.888 660.278,812.055 656.5,811C 656.833,810.667 657.167,810.333 657.5,810C 654.805,808.584 654.139,806.584 655.5,804C 654.428,802.716 653.095,802.383 651.5,803C 653.442,801.028 653.776,798.861 652.5,796.5C 652.977,795.522 653.643,794.689 654.5,794C 654.255,791.911 654.255,789.911 654.5,788C 656.919,783.599 659.253,779.099 661.5,774.5C 662.086,774.709 662.586,775.043 663,775.5C 663.667,774.167 664.333,772.833 665,771.5C 667.463,770.968 669.297,769.634 670.5,767.5 Z"/></g>
<g><path style="opacity:0.278" fill="#0039f8" d="M 673.5,763.5 C 674.833,764.167 674.833,764.167 673.5,763.5 Z"/></g>
<g><path style="opacity:0.854" fill="#0039f8" d="M 648.5,769.5 C 649.594,771.857 651.261,773.69 653.5,775C 653.043,775.414 652.709,775.914 652.5,776.5C 653.297,778.132 654.297,779.632 655.5,781C 654.863,782.713 653.863,782.879 652.5,781.5C 652.002,782.603 651.669,783.603 651.5,784.5C 650.459,782.009 649.626,782.009 649,784.5C 646.489,784.309 643.822,783.643 641,782.5C 639.049,783.285 637.215,784.285 635.5,785.5C 632.617,790.98 630.617,796.813 629.5,803C 629.317,807.515 629.65,811.849 630.5,816C 627.411,820.329 624.244,820.496 621,816.5C 620.311,817.357 619.478,818.023 618.5,818.5C 617.041,816.417 615.708,814.25 614.5,812C 614.692,805.416 615.359,798.416 616.5,791C 615.833,788.333 615.167,785.667 614.5,783C 615.167,782.667 615.833,782.333 616.5,782C 614.285,781.612 612.952,780.612 612.5,779C 614.837,777.202 615.503,775.035 614.5,772.5C 615.758,769.916 617.258,768.249 619,767.5C 620.281,770.447 622.281,772.781 625,774.5C 629.811,771.601 634.644,768.601 639.5,765.5C 641.098,767.973 642.598,767.973 644,765.5C 644.432,768.072 645.932,769.406 648.5,769.5 Z"/></g>
<g><path style="opacity:0.294" fill="#0039f8" d="M 670.5,767.5 C 669.833,766.167 669.833,766.167 670.5,767.5 Z"/></g>
<g><path style="opacity:0.106" fill="#0039f8" d="M 648.5,768.5 C 649.833,769.167 649.833,769.167 648.5,768.5 Z"/></g>
<g><path style="opacity:0.114" fill="#0039f8" d="M 585.5,771.5 C 584.475,771.103 584.308,770.437 585,769.5C 585.464,770.094 585.631,770.761 585.5,771.5 Z"/></g>
<g><path style="opacity:0.858" fill="#0039f8" d="M 571.5,785.5 C 573.083,782.613 574.583,779.613 576,776.5C 577.356,775.62 578.856,775.286 580.5,775.5C 580.97,771.92 582.304,771.253 584.5,773.5C 585.298,773.043 585.631,772.376 585.5,771.5C 587.461,771.731 589.461,771.065 591.5,769.5C 592.192,770.025 592.692,770.692 593,771.5C 594.391,769.285 596.057,769.285 598,771.5C 598.333,771.167 598.667,770.833 599,770.5C 604.109,774.01 608.109,779.01 611,785.5C 611.233,787.78 612.066,789.78 613.5,791.5C 612.902,792.795 612.402,794.128 612,795.5C 611.346,794.304 610.846,794.304 610.5,795.5C 611.376,796.251 612.376,796.751 613.5,797C 612.833,797.333 612.167,797.667 611.5,798C 612.235,801.498 612.235,804.831 611.5,808C 609.158,810.656 606.992,813.489 605,816.5C 601.972,818.179 598.972,819.846 596,821.5C 595.667,820.833 595.333,820.167 595,819.5C 588.828,822.079 583.161,821.079 578,816.5C 577.667,816.833 577.333,817.167 577,817.5C 575.167,815 573,812.833 570.5,811C 570.833,810.667 571.167,810.333 571.5,810C 570.196,809.196 569.529,808.029 569.5,806.5C 570.603,804.723 570.603,802.889 569.5,801C 571.154,799.096 571.487,797.096 570.5,795C 572.266,792.126 572.6,788.959 571.5,785.5 Z M 593.5,784.5 C 594.833,784.5 596.167,784.5 597.5,784.5C 598.957,787.822 599.957,791.322 600.5,795C 598.26,798.916 596.593,802.749 595.5,806.5C 593.899,805.835 592.399,805.501 591,805.5C 590.275,807.158 589.108,807.658 587.5,807C 588.602,804.609 587.936,804.109 585.5,805.5C 583.947,803.735 583.614,801.902 584.5,800C 583.692,799.692 583.025,799.192 582.5,798.5C 583.833,796.167 585.167,793.833 586.5,791.5C 585.691,789.929 585.357,788.262 585.5,786.5C 588.373,786.198 591.039,785.531 593.5,784.5 Z"/></g>
<g><path style="opacity:0.275" fill="#0039f8" d="M 580.5,770.5 C 581.833,771.167 581.833,771.167 580.5,770.5 Z"/></g>
<g><path style="opacity:0.38" fill="#0039f8" d="M 565.5,774.5 C 566.833,775.167 566.833,775.167 565.5,774.5 Z"/></g>
<g><path style="opacity:0.353" fill="#0039f8" d="M 569.5,779.5 C 570.833,780.167 570.833,780.167 569.5,779.5 Z"/></g>
<g><path style="opacity:0.204" fill="#0039f8" d="M 571.5,785.5 C 570.833,784.167 570.833,784.167 571.5,785.5 Z"/></g>
<g><path style="opacity:0.18" fill="#0039f8" d="M 738.5,804.5 C 739.833,805.167 739.833,805.167 738.5,804.5 Z"/></g>
<g><path style="opacity:0.196" fill="#0039f8" d="M 738.5,806.5 C 739.833,807.167 739.833,807.167 738.5,806.5 Z"/></g>
<g><path style="opacity:0.196" fill="#0039f8" d="M 736.5,811.5 C 737.833,812.167 737.833,812.167 736.5,811.5 Z"/></g>
<g><path style="opacity:0.267" fill="#0039f8" d="M 530.5,824.5 C 530.897,823.475 531.563,823.308 532.5,824C 531.906,824.464 531.239,824.631 530.5,824.5 Z"/></g>
</svg>
