<?xml version="1.0" encoding="UTF-8"?>
<!DOCTYPE svg PUBLIC "-//W3C//DTD SVG 1.1//EN" "http://www.w3.org/Graphics/SVG/1.1/DTD/svg11.dtd">
<svg xmlns="http://www.w3.org/2000/svg" version="1.1" width="608px" height="312px" style="shape-rendering:geometricPrecision; text-rendering:geometricPrecision; image-rendering:optimizeQuality; fill-rule:evenodd; clip-rule:evenodd" xmlns:xlink="http://www.w3.org/1999/xlink">
<g><path style="opacity:0.113" fill="#0039f8" d="M 535.5,-0.5 C 536.167,-0.5 536.833,-0.5 537.5,-0.5C 537.5,0.833333 537.5,2.16667 537.5,3.5C 536.833,3.5 536.5,3.83333 536.5,4.5C 536.167,4.5 535.833,4.5 535.5,4.5C 535.5,2.83333 535.5,1.16667 535.5,-0.5 Z"/></g>
<g><path style="opacity:0.108" fill="#0039f8" d="M 538.5,-0.5 C 539.167,-0.5 539.833,-0.5 540.5,-0.5C 539.833,2.16667 539.167,2.16667 538.5,-0.5 Z"/></g>
<g><path style="opacity:0.824" fill="#0039f8" d="M 535.5,4.5 C 535.833,5.83333 536.167,5.83333 536.5,4.5C 537.167,4.5 537.5,4.16667 537.5,3.5C 539.47,2.83837 541.47,2.17171 543.5,1.5C 544.861,3.02839 546.028,4.69506 547,6.5C 547.71,5.02674 548.876,4.36007 550.5,4.5C 550.343,5.87344 550.51,7.20677 551,8.5C 552.342,7.09773 553.176,7.43107 553.5,9.5C 553.182,10.6473 552.516,11.4806 551.5,12C 555.527,12.427 558.027,14.5936 559,18.5C 560.11,16.9632 561.61,16.2965 563.5,16.5C 564.45,19.0679 564.45,21.5679 563.5,24C 565.848,27.1982 567.681,30.6982 569,34.5C 570.147,33.5419 571.147,33.8753 572,35.5C 572.483,36.448 572.649,37.448 572.5,38.5C 576.527,38.2808 577.194,39.4475 574.5,42C 575.861,43.5843 576.528,45.4176 576.5,47.5C 579.346,47.8087 580.846,49.4754 581,52.5C 582.419,53.4601 583.919,54.2935 585.5,55C 585.043,55.414 584.709,55.914 584.5,56.5C 585.5,57.1667 586.5,57.8333 587.5,58.5C 586.848,60.917 587.348,63.2503 589,65.5C 589.71,64.0267 590.876,63.3601 592.5,63.5C 591.872,67.2445 590.872,70.9112 589.5,74.5C 590.641,75.4255 590.641,76.2588 589.5,77C 591.957,78.1544 591.957,79.4877 589.5,81C 590.117,83.3876 590.45,85.721 590.5,88C 590.2,90.0243 589.367,90.5243 588,89.5C 586.372,90.8187 586.539,92.1521 588.5,93.5C 584.981,95.5198 582.814,98.5198 582,102.5C 581.667,101.833 581.333,101.167 581,100.5C 580.884,102.655 581.217,104.655 582,106.5C 578.15,108.991 574.483,111.658 571,114.5C 570.586,114.043 570.086,113.709 569.5,113.5C 568.571,114.689 568.238,116.022 568.5,117.5C 565.924,118.107 563.591,119.274 561.5,121C 560.5,122 559.5,123 558.5,124C 559.833,124.667 559.833,125.333 558.5,126C 557.181,126.195 555.847,126.028 554.5,125.5C 555.067,127.03 555.733,128.53 556.5,130C 553.961,132.37 551.628,134.87 549.5,137.5C 547.891,137.094 546.557,137.094 545.5,137.5C 545.879,139.213 546.879,140.213 548.5,140.5C 547.343,142.138 546.176,143.804 545,145.5C 544.667,144.5 544.333,143.5 544,142.5C 542.254,148.117 538.754,151.117 533.5,151.5C 534.902,150.158 534.569,149.324 532.5,149C 532.908,146.139 532.075,145.972 530,148.5C 528.731,147.095 528.231,145.429 528.5,143.5C 526.173,143.665 524.007,144.331 522,145.5C 521.365,144.034 520.531,142.7 519.5,141.5C 520.025,140.808 520.692,140.308 521.5,140C 520.874,139.25 520.374,138.416 520,137.5C 519.035,139.26 517.868,139.594 516.5,138.5C 519.766,133.684 518.766,132.351 513.5,134.5C 514.003,129.908 516.003,126.075 519.5,123C 518.549,122.282 518.383,121.449 519,120.5C 519.667,119.167 520.333,119.167 521,120.5C 522.768,117.92 524.268,115.253 525.5,112.5C 527.143,112.52 528.476,111.853 529.5,110.5C 530.086,110.709 530.586,111.043 531,111.5C 532.24,108.588 533.906,105.921 536,103.5C 536.667,104.167 537.333,104.833 538,105.5C 539.518,99.8358 542.685,95.5024 547.5,92.5C 546.855,91.354 546.022,90.354 545,89.5C 542.932,90.3936 540.765,91.0603 538.5,91.5C 534.916,89.9191 531.416,88.9191 528,88.5C 525.073,90.2712 522.073,90.9379 519,90.5C 516.595,92.8213 514.928,92.1546 514,88.5C 512.934,90.0995 511.434,91.0995 509.5,91.5C 509.002,90.3966 508.669,89.3966 508.5,88.5C 507.5,89.1667 506.5,89.8333 505.5,90.5C 503.899,89.8346 502.399,89.5012 501,89.5C 497.395,91.8617 493.728,91.8617 490,89.5C 489.692,90.3081 489.192,90.9747 488.5,91.5C 485.652,89.8502 483.152,90.1836 481,92.5C 479.542,91.2532 478.042,91.2532 476.5,92.5C 474.751,90.4686 472.751,90.1353 470.5,91.5C 469.5,90.8333 468.5,90.1667 467.5,89.5C 465.208,90.3575 462.875,91.3575 460.5,92.5C 459.614,91.675 459.281,90.675 459.5,89.5C 456.092,88.828 453.425,89.828 451.5,92.5C 450.108,91.3947 448.941,90.0614 448,88.5C 447.417,90.0016 446.584,91.3349 445.5,92.5C 444.289,91.7261 444.289,90.8928 445.5,90C 441.987,91.1274 438.653,90.6274 435.5,88.5C 432.439,90.9629 428.939,90.9629 425,88.5C 423.806,89.4303 422.473,90.0969 421,90.5C 417.376,89.9664 413.876,89.2998 410.5,88.5C 407.15,90.8971 404.317,90.2304 402,86.5C 401.517,87.448 401.351,88.448 401.5,89.5C 396.035,90.324 390.535,89.9907 385,88.5C 382.876,89.2272 380.709,89.8938 378.5,90.5C 377.784,89.689 376.95,89.0223 376,88.5C 371.529,89.9848 367.029,89.6514 362.5,87.5C 358.009,88.5178 353.509,88.5178 349,87.5C 346.966,87.3536 345.299,88.0203 344,89.5C 342.214,87.9007 340.047,87.0674 337.5,87C 339.956,84.841 339.29,84.0077 335.5,84.5C 335.094,80.1364 334.428,75.8031 333.5,71.5C 334.039,68.1408 334.705,64.8074 335.5,61.5C 335.392,60.5581 335.059,59.7247 334.5,59C 335.5,58.6667 336.5,58.3333 337.5,58C 336.269,56.8173 336.269,55.6507 337.5,54.5C 338.086,54.7093 338.586,55.0426 339,55.5C 339.804,54.1955 340.971,53.5288 342.5,53.5C 345.813,54.1183 348.979,55.1183 352,56.5C 355.404,55.5204 358.571,55.5204 361.5,56.5C 362.548,55.6171 363.715,54.9504 365,54.5C 366.368,55.7026 367.868,56.7026 369.5,57.5C 369.296,56.4706 369.796,55.4706 371,54.5C 371.333,55.1667 371.667,55.8333 372,56.5C 373.356,55.6198 374.856,55.2865 376.5,55.5C 376.34,57.1992 376.506,58.8659 377,60.5C 378.144,58.0829 379.81,57.4162 382,58.5C 385.915,55.8 389.581,56.1333 393,59.5C 395.376,58.6242 396.876,56.9575 397.5,54.5C 398.901,56.2773 400.401,57.944 402,59.5C 402.419,58.3279 403.085,57.3279 404,56.5C 406.567,57.27 409.067,58.27 411.5,59.5C 413.276,58.6852 413.943,57.5185 413.5,56C 415.108,55.342 416.275,55.842 417,57.5C 419.943,55.2016 422.776,55.2016 425.5,57.5C 426.833,56.1667 428.167,54.8333 429.5,53.5C 431.807,55.4822 434.307,57.1488 437,58.5C 438.667,55.8333 440.333,55.8333 442,58.5C 442.333,57.8333 442.667,57.1667 443,56.5C 444.385,57.5505 445.385,58.8839 446,60.5C 447,58.8333 448.333,57.5 450,56.5C 451.499,58.7562 453.166,58.7562 455,56.5C 456.826,57.0104 456.993,57.8438 455.5,59C 457.035,59.4962 458.535,59.3295 460,58.5C 460.95,59.0223 461.784,59.689 462.5,60.5C 463.506,60.0623 463.506,59.3957 462.5,58.5C 463.736,57.6433 465.069,56.9766 466.5,56.5C 468.167,57.8333 469.833,59.1667 471.5,60.5C 472.251,59.624 472.751,58.624 473,57.5C 474.79,59.2912 476.623,59.6246 478.5,58.5C 481.306,60.1701 483.806,59.8368 486,57.5C 487.861,59.3479 490.028,59.3479 492.5,57.5C 493.748,58.0402 494.915,58.7069 496,59.5C 498.841,58.5796 501.674,57.5796 504.5,56.5C 506.569,56.8242 506.902,57.6575 505.5,59C 506.833,59.6667 508.167,59.6667 509.5,59C 508.289,58.1072 508.289,57.2739 509.5,56.5C 512.086,59.8159 514.919,60.1492 518,57.5C 519.682,59.5541 521.349,59.2207 523,56.5C 523.221,59.9431 524.221,60.2764 526,57.5C 527.758,59.8726 529.591,59.8726 531.5,57.5C 532.75,57.5774 533.583,58.244 534,59.5C 536.835,60.0918 539.502,59.4252 542,57.5C 544.888,57.9773 547.721,58.6439 550.5,59.5C 551.354,58.4783 552.354,57.6449 553.5,57C 552.289,55.8869 552.289,54.7202 553.5,53.5C 548.212,49.2074 543.545,44.2074 539.5,38.5C 540.025,37.8076 540.692,37.3076 541.5,37C 539.809,35.5946 537.976,34.4279 536,33.5C 535.51,32.2068 535.343,30.8734 535.5,29.5C 533.61,29.7035 532.11,29.0368 531,27.5C 530.515,23.5142 528.848,20.1808 526,17.5C 525.667,17.8333 525.333,18.1667 525,18.5C 524.5,17.5 524,16.5 523.5,15.5C 525.423,14.6922 527.423,14.1922 529.5,14C 526.207,11.3568 525.874,8.52347 528.5,5.5C 531.674,5.04779 532.007,4.04779 529.5,2.5C 529.833,1.5 530.5,0.833333 531.5,0.5C 532.429,1.68884 532.762,3.02218 532.5,4.5C 533.5,4.5 534.5,4.5 535.5,4.5 Z M 556.5,60.5 C 555.175,59.0474 554.342,59.3808 554,61.5C 553.449,59.6467 554.115,58.3133 556,57.5C 556.483,58.448 556.649,59.448 556.5,60.5 Z M 555.5,80.5 C 557.387,78.4889 557.554,76.4889 556,74.5C 555.667,74.8333 555.333,75.1667 555,75.5C 554.764,73.236 554.264,71.0693 553.5,69C 554.75,67.0253 556.083,65.8586 557.5,65.5C 556.271,64.7189 554.938,64.2189 553.5,64C 555.101,63.7266 556.601,63.2266 558,62.5C 559.309,64.6864 559.476,66.8531 558.5,69C 559.5,69.3333 560.5,69.6667 561.5,70C 561.103,73.2214 559.936,76.3881 558,79.5C 557.329,80.2524 556.496,80.5858 555.5,80.5 Z M 551.5,70.5 C 553.225,70.8425 553.725,71.8425 553,73.5C 552.487,72.4734 551.987,71.4734 551.5,70.5 Z M 549.5,87.5 C 549.443,86.391 549.11,85.391 548.5,84.5C 549.496,84.4142 550.329,84.7476 551,85.5C 552.067,83.7174 553.567,83.2174 555.5,84C 553.359,84.9855 551.359,86.1522 549.5,87.5 Z M 554.5,125.5 C 552.663,125.361 552.33,124.694 553.5,123.5C 554.298,123.957 554.631,124.624 554.5,125.5 Z"/></g>
<g><path style="opacity:0.09" fill="#0039f8" d="M 528.5,5.5 C 526.663,5.36055 526.33,4.69388 527.5,3.5C 528.298,3.95689 528.631,4.62356 528.5,5.5 Z"/></g>
<g><path style="opacity:0.877" fill="#de3f3e" d="M 117.5,12.5 C 118.179,14.5879 118.512,16.5879 118.5,18.5C 116.37,19.9641 115.037,21.9641 114.5,24.5C 115.873,24.3433 117.207,24.51 118.5,25C 116.701,26.8606 115.035,28.8606 113.5,31C 111.833,30.6667 110.167,30.3333 108.5,30C 110.229,31.7889 110.896,33.9556 110.5,36.5C 109.178,36.67 108.011,36.3366 107,35.5C 107.263,36.9506 107.096,38.2839 106.5,39.5C 104.368,37.8826 102.035,37.3826 99.5,38C 99.8333,38.3333 100.167,38.6667 100.5,39C 98.3848,41.1997 96.0514,43.1997 93.5,45C 89.9565,46.8306 86.2899,47.9972 82.5,48.5C 80.8767,51.4909 78.5433,53.8243 75.5,55.5C 76.2485,57.3325 77.2485,58.9991 78.5,60.5C 80.1227,59.5092 81.1227,60.1759 81.5,62.5C 81.2907,63.086 80.9574,63.586 80.5,64C 84.0752,63.8019 84.7418,62.4685 82.5,60C 83.5955,58.3247 85.0955,57.158 87,56.5C 90.4587,59.1159 93.9587,59.1159 97.5,56.5C 99.1667,57.1667 100.833,57.8333 102.5,58.5C 103.696,58.1543 103.696,57.6543 102.5,57C 106.109,54.7851 106.775,55.1184 104.5,58C 105.646,58.6449 106.646,59.4783 107.5,60.5C 107.833,59.1667 108.167,57.8333 108.5,56.5C 110.167,57.8333 111.833,59.1667 113.5,60.5C 114.503,58.458 115.837,58.1246 117.5,59.5C 121.402,55.177 124.735,55.5103 127.5,60.5C 128.281,59.2634 129.281,58.2634 130.5,57.5C 131.754,59.2592 131.421,60.7592 129.5,62C 132.49,62.8469 133.824,61.6802 133.5,58.5C 135.144,58.2865 136.644,58.6198 138,59.5C 139.018,57.4356 140.351,57.1023 142,58.5C 143.285,58.0496 144.452,57.3829 145.5,56.5C 147.816,59.4265 149.316,59.0932 150,55.5C 150.748,57.3325 151.748,58.9991 153,60.5C 153.464,59.9056 153.631,59.2389 153.5,58.5C 154.391,57.8902 155.391,57.5569 156.5,57.5C 156.369,56.7611 156.536,56.0944 157,55.5C 160.71,56.4284 164.377,57.4284 168,58.5C 169.044,57.3774 169.71,56.0441 170,54.5C 171.692,56.3586 173.192,58.3586 174.5,60.5C 175.096,59.2839 175.263,57.9506 175,56.5C 175.779,57.7282 176.779,58.7282 178,59.5C 179.961,58.1034 182.128,57.1034 184.5,56.5C 186.41,57.5481 188.244,57.5481 190,56.5C 190.667,57.1667 191.333,57.8333 192,58.5C 193.987,57.782 195.821,56.782 197.5,55.5C 198.714,57.3797 200.048,57.7131 201.5,56.5C 203.144,56.7135 204.644,56.3802 206,55.5C 206.903,56.7014 208.069,57.5348 209.5,58C 208.692,58.3076 208.025,58.8076 207.5,59.5C 209.289,61.202 210.955,61.3687 212.5,60C 209.617,55.8991 210.117,55.0658 214,57.5C 214.772,57.3552 215.439,57.0219 216,56.5C 216.7,58.032 217.866,59.032 219.5,59.5C 221.22,58.0198 223.053,56.6865 225,55.5C 226.221,56.2718 227.221,57.2718 228,58.5C 229,57.1667 230,55.8333 231,54.5C 231.324,56.5689 232.158,56.9023 233.5,55.5C 234.265,56.6119 235.265,57.2786 236.5,57.5C 236.971,58.9008 237.638,60.2342 238.5,61.5C 239.59,60.6086 239.59,59.6086 238.5,58.5C 239.242,57.7132 240.075,57.0465 241,56.5C 242.458,57.7468 243.958,57.7468 245.5,56.5C 246.749,58.4755 248.249,58.8088 250,57.5C 250.833,58.5 251.667,59.5 252.5,60.5C 253.386,59.675 253.719,58.675 253.5,57.5C 255.582,57.472 257.416,58.1387 259,59.5C 260.688,57.2106 262.521,55.8772 264.5,55.5C 265.984,56.4669 266.984,57.8002 267.5,59.5C 268.859,58.9935 269.859,57.9935 270.5,56.5C 273.837,57.1093 274.17,58.276 271.5,60C 272.593,61.3654 273.926,61.6987 275.5,61C 274.804,59.512 275.138,58.012 276.5,56.5C 277.967,57.6953 279.467,57.6953 281,56.5C 281.945,56.9054 282.612,57.572 283,58.5C 283.934,55.0352 285.434,54.7019 287.5,57.5C 286.494,58.3957 286.494,59.0623 287.5,59.5C 289.891,56.8865 292.725,54.8865 296,53.5C 296.49,54.7932 296.657,56.1266 296.5,57.5C 298.144,57.2865 299.644,57.6198 301,58.5C 301.333,57.8333 301.667,57.1667 302,56.5C 304.283,57.7192 306.616,57.7192 309,56.5C 309.5,56.8333 310,57.1667 310.5,57.5C 309.355,58.891 309.355,60.2243 310.5,61.5C 311.243,60.0921 312.077,58.7588 313,57.5C 314,58.8333 315,60.1667 316,61.5C 317,60.1667 318,58.8333 319,57.5C 319.342,59.8183 318.842,61.985 317.5,64C 318.784,64.6838 319.951,64.5171 321,63.5C 323.052,65.0585 325.219,66.3918 327.5,67.5C 328.029,69.491 329.362,71.491 331.5,73.5C 331.333,74.1667 331.167,74.8333 331,75.5C 329.278,75.9615 327.445,76.1282 325.5,76C 327.422,77.46 328.089,79.1267 327.5,81C 326.234,81.3095 325.067,81.8095 324,82.5C 322.989,81.6634 321.822,81.33 320.5,81.5C 320.701,84.7648 319.534,87.4315 317,89.5C 315.667,88.8333 314.333,88.1667 313,87.5C 308.82,88.6797 304.653,88.6797 300.5,87.5C 299.5,88.1667 298.5,88.8333 297.5,89.5C 296.402,88.3845 295.235,88.3845 294,89.5C 293.5,89.1667 293,88.8333 292.5,88.5C 293.59,87.3914 293.59,86.3914 292.5,85.5C 291.12,86.9756 289.453,87.9756 287.5,88.5C 284.998,88.3787 282.332,88.2121 279.5,88C 278.584,87.6258 277.75,87.1258 277,86.5C 276.311,87.3567 275.478,88.0233 274.5,88.5C 271.568,88.3671 268.568,88.3671 265.5,88.5C 264.833,87.8333 264.167,87.1667 263.5,86.5C 262.52,87.9814 261.353,89.3147 260,90.5C 258.846,89.2567 257.512,88.2567 256,87.5C 249.605,89.484 243.105,89.484 236.5,87.5C 234.04,86.9413 231.707,87.608 229.5,89.5C 228.5,88.8333 227.5,88.1667 226.5,87.5C 223.119,87.8576 219.619,87.8576 216,87.5C 212.564,89.6589 209.231,89.3255 206,86.5C 204.108,87.13 202.441,88.13 201,89.5C 197.685,85.5094 194.351,85.5094 191,89.5C 189.374,89.1459 187.541,89.1459 185.5,89.5C 185.817,86.4655 184.817,85.4655 182.5,86.5C 181.188,86.8243 180.355,87.4909 180,88.5C 178.124,86.8769 176.79,87.2102 176,89.5C 175.667,88.8333 175.333,88.1667 175,87.5C 174.044,88.8941 172.711,89.5607 171,89.5C 168.638,88.3708 166.305,88.3708 164,89.5C 162.441,88.9706 160.941,88.304 159.5,87.5C 157.677,88.7472 155.677,89.4139 153.5,89.5C 153.669,84.9593 153.002,84.626 151.5,88.5C 150.808,87.9747 150.308,87.3081 150,86.5C 149.252,88.3325 148.252,89.9991 147,91.5C 144.436,89.9231 141.603,88.9231 138.5,88.5C 137.749,89.376 137.249,90.376 137,91.5C 135.667,90.1667 134.333,88.8333 133,87.5C 132.581,88.6721 131.915,89.6721 131,90.5C 128.022,90.6719 125.022,90.0053 122,88.5C 121.692,89.3081 121.192,89.9747 120.5,90.5C 117.163,89.8293 113.663,89.8293 110,90.5C 108.188,90.5066 106.688,89.84 105.5,88.5C 104.583,89.1272 103.583,89.4606 102.5,89.5C 102.167,88.1667 101.833,88.1667 101.5,89.5C 100.417,89.5394 99.4168,89.8728 98.5,90.5C 93.2266,89.2427 88.3932,88.576 84,88.5C 83.3109,89.3567 82.4776,90.0233 81.5,90.5C 78.4906,90.1437 76.1573,89.1437 74.5,87.5C 74.5326,83.8981 73.1993,80.8981 70.5,78.5C 71.8114,77.7425 72.3114,76.7425 72,75.5C 70.428,76.0811 68.5947,76.0811 66.5,75.5C 68.8103,73.1005 71.3103,71.7672 74,71.5C 73.621,69.925 73.7877,68.425 74.5,67C 73.552,66.5172 72.552,66.3505 71.5,66.5C 71.5743,64.5891 72.5743,63.4224 74.5,63C 73.6955,60.8517 73.6955,59.0184 74.5,57.5C 71.9251,60.3191 70.0918,59.9858 69,56.5C 68.0311,58.7339 66.6978,60.7339 65,62.5C 63.6914,60.1088 62.6914,60.1088 62,62.5C 61.6667,62.1667 61.3333,61.8333 61,61.5C 62.1257,63.9497 61.459,65.9497 59,67.5C 58.586,67.0426 58.086,66.7093 57.5,66.5C 55.4242,68.9095 53.7575,71.5762 52.5,74.5C 52.9767,75.4776 53.6433,76.3109 54.5,77C 53.1387,78.5843 52.472,80.4176 52.5,82.5C 53.5,82.5 54.5,82.5 55.5,82.5C 55.2254,87.2203 56.0588,87.5537 58,83.5C 58.6838,84.7839 58.5171,85.9505 57.5,87C 59.3759,88.0173 61.3759,88.8506 63.5,89.5C 62.7366,90.7193 61.7366,91.7193 60.5,92.5C 63.9112,93.6086 63.9112,95.2752 60.5,97.5C 61.7598,98.3816 62.9264,99.3816 64,100.5C 64.677,98.311 65.8437,97.9776 67.5,99.5C 69.7203,102.785 70.887,106.451 71,110.5C 73.1777,107.532 74.3444,107.865 74.5,111.5C 73.448,111.351 72.448,111.517 71.5,112C 73.5701,112.948 75.0701,114.448 76,116.5C 77.016,115.366 77.6827,115.699 78,117.5C 78.7175,116.549 79.5509,116.383 80.5,117C 79.4258,117.739 78.7591,118.739 78.5,120C 79.2689,123.243 80.2689,126.41 81.5,129.5C 80.2634,130.281 79.2634,131.281 78.5,132.5C 80.2388,132.594 82.2388,132.761 84.5,133C 81.8238,135.39 79.1571,137.723 76.5,140C 78.7894,141.688 80.1228,143.521 80.5,145.5C 77.984,146.726 75.6507,148.226 73.5,150C 72.2161,150.684 71.0495,150.517 70,149.5C 69.6924,150.308 69.1924,150.975 68.5,151.5C 67.1667,150.167 65.8333,148.833 64.5,147.5C 64.7036,148.529 64.2036,149.529 63,150.5C 62.6174,149.944 62.1174,149.611 61.5,149.5C 61.6068,147.621 61.1068,147.288 60,148.5C 59.5831,147.244 58.7498,146.577 57.5,146.5C 54.3838,140.869 51.0504,135.369 47.5,130C 47.8333,129.667 48.1667,129.333 48.5,129C 47.552,128.517 46.552,128.351 45.5,128.5C 45.5764,126.077 44.5764,124.244 42.5,123C 43.0223,122.05 43.689,121.216 44.5,120.5C 43.2839,119.904 41.9506,119.737 40.5,120C 40.9574,119.586 41.2907,119.086 41.5,118.5C 40.3128,117.481 39.3128,116.314 38.5,115C 38.8333,114.667 39.1667,114.333 39.5,114C 34.9772,109.87 31.4772,105.37 29,100.5C 28.3235,96.5995 26.8235,93.0995 24.5,90C 24.8333,89.6667 25.1667,89.3333 25.5,89C 24.0506,87.883 22.3839,87.2163 20.5,87C 22.158,86.2747 22.658,85.108 22,83.5C 20.5331,80.7336 18.6998,78.2336 16.5,76C 17.8333,75.3333 17.8333,74.6667 16.5,74C 18.2861,73.8038 19.6195,72.9705 20.5,71.5C 20.0431,70.7025 19.3764,70.3691 18.5,70.5C 17.9524,69.3115 17.6191,68.1448 17.5,67C 18.2893,63.9031 19.456,63.7364 21,66.5C 22.4947,64.8904 22.6613,63.2237 21.5,61.5C 23.4639,59.5262 25.6306,57.8595 28,56.5C 29.6665,57.3402 29.8331,56.8402 28.5,55C 30.9249,54.7073 32.7582,53.5407 34,51.5C 34.6667,52.1667 35.3333,52.8333 36,53.5C 37.6171,52.1487 38.7838,50.482 39.5,48.5C 43.7646,46.3937 47.5979,43.727 51,40.5C 52.0495,41.5171 53.2161,41.6838 54.5,41C 53.4829,39.9505 53.3162,38.7839 54,37.5C 55,37.5 56,37.5 57,37.5C 57.6667,36.1667 58.3333,34.8333 59,33.5C 59.3333,33.8333 59.6667,34.1667 60,34.5C 63.2334,32.5909 66.4001,30.5909 69.5,28.5C 70.086,28.7093 70.586,29.0426 71,29.5C 74.9623,25.3584 79.2956,21.6917 84,18.5C 84.414,18.9574 84.914,19.2907 85.5,19.5C 87.1446,18.3037 88.8113,17.3037 90.5,16.5C 91.7887,17.5009 93.1221,17.3342 94.5,16C 93.2888,15.1072 93.2888,14.2739 94.5,13.5C 96.3255,14.5709 97.4921,13.9042 98,11.5C 98.3333,11.8333 98.6667,12.1667 99,12.5C 101.439,9.84094 104.272,8.84094 107.5,9.5C 106.437,11.366 107.104,11.866 109.5,11C 111.394,9.92071 111.727,8.58738 110.5,7C 111.766,6.69055 112.933,6.19055 114,5.5C 114.311,6.74247 113.811,7.74247 112.5,8.5C 113.291,10.9608 114.958,12.2941 117.5,12.5 Z M 156.5,57.5 C 157.473,57.9867 158.473,58.4867 159.5,59C 157.843,59.7252 156.843,59.2252 156.5,57.5 Z M 171.5,60.5 C 168.999,60.4891 168.832,59.8224 171,58.5C 171.464,59.0944 171.631,59.7611 171.5,60.5 Z M 221.5,59.5 C 224.001,59.5109 224.168,60.1776 222,61.5C 221.536,60.9056 221.369,60.2389 221.5,59.5 Z M 267.5,59.5 C 267.489,62.0009 266.822,62.1676 265.5,60C 266.094,59.5357 266.761,59.369 267.5,59.5 Z M 142.5,61.5 C 144.646,61.6964 144.812,62.6964 143,64.5C 142.517,63.552 142.351,62.552 142.5,61.5 Z M 249.5,62.5 C 250.077,61.2267 250.743,61.2267 251.5,62.5C 251.03,63.463 250.363,63.463 249.5,62.5 Z M 89.5,63.5 C 90.3864,62.2241 91.3864,62.2241 92.5,63.5C 91.5754,64.5624 90.5754,64.5624 89.5,63.5 Z M 21.5,67.5 C 22.3764,67.3691 23.0431,67.7025 23.5,68.5C 21.1916,69.8734 20.5249,69.5401 21.5,67.5 Z M 281.5,82.5 C 284.001,82.5109 284.168,83.1776 282,84.5C 281.536,83.9056 281.369,83.2389 281.5,82.5 Z M 79.5,84.5 C 81.7602,85.2376 81.9269,86.2376 80,87.5C 79.5172,86.552 79.3505,85.552 79.5,84.5 Z M 84.5,84.5 C 87.1667,85.1667 87.1667,85.8333 84.5,86.5C 84.5,85.8333 84.5,85.1667 84.5,84.5 Z M 111.5,84.5 C 112.713,85.4971 112.546,86.4971 111,87.5C 110.53,86.4232 110.697,85.4232 111.5,84.5 Z M 63.5,101.5 C 65.6246,102.368 65.7913,103.368 64,104.5C 60.9628,103.68 60.7961,102.68 63.5,101.5 Z M 66.5,104.5 C 68.7602,105.238 68.9269,106.238 67,107.5C 66.5172,106.552 66.3505,105.552 66.5,104.5 Z M 43.5,116.5 C 44.4971,115.287 45.4971,115.454 46.5,117C 45.2805,118.795 44.2805,118.628 43.5,116.5 Z M 73.5,118.5 C 74.7733,119.077 74.7733,119.743 73.5,120.5C 72.537,120.03 72.537,119.363 73.5,118.5 Z M 55.5,136.5 C 56.0768,135.227 56.7435,135.227 57.5,136.5C 57.0302,137.463 56.3635,137.463 55.5,136.5 Z"/></g>
<g><path style="opacity:0.297" fill="#de3f3e" d="M 117.5,8.5 C 116.537,7.6365 116.537,6.96983 117.5,6.5C 118.773,7.2565 118.773,7.92317 117.5,8.5 Z"/></g>
<g><path style="opacity:0.447" fill="#de3f3e" d="M 117.5,8.5 C 118.681,10.0672 120.347,10.9005 122.5,11C 121.095,12.2692 119.429,12.7692 117.5,12.5C 117.279,11.2652 116.612,10.2652 115.5,9.5C 115.957,8.70245 116.624,8.36912 117.5,8.5 Z"/></g>
<g><path style="opacity:0.171" fill="#de3f3e" d="M 90.5,16.5 C 89.475,16.1034 89.3083,15.4368 90,14.5C 90.4643,15.0944 90.631,15.7611 90.5,16.5 Z"/></g>
<g><path style="opacity:0.067" fill="#de3f3e" d="M 81.5,17.5 C 81.8966,16.475 82.5632,16.3083 83.5,17C 82.9056,17.4643 82.2389,17.631 81.5,17.5 Z"/></g>
<g><path style="opacity:0.454" fill="#de3f3e" d="M 118.5,18.5 C 119.573,19.2506 119.74,20.2506 119,21.5C 118.517,20.552 118.351,19.552 118.5,18.5 Z"/></g>
<g><path style="opacity:0.286" fill="#de3f3e" d="M 120.5,18.5 C 121.833,19.1667 121.833,19.1667 120.5,18.5 Z"/></g>
<g><path style="opacity:0.216" fill="#de3f3e" d="M 77.5,20.5 C 76.8333,19.1667 76.8333,19.1667 77.5,20.5 Z"/></g>
<g><path style="opacity:0.184" fill="#de3f3e" d="M 76.5,20.5 C 75.8333,21.1667 75.8333,21.1667 76.5,20.5 Z"/></g>
<g><path style="opacity:0.224" fill="#de3f3e" d="M 77.5,20.5 C 78.8333,21.1667 78.8333,21.1667 77.5,20.5 Z"/></g>
<g><path style="opacity:0.148" fill="#0039f8" d="M 364.5,51.5 C 366.337,51.6395 366.67,52.3061 365.5,53.5C 364.702,53.0431 364.369,52.3764 364.5,51.5 Z"/></g>
<g><path style="opacity:0.02" fill="#de3f3e" d="M 162.5,54.5 C 163.833,55.1667 163.833,55.1667 162.5,54.5 Z"/></g>
<g><path style="opacity:0.131" fill="#de3f3e" d="M 177.5,56.5 C 176.711,56.2172 176.044,55.7172 175.5,55C 176.816,54.4719 177.483,54.9719 177.5,56.5 Z"/></g>
<g><path style="opacity:0.859" fill="#de3f3e" d="M 213.5,54.5 C 214.833,55.1667 214.833,55.1667 213.5,54.5 Z"/></g>
<g><path style="opacity:0.525" fill="#de3f3e" d="M 201.5,56.5 C 200.833,55.1667 200.833,55.1667 201.5,56.5 Z"/></g>
<g><path style="opacity:0.446" fill="#0039f8" d="M 478.5,58.5 C 476.952,58.1788 476.285,57.1788 476.5,55.5C 479.248,55.4017 479.914,56.4017 478.5,58.5 Z"/></g>
<g><path style="opacity:0.357" fill="#de3f3e" d="M 23.5,56.5 C 24.8333,57.1667 24.8333,57.1667 23.5,56.5 Z"/></g>
<g><path style="opacity:0.588" fill="#de3f3e" d="M 153.5,58.5 C 152.475,58.1034 152.308,57.4368 153,56.5C 153.464,57.0944 153.631,57.7611 153.5,58.5 Z"/></g>
<g><path style="opacity:0.125" fill="#de3f3e" d="M 177.5,56.5 C 178.833,57.1667 178.833,57.1667 177.5,56.5 Z"/></g>
<g><path style="opacity:0.251" fill="#de3f3e" d="M 236.5,56.5 C 237.833,57.1667 237.833,57.1667 236.5,56.5 Z"/></g>
<g><path style="opacity:0.004" fill="#0039f8" d="M 531.5,57.5 C 530.833,56.1667 530.833,56.1667 531.5,57.5 Z"/></g>
<g><path style="opacity:0.118" fill="#de3f3e" d="M 19.5,62.5 C 20.8333,63.1667 20.8333,63.1667 19.5,62.5 Z"/></g>
<g><path style="opacity:0.139" fill="#de3f3e" d="M 71.5,66.5 C 71.631,67.2389 71.4643,67.9056 71,68.5C 70.3083,67.5632 70.475,66.8966 71.5,66.5 Z"/></g>
<g><path style="opacity:0.361" fill="#de3f3e" d="M 327.5,66.5 C 328.833,67.1667 328.833,67.1667 327.5,66.5 Z"/></g>
<g><path style="opacity:0.605" fill="#de3f3e" d="M 60.5,67.5 C 62.7602,68.2376 62.9269,69.2376 61,70.5C 59.2716,69.6477 59.105,68.6477 60.5,67.5 Z"/></g>
<g><path style="opacity:0.435" fill="#de3f3e" d="M 18.5,70.5 C 18.4891,73.0009 17.8224,73.1676 16.5,71C 17.0944,70.5357 17.7611,70.369 18.5,70.5 Z"/></g>
<g><path style="opacity:0.286" fill="#de3f3e" d="M 54.5,74.5 C 55.8333,75.1667 55.8333,75.1667 54.5,74.5 Z"/></g>
<g><path style="opacity:0.267" fill="#de3f3e" d="M 61.5,76.5 C 62.8333,77.1667 62.8333,77.1667 61.5,76.5 Z"/></g>
<g><path style="opacity:0.157" fill="#de3f3e" d="M 64.5,76.5 C 65.8333,77.1667 65.8333,77.1667 64.5,76.5 Z"/></g>
<g><path style="opacity:0.306" fill="#de3f3e" d="M 328.5,78.5 C 329.833,79.1667 329.833,79.1667 328.5,78.5 Z"/></g>
<g><path style="opacity:0.139" fill="#de3f3e" d="M 68.5,79.5 C 69.525,79.8966 69.6917,80.5632 69,81.5C 68.5357,80.9056 68.369,80.2389 68.5,79.5 Z"/></g>
<g><path style="opacity:0.421" fill="#de3f3e" d="M 323.5,83.5 C 324.773,84.0768 324.773,84.7435 323.5,85.5C 322.537,85.0302 322.537,84.3635 323.5,83.5 Z"/></g>
<g><path style="opacity:0.157" fill="#de3f3e" d="M 328.5,84.5 C 329.833,85.1667 329.833,85.1667 328.5,84.5 Z"/></g>
<g><path style="opacity:0.78" fill="#de3f3e" d="M 182.5,86.5 C 183.525,86.8966 183.692,87.5632 183,88.5C 182.536,87.9056 182.369,87.2389 182.5,86.5 Z"/></g>
<g><path style="opacity:0.178" fill="#de3f3e" d="M 72.5,87.5 C 73.525,87.8966 73.6917,88.5632 73,89.5C 72.5357,88.9056 72.369,88.2389 72.5,87.5 Z"/></g>
<g><path style="opacity:0.055" fill="#de3f3e" d="M 101.5,89.5 C 101.833,89.5 102.167,89.5 102.5,89.5C 102.315,90.1701 101.981,90.1701 101.5,89.5 Z"/></g>
<g><path style="opacity:0.023" fill="#0039f8" d="M 483.5,92.5 C 485.337,92.6395 485.67,93.3061 484.5,94.5C 483.702,94.0431 483.369,93.3764 483.5,92.5 Z"/></g>
<g><path style="opacity:0.818" fill="#0039f8" d="M 390.5,132.5 C 391.647,136.624 392.647,141.124 393.5,146C 393.109,149.552 393.109,153.052 393.5,156.5C 392.96,157.748 392.293,158.915 391.5,160C 391.833,160.333 392.167,160.667 392.5,161C 391.142,161.934 389.808,162.768 388.5,163.5C 386.348,164.077 386.015,165.244 387.5,167C 387,167.5 386.5,168 386,168.5C 383.74,168.673 381.407,168.673 379,168.5C 378.481,169.516 377.647,170.182 376.5,170.5C 374.964,169.751 373.631,168.751 372.5,167.5C 370.262,169.893 370.262,172.06 372.5,174C 371.376,174.249 370.376,174.749 369.5,175.5C 369.846,176.696 370.346,176.696 371,175.5C 373.028,178.763 372.861,181.93 370.5,185C 370.95,186.285 371.617,187.452 372.5,188.5C 371.696,189.941 371.029,191.441 370.5,193C 371.695,194.533 371.695,196.033 370.5,197.5C 371.167,197.833 371.833,198.167 372.5,198.5C 372.055,201.053 372.055,203.72 372.5,206.5C 372.317,208.317 372.317,210.15 372.5,212C 370.146,213.378 370.146,214.878 372.5,216.5C 372.333,217.167 372.167,217.833 372,218.5C 371.667,217.5 371.333,216.5 371,215.5C 368.676,216.719 366.509,218.052 364.5,219.5C 362.428,218.081 360.428,217.414 358.5,217.5C 358.709,216.914 359.043,216.414 359.5,216C 357.313,213.441 356.313,210.441 356.5,207C 356.629,205.019 357.296,203.353 358.5,202C 357.232,199.859 356.565,197.526 356.5,195C 355.895,191.26 356.561,187.593 358.5,184C 356.616,179.328 355.282,174.661 354.5,170C 355.167,169.667 355.833,169.333 356.5,169C 355.643,168.311 354.977,167.478 354.5,166.5C 355.833,165.5 355.833,164.5 354.5,163.5C 356.04,162.468 356.54,161.135 356,159.5C 355.667,160.167 355.333,160.833 355,161.5C 354.689,159.444 354.189,157.444 353.5,155.5C 352.607,151.273 352.607,147.106 353.5,143C 352.692,142.692 352.025,142.192 351.5,141.5C 352.441,141.511 353.108,141.011 353.5,140C 352.38,138.444 351.38,136.944 350.5,135.5C 351.46,134.188 351.294,132.854 350,131.5C 349.333,129.167 349.333,126.833 350,124.5C 353.262,125.841 353.762,125.508 351.5,123.5C 352.735,120.956 353.901,120.956 355,123.5C 356.885,121.285 358.718,121.618 360.5,124.5C 361.308,124.192 361.975,123.692 362.5,123C 361.289,122.107 361.289,121.274 362.5,120.5C 364.936,121.891 365.602,121.391 364.5,119C 367.689,117.252 370.856,116.419 374,116.5C 378.268,119.411 382.435,121.744 386.5,123.5C 387.855,126.592 389.188,129.592 390.5,132.5 Z M 371.5,118.5 C 374.001,118.511 374.168,119.178 372,120.5C 371.536,119.906 371.369,119.239 371.5,118.5 Z M 365.5,132.5 C 367.844,133.672 370.177,133.672 372.5,132.5C 374.382,133.093 376.215,133.76 378,134.5C 378.716,137.72 379.883,140.72 381.5,143.5C 379.978,145.156 380.311,146.323 382.5,147C 381.572,147.388 380.905,148.055 380.5,149C 380.913,150.796 380.913,152.463 380.5,154C 377.126,153.179 374.46,154.346 372.5,157.5C 370.833,156.667 369.167,155.833 367.5,155C 368.167,154.333 368.833,153.667 369.5,153C 368.149,146.394 366.816,139.561 365.5,132.5 Z M 363.5,136.5 C 364.773,137.077 364.773,137.743 363.5,138.5C 362.537,138.03 362.537,137.363 363.5,136.5 Z"/></g>
<g><path style="opacity:0.098" fill="#0039f8" d="M 354.5,118.5 C 355.833,119.167 355.833,119.167 354.5,118.5 Z"/></g>
<g><path style="opacity:0.835" fill="#0039f8" d="M 412.5,156.5 C 411.876,156.917 411.543,157.584 411.5,158.5C 413.362,159.948 414.028,161.615 413.5,163.5C 412.737,164.719 411.737,165.719 410.5,166.5C 412.475,167.749 412.809,169.249 411.5,171C 414.167,171.667 414.167,172.333 411.5,173C 412.167,173.333 412.833,173.667 413.5,174C 410.535,177.492 410.202,181.159 412.5,185C 410.016,186.606 410.016,188.106 412.5,189.5C 410.401,193.467 409.067,197.467 408.5,201.5C 409.167,201.833 409.833,202.167 410.5,202.5C 409.975,203.192 409.308,203.692 408.5,204C 409.252,204.671 409.586,205.504 409.5,206.5C 408.167,206.833 408.167,207.167 409.5,207.5C 409.047,208.458 408.381,209.292 407.5,210C 408.428,210.388 409.095,211.055 409.5,212C 407.943,215.143 406.443,218.309 405,221.5C 403.667,220.833 402.667,219.833 402,218.5C 401.174,220.405 400.007,220.739 398.5,219.5C 398.18,217.422 397.18,215.256 395.5,213C 397.584,211.573 397.584,209.907 395.5,208C 395.491,205.563 396.158,203.396 397.5,201.5C 395.252,200.676 395.086,199.676 397,198.5C 397.651,196.765 397.485,195.098 396.5,193.5C 397.896,192.148 398.563,190.481 398.5,188.5C 397.875,185.48 397.542,182.48 397.5,179.5C 399.737,175.408 400.071,171.408 398.5,167.5C 400.589,165.405 400.589,163.572 398.5,162C 399.167,161 399.833,160 400.5,159C 401.291,148.605 401.291,138.105 400.5,127.5C 401.954,124.994 402.621,122.328 402.5,119.5C 404.835,120.413 407.001,121.747 409,123.5C 409.333,123.167 409.667,122.833 410,122.5C 412.024,124.69 413.857,127.023 415.5,129.5C 414.624,130.251 413.624,130.751 412.5,131C 414.513,132.791 414.513,134.125 412.5,135C 412.962,136.722 413.128,138.555 413,140.5C 413.654,139.304 414.154,139.304 414.5,140.5C 413.833,141.167 413.167,141.833 412.5,142.5C 413.833,143.833 413.833,145.167 412.5,146.5C 413.167,147.167 413.833,147.833 414.5,148.5C 414.213,150.986 413.546,153.653 412.5,156.5 Z"/></g>
<g><path style="opacity:0.848" fill="#de3f3e" d="M 161.5,190.5 C 161.167,189.167 160.833,189.167 160.5,190.5C 157.427,191.694 154.427,192.694 151.5,193.5C 145.465,193.35 139.465,193.017 133.5,192.5C 133.94,195.714 135.606,198.047 138.5,199.5C 140.24,199.848 141.907,199.848 143.5,199.5C 145.159,197.413 146.826,197.746 148.5,200.5C 149.736,199.754 151.07,199.421 152.5,199.5C 153.281,201.322 154.448,201.989 156,201.5C 156.311,202.742 155.811,203.742 154.5,204.5C 154.957,205.298 155.624,205.631 156.5,205.5C 157.954,208.934 156.788,211.267 153,212.5C 151.914,210.153 150.581,210.153 149,212.5C 143.153,212.466 137.32,212.466 131.5,212.5C 130.497,210.458 129.163,210.125 127.5,211.5C 126.209,209.041 124.209,207.541 121.5,207C 121.493,205.417 121.826,203.751 122.5,202C 120.181,198.75 118.847,195.416 118.5,192C 119.5,191.667 120.5,191.333 121.5,191C 120.061,190.009 119.061,188.676 118.5,187C 122.581,183.891 124.414,179.725 124,174.5C 124.903,173.299 126.069,172.465 127.5,172C 126.216,171.316 125.049,171.483 124,172.5C 122.676,171.12 121.343,170.786 120,171.5C 119.311,170.643 118.478,169.977 117.5,169.5C 114.827,170.501 112.493,172.001 110.5,174C 112.394,175.079 112.727,176.413 111.5,178C 112.167,180.333 112.833,182.667 113.5,185C 112.833,185.667 112.167,186.333 111.5,187C 112.833,187.667 112.833,188.333 111.5,189C 113.797,190.16 113.464,191.16 110.5,192C 111.428,192.388 112.095,193.055 112.5,194C 111.305,195.533 111.305,197.033 112.5,198.5C 109.956,199.937 109.956,201.437 112.5,203C 111.642,204.57 110.975,206.237 110.5,208C 108.786,208.128 107.119,208.962 105.5,210.5C 104.483,207.972 103.316,207.972 102,210.5C 101.383,209.551 101.549,208.718 102.5,208C 101.552,207.517 100.552,207.351 99.5,207.5C 99.9305,204.138 98.9305,201.305 96.5,199C 99.4699,194.082 99.8032,189.415 97.5,185C 99.7562,183.166 99.7562,181.499 97.5,180C 98.1667,178 98.8333,176 99.5,174C 97.311,173.323 96.9776,172.156 98.5,170.5C 96.604,169.534 94.604,169.201 92.5,169.5C 92.4874,166.639 91.3207,165.639 89,166.5C 86.9821,164.867 85.9821,162.867 86,160.5C 88.2794,158.711 90.2794,156.711 92,154.5C 93.5874,155.727 94.9207,155.394 96,153.5C 97.8504,155.962 99.017,155.462 99.5,152C 98.1939,148.198 98.1939,144.365 99.5,140.5C 95.0922,135.21 95.7588,130.877 101.5,127.5C 103.444,128.189 105.444,128.689 107.5,129C 109.087,131.197 110.753,132.53 112.5,133C 109.94,135.159 109.94,137.326 112.5,139.5C 111.624,140.251 110.624,140.751 109.5,141C 111.616,142.171 112.282,143.671 111.5,145.5C 113.859,148.988 113.526,152.321 110.5,155.5C 110.667,156.167 110.833,156.833 111,157.5C 111.667,156.167 112.333,156.167 113,157.5C 113.333,156.5 113.667,155.5 114,154.5C 115.688,156.045 117.688,157.045 120,157.5C 121.402,155.027 122.902,155.027 124.5,157.5C 125.086,157.291 125.586,156.957 126,156.5C 127.154,157.743 128.488,158.743 130,159.5C 130.617,160.449 130.451,161.282 129.5,162C 130.925,163.362 131.758,164.862 132,166.5C 133.823,162.879 136.157,162.213 139,164.5C 141.157,162.869 143.657,162.369 146.5,163C 144.405,162.444 144.238,161.944 146,161.5C 146.95,162.022 147.784,162.689 148.5,163.5C 149.842,162.098 150.676,162.431 151,164.5C 154.061,163.775 156.894,163.775 159.5,164.5C 160.833,166.5 162.167,168.5 163.5,170.5C 163.291,171.086 162.957,171.586 162.5,172C 164.01,173.351 165.01,175.018 165.5,177C 164.614,180.236 164.614,183.236 165.5,186C 163.317,187.205 161.984,188.705 161.5,190.5 Z M 130.5,167.5 C 129.89,170.824 128.223,171.324 125.5,169C 127.154,168.392 128.821,167.892 130.5,167.5 Z M 142.5,180.5 C 140.801,180.66 139.134,180.494 137.5,180C 138.328,179.085 139.328,178.419 140.5,178C 139.833,177.667 139.167,177.333 138.5,177C 140.659,176.088 142.825,175.255 145,174.5C 146.11,176.037 147.61,176.703 149.5,176.5C 149.762,177.978 149.429,179.311 148.5,180.5C 147.389,179.389 146.055,178.722 144.5,178.5C 143.287,178.747 142.62,179.414 142.5,180.5 Z M 98.5,197.5 C 100.973,197.947 101.14,198.947 99,200.5C 98.5172,199.552 98.3505,198.552 98.5,197.5 Z"/></g>
<g><path style="opacity:0.027" fill="#0039f8" d="M 390.5,131.5 C 391.833,132.167 391.833,132.167 390.5,131.5 Z"/></g>
<g><path style="opacity:0.008" fill="#0039f8" d="M 513.5,134.5 C 513.631,135.239 513.464,135.906 513,136.5C 512.308,135.563 512.475,134.897 513.5,134.5 Z"/></g>
<g><path style="opacity:0.063" fill="#de3f3e" d="M 7.5,137.5 C 8.83333,138.167 8.83333,138.167 7.5,137.5 Z"/></g>
<g><path style="opacity:0.835" fill="#de3f3e" d="M 321.5,197.5 C 320.494,202.349 320.494,207.182 321.5,212C 319.273,212.704 318.94,213.871 320.5,215.5C 318.135,218.592 315.469,220.592 312.5,221.5C 310.931,220.286 310.098,218.619 310,216.5C 309.282,217.451 308.449,217.617 307.5,217C 308.43,215.605 308.43,214.105 307.5,212.5C 309.531,210.443 309.531,208.61 307.5,207C 306.896,204.2 307.563,201.534 309.5,199C 309.209,191.986 308.875,185.32 308.5,179C 310.685,174.813 311.019,170.48 309.5,166C 310.167,165 310.833,164 311.5,163C 311.06,156.93 310.727,151.263 310.5,146C 311.561,143.768 312.561,141.602 313.5,139.5C 314.482,138.859 315.482,138.193 316.5,137.5C 317.72,138.711 318.887,138.711 320,137.5C 322.122,138.22 322.622,139.387 321.5,141C 322.624,141.839 323.291,143.006 323.5,144.5C 323.642,154.598 323.642,164.432 323.5,174C 322.879,177.186 322.212,180.352 321.5,183.5C 322.002,184.716 322.335,185.883 322.5,187C 320.652,188.861 320.652,191.028 322.5,193.5C 321.975,194.192 321.308,194.692 320.5,195C 321.252,195.671 321.586,196.504 321.5,197.5 Z"/></g>
<g><path style="opacity:0.013" fill="#0039f8" d="M 549.5,137.5 C 550.715,138.779 550.382,139.779 548.5,140.5C 548.557,139.391 548.89,138.391 549.5,137.5 Z"/></g>
<g><path style="opacity:0.247" fill="#de3f3e" d="M 81.5,138.5 C 82.8333,139.167 82.8333,139.167 81.5,138.5 Z"/></g>
<g><path style="opacity:0.094" fill="#de3f3e" d="M 313.5,139.5 C 312.833,138.167 312.833,138.167 313.5,139.5 Z"/></g>
<g><path style="opacity:0.829" fill="#de3f3e" d="M -0.5,145.5 C -0.5,145.167 -0.5,144.833 -0.5,144.5C 1.33883,143.248 3.17216,143.248 5,144.5C 6.85285,140.415 9.85285,139.748 14,142.5C 15.6101,140.511 17.4435,140.178 19.5,141.5C 20.1667,140.833 20.8333,140.167 21.5,139.5C 23.2633,139.694 25.0967,139.694 27,139.5C 28.3691,141.696 30.2024,142.03 32.5,140.5C 34.4405,140.804 36.1072,141.637 37.5,143C 37.0426,143.414 36.7093,143.914 36.5,144.5C 40.6921,148.096 40.1921,151.096 35,153.5C 33.9153,151.343 32.7487,151.176 31.5,153C 29.765,153.651 28.0983,153.485 26.5,152.5C 24.9411,153.074 23.4411,153.74 22,154.5C 20.4667,154.056 18.9667,153.723 17.5,153.5C 17.3247,160.342 17.3247,167.342 17.5,174.5C 19.4835,174.617 21.1502,173.95 22.5,172.5C 23.7202,173.711 24.8869,173.711 26,172.5C 26.8753,174.513 28.2087,174.513 30,172.5C 32.0795,174.123 34.2462,175.623 36.5,177C 35.1854,178.395 35.5188,179.395 37.5,180C 34.6193,181.251 32.786,183.417 32,186.5C 29.2908,185.803 26.6241,185.47 24,185.5C 23.6667,186.167 23.3333,186.833 23,187.5C 21.54,185.578 19.8733,184.911 18,185.5C 17.5837,192.203 17.4171,198.703 17.5,205C 23.4687,206.519 29.4687,207.852 35.5,209C 35.1667,209.333 34.8333,209.667 34.5,210C 35.9814,210.98 37.3147,212.147 38.5,213.5C 36.1323,214.872 34.4656,216.872 33.5,219.5C 28.722,218.279 23.8887,218.279 19,219.5C 16.1413,218.827 13.308,217.993 10.5,217C 8.39321,214.773 6.05987,212.773 3.5,211C 3.83333,210.667 4.16667,210.333 4.5,210C 3.55198,209.517 2.55198,209.351 1.5,209.5C 1.2965,207.61 1.96317,206.11 3.5,205C 2.69194,204.692 2.02527,204.192 1.5,203.5C 2.11527,200.961 2.78193,198.461 3.5,196C 2.27297,194.413 2.6063,193.079 4.5,192C 3.28891,190.887 3.28891,189.72 4.5,188.5C 1.53112,187.332 1.19779,185.999 3.5,184.5C 2.67443,183.549 2.50776,182.549 3,181.5C 3.65431,182.696 4.15431,182.696 4.5,181.5C 3.82912,179.493 2.82912,177.66 1.5,176C 2.25339,173.742 2.25339,171.742 1.5,170C 2.16667,167.667 2.83333,165.333 3.5,163C 3.16667,162.667 2.83333,162.333 2.5,162C 3.35668,161.311 4.02335,160.478 4.5,159.5C 4.15431,158.304 3.65431,158.304 3,159.5C 1.53382,156.504 1.36715,153.67 2.5,151C 1.39127,149.124 0.391268,147.291 -0.5,145.5 Z"/></g>
<g><path style="opacity:0.233" fill="#de3f3e" d="M 81.5,140.5 C 82.2891,140.783 82.9558,141.283 83.5,142C 82.184,142.528 81.5173,142.028 81.5,140.5 Z"/></g>
<g><path style="opacity:0.062" fill="#0039f8" d="M 514.5,140.5 C 516.337,140.639 516.67,141.306 515.5,142.5C 514.702,142.043 514.369,141.376 514.5,140.5 Z"/></g>
<g><path style="opacity:0.122" fill="#de3f3e" d="M 112.5,141.5 C 113.833,142.167 113.833,142.167 112.5,141.5 Z"/></g>
<g><path style="opacity:0.123" fill="#0039f8" d="M 331.5,145.5 C 334.179,147.303 335.179,149.637 334.5,152.5C 331.907,150.929 330.907,148.596 331.5,145.5 Z"/></g>
<g><path style="opacity:0.02" fill="#0039f8" d="M 516.5,145.5 C 518.337,145.639 518.67,146.306 517.5,147.5C 516.702,147.043 516.369,146.376 516.5,145.5 Z"/></g>
<g><path style="opacity:0.078" fill="#de3f3e" d="M 57.5,146.5 C 56.8333,147.167 56.8333,147.167 57.5,146.5 Z"/></g>
<g><path style="opacity:0.431" fill="#de3f3e" d="M 79.5,151.5 C 78.4265,150.749 78.2599,149.749 79,148.5C 79.4828,149.448 79.6495,150.448 79.5,151.5 Z"/></g>
<g><path style="opacity:0.294" fill="#de3f3e" d="M 61.5,149.5 C 60.8333,150.167 60.8333,150.167 61.5,149.5 Z"/></g>
<g><path style="opacity:0.353" fill="#de3f3e" d="M 79.5,151.5 C 81.0281,151.517 81.5281,152.184 81,153.5C 80.2828,152.956 79.7828,152.289 79.5,151.5 Z"/></g>
<g><path style="opacity:0.07" fill="#0039f8" d="M 529.5,151.5 C 530.5,151.5 531.5,151.5 532.5,151.5C 531.754,155.31 530.754,155.31 529.5,151.5 Z"/></g>
<g><path style="opacity:0.402" fill="#de3f3e" d="M 199.5,153.5 C 200.525,153.897 200.692,154.563 200,155.5C 199.536,154.906 199.369,154.239 199.5,153.5 Z"/></g>
<g><path style="opacity:0.87" fill="#0039f8" d="M 597.5,174.5 C 595.16,173.157 592.827,171.823 590.5,170.5C 589.353,170.818 588.519,171.484 588,172.5C 587.751,171.376 587.251,170.376 586.5,169.5C 585.28,170.711 584.113,170.711 583,169.5C 582.51,170.793 582.343,172.127 582.5,173.5C 579.639,173.513 578.639,174.679 579.5,177C 575.575,179.68 573.908,183.18 574.5,187.5C 571.887,188.095 571.887,188.929 574.5,190C 573.484,190.519 572.818,191.353 572.5,192.5C 572.94,194.765 573.606,196.932 574.5,199C 573.328,199.419 572.328,200.085 571.5,201C 573.353,203.944 574.019,206.944 573.5,210C 571.611,212.194 569.444,212.694 567,211.5C 565.846,212.743 564.512,213.743 563,214.5C 562,213.167 561,211.833 560,210.5C 559.395,212.481 558.395,212.815 557,211.5C 556.535,205.51 555.701,199.343 554.5,193C 555.167,192 555.833,191 556.5,190C 556.015,182.138 555.348,174.305 554.5,166.5C 556.26,162.58 557.76,158.913 559,155.5C 559.333,155.833 559.667,156.167 560,156.5C 560.739,155.426 561.739,154.759 563,154.5C 564.394,155.613 565.561,156.947 566.5,158.5C 567.086,158.291 567.586,157.957 568,157.5C 568.406,159.779 569.739,161.113 572,161.5C 574.897,157.998 578.397,156.331 582.5,156.5C 583.647,156.818 584.481,157.484 585,158.5C 585.7,156.968 586.866,155.968 588.5,155.5C 594.286,157.474 599.12,160.808 603,165.5C 603.236,167.764 603.736,169.931 604.5,172C 601.383,170.556 599.05,171.389 597.5,174.5 Z"/></g>
<g><path style="opacity:0.02" fill="#de3f3e" d="M 128.5,156.5 C 127.833,155.167 127.833,155.167 128.5,156.5 Z"/></g>
<g><path style="opacity:0.02" fill="#de3f3e" d="M 196.5,156.5 C 195.833,155.167 195.833,155.167 196.5,156.5 Z"/></g>
<g><path style="opacity:0.869" fill="#de3f3e" d="M 215.5,172.5 C 214.883,172.389 214.383,172.056 214,171.5C 209.325,174.19 204.658,173.856 200,170.5C 196.896,171.935 194.396,174.102 192.5,177C 192.957,177.414 193.291,177.914 193.5,178.5C 188.936,187.497 186.27,196.831 185.5,206.5C 184.448,206.351 183.448,206.517 182.5,207C 183.696,207.654 183.696,208.154 182.5,208.5C 179.963,206.471 177.463,206.804 175,209.5C 174.339,207.084 172.839,205.418 170.5,204.5C 171.167,203.5 171.833,202.5 172.5,201.5C 171.689,200.784 171.022,199.95 170.5,199C 171.649,197.27 171.649,195.604 170.5,194C 171.328,193.085 172.328,192.419 173.5,192C 172.707,190.915 172.04,189.748 171.5,188.5C 173.167,185.167 174.833,181.833 176.5,178.5C 175.653,176.939 175.986,175.439 177.5,174C 176.833,173.667 176.167,173.333 175.5,173C 178.502,170.838 180.502,168.005 181.5,164.5C 183.045,162.56 185.045,161.394 187.5,161C 186.549,160.282 186.383,159.449 187,158.5C 188,159.167 189,159.833 190,160.5C 191.792,158.372 193.958,157.039 196.5,156.5C 199.249,156.726 201.916,156.393 204.5,155.5C 209.322,157.89 212.656,161.557 214.5,166.5C 213.833,167.167 213.167,167.833 212.5,168.5C 212.846,169.696 213.346,169.696 214,168.5C 214.791,169.745 215.291,171.078 215.5,172.5 Z"/></g>
<g><path style="opacity:0.838" fill="#0039f8" d="M 541.5,197.5 C 543.201,197.966 544.701,197.966 546,197.5C 546.21,199.058 546.71,200.391 547.5,201.5C 545.792,203.216 544.458,205.216 543.5,207.5C 542.274,209.278 540.607,210.278 538.5,210.5C 538.167,209.167 537.833,209.167 537.5,210.5C 535.18,211.474 532.847,212.474 530.5,213.5C 527.919,212.544 525.419,212.544 523,213.5C 521.846,211.043 520.512,211.043 519,213.5C 518.558,211.321 517.558,210.655 516,211.5C 514.686,210.687 513.519,209.687 512.5,208.5C 509.861,204.427 507.695,200.093 506,195.5C 505.682,197.061 504.849,198.228 503.5,199C 504.815,200.395 504.481,201.395 502.5,202C 504.891,203.309 504.891,204.309 502.5,205C 502.957,205.414 503.291,205.914 503.5,206.5C 502.401,209.029 501.401,211.529 500.5,214C 501.056,214.383 501.389,214.883 501.5,215.5C 498.833,215.833 498.833,216.167 501.5,216.5C 500.402,217.397 500.402,218.23 501.5,219C 498.057,219.221 497.724,220.221 500.5,222C 498.911,224.749 497.411,227.916 496,231.5C 495.257,233.441 495.424,235.274 496.5,237C 494.646,239.543 493.479,242.376 493,245.5C 489.956,247.499 486.956,249.499 484,251.5C 483.792,249.223 482.958,247.057 481.5,245C 481.957,244.586 482.291,244.086 482.5,243.5C 481.833,243.167 481.167,242.833 480.5,242.5C 482.335,241.572 482.668,240.406 481.5,239C 481.909,236.053 482.909,233.386 484.5,231C 483.803,228.656 484.469,226.489 486.5,224.5C 486.291,223.914 485.957,223.414 485.5,223C 487.354,218.91 488.687,214.91 489.5,211C 487.939,210.682 486.772,209.849 486,208.5C 485.333,211.167 484.667,211.167 484,208.5C 483.692,209.308 483.192,209.975 482.5,210.5C 481.3,209.469 479.966,208.635 478.5,208C 480.932,206.913 480.598,206.413 477.5,206.5C 472.52,194.878 466.687,183.544 460,172.5C 459.667,170.833 459.333,169.167 459,167.5C 458.346,168.696 457.846,168.696 457.5,167.5C 459.446,165.021 460.946,162.354 462,159.5C 463,160.167 464,160.833 465,161.5C 467.851,160.756 470.517,160.756 473,161.5C 473.658,163.108 473.158,164.275 471.5,165C 473.521,165.513 475.021,166.68 476,168.5C 477.624,172.477 479.29,176.477 481,180.5C 484.184,181.406 485.017,183.239 483.5,186C 484.328,186.915 485.328,187.581 486.5,188C 486.167,188.333 485.833,188.667 485.5,189C 487.726,191.953 489.559,195.12 491,198.5C 492.221,197.226 493.054,195.726 493.5,194C 493.475,192.012 493.475,190.012 493.5,188C 496.67,184.959 497.337,181.626 495.5,178C 496.5,177.667 497.5,177.333 498.5,177C 497.257,175.846 496.257,174.512 495.5,173C 497.683,169.826 499.35,166.326 500.5,162.5C 501.998,162.166 503.665,162.166 505.5,162.5C 505.856,165.688 507.523,167.855 510.5,169C 509.269,170.183 509.269,171.349 510.5,172.5C 512.133,169.223 514.8,165.556 518.5,161.5C 520.132,160.703 521.632,159.703 523,158.5C 525.078,159.943 525.911,159.276 525.5,156.5C 543.743,153.944 552.41,161.444 551.5,179C 548.833,181.333 546.167,183.667 543.5,186C 543.833,186.333 544.167,186.667 544.5,187C 541.423,187.941 538.756,189.441 536.5,191.5C 535.137,190.802 533.971,190.802 533,191.5C 531.488,189.043 530.154,189.043 529,191.5C 526.942,190.891 526.109,189.891 526.5,188.5C 525.549,189.326 524.549,189.492 523.5,189C 524.451,188.282 524.617,187.449 524,186.5C 519.382,194.597 521.715,199.264 531,200.5C 533.133,199.745 534.8,198.412 536,196.5C 537.067,197.191 538.234,197.691 539.5,198C 538.304,198.654 538.304,199.154 539.5,199.5C 540.522,199.145 541.189,198.478 541.5,197.5 Z M 531.5,168.5 C 535.174,170.343 536.507,173.176 535.5,177C 532.327,177.024 529.993,175.524 528.5,172.5C 528.787,170.557 529.787,169.223 531.5,168.5 Z M 524.5,171.5 C 526.416,172.665 527.249,174.332 527,176.5C 525.628,175.09 524.795,173.423 524.5,171.5 Z M 488.5,206.5 C 491.001,206.511 491.168,207.178 489,208.5C 488.536,207.906 488.369,207.239 488.5,206.5 Z"/></g>
<g><path style="opacity:0.173" fill="#de3f3e" d="M 128.5,156.5 C 129.833,157.167 129.833,157.167 128.5,156.5 Z"/></g>
<g><path style="opacity:0.482" fill="#0039f8" d="M 412.5,156.5 C 413.833,157.167 413.833,157.167 412.5,156.5 Z"/></g>
<g><path style="opacity:0.345" fill="#0039f8" d="M 460.5,157.5 C 461.833,158.167 461.833,158.167 460.5,157.5 Z"/></g>
<g><path style="opacity:0.286" fill="#de3f3e" d="M 154.5,161.5 C 155.833,162.167 155.833,162.167 154.5,161.5 Z"/></g>
<g><path style="opacity:0.094" fill="#de3f3e" d="M 181.5,161.5 C 182.833,162.167 182.833,162.167 181.5,161.5 Z"/></g>
<g><path style="opacity:0.869" fill="#0039f8" d="M 435.5,162.5 C 437.03,163.067 438.53,163.733 440,164.5C 440.333,163.833 440.667,163.167 441,162.5C 442.399,163.227 443.899,163.727 445.5,164C 445.93,164.92 446.264,165.753 446.5,166.5C 448.838,164.989 449.504,165.323 448.5,167.5C 449.501,170.173 451.001,172.507 453,174.5C 453.093,177.007 453.926,179.174 455.5,181C 455.167,181.333 454.833,181.667 454.5,182C 457.047,183.316 457.713,185.149 456.5,187.5C 460.021,193.293 461.188,199.627 460,206.5C 458.846,208.957 457.512,208.957 456,206.5C 454.333,207.833 452.667,207.833 451,206.5C 450.667,207.167 450.333,207.833 450,208.5C 448.078,205.952 445.745,203.952 443,202.5C 441.681,204.487 439.848,205.654 437.5,206C 438.458,207.147 438.125,208.147 436.5,209C 432.516,210.357 428.683,211.191 425,211.5C 419.862,210.683 416.028,208.016 413.5,203.5C 414.244,200.317 414.244,197.317 413.5,194.5C 413.689,191.159 415.023,187.992 417.5,185C 415.203,183.84 415.536,182.84 418.5,182C 417.465,180.493 417.632,178.993 419,177.5C 421.428,179.974 421.928,179.474 420.5,176C 423.683,172.985 426.683,169.818 429.5,166.5C 431.849,165.457 433.849,164.124 435.5,162.5 Z M 436.5,177.5 C 439.945,178.199 440.278,179.866 437.5,182.5C 438.67,188.144 436.67,192.31 431.5,195C 431.833,195.333 432.167,195.667 432.5,196C 430.075,196.986 428.409,196.319 427.5,194C 429.796,190.469 430.796,186.802 430.5,183C 431.047,182.075 431.713,181.242 432.5,180.5C 432.833,181.167 433.167,181.833 433.5,182.5C 434.32,180.681 435.32,179.014 436.5,177.5 Z"/></g>
<g><path style="opacity:0.153" fill="#0039f8" d="M 388.5,163.5 C 389.525,163.897 389.692,164.563 389,165.5C 388.536,164.906 388.369,164.239 388.5,163.5 Z"/></g>
<g><path style="opacity:0.188" fill="#de3f3e" d="M 78.5,164.5 C 79.8333,165.167 79.8333,165.167 78.5,164.5 Z"/></g>
<g><path style="opacity:0.825" fill="#de3f3e" d="M 81.5,177.5 C 80.746,179.505 79.5793,180.172 78,179.5C 76.5612,182.275 74.7279,184.775 72.5,187C 75.5587,187.988 76.7253,189.821 76,192.5C 76.414,192.043 76.914,191.709 77.5,191.5C 79.6311,194.195 81.6311,197.028 83.5,200C 83.3775,202.211 83.3775,204.378 83.5,206.5C 83,207.5 82.5,208.5 82,209.5C 78.2106,207.426 74.3773,205.426 70.5,203.5C 68.9385,201.027 66.9385,199.027 64.5,197.5C 61.8494,199.65 59.3494,201.983 57,204.5C 55.3877,207.617 53.5543,210.617 51.5,213.5C 50.0944,212.332 48.9277,212.665 48,214.5C 47.2515,212.668 46.2515,211.001 45,209.5C 44.586,209.957 44.086,210.291 43.5,210.5C 42.7379,209.372 42.0712,208.205 41.5,207C 42.4562,204.123 43.7895,201.456 45.5,199C 45.1667,198.667 44.8333,198.333 44.5,198C 48.987,198.08 49.987,196.58 47.5,193.5C 49.8167,191.196 51.8167,188.696 53.5,186C 49.8207,181.988 45.8207,178.321 41.5,175C 42.1667,174.667 42.8333,174.333 43.5,174C 42.1667,172.667 42.1667,171.333 43.5,170C 44.4491,169.383 45.2825,169.549 46,170.5C 47.7839,167.997 49.4506,167.997 51,170.5C 51.3076,169.692 51.8076,169.025 52.5,168.5C 54.5267,169.693 56.0267,171.36 57,173.5C 57.3333,173.167 57.6667,172.833 58,172.5C 60.0713,173.364 61.738,174.697 63,176.5C 65.234,172.542 68.0673,169.042 71.5,166C 74.5014,166.056 77.5014,166.556 80.5,167.5C 81.1667,167.167 81.8333,166.833 82.5,166.5C 82.8183,168.85 82.8183,171.017 82.5,173C 81.2011,174.326 79.8678,175.66 78.5,177C 79.448,177.483 80.448,177.649 81.5,177.5 Z M 71.5,167.5 C 73.337,167.639 73.6704,168.306 72.5,169.5C 71.7025,169.043 71.3691,168.376 71.5,167.5 Z"/></g>
<g><path style="opacity:0.25" fill="#de3f3e" d="M 270.5,167.5 C 271.289,167.783 271.956,168.283 272.5,169C 271.184,169.528 270.517,169.028 270.5,167.5 Z"/></g>
<g><path style="opacity:0.867" fill="#de3f3e" d="M 226.5,170.5 C 229.652,173.433 232.985,173.767 236.5,171.5C 237.731,172.651 237.731,173.817 236.5,175C 237.421,176.756 238.588,176.923 240,175.5C 241.225,175.862 242.391,176.362 243.5,177C 244.641,177.741 244.641,178.575 243.5,179.5C 245.747,180.245 247.58,181.578 249,183.5C 250.89,187.17 252.39,191.003 253.5,195C 252.542,196.147 252.875,197.147 254.5,198C 253.833,198.333 253.167,198.667 252.5,199C 253.624,199.249 254.624,199.749 255.5,200.5C 254.471,200.296 253.471,200.796 252.5,202C 254.091,204.386 255.091,207.053 255.5,210C 253.846,212.497 253.013,214.997 253,217.5C 252.077,216.241 251.243,214.908 250.5,213.5C 248.574,212.939 246.574,212.773 244.5,213C 241.489,209.915 240.489,206.415 241.5,202.5C 239.725,200.725 238.725,198.225 238.5,195C 239.554,193.612 239.72,192.112 239,190.5C 236.576,188.348 233.743,187.015 230.5,186.5C 227.581,189.226 225.581,192.559 224.5,196.5C 223.397,196.998 222.397,197.331 221.5,197.5C 222.428,198.768 222.595,200.101 222,201.5C 221.667,201.167 221.333,200.833 221,200.5C 220.548,203.149 219.714,205.649 218.5,208C 218.833,208.333 219.167,208.667 219.5,209C 218.5,209.5 217.5,210 216.5,210.5C 214.201,208.768 211.701,207.434 209,206.5C 208.667,206.833 208.333,207.167 208,207.5C 207.585,205.709 206.585,204.376 205,203.5C 204.966,201.82 204.799,200.32 204.5,199C 208.072,190.114 211.739,181.281 215.5,172.5C 216.75,172.577 217.583,173.244 218,174.5C 219,172.833 220,171.167 221,169.5C 221.974,171.878 222.641,171.544 223,168.5C 224.596,167.952 225.763,168.618 226.5,170.5 Z"/></g>
<g><path style="opacity:0.231" fill="#de3f3e" d="M 226.5,170.5 C 226.897,169.475 227.563,169.308 228.5,170C 227.906,170.464 227.239,170.631 226.5,170.5 Z"/></g>
<g><path style="opacity:0.866" fill="#de3f3e" d="M 275.5,213.5 C 275.167,212.167 274.833,212.167 274.5,213.5C 268.678,214.86 264.178,212.86 261,207.5C 260.667,207.833 260.333,208.167 260,208.5C 259.713,206.109 259.213,203.776 258.5,201.5C 259.773,199.016 259.773,196.516 258.5,194C 258.903,192.527 259.57,191.194 260.5,190C 259.366,188.984 259.699,188.317 261.5,188C 260.446,186.612 260.28,185.112 261,183.5C 263.87,180.597 266.203,177.263 268,173.5C 271.097,174.873 273.263,173.873 274.5,170.5C 275.251,171.376 275.751,172.376 276,173.5C 281.164,171.521 286.164,172.188 291,175.5C 291.667,176.167 291.667,176.833 291,177.5C 290.346,176.304 289.846,176.304 289.5,177.5C 290.263,178.719 291.263,179.719 292.5,180.5C 291.318,182.467 291.985,183.8 294.5,184.5C 290.693,186.767 290.693,188.934 294.5,191C 294.835,192.164 294.835,193.497 294.5,195C 295.308,195.308 295.975,195.808 296.5,196.5C 294.672,200.083 294.672,203.416 296.5,206.5C 296.154,211.116 296.154,215.95 296.5,221C 294.801,221.393 293.301,220.893 292,219.5C 285.117,222.585 282.617,220.751 284.5,214C 283,213.5 281.5,213 280,212.5C 278.56,213.148 277.06,213.481 275.5,213.5 Z M 274.5,185.5 C 278.035,185.557 280.368,187.223 281.5,190.5C 279.693,193.978 277.359,196.978 274.5,199.5C 272.627,199.518 272.294,199.018 273.5,198C 272.833,195.333 272.167,192.667 271.5,190C 273.376,189.082 274.376,187.582 274.5,185.5 Z"/></g>
<g><path style="opacity:0.082" fill="#0039f8" d="M 592.5,173.5 C 593.833,174.167 593.833,174.167 592.5,173.5 Z"/></g>
<g><path style="opacity:0.102" fill="#0039f8" d="M 597.5,174.5 C 598.833,175.167 598.833,175.167 597.5,174.5 Z"/></g>
<g><path style="opacity:0.231" fill="#de3f3e" d="M 82.5,175.5 C 83.8333,176.167 83.8333,176.167 82.5,175.5 Z"/></g>
<g><path style="opacity:0.294" fill="#de3f3e" d="M 82.5,176.5 C 81.8333,177.167 81.8333,177.167 82.5,176.5 Z"/></g>
<g><path style="opacity:0.239" fill="#0039f8" d="M 574.5,187.5 C 575.833,188.167 575.833,188.167 574.5,187.5 Z"/></g>
<g><path style="opacity:0.039" fill="#de3f3e" d="M 160.5,190.5 C 160.833,190.5 161.167,190.5 161.5,190.5C 161.315,191.17 160.981,191.17 160.5,190.5 Z"/></g>
<g><path style="opacity:0.235" fill="#de3f3e" d="M 1.5,191.5 C 2.83333,192.167 2.83333,192.167 1.5,191.5 Z"/></g>
<g><path style="opacity:0.718" fill="#de3f3e" d="M 46.5,195.5 C 47.8333,196.167 47.8333,196.167 46.5,195.5 Z"/></g>
<g><path style="opacity:0.31" fill="#0039f8" d="M 541.5,197.5 C 540.833,196.167 540.833,196.167 541.5,197.5 Z"/></g>
<g><path style="opacity:0.024" fill="#de3f3e" d="M 150.5,197.5 C 151.833,198.167 151.833,198.167 150.5,197.5 Z"/></g>
<g><path style="opacity:0.4" fill="#de3f3e" d="M 321.5,197.5 C 322.833,198.167 322.833,198.167 321.5,197.5 Z"/></g>
<g><path style="opacity:0.471" fill="#de3f3e" d="M 138.5,198.5 C 139.833,199.167 139.833,199.167 138.5,198.5 Z"/></g>
<g><path style="opacity:0.141" fill="#de3f3e" d="M 152.5,198.5 C 153.833,199.167 153.833,199.167 152.5,198.5 Z"/></g>
<g><path style="opacity:0.322" fill="#0039f8" d="M 547.5,200.5 C 548.833,201.167 548.833,201.167 547.5,200.5 Z"/></g>
<g><path style="opacity:0.153" fill="#de3f3e" d="M 156.5,204.5 C 157.833,205.167 157.833,205.167 156.5,204.5 Z"/></g>
<g><path style="opacity:0.125" fill="#0039f8" d="M 372.5,206.5 C 373.833,207.167 373.833,207.167 372.5,206.5 Z"/></g>
<g><path style="opacity:0.051" fill="#0039f8" d="M 409.5,206.5 C 410.833,207.167 410.833,207.167 409.5,206.5 Z"/></g>
<g><path style="opacity:0.278" fill="#0039f8" d="M 537.5,210.5 C 537.833,210.5 538.167,210.5 538.5,210.5C 538.167,213.167 537.833,213.167 537.5,210.5 Z"/></g>
<g><path style="opacity:0.278" fill="#0039f8" d="M 571.5,212.5 C 572.833,213.167 572.833,213.167 571.5,212.5 Z"/></g>
<g><path style="opacity:0.259" fill="#de3f3e" d="M 274.5,213.5 C 274.833,213.5 275.167,213.5 275.5,213.5C 275.315,214.17 274.981,214.17 274.5,213.5 Z"/></g>
<g><path style="opacity:0.216" fill="#de3f3e" d="M 320.5,215.5 C 321.833,216.167 321.833,216.167 320.5,215.5 Z"/></g>
<g><path style="opacity:0.071" fill="#0039f8" d="M 501.5,215.5 C 502.833,216.167 502.833,216.167 501.5,215.5 Z"/></g>
<g><path style="opacity:0.396" fill="#0039f8" d="M 408.5,216.5 C 409.833,217.167 409.833,217.167 408.5,216.5 Z"/></g>
<g><path style="opacity:0.169" fill="#de3f3e" d="M 54.5,220.5 C 55.8333,221.167 55.8333,221.167 54.5,220.5 Z"/></g>
<g><path style="opacity:0.828" fill="#de3f3e" d="M 54.5,221.5 C 56.8437,222.391 59.5103,222.557 62.5,222C 64.0093,225.603 66.3426,226.603 69.5,225C 69.1667,224.667 68.8333,224.333 68.5,224C 70.1368,223.399 71.8034,222.899 73.5,222.5C 75.5376,223.634 77.5376,223.634 79.5,222.5C 80.1924,223.025 80.6924,223.692 81,224.5C 81.3879,223.572 82.0546,222.905 83,222.5C 84.4219,223.205 85.7553,223.539 87,223.5C 89.6187,221.231 92.1187,221.231 94.5,223.5C 98.5283,222.722 102.528,223.055 106.5,224.5C 107.292,226.465 107.959,228.465 108.5,230.5C 106.844,231.992 105.344,233.658 104,235.5C 103.667,234.833 103.333,234.167 103,233.5C 101.921,235.394 100.587,235.727 99,234.5C 96.6842,236.459 94.6842,236.459 93,234.5C 90.5632,234.868 87.8965,235.534 85,236.5C 84.3333,235.833 83.6667,235.167 83,234.5C 78.1721,236.326 73.3388,237.326 68.5,237.5C 69.3915,244.736 70.0582,251.736 70.5,258.5C 73.1944,256.672 75.1944,254.339 76.5,251.5C 79.8969,252.494 83.2302,252.16 86.5,250.5C 87.4776,250.977 88.3109,251.643 89,252.5C 89.7904,250.21 91.1237,249.877 93,251.5C 93.9454,251.095 94.6121,250.428 95,249.5C 95.9906,250.939 97.324,251.939 99,252.5C 98.6692,254.019 98.8359,255.352 99.5,256.5C 100.174,258.024 101.174,259.358 102.5,260.5C 100.196,262.431 98.3622,264.764 97,267.5C 91.8255,266.646 86.4921,266.646 81,267.5C 78.5529,266.594 76.0529,265.761 73.5,265C 74.6734,261.89 74.1734,261.723 72,264.5C 71.6667,264.167 71.3333,263.833 71,263.5C 68.8865,265.271 69.0532,266.771 71.5,268C 70.8126,270.232 70.4793,272.398 70.5,274.5C 70.9767,275.478 71.6433,276.311 72.5,277C 71.9098,283.474 71.4098,289.974 71,296.5C 69.2213,293.724 68.2213,294.057 68,297.5C 67.2097,293.71 64.8764,291.71 61,291.5C 58.2905,288.82 57.4571,285.82 58.5,282.5C 57.9472,277.11 57.9472,270.944 58.5,264C 55.3905,261.695 55.0571,259.195 57.5,256.5C 55.0776,254.952 55.0776,253.286 57.5,251.5C 56.2532,249.958 56.2532,248.458 57.5,247C 56.572,246.612 55.9054,245.945 55.5,245C 55.8333,242.667 56.1667,240.333 56.5,238C 56.3893,236.278 55.8893,236.112 55,237.5C 53.8633,234.232 53.03,230.898 52.5,227.5C 52.361,225.117 53.0277,223.117 54.5,221.5 Z M 69.5,260.5 C 70.4971,259.287 71.4971,259.454 72.5,261C 71.4232,261.47 70.4232,261.303 69.5,260.5 Z"/></g>
<g><path style="opacity:0.059" fill="#0039f8" d="M 399.5,221.5 C 400.833,222.167 400.833,222.167 399.5,221.5 Z"/></g>
<g><path style="opacity:0.836" fill="#de3f3e" d="M 304.5,257.5 C 303.209,258.542 303.209,259.708 304.5,261C 303.457,262.976 302.123,263.476 300.5,262.5C 298.598,265.565 295.932,267.731 292.5,269C 288.579,269.971 284.246,270.471 279.5,270.5C 277.493,269.829 275.66,268.829 274,267.5C 271.914,267.919 270.414,269.086 269.5,271C 272.789,275.924 276.956,280.091 282,283.5C 282.414,283.043 282.914,282.709 283.5,282.5C 285.438,285.079 287.271,285.079 289,282.5C 290.47,284.152 292.303,285.152 294.5,285.5C 297.012,284.244 299.512,284.244 302,285.5C 303.303,285.022 304.469,284.355 305.5,283.5C 305.351,284.552 305.517,285.552 306,286.5C 307,285.167 308,283.833 309,282.5C 310.744,285.118 311.911,284.785 312.5,281.5C 314.678,284.259 317.011,286.926 319.5,289.5C 317.849,291.402 317.516,293.402 318.5,295.5C 315.981,297.505 313.147,298.838 310,299.5C 309.309,297.109 308.309,297.109 307,299.5C 303.902,298.456 300.902,298.789 298,300.5C 296.075,298.027 294.242,298.027 292.5,300.5C 291.28,299.289 290.113,299.289 289,300.5C 287.622,298.787 285.955,297.453 284,296.5C 283.667,297.167 283.333,297.833 283,298.5C 280.948,297.277 278.781,296.277 276.5,295.5C 276,294.5 275.5,293.5 275,292.5C 273.817,293.731 272.651,293.731 271.5,292.5C 268.558,289.2 265.225,286.533 261.5,284.5C 259.601,281.43 258.935,278.264 259.5,275C 258.106,274.044 257.439,272.711 257.5,271C 257.578,266.314 257.744,261.481 258,256.5C 259.299,253.994 260.299,251.327 261,248.5C 262.758,247.531 263.258,246.364 262.5,245C 266.93,241.447 270.93,237.447 274.5,233C 277.212,230.977 280.212,229.477 283.5,228.5C 284.486,232.375 285.653,232.375 287,228.5C 288.676,229.061 290.009,230.061 291,231.5C 293.292,230.399 294.792,231.232 295.5,234C 296.793,234.49 298.127,234.657 299.5,234.5C 299.105,237.523 300.105,238.523 302.5,237.5C 303.003,241.634 304.669,245.134 307.5,248C 307.287,251.154 306.287,254.321 304.5,257.5 Z M 278.5,256.5 C 276.654,254.97 275.654,252.97 275.5,250.5C 278.574,247.964 282.074,245.964 286,244.5C 289.633,245.14 292.467,246.973 294.5,250C 292.318,252.518 289.818,253.685 287,253.5C 285.454,256.465 283.121,256.799 280,254.5C 279.283,255.044 278.783,255.711 278.5,256.5 Z M 271.5,258.5 C 274.001,258.511 274.168,259.178 272,260.5C 271.536,259.906 271.369,259.239 271.5,258.5 Z"/></g>
<g><path style="opacity:0.854" fill="#0039f8" d="M 594.5,236.5 C 595.158,237.398 595.824,238.398 596.5,239.5C 598.366,238.437 598.866,239.104 598,241.5C 597.346,240.304 596.846,240.304 596.5,241.5C 597.59,243.362 598.59,245.195 599.5,247C 598.978,249.186 598.978,251.519 599.5,254C 597.475,255.194 597.141,256.694 598.5,258.5C 596.554,261.307 595.054,264.307 594,267.5C 593.026,265.122 592.359,265.456 592,268.5C 591.086,267.346 590.253,267.513 589.5,269C 589.833,269.333 590.167,269.667 590.5,270C 588.131,270.314 585.964,271.148 584,272.5C 583.228,272.355 582.561,272.022 582,271.5C 579.931,272.264 577.764,272.764 575.5,273C 578.167,275 580.5,277.333 582.5,280C 583.833,280.333 585.167,280.667 586.5,281C 585.398,283.391 586.064,283.891 588.5,282.5C 589.167,283.167 589.833,283.833 590.5,284.5C 592.648,283.242 594.815,283.242 597,284.5C 599.561,282.656 602.394,282.156 605.5,283C 605.387,284.747 605.721,286.58 606.5,288.5C 604.443,288.957 604.443,289.957 606.5,291.5C 605.4,292.605 604.733,293.938 604.5,295.5C 603.883,295.389 603.383,295.056 603,294.5C 601.988,297.426 600.155,298.26 597.5,297C 598.654,297.914 598.487,298.747 597,299.5C 595.316,297.541 593.316,297.541 591,299.5C 574.087,294.541 563.587,283.874 559.5,267.5C 559.048,263.821 559.548,260.154 561,256.5C 563.709,250.792 567.209,245.626 571.5,241C 574.69,238.34 578.023,236.506 581.5,235.5C 582.086,235.709 582.586,236.043 583,236.5C 584.667,232.5 586.333,232.5 588,236.5C 588.308,235.692 588.808,235.025 589.5,234.5C 589.833,235.167 590.167,235.833 590.5,236.5C 591.995,235.295 593.328,235.295 594.5,236.5 Z M 594.5,236.5 C 594.217,237.289 593.717,237.956 593,238.5C 592.472,237.184 592.972,236.517 594.5,236.5 Z M 585.5,250.5 C 586.091,251.151 586.757,251.818 587.5,252.5C 585.014,257.571 581.681,258.404 577.5,255C 579.269,252.943 581.269,251.11 583.5,249.5C 584.183,249.863 584.85,250.196 585.5,250.5 Z"/></g>
<g><path style="opacity:0.822" fill="#0039f8" d="M 440.5,242.5 C 440.029,243.901 439.362,245.234 438.5,246.5C 436.566,246.901 435.066,247.901 434,249.5C 432.853,248.542 431.853,248.875 431,250.5C 429.062,249.14 427.396,249.473 426,251.5C 424.684,248.972 423.517,248.972 422.5,251.5C 420.045,251.743 417.545,251.743 415,251.5C 413.829,252.893 412.329,253.727 410.5,254C 410.727,256.369 410.893,258.869 411,261.5C 412.587,262.727 413.921,262.394 415,260.5C 416.835,261.119 419.001,261.286 421.5,261C 419.405,260.444 419.238,259.944 421,259.5C 422.416,260.573 423.75,260.573 425,259.5C 425.451,261.929 426.285,262.096 427.5,260C 427.167,259.667 426.833,259.333 426.5,259C 427.825,259.148 428.992,258.982 430,258.5C 432.405,261.001 434.905,263.501 437.5,266C 436.747,267.487 435.914,267.654 435,266.5C 435.213,269.053 433.88,271.053 431,272.5C 428.544,272.623 426.044,272.623 423.5,272.5C 422.803,274.385 421.803,274.718 420.5,273.5C 417.605,275.702 414.772,275.369 412,272.5C 410.513,273.253 410.346,274.086 411.5,275C 408.85,278.207 409.016,278.707 412,276.5C 412.265,278.163 411.765,279.663 410.5,281C 413.167,281.667 413.167,282.333 410.5,283C 411.788,285.466 411.788,287.966 410.5,290.5C 410.977,291.478 411.643,292.311 412.5,293C 411.289,294.113 411.289,295.28 412.5,296.5C 412.023,297.478 411.357,298.311 410.5,299C 410.752,301.468 411.086,303.968 411.5,306.5C 410.006,307.905 409.006,309.571 408.5,311.5C 408.167,311.5 407.833,311.5 407.5,311.5C 407.611,309.352 406.944,309.019 405.5,310.5C 403.132,309.631 401.632,307.965 401,305.5C 400.667,305.833 400.333,306.167 400,306.5C 399.627,304.302 399.127,302.135 398.5,300C 399.285,295.915 399.618,291.915 399.5,288C 398.833,287.667 398.167,287.333 397.5,287C 401.169,285.075 401.169,283.408 397.5,282C 398.5,281.667 399.5,281.333 400.5,281C 399.399,278.18 398.399,275.346 397.5,272.5C 399.375,271.031 399.375,269.198 397.5,267C 398.536,264.741 398.536,262.408 397.5,260C 397.615,258.105 398.282,256.438 399.5,255C 395.728,253.611 395.728,252.611 399.5,252C 396.427,249.03 395.427,245.53 396.5,241.5C 398.929,240.735 400.262,239.069 400.5,236.5C 401.552,236.649 402.552,236.483 403.5,236C 402.112,235.111 402.278,234.611 404,234.5C 405.826,235.01 405.993,235.844 404.5,237C 406.049,238.214 407.215,239.714 408,241.5C 409.891,239.347 412.057,238.68 414.5,239.5C 414.489,238.559 414.989,237.892 416,237.5C 416.945,237.905 417.612,238.572 418,239.5C 418.308,238.692 418.808,238.025 419.5,237.5C 421.815,236.235 424.148,236.235 426.5,237.5C 429.046,236.344 431.546,235.344 434,234.5C 434.333,235.5 434.667,236.5 435,237.5C 436.566,236.939 437.899,237.606 439,239.5C 439.617,240.449 439.451,241.282 438.5,242C 439.094,242.464 439.761,242.631 440.5,242.5 Z"/></g>
<g><path style="opacity:0.853" fill="#de3f3e" d="M 177.5,246.5 C 178.712,247.23 179.712,248.23 180.5,249.5C 184.075,247.93 187.408,245.93 190.5,243.5C 191.894,245.984 193.394,245.984 195,243.5C 201.123,244.973 206.956,247.806 212.5,252C 217.107,255.323 218.607,259.49 217,264.5C 214.132,262.575 211.465,262.575 209,264.5C 208.329,263.748 207.496,263.414 206.5,263.5C 206.167,260.833 205.833,260.833 205.5,263.5C 204.571,262.064 203.405,260.731 202,259.5C 201.667,259.833 201.333,260.167 201,260.5C 197.74,257.016 194.24,256.849 190.5,260C 192.912,262.035 192.245,263.035 188.5,263C 187.773,264.399 187.273,265.899 187,267.5C 186.667,266.833 186.333,266.167 186,265.5C 185.667,266.833 185.333,268.167 185,269.5C 184.667,269.167 184.333,268.833 184,268.5C 183.934,271.276 182.768,273.442 180.5,275C 181.458,276.147 181.125,277.147 179.5,278C 180.428,278.388 181.095,279.055 181.5,280C 180.711,281.626 179.711,283.126 178.5,284.5C 178.624,285.107 178.957,285.44 179.5,285.5C 179.425,288.407 178.591,291.073 177,293.5C 175.559,292.74 174.059,292.074 172.5,291.5C 171.719,292.737 170.719,293.737 169.5,294.5C 168.315,293.147 166.981,291.98 165.5,291C 164.256,290.544 163.423,291.044 163,292.5C 162.833,292 162.667,291.5 162.5,291C 162.623,279.631 162.623,268.131 162.5,256.5C 163.09,255.201 164.09,254.368 165.5,254C 163.342,252.688 163.009,251.022 164.5,249C 162.487,248.125 162.487,246.791 164.5,245C 164.167,244.667 163.833,244.333 163.5,244C 164.249,242.258 165.916,240.758 168.5,239.5C 170.061,240.347 171.561,240.014 173,238.5C 174.257,241.351 175.757,244.018 177.5,246.5 Z M 177.5,246.5 C 177.217,247.289 176.717,247.956 176,248.5C 175.472,247.184 175.972,246.517 177.5,246.5 Z"/></g>
<g><path style="opacity:0.194" fill="#0039f8" d="M 396.5,241.5 C 395.475,241.103 395.308,240.437 396,239.5C 396.464,240.094 396.631,240.761 396.5,241.5 Z"/></g>
<g><path style="opacity:0.212" fill="#0039f8" d="M 440.5,241.5 C 441.833,242.167 441.833,242.167 440.5,241.5 Z"/></g>
<g><path style="opacity:0.869" fill="#de3f3e" d="M 111.5,290.5 C 109.549,288.52 108.049,286.187 107,283.5C 106.28,281.888 106.446,280.388 107.5,279C 106.422,278.326 105.755,277.326 105.5,276C 106.114,274.463 106.114,273.13 105.5,272C 106.095,268.916 107.428,266.249 109.5,264C 108.5,261.909 109.167,260.243 111.5,259C 111.043,258.586 110.709,258.086 110.5,257.5C 112.661,250.5 117.161,245.5 124,242.5C 127.359,244.885 130.859,244.885 134.5,242.5C 135.192,243.025 135.692,243.692 136,244.5C 136.333,244.167 136.667,243.833 137,243.5C 138.243,245.833 139.909,246.5 142,245.5C 143.257,247.746 145.09,249.079 147.5,249.5C 147.351,250.552 147.517,251.552 148,252.5C 148.667,253.833 149.333,253.833 150,252.5C 152.752,255.578 155.086,258.911 157,262.5C 157.743,264.441 157.576,266.274 156.5,268C 159.443,269.459 159.776,271.126 157.5,273C 158.428,273.388 159.095,274.055 159.5,275C 159.475,276.988 159.475,278.988 159.5,281C 156.057,281.221 155.724,282.221 158.5,284C 157.289,285.844 155.956,286.678 154.5,286.5C 155.167,287.167 155.833,287.833 156.5,288.5C 153.818,290.505 151.152,292.505 148.5,294.5C 147.833,294.167 147.167,293.833 146.5,293.5C 144.036,294.105 141.369,295.105 138.5,296.5C 137.833,295.833 137.167,295.167 136.5,294.5C 135.389,295.611 134.055,296.278 132.5,296.5C 126.631,294.995 120.631,294.329 114.5,294.5C 114.579,293.07 114.246,291.736 113.5,290.5C 112.743,289.227 112.077,289.227 111.5,290.5 Z M 128.5,257.5 C 131.709,257.594 134.876,258.594 138,260.5C 138.333,260.167 138.667,259.833 139,259.5C 140.646,260.779 141.813,262.445 142.5,264.5C 143.5,265 144.5,265.5 145.5,266C 145.351,270.324 145.017,274.658 144.5,279C 139.167,282.315 133.667,283.148 128,281.5C 126.159,284.323 124.659,284.156 123.5,281C 122.167,280.667 120.833,280.333 119.5,280C 119.623,277.789 119.623,275.622 119.5,273.5C 122.52,268.121 125.52,262.788 128.5,257.5 Z"/></g>
<g><path style="opacity:0.322" fill="#de3f3e" d="M 128.5,242.5 C 129.833,243.167 129.833,243.167 128.5,242.5 Z"/></g>
<g><path style="opacity:0.833" fill="#0039f8" d="M 538.5,251.5 C 541.813,250.203 544.979,248.536 548,246.5C 549.416,247.573 550.75,247.573 552,246.5C 552.483,247.448 552.649,248.448 552.5,249.5C 553.873,249.343 555.207,249.51 556.5,250C 556.835,251.164 556.835,252.497 556.5,254C 557.167,254.333 557.833,254.667 558.5,255C 556.197,257.157 553.53,258.823 550.5,260C 551.654,260.914 551.487,261.747 550,262.5C 549.667,262.167 549.333,261.833 549,261.5C 539.118,264.628 534.118,271.295 534,281.5C 540.041,288.331 546.874,288.831 554.5,283C 556.167,282.333 557.833,282.333 559.5,283C 561.167,285.167 562.833,287.333 564.5,289.5C 561.67,294.496 557.503,297.829 552,299.5C 551.127,299.265 550.293,298.931 549.5,298.5C 547.719,300.473 545.552,301.807 543,302.5C 540.667,301.5 538.333,300.5 536,299.5C 535.586,299.957 535.086,300.291 534.5,300.5C 531.611,297.888 528.278,296.055 524.5,295C 524.833,294.667 525.167,294.333 525.5,294C 522.805,292.584 522.139,290.584 523.5,288C 522.428,286.716 521.095,286.383 519.5,287C 521.442,285.028 521.776,282.861 520.5,280.5C 520.977,279.522 521.643,278.689 522.5,278C 522.255,275.911 522.255,273.911 522.5,272C 524.919,267.599 527.253,263.099 529.5,258.5C 530.086,258.709 530.586,259.043 531,259.5C 531.667,258.167 532.333,256.833 533,255.5C 535.463,254.968 537.297,253.634 538.5,251.5 Z"/></g>
<g><path style="opacity:0.815" fill="#de3f3e" d="M 258.5,290.5 C 258.351,291.552 258.517,292.552 259,293.5C 259.654,292.304 260.154,292.304 260.5,293.5C 259.68,295.111 258.346,295.778 256.5,295.5C 256.5,296.833 256.5,298.167 256.5,299.5C 254.058,299.119 253.391,299.786 254.5,301.5C 251.606,302.797 248.773,303.13 246,302.5C 244.739,302.759 243.739,303.426 243,304.5C 242.36,302.602 241.027,302.268 239,303.5C 236.837,303.505 235.337,302.505 234.5,300.5C 233.833,300.833 233.167,301.167 232.5,301.5C 231.066,300.064 229.9,298.398 229,296.5C 227.16,297.833 226.66,297.666 227.5,296C 225.5,294.333 223.5,292.667 221.5,291C 221.833,290.667 222.167,290.333 222.5,290C 221.809,288.933 221.309,287.766 221,286.5C 219.633,287.524 218.8,287.024 218.5,285C 218.431,279.598 218.764,274.431 219.5,269.5C 220.563,265.482 222.397,261.815 225,258.5C 225.414,258.957 225.914,259.291 226.5,259.5C 227.815,257.684 229.315,256.017 231,254.5C 232.813,255.609 233.646,254.942 233.5,252.5C 235.958,250.722 238.624,249.056 241.5,247.5C 244.053,247.945 246.72,247.945 249.5,247.5C 249.756,249.937 250.423,252.271 251.5,254.5C 250.098,255.842 250.431,256.676 252.5,257C 250.667,258.833 248.833,260.667 247,262.5C 246.667,262.167 246.333,261.833 246,261.5C 244.316,263.701 242.316,264.367 240,263.5C 237.362,266.474 234.695,269.474 232,272.5C 231.358,274.762 230.525,276.929 229.5,279C 231.723,279.652 232.89,281.152 233,283.5C 233.333,283.167 233.667,282.833 234,282.5C 234.726,285.288 236.56,286.788 239.5,287C 242.432,288.701 245.099,288.534 247.5,286.5C 248.478,286.977 249.311,287.643 250,288.5C 251.11,286.963 252.61,286.297 254.5,286.5C 254.312,288.103 254.812,289.437 256,290.5C 256.333,289.833 256.667,289.167 257,288.5C 257.278,289.416 257.778,290.082 258.5,290.5 Z"/></g>
<g><path style="opacity:0.278" fill="#0039f8" d="M 541.5,247.5 C 542.833,248.167 542.833,248.167 541.5,247.5 Z"/></g>
<g><path style="opacity:0.854" fill="#0039f8" d="M 516.5,253.5 C 517.594,255.857 519.261,257.69 521.5,259C 521.043,259.414 520.709,259.914 520.5,260.5C 521.297,262.132 522.297,263.632 523.5,265C 522.863,266.713 521.863,266.879 520.5,265.5C 520.002,266.603 519.669,267.603 519.5,268.5C 518.459,266.009 517.626,266.009 517,268.5C 514.489,268.309 511.822,267.643 509,266.5C 507.049,267.285 505.215,268.285 503.5,269.5C 500.617,274.98 498.617,280.813 497.5,287C 497.317,291.515 497.65,295.849 498.5,300C 495.411,304.329 492.244,304.496 489,300.5C 488.311,301.357 487.478,302.023 486.5,302.5C 485.041,300.417 483.708,298.25 482.5,296C 482.692,289.416 483.359,282.416 484.5,275C 483.833,272.333 483.167,269.667 482.5,267C 483.167,266.667 483.833,266.333 484.5,266C 482.285,265.612 480.952,264.612 480.5,263C 482.837,261.202 483.503,259.035 482.5,256.5C 483.758,253.916 485.258,252.249 487,251.5C 488.281,254.447 490.281,256.781 493,258.5C 497.811,255.601 502.644,252.601 507.5,249.5C 509.098,251.973 510.598,251.973 512,249.5C 512.432,252.072 513.932,253.406 516.5,253.5 Z"/></g>
<g><path style="opacity:0.243" fill="#de3f3e" d="M 253.5,250.5 C 254.833,251.167 254.833,251.167 253.5,250.5 Z"/></g>
<g><path style="opacity:0.294" fill="#0039f8" d="M 538.5,251.5 C 537.833,250.167 537.833,250.167 538.5,251.5 Z"/></g>
<g><path style="opacity:0.133" fill="#de3f3e" d="M 100.5,252.5 C 101.525,252.897 101.692,253.563 101,254.5C 100.536,253.906 100.369,253.239 100.5,252.5 Z"/></g>
<g><path style="opacity:0.106" fill="#0039f8" d="M 516.5,252.5 C 517.833,253.167 517.833,253.167 516.5,252.5 Z"/></g>
<g><path style="opacity:0.031" fill="#de3f3e" d="M 307.5,253.5 C 308.833,254.167 308.833,254.167 307.5,253.5 Z"/></g>
<g><path style="opacity:0.114" fill="#0039f8" d="M 453.5,255.5 C 452.475,255.103 452.308,254.437 453,253.5C 453.464,254.094 453.631,254.761 453.5,255.5 Z"/></g>
<g><path style="opacity:0.858" fill="#0039f8" d="M 439.5,269.5 C 441.083,266.613 442.583,263.613 444,260.5C 445.356,259.62 446.856,259.286 448.5,259.5C 448.97,255.92 450.304,255.253 452.5,257.5C 453.298,257.043 453.631,256.376 453.5,255.5C 455.461,255.731 457.461,255.065 459.5,253.5C 460.192,254.025 460.692,254.692 461,255.5C 462.391,253.285 464.057,253.285 466,255.5C 466.333,255.167 466.667,254.833 467,254.5C 472.109,258.01 476.109,263.01 479,269.5C 479.233,271.78 480.066,273.78 481.5,275.5C 480.902,276.795 480.402,278.128 480,279.5C 479.346,278.304 478.846,278.304 478.5,279.5C 479.376,280.251 480.376,280.751 481.5,281C 480.833,281.333 480.167,281.667 479.5,282C 480.235,285.498 480.235,288.831 479.5,292C 477.158,294.656 474.992,297.489 473,300.5C 469.972,302.179 466.972,303.846 464,305.5C 463.667,304.833 463.333,304.167 463,303.5C 456.828,306.079 451.161,305.079 446,300.5C 445.667,300.833 445.333,301.167 445,301.5C 443.167,299 441,296.833 438.5,295C 438.833,294.667 439.167,294.333 439.5,294C 438.196,293.196 437.529,292.029 437.5,290.5C 438.603,288.723 438.603,286.889 437.5,285C 439.154,283.096 439.487,281.096 438.5,279C 440.266,276.126 440.6,272.959 439.5,269.5 Z M 461.5,268.5 C 462.833,268.5 464.167,268.5 465.5,268.5C 466.957,271.822 467.957,275.322 468.5,279C 466.26,282.916 464.593,286.749 463.5,290.5C 461.899,289.835 460.399,289.501 459,289.5C 458.275,291.158 457.108,291.658 455.5,291C 456.602,288.609 455.936,288.109 453.5,289.5C 451.947,287.735 451.614,285.902 452.5,284C 451.692,283.692 451.025,283.192 450.5,282.5C 451.833,280.167 453.167,277.833 454.5,275.5C 453.691,273.929 453.357,272.262 453.5,270.5C 456.373,270.198 459.039,269.531 461.5,268.5 Z"/></g>
<g><path style="opacity:0.055" fill="#de3f3e" d="M 254.5,254.5 C 255.833,255.167 255.833,255.167 254.5,254.5 Z"/></g>
<g><path style="opacity:0.275" fill="#0039f8" d="M 448.5,254.5 C 449.833,255.167 449.833,255.167 448.5,254.5 Z"/></g>
<g><path style="opacity:0.165" fill="#de3f3e" d="M 99.5,255.5 C 100.833,256.167 100.833,256.167 99.5,255.5 Z"/></g>
<g><path style="opacity:0.09" fill="#de3f3e" d="M 307.5,255.5 C 308.833,256.167 308.833,256.167 307.5,255.5 Z"/></g>
<g><path style="opacity:0.035" fill="#de3f3e" d="M 304.5,257.5 C 305.833,258.167 305.833,258.167 304.5,257.5 Z"/></g>
<g><path style="opacity:0.38" fill="#0039f8" d="M 433.5,258.5 C 434.833,259.167 434.833,259.167 433.5,258.5 Z"/></g>
<g><path style="opacity:0.224" fill="#de3f3e" d="M 205.5,263.5 C 205.833,263.5 206.167,263.5 206.5,263.5C 206.315,264.17 205.981,264.17 205.5,263.5 Z"/></g>
<g><path style="opacity:0.353" fill="#0039f8" d="M 437.5,263.5 C 438.833,264.167 438.833,264.167 437.5,263.5 Z"/></g>
<g><path style="opacity:0.132" fill="#de3f3e" d="M 219.5,269.5 C 218.427,268.749 218.26,267.749 219,266.5C 219.483,267.448 219.649,268.448 219.5,269.5 Z"/></g>
<g><path style="opacity:0.204" fill="#0039f8" d="M 439.5,269.5 C 438.833,268.167 438.833,268.167 439.5,269.5 Z"/></g>
<g><path style="opacity:0.035" fill="#de3f3e" d="M 56.5,269.5 C 57.8333,270.167 57.8333,270.167 56.5,269.5 Z"/></g>
<g><path style="opacity:0.149" fill="#de3f3e" d="M 58.5,282.5 C 57.475,282.103 57.3083,281.437 58,280.5C 58.4643,281.094 58.631,281.761 58.5,282.5 Z"/></g>
<g><path style="opacity:0.376" fill="#de3f3e" d="M 312.5,281.5 C 311.833,280.167 311.833,280.167 312.5,281.5 Z"/></g>
<g><path style="opacity:0.353" fill="#de3f3e" d="M 305.5,282.5 C 306.833,283.167 306.833,283.167 305.5,282.5 Z"/></g>
<g><path style="opacity:0.322" fill="#de3f3e" d="M 294.5,283.5 C 295.833,284.167 295.833,284.167 294.5,283.5 Z"/></g>
<g><path style="opacity:0.106" fill="#de3f3e" d="M 179.5,284.5 C 180.833,285.167 180.833,285.167 179.5,284.5 Z"/></g>
<g><path style="opacity:0.18" fill="#0039f8" d="M 606.5,288.5 C 606.833,288.5 607.167,288.5 607.5,288.5C 607.5,288.833 607.5,289.167 607.5,289.5C 607.167,289.167 606.833,288.833 606.5,288.5 Z"/></g>
<g><path style="opacity:0.271" fill="#de3f3e" d="M 258.5,289.5 C 259.833,290.167 259.833,290.167 258.5,289.5 Z"/></g>
<g><path style="opacity:0.227" fill="#de3f3e" d="M 111.5,290.5 C 112.833,291.167 112.833,291.167 111.5,290.5 Z"/></g>
<g><path style="opacity:0.196" fill="#0039f8" d="M 607.5,290.5 C 607.5,290.833 607.5,291.167 607.5,291.5C 606.83,291.019 606.83,290.685 607.5,290.5 Z"/></g>
<g><path style="opacity:0.196" fill="#0039f8" d="M 604.5,295.5 C 605.833,296.167 605.833,296.167 604.5,295.5 Z"/></g>
<g><path style="opacity:0.267" fill="#0039f8" d="M 398.5,308.5 C 398.897,307.475 399.563,307.308 400.5,308C 399.906,308.464 399.239,308.631 398.5,308.5 Z"/></g>
</svg>
