<?xml version="1.0" encoding="UTF-8"?>
<!DOCTYPE svg PUBLIC "-//W3C//DTD SVG 1.1//EN" "http://www.w3.org/Graphics/SVG/1.1/DTD/svg11.dtd">
<svg xmlns="http://www.w3.org/2000/svg" version="1.1" width="617px" height="312px" style="shape-rendering:geometricPrecision; text-rendering:geometricPrecision; image-rendering:optimizeQuality; fill-rule:evenodd; clip-rule:evenodd" xmlns:xlink="http://www.w3.org/1999/xlink">
<g><path style="opacity:0.113" fill="#0039f8" d="M 203.5,-0.5 C 204.167,-0.5 204.833,-0.5 205.5,-0.5C 205.5,0.833333 205.5,2.16667 205.5,3.5C 204.833,3.5 204.5,3.83333 204.5,4.5C 204.167,4.5 203.833,4.5 203.5,4.5C 203.5,2.83333 203.5,1.16667 203.5,-0.5 Z"/></g>
<g><path style="opacity:0.108" fill="#0039f8" d="M 206.5,-0.5 C 207.167,-0.5 207.833,-0.5 208.5,-0.5C 207.833,2.16667 207.167,2.16667 206.5,-0.5 Z"/></g>
<g><path style="opacity:0.824" fill="#0039f8" d="M 203.5,4.5 C 203.833,5.83333 204.167,5.83333 204.5,4.5C 205.167,4.5 205.5,4.16667 205.5,3.5C 207.47,2.83837 209.47,2.17171 211.5,1.5C 212.861,3.02839 214.028,4.69506 215,6.5C 215.71,5.02674 216.876,4.36007 218.5,4.5C 218.343,5.87344 218.51,7.20677 219,8.5C 220.342,7.09773 221.176,7.43107 221.5,9.5C 221.182,10.6473 220.516,11.4806 219.5,12C 223.527,12.427 226.027,14.5936 227,18.5C 228.11,16.9632 229.61,16.2965 231.5,16.5C 232.45,19.0679 232.45,21.5679 231.5,24C 233.848,27.1982 235.681,30.6982 237,34.5C 238.147,33.5419 239.147,33.8753 240,35.5C 240.483,36.448 240.649,37.448 240.5,38.5C 244.527,38.2808 245.194,39.4475 242.5,42C 243.861,43.5843 244.528,45.4176 244.5,47.5C 247.346,47.8087 248.846,49.4754 249,52.5C 250.419,53.4601 251.919,54.2935 253.5,55C 253.043,55.414 252.709,55.914 252.5,56.5C 253.5,57.1667 254.5,57.8333 255.5,58.5C 254.848,60.917 255.348,63.2503 257,65.5C 257.71,64.0267 258.876,63.3601 260.5,63.5C 259.872,67.2445 258.872,70.9112 257.5,74.5C 258.641,75.4255 258.641,76.2588 257.5,77C 259.957,78.1544 259.957,79.4877 257.5,81C 258.117,83.3876 258.45,85.721 258.5,88C 258.2,90.0243 257.367,90.5243 256,89.5C 254.372,90.8187 254.539,92.1521 256.5,93.5C 252.981,95.5198 250.814,98.5198 250,102.5C 249.667,101.833 249.333,101.167 249,100.5C 248.884,102.655 249.217,104.655 250,106.5C 246.15,108.991 242.483,111.658 239,114.5C 238.586,114.043 238.086,113.709 237.5,113.5C 236.571,114.689 236.238,116.022 236.5,117.5C 233.924,118.107 231.591,119.274 229.5,121C 228.5,122 227.5,123 226.5,124C 227.833,124.667 227.833,125.333 226.5,126C 225.181,126.195 223.847,126.028 222.5,125.5C 223.067,127.03 223.733,128.53 224.5,130C 221.961,132.37 219.628,134.87 217.5,137.5C 215.891,137.094 214.557,137.094 213.5,137.5C 213.879,139.213 214.879,140.213 216.5,140.5C 215.343,142.138 214.176,143.804 213,145.5C 212.667,144.5 212.333,143.5 212,142.5C 210.254,148.117 206.754,151.117 201.5,151.5C 202.902,150.158 202.569,149.324 200.5,149C 200.908,146.139 200.075,145.972 198,148.5C 196.731,147.095 196.231,145.429 196.5,143.5C 194.173,143.665 192.007,144.331 190,145.5C 189.365,144.034 188.531,142.7 187.5,141.5C 188.025,140.808 188.692,140.308 189.5,140C 188.874,139.25 188.374,138.416 188,137.5C 187.035,139.26 185.868,139.594 184.5,138.5C 187.766,133.684 186.766,132.351 181.5,134.5C 182.003,129.908 184.003,126.075 187.5,123C 186.549,122.282 186.383,121.449 187,120.5C 187.667,119.167 188.333,119.167 189,120.5C 190.768,117.92 192.268,115.253 193.5,112.5C 195.143,112.52 196.476,111.853 197.5,110.5C 198.086,110.709 198.586,111.043 199,111.5C 200.24,108.588 201.906,105.921 204,103.5C 204.667,104.167 205.333,104.833 206,105.5C 207.518,99.8358 210.685,95.5024 215.5,92.5C 214.855,91.354 214.022,90.354 213,89.5C 210.932,90.3936 208.765,91.0603 206.5,91.5C 202.916,89.9191 199.416,88.9191 196,88.5C 193.073,90.2712 190.073,90.9379 187,90.5C 184.595,92.8213 182.928,92.1546 182,88.5C 180.934,90.0995 179.434,91.0995 177.5,91.5C 177.002,90.3966 176.669,89.3966 176.5,88.5C 175.5,89.1667 174.5,89.8333 173.5,90.5C 171.899,89.8346 170.399,89.5012 169,89.5C 165.395,91.8617 161.728,91.8617 158,89.5C 157.692,90.3081 157.192,90.9747 156.5,91.5C 153.652,89.8502 151.152,90.1836 149,92.5C 147.542,91.2532 146.042,91.2532 144.5,92.5C 142.751,90.4686 140.751,90.1353 138.5,91.5C 137.5,90.8333 136.5,90.1667 135.5,89.5C 133.208,90.3575 130.875,91.3575 128.5,92.5C 127.614,91.675 127.281,90.675 127.5,89.5C 124.092,88.828 121.425,89.828 119.5,92.5C 118.108,91.3947 116.941,90.0614 116,88.5C 115.417,90.0016 114.584,91.3349 113.5,92.5C 112.289,91.7261 112.289,90.8928 113.5,90C 109.987,91.1274 106.653,90.6274 103.5,88.5C 100.439,90.9629 96.939,90.9629 93,88.5C 91.8061,89.4303 90.4728,90.0969 89,90.5C 85.3764,89.9664 81.8764,89.2998 78.5,88.5C 75.1502,90.8971 72.3169,90.2304 70,86.5C 69.5172,87.448 69.3505,88.448 69.5,89.5C 64.0353,90.324 58.5353,89.9907 53,88.5C 50.876,89.2272 48.7094,89.8938 46.5,90.5C 45.7836,89.689 44.9503,89.0223 44,88.5C 39.5293,89.9848 35.0293,89.6514 30.5,87.5C 26.009,88.5178 21.509,88.5178 17,87.5C 14.9658,87.3536 13.2991,88.0203 12,89.5C 10.2137,87.9007 8.047,87.0674 5.5,87C 7.95628,84.841 7.28962,84.0077 3.5,84.5C 3.0944,80.1364 2.42773,75.8031 1.5,71.5C 2.03851,68.1408 2.70518,64.8074 3.5,61.5C 3.39184,60.5581 3.05851,59.7247 2.5,59C 3.5,58.6667 4.5,58.3333 5.5,58C 4.26899,56.8173 4.26899,55.6507 5.5,54.5C 6.08605,54.7093 6.58605,55.0426 7,55.5C 7.80399,54.1955 8.97065,53.5288 10.5,53.5C 13.8128,54.1183 16.9795,55.1183 20,56.5C 23.4039,55.5204 26.5705,55.5204 29.5,56.5C 30.548,55.6171 31.7147,54.9504 33,54.5C 34.3685,55.7026 35.8685,56.7026 37.5,57.5C 37.2964,56.4706 37.7964,55.4706 39,54.5C 39.3333,55.1667 39.6667,55.8333 40,56.5C 41.3561,55.6198 42.8561,55.2865 44.5,55.5C 44.3398,57.1992 44.5065,58.8659 45,60.5C 46.1437,58.0829 47.8103,57.4162 50,58.5C 53.9148,55.8 57.5815,56.1333 61,59.5C 63.3757,58.6242 64.8757,56.9575 65.5,54.5C 66.901,56.2773 68.401,57.944 70,59.5C 70.4186,58.3279 71.0853,57.3279 72,56.5C 74.5669,57.27 77.0669,58.27 79.5,59.5C 81.2759,58.6852 81.9426,57.5185 81.5,56C 83.108,55.342 84.2747,55.842 85,57.5C 87.9427,55.2016 90.776,55.2016 93.5,57.5C 94.8333,56.1667 96.1667,54.8333 97.5,53.5C 99.8066,55.4822 102.307,57.1488 105,58.5C 106.667,55.8333 108.333,55.8333 110,58.5C 110.333,57.8333 110.667,57.1667 111,56.5C 112.385,57.5505 113.385,58.8839 114,60.5C 115,58.8333 116.333,57.5 118,56.5C 119.499,58.7562 121.166,58.7562 123,56.5C 124.826,57.0104 124.993,57.8438 123.5,59C 125.035,59.4962 126.535,59.3295 128,58.5C 128.95,59.0223 129.784,59.689 130.5,60.5C 131.506,60.0623 131.506,59.3957 130.5,58.5C 131.736,57.6433 133.069,56.9766 134.5,56.5C 136.167,57.8333 137.833,59.1667 139.5,60.5C 140.251,59.624 140.751,58.624 141,57.5C 142.79,59.2912 144.623,59.6246 146.5,58.5C 149.306,60.1701 151.806,59.8368 154,57.5C 155.861,59.3479 158.028,59.3479 160.5,57.5C 161.748,58.0402 162.915,58.7069 164,59.5C 166.841,58.5796 169.674,57.5796 172.5,56.5C 174.569,56.8242 174.902,57.6575 173.5,59C 174.833,59.6667 176.167,59.6667 177.5,59C 176.289,58.1072 176.289,57.2739 177.5,56.5C 180.086,59.8159 182.919,60.1492 186,57.5C 187.682,59.5541 189.349,59.2207 191,56.5C 191.221,59.9431 192.221,60.2764 194,57.5C 195.758,59.8726 197.591,59.8726 199.5,57.5C 200.75,57.5774 201.583,58.244 202,59.5C 204.835,60.0918 207.502,59.4252 210,57.5C 212.888,57.9773 215.721,58.6439 218.5,59.5C 219.354,58.4783 220.354,57.6449 221.5,57C 220.289,55.8869 220.289,54.7202 221.5,53.5C 216.212,49.2074 211.545,44.2074 207.5,38.5C 208.025,37.8076 208.692,37.3076 209.5,37C 207.809,35.5946 205.976,34.4279 204,33.5C 203.51,32.2068 203.343,30.8734 203.5,29.5C 201.61,29.7035 200.11,29.0368 199,27.5C 198.515,23.5142 196.848,20.1808 194,17.5C 193.667,17.8333 193.333,18.1667 193,18.5C 192.5,17.5 192,16.5 191.5,15.5C 193.423,14.6922 195.423,14.1922 197.5,14C 194.207,11.3568 193.874,8.52347 196.5,5.5C 199.674,5.04779 200.007,4.04779 197.5,2.5C 197.833,1.5 198.5,0.833333 199.5,0.5C 200.429,1.68884 200.762,3.02218 200.5,4.5C 201.5,4.5 202.5,4.5 203.5,4.5 Z M 224.5,60.5 C 223.175,59.0474 222.342,59.3808 222,61.5C 221.449,59.6467 222.115,58.3133 224,57.5C 224.483,58.448 224.649,59.448 224.5,60.5 Z M 223.5,80.5 C 225.387,78.4889 225.554,76.4889 224,74.5C 223.667,74.8333 223.333,75.1667 223,75.5C 222.764,73.236 222.264,71.0693 221.5,69C 222.75,67.0253 224.083,65.8586 225.5,65.5C 224.271,64.7189 222.938,64.2189 221.5,64C 223.101,63.7266 224.601,63.2266 226,62.5C 227.309,64.6864 227.476,66.8531 226.5,69C 227.5,69.3333 228.5,69.6667 229.5,70C 229.103,73.2214 227.936,76.3881 226,79.5C 225.329,80.2524 224.496,80.5858 223.5,80.5 Z M 219.5,70.5 C 221.225,70.8425 221.725,71.8425 221,73.5C 220.487,72.4734 219.987,71.4734 219.5,70.5 Z M 217.5,87.5 C 217.443,86.391 217.11,85.391 216.5,84.5C 217.496,84.4142 218.329,84.7476 219,85.5C 220.067,83.7174 221.567,83.2174 223.5,84C 221.359,84.9855 219.359,86.1522 217.5,87.5 Z M 222.5,125.5 C 220.663,125.361 220.33,124.694 221.5,123.5C 222.298,123.957 222.631,124.624 222.5,125.5 Z"/></g>
<g><path style="opacity:0.09" fill="#0039f8" d="M 196.5,5.5 C 194.663,5.36055 194.33,4.69388 195.5,3.5C 196.298,3.95689 196.631,4.62356 196.5,5.5 Z"/></g>
<g><path style="opacity:0.877" fill="#de3f3e" d="M 402.5,19.5 C 403.179,21.5879 403.512,23.5879 403.5,25.5C 401.37,26.9641 400.037,28.9641 399.5,31.5C 400.873,31.3433 402.207,31.51 403.5,32C 401.701,33.8606 400.035,35.8606 398.5,38C 396.833,37.6667 395.167,37.3333 393.5,37C 395.229,38.7889 395.896,40.9556 395.5,43.5C 394.178,43.67 393.011,43.3366 392,42.5C 392.263,43.9506 392.096,45.2839 391.5,46.5C 389.368,44.8826 387.035,44.3826 384.5,45C 384.833,45.3333 385.167,45.6667 385.5,46C 383.385,48.1997 381.051,50.1997 378.5,52C 374.957,53.8306 371.29,54.9972 367.5,55.5C 365.877,58.4909 363.543,60.8243 360.5,62.5C 361.248,64.3325 362.248,65.9991 363.5,67.5C 365.123,66.5092 366.123,67.1759 366.5,69.5C 366.291,70.086 365.957,70.586 365.5,71C 369.075,70.8019 369.742,69.4685 367.5,67C 368.595,65.3247 370.095,64.158 372,63.5C 375.459,66.1159 378.959,66.1159 382.5,63.5C 384.167,64.1667 385.833,64.8333 387.5,65.5C 388.696,65.1543 388.696,64.6543 387.5,64C 391.109,61.7851 391.775,62.1184 389.5,65C 390.646,65.6449 391.646,66.4783 392.5,67.5C 392.833,66.1667 393.167,64.8333 393.5,63.5C 395.167,64.8333 396.833,66.1667 398.5,67.5C 399.503,65.458 400.837,65.1246 402.5,66.5C 406.402,62.177 409.735,62.5103 412.5,67.5C 413.281,66.2634 414.281,65.2634 415.5,64.5C 416.754,66.2592 416.421,67.7592 414.5,69C 417.49,69.8469 418.824,68.6802 418.5,65.5C 420.144,65.2865 421.644,65.6198 423,66.5C 424.018,64.4356 425.351,64.1023 427,65.5C 428.285,65.0496 429.452,64.3829 430.5,63.5C 432.816,66.4265 434.316,66.0932 435,62.5C 435.748,64.3325 436.748,65.9991 438,67.5C 438.464,66.9056 438.631,66.2389 438.5,65.5C 439.391,64.8902 440.391,64.5569 441.5,64.5C 441.369,63.7611 441.536,63.0944 442,62.5C 445.71,63.4284 449.377,64.4284 453,65.5C 454.044,64.3774 454.71,63.0441 455,61.5C 456.692,63.3586 458.192,65.3586 459.5,67.5C 460.096,66.2839 460.263,64.9506 460,63.5C 460.779,64.7282 461.779,65.7282 463,66.5C 464.961,65.1034 467.128,64.1034 469.5,63.5C 471.41,64.5481 473.244,64.5481 475,63.5C 475.667,64.1667 476.333,64.8333 477,65.5C 478.987,64.782 480.821,63.782 482.5,62.5C 483.714,64.3797 485.048,64.7131 486.5,63.5C 488.144,63.7135 489.644,63.3802 491,62.5C 491.903,63.7014 493.069,64.5348 494.5,65C 493.692,65.3076 493.025,65.8076 492.5,66.5C 494.289,68.202 495.955,68.3687 497.5,67C 494.617,62.8991 495.117,62.0658 499,64.5C 499.772,64.3552 500.439,64.0219 501,63.5C 501.7,65.032 502.866,66.032 504.5,66.5C 506.22,65.0198 508.053,63.6865 510,62.5C 511.221,63.2718 512.221,64.2718 513,65.5C 514,64.1667 515,62.8333 516,61.5C 516.324,63.5689 517.158,63.9023 518.5,62.5C 519.265,63.6119 520.265,64.2786 521.5,64.5C 521.971,65.9008 522.638,67.2342 523.5,68.5C 524.59,67.6086 524.59,66.6086 523.5,65.5C 524.242,64.7132 525.075,64.0465 526,63.5C 527.458,64.7468 528.958,64.7468 530.5,63.5C 531.749,65.4755 533.249,65.8088 535,64.5C 535.833,65.5 536.667,66.5 537.5,67.5C 538.386,66.675 538.719,65.675 538.5,64.5C 540.582,64.472 542.416,65.1387 544,66.5C 545.688,64.2106 547.521,62.8772 549.5,62.5C 550.984,63.4669 551.984,64.8002 552.5,66.5C 553.859,65.9935 554.859,64.9935 555.5,63.5C 558.837,64.1093 559.17,65.276 556.5,67C 557.593,68.3654 558.926,68.6987 560.5,68C 559.804,66.512 560.138,65.012 561.5,63.5C 562.967,64.6953 564.467,64.6953 566,63.5C 566.945,63.9054 567.612,64.572 568,65.5C 568.934,62.0352 570.434,61.7019 572.5,64.5C 571.494,65.3957 571.494,66.0623 572.5,66.5C 574.891,63.8865 577.725,61.8865 581,60.5C 581.49,61.7932 581.657,63.1266 581.5,64.5C 583.144,64.2865 584.644,64.6198 586,65.5C 586.333,64.8333 586.667,64.1667 587,63.5C 589.283,64.7192 591.616,64.7192 594,63.5C 594.5,63.8333 595,64.1667 595.5,64.5C 594.355,65.891 594.355,67.2243 595.5,68.5C 596.243,67.0921 597.077,65.7588 598,64.5C 599,65.8333 600,67.1667 601,68.5C 602,67.1667 603,65.8333 604,64.5C 604.342,66.8183 603.842,68.985 602.5,71C 603.784,71.6838 604.951,71.5171 606,70.5C 608.052,72.0585 610.219,73.3918 612.5,74.5C 612.918,75.2216 613.584,75.7216 614.5,76C 613.588,77.6255 614.255,78.4588 616.5,78.5C 616.5,79.8333 616.5,81.1667 616.5,82.5C 614.602,83.0893 612.602,83.256 610.5,83C 612.422,84.46 613.089,86.1267 612.5,88C 611.234,88.3095 610.067,88.8095 609,89.5C 607.989,88.6634 606.822,88.33 605.5,88.5C 605.701,91.7648 604.534,94.4315 602,96.5C 600.667,95.8333 599.333,95.1667 598,94.5C 593.82,95.6797 589.653,95.6797 585.5,94.5C 584.5,95.1667 583.5,95.8333 582.5,96.5C 581.402,95.3845 580.235,95.3845 579,96.5C 578.5,96.1667 578,95.8333 577.5,95.5C 578.59,94.3914 578.59,93.3914 577.5,92.5C 576.12,93.9756 574.453,94.9756 572.5,95.5C 569.998,95.3787 567.332,95.2121 564.5,95C 563.584,94.6258 562.75,94.1258 562,93.5C 561.311,94.3567 560.478,95.0233 559.5,95.5C 556.568,95.3671 553.568,95.3671 550.5,95.5C 549.833,94.8333 549.167,94.1667 548.5,93.5C 547.52,94.9814 546.353,96.3147 545,97.5C 543.846,96.2567 542.512,95.2567 541,94.5C 534.605,96.484 528.105,96.484 521.5,94.5C 519.04,93.9413 516.707,94.608 514.5,96.5C 513.5,95.8333 512.5,95.1667 511.5,94.5C 508.119,94.8576 504.619,94.8576 501,94.5C 497.564,96.6589 494.231,96.3255 491,93.5C 489.108,94.13 487.441,95.13 486,96.5C 482.685,92.5094 479.351,92.5094 476,96.5C 474.374,96.1459 472.541,96.1459 470.5,96.5C 470.817,93.4655 469.817,92.4655 467.5,93.5C 466.188,93.8243 465.355,94.4909 465,95.5C 463.124,93.8769 461.79,94.2102 461,96.5C 460.667,95.8333 460.333,95.1667 460,94.5C 459.044,95.8941 457.711,96.5607 456,96.5C 453.638,95.3708 451.305,95.3708 449,96.5C 447.441,95.9706 445.941,95.304 444.5,94.5C 442.677,95.7472 440.677,96.4139 438.5,96.5C 438.669,91.9593 438.002,91.626 436.5,95.5C 435.808,94.9747 435.308,94.3081 435,93.5C 434.252,95.3325 433.252,96.9991 432,98.5C 429.436,96.9231 426.603,95.9231 423.5,95.5C 422.749,96.376 422.249,97.376 422,98.5C 420.667,97.1667 419.333,95.8333 418,94.5C 417.581,95.6721 416.915,96.6721 416,97.5C 413.022,97.6719 410.022,97.0053 407,95.5C 406.692,96.3081 406.192,96.9747 405.5,97.5C 402.163,96.8293 398.663,96.8293 395,97.5C 393.188,97.5066 391.688,96.84 390.5,95.5C 389.583,96.1272 388.583,96.4606 387.5,96.5C 387.167,95.1667 386.833,95.1667 386.5,96.5C 385.417,96.5394 384.417,96.8728 383.5,97.5C 378.227,96.2427 373.393,95.576 369,95.5C 368.311,96.3567 367.478,97.0233 366.5,97.5C 363.491,97.1437 361.157,96.1437 359.5,94.5C 359.533,90.8981 358.199,87.8981 355.5,85.5C 356.811,84.7425 357.311,83.7425 357,82.5C 355.428,83.0811 353.595,83.0811 351.5,82.5C 353.81,80.1005 356.31,78.7672 359,78.5C 358.621,76.925 358.788,75.425 359.5,74C 358.552,73.5172 357.552,73.3505 356.5,73.5C 356.574,71.5891 357.574,70.4224 359.5,70C 358.696,67.8517 358.696,66.0184 359.5,64.5C 356.925,67.3191 355.092,66.9858 354,63.5C 353.031,65.7339 351.698,67.7339 350,69.5C 348.691,67.1088 347.691,67.1088 347,69.5C 346.667,69.1667 346.333,68.8333 346,68.5C 347.126,70.9497 346.459,72.9497 344,74.5C 343.586,74.0426 343.086,73.7093 342.5,73.5C 340.424,75.9095 338.758,78.5762 337.5,81.5C 337.977,82.4776 338.643,83.3109 339.5,84C 338.139,85.5843 337.472,87.4176 337.5,89.5C 338.5,89.5 339.5,89.5 340.5,89.5C 340.225,94.2203 341.059,94.5537 343,90.5C 343.684,91.7839 343.517,92.9505 342.5,94C 344.376,95.0173 346.376,95.8506 348.5,96.5C 347.737,97.7193 346.737,98.7193 345.5,99.5C 348.911,100.609 348.911,102.275 345.5,104.5C 346.76,105.382 347.926,106.382 349,107.5C 349.677,105.311 350.844,104.978 352.5,106.5C 354.72,109.785 355.887,113.451 356,117.5C 358.178,114.532 359.344,114.865 359.5,118.5C 358.448,118.351 357.448,118.517 356.5,119C 358.57,119.948 360.07,121.448 361,123.5C 362.016,122.366 362.683,122.699 363,124.5C 363.718,123.549 364.551,123.383 365.5,124C 364.426,124.739 363.759,125.739 363.5,127C 364.269,130.243 365.269,133.41 366.5,136.5C 365.263,137.281 364.263,138.281 363.5,139.5C 365.239,139.594 367.239,139.761 369.5,140C 366.824,142.39 364.157,144.723 361.5,147C 363.789,148.688 365.123,150.521 365.5,152.5C 362.984,153.726 360.651,155.226 358.5,157C 357.216,157.684 356.049,157.517 355,156.5C 354.692,157.308 354.192,157.975 353.5,158.5C 352.167,157.167 350.833,155.833 349.5,154.5C 349.704,155.529 349.204,156.529 348,157.5C 347.617,156.944 347.117,156.611 346.5,156.5C 346.607,154.621 346.107,154.288 345,155.5C 344.583,154.244 343.75,153.577 342.5,153.5C 339.384,147.869 336.05,142.369 332.5,137C 332.833,136.667 333.167,136.333 333.5,136C 332.552,135.517 331.552,135.351 330.5,135.5C 330.576,133.077 329.576,131.244 327.5,130C 328.022,129.05 328.689,128.216 329.5,127.5C 328.284,126.904 326.951,126.737 325.5,127C 325.957,126.586 326.291,126.086 326.5,125.5C 325.313,124.481 324.313,123.314 323.5,122C 323.833,121.667 324.167,121.333 324.5,121C 319.977,116.87 316.477,112.37 314,107.5C 313.324,103.599 311.824,100.099 309.5,97C 309.833,96.6667 310.167,96.3333 310.5,96C 309.051,94.883 307.384,94.2163 305.5,94C 307.158,93.2747 307.658,92.108 307,90.5C 305.533,87.7336 303.7,85.2336 301.5,83C 302.833,82.3333 302.833,81.6667 301.5,81C 303.286,80.8038 304.619,79.9705 305.5,78.5C 305.043,77.7025 304.376,77.3691 303.5,77.5C 302.952,76.3115 302.619,75.1448 302.5,74C 303.289,70.9031 304.456,70.7364 306,73.5C 307.495,71.8904 307.661,70.2237 306.5,68.5C 308.464,66.5262 310.631,64.8595 313,63.5C 314.666,64.3402 314.833,63.8402 313.5,62C 315.925,61.7073 317.758,60.5407 319,58.5C 319.667,59.1667 320.333,59.8333 321,60.5C 322.617,59.1487 323.784,57.482 324.5,55.5C 328.765,53.3937 332.598,50.727 336,47.5C 337.049,48.5171 338.216,48.6838 339.5,48C 338.483,46.9505 338.316,45.7839 339,44.5C 340,44.5 341,44.5 342,44.5C 342.667,43.1667 343.333,41.8333 344,40.5C 344.333,40.8333 344.667,41.1667 345,41.5C 348.233,39.5909 351.4,37.5909 354.5,35.5C 355.086,35.7093 355.586,36.0426 356,36.5C 359.962,32.3584 364.296,28.6917 369,25.5C 369.414,25.9574 369.914,26.2907 370.5,26.5C 372.145,25.3037 373.811,24.3037 375.5,23.5C 376.789,24.5009 378.122,24.3342 379.5,23C 378.289,22.1072 378.289,21.2739 379.5,20.5C 381.325,21.5709 382.492,20.9042 383,18.5C 383.333,18.8333 383.667,19.1667 384,19.5C 386.439,16.8409 389.272,15.8409 392.5,16.5C 391.437,18.366 392.104,18.866 394.5,18C 396.394,16.9207 396.727,15.5874 395.5,14C 396.766,13.6905 397.933,13.1905 399,12.5C 399.311,13.7425 398.811,14.7425 397.5,15.5C 398.291,17.9608 399.958,19.2941 402.5,19.5 Z M 441.5,64.5 C 442.473,64.9867 443.473,65.4867 444.5,66C 442.843,66.7252 441.843,66.2252 441.5,64.5 Z M 456.5,67.5 C 453.999,67.4891 453.832,66.8224 456,65.5C 456.464,66.0944 456.631,66.7611 456.5,67.5 Z M 506.5,66.5 C 509.001,66.5109 509.168,67.1776 507,68.5C 506.536,67.9056 506.369,67.2389 506.5,66.5 Z M 552.5,66.5 C 552.489,69.0009 551.822,69.1676 550.5,67C 551.094,66.5357 551.761,66.369 552.5,66.5 Z M 427.5,68.5 C 429.646,68.6964 429.812,69.6964 428,71.5C 427.517,70.552 427.351,69.552 427.5,68.5 Z M 534.5,69.5 C 535.077,68.2267 535.743,68.2267 536.5,69.5C 536.03,70.463 535.363,70.463 534.5,69.5 Z M 374.5,70.5 C 375.386,69.2241 376.386,69.2241 377.5,70.5C 376.575,71.5624 375.575,71.5624 374.5,70.5 Z M 306.5,74.5 C 307.376,74.3691 308.043,74.7025 308.5,75.5C 306.192,76.8734 305.525,76.5401 306.5,74.5 Z M 566.5,89.5 C 569.001,89.5109 569.168,90.1776 567,91.5C 566.536,90.9056 566.369,90.2389 566.5,89.5 Z M 364.5,91.5 C 366.76,92.2376 366.927,93.2376 365,94.5C 364.517,93.552 364.351,92.552 364.5,91.5 Z M 369.5,91.5 C 372.167,92.1667 372.167,92.8333 369.5,93.5C 369.5,92.8333 369.5,92.1667 369.5,91.5 Z M 396.5,91.5 C 397.713,92.4971 397.546,93.4971 396,94.5C 395.53,93.4232 395.697,92.4232 396.5,91.5 Z M 348.5,108.5 C 350.625,109.368 350.791,110.368 349,111.5C 345.963,110.68 345.796,109.68 348.5,108.5 Z M 351.5,111.5 C 353.76,112.238 353.927,113.238 352,114.5C 351.517,113.552 351.351,112.552 351.5,111.5 Z M 328.5,123.5 C 329.497,122.287 330.497,122.454 331.5,124C 330.281,125.795 329.281,125.628 328.5,123.5 Z M 358.5,125.5 C 359.773,126.077 359.773,126.743 358.5,127.5C 357.537,127.03 357.537,126.363 358.5,125.5 Z M 340.5,143.5 C 341.077,142.227 341.743,142.227 342.5,143.5C 342.03,144.463 341.363,144.463 340.5,143.5 Z"/></g>
<g><path style="opacity:0.297" fill="#de3f3e" d="M 402.5,15.5 C 401.537,14.6365 401.537,13.9698 402.5,13.5C 403.773,14.2565 403.773,14.9232 402.5,15.5 Z"/></g>
<g><path style="opacity:0.447" fill="#de3f3e" d="M 402.5,15.5 C 403.681,17.0672 405.347,17.9005 407.5,18C 406.095,19.2692 404.429,19.7692 402.5,19.5C 402.279,18.2652 401.612,17.2652 400.5,16.5C 400.957,15.7025 401.624,15.3691 402.5,15.5 Z"/></g>
<g><path style="opacity:0.171" fill="#de3f3e" d="M 375.5,23.5 C 374.475,23.1034 374.308,22.4368 375,21.5C 375.464,22.0944 375.631,22.7611 375.5,23.5 Z"/></g>
<g><path style="opacity:0.067" fill="#de3f3e" d="M 366.5,24.5 C 366.897,23.475 367.563,23.3083 368.5,24C 367.906,24.4643 367.239,24.631 366.5,24.5 Z"/></g>
<g><path style="opacity:0.454" fill="#de3f3e" d="M 403.5,25.5 C 404.573,26.2506 404.74,27.2506 404,28.5C 403.517,27.552 403.351,26.552 403.5,25.5 Z"/></g>
<g><path style="opacity:0.286" fill="#de3f3e" d="M 405.5,25.5 C 406.833,26.1667 406.833,26.1667 405.5,25.5 Z"/></g>
<g><path style="opacity:0.216" fill="#de3f3e" d="M 362.5,27.5 C 361.833,26.1667 361.833,26.1667 362.5,27.5 Z"/></g>
<g><path style="opacity:0.184" fill="#de3f3e" d="M 361.5,27.5 C 360.833,28.1667 360.833,28.1667 361.5,27.5 Z"/></g>
<g><path style="opacity:0.224" fill="#de3f3e" d="M 362.5,27.5 C 363.833,28.1667 363.833,28.1667 362.5,27.5 Z"/></g>
<g><path style="opacity:0.148" fill="#0039f8" d="M 32.5,51.5 C 34.337,51.6395 34.6704,52.3061 33.5,53.5C 32.7025,53.0431 32.3691,52.3764 32.5,51.5 Z"/></g>
<g><path style="opacity:0.446" fill="#0039f8" d="M 146.5,58.5 C 144.952,58.1788 144.285,57.1788 144.5,55.5C 147.248,55.4017 147.914,56.4017 146.5,58.5 Z"/></g>
<g><path style="opacity:0.004" fill="#0039f8" d="M 199.5,57.5 C 198.833,56.1667 198.833,56.1667 199.5,57.5 Z"/></g>
<g><path style="opacity:0.02" fill="#de3f3e" d="M 447.5,61.5 C 448.833,62.1667 448.833,62.1667 447.5,61.5 Z"/></g>
<g><path style="opacity:0.131" fill="#de3f3e" d="M 462.5,63.5 C 461.711,63.2172 461.044,62.7172 460.5,62C 461.816,61.4719 462.483,61.9719 462.5,63.5 Z"/></g>
<g><path style="opacity:0.859" fill="#de3f3e" d="M 498.5,61.5 C 499.833,62.1667 499.833,62.1667 498.5,61.5 Z"/></g>
<g><path style="opacity:0.525" fill="#de3f3e" d="M 486.5,63.5 C 485.833,62.1667 485.833,62.1667 486.5,63.5 Z"/></g>
<g><path style="opacity:0.357" fill="#de3f3e" d="M 308.5,63.5 C 309.833,64.1667 309.833,64.1667 308.5,63.5 Z"/></g>
<g><path style="opacity:0.588" fill="#de3f3e" d="M 438.5,65.5 C 437.475,65.1034 437.308,64.4368 438,63.5C 438.464,64.0944 438.631,64.7611 438.5,65.5 Z"/></g>
<g><path style="opacity:0.125" fill="#de3f3e" d="M 462.5,63.5 C 463.833,64.1667 463.833,64.1667 462.5,63.5 Z"/></g>
<g><path style="opacity:0.251" fill="#de3f3e" d="M 521.5,63.5 C 522.833,64.1667 522.833,64.1667 521.5,63.5 Z"/></g>
<g><path style="opacity:0.118" fill="#de3f3e" d="M 304.5,69.5 C 305.833,70.1667 305.833,70.1667 304.5,69.5 Z"/></g>
<g><path style="opacity:0.139" fill="#de3f3e" d="M 356.5,73.5 C 356.631,74.2389 356.464,74.9056 356,75.5C 355.308,74.5632 355.475,73.8966 356.5,73.5 Z"/></g>
<g><path style="opacity:0.361" fill="#de3f3e" d="M 612.5,73.5 C 613.833,74.1667 613.833,74.1667 612.5,73.5 Z"/></g>
<g><path style="opacity:0.605" fill="#de3f3e" d="M 345.5,74.5 C 347.76,75.2376 347.927,76.2376 346,77.5C 344.272,76.6477 344.105,75.6477 345.5,74.5 Z"/></g>
<g><path style="opacity:0.435" fill="#de3f3e" d="M 303.5,77.5 C 303.489,80.0009 302.822,80.1676 301.5,78C 302.094,77.5357 302.761,77.369 303.5,77.5 Z"/></g>
<g><path style="opacity:0.286" fill="#de3f3e" d="M 339.5,81.5 C 340.833,82.1667 340.833,82.1667 339.5,81.5 Z"/></g>
<g><path style="opacity:0.267" fill="#de3f3e" d="M 346.5,83.5 C 347.833,84.1667 347.833,84.1667 346.5,83.5 Z"/></g>
<g><path style="opacity:0.157" fill="#de3f3e" d="M 349.5,83.5 C 350.833,84.1667 350.833,84.1667 349.5,83.5 Z"/></g>
<g><path style="opacity:0.306" fill="#de3f3e" d="M 613.5,85.5 C 614.833,86.1667 614.833,86.1667 613.5,85.5 Z"/></g>
<g><path style="opacity:0.139" fill="#de3f3e" d="M 353.5,86.5 C 354.525,86.8966 354.692,87.5632 354,88.5C 353.536,87.9056 353.369,87.2389 353.5,86.5 Z"/></g>
<g><path style="opacity:0.421" fill="#de3f3e" d="M 608.5,90.5 C 609.773,91.0768 609.773,91.7435 608.5,92.5C 607.537,92.0302 607.537,91.3635 608.5,90.5 Z"/></g>
<g><path style="opacity:0.157" fill="#de3f3e" d="M 613.5,91.5 C 614.833,92.1667 614.833,92.1667 613.5,91.5 Z"/></g>
<g><path style="opacity:0.023" fill="#0039f8" d="M 151.5,92.5 C 153.337,92.6395 153.67,93.3061 152.5,94.5C 151.702,94.0431 151.369,93.3764 151.5,92.5 Z"/></g>
<g><path style="opacity:0.78" fill="#de3f3e" d="M 467.5,93.5 C 468.525,93.8966 468.692,94.5632 468,95.5C 467.536,94.9056 467.369,94.2389 467.5,93.5 Z"/></g>
<g><path style="opacity:0.178" fill="#de3f3e" d="M 357.5,94.5 C 358.525,94.8966 358.692,95.5632 358,96.5C 357.536,95.9056 357.369,95.2389 357.5,94.5 Z"/></g>
<g><path style="opacity:0.055" fill="#de3f3e" d="M 386.5,96.5 C 386.833,96.5 387.167,96.5 387.5,96.5C 387.315,97.1701 386.981,97.1701 386.5,96.5 Z"/></g>
<g><path style="opacity:0.818" fill="#0039f8" d="M 58.5,132.5 C 59.6473,136.624 60.6473,141.124 61.5,146C 61.1091,149.552 61.1091,153.052 61.5,156.5C 60.9598,157.748 60.2931,158.915 59.5,160C 59.8333,160.333 60.1667,160.667 60.5,161C 59.1416,161.934 57.8083,162.768 56.5,163.5C 54.3484,164.077 54.015,165.244 55.5,167C 55,167.5 54.5,168 54,168.5C 51.7402,168.673 49.4069,168.673 47,168.5C 46.4806,169.516 45.6473,170.182 44.5,170.5C 42.9644,169.751 41.6311,168.751 40.5,167.5C 38.2617,169.893 38.2617,172.06 40.5,174C 39.376,174.249 38.376,174.749 37.5,175.5C 37.8457,176.696 38.3457,176.696 39,175.5C 41.0278,178.763 40.8611,181.93 38.5,185C 38.9504,186.285 39.6171,187.452 40.5,188.5C 39.696,189.941 39.0294,191.441 38.5,193C 39.6953,194.533 39.6953,196.033 38.5,197.5C 39.1667,197.833 39.8333,198.167 40.5,198.5C 40.0548,201.053 40.0548,203.72 40.5,206.5C 40.3167,208.317 40.3167,210.15 40.5,212C 38.146,213.378 38.146,214.878 40.5,216.5C 40.3333,217.167 40.1667,217.833 40,218.5C 39.6667,217.5 39.3333,216.5 39,215.5C 36.6762,216.719 34.5095,218.052 32.5,219.5C 30.4277,218.081 28.4277,217.414 26.5,217.5C 26.7093,216.914 27.0426,216.414 27.5,216C 25.3135,213.441 24.3135,210.441 24.5,207C 24.6292,205.019 25.2958,203.353 26.5,202C 25.2317,199.859 24.5651,197.526 24.5,195C 23.8948,191.26 24.5614,187.593 26.5,184C 24.6157,179.328 23.2824,174.661 22.5,170C 23.1667,169.667 23.8333,169.333 24.5,169C 23.6433,168.311 22.9767,167.478 22.5,166.5C 23.8333,165.5 23.8333,164.5 22.5,163.5C 24.0396,162.468 24.5396,161.135 24,159.5C 23.6667,160.167 23.3333,160.833 23,161.5C 22.6892,159.444 22.1892,157.444 21.5,155.5C 20.6067,151.273 20.6067,147.106 21.5,143C 20.6919,142.692 20.0253,142.192 19.5,141.5C 20.4415,141.511 21.1081,141.011 21.5,140C 20.3796,138.444 19.3796,136.944 18.5,135.5C 19.4604,134.188 19.2937,132.854 18,131.5C 17.3333,129.167 17.3333,126.833 18,124.5C 21.2617,125.841 21.7617,125.508 19.5,123.5C 20.7348,120.956 21.9015,120.956 23,123.5C 24.8846,121.285 26.7179,121.618 28.5,124.5C 29.3081,124.192 29.9747,123.692 30.5,123C 29.2888,122.107 29.2888,121.274 30.5,120.5C 32.9358,121.891 33.6025,121.391 32.5,119C 35.6894,117.252 38.8561,116.419 42,116.5C 46.2682,119.411 50.4348,121.744 54.5,123.5C 55.8545,126.592 57.1878,129.592 58.5,132.5 Z M 39.5,118.5 C 42.0009,118.511 42.1676,119.178 40,120.5C 39.5357,119.906 39.369,119.239 39.5,118.5 Z M 33.5,132.5 C 35.8439,133.672 38.1772,133.672 40.5,132.5C 42.3817,133.093 44.2151,133.76 46,134.5C 46.7163,137.72 47.883,140.72 49.5,143.5C 47.9776,145.156 48.311,146.323 50.5,147C 49.572,147.388 48.9054,148.055 48.5,149C 48.9126,150.796 48.9126,152.463 48.5,154C 45.1265,153.179 42.4598,154.346 40.5,157.5C 38.8333,156.667 37.1667,155.833 35.5,155C 36.1667,154.333 36.8333,153.667 37.5,153C 36.1489,146.394 34.8156,139.561 33.5,132.5 Z M 31.5,136.5 C 32.7733,137.077 32.7733,137.743 31.5,138.5C 30.537,138.03 30.537,137.363 31.5,136.5 Z"/></g>
<g><path style="opacity:0.098" fill="#0039f8" d="M 22.5,118.5 C 23.8333,119.167 23.8333,119.167 22.5,118.5 Z"/></g>
<g><path style="opacity:0.835" fill="#0039f8" d="M 80.5,156.5 C 79.8761,156.917 79.5427,157.584 79.5,158.5C 81.3618,159.948 82.0284,161.615 81.5,163.5C 80.7366,164.719 79.7366,165.719 78.5,166.5C 80.4755,167.749 80.8088,169.249 79.5,171C 82.1667,171.667 82.1667,172.333 79.5,173C 80.1667,173.333 80.8333,173.667 81.5,174C 78.5354,177.492 78.2021,181.159 80.5,185C 78.016,186.606 78.016,188.106 80.5,189.5C 78.4008,193.467 77.0674,197.467 76.5,201.5C 77.1667,201.833 77.8333,202.167 78.5,202.5C 77.9747,203.192 77.3081,203.692 76.5,204C 77.2524,204.671 77.5858,205.504 77.5,206.5C 76.1667,206.833 76.1667,207.167 77.5,207.5C 77.0472,208.458 76.3805,209.292 75.5,210C 76.428,210.388 77.0946,211.055 77.5,212C 75.9431,215.143 74.4431,218.309 73,221.5C 71.6667,220.833 70.6667,219.833 70,218.5C 69.1739,220.405 68.0072,220.739 66.5,219.5C 66.1797,217.422 65.1797,215.256 63.5,213C 65.5844,211.573 65.5844,209.907 63.5,208C 63.4912,205.563 64.1579,203.396 65.5,201.5C 63.2524,200.676 63.0858,199.676 65,198.5C 65.6514,196.765 65.4847,195.098 64.5,193.5C 65.8962,192.148 66.5629,190.481 66.5,188.5C 65.8751,185.48 65.5418,182.48 65.5,179.5C 67.7373,175.408 68.0706,171.408 66.5,167.5C 68.5894,165.405 68.5894,163.572 66.5,162C 67.1667,161 67.8333,160 68.5,159C 69.2906,148.605 69.2906,138.105 68.5,127.5C 69.954,124.994 70.6206,122.328 70.5,119.5C 72.8348,120.413 75.0015,121.747 77,123.5C 77.3333,123.167 77.6667,122.833 78,122.5C 80.024,124.69 81.8573,127.023 83.5,129.5C 82.624,130.251 81.624,130.751 80.5,131C 82.5127,132.791 82.5127,134.125 80.5,135C 80.9615,136.722 81.1282,138.555 81,140.5C 81.6543,139.304 82.1543,139.304 82.5,140.5C 81.8333,141.167 81.1667,141.833 80.5,142.5C 81.8333,143.833 81.8333,145.167 80.5,146.5C 81.1667,147.167 81.8333,147.833 82.5,148.5C 82.2126,150.986 81.546,153.653 80.5,156.5 Z"/></g>
<g><path style="opacity:0.027" fill="#0039f8" d="M 58.5,131.5 C 59.8333,132.167 59.8333,132.167 58.5,131.5 Z"/></g>
<g><path style="opacity:0.008" fill="#0039f8" d="M 181.5,134.5 C 181.631,135.239 181.464,135.906 181,136.5C 180.308,135.563 180.475,134.897 181.5,134.5 Z"/></g>
<g><path style="opacity:0.848" fill="#de3f3e" d="M 446.5,197.5 C 446.167,196.167 445.833,196.167 445.5,197.5C 442.427,198.694 439.427,199.694 436.5,200.5C 430.465,200.35 424.465,200.017 418.5,199.5C 418.94,202.714 420.606,205.047 423.5,206.5C 425.24,206.848 426.907,206.848 428.5,206.5C 430.159,204.413 431.826,204.746 433.5,207.5C 434.736,206.754 436.07,206.421 437.5,206.5C 438.281,208.322 439.448,208.989 441,208.5C 441.311,209.742 440.811,210.742 439.5,211.5C 439.957,212.298 440.624,212.631 441.5,212.5C 442.954,215.934 441.788,218.267 438,219.5C 436.914,217.153 435.581,217.153 434,219.5C 428.153,219.466 422.32,219.466 416.5,219.5C 415.497,217.458 414.163,217.125 412.5,218.5C 411.209,216.041 409.209,214.541 406.5,214C 406.493,212.417 406.826,210.751 407.5,209C 405.181,205.75 403.847,202.416 403.5,199C 404.5,198.667 405.5,198.333 406.5,198C 405.061,197.009 404.061,195.676 403.5,194C 407.581,190.891 409.414,186.725 409,181.5C 409.903,180.299 411.069,179.465 412.5,179C 411.216,178.316 410.049,178.483 409,179.5C 407.676,178.12 406.343,177.786 405,178.5C 404.311,177.643 403.478,176.977 402.5,176.5C 399.827,177.501 397.493,179.001 395.5,181C 397.394,182.079 397.727,183.413 396.5,185C 397.167,187.333 397.833,189.667 398.5,192C 397.833,192.667 397.167,193.333 396.5,194C 397.833,194.667 397.833,195.333 396.5,196C 398.797,197.16 398.464,198.16 395.5,199C 396.428,199.388 397.095,200.055 397.5,201C 396.305,202.533 396.305,204.033 397.5,205.5C 394.956,206.937 394.956,208.437 397.5,210C 396.642,211.57 395.975,213.237 395.5,215C 393.786,215.128 392.119,215.962 390.5,217.5C 389.483,214.972 388.316,214.972 387,217.5C 386.383,216.551 386.549,215.718 387.5,215C 386.552,214.517 385.552,214.351 384.5,214.5C 384.93,211.138 383.93,208.305 381.5,206C 384.47,201.082 384.803,196.415 382.5,192C 384.756,190.166 384.756,188.499 382.5,187C 383.167,185 383.833,183 384.5,181C 382.311,180.323 381.978,179.156 383.5,177.5C 381.604,176.534 379.604,176.201 377.5,176.5C 377.487,173.639 376.321,172.639 374,173.5C 371.982,171.867 370.982,169.867 371,167.5C 373.279,165.711 375.279,163.711 377,161.5C 378.587,162.727 379.921,162.394 381,160.5C 382.85,162.962 384.017,162.462 384.5,159C 383.194,155.198 383.194,151.365 384.5,147.5C 380.092,142.21 380.759,137.877 386.5,134.5C 388.444,135.189 390.444,135.689 392.5,136C 394.087,138.197 395.753,139.53 397.5,140C 394.94,142.159 394.94,144.326 397.5,146.5C 396.624,147.251 395.624,147.751 394.5,148C 396.616,149.171 397.282,150.671 396.5,152.5C 398.859,155.988 398.526,159.321 395.5,162.5C 395.667,163.167 395.833,163.833 396,164.5C 396.667,163.167 397.333,163.167 398,164.5C 398.333,163.5 398.667,162.5 399,161.5C 400.688,163.045 402.688,164.045 405,164.5C 406.402,162.027 407.902,162.027 409.5,164.5C 410.086,164.291 410.586,163.957 411,163.5C 412.154,164.743 413.488,165.743 415,166.5C 415.617,167.449 415.451,168.282 414.5,169C 415.925,170.362 416.758,171.862 417,173.5C 418.823,169.879 421.157,169.213 424,171.5C 426.157,169.869 428.657,169.369 431.5,170C 429.405,169.444 429.238,168.944 431,168.5C 431.95,169.022 432.784,169.689 433.5,170.5C 434.842,169.098 435.676,169.431 436,171.5C 439.061,170.775 441.894,170.775 444.5,171.5C 445.833,173.5 447.167,175.5 448.5,177.5C 448.291,178.086 447.957,178.586 447.5,179C 449.01,180.351 450.01,182.018 450.5,184C 449.614,187.236 449.614,190.236 450.5,193C 448.317,194.205 446.984,195.705 446.5,197.5 Z M 415.5,174.5 C 414.89,177.824 413.223,178.324 410.5,176C 412.154,175.392 413.821,174.892 415.5,174.5 Z M 427.5,187.5 C 425.801,187.66 424.134,187.494 422.5,187C 423.328,186.085 424.328,185.419 425.5,185C 424.833,184.667 424.167,184.333 423.5,184C 425.659,183.088 427.825,182.255 430,181.5C 431.11,183.037 432.61,183.703 434.5,183.5C 434.762,184.978 434.429,186.311 433.5,187.5C 432.389,186.389 431.055,185.722 429.5,185.5C 428.287,185.747 427.62,186.414 427.5,187.5 Z M 383.5,204.5 C 385.973,204.947 386.14,205.947 384,207.5C 383.517,206.552 383.351,205.552 383.5,204.5 Z"/></g>
<g><path style="opacity:0.013" fill="#0039f8" d="M 217.5,137.5 C 218.715,138.779 218.382,139.779 216.5,140.5C 216.557,139.391 216.89,138.391 217.5,137.5 Z"/></g>
<g><path style="opacity:0.062" fill="#0039f8" d="M 182.5,140.5 C 184.337,140.639 184.67,141.306 183.5,142.5C 182.702,142.043 182.369,141.376 182.5,140.5 Z"/></g>
<g><path style="opacity:0.063" fill="#de3f3e" d="M 292.5,144.5 C 293.833,145.167 293.833,145.167 292.5,144.5 Z"/></g>
<g><path style="opacity:0.835" fill="#de3f3e" d="M 606.5,204.5 C 605.494,209.349 605.494,214.182 606.5,219C 604.273,219.704 603.94,220.871 605.5,222.5C 603.135,225.592 600.469,227.592 597.5,228.5C 595.931,227.286 595.098,225.619 595,223.5C 594.282,224.451 593.449,224.617 592.5,224C 593.43,222.605 593.43,221.105 592.5,219.5C 594.531,217.443 594.531,215.61 592.5,214C 591.896,211.2 592.563,208.534 594.5,206C 594.209,198.986 593.875,192.32 593.5,186C 595.685,181.813 596.019,177.48 594.5,173C 595.167,172 595.833,171 596.5,170C 596.06,163.93 595.727,158.263 595.5,153C 596.561,150.768 597.561,148.602 598.5,146.5C 599.482,145.859 600.482,145.193 601.5,144.5C 602.72,145.711 603.887,145.711 605,144.5C 607.122,145.22 607.622,146.387 606.5,148C 607.624,148.839 608.291,150.006 608.5,151.5C 608.642,161.598 608.642,171.432 608.5,181C 607.879,184.186 607.212,187.352 606.5,190.5C 607.002,191.716 607.335,192.883 607.5,194C 605.652,195.861 605.652,198.028 607.5,200.5C 606.975,201.192 606.308,201.692 605.5,202C 606.252,202.671 606.586,203.504 606.5,204.5 Z"/></g>
<g><path style="opacity:0.123" fill="#0039f8" d="M -0.5,145.5 C 2.17899,147.303 3.17899,149.637 2.5,152.5C 1.48224,151.807 0.482236,151.141 -0.5,150.5C -0.5,148.833 -0.5,147.167 -0.5,145.5 Z"/></g>
<g><path style="opacity:0.02" fill="#0039f8" d="M 184.5,145.5 C 186.337,145.639 186.67,146.306 185.5,147.5C 184.702,147.043 184.369,146.376 184.5,145.5 Z"/></g>
<g><path style="opacity:0.247" fill="#de3f3e" d="M 366.5,145.5 C 367.833,146.167 367.833,146.167 366.5,145.5 Z"/></g>
<g><path style="opacity:0.094" fill="#de3f3e" d="M 598.5,146.5 C 597.833,145.167 597.833,145.167 598.5,146.5 Z"/></g>
<g><path style="opacity:0.829" fill="#de3f3e" d="M 305.5,146.5 C 307.695,146.778 309.861,146.778 312,146.5C 312.388,147.428 313.055,148.095 314,148.5C 317.178,147.002 320.011,147.502 322.5,150C 322.043,150.414 321.709,150.914 321.5,151.5C 325.692,155.096 325.192,158.096 320,160.5C 318.915,158.343 317.749,158.176 316.5,160C 314.765,160.651 313.098,160.485 311.5,159.5C 309.941,160.074 308.441,160.74 307,161.5C 305.467,161.056 303.967,160.723 302.5,160.5C 302.325,167.342 302.325,174.342 302.5,181.5C 304.484,181.617 306.15,180.95 307.5,179.5C 308.72,180.711 309.887,180.711 311,179.5C 311.875,181.513 313.209,181.513 315,179.5C 317.08,181.123 319.246,182.623 321.5,184C 320.185,185.395 320.519,186.395 322.5,187C 319.619,188.251 317.786,190.417 317,193.5C 314.291,192.803 311.624,192.47 309,192.5C 308.667,193.167 308.333,193.833 308,194.5C 306.54,192.578 304.873,191.911 303,192.5C 302.584,199.203 302.417,205.703 302.5,212C 308.469,213.519 314.469,214.852 320.5,216C 320.167,216.333 319.833,216.667 319.5,217C 320.981,217.98 322.315,219.147 323.5,220.5C 321.132,221.872 319.466,223.872 318.5,226.5C 313.722,225.279 308.889,225.279 304,226.5C 301.141,225.827 298.308,224.993 295.5,224C 293.393,221.773 291.06,219.773 288.5,218C 288.833,217.667 289.167,217.333 289.5,217C 288.552,216.517 287.552,216.351 286.5,216.5C 286.297,214.61 286.963,213.11 288.5,212C 287.692,211.692 287.025,211.192 286.5,210.5C 287.115,207.961 287.782,205.461 288.5,203C 287.273,201.413 287.606,200.079 289.5,199C 288.289,197.887 288.289,196.72 289.5,195.5C 286.531,194.332 286.198,192.999 288.5,191.5C 287.674,190.549 287.508,189.549 288,188.5C 288.654,189.696 289.154,189.696 289.5,188.5C 288.829,186.493 287.829,184.66 286.5,183C 287.253,180.742 287.253,178.742 286.5,177C 287.167,174.667 287.833,172.333 288.5,170C 288.167,169.667 287.833,169.333 287.5,169C 288.357,168.311 289.023,167.478 289.5,166.5C 289.154,165.304 288.654,165.304 288,166.5C 286.534,163.504 286.367,160.67 287.5,158C 286.308,156.088 285.308,154.088 284.5,152C 286.202,150.282 288.035,150.115 290,151.5C 291.853,147.415 294.853,146.748 299,149.5C 300.61,147.511 302.443,147.178 304.5,148.5C 305.298,148.043 305.631,147.376 305.5,146.5 Z"/></g>
<g><path style="opacity:0.233" fill="#de3f3e" d="M 366.5,147.5 C 367.289,147.783 367.956,148.283 368.5,149C 367.184,149.528 366.517,149.028 366.5,147.5 Z"/></g>
<g><path style="opacity:0.122" fill="#de3f3e" d="M 397.5,148.5 C 398.833,149.167 398.833,149.167 397.5,148.5 Z"/></g>
<g><path style="opacity:0.07" fill="#0039f8" d="M 197.5,151.5 C 198.5,151.5 199.5,151.5 200.5,151.5C 199.754,155.31 198.754,155.31 197.5,151.5 Z"/></g>
<g><path style="opacity:0.078" fill="#de3f3e" d="M 342.5,153.5 C 341.833,154.167 341.833,154.167 342.5,153.5 Z"/></g>
<g><path style="opacity:0.87" fill="#0039f8" d="M 265.5,174.5 C 263.16,173.157 260.827,171.823 258.5,170.5C 257.353,170.818 256.519,171.484 256,172.5C 255.751,171.376 255.251,170.376 254.5,169.5C 253.28,170.711 252.113,170.711 251,169.5C 250.51,170.793 250.343,172.127 250.5,173.5C 247.639,173.513 246.639,174.679 247.5,177C 243.575,179.68 241.908,183.18 242.5,187.5C 239.887,188.095 239.887,188.929 242.5,190C 241.484,190.519 240.818,191.353 240.5,192.5C 240.94,194.765 241.606,196.932 242.5,199C 241.328,199.419 240.328,200.085 239.5,201C 241.353,203.944 242.019,206.944 241.5,210C 239.611,212.194 237.444,212.694 235,211.5C 233.846,212.743 232.512,213.743 231,214.5C 230,213.167 229,211.833 228,210.5C 227.395,212.481 226.395,212.815 225,211.5C 224.535,205.51 223.701,199.343 222.5,193C 223.167,192 223.833,191 224.5,190C 224.015,182.138 223.348,174.305 222.5,166.5C 224.26,162.58 225.76,158.913 227,155.5C 227.333,155.833 227.667,156.167 228,156.5C 228.739,155.426 229.739,154.759 231,154.5C 232.394,155.613 233.561,156.947 234.5,158.5C 235.086,158.291 235.586,157.957 236,157.5C 236.406,159.779 237.739,161.113 240,161.5C 242.897,157.998 246.397,156.331 250.5,156.5C 251.647,156.818 252.481,157.484 253,158.5C 253.7,156.968 254.866,155.968 256.5,155.5C 262.286,157.474 267.12,160.808 271,165.5C 271.236,167.764 271.736,169.931 272.5,172C 269.383,170.556 267.05,171.389 265.5,174.5 Z"/></g>
<g><path style="opacity:0.838" fill="#0039f8" d="M 209.5,197.5 C 211.201,197.966 212.701,197.966 214,197.5C 214.21,199.058 214.71,200.391 215.5,201.5C 213.792,203.216 212.458,205.216 211.5,207.5C 210.274,209.278 208.607,210.278 206.5,210.5C 206.167,209.167 205.833,209.167 205.5,210.5C 203.18,211.474 200.847,212.474 198.5,213.5C 195.919,212.544 193.419,212.544 191,213.5C 189.846,211.043 188.512,211.043 187,213.5C 186.558,211.321 185.558,210.655 184,211.5C 182.686,210.687 181.519,209.687 180.5,208.5C 177.861,204.427 175.695,200.093 174,195.5C 173.682,197.061 172.849,198.228 171.5,199C 172.815,200.395 172.481,201.395 170.5,202C 172.891,203.309 172.891,204.309 170.5,205C 170.957,205.414 171.291,205.914 171.5,206.5C 170.401,209.029 169.401,211.529 168.5,214C 169.056,214.383 169.389,214.883 169.5,215.5C 166.833,215.833 166.833,216.167 169.5,216.5C 168.402,217.397 168.402,218.23 169.5,219C 166.057,219.221 165.724,220.221 168.5,222C 166.911,224.749 165.411,227.916 164,231.5C 163.257,233.441 163.424,235.274 164.5,237C 162.646,239.543 161.479,242.376 161,245.5C 157.956,247.499 154.956,249.499 152,251.5C 151.792,249.223 150.958,247.057 149.5,245C 149.957,244.586 150.291,244.086 150.5,243.5C 149.833,243.167 149.167,242.833 148.5,242.5C 150.335,241.572 150.668,240.406 149.5,239C 149.909,236.053 150.909,233.386 152.5,231C 151.803,228.656 152.469,226.489 154.5,224.5C 154.291,223.914 153.957,223.414 153.5,223C 155.354,218.91 156.687,214.91 157.5,211C 155.939,210.682 154.772,209.849 154,208.5C 153.333,211.167 152.667,211.167 152,208.5C 151.692,209.308 151.192,209.975 150.5,210.5C 149.3,209.469 147.966,208.635 146.5,208C 148.932,206.913 148.598,206.413 145.5,206.5C 140.52,194.878 134.687,183.544 128,172.5C 127.667,170.833 127.333,169.167 127,167.5C 126.346,168.696 125.846,168.696 125.5,167.5C 127.446,165.021 128.946,162.354 130,159.5C 131,160.167 132,160.833 133,161.5C 135.851,160.756 138.517,160.756 141,161.5C 141.658,163.108 141.158,164.275 139.5,165C 141.521,165.513 143.021,166.68 144,168.5C 145.624,172.477 147.29,176.477 149,180.5C 152.184,181.406 153.017,183.239 151.5,186C 152.328,186.915 153.328,187.581 154.5,188C 154.167,188.333 153.833,188.667 153.5,189C 155.726,191.953 157.559,195.12 159,198.5C 160.221,197.226 161.054,195.726 161.5,194C 161.475,192.012 161.475,190.012 161.5,188C 164.67,184.959 165.337,181.626 163.5,178C 164.5,177.667 165.5,177.333 166.5,177C 165.257,175.846 164.257,174.512 163.5,173C 165.683,169.826 167.35,166.326 168.5,162.5C 169.998,162.166 171.665,162.166 173.5,162.5C 173.856,165.688 175.523,167.855 178.5,169C 177.269,170.183 177.269,171.349 178.5,172.5C 180.133,169.223 182.8,165.556 186.5,161.5C 188.132,160.703 189.632,159.703 191,158.5C 193.078,159.943 193.911,159.276 193.5,156.5C 211.743,153.944 220.41,161.444 219.5,179C 216.833,181.333 214.167,183.667 211.5,186C 211.833,186.333 212.167,186.667 212.5,187C 209.423,187.941 206.756,189.441 204.5,191.5C 203.137,190.802 201.971,190.802 201,191.5C 199.488,189.043 198.154,189.043 197,191.5C 194.942,190.891 194.109,189.891 194.5,188.5C 193.549,189.326 192.549,189.492 191.5,189C 192.451,188.282 192.617,187.449 192,186.5C 187.382,194.597 189.715,199.264 199,200.5C 201.133,199.745 202.8,198.412 204,196.5C 205.067,197.191 206.234,197.691 207.5,198C 206.304,198.654 206.304,199.154 207.5,199.5C 208.522,199.145 209.189,198.478 209.5,197.5 Z M 199.5,168.5 C 203.174,170.343 204.507,173.176 203.5,177C 200.327,177.024 197.993,175.524 196.5,172.5C 196.787,170.557 197.787,169.223 199.5,168.5 Z M 192.5,171.5 C 194.416,172.665 195.249,174.332 195,176.5C 193.628,175.09 192.795,173.423 192.5,171.5 Z M 156.5,206.5 C 159.001,206.511 159.168,207.178 157,208.5C 156.536,207.906 156.369,207.239 156.5,206.5 Z"/></g>
<g><path style="opacity:0.431" fill="#de3f3e" d="M 364.5,158.5 C 363.427,157.749 363.26,156.749 364,155.5C 364.483,156.448 364.649,157.448 364.5,158.5 Z"/></g>
<g><path style="opacity:0.482" fill="#0039f8" d="M 80.5,156.5 C 81.8333,157.167 81.8333,157.167 80.5,156.5 Z"/></g>
<g><path style="opacity:0.294" fill="#de3f3e" d="M 346.5,156.5 C 345.833,157.167 345.833,157.167 346.5,156.5 Z"/></g>
<g><path style="opacity:0.345" fill="#0039f8" d="M 128.5,157.5 C 129.833,158.167 129.833,158.167 128.5,157.5 Z"/></g>
<g><path style="opacity:0.353" fill="#de3f3e" d="M 364.5,158.5 C 366.028,158.517 366.528,159.184 366,160.5C 365.283,159.956 364.783,159.289 364.5,158.5 Z"/></g>
<g><path style="opacity:0.402" fill="#de3f3e" d="M 484.5,160.5 C 485.525,160.897 485.692,161.563 485,162.5C 484.536,161.906 484.369,161.239 484.5,160.5 Z"/></g>
<g><path style="opacity:0.869" fill="#0039f8" d="M 103.5,162.5 C 105.03,163.067 106.53,163.733 108,164.5C 108.333,163.833 108.667,163.167 109,162.5C 110.399,163.227 111.899,163.727 113.5,164C 113.93,164.92 114.264,165.753 114.5,166.5C 116.838,164.989 117.504,165.323 116.5,167.5C 117.501,170.173 119.001,172.507 121,174.5C 121.093,177.007 121.926,179.174 123.5,181C 123.167,181.333 122.833,181.667 122.5,182C 125.047,183.316 125.713,185.149 124.5,187.5C 128.021,193.293 129.188,199.627 128,206.5C 126.846,208.957 125.512,208.957 124,206.5C 122.333,207.833 120.667,207.833 119,206.5C 118.667,207.167 118.333,207.833 118,208.5C 116.078,205.952 113.745,203.952 111,202.5C 109.681,204.487 107.848,205.654 105.5,206C 106.458,207.147 106.125,208.147 104.5,209C 100.516,210.357 96.6831,211.191 93,211.5C 87.8615,210.683 84.0282,208.016 81.5,203.5C 82.2438,200.317 82.2438,197.317 81.5,194.5C 81.6893,191.159 83.0226,187.992 85.5,185C 83.203,183.84 83.5363,182.84 86.5,182C 85.4652,180.493 85.6319,178.993 87,177.5C 89.4277,179.974 89.9277,179.474 88.5,176C 91.6828,172.985 94.6828,169.818 97.5,166.5C 99.8493,165.457 101.849,164.124 103.5,162.5 Z M 104.5,177.5 C 107.945,178.199 108.278,179.866 105.5,182.5C 106.67,188.144 104.67,192.31 99.5,195C 99.8333,195.333 100.167,195.667 100.5,196C 98.0752,196.986 96.4085,196.319 95.5,194C 97.796,190.469 98.796,186.802 98.5,183C 99.0465,182.075 99.7132,181.242 100.5,180.5C 100.833,181.167 101.167,181.833 101.5,182.5C 102.32,180.681 103.32,179.014 104.5,177.5 Z"/></g>
<g><path style="opacity:0.02" fill="#de3f3e" d="M 413.5,163.5 C 412.833,162.167 412.833,162.167 413.5,163.5 Z"/></g>
<g><path style="opacity:0.02" fill="#de3f3e" d="M 481.5,163.5 C 480.833,162.167 480.833,162.167 481.5,163.5 Z"/></g>
<g><path style="opacity:0.869" fill="#de3f3e" d="M 500.5,179.5 C 499.883,179.389 499.383,179.056 499,178.5C 494.325,181.19 489.658,180.856 485,177.5C 481.896,178.935 479.396,181.102 477.5,184C 477.957,184.414 478.291,184.914 478.5,185.5C 473.936,194.497 471.27,203.831 470.5,213.5C 469.448,213.351 468.448,213.517 467.5,214C 468.696,214.654 468.696,215.154 467.5,215.5C 464.963,213.471 462.463,213.804 460,216.5C 459.339,214.084 457.839,212.418 455.5,211.5C 456.167,210.5 456.833,209.5 457.5,208.5C 456.689,207.784 456.022,206.95 455.5,206C 456.649,204.27 456.649,202.604 455.5,201C 456.328,200.085 457.328,199.419 458.5,199C 457.707,197.915 457.04,196.748 456.5,195.5C 458.167,192.167 459.833,188.833 461.5,185.5C 460.653,183.939 460.986,182.439 462.5,181C 461.833,180.667 461.167,180.333 460.5,180C 463.502,177.838 465.502,175.005 466.5,171.5C 468.045,169.56 470.045,168.394 472.5,168C 471.549,167.282 471.383,166.449 472,165.5C 473,166.167 474,166.833 475,167.5C 476.792,165.372 478.958,164.039 481.5,163.5C 484.249,163.726 486.916,163.393 489.5,162.5C 494.322,164.89 497.656,168.557 499.5,173.5C 498.833,174.167 498.167,174.833 497.5,175.5C 497.846,176.696 498.346,176.696 499,175.5C 499.791,176.745 500.291,178.078 500.5,179.5 Z"/></g>
<g><path style="opacity:0.153" fill="#0039f8" d="M 56.5,163.5 C 57.525,163.897 57.6917,164.563 57,165.5C 56.5357,164.906 56.369,164.239 56.5,163.5 Z"/></g>
<g><path style="opacity:0.173" fill="#de3f3e" d="M 413.5,163.5 C 414.833,164.167 414.833,164.167 413.5,163.5 Z"/></g>
<g><path style="opacity:0.286" fill="#de3f3e" d="M 439.5,168.5 C 440.833,169.167 440.833,169.167 439.5,168.5 Z"/></g>
<g><path style="opacity:0.094" fill="#de3f3e" d="M 466.5,168.5 C 467.833,169.167 467.833,169.167 466.5,168.5 Z"/></g>
<g><path style="opacity:0.188" fill="#de3f3e" d="M 363.5,171.5 C 364.833,172.167 364.833,172.167 363.5,171.5 Z"/></g>
<g><path style="opacity:0.825" fill="#de3f3e" d="M 366.5,184.5 C 365.746,186.505 364.579,187.172 363,186.5C 361.561,189.275 359.728,191.775 357.5,194C 360.559,194.988 361.725,196.821 361,199.5C 361.414,199.043 361.914,198.709 362.5,198.5C 364.631,201.195 366.631,204.028 368.5,207C 368.377,209.211 368.377,211.378 368.5,213.5C 368,214.5 367.5,215.5 367,216.5C 363.211,214.426 359.377,212.426 355.5,210.5C 353.939,208.027 351.939,206.027 349.5,204.5C 346.849,206.65 344.349,208.983 342,211.5C 340.388,214.617 338.554,217.617 336.5,220.5C 335.094,219.332 333.928,219.665 333,221.5C 332.252,219.668 331.252,218.001 330,216.5C 329.586,216.957 329.086,217.291 328.5,217.5C 327.738,216.372 327.071,215.205 326.5,214C 327.456,211.123 328.789,208.456 330.5,206C 330.167,205.667 329.833,205.333 329.5,205C 333.987,205.08 334.987,203.58 332.5,200.5C 334.817,198.196 336.817,195.696 338.5,193C 334.821,188.988 330.821,185.321 326.5,182C 327.167,181.667 327.833,181.333 328.5,181C 327.167,179.667 327.167,178.333 328.5,177C 329.449,176.383 330.282,176.549 331,177.5C 332.784,174.997 334.451,174.997 336,177.5C 336.308,176.692 336.808,176.025 337.5,175.5C 339.527,176.693 341.027,178.36 342,180.5C 342.333,180.167 342.667,179.833 343,179.5C 345.071,180.364 346.738,181.697 348,183.5C 350.234,179.542 353.067,176.042 356.5,173C 359.501,173.056 362.501,173.556 365.5,174.5C 366.167,174.167 366.833,173.833 367.5,173.5C 367.818,175.85 367.818,178.017 367.5,180C 366.201,181.326 364.868,182.66 363.5,184C 364.448,184.483 365.448,184.649 366.5,184.5 Z M 356.5,174.5 C 358.337,174.639 358.67,175.306 357.5,176.5C 356.702,176.043 356.369,175.376 356.5,174.5 Z"/></g>
<g><path style="opacity:0.082" fill="#0039f8" d="M 260.5,173.5 C 261.833,174.167 261.833,174.167 260.5,173.5 Z"/></g>
<g><path style="opacity:0.102" fill="#0039f8" d="M 265.5,174.5 C 266.833,175.167 266.833,175.167 265.5,174.5 Z"/></g>
<g><path style="opacity:0.25" fill="#de3f3e" d="M 555.5,174.5 C 556.289,174.783 556.956,175.283 557.5,176C 556.184,176.528 555.517,176.028 555.5,174.5 Z"/></g>
<g><path style="opacity:0.867" fill="#de3f3e" d="M 511.5,177.5 C 514.652,180.433 517.985,180.767 521.5,178.5C 522.731,179.651 522.731,180.817 521.5,182C 522.421,183.756 523.588,183.923 525,182.5C 526.225,182.862 527.391,183.362 528.5,184C 529.641,184.741 529.641,185.575 528.5,186.5C 530.747,187.245 532.58,188.578 534,190.5C 535.89,194.17 537.39,198.003 538.5,202C 537.542,203.147 537.875,204.147 539.5,205C 538.833,205.333 538.167,205.667 537.5,206C 538.624,206.249 539.624,206.749 540.5,207.5C 539.471,207.296 538.471,207.796 537.5,209C 539.091,211.386 540.091,214.053 540.5,217C 538.846,219.497 538.013,221.997 538,224.5C 537.077,223.241 536.243,221.908 535.5,220.5C 533.574,219.939 531.574,219.773 529.5,220C 526.489,216.915 525.489,213.415 526.5,209.5C 524.725,207.725 523.725,205.225 523.5,202C 524.554,200.612 524.72,199.112 524,197.5C 521.576,195.348 518.743,194.015 515.5,193.5C 512.581,196.226 510.581,199.559 509.5,203.5C 508.397,203.998 507.397,204.331 506.5,204.5C 507.428,205.768 507.595,207.101 507,208.5C 506.667,208.167 506.333,207.833 506,207.5C 505.548,210.149 504.714,212.649 503.5,215C 503.833,215.333 504.167,215.667 504.5,216C 503.5,216.5 502.5,217 501.5,217.5C 499.201,215.768 496.701,214.434 494,213.5C 493.667,213.833 493.333,214.167 493,214.5C 492.585,212.709 491.585,211.376 490,210.5C 489.966,208.82 489.799,207.32 489.5,206C 493.072,197.114 496.739,188.281 500.5,179.5C 501.75,179.577 502.583,180.244 503,181.5C 504,179.833 505,178.167 506,176.5C 506.974,178.878 507.641,178.544 508,175.5C 509.596,174.952 510.763,175.618 511.5,177.5 Z"/></g>
<g><path style="opacity:0.231" fill="#de3f3e" d="M 511.5,177.5 C 511.897,176.475 512.563,176.308 513.5,177C 512.906,177.464 512.239,177.631 511.5,177.5 Z"/></g>
<g><path style="opacity:0.866" fill="#de3f3e" d="M 560.5,220.5 C 560.167,219.167 559.833,219.167 559.5,220.5C 553.678,221.86 549.178,219.86 546,214.5C 545.667,214.833 545.333,215.167 545,215.5C 544.713,213.109 544.213,210.776 543.5,208.5C 544.773,206.016 544.773,203.516 543.5,201C 543.903,199.527 544.57,198.194 545.5,197C 544.366,195.984 544.699,195.317 546.5,195C 545.446,193.612 545.28,192.112 546,190.5C 548.87,187.597 551.203,184.263 553,180.5C 556.097,181.873 558.263,180.873 559.5,177.5C 560.251,178.376 560.751,179.376 561,180.5C 566.164,178.521 571.164,179.188 576,182.5C 576.667,183.167 576.667,183.833 576,184.5C 575.346,183.304 574.846,183.304 574.5,184.5C 575.263,185.719 576.263,186.719 577.5,187.5C 576.318,189.467 576.985,190.8 579.5,191.5C 575.693,193.767 575.693,195.934 579.5,198C 579.835,199.164 579.835,200.497 579.5,202C 580.308,202.308 580.975,202.808 581.5,203.5C 579.672,207.083 579.672,210.416 581.5,213.5C 581.154,218.116 581.154,222.95 581.5,228C 579.801,228.393 578.301,227.893 577,226.5C 570.117,229.585 567.617,227.751 569.5,221C 568,220.5 566.5,220 565,219.5C 563.56,220.148 562.06,220.481 560.5,220.5 Z M 559.5,192.5 C 563.035,192.557 565.368,194.223 566.5,197.5C 564.693,200.978 562.359,203.978 559.5,206.5C 557.627,206.518 557.294,206.018 558.5,205C 557.833,202.333 557.167,199.667 556.5,197C 558.376,196.082 559.376,194.582 559.5,192.5 Z"/></g>
<g><path style="opacity:0.231" fill="#de3f3e" d="M 367.5,182.5 C 368.833,183.167 368.833,183.167 367.5,182.5 Z"/></g>
<g><path style="opacity:0.294" fill="#de3f3e" d="M 367.5,183.5 C 366.833,184.167 366.833,184.167 367.5,183.5 Z"/></g>
<g><path style="opacity:0.239" fill="#0039f8" d="M 242.5,187.5 C 243.833,188.167 243.833,188.167 242.5,187.5 Z"/></g>
<g><path style="opacity:0.31" fill="#0039f8" d="M 209.5,197.5 C 208.833,196.167 208.833,196.167 209.5,197.5 Z"/></g>
<g><path style="opacity:0.039" fill="#de3f3e" d="M 445.5,197.5 C 445.833,197.5 446.167,197.5 446.5,197.5C 446.315,198.17 445.981,198.17 445.5,197.5 Z"/></g>
<g><path style="opacity:0.235" fill="#de3f3e" d="M 286.5,198.5 C 287.833,199.167 287.833,199.167 286.5,198.5 Z"/></g>
<g><path style="opacity:0.322" fill="#0039f8" d="M 215.5,200.5 C 216.833,201.167 216.833,201.167 215.5,200.5 Z"/></g>
<g><path style="opacity:0.718" fill="#de3f3e" d="M 331.5,202.5 C 332.833,203.167 332.833,203.167 331.5,202.5 Z"/></g>
<g><path style="opacity:0.024" fill="#de3f3e" d="M 435.5,204.5 C 436.833,205.167 436.833,205.167 435.5,204.5 Z"/></g>
<g><path style="opacity:0.4" fill="#de3f3e" d="M 606.5,204.5 C 607.833,205.167 607.833,205.167 606.5,204.5 Z"/></g>
<g><path style="opacity:0.471" fill="#de3f3e" d="M 423.5,205.5 C 424.833,206.167 424.833,206.167 423.5,205.5 Z"/></g>
<g><path style="opacity:0.141" fill="#de3f3e" d="M 437.5,205.5 C 438.833,206.167 438.833,206.167 437.5,205.5 Z"/></g>
<g><path style="opacity:0.125" fill="#0039f8" d="M 40.5,206.5 C 41.8333,207.167 41.8333,207.167 40.5,206.5 Z"/></g>
<g><path style="opacity:0.051" fill="#0039f8" d="M 77.5,206.5 C 78.8333,207.167 78.8333,207.167 77.5,206.5 Z"/></g>
<g><path style="opacity:0.278" fill="#0039f8" d="M 205.5,210.5 C 205.833,210.5 206.167,210.5 206.5,210.5C 206.167,213.167 205.833,213.167 205.5,210.5 Z"/></g>
<g><path style="opacity:0.153" fill="#de3f3e" d="M 441.5,211.5 C 442.833,212.167 442.833,212.167 441.5,211.5 Z"/></g>
<g><path style="opacity:0.278" fill="#0039f8" d="M 239.5,212.5 C 240.833,213.167 240.833,213.167 239.5,212.5 Z"/></g>
<g><path style="opacity:0.071" fill="#0039f8" d="M 169.5,215.5 C 170.833,216.167 170.833,216.167 169.5,215.5 Z"/></g>
<g><path style="opacity:0.396" fill="#0039f8" d="M 76.5,216.5 C 77.8333,217.167 77.8333,217.167 76.5,216.5 Z"/></g>
<g><path style="opacity:0.259" fill="#de3f3e" d="M 559.5,220.5 C 559.833,220.5 560.167,220.5 560.5,220.5C 560.315,221.17 559.981,221.17 559.5,220.5 Z"/></g>
<g><path style="opacity:0.059" fill="#0039f8" d="M 67.5,221.5 C 68.8333,222.167 68.8333,222.167 67.5,221.5 Z"/></g>
<g><path style="opacity:0.216" fill="#de3f3e" d="M 605.5,222.5 C 606.833,223.167 606.833,223.167 605.5,222.5 Z"/></g>
<g><path style="opacity:0.169" fill="#de3f3e" d="M 339.5,227.5 C 340.833,228.167 340.833,228.167 339.5,227.5 Z"/></g>
<g><path style="opacity:0.828" fill="#de3f3e" d="M 339.5,228.5 C 341.844,229.391 344.51,229.557 347.5,229C 349.009,232.603 351.343,233.603 354.5,232C 354.167,231.667 353.833,231.333 353.5,231C 355.137,230.399 356.803,229.899 358.5,229.5C 360.538,230.634 362.538,230.634 364.5,229.5C 365.192,230.025 365.692,230.692 366,231.5C 366.388,230.572 367.055,229.905 368,229.5C 369.422,230.205 370.755,230.539 372,230.5C 374.619,228.231 377.119,228.231 379.5,230.5C 383.528,229.722 387.528,230.055 391.5,231.5C 392.292,233.465 392.959,235.465 393.5,237.5C 391.844,238.992 390.344,240.658 389,242.5C 388.667,241.833 388.333,241.167 388,240.5C 386.921,242.394 385.587,242.727 384,241.5C 381.684,243.459 379.684,243.459 378,241.5C 375.563,241.868 372.897,242.534 370,243.5C 369.333,242.833 368.667,242.167 368,241.5C 363.172,243.326 358.339,244.326 353.5,244.5C 354.392,251.736 355.058,258.736 355.5,265.5C 358.194,263.672 360.194,261.339 361.5,258.5C 364.897,259.494 368.23,259.16 371.5,257.5C 372.478,257.977 373.311,258.643 374,259.5C 374.79,257.21 376.124,256.877 378,258.5C 378.945,258.095 379.612,257.428 380,256.5C 380.991,257.939 382.324,258.939 384,259.5C 383.669,261.019 383.836,262.352 384.5,263.5C 385.174,265.024 386.174,266.358 387.5,267.5C 385.196,269.431 383.362,271.764 382,274.5C 376.825,273.646 371.492,273.646 366,274.5C 363.553,273.594 361.053,272.761 358.5,272C 359.673,268.89 359.173,268.723 357,271.5C 356.667,271.167 356.333,270.833 356,270.5C 353.887,272.271 354.053,273.771 356.5,275C 355.813,277.232 355.479,279.398 355.5,281.5C 355.977,282.478 356.643,283.311 357.5,284C 356.91,290.474 356.41,296.974 356,303.5C 354.221,300.724 353.221,301.057 353,304.5C 352.21,300.71 349.876,298.71 346,298.5C 343.29,295.82 342.457,292.82 343.5,289.5C 342.947,284.11 342.947,277.944 343.5,271C 340.39,268.695 340.057,266.195 342.5,263.5C 340.078,261.952 340.078,260.286 342.5,258.5C 341.253,256.958 341.253,255.458 342.5,254C 341.572,253.612 340.905,252.945 340.5,252C 340.833,249.667 341.167,247.333 341.5,245C 341.389,243.278 340.889,243.112 340,244.5C 338.863,241.232 338.03,237.898 337.5,234.5C 337.361,232.117 338.028,230.117 339.5,228.5 Z M 354.5,267.5 C 355.497,266.287 356.497,266.454 357.5,268C 356.423,268.47 355.423,268.303 354.5,267.5 Z"/></g>
<g><path style="opacity:0.854" fill="#0039f8" d="M 262.5,236.5 C 263.158,237.398 263.824,238.398 264.5,239.5C 266.366,238.437 266.866,239.104 266,241.5C 265.346,240.304 264.846,240.304 264.5,241.5C 265.59,243.362 266.59,245.195 267.5,247C 266.978,249.186 266.978,251.519 267.5,254C 265.475,255.194 265.141,256.694 266.5,258.5C 264.554,261.307 263.054,264.307 262,267.5C 261.026,265.122 260.359,265.456 260,268.5C 259.086,267.346 258.253,267.513 257.5,269C 257.833,269.333 258.167,269.667 258.5,270C 256.131,270.314 253.964,271.148 252,272.5C 251.228,272.355 250.561,272.022 250,271.5C 247.931,272.264 245.764,272.764 243.5,273C 246.167,275 248.5,277.333 250.5,280C 251.833,280.333 253.167,280.667 254.5,281C 253.398,283.391 254.064,283.891 256.5,282.5C 257.167,283.167 257.833,283.833 258.5,284.5C 260.648,283.242 262.815,283.242 265,284.5C 267.561,282.656 270.394,282.156 273.5,283C 273.387,284.747 273.721,286.58 274.5,288.5C 272.443,288.957 272.443,289.957 274.5,291.5C 273.4,292.605 272.733,293.938 272.5,295.5C 271.883,295.389 271.383,295.056 271,294.5C 269.988,297.426 268.155,298.26 265.5,297C 266.654,297.914 266.487,298.747 265,299.5C 263.316,297.541 261.316,297.541 259,299.5C 242.087,294.541 231.587,283.874 227.5,267.5C 227.048,263.821 227.548,260.154 229,256.5C 231.709,250.792 235.209,245.626 239.5,241C 242.69,238.34 246.023,236.506 249.5,235.5C 250.086,235.709 250.586,236.043 251,236.5C 252.667,232.5 254.333,232.5 256,236.5C 256.308,235.692 256.808,235.025 257.5,234.5C 257.833,235.167 258.167,235.833 258.5,236.5C 259.995,235.295 261.328,235.295 262.5,236.5 Z M 262.5,236.5 C 262.217,237.289 261.717,237.956 261,238.5C 260.472,237.184 260.972,236.517 262.5,236.5 Z M 253.5,250.5 C 254.091,251.151 254.757,251.818 255.5,252.5C 253.014,257.571 249.681,258.404 245.5,255C 247.269,252.943 249.269,251.11 251.5,249.5C 252.183,249.863 252.85,250.196 253.5,250.5 Z"/></g>
<g><path style="opacity:0.822" fill="#0039f8" d="M 108.5,242.5 C 108.029,243.901 107.362,245.234 106.5,246.5C 104.566,246.901 103.066,247.901 102,249.5C 100.853,248.542 99.8525,248.875 99,250.5C 97.0624,249.14 95.3957,249.473 94,251.5C 92.6841,248.972 91.5174,248.972 90.5,251.5C 88.0453,251.743 85.5453,251.743 83,251.5C 81.8289,252.893 80.3289,253.727 78.5,254C 78.7266,256.369 78.8933,258.869 79,261.5C 80.5874,262.727 81.9207,262.394 83,260.5C 84.8348,261.119 87.0014,261.286 89.5,261C 87.4049,260.444 87.2382,259.944 89,259.5C 90.4162,260.573 91.7496,260.573 93,259.5C 93.4512,261.929 94.2845,262.096 95.5,260C 95.1667,259.667 94.8333,259.333 94.5,259C 95.825,259.148 96.9916,258.982 98,258.5C 100.405,261.001 102.905,263.501 105.5,266C 104.747,267.487 103.914,267.654 103,266.5C 103.213,269.053 101.88,271.053 99,272.5C 96.5442,272.623 94.0442,272.623 91.5,272.5C 90.8027,274.385 89.8027,274.718 88.5,273.5C 85.605,275.702 82.7717,275.369 80,272.5C 78.513,273.253 78.3463,274.086 79.5,275C 76.8498,278.207 77.0165,278.707 80,276.5C 80.2649,278.163 79.7649,279.663 78.5,281C 81.1667,281.667 81.1667,282.333 78.5,283C 79.7883,285.466 79.7883,287.966 78.5,290.5C 78.9767,291.478 79.6433,292.311 80.5,293C 79.2889,294.113 79.2889,295.28 80.5,296.5C 80.0233,297.478 79.3567,298.311 78.5,299C 78.7523,301.468 79.0856,303.968 79.5,306.5C 78.0063,307.905 77.0063,309.571 76.5,311.5C 76.1667,311.5 75.8333,311.5 75.5,311.5C 75.6106,309.352 74.944,309.019 73.5,310.5C 71.1322,309.631 69.6322,307.965 69,305.5C 68.6667,305.833 68.3333,306.167 68,306.5C 67.6271,304.302 67.1271,302.135 66.5,300C 67.2846,295.915 67.6179,291.915 67.5,288C 66.8333,287.667 66.1667,287.333 65.5,287C 69.1685,285.075 69.1685,283.408 65.5,282C 66.5,281.667 67.5,281.333 68.5,281C 67.3985,278.18 66.3985,275.346 65.5,272.5C 67.3751,271.031 67.3751,269.198 65.5,267C 66.5357,264.741 66.5357,262.408 65.5,260C 65.6148,258.105 66.2815,256.438 67.5,255C 63.7279,253.611 63.7279,252.611 67.5,252C 64.4274,249.03 63.4274,245.53 64.5,241.5C 66.929,240.735 68.2623,239.069 68.5,236.5C 69.552,236.649 70.552,236.483 71.5,236C 70.1118,235.111 70.2785,234.611 72,234.5C 73.8261,235.01 73.9928,235.844 72.5,237C 74.0488,238.214 75.2155,239.714 76,241.5C 77.8908,239.347 80.0574,238.68 82.5,239.5C 82.4895,238.559 82.9895,237.892 84,237.5C 84.9454,237.905 85.6121,238.572 86,239.5C 86.3076,238.692 86.8076,238.025 87.5,237.5C 89.8151,236.235 92.1484,236.235 94.5,237.5C 97.0461,236.344 99.5461,235.344 102,234.5C 102.333,235.5 102.667,236.5 103,237.5C 104.566,236.939 105.899,237.606 107,239.5C 107.617,240.449 107.451,241.282 106.5,242C 107.094,242.464 107.761,242.631 108.5,242.5 Z"/></g>
<g><path style="opacity:0.836" fill="#de3f3e" d="M 589.5,264.5 C 588.209,265.542 588.209,266.708 589.5,268C 588.457,269.976 587.123,270.476 585.5,269.5C 583.598,272.565 580.932,274.731 577.5,276C 573.579,276.971 569.246,277.471 564.5,277.5C 562.493,276.829 560.66,275.829 559,274.5C 556.914,274.919 555.414,276.086 554.5,278C 557.789,282.924 561.956,287.091 567,290.5C 567.414,290.043 567.914,289.709 568.5,289.5C 570.438,292.079 572.271,292.079 574,289.5C 575.47,291.152 577.303,292.152 579.5,292.5C 582.012,291.244 584.512,291.244 587,292.5C 588.303,292.022 589.469,291.355 590.5,290.5C 590.351,291.552 590.517,292.552 591,293.5C 592,292.167 593,290.833 594,289.5C 595.744,292.118 596.911,291.785 597.5,288.5C 599.678,291.259 602.011,293.926 604.5,296.5C 602.849,298.402 602.516,300.402 603.5,302.5C 600.981,304.505 598.147,305.838 595,306.5C 594.309,304.109 593.309,304.109 592,306.5C 588.902,305.456 585.902,305.789 583,307.5C 581.075,305.027 579.242,305.027 577.5,307.5C 576.28,306.289 575.113,306.289 574,307.5C 572.622,305.787 570.955,304.453 569,303.5C 568.667,304.167 568.333,304.833 568,305.5C 565.948,304.277 563.781,303.277 561.5,302.5C 561,301.5 560.5,300.5 560,299.5C 558.817,300.731 557.651,300.731 556.5,299.5C 553.558,296.2 550.225,293.533 546.5,291.5C 544.601,288.43 543.935,285.264 544.5,282C 543.106,281.044 542.439,279.711 542.5,278C 542.578,273.314 542.744,268.481 543,263.5C 544.299,260.994 545.299,258.327 546,255.5C 547.758,254.531 548.258,253.364 547.5,252C 551.93,248.447 555.93,244.447 559.5,240C 562.212,237.977 565.212,236.477 568.5,235.5C 569.486,239.375 570.653,239.375 572,235.5C 573.676,236.061 575.009,237.061 576,238.5C 578.292,237.399 579.792,238.232 580.5,241C 581.793,241.49 583.127,241.657 584.5,241.5C 584.105,244.523 585.105,245.523 587.5,244.5C 588.003,248.634 589.669,252.134 592.5,255C 592.287,258.154 591.287,261.321 589.5,264.5 Z M 563.5,263.5 C 561.654,261.97 560.654,259.97 560.5,257.5C 563.574,254.964 567.074,252.964 571,251.5C 574.633,252.14 577.467,253.973 579.5,257C 577.318,259.518 574.818,260.685 572,260.5C 570.454,263.465 568.121,263.799 565,261.5C 564.283,262.044 563.783,262.711 563.5,263.5 Z M 556.5,265.5 C 559.001,265.511 559.168,266.178 557,267.5C 556.536,266.906 556.369,266.239 556.5,265.5 Z"/></g>
<g><path style="opacity:0.194" fill="#0039f8" d="M 64.5,241.5 C 63.475,241.103 63.3083,240.437 64,239.5C 64.4643,240.094 64.631,240.761 64.5,241.5 Z"/></g>
<g><path style="opacity:0.212" fill="#0039f8" d="M 108.5,241.5 C 109.833,242.167 109.833,242.167 108.5,241.5 Z"/></g>
<g><path style="opacity:0.853" fill="#de3f3e" d="M 462.5,253.5 C 463.712,254.23 464.712,255.23 465.5,256.5C 469.075,254.93 472.408,252.93 475.5,250.5C 476.894,252.984 478.394,252.984 480,250.5C 486.123,251.973 491.956,254.806 497.5,259C 502.107,262.323 503.607,266.49 502,271.5C 499.132,269.575 496.465,269.575 494,271.5C 493.329,270.748 492.496,270.414 491.5,270.5C 491.167,267.833 490.833,267.833 490.5,270.5C 489.571,269.064 488.405,267.731 487,266.5C 486.667,266.833 486.333,267.167 486,267.5C 482.74,264.016 479.24,263.849 475.5,267C 477.912,269.035 477.245,270.035 473.5,270C 472.773,271.399 472.273,272.899 472,274.5C 471.667,273.833 471.333,273.167 471,272.5C 470.667,273.833 470.333,275.167 470,276.5C 469.667,276.167 469.333,275.833 469,275.5C 468.934,278.276 467.768,280.442 465.5,282C 466.458,283.147 466.125,284.147 464.5,285C 465.428,285.388 466.095,286.055 466.5,287C 465.711,288.626 464.711,290.126 463.5,291.5C 463.624,292.107 463.957,292.44 464.5,292.5C 464.425,295.407 463.591,298.073 462,300.5C 460.559,299.74 459.059,299.074 457.5,298.5C 456.719,299.737 455.719,300.737 454.5,301.5C 453.315,300.147 451.981,298.98 450.5,298C 449.256,297.544 448.423,298.044 448,299.5C 447.833,299 447.667,298.5 447.5,298C 447.623,286.631 447.623,275.131 447.5,263.5C 448.09,262.201 449.09,261.368 450.5,261C 448.342,259.688 448.009,258.022 449.5,256C 447.487,255.125 447.487,253.791 449.5,252C 449.167,251.667 448.833,251.333 448.5,251C 449.249,249.258 450.916,247.758 453.5,246.5C 455.061,247.347 456.561,247.014 458,245.5C 459.257,248.351 460.757,251.018 462.5,253.5 Z M 462.5,253.5 C 462.217,254.289 461.717,254.956 461,255.5C 460.472,254.184 460.972,253.517 462.5,253.5 Z"/></g>
<g><path style="opacity:0.833" fill="#0039f8" d="M 206.5,251.5 C 209.813,250.203 212.979,248.536 216,246.5C 217.416,247.573 218.75,247.573 220,246.5C 220.483,247.448 220.649,248.448 220.5,249.5C 221.873,249.343 223.207,249.51 224.5,250C 224.835,251.164 224.835,252.497 224.5,254C 225.167,254.333 225.833,254.667 226.5,255C 224.197,257.157 221.53,258.823 218.5,260C 219.654,260.914 219.487,261.747 218,262.5C 217.667,262.167 217.333,261.833 217,261.5C 207.118,264.628 202.118,271.295 202,281.5C 208.041,288.331 214.874,288.831 222.5,283C 224.167,282.333 225.833,282.333 227.5,283C 229.167,285.167 230.833,287.333 232.5,289.5C 229.67,294.496 225.503,297.829 220,299.5C 219.127,299.265 218.293,298.931 217.5,298.5C 215.719,300.473 213.552,301.807 211,302.5C 208.667,301.5 206.333,300.5 204,299.5C 203.586,299.957 203.086,300.291 202.5,300.5C 199.611,297.888 196.278,296.055 192.5,295C 192.833,294.667 193.167,294.333 193.5,294C 190.805,292.584 190.139,290.584 191.5,288C 190.428,286.716 189.095,286.383 187.5,287C 189.442,285.028 189.776,282.861 188.5,280.5C 188.977,279.522 189.643,278.689 190.5,278C 190.255,275.911 190.255,273.911 190.5,272C 192.919,267.599 195.253,263.099 197.5,258.5C 198.086,258.709 198.586,259.043 199,259.5C 199.667,258.167 200.333,256.833 201,255.5C 203.463,254.968 205.297,253.634 206.5,251.5 Z"/></g>
<g><path style="opacity:0.278" fill="#0039f8" d="M 209.5,247.5 C 210.833,248.167 210.833,248.167 209.5,247.5 Z"/></g>
<g><path style="opacity:0.854" fill="#0039f8" d="M 184.5,253.5 C 185.594,255.857 187.261,257.69 189.5,259C 189.043,259.414 188.709,259.914 188.5,260.5C 189.297,262.132 190.297,263.632 191.5,265C 190.863,266.713 189.863,266.879 188.5,265.5C 188.002,266.603 187.669,267.603 187.5,268.5C 186.459,266.009 185.626,266.009 185,268.5C 182.489,268.309 179.822,267.643 177,266.5C 175.049,267.285 173.215,268.285 171.5,269.5C 168.617,274.98 166.617,280.813 165.5,287C 165.317,291.515 165.65,295.849 166.5,300C 163.411,304.329 160.244,304.496 157,300.5C 156.311,301.357 155.478,302.023 154.5,302.5C 153.041,300.417 151.708,298.25 150.5,296C 150.692,289.416 151.359,282.416 152.5,275C 151.833,272.333 151.167,269.667 150.5,267C 151.167,266.667 151.833,266.333 152.5,266C 150.285,265.612 148.952,264.612 148.5,263C 150.837,261.202 151.503,259.035 150.5,256.5C 151.758,253.916 153.258,252.249 155,251.5C 156.281,254.447 158.281,256.781 161,258.5C 165.811,255.601 170.644,252.601 175.5,249.5C 177.098,251.973 178.598,251.973 180,249.5C 180.432,252.072 181.932,253.406 184.5,253.5 Z"/></g>
<g><path style="opacity:0.869" fill="#de3f3e" d="M 396.5,297.5 C 394.549,295.52 393.049,293.187 392,290.5C 391.28,288.888 391.446,287.388 392.5,286C 391.422,285.326 390.755,284.326 390.5,283C 391.114,281.463 391.114,280.13 390.5,279C 391.095,275.916 392.428,273.249 394.5,271C 393.5,268.909 394.167,267.243 396.5,266C 396.043,265.586 395.709,265.086 395.5,264.5C 397.661,257.5 402.161,252.5 409,249.5C 412.359,251.885 415.859,251.885 419.5,249.5C 420.192,250.025 420.692,250.692 421,251.5C 421.333,251.167 421.667,250.833 422,250.5C 423.243,252.833 424.909,253.5 427,252.5C 428.257,254.746 430.09,256.079 432.5,256.5C 432.351,257.552 432.517,258.552 433,259.5C 433.667,260.833 434.333,260.833 435,259.5C 437.752,262.578 440.086,265.911 442,269.5C 442.743,271.441 442.576,273.274 441.5,275C 444.443,276.459 444.776,278.126 442.5,280C 443.428,280.388 444.095,281.055 444.5,282C 444.475,283.988 444.475,285.988 444.5,288C 441.057,288.221 440.724,289.221 443.5,291C 442.289,292.844 440.956,293.678 439.5,293.5C 440.167,294.167 440.833,294.833 441.5,295.5C 438.818,297.505 436.152,299.505 433.5,301.5C 432.833,301.167 432.167,300.833 431.5,300.5C 429.036,301.105 426.369,302.105 423.5,303.5C 422.833,302.833 422.167,302.167 421.5,301.5C 420.389,302.611 419.055,303.278 417.5,303.5C 411.631,301.995 405.631,301.329 399.5,301.5C 399.579,300.07 399.246,298.736 398.5,297.5C 397.743,296.227 397.077,296.227 396.5,297.5 Z M 413.5,264.5 C 416.709,264.594 419.876,265.594 423,267.5C 423.333,267.167 423.667,266.833 424,266.5C 425.646,267.779 426.813,269.445 427.5,271.5C 428.5,272 429.5,272.5 430.5,273C 430.351,277.324 430.017,281.658 429.5,286C 424.167,289.315 418.667,290.148 413,288.5C 411.159,291.323 409.659,291.156 408.5,288C 407.167,287.667 405.833,287.333 404.5,287C 404.623,284.789 404.623,282.622 404.5,280.5C 407.52,275.121 410.52,269.788 413.5,264.5 Z"/></g>
<g><path style="opacity:0.322" fill="#de3f3e" d="M 413.5,249.5 C 414.833,250.167 414.833,250.167 413.5,249.5 Z"/></g>
<g><path style="opacity:0.294" fill="#0039f8" d="M 206.5,251.5 C 205.833,250.167 205.833,250.167 206.5,251.5 Z"/></g>
<g><path style="opacity:0.106" fill="#0039f8" d="M 184.5,252.5 C 185.833,253.167 185.833,253.167 184.5,252.5 Z"/></g>
<g><path style="opacity:0.114" fill="#0039f8" d="M 121.5,255.5 C 120.475,255.103 120.308,254.437 121,253.5C 121.464,254.094 121.631,254.761 121.5,255.5 Z"/></g>
<g><path style="opacity:0.858" fill="#0039f8" d="M 107.5,269.5 C 109.083,266.613 110.583,263.613 112,260.5C 113.356,259.62 114.856,259.286 116.5,259.5C 116.97,255.92 118.304,255.253 120.5,257.5C 121.298,257.043 121.631,256.376 121.5,255.5C 123.461,255.731 125.461,255.065 127.5,253.5C 128.192,254.025 128.692,254.692 129,255.5C 130.391,253.285 132.057,253.285 134,255.5C 134.333,255.167 134.667,254.833 135,254.5C 140.109,258.01 144.109,263.01 147,269.5C 147.233,271.78 148.066,273.78 149.5,275.5C 148.902,276.795 148.402,278.128 148,279.5C 147.346,278.304 146.846,278.304 146.5,279.5C 147.376,280.251 148.376,280.751 149.5,281C 148.833,281.333 148.167,281.667 147.5,282C 148.235,285.498 148.235,288.831 147.5,292C 145.158,294.656 142.992,297.489 141,300.5C 137.972,302.179 134.972,303.846 132,305.5C 131.667,304.833 131.333,304.167 131,303.5C 124.828,306.079 119.161,305.079 114,300.5C 113.667,300.833 113.333,301.167 113,301.5C 111.167,299 109,296.833 106.5,295C 106.833,294.667 107.167,294.333 107.5,294C 106.196,293.196 105.529,292.029 105.5,290.5C 106.603,288.723 106.603,286.889 105.5,285C 107.154,283.096 107.487,281.096 106.5,279C 108.266,276.126 108.6,272.959 107.5,269.5 Z M 129.5,268.5 C 130.833,268.5 132.167,268.5 133.5,268.5C 134.957,271.822 135.957,275.322 136.5,279C 134.26,282.916 132.593,286.749 131.5,290.5C 129.899,289.835 128.399,289.501 127,289.5C 126.275,291.158 125.108,291.658 123.5,291C 124.602,288.609 123.936,288.109 121.5,289.5C 119.947,287.735 119.614,285.902 120.5,284C 119.692,283.692 119.025,283.192 118.5,282.5C 119.833,280.167 121.167,277.833 122.5,275.5C 121.691,273.929 121.357,272.262 121.5,270.5C 124.373,270.198 127.039,269.531 129.5,268.5 Z"/></g>
<g><path style="opacity:0.275" fill="#0039f8" d="M 116.5,254.5 C 117.833,255.167 117.833,255.167 116.5,254.5 Z"/></g>
<g><path style="opacity:0.815" fill="#de3f3e" d="M 543.5,297.5 C 543.351,298.552 543.517,299.552 544,300.5C 544.654,299.304 545.154,299.304 545.5,300.5C 544.68,302.111 543.346,302.778 541.5,302.5C 541.5,303.833 541.5,305.167 541.5,306.5C 539.058,306.119 538.391,306.786 539.5,308.5C 536.606,309.797 533.773,310.13 531,309.5C 529.699,309.639 528.866,310.305 528.5,311.5C 528.167,311.5 527.833,311.5 527.5,311.5C 527.631,310.761 527.464,310.094 527,309.5C 523.857,311.172 521.357,310.506 519.5,307.5C 516.674,308.871 515.174,307.871 515,304.5C 513.992,304.018 512.825,303.852 511.5,304C 511.833,303.667 512.167,303.333 512.5,303C 510.5,301.333 508.5,299.667 506.5,298C 506.833,297.667 507.167,297.333 507.5,297C 506.809,295.933 506.309,294.766 506,293.5C 504.633,294.524 503.8,294.024 503.5,292C 503.431,286.598 503.764,281.431 504.5,276.5C 505.563,272.482 507.397,268.815 510,265.5C 510.414,265.957 510.914,266.291 511.5,266.5C 512.815,264.684 514.315,263.017 516,261.5C 517.813,262.609 518.646,261.942 518.5,259.5C 520.958,257.722 523.624,256.056 526.5,254.5C 529.053,254.945 531.72,254.945 534.5,254.5C 534.756,256.937 535.423,259.271 536.5,261.5C 535.098,262.842 535.431,263.676 537.5,264C 535.667,265.833 533.833,267.667 532,269.5C 531.667,269.167 531.333,268.833 531,268.5C 529.316,270.701 527.316,271.367 525,270.5C 522.362,273.474 519.695,276.474 517,279.5C 516.358,281.762 515.525,283.929 514.5,286C 516.723,286.652 517.89,288.152 518,290.5C 518.333,290.167 518.667,289.833 519,289.5C 519.726,292.288 521.56,293.788 524.5,294C 527.432,295.701 530.099,295.534 532.5,293.5C 533.478,293.977 534.311,294.643 535,295.5C 536.11,293.963 537.61,293.297 539.5,293.5C 539.312,295.103 539.812,296.437 541,297.5C 541.333,296.833 541.667,296.167 542,295.5C 542.278,296.416 542.778,297.082 543.5,297.5 Z"/></g>
<g><path style="opacity:0.243" fill="#de3f3e" d="M 538.5,257.5 C 539.833,258.167 539.833,258.167 538.5,257.5 Z"/></g>
<g><path style="opacity:0.38" fill="#0039f8" d="M 101.5,258.5 C 102.833,259.167 102.833,259.167 101.5,258.5 Z"/></g>
<g><path style="opacity:0.133" fill="#de3f3e" d="M 385.5,259.5 C 386.525,259.897 386.692,260.563 386,261.5C 385.536,260.906 385.369,260.239 385.5,259.5 Z"/></g>
<g><path style="opacity:0.031" fill="#de3f3e" d="M 592.5,260.5 C 593.833,261.167 593.833,261.167 592.5,260.5 Z"/></g>
<g><path style="opacity:0.055" fill="#de3f3e" d="M 539.5,261.5 C 540.833,262.167 540.833,262.167 539.5,261.5 Z"/></g>
<g><path style="opacity:0.165" fill="#de3f3e" d="M 384.5,262.5 C 385.833,263.167 385.833,263.167 384.5,262.5 Z"/></g>
<g><path style="opacity:0.09" fill="#de3f3e" d="M 592.5,262.5 C 593.833,263.167 593.833,263.167 592.5,262.5 Z"/></g>
<g><path style="opacity:0.353" fill="#0039f8" d="M 105.5,263.5 C 106.833,264.167 106.833,264.167 105.5,263.5 Z"/></g>
<g><path style="opacity:0.035" fill="#de3f3e" d="M 589.5,264.5 C 590.833,265.167 590.833,265.167 589.5,264.5 Z"/></g>
<g><path style="opacity:0.204" fill="#0039f8" d="M 107.5,269.5 C 106.833,268.167 106.833,268.167 107.5,269.5 Z"/></g>
<g><path style="opacity:0.224" fill="#de3f3e" d="M 490.5,270.5 C 490.833,270.5 491.167,270.5 491.5,270.5C 491.315,271.17 490.981,271.17 490.5,270.5 Z"/></g>
<g><path style="opacity:0.132" fill="#de3f3e" d="M 504.5,276.5 C 503.427,275.749 503.26,274.749 504,273.5C 504.483,274.448 504.649,275.448 504.5,276.5 Z"/></g>
<g><path style="opacity:0.035" fill="#de3f3e" d="M 341.5,276.5 C 342.833,277.167 342.833,277.167 341.5,276.5 Z"/></g>
<g><path style="opacity:0.149" fill="#de3f3e" d="M 343.5,289.5 C 342.475,289.103 342.308,288.437 343,287.5C 343.464,288.094 343.631,288.761 343.5,289.5 Z"/></g>
<g><path style="opacity:0.376" fill="#de3f3e" d="M 597.5,288.5 C 596.833,287.167 596.833,287.167 597.5,288.5 Z"/></g>
<g><path style="opacity:0.18" fill="#0039f8" d="M 274.5,288.5 C 275.833,289.167 275.833,289.167 274.5,288.5 Z"/></g>
<g><path style="opacity:0.353" fill="#de3f3e" d="M 590.5,289.5 C 591.833,290.167 591.833,290.167 590.5,289.5 Z"/></g>
<g><path style="opacity:0.196" fill="#0039f8" d="M 274.5,290.5 C 275.833,291.167 275.833,291.167 274.5,290.5 Z"/></g>
<g><path style="opacity:0.322" fill="#de3f3e" d="M 579.5,290.5 C 580.833,291.167 580.833,291.167 579.5,290.5 Z"/></g>
<g><path style="opacity:0.106" fill="#de3f3e" d="M 464.5,291.5 C 465.833,292.167 465.833,292.167 464.5,291.5 Z"/></g>
<g><path style="opacity:0.196" fill="#0039f8" d="M 272.5,295.5 C 273.833,296.167 273.833,296.167 272.5,295.5 Z"/></g>
<g><path style="opacity:0.271" fill="#de3f3e" d="M 543.5,296.5 C 544.833,297.167 544.833,297.167 543.5,296.5 Z"/></g>
<g><path style="opacity:0.227" fill="#de3f3e" d="M 396.5,297.5 C 397.833,298.167 397.833,298.167 396.5,297.5 Z"/></g>
<g><path style="opacity:0.267" fill="#0039f8" d="M 66.5,308.5 C 66.8966,307.475 67.5632,307.308 68.5,308C 67.9056,308.464 67.2389,308.631 66.5,308.5 Z"/></g>
</svg>
