<?xml version="1.0" encoding="UTF-8"?>
<!DOCTYPE svg PUBLIC "-//W3C//DTD SVG 1.1//EN" "http://www.w3.org/Graphics/SVG/1.1/DTD/svg11.dtd">
<svg xmlns="http://www.w3.org/2000/svg" version="1.1" width="943px" height="443px" style="shape-rendering:geometricPrecision; text-rendering:geometricPrecision; image-rendering:optimizeQuality; fill-rule:evenodd; clip-rule:evenodd" xmlns:xlink="http://www.w3.org/1999/xlink">
<g><path style="opacity:0.763" fill="#000000" d="M 602.5,-0.5 C 603.167,-0.5 603.833,-0.5 604.5,-0.5C 604.833,0.833333 605.167,0.833333 605.5,-0.5C 605.833,-0.5 606.167,-0.5 606.5,-0.5C 607.5,0.833333 608.5,0.833333 609.5,-0.5C 610.167,-0.5 610.833,-0.5 611.5,-0.5C 613.954,0.620635 616.621,1.45397 619.5,2C 620.543,3.97563 621.877,4.47563 623.5,3.5C 623.787,6.68375 625.453,8.68375 628.5,9.5C 628.291,10.086 627.957,10.586 627.5,11C 631.912,15.6518 634.912,21.1518 636.5,27.5C 636.03,29.7738 635.03,31.7738 633.5,33.5C 634.165,35.1012 634.499,36.6012 634.5,38C 633.747,39.487 632.914,39.6537 632,38.5C 631.781,39.938 631.281,41.2713 630.5,42.5C 628.983,41.0892 627.649,41.2559 626.5,43C 621.275,42.9589 616.275,43.7922 611.5,45.5C 610.803,43.6155 609.803,43.2822 608.5,44.5C 605.573,43.199 602.573,42.199 599.5,41.5C 600.985,38.0688 601.985,34.7355 602.5,31.5C 605.053,28.9557 607.553,28.9557 610,31.5C 611,30.1667 612,30.1667 613,31.5C 614.054,29.2464 615.554,28.913 617.5,30.5C 621.176,29.9579 622.676,27.9579 622,24.5C 621.482,21.4919 619.982,19.1585 617.5,17.5C 617.709,16.914 618.043,16.414 618.5,16C 616.063,15.7965 613.729,14.9632 611.5,13.5C 609.481,14.14 607.647,14.14 606,13.5C 605.395,15.4812 604.395,15.8146 603,14.5C 600.396,16.1396 597.563,17.4729 594.5,18.5C 593.614,19.325 593.281,20.325 593.5,21.5C 592.167,21.5 590.833,21.5 589.5,21.5C 589.683,23.9363 589.016,26.103 587.5,28C 588.552,29.7165 587.886,30.7165 585.5,31C 586.649,32.6037 586.649,34.2703 585.5,36C 587.581,37.382 587.915,39.0487 586.5,41C 587.819,46.7675 589.819,52.2675 592.5,57.5C 593.552,57.3505 594.552,57.5172 595.5,58C 595.167,58.3333 594.833,58.6667 594.5,59C 599.334,65.667 605.001,71.5003 611.5,76.5C 612.675,75.1451 613.675,75.3117 614.5,77C 614.167,77.3333 613.833,77.6667 613.5,78C 614.448,78.4828 615.448,78.6495 616.5,78.5C 616.413,81.5983 616.913,81.9316 618,79.5C 618.31,84.1415 620.81,86.3082 625.5,86C 626.833,86.6667 626.833,87.3333 625.5,88C 628.335,88.756 630.835,90.5894 633,93.5C 633.414,93.0426 633.914,92.7093 634.5,92.5C 635.893,93.8631 637.559,94.6964 639.5,95C 639.167,95.3333 638.833,95.6667 638.5,96C 641.167,96.3333 643.833,96.6667 646.5,97C 647,97.5 647.5,98 648,98.5C 649,97.1667 650,97.1667 651,98.5C 652,95.8333 653,95.8333 654,98.5C 655.667,97.1667 657.333,97.1667 659,98.5C 659.667,97.8333 660.333,97.1667 661,96.5C 663.498,95.8788 665.832,96.5455 668,98.5C 668.333,98.1667 668.667,97.8333 669,97.5C 669.333,98.8333 669.667,100.167 670,101.5C 672.071,102.103 673.238,103.436 673.5,105.5C 672.167,105.833 672.167,106.167 673.5,106.5C 674.562,107.575 674.562,108.575 673.5,109.5C 671.705,110.265 669.872,110.932 668,111.5C 664.558,110.769 661.225,110.436 658,110.5C 654.885,112.605 651.885,112.605 649,110.5C 647.201,110.721 645.368,111.054 643.5,111.5C 640.178,109.934 636.678,108.934 633,108.5C 626.883,105.196 621.049,101.53 615.5,97.5C 612.419,95.5851 610.253,92.9185 609,89.5C 608.586,89.9574 608.086,90.2907 607.5,90.5C 604.005,89.3454 602.005,87.012 601.5,83.5C 599.42,82.9556 597.42,82.1223 595.5,81C 595.833,80.6667 596.167,80.3333 596.5,80C 594.161,77.1615 591.494,74.6615 588.5,72.5C 589.609,70.7859 588.942,70.1192 586.5,70.5C 586.756,68.0876 585.756,66.4209 583.5,65.5C 580.999,60.7893 578.499,56.1226 576,51.5C 568.687,32.6556 572.854,16.9889 588.5,4.5C 590.123,5.47563 591.457,4.97563 592.5,3C 595.989,1.10887 599.322,-0.0577989 602.5,-0.5 Z"/></g>
<g><path style="opacity:0.775" fill="#000000" d="M 451.5,60.5 C 453.995,60.5951 456.662,60.2617 459.5,59.5C 460.251,60.376 460.751,61.376 461,62.5C 463.66,62.5484 466.16,62.2151 468.5,61.5C 472.967,63.2084 477.634,64.3751 482.5,65C 486.651,67.0079 490.651,69.1745 494.5,71.5C 495.251,72.376 495.751,73.376 496,74.5C 496.414,74.0426 496.914,73.7093 497.5,73.5C 500.765,75.643 504.098,77.4763 507.5,79C 507.167,79.3333 506.833,79.6667 506.5,80C 510.982,83.758 515.315,87.758 519.5,92C 519.167,92.3333 518.833,92.6667 518.5,93C 520.894,96.6774 523.061,100.511 525,104.5C 525.75,105.126 526.584,105.626 527.5,106C 528.24,107.728 528.24,109.728 527.5,112C 529.525,113.194 529.859,114.694 528.5,116.5C 529.093,118.382 529.76,120.215 530.5,122C 528.487,122.875 528.487,124.209 530.5,126C 529.344,128.44 529.344,130.94 530.5,133.5C 529.939,136.535 529.273,139.535 528.5,142.5C 528.226,152.836 523.559,160.836 514.5,166.5C 513.678,169.792 511.844,171.125 509,170.5C 508,172.167 507,173.833 506,175.5C 505.667,175.167 505.333,174.833 505,174.5C 503.623,176.592 501.79,178.258 499.5,179.5C 496.964,176.949 495.298,177.616 494.5,181.5C 493.808,180.975 493.308,180.308 493,179.5C 492.536,183.982 490.703,184.982 487.5,182.5C 486.77,183.934 485.77,185.1 484.5,186C 479.756,187.297 474.923,188.13 470,188.5C 463.051,188.287 455.885,187.787 448.5,187C 446.448,186.07 444.948,184.57 444,182.5C 443.667,183.167 443.333,183.833 443,184.5C 442.261,183.426 441.261,182.759 440,182.5C 435.484,184.364 430.984,186.198 426.5,188C 424.718,188.814 423.218,189.981 422,191.5C 421.667,191.167 421.333,190.833 421,190.5C 416.569,195.935 411.735,201.102 406.5,206C 407.416,206.374 408.25,206.874 409,207.5C 409.953,205.408 411.286,205.075 413,206.5C 415.496,204.36 417.83,204.36 420,206.5C 420.381,205.518 421.214,204.852 422.5,204.5C 423.647,204.818 424.481,205.484 425,206.5C 428.24,204.964 431.24,205.297 434,207.5C 436.112,205.078 438.112,205.078 440,207.5C 440.804,206.196 441.971,205.529 443.5,205.5C 447.144,207.007 450.811,207.34 454.5,206.5C 456.109,207.888 457.942,208.888 460,209.5C 460.945,209.095 461.612,208.428 462,207.5C 463.018,209.564 464.351,209.898 466,208.5C 467.261,208.759 468.261,209.426 469,210.5C 471.072,207.846 472.739,208.18 474,211.5C 474.414,211.043 474.914,210.709 475.5,210.5C 476.731,211.651 476.731,212.817 475.5,214C 479.973,215.02 480.306,216.187 476.5,217.5C 476.5,219.5 476.5,221.5 476.5,223.5C 473.513,222.175 470.513,222.175 467.5,223.5C 465.626,223.61 464.126,222.944 463,221.5C 460.88,224.08 458.713,224.08 456.5,221.5C 455.833,222.167 455.167,222.833 454.5,223.5C 453.193,222.184 451.693,221.184 450,220.5C 446.555,220.477 443.055,220.81 439.5,221.5C 436.961,220.885 434.461,220.218 432,219.5C 426.796,219.704 421.463,219.704 416,219.5C 416.027,221.417 416.861,223.084 418.5,224.5C 421.975,226.156 425.308,227.99 428.5,230C 433.116,235.303 438.783,239.303 445.5,242C 446.793,242.49 448.127,242.657 449.5,242.5C 449.351,243.552 449.517,244.552 450,245.5C 450.333,245.167 450.667,244.833 451,244.5C 455.774,247.805 460.941,250.471 466.5,252.5C 467.086,252.291 467.586,251.957 468,251.5C 470.101,252.924 472.267,254.258 474.5,255.5C 471.833,257.167 471.833,258.833 474.5,260.5C 473.349,261.731 472.183,261.731 471,260.5C 468.38,264.036 464.88,265.202 460.5,264C 459.675,262.312 458.675,262.145 457.5,263.5C 456.757,262.092 455.923,260.759 455,259.5C 452.546,261.013 450.879,260.346 450,257.5C 449.586,257.957 449.086,258.291 448.5,258.5C 445.446,256.271 442.28,254.271 439,252.5C 438.667,252.833 438.333,253.167 438,253.5C 429.823,249.061 422.323,243.561 415.5,237C 414.207,236.51 412.873,236.343 411.5,236.5C 411.574,232.839 410.574,232.172 408.5,234.5C 408.264,233.753 407.93,232.92 407.5,232C 405.667,230.833 403.833,229.667 402,228.5C 400.413,229.727 399.079,229.394 398,227.5C 397.186,229.282 396.019,230.782 394.5,232C 394.957,232.414 395.291,232.914 395.5,233.5C 394.5,234.333 393.5,235.167 392.5,236C 392.088,240.206 392.088,244.539 392.5,249C 389.841,251.841 388.841,255.007 389.5,258.5C 388.975,259.192 388.308,259.692 387.5,260C 387.846,264.308 387.846,268.808 387.5,273.5C 387.291,274.994 386.624,276.161 385.5,277C 386.573,278.313 387.24,279.813 387.5,281.5C 386.385,283.733 386.385,285.899 387.5,288C 386.672,288.915 385.672,289.581 384.5,290C 385.416,290.374 386.25,290.874 387,291.5C 386.798,294.228 386.964,296.895 387.5,299.5C 384.984,304.012 381.15,306.679 376,307.5C 374.294,304.748 373.128,301.748 372.5,298.5C 372.326,296.307 372.993,294.473 374.5,293C 371.942,291.62 371.942,290.12 374.5,288.5C 373.96,287.252 373.293,286.085 372.5,285C 373.578,284.326 374.245,283.326 374.5,282C 373.593,280.089 373.593,278.256 374.5,276.5C 374.023,275.522 373.357,274.689 372.5,274C 373.624,273.751 374.624,273.251 375.5,272.5C 375.167,271.167 374.833,269.833 374.5,268.5C 375.025,267.808 375.692,267.308 376.5,267C 373.575,263.304 373.908,259.971 377.5,257C 376.426,256.261 375.759,255.261 375.5,254C 376.615,252.765 376.615,251.598 375.5,250.5C 376.908,249.757 378.241,248.923 379.5,248C 378.36,244.095 378.36,240.262 379.5,236.5C 380.952,232.263 382.952,228.263 385.5,224.5C 385.167,223.833 384.833,223.167 384.5,222.5C 387.432,213.97 391.432,205.97 396.5,198.5C 397.376,197.749 398.376,197.249 399.5,197C 398.391,195.187 399.058,194.354 401.5,194.5C 401.5,193.5 401.5,192.5 401.5,191.5C 402.675,191.719 403.675,191.386 404.5,190.5C 405.915,187.376 407.915,184.709 410.5,182.5C 411.324,184.748 412.324,184.914 413.5,183C 412.483,181.951 412.316,180.784 413,179.5C 414.388,180.554 415.888,180.72 417.5,180C 415.355,179.257 415.189,178.424 417,177.5C 419.763,176.447 422.93,175.447 426.5,174.5C 426.528,170.845 424.861,168.178 421.5,166.5C 420.772,164.807 419.772,163.307 418.5,162C 418.833,161.667 419.167,161.333 419.5,161C 417.479,160.487 415.979,159.32 415,157.5C 414.383,156.551 414.549,155.718 415.5,155C 412.093,152.712 409.76,149.545 408.5,145.5C 409.471,144.038 409.138,142.705 407.5,141.5C 408.025,140.808 408.692,140.308 409.5,140C 406.786,137.812 406.12,135.145 407.5,132C 406.484,131.481 405.818,130.647 405.5,129.5C 406.88,124.964 407.213,120.797 406.5,117C 407.022,116.05 407.689,115.216 408.5,114.5C 406.88,112.261 407.213,110.427 409.5,109C 408.009,106.978 408.342,105.312 410.5,104C 409.739,101.821 410.072,99.6545 411.5,97.5C 415.425,91.559 419.258,85.559 423,79.5C 427.639,74.7678 433.139,70.1011 439.5,65.5C 441.49,64.5019 443.49,63.5019 445.5,62.5C 446.086,62.7093 446.586,63.0426 447,63.5C 447.419,62.3279 448.085,61.3279 449,60.5C 450.821,61.795 451.655,61.795 451.5,60.5 Z M 441.5,168.5 C 441.5,167.5 441.5,166.5 441.5,165.5C 440.5,165.5 439.5,165.5 438.5,165.5C 438.719,164.325 438.386,163.325 437.5,162.5C 435.695,161.528 434.028,160.361 432.5,159C 433.784,157.703 433.617,156.536 432,155.5C 431.667,155.833 431.333,156.167 431,156.5C 429.887,155.24 429.72,154.073 430.5,153C 429.167,152.667 427.833,152.333 426.5,152C 429.286,149.979 428.953,148.479 425.5,147.5C 424.305,143.54 422.305,140.04 419.5,137C 420.597,129.883 420.597,122.383 419.5,114.5C 420.215,108.251 422.715,102.917 427,98.5C 428.009,96.9751 428.509,95.3084 428.5,93.5C 429.552,93.6495 430.552,93.4828 431.5,93C 431.167,92.6667 430.833,92.3333 430.5,92C 432.188,89.7321 434.021,87.5655 436,85.5C 436.893,86.7112 437.726,86.7112 438.5,85.5C 437.061,83.6568 437.228,81.9901 439,80.5C 440.049,81.5171 441.216,81.6838 442.5,81C 441.137,78.8707 441.471,78.3707 443.5,79.5C 445.839,76.8331 448.839,75.4998 452.5,75.5C 456.412,75.8775 460.245,75.8775 464,75.5C 465.555,77.1458 467.221,77.4791 469,76.5C 469.333,77.5 469.667,78.5 470,79.5C 474.064,79.1126 477.731,80.446 481,83.5C 481.414,83.0426 481.914,82.7093 482.5,82.5C 488.517,85.6672 494.517,88.8338 500.5,92C 500.5,93 500.5,94 500.5,95C 503.196,95.6898 505.363,97.1898 507,99.5C 509.438,104.267 512.271,108.767 515.5,113C 514.713,117.029 515.713,120.696 518.5,124C 518.585,126.946 517.918,129.946 516.5,133C 516.903,134.473 517.57,135.806 518.5,137C 516.408,137.953 516.075,139.286 517.5,141C 516.751,142.734 516.251,144.567 516,146.5C 513.135,150.657 509.968,154.49 506.5,158C 505.552,158.483 504.552,158.649 503.5,158.5C 503.719,159.675 503.386,160.675 502.5,161.5C 494.546,166.228 486.379,170.228 478,173.5C 474.789,174.517 471.622,174.517 468.5,173.5C 467.522,173.977 466.689,174.643 466,175.5C 465.692,174.692 465.192,174.025 464.5,173.5C 462.275,174.101 460.109,174.434 458,174.5C 457.261,173.426 456.261,172.759 455,172.5C 453.56,173.607 452.06,173.607 450.5,172.5C 448.87,171.579 447.203,170.745 445.5,170C 445.273,168.865 444.94,167.698 444.5,166.5C 443.482,167.193 442.482,167.859 441.5,168.5 Z"/></g>
<g><path style="opacity:0.02" fill="#000000" d="M 673.5,105.5 C 674.833,106.167 674.833,106.167 673.5,105.5 Z"/></g>
<g><path style="opacity:0.749" fill="#000000" d="M 728.5,180.5 C 728.167,179.167 727.833,179.167 727.5,180.5C 721.935,182.161 715.935,182.827 709.5,182.5C 706.737,179.605 703.904,178.939 701,180.5C 700.667,179.5 700.333,178.5 700,177.5C 698.43,177.67 696.597,178.003 694.5,178.5C 696.477,175.107 695.81,172.441 692.5,170.5C 694.17,168.327 695.837,166.16 697.5,164C 705.142,164.698 712.642,165.865 720,167.5C 725.674,166.3 731.507,164.8 737.5,163C 739.65,161.351 741.65,159.518 743.5,157.5C 742.762,155.06 741.429,153.06 739.5,151.5C 740.939,149.657 740.772,147.99 739,146.5C 738.586,146.957 738.086,147.291 737.5,147.5C 737.262,145.522 735.929,143.855 733.5,142.5C 730.674,141.42 727.841,140.42 725,139.5C 718.144,138.929 711.144,138.929 704,139.5C 700.871,141.248 697.704,141.915 694.5,141.5C 693.572,143.335 692.406,143.668 691,142.5C 689.066,144.943 686.566,146.276 683.5,146.5C 683.723,149.114 682.556,150.781 680,151.5C 679.577,154.133 678.41,156.299 676.5,158C 677.114,159.13 677.114,160.463 676.5,162C 678.759,164.16 678.759,166.16 676.5,168C 679.348,176.574 683.515,185.408 689,194.5C 694.017,200.352 700.017,205.019 707,208.5C 708.667,208.167 710.333,207.833 712,207.5C 717.868,209.995 724.035,210.662 730.5,209.5C 731.647,209.818 732.481,210.484 733,211.5C 733.691,209.109 734.691,209.109 736,211.5C 736.5,211 737,210.5 737.5,210C 739.657,209.922 741.657,209.755 743.5,209.5C 744.799,210.09 745.632,211.09 746,212.5C 747.985,208.486 750.652,207.819 754,210.5C 755.019,209.313 756.186,208.313 757.5,207.5C 758.192,208.025 758.692,208.692 759,209.5C 759.388,208.572 760.055,207.905 761,207.5C 766.211,208.814 771.377,208.481 776.5,206.5C 777.89,208.203 779.39,208.87 781,208.5C 781.684,209.784 781.517,210.951 780.5,212C 781.951,211.737 783.284,211.904 784.5,212.5C 781.679,216.86 778.012,220.193 773.5,222.5C 768.543,221.803 763.71,222.47 759,224.5C 758.333,223.833 757.667,223.167 757,222.5C 755.414,223.376 753.914,224.376 752.5,225.5C 749.382,224.517 746.049,224.35 742.5,225C 741.874,224.25 741.374,223.416 741,222.5C 738.97,225.508 736.303,226.174 733,224.5C 731.128,225.068 729.295,225.735 727.5,226.5C 726.808,225.975 726.308,225.308 726,224.5C 723.175,226.084 721.008,225.418 719.5,222.5C 718.749,223.376 718.249,224.376 718,225.5C 714.688,224.024 711.188,223.19 707.5,223C 706.107,220.317 704.774,220.15 703.5,222.5C 702.186,221.687 701.019,220.687 700,219.5C 699.586,219.957 699.086,220.291 698.5,220.5C 696.091,219.299 694.091,217.633 692.5,215.5C 691.914,215.709 691.414,216.043 691,216.5C 689.833,214.833 688.667,213.167 687.5,211.5C 686.549,212.326 685.549,212.492 684.5,212C 684.833,211.667 685.167,211.333 685.5,211C 682.483,208.482 680.316,205.316 679,201.5C 675.12,199.388 673.287,196.055 673.5,191.5C 672.5,191.5 671.5,191.5 670.5,191.5C 669.578,188.874 668.578,186.207 667.5,183.5C 667.833,182.833 668.167,182.167 668.5,181.5C 667.537,178.935 666.204,176.602 664.5,174.5C 665.167,173.833 665.833,173.167 666.5,172.5C 663.017,168.564 662.684,164.397 665.5,160C 664.796,156.815 664.463,153.649 664.5,150.5C 667.152,146.183 670.485,142.516 674.5,139.5C 675.246,138.264 675.579,136.93 675.5,135.5C 677.766,135.859 679.599,135.192 681,133.5C 681.333,133.833 681.667,134.167 682,134.5C 682.309,133.234 682.809,132.067 683.5,131C 686,129.833 688.5,128.667 691,127.5C 693.085,128.647 694.585,127.98 695.5,125.5C 700.875,125.617 706.542,125.617 712.5,125.5C 713.937,122.956 715.437,122.956 717,125.5C 718,124.833 719,124.167 720,123.5C 721.667,124.833 723.333,124.833 725,123.5C 728.392,125.018 731.725,126.684 735,128.5C 736.84,127.167 737.34,127.334 736.5,129C 741.488,131.574 746.154,134.408 750.5,137.5C 752.776,142.224 754.609,147.224 756,152.5C 756.667,155.167 756.667,157.833 756,160.5C 753.587,163.062 751.92,166.062 751,169.5C 750.097,170.701 748.931,171.535 747.5,172C 748.821,173.545 748.488,174.711 746.5,175.5C 744.995,172.869 744.329,173.203 744.5,176.5C 741.368,176.784 738.368,177.617 735.5,179C 736.696,179.654 736.696,180.154 735.5,180.5C 733.229,180.228 730.895,180.228 728.5,180.5 Z"/></g>
<g><path style="opacity:0.009" fill="#000000" d="M 508.5,125.5 C 510.337,125.639 510.67,126.306 509.5,127.5C 508.702,127.043 508.369,126.376 508.5,125.5 Z"/></g>
<g><path style="opacity:0.775" fill="#000000" d="M 942.5,217.5 C 942.5,218.167 942.5,218.833 942.5,219.5C 939.305,219.584 938.139,220.917 939,223.5C 935.205,222.184 931.372,222.851 927.5,225.5C 923.694,222.58 919.861,222.246 916,224.5C 909.813,224.744 903.48,224.41 897,223.5C 893.384,224.238 889.718,224.904 886,225.5C 884.85,224.576 883.85,224.576 883,225.5C 882.309,223.109 881.309,223.109 880,225.5C 877.546,224.802 875.213,223.802 873,222.5C 872.612,223.428 871.945,224.095 871,224.5C 868.144,223.228 865.311,222.894 862.5,223.5C 858.621,221.681 854.788,220.014 851,218.5C 849.333,218.5 847.667,218.5 846,218.5C 845.626,217.584 845.126,216.75 844.5,216C 839.081,213.434 833.747,210.601 828.5,207.5C 827.147,206.476 826.48,205.143 826.5,203.5C 825.448,203.649 824.448,203.483 823.5,203C 820.01,199.921 817.01,196.421 814.5,192.5C 814.709,191.914 815.043,191.414 815.5,191C 811.774,186.546 809.107,181.546 807.5,176C 806.819,169.703 806.819,163.536 807.5,157.5C 811.137,152.095 814.137,147.095 816.5,142.5C 817.552,142.649 818.552,142.483 819.5,142C 821.633,138.731 824.3,135.898 827.5,133.5C 830.167,134.833 830.833,134.167 829.5,131.5C 831.347,130.17 832.847,130.503 834,132.5C 836.644,130.69 839.144,128.69 841.5,126.5C 842.478,126.977 843.311,127.643 844,128.5C 846.097,127.009 848.43,126.009 851,125.5C 851.85,126.424 852.85,126.424 854,125.5C 854.945,125.905 855.612,126.572 856,127.5C 857.716,127.589 859.549,127.256 861.5,126.5C 866.909,130.201 871.909,134.367 876.5,139C 876.167,139.333 875.833,139.667 875.5,140C 878.167,141 878.167,142 875.5,143C 876.868,144.34 878.201,145.674 879.5,147C 879.095,147.945 878.428,148.612 877.5,149C 879.907,150.908 879.907,152.908 877.5,155C 878.885,159.97 877.218,163.47 872.5,165.5C 871.687,166.814 870.687,167.981 869.5,169C 869.833,169.333 870.167,169.667 870.5,170C 868.641,170.684 866.974,171.684 865.5,173C 862.026,173.301 858.692,174.134 855.5,175.5C 853.941,174.926 852.441,174.26 851,173.5C 849.416,174.861 847.582,175.528 845.5,175.5C 845.649,174.448 845.483,173.448 845,172.5C 844.29,173.973 843.124,174.64 841.5,174.5C 840.614,172.278 840.614,170.112 841.5,168C 840.971,166.441 840.304,164.941 839.5,163.5C 839.833,163.167 840.167,162.833 840.5,162.5C 845.506,160.969 850.506,159.969 855.5,159.5C 856.736,160.246 858.07,160.579 859.5,160.5C 859.354,158.058 860.187,157.391 862,158.5C 863.628,157.181 863.461,155.848 861.5,154.5C 863.329,152.844 864.663,150.844 865.5,148.5C 864.095,145.787 862.595,143.121 861,140.5C 860.586,140.957 860.086,141.291 859.5,141.5C 858.452,140.617 857.285,139.95 856,139.5C 853.742,140.253 851.742,140.253 850,139.5C 846.249,141.291 842.416,142.957 838.5,144.5C 832.548,148.628 827.714,153.295 824,158.5C 823.771,161.458 822.604,163.958 820.5,166C 820.473,169.936 820.806,173.936 821.5,178C 823.587,182.213 825.754,186.38 828,190.5C 828.333,190.167 828.667,189.833 829,189.5C 831.499,193.494 834.666,196.828 838.5,199.5C 841.618,198.902 843.952,200.235 845.5,203.5C 847.461,201.457 848.961,202.123 850,205.5C 850.333,205.167 850.667,204.833 851,204.5C 854.82,207.524 858.987,208.857 863.5,208.5C 864.816,211.028 865.983,211.028 867,208.5C 870.755,211.54 874.755,212.207 879,210.5C 880.711,210.439 882.044,211.106 883,212.5C 884.194,211.57 885.527,210.903 887,210.5C 889.749,211.264 892.415,211.597 895,211.5C 896.667,208.833 898.333,208.833 900,211.5C 901,208.833 902,208.833 903,211.5C 904.861,209.652 907.028,209.652 909.5,211.5C 910.192,210.975 910.692,210.308 911,209.5C 911.75,210.126 912.584,210.626 913.5,211C 918.418,211.195 923.251,211.695 928,212.5C 929.231,211.892 930.564,211.559 932,211.5C 934.881,212.028 937.715,212.694 940.5,213.5C 940.157,215.483 940.824,216.817 942.5,217.5 Z"/></g>
<g><path style="opacity:0.755" fill="#000000" d="M 541.5,158.5 C 544.445,158.989 546.778,160.489 548.5,163C 550.777,163.973 552.943,164.14 555,163.5C 556.626,164.289 558.126,165.289 559.5,166.5C 560.086,166.291 560.586,165.957 561,165.5C 561.851,168.612 563.017,168.946 564.5,166.5C 568.167,168 571.833,169.5 575.5,171C 576.499,174.445 577.999,174.945 580,172.5C 581.473,172.903 582.806,173.57 584,174.5C 584.333,174.167 584.667,173.833 585,173.5C 588.992,173.995 592.659,175.329 596,177.5C 596.414,177.043 596.914,176.709 597.5,176.5C 600.882,177.862 604.049,179.529 607,181.5C 609.584,180.139 611.584,180.805 613,183.5C 613.414,183.043 613.914,182.709 614.5,182.5C 621.503,184.758 628.503,185.925 635.5,186C 637.611,187.735 639.611,189.568 641.5,191.5C 640.391,193.214 641.058,193.881 643.5,193.5C 644.138,195.46 644.138,197.293 643.5,199C 644.938,199.219 646.271,199.719 647.5,200.5C 647.64,201.903 647.64,203.403 647.5,205C 650.181,207.517 652.514,210.351 654.5,213.5C 653.572,214.768 653.405,216.101 654,217.5C 654.741,218.641 655.575,218.641 656.5,217.5C 657.132,219.737 658.465,221.403 660.5,222.5C 660.167,223.167 659.833,223.833 659.5,224.5C 661.15,228.102 663.15,231.935 665.5,236C 665.146,237.626 665.146,239.459 665.5,241.5C 669.418,241.127 672.084,242.794 673.5,246.5C 673.245,251.072 672.912,255.905 672.5,261C 672.892,262.011 673.559,262.511 674.5,262.5C 672.078,264.286 672.078,265.952 674.5,267.5C 672.063,273.727 672.063,280.06 674.5,286.5C 673.894,288.709 673.227,290.876 672.5,293C 673.302,303.667 672.802,314.5 671,325.5C 669.284,334.544 667.117,343.71 664.5,353C 665.459,354.707 666.125,356.541 666.5,358.5C 665.258,362.986 664.592,367.319 664.5,371.5C 662.508,371.672 660.842,371.005 659.5,369.5C 658.552,372.715 657.219,373.048 655.5,370.5C 654.038,371.471 652.705,371.138 651.5,369.5C 652.875,367.837 652.542,366.503 650.5,365.5C 650.977,364.522 651.643,363.689 652.5,363C 652.729,358.852 652.062,354.685 650.5,350.5C 652.292,345.535 653.959,340.535 655.5,335.5C 655.167,334.833 654.833,334.167 654.5,333.5C 656.878,328.12 657.878,322.62 657.5,317C 658.697,314.411 659.697,311.744 660.5,309C 659.351,307.27 659.351,305.604 660.5,304C 659.692,303.692 659.025,303.192 658.5,302.5C 659.447,300.941 660.113,299.274 660.5,297.5C 660.414,293.328 660.414,289.161 660.5,285C 659.707,283.915 659.04,282.748 658.5,281.5C 659.833,280.5 659.833,279.5 658.5,278.5C 659.025,277.808 659.692,277.308 660.5,277C 660.597,274.415 660.264,271.749 659.5,269C 659.905,268.055 660.572,267.388 661.5,267C 660.782,264.539 660.115,262.039 659.5,259.5C 659.973,256.056 659.14,252.722 657,249.5C 656.586,249.957 656.086,250.291 655.5,250.5C 654.667,249.5 653.833,248.5 653,247.5C 651.223,240.866 648.89,234.533 646,228.5C 642.487,225.494 639.987,221.827 638.5,217.5C 638.709,216.914 639.043,216.414 639.5,216C 637.139,212.12 634.639,208.287 632,204.5C 631.749,206.433 631.249,208.266 630.5,210C 631.041,213.299 631.374,216.632 631.5,220C 630.875,223.472 629.875,226.805 628.5,230C 630.061,235.328 629.061,240.495 625.5,245.5C 627.087,247.446 626.754,248.946 624.5,250C 625.727,251.587 625.394,252.921 623.5,254C 624.517,255.049 624.684,256.216 624,257.5C 623.333,258.833 622.667,258.833 622,257.5C 621.833,258 621.667,258.5 621.5,259C 622.509,263.31 622.842,267.81 622.5,272.5C 622.032,274.134 621.032,275.3 619.5,276C 620.851,278.495 620.518,280.828 618.5,283C 618.739,285.486 619.073,287.986 619.5,290.5C 618.975,291.192 618.308,291.692 617.5,292C 617.807,293.682 618.14,295.348 618.5,297C 617.05,300.209 616.717,303.376 617.5,306.5C 617.122,308.135 616.456,309.635 615.5,311C 617.027,313.338 616.361,314.838 613.5,315.5C 610.701,313.269 608.034,313.269 605.5,315.5C 604.896,312.737 603.562,310.403 601.5,308.5C 601.782,306.013 601.782,303.347 601.5,300.5C 602.873,300.657 604.207,300.49 605.5,300C 604.376,299.161 603.709,297.994 603.5,296.5C 603.983,292.784 604.649,289.118 605.5,285.5C 604.224,283.139 604.558,280.972 606.5,279C 605.572,273.189 605.572,267.355 606.5,261.5C 608.303,257.679 608.969,253.846 608.5,250C 609.601,247.784 610.934,245.784 612.5,244C 611.409,241.936 611.242,239.769 612,237.5C 613.131,232.277 614.964,227.277 617.5,222.5C 616.369,213.543 616.369,205.043 617.5,197C 615.945,194.535 613.945,194.035 611.5,195.5C 610.803,193.615 609.803,193.282 608.5,194.5C 606.742,193.872 605.242,192.872 604,191.5C 601.105,190.937 598.105,190.937 595,191.5C 592.721,189.837 590.387,188.17 588,186.5C 585.272,186.772 582.606,186.772 580,186.5C 576.853,185.187 574.353,183.853 572.5,182.5C 571.833,182.667 571.167,182.833 570.5,183C 571.696,183.654 571.696,184.154 570.5,184.5C 568.785,182.29 566.619,180.624 564,179.5C 563.667,180.167 563.333,180.833 563,181.5C 560.613,179.878 558.279,178.211 556,176.5C 554.451,179.003 552.784,179.003 551,176.5C 550.504,178.035 550.67,179.535 551.5,181C 549.093,183.092 549.093,185.092 551.5,187C 550.833,187.667 550.167,188.333 549.5,189C 550.227,191.124 550.894,193.291 551.5,195.5C 550.359,196.425 550.359,197.259 551.5,198C 549.009,198.626 549.009,199.459 551.5,200.5C 550.553,202.059 549.887,203.726 549.5,205.5C 550.395,214.894 550.728,224.228 550.5,233.5C 549.829,235.835 548.829,238.002 547.5,240C 548.428,240.388 549.095,241.055 549.5,242C 548.167,245 548.167,248 549.5,251C 548.127,257.278 546.461,263.445 544.5,269.5C 544.833,270.167 545.167,270.833 545.5,271.5C 542.899,279.239 542.232,287.072 543.5,295C 541.468,297.299 540.801,299.799 541.5,302.5C 540.975,303.192 540.308,303.692 539.5,304C 540.406,305.699 540.739,307.533 540.5,309.5C 538.857,309.48 537.524,310.147 536.5,311.5C 534.833,310.167 533.167,310.167 531.5,311.5C 529.866,311.032 528.7,310.032 528,308.5C 527.586,308.957 527.086,309.291 526.5,309.5C 525.97,307.268 525.637,305.102 525.5,303C 526.797,292.269 528.464,281.603 530.5,271C 530.056,269.467 529.723,267.967 529.5,266.5C 530.986,261.953 531.986,257.286 532.5,252.5C 532.818,251.353 533.484,250.519 534.5,250C 533.643,249.311 532.977,248.478 532.5,247.5C 532.958,243.162 533.958,238.996 535.5,235C 535.019,210.414 535.019,187.247 535.5,165.5C 537.523,163.147 539.523,160.814 541.5,158.5 Z"/></g>
<g><path style="opacity:0.857" fill="#000000" d="M 65.5,224.5 C 65.56,225.043 65.8933,225.376 66.5,225.5C 67.982,223.517 69.6487,221.684 71.5,220C 71.1667,219.667 70.8333,219.333 70.5,219C 72.0488,217.786 73.2155,216.286 74,214.5C 75,215.833 76,215.833 77,214.5C 77.3333,213.167 77.6667,211.833 78,210.5C 78.3333,211.167 78.6667,211.833 79,212.5C 82.7161,207.16 86.3828,201.827 90,196.5C 90.7412,197.641 91.5745,197.641 92.5,196.5C 94.1712,193.508 96.1712,190.841 98.5,188.5C 99.552,188.649 100.552,188.483 101.5,188C 100.366,186.984 100.699,186.317 102.5,186C 102.167,185.667 101.833,185.333 101.5,185C 102.701,184.097 103.535,182.931 104,181.5C 104.333,181.833 104.667,182.167 105,182.5C 106.946,179.031 109.779,176.864 113.5,176C 113.167,175.667 112.833,175.333 112.5,175C 115.326,172.016 118.492,169.516 122,167.5C 122.667,168.167 123.333,168.833 124,169.5C 126.194,166.983 128.194,167.316 130,170.5C 130.617,171.449 130.451,172.282 129.5,173C 130.167,173.333 130.833,173.667 131.5,174C 130.189,177.64 127.855,180.306 124.5,182C 121.29,186.854 116.79,191.021 111,194.5C 108.549,199.58 105.049,203.747 100.5,207C 98.2533,210.736 95.0867,214.236 91,217.5C 86.5658,223.047 81.8991,228.38 77,233.5C 76.6667,233.167 76.3333,232.833 76,232.5C 73.9165,237.419 70.4165,240.752 65.5,242.5C 61.8333,248.167 57.1667,252.833 51.5,256.5C 51.2093,260.309 49.376,261.976 46,261.5C 44.4708,262.729 43.3041,264.229 42.5,266C 41.5509,266.617 40.7175,266.451 40,265.5C 39.3333,266.167 38.6667,266.833 38,267.5C 35.6474,264.398 32.9807,262.398 30,261.5C 29.1531,258.51 30.3198,257.176 33.5,257.5C 33.281,256.325 33.6143,255.325 34.5,254.5C 40.4606,250.704 45.2939,245.704 49,239.5C 50.4222,239.406 51.9222,239.072 53.5,238.5C 57.5309,233.71 61.5309,229.043 65.5,224.5 Z"/></g>
<g><path style="opacity:0.802" fill="#000000" d="M 211.5,273.5 C 210.923,272.227 210.257,272.227 209.5,273.5C 208.914,276.349 207.58,278.682 205.5,280.5C 205.167,279.167 204.833,279.167 204.5,280.5C 203.226,281.189 203.226,282.023 204.5,283C 201.865,286.286 199.532,289.786 197.5,293.5C 196.624,294.251 195.624,294.751 194.5,295C 195.821,296.545 195.488,297.711 193.5,298.5C 193.089,297.738 192.923,296.738 193,295.5C 190.838,295.94 188.671,296.273 186.5,296.5C 185.594,294.614 184.594,292.78 183.5,291C 186.15,287.793 185.984,287.293 183,289.5C 182.833,289 182.667,288.5 182.5,288C 185.637,282.598 189.137,277.431 193,272.5C 193.333,271.167 193.667,269.833 194,268.5C 194.423,269.956 195.256,270.456 196.5,270C 196.043,269.586 195.709,269.086 195.5,268.5C 197.094,265.939 199.094,263.772 201.5,262C 201.167,261.667 200.833,261.333 200.5,261C 201.973,260.29 202.64,259.124 202.5,257.5C 205.361,257.487 206.361,256.321 205.5,254C 208.491,251.01 210.657,247.51 212,243.5C 213.351,241.981 214.851,240.648 216.5,239.5C 215.697,236.946 216.697,235.112 219.5,234C 219.167,233.667 218.833,233.333 218.5,233C 221.164,230.331 222.998,227.164 224,223.5C 225.067,222.809 226.234,222.309 227.5,222C 226.572,221.612 225.905,220.945 225.5,220C 226.593,216.373 228.593,213.373 231.5,211C 230.833,210.667 230.167,210.333 229.5,210C 231.155,207.347 233.155,205.014 235.5,203C 235.043,202.586 234.709,202.086 234.5,201.5C 236.737,199.638 237.403,197.471 236.5,195C 238.91,192.468 241.91,190.968 245.5,190.5C 244.312,189.16 242.812,188.493 241,188.5C 238.611,188.963 236.277,189.63 234,190.5C 232.416,190.012 231.249,189.012 230.5,187.5C 230.331,188.397 229.998,189.397 229.5,190.5C 228.808,189.975 228.308,189.308 228,188.5C 227,189.833 226,189.833 225,188.5C 224.333,189.167 223.667,189.833 223,190.5C 220.534,190.506 217.868,190.173 215,189.5C 213.342,189.675 212.009,190.342 211,191.5C 208.943,190.315 206.943,189.315 205,188.5C 201.914,188.932 198.748,189.265 195.5,189.5C 193.608,186.956 191.775,186.956 190,189.5C 189.707,186.046 188.374,185.712 186,188.5C 184.415,187.624 183.415,186.291 183,184.5C 181.796,185.471 181.296,186.471 181.5,187.5C 179.118,187.117 176.618,187.117 174,187.5C 171.923,186.983 169.923,186.316 168,185.5C 166.093,185.421 164.093,185.754 162,186.5C 161.311,185.643 160.478,184.977 159.5,184.5C 155.386,186.387 151.553,185.72 148,182.5C 145.525,184.752 142.859,184.752 140,182.5C 139.086,183.654 138.253,183.487 137.5,182C 138.26,180.559 138.926,179.059 139.5,177.5C 137.861,176.084 137.027,174.417 137,172.5C 139.804,171.431 142.471,170.098 145,168.5C 145.833,168.667 146.667,168.833 147.5,169C 146.304,169.654 146.304,170.154 147.5,170.5C 148.167,169.833 148.833,169.167 149.5,168.5C 150.425,169.641 151.259,169.641 152,168.5C 161.658,169.47 171.158,171.137 180.5,173.5C 182.76,171.64 185.26,171.64 188,173.5C 193.07,172.453 198.07,172.787 203,174.5C 204.649,173.102 205.982,173.436 207,175.5C 210.542,174.682 214.376,174.515 218.5,175C 219,175.5 219.5,176 220,176.5C 220.839,175.376 222.006,174.709 223.5,174.5C 228.217,175.503 232.883,175.17 237.5,173.5C 241.779,174.274 246.113,174.774 250.5,175C 251.333,175.833 252.167,176.667 253,177.5C 253.689,176.643 254.522,175.977 255.5,175.5C 256.202,177.699 257.202,180.199 258.5,183C 257.387,184.394 256.053,185.561 254.5,186.5C 253.359,187.425 253.359,188.259 254.5,189C 253.552,189.483 252.552,189.649 251.5,189.5C 249.774,193.596 250.44,197.263 253.5,200.5C 251.489,203.01 249.322,205.343 247,207.5C 246.28,209.112 246.446,210.612 247.5,212C 244.844,213.003 243.844,214.67 244.5,217C 243.809,218.067 243.309,219.234 243,220.5C 240.678,224.502 238.178,228.335 235.5,232C 235.833,232.333 236.167,232.667 236.5,233C 235.197,236.028 233.53,238.861 231.5,241.5C 231.709,242.086 232.043,242.586 232.5,243C 230.754,243.471 229.087,244.138 227.5,245C 228.576,246.726 228.743,248.559 228,250.5C 227.333,249.833 226.667,249.167 226,248.5C 225.509,252.827 223.509,256.16 220,258.5C 218.112,264.176 215.279,269.176 211.5,273.5 Z M 176.5,172.5 C 177.773,173.077 177.773,173.743 176.5,174.5C 175.537,174.03 175.537,173.363 176.5,172.5 Z M 196.5,175.5 C 197.077,174.227 197.743,174.227 198.5,175.5C 198.03,176.463 197.363,176.463 196.5,175.5 Z M 185.5,285.5 C 186.077,284.227 186.743,284.227 187.5,285.5C 187.03,286.463 186.363,286.463 185.5,285.5 Z"/></g>
<g><path style="opacity:0.027" fill="#000000" d="M 727.5,180.5 C 727.833,180.5 728.167,180.5 728.5,180.5C 728.315,181.17 727.981,181.17 727.5,180.5 Z"/></g>
<g><path style="opacity:0.353" fill="#000000" d="M 98.5,188.5 C 97.8333,187.167 97.8333,187.167 98.5,188.5 Z"/></g>
<g><path style="opacity:0.842" fill="#000000" d="M 141.5,237.5 C 144.205,238.777 146.872,238.61 149.5,237C 152.854,234.968 156.187,232.968 159.5,231C 159.167,230.667 158.833,230.333 158.5,230C 159.448,229.517 160.448,229.351 161.5,229.5C 161.176,226.306 162.342,225.306 165,226.5C 166.617,225.464 166.784,224.297 165.5,223C 166.5,222.667 167.5,222.333 168.5,222C 168.041,220.057 169.041,218.724 171.5,218C 169.408,216.009 169.742,214.009 172.5,212C 172.043,211.586 171.709,211.086 171.5,210.5C 173.38,206.64 176.046,205.14 179.5,206C 179.167,206.333 178.833,206.667 178.5,207C 180.061,207.318 181.228,208.151 182,209.5C 182.333,208.5 182.667,207.5 183,206.5C 184.193,209.776 184.36,212.943 183.5,216C 184.167,216.333 184.833,216.667 185.5,217C 180.495,226.016 174.661,234.516 168,242.5C 167.667,242.167 167.333,241.833 167,241.5C 162.542,245.3 158.042,248.966 153.5,252.5C 151.722,252.431 149.889,252.097 148,251.5C 146.914,253.847 145.581,253.847 144,251.5C 142.238,251.944 142.405,252.444 144.5,253C 144,253.5 143.5,254 143,254.5C 141.267,252.398 139.267,252.065 137,253.5C 135.592,248.61 134.425,248.277 133.5,252.5C 129.44,250.634 125.94,247.967 123,244.5C 122.667,244.833 122.333,245.167 122,245.5C 120.048,238.403 118.882,231.903 118.5,226C 120.223,225.225 121.223,223.892 121.5,222C 121.906,220.031 121.906,217.865 121.5,215.5C 122.262,215.089 123.262,214.923 124.5,215C 123.483,213.951 123.316,212.784 124,211.5C 126.139,207.769 128.639,204.269 131.5,201C 130.944,200.617 130.611,200.117 130.5,199.5C 131.496,199.414 132.329,199.748 133,200.5C 133.617,199.551 133.451,198.718 132.5,198C 134.859,197.792 137.026,197.626 139,197.5C 141.364,199.059 142.864,201.225 143.5,204C 138.459,211.752 134.459,220.085 131.5,229C 132.833,230.333 132.833,231.667 131.5,233C 133.541,237.726 136.874,239.226 141.5,237.5 Z"/></g>
<g><path style="opacity:0.075" fill="#000000" d="M 130.5,199.5 C 129.833,198.167 129.833,198.167 130.5,199.5 Z"/></g>
<g><path style="opacity:0.14" fill="#000000" d="M 186.5,201.5 C 183.623,199.154 183.956,198.321 187.5,199C 186.748,199.671 186.414,200.504 186.5,201.5 Z"/></g>
<g><path style="opacity:0.008" fill="#000000" d="M 192.5,199.5 C 193.833,200.167 193.833,200.167 192.5,199.5 Z"/></g>
<g><path style="opacity:0.16" fill="#000000" d="M 186.5,201.5 C 187.496,201.586 188.329,201.252 189,200.5C 191.198,202.854 192.364,205.354 192.5,208C 191.551,208.617 190.718,208.451 190,207.5C 189.074,205.308 187.907,203.308 186.5,201.5 Z"/></g>
<g><path style="opacity:0.053" fill="#000000" d="M 193.5,202.5 C 194.793,201.355 195.959,201.689 197,203.5C 197.667,204.5 197.667,205.5 197,206.5C 196.34,204.676 195.173,203.343 193.5,202.5 Z"/></g>
<g><path style="opacity:0.225" fill="#000000" d="M 171.5,205.5 C 172.525,205.897 172.692,206.563 172,207.5C 171.536,206.906 171.369,206.239 171.5,205.5 Z"/></g>
<g><path style="opacity:0.012" fill="#000000" d="M 197.5,207.5 C 198.525,207.897 198.692,208.563 198,209.5C 197.536,208.906 197.369,208.239 197.5,207.5 Z"/></g>
<g><path style="opacity:0.684" fill="#000000" d="M 568.5,208.5 C 571.531,208.803 574.531,208.803 577.5,208.5C 579.595,210.589 581.428,210.589 583,208.5C 585.471,211.734 588.304,211.734 591.5,208.5C 592.333,209.5 593.167,210.5 594,211.5C 594.333,211.167 594.667,210.833 595,210.5C 593.792,213.995 594.625,216.995 597.5,219.5C 595.324,221.177 593.324,223.011 591.5,225C 588.653,225.944 586.153,225.444 584,223.5C 577.412,224.367 570.912,224.534 564.5,224C 562.128,222.156 559.794,220.322 557.5,218.5C 559.385,217.803 559.718,216.803 558.5,215.5C 561.342,214.996 562.675,213.329 562.5,210.5C 564.898,210.741 566.898,210.074 568.5,208.5 Z"/></g>
<g><path style="opacity:0.844" fill="#000000" d="M 256.5,316.5 C 256.103,315.475 255.437,315.308 254.5,316C 253.226,316.977 253.226,317.811 254.5,318.5C 252.59,320.562 250.257,322.062 247.5,323C 249.513,323.875 249.513,325.209 247.5,327C 246.062,327.219 244.729,327.719 243.5,328.5C 244.666,331.184 243.833,333.184 241,334.5C 240.612,333.572 239.945,332.905 239,332.5C 237.128,333.068 235.295,333.735 233.5,334.5C 229.266,330.386 228.933,325.719 232.5,320.5C 234.215,318.29 236.381,316.624 239,315.5C 242.091,310.986 245.425,306.653 249,302.5C 249.483,301.552 249.649,300.552 249.5,299.5C 250.5,299.5 251.5,299.5 252.5,299.5C 253.172,296.65 254.839,294.483 257.5,293C 257.167,292.667 256.833,292.333 256.5,292C 262.317,288.286 266.983,282.786 270.5,275.5C 274.386,274.412 274.386,273.579 270.5,273C 271.167,272.667 271.833,272.333 272.5,272C 271.313,270.981 270.313,269.814 269.5,268.5C 271.045,265.803 270.379,263.803 267.5,262.5C 267.977,261.522 268.643,260.689 269.5,260C 265.245,255.838 263.079,250.671 263,244.5C 262.031,242.266 260.698,240.266 259,238.5C 258.788,236.22 257.955,234.22 256.5,232.5C 256.709,231.914 257.043,231.414 257.5,231C 255.006,229.054 254.339,226.721 255.5,224C 254.833,222.333 254.167,220.667 253.5,219C 254.167,218.333 254.833,217.667 255.5,217C 254.446,215.612 254.28,214.112 255,212.5C 255.333,213.5 255.667,214.5 256,215.5C 257.074,214.382 258.24,213.382 259.5,212.5C 258.494,211.604 258.494,210.938 259.5,210.5C 261.146,211.779 262.313,213.445 263,215.5C 263.333,215.167 263.667,214.833 264,214.5C 271.229,234.186 278.229,253.519 285,272.5C 285.465,273.931 286.299,275.097 287.5,276C 286.788,277.425 286.621,278.925 287,280.5C 286.667,280.167 286.333,279.833 286,279.5C 285.667,280.5 285.333,281.5 285,282.5C 283.927,281.72 282.76,281.887 281.5,283C 282.183,285.983 280.849,287.983 277.5,289C 278.956,289.423 279.456,290.256 279,291.5C 278.107,290.289 277.274,290.289 276.5,291.5C 273.42,295.975 270.087,300.308 266.5,304.5C 265.914,304.291 265.414,303.957 265,303.5C 263.057,307.608 260.224,310.942 256.5,313.5C 257.653,314.687 257.653,315.687 256.5,316.5 Z"/></g>
<g><path style="opacity:0.353" fill="#000000" d="M 65.5,223.5 C 66.8333,224.167 66.8333,224.167 65.5,223.5 Z"/></g>
<g><path style="opacity:0.339" fill="#000000" d="M 141.5,237.5 C 140.761,237.631 140.094,237.464 139.5,237C 140.437,236.308 141.103,236.475 141.5,237.5 Z"/></g>
<g><path style="opacity:0.149" fill="#000000" d="M 51.5,237.5 C 52.8333,238.167 52.8333,238.167 51.5,237.5 Z"/></g>
<g><path style="opacity:0.68" fill="#000000" d="M 585.5,240.5 C 587.67,241.768 589.837,241.768 592,240.5C 594.168,241.629 594.668,243.129 593.5,245C 594.218,246.987 595.218,248.821 596.5,250.5C 594.914,252.173 594.247,254.173 594.5,256.5C 587.792,255.164 581.459,255.831 575.5,258.5C 571.464,257.852 567.297,257.852 563,258.5C 560.501,256.843 558.001,255.176 555.5,253.5C 555.167,252.833 554.833,252.167 554.5,251.5C 555.853,250.476 556.52,249.143 556.5,247.5C 558.912,245.039 562.078,243.373 566,242.5C 568.885,243.946 571.551,243.613 574,241.5C 575.402,243.973 576.902,243.973 578.5,241.5C 579.967,241.723 581.467,242.056 583,242.5C 583.995,241.934 584.828,241.267 585.5,240.5 Z"/></g>
<g><path style="opacity:0.671" fill="#000000" d="M 631.5,251.5 C 632.117,249.679 632.284,247.679 632,245.5C 634.563,244.741 637.063,243.741 639.5,242.5C 643.321,244.406 646.987,247.239 650.5,251C 651.9,252.438 653.567,253.271 655.5,253.5C 656.409,256.789 657.409,260.122 658.5,263.5C 654.158,264.585 650.158,265.585 646.5,266.5C 645.416,265.335 644.583,264.002 644,262.5C 643.586,262.957 643.086,263.291 642.5,263.5C 640.214,259.689 636.881,257.356 632.5,256.5C 631.833,255.833 631.167,255.167 630.5,254.5C 631.127,253.583 631.461,252.583 631.5,251.5 Z"/></g>
<g><path style="opacity:0.008" fill="#000000" d="M 631.5,251.5 C 630.833,250.167 630.833,250.167 631.5,251.5 Z"/></g>
<g><path style="opacity:0.008" fill="#000000" d="M 169.5,258.5 C 170.833,259.167 170.833,259.167 169.5,258.5 Z"/></g>
<g><path style="opacity:0.129" fill="#000000" d="M 170.5,260.5 C 171.833,261.167 171.833,261.167 170.5,260.5 Z"/></g>
<g><path style="opacity:0.804" fill="#000000" d="M 94.5,267.5 C 101.428,267.094 108.261,267.094 115,267.5C 116.333,268.167 117.333,269.167 118,270.5C 118.689,269.643 119.522,268.977 120.5,268.5C 122.737,268.694 124.903,268.694 127,268.5C 127.308,269.308 127.808,269.975 128.5,270.5C 129.72,269.289 130.887,269.289 132,270.5C 132.915,269.672 133.581,268.672 134,267.5C 135.507,269.008 137.173,270.341 139,271.5C 139.999,267.763 141.332,267.763 143,271.5C 143.308,270.692 143.808,270.025 144.5,269.5C 145.77,270.562 146.937,271.562 148,272.5C 154.006,271.168 159.672,271.168 165,272.5C 166.205,273.071 167.372,273.738 168.5,274.5C 168.64,275.903 168.64,277.403 168.5,279C 173.206,278.774 174.039,279.941 171,282.5C 170.667,283.833 170.333,285.167 170,286.5C 169.667,286.167 169.333,285.833 169,285.5C 164.81,288.936 160.31,289.269 155.5,286.5C 153.602,287.734 151.935,287.401 150.5,285.5C 148.518,286.623 146.518,286.623 144.5,285.5C 144.167,284.167 143.833,284.167 143.5,285.5C 142.348,284.375 141.348,284.375 140.5,285.5C 138.983,285.489 137.816,284.823 137,283.5C 133.45,283.572 129.95,283.905 126.5,284.5C 122.966,283.869 119.466,283.202 116,282.5C 113.58,283.488 111.247,283.155 109,281.5C 102.6,281.695 96.433,282.029 90.5,282.5C 89.4826,279.972 88.3159,279.972 87,282.5C 82.2966,282.199 77.63,280.866 73,278.5C 70.1831,278.923 67.3498,279.256 64.5,279.5C 60.3825,279.183 56.5492,278.183 53,276.5C 51.5124,278.82 49.6791,278.987 47.5,277C 48.3402,275.334 47.8402,275.167 46,276.5C 45.1667,275 44,273.833 42.5,273C 44.9913,272.374 44.9913,271.541 42.5,270.5C 43.5312,269.3 44.3645,267.966 45,266.5C 47.3909,267.602 47.8909,266.936 46.5,264.5C 47.2739,263.289 48.1072,263.289 49,264.5C 49.9336,261.035 51.4336,260.702 53.5,263.5C 59.1696,264.001 64.6696,264.001 70,263.5C 72.0105,267.002 73.3439,267.002 74,263.5C 77.4621,263.983 77.9621,265.15 75.5,267C 76.9961,267.507 78.1627,267.007 79,265.5C 80.851,267.781 82.5177,267.781 84,265.5C 84.9147,266.328 85.5814,267.328 86,268.5C 87.3799,265.942 88.8799,265.942 90.5,268.5C 91.9049,268.24 93.2382,267.907 94.5,267.5 Z"/></g>
<g><path style="opacity:0.04" fill="#000000" d="M 651.5,265.5 C 653.337,265.639 653.67,266.306 652.5,267.5C 651.702,267.043 651.369,266.376 651.5,265.5 Z"/></g>
<g><path style="opacity:0.333" fill="#000000" d="M 94.5,267.5 C 93.8333,266.167 93.8333,266.167 94.5,267.5 Z"/></g>
<g><path style="opacity:0.681" fill="#000000" d="M 566.5,268.5 C 568.936,268.317 571.103,268.984 573,270.5C 576.41,270.717 579.91,270.384 583.5,269.5C 583.67,270.822 583.337,271.989 582.5,273C 584.807,273.354 585.141,274.354 583.5,276C 584.022,276.95 584.689,277.784 585.5,278.5C 582.161,280.509 578.828,282.509 575.5,284.5C 572.833,283.167 570.167,283.167 567.5,284.5C 566.252,283.96 565.085,283.293 564,282.5C 561.918,285.15 560.251,284.816 559,281.5C 558.311,282.357 557.478,283.023 556.5,283.5C 555.948,281.997 555.948,280.331 556.5,278.5C 552.865,278.344 552.532,277.178 555.5,275C 555.043,274.586 554.709,274.086 554.5,273.5C 556.567,272.866 558.4,271.866 560,270.5C 561.016,271.634 561.683,271.301 562,269.5C 564.045,271.043 565.545,270.71 566.5,268.5 Z"/></g>
<g><path style="opacity:0.67" fill="#000000" d="M 631.5,268.5 C 633.6,268.477 635.433,269.144 637,270.5C 637.873,270.265 638.707,269.931 639.5,269.5C 643.576,273.245 646.909,277.579 649.5,282.5C 648.098,283.842 648.431,284.676 650.5,285C 649.929,287.611 649.096,290.111 648,292.5C 645.534,292.434 643.034,292.434 640.5,292.5C 636.966,290.056 634.633,287.222 633.5,284C 632.552,283.517 631.552,283.351 630.5,283.5C 629.4,280.213 627.733,277.213 625.5,274.5C 626.689,273.571 628.022,273.238 629.5,273.5C 629.392,271.486 630.058,269.82 631.5,268.5 Z"/></g>
<g><path style="opacity:0.757" fill="#000000" d="M 880.5,269.5 C 881.79,270.058 882.623,271.058 883,272.5C 885.19,269.751 886.857,270.085 888,273.5C 890.504,271.353 892.838,271.353 895,273.5C 897.23,269.622 899.397,269.622 901.5,273.5C 902.446,273.013 903.446,272.68 904.5,272.5C 907.253,273.269 910.086,274.603 913,276.5C 913.333,275.833 913.667,275.167 914,274.5C 915.853,277.138 918.353,278.138 921.5,277.5C 921.694,279.263 921.694,281.097 921.5,283C 922.833,284.637 924.166,285.471 925.5,285.5C 924.619,286.971 923.286,287.804 921.5,288C 922.517,289.049 922.684,290.216 922,291.5C 920.111,292.097 918.278,292.431 916.5,292.5C 915.167,291.5 913.833,290.5 912.5,289.5C 911.5,290.167 910.5,290.833 909.5,291.5C 908.638,288.58 906.972,287.58 904.5,288.5C 903.522,288.023 902.689,287.357 902,286.5C 901.275,287.059 900.442,287.392 899.5,287.5C 891.615,286.88 883.782,286.214 876,285.5C 871.517,286.83 867.35,288.83 863.5,291.5C 861.065,289.721 860.065,290.387 860.5,293.5C 858.897,293.312 857.563,293.812 856.5,295C 857.167,295.333 857.833,295.667 858.5,296C 857.257,297.154 856.257,298.488 855.5,300C 854.551,300.617 853.718,300.451 853,299.5C 852.358,301.762 851.525,303.929 850.5,306C 851.552,307.716 850.886,308.716 848.5,309C 848.215,312.434 848.715,315.934 850,319.5C 850.333,319.167 850.667,318.833 851,318.5C 851.923,319.759 852.757,321.092 853.5,322.5C 854.72,321.289 855.887,321.289 857,322.5C 857.689,321.643 858.522,320.977 859.5,320.5C 859.833,321.833 860.167,323.167 860.5,324.5C 862.588,322.608 864.921,321.108 867.5,320C 869.394,318.921 869.727,317.587 868.5,316C 871.028,315.331 871.028,314.498 868.5,313.5C 866.405,314.229 864.572,313.563 863,311.5C 862.439,312.022 861.772,312.355 861,312.5C 859.7,311.293 858.2,310.626 856.5,310.5C 854.594,307.052 855.261,304.219 858.5,302C 858.043,301.586 857.709,301.086 857.5,300.5C 860.358,298.119 863.692,297.285 867.5,298C 869.49,300.384 871.824,301.217 874.5,300.5C 876.361,301.528 877.695,303.028 878.5,305C 879.448,305.483 880.448,305.649 881.5,305.5C 882.922,311.876 882.755,318.209 881,324.5C 877.001,326.824 874.168,330.157 872.5,334.5C 871.188,333.54 869.854,333.706 868.5,335C 868.833,335.333 869.167,335.667 869.5,336C 855.407,338.766 844.073,334.6 835.5,323.5C 836.025,322.808 836.692,322.308 837.5,322C 836.692,321.692 836.025,321.192 835.5,320.5C 836.048,315.887 836.215,311.22 836,306.5C 838.109,305.965 838.609,304.965 837.5,303.5C 838.025,302.808 838.692,302.308 839.5,302C 838.802,301.029 838.802,299.863 839.5,298.5C 841.123,295.045 842.957,291.712 845,288.5C 851.089,282.548 857.755,277.548 865,273.5C 869.039,272.666 873.372,272.666 878,273.5C 879.095,272.307 879.928,270.973 880.5,269.5 Z"/></g>
<g><path style="opacity:0.051" fill="#000000" d="M 211.5,273.5 C 210.833,274.167 210.833,274.167 211.5,273.5 Z"/></g>
<g><path style="opacity:0.047" fill="#000000" d="M 169.5,274.5 C 170.833,275.167 170.833,275.167 169.5,274.5 Z"/></g>
<g><path style="opacity:0.771" fill="#000000" d="M 769.5,274.5 C 770.721,275.028 771.887,275.695 773,276.5C 774.796,275.233 776.629,275.233 778.5,276.5C 779.748,275.96 780.915,275.293 782,274.5C 782.284,276.886 783.284,277.552 785,276.5C 786.086,278.847 787.419,278.847 789,276.5C 789.945,276.905 790.612,277.572 791,278.5C 791.308,277.692 791.808,277.025 792.5,276.5C 793.333,277.5 794.167,278.5 795,279.5C 796.333,278.167 797.667,278.167 799,279.5C 799.333,278.833 799.667,278.167 800,277.5C 801.717,278.455 803.384,279.455 805,280.5C 807.015,280.967 809.182,280.967 811.5,280.5C 814.676,284.035 815.343,288.035 813.5,292.5C 809.036,292.942 804.869,293.275 801,293.5C 799.285,291.093 797.118,290.426 794.5,291.5C 791.911,289.843 789.244,289.509 786.5,290.5C 783.961,289.885 781.461,289.218 779,288.5C 776,289.833 773,289.833 770,288.5C 768.209,290.513 766.875,290.513 766,288.5C 764.173,290.462 762.173,291.129 760,290.5C 758.073,291.861 755.906,292.694 753.5,293C 754.517,294.049 754.684,295.216 754,296.5C 752.192,296.112 750.525,296.112 749,296.5C 747.493,297.505 746.327,298.838 745.5,300.5C 743.786,299.391 743.119,300.058 743.5,302.5C 741.857,302.48 740.524,303.147 739.5,304.5C 738.723,306.777 737.723,308.943 736.5,311C 738.013,312.879 738.679,315.046 738.5,317.5C 741.926,317.757 744.426,319.423 746,322.5C 748.557,321.354 749.89,322.354 750,325.5C 752.26,323.003 753.593,323.67 754,327.5C 756.312,326.869 758.812,326.869 761.5,327.5C 762.833,326.5 764.167,325.5 765.5,324.5C 766.086,324.709 766.586,325.043 767,325.5C 768.444,323.845 770.278,323.178 772.5,323.5C 772.146,321.459 772.146,319.626 772.5,318C 766.164,315.136 759.498,313.803 752.5,314C 746.123,310.97 746.123,308.303 752.5,306C 752.167,305.667 751.833,305.333 751.5,305C 754.706,303.316 758.039,301.816 761.5,300.5C 763.055,302.146 764.721,302.479 766.5,301.5C 767.167,302.167 767.833,302.833 768.5,303.5C 769.963,303.368 771.463,303.035 773,302.5C 774.722,302.611 774.888,303.111 773.5,304C 780.941,305.608 785.608,310.108 787.5,317.5C 786.529,318.962 786.862,320.295 788.5,321.5C 786.914,323.923 785.914,326.59 785.5,329.5C 784.088,330.806 782.421,331.64 780.5,332C 782.929,332.451 783.096,333.285 781,334.5C 779.951,333.483 778.784,333.316 777.5,334C 772.815,336.625 768.315,338.791 764,340.5C 762,339.167 760,339.167 758,340.5C 756.024,339.039 754.024,338.706 752,339.5C 750.018,339.01 748.351,338.01 747,336.5C 746.667,336.833 746.333,337.167 746,337.5C 742.58,335.754 739.413,333.587 736.5,331C 729.742,329.576 725.575,325.409 724,318.5C 723.692,319.308 723.192,319.975 722.5,320.5C 721.253,318.994 721.253,317.494 722.5,316C 721.692,315.692 721.025,315.192 720.5,314.5C 721.5,313.833 722.5,313.167 723.5,312.5C 723.013,311.554 722.68,310.554 722.5,309.5C 724.439,305.956 726.105,302.289 727.5,298.5C 728.5,298 729.5,297.5 730.5,297C 729.289,296.107 729.289,295.274 730.5,294.5C 731.086,294.709 731.586,295.043 732,295.5C 732.284,293.114 733.284,292.448 735,293.5C 735.309,292.234 735.809,291.067 736.5,290C 744.965,284.434 753.965,279.934 763.5,276.5C 765.129,277.423 766.629,277.757 768,277.5C 768.513,276.473 769.013,275.473 769.5,274.5 Z"/></g>
<g><path style="opacity:0.818" fill="#000000" d="M 42.5,276.5 C 44.4119,277.98 45.5785,279.98 46,282.5C 46.3173,280.699 46.984,280.366 48,281.5C 48.9285,285.244 48.4285,288.744 46.5,292C 48.2826,293.067 48.7826,294.567 48,296.5C 43.946,306.884 38.6127,316.55 32,325.5C 31.3162,326.784 31.4829,327.951 32.5,329C 31.1198,330.324 30.7865,331.657 31.5,333C 29.992,334.507 28.6587,336.173 27.5,338C 27.8333,338.333 28.1667,338.667 28.5,339C 26.2089,340.857 23.8756,342.023 21.5,342.5C 19.6698,342.224 18.0032,341.557 16.5,340.5C 17.8333,339.167 17.8333,337.833 16.5,336.5C 16.9815,330.869 18.6482,325.369 21.5,320C 21.1667,319.667 20.8333,319.333 20.5,319C 21.9675,317.902 22.8008,316.402 23,314.5C 23.9025,313.299 25.0692,312.465 26.5,312C 25.5494,311.282 25.3828,310.449 26,309.5C 31.3239,303.961 34.3239,297.295 35,289.5C 35.7504,288.874 36.5838,288.374 37.5,288C 37.0958,285.731 36.9291,283.231 37,280.5C 39.4632,279.968 41.2965,278.634 42.5,276.5 Z"/></g>
<g><path style="opacity:0.22" fill="#000000" d="M 204.5,280.5 C 204.833,280.5 205.167,280.5 205.5,280.5C 205.315,281.17 204.981,281.17 204.5,280.5 Z"/></g>
<g><path style="opacity:0.31" fill="#000000" d="M 140.5,285.5 C 141.833,286.167 141.833,286.167 140.5,285.5 Z"/></g>
<g><path style="opacity:0.176" fill="#000000" d="M 143.5,285.5 C 143.833,285.5 144.167,285.5 144.5,285.5C 144.315,286.17 143.981,286.17 143.5,285.5 Z"/></g>
<g><path style="opacity:0.378" fill="#000000" d="M 207.5,295.5 C 206.475,295.103 206.308,294.437 207,293.5C 207.464,294.094 207.631,294.761 207.5,295.5 Z"/></g>
<g><path style="opacity:0.145" fill="#000000" d="M 207.5,296.5 C 207.5,296.167 207.5,295.833 207.5,295.5C 208.363,294.537 209.03,294.537 209.5,295.5C 209.043,296.298 208.376,296.631 207.5,296.5 Z"/></g>
<g><path style="opacity:0.824" fill="#000000" d="M 207.5,296.5 C 208.446,297.931 209.612,299.264 211,300.5C 211.273,302.101 211.773,303.601 212.5,305C 212.043,305.414 211.709,305.914 211.5,306.5C 213.87,308.688 214.537,311.188 213.5,314C 214.502,315.672 215.668,316.838 217,317.5C 217.658,319.108 217.158,320.275 215.5,321C 217,321.833 218.167,323 219,324.5C 219.236,327.208 220.069,329.708 221.5,332C 221.265,332.873 220.931,333.707 220.5,334.5C 222.076,336.577 224.076,338.077 226.5,339C 224.861,342.098 223.527,345.264 222.5,348.5C 221.209,348.263 220.209,348.596 219.5,349.5C 218.167,349.833 218.167,350.167 219.5,350.5C 219.483,352.028 218.816,352.528 217.5,352C 210.344,346.187 206.51,338.687 206,329.5C 204.006,324.488 201.839,319.654 199.5,315C 199.5,312.667 199.5,310.333 199.5,308C 197.38,306.477 197.047,304.644 198.5,302.5C 196.603,301.332 196.436,299.665 198,297.5C 198.333,298.167 198.667,298.833 199,299.5C 200.067,298.809 201.234,298.309 202.5,298C 203.833,297.333 203.833,296.667 202.5,296C 204.197,295.616 205.863,295.782 207.5,296.5 Z"/></g>
<g><path style="opacity:0.631" fill="#000000" d="M 200.5,296.5 C 201.833,297.167 201.833,297.167 200.5,296.5 Z"/></g>
<g><path style="opacity:0.706" fill="#000000" d="M 628.5,298.5 C 630.132,299.446 631.799,300.446 633.5,301.5C 634.167,301.167 634.833,300.833 635.5,300.5C 637.04,302.387 638.707,304.22 640.5,306C 644.732,306.371 648.065,308.205 650.5,311.5C 649.385,312.598 649.385,313.765 650.5,315C 650.241,316.261 649.574,317.261 648.5,318C 648.833,318.333 649.167,318.667 649.5,319C 638.102,321.059 629.268,316.893 623,306.5C 622.51,305.207 622.343,303.873 622.5,302.5C 624.226,302.815 625.893,302.981 627.5,303C 627.214,301.612 627.548,300.112 628.5,298.5 Z"/></g>
<g><path style="opacity:0.267" fill="#000000" d="M 256.5,316.5 C 256.5,317.833 255.833,318.5 254.5,318.5C 254.833,317.5 255.5,316.833 256.5,316.5 Z"/></g>
<g><path style="opacity:0.4" fill="#000000" d="M 227.5,327.5 C 228.833,328.167 228.833,328.167 227.5,327.5 Z"/></g>
<g><path style="opacity:0.018" fill="#000000" d="M 547.5,327.5 C 549.465,327.948 549.798,328.948 548.5,330.5C 547.614,329.675 547.281,328.675 547.5,327.5 Z"/></g>
<g><path style="opacity:0.814" fill="#000000" d="M 115.5,342.5 C 118.113,343.636 120.613,343.302 123,341.5C 123.853,343.125 124.853,343.458 126,342.5C 127.11,344.037 128.61,344.703 130.5,344.5C 130.351,343.448 130.517,342.448 131,341.5C 133.058,342.109 133.891,343.109 133.5,344.5C 134.518,343.807 135.518,343.141 136.5,342.5C 136.783,343.289 137.283,343.956 138,344.5C 140.333,344.5 142.667,344.5 145,344.5C 145.804,343.196 146.971,342.529 148.5,342.5C 154.937,343.624 161.437,343.624 168,342.5C 169.943,344.715 171.609,344.715 173,342.5C 174.729,344.434 176.729,344.434 179,342.5C 180.085,343.293 181.252,343.96 182.5,344.5C 184.804,344.691 187.138,344.357 189.5,343.5C 189.351,344.552 189.517,345.552 190,346.5C 191.5,343.108 193.333,342.441 195.5,344.5C 194.68,348.158 196.013,350.491 199.5,351.5C 195.673,358.489 190.173,360.489 183,357.5C 181.846,359.957 180.512,359.957 179,357.5C 178.667,358.167 178.333,358.833 178,359.5C 175.667,358.167 173.333,358.167 171,359.5C 170.333,358.833 169.667,358.167 169,357.5C 159.153,357.344 149.153,357.678 139,358.5C 137.667,357.833 136.333,357.167 135,356.5C 122.055,357.828 109.889,358.495 98.5,358.5C 98.7036,357.471 98.2036,356.471 97,355.5C 96.0197,356.981 94.853,358.315 93.5,359.5C 89.5879,359.366 85.7546,359.032 82,358.5C 81.3333,359.167 80.6667,359.833 80,360.5C 79,359.167 78,359.167 77,360.5C 75.54,358.578 73.8733,357.911 72,358.5C 70.9148,359.293 69.7481,359.96 68.5,360.5C 66.2753,359.899 64.1086,359.566 62,359.5C 58.9932,361.491 55.8265,361.491 52.5,359.5C 49.985,360.577 47.485,361.577 45,362.5C 44,361.833 43,361.167 42,360.5C 40.077,361.316 38.077,361.983 36,362.5C 25.9637,361.939 15.7971,361.939 5.5,362.5C 4.90405,361.284 4.73739,359.951 5,358.5C 2.60908,359.602 2.10908,358.936 3.5,356.5C 2.5,355.667 1.5,354.833 0.5,354C 2.72897,352.515 5.0623,351.182 7.5,350C 6.16667,349.333 6.16667,348.667 7.5,348C 9.13414,347.506 10.8008,347.34 12.5,347.5C 12.4592,351.243 13.1259,351.41 14.5,348C 16.6982,347.627 18.8649,347.127 21,346.5C 21.9454,346.905 22.6121,347.572 23,348.5C 23.6891,347.643 24.5224,346.977 25.5,346.5C 26.5984,347.615 27.7651,347.615 29,346.5C 31.075,348.623 33.075,348.29 35,345.5C 35.8333,346.5 36.6667,347.5 37.5,348.5C 37.4895,347.559 37.9895,346.892 39,346.5C 43.0358,347.299 46.8692,346.633 50.5,344.5C 53.7427,345.015 56.5761,346.348 59,348.5C 60,347.5 61,346.5 62,345.5C 62.3333,346.167 62.6667,346.833 63,347.5C 63.5954,343.918 64.9288,343.584 67,346.5C 68.2419,345.128 69.7419,344.128 71.5,343.5C 74.6492,346.106 77.8158,346.106 81,343.5C 82.2613,343.759 83.2613,344.426 84,345.5C 84.6667,342.833 85.3333,342.833 86,345.5C 86.9147,344.672 87.5814,343.672 88,342.5C 90.1969,344.731 92.5302,344.731 95,342.5C 96.3333,343.167 97.3333,344.167 98,345.5C 100.04,341.554 102.04,341.554 104,345.5C 104.417,344.244 105.25,343.577 106.5,343.5C 106.369,344.239 106.536,344.906 107,345.5C 108.706,344.692 109.539,343.359 109.5,341.5C 111.484,341.383 113.15,342.05 114.5,343.5C 115.107,343.376 115.44,343.043 115.5,342.5 Z"/></g>
<g><path style="opacity:0.4" fill="#000000" d="M 115.5,342.5 C 114.833,341.167 114.833,341.167 115.5,342.5 Z"/></g>
<g><path style="opacity:0.051" fill="#000000" d="M 136.5,341.5 C 137.833,342.167 137.833,342.167 136.5,341.5 Z"/></g>
<g><path style="opacity:0.212" fill="#000000" d="M 106.5,342.5 C 107.833,343.167 107.833,343.167 106.5,342.5 Z"/></g>
<g><path style="opacity:0.263" fill="#000000" d="M 128.5,342.5 C 129.833,343.167 129.833,343.167 128.5,342.5 Z"/></g>
<g><path style="opacity:0.233" fill="#000000" d="M 195.5,344.5 C 195.897,343.475 196.563,343.308 197.5,344C 196.906,344.464 196.239,344.631 195.5,344.5 Z"/></g>
<g><path style="opacity:0.762" fill="#000000" d="M 702.5,394.5 C 705.248,393.065 706.914,390.732 707.5,387.5C 709.665,385.296 712.332,383.962 715.5,383.5C 724.012,384.515 730.179,388.848 734,396.5C 734.617,397.449 734.451,398.282 733.5,399C 737.3,404.694 736.966,410.361 732.5,416C 732.833,416.333 733.167,416.667 733.5,417C 731.639,420.401 729.305,423.401 726.5,426C 726.833,426.333 727.167,426.667 727.5,427C 725.974,428.887 723.974,429.887 721.5,430C 722.727,431.587 722.394,432.921 720.5,434C 719.167,434.333 717.833,434.667 716.5,435C 714.53,437.316 712.196,439.149 709.5,440.5C 707.94,441.607 706.44,441.607 705,440.5C 703.97,440.836 703.47,441.503 703.5,442.5C 701.833,442.5 700.167,442.5 698.5,442.5C 698.167,441.167 697.833,441.167 697.5,442.5C 696.833,442.5 696.167,442.5 695.5,442.5C 695.167,441.167 694.833,441.167 694.5,442.5C 693.833,442.5 693.167,442.5 692.5,442.5C 690.558,440.609 688.725,438.609 687,436.5C 686.465,438.271 685.631,438.604 684.5,437.5C 684.709,436.914 685.043,436.414 685.5,436C 683.61,434.109 682.11,431.942 681,429.5C 680.772,425.134 679.939,420.967 678.5,417C 678.811,413.466 678.811,409.966 678.5,406.5C 678.818,405.353 679.484,404.519 680.5,404C 679.572,403.612 678.905,402.945 678.5,402C 678.229,398.562 678.562,395.062 679.5,391.5C 683.311,391.404 683.311,390.738 679.5,389.5C 680.242,387.65 681.242,386.984 682.5,387.5C 681.833,386.833 681.167,386.167 680.5,385.5C 682.98,384.585 683.647,383.085 682.5,381C 683.167,380.667 683.833,380.333 684.5,380C 683.275,377.371 683.608,374.871 685.5,372.5C 686.086,372.709 686.586,373.043 687,373.5C 687.465,372.069 688.299,370.903 689.5,370C 689.043,369.586 688.709,369.086 688.5,368.5C 690.076,366.423 692.076,364.923 694.5,364C 694.167,363.667 693.833,363.333 693.5,363C 697.173,359.331 701.173,355.998 705.5,353C 710.961,350.412 716.295,348.245 721.5,346.5C 722.593,348.77 724.093,349.103 726,347.5C 726.702,348.795 727.369,350.128 728,351.5C 728.893,350.289 729.726,350.289 730.5,351.5C 729.653,352.845 728.487,353.845 727,354.5C 726.508,355.549 726.674,356.549 727.5,357.5C 725.163,358.517 723.496,360.184 722.5,362.5C 721.349,363.731 720.183,363.731 719,362.5C 716.932,364.562 714.432,365.728 711.5,366C 707.188,369.952 702.521,374.285 697.5,379C 697.833,379.333 698.167,379.667 698.5,380C 696.462,381.236 695.295,383.069 695,385.5C 694.535,390.855 693.369,396.022 691.5,401C 691.923,403.817 692.256,406.65 692.5,409.5C 691.975,410.192 691.308,410.692 690.5,411C 691.069,414.772 692.069,418.772 693.5,423C 692.639,425.995 693.972,427.495 697.5,427.5C 711.124,425.15 719.791,417.817 723.5,405.5C 722.42,403.004 721.086,400.67 719.5,398.5C 718.808,399.025 718.308,399.692 718,400.5C 713.393,399.283 712.559,400.617 715.5,404.5C 713.525,405.788 713.525,407.455 715.5,409.5C 713.509,412.494 711.509,415.494 709.5,418.5C 704.443,414.051 701.443,408.384 700.5,401.5C 700.901,399.566 701.901,398.066 703.5,397C 701.381,396.658 701.047,395.825 702.5,394.5 Z"/></g>
<g><path style="opacity:0.206" fill="#000000" d="M 219.5,350.5 C 219.5,350.167 219.5,349.833 219.5,349.5C 222.167,349.833 222.167,350.167 219.5,350.5 Z"/></g>
<g><path style="opacity:0.082" fill="#000000" d="M -0.5,355.5 C 0.833333,356.167 0.833333,356.167 -0.5,355.5 Z"/></g>
<g><path style="opacity:0.041" fill="#000000" d="M 702.5,394.5 C 701.227,393.923 701.227,393.257 702.5,392.5C 703.463,392.97 703.463,393.637 702.5,394.5 Z"/></g>
</svg>
