<?xml version="1.0" encoding="UTF-8"?>
<!DOCTYPE svg PUBLIC "-//W3C//DTD SVG 1.1//EN" "http://www.w3.org/Graphics/SVG/1.1/DTD/svg11.dtd">
<svg xmlns="http://www.w3.org/2000/svg" version="1.1" width="1268px" height="1192px" style="shape-rendering:geometricPrecision; text-rendering:geometricPrecision; image-rendering:optimizeQuality; fill-rule:evenodd; clip-rule:evenodd" xmlns:xlink="http://www.w3.org/1999/xlink">
<g><path style="opacity:0.763" fill="#000000" d="M 827.5,358.5 C 826.167,358.833 826.167,359.167 827.5,359.5C 828.562,360.575 828.562,361.575 827.5,362.5C 825.705,363.265 823.872,363.932 822,364.5C 818.558,363.769 815.225,363.436 812,363.5C 808.885,365.605 805.885,365.605 803,363.5C 801.201,363.721 799.368,364.054 797.5,364.5C 794.178,362.934 790.678,361.934 787,361.5C 780.883,358.196 775.049,354.53 769.5,350.5C 766.419,348.585 764.253,345.918 763,342.5C 762.586,342.957 762.086,343.291 761.5,343.5C 758.005,342.345 756.005,340.012 755.5,336.5C 753.42,335.956 751.42,335.122 749.5,334C 749.833,333.667 750.167,333.333 750.5,333C 748.161,330.161 745.494,327.661 742.5,325.5C 743.609,323.786 742.942,323.119 740.5,323.5C 740.756,321.088 739.756,319.421 737.5,318.5C 734.999,313.789 732.499,309.123 730,304.5C 722.905,286.203 726.738,270.703 741.5,258C 742.449,257.383 743.282,257.549 744,258.5C 746.644,255.751 749.644,254.418 753,254.5C 754.441,253.74 755.941,253.074 757.5,252.5C 759.6,253.239 761.933,253.239 764.5,252.5C 767.45,253.488 770.45,254.321 773.5,255C 774.543,256.976 775.877,257.476 777.5,256.5C 777.787,259.684 779.453,261.684 782.5,262.5C 782.291,263.086 781.957,263.586 781.5,264C 785.912,268.652 788.912,274.152 790.5,280.5C 790.03,282.774 789.03,284.774 787.5,286.5C 788.165,288.101 788.499,289.601 788.5,291C 787.747,292.487 786.914,292.654 786,291.5C 785.781,292.938 785.281,294.271 784.5,295.5C 782.983,294.089 781.649,294.256 780.5,296C 775.275,295.959 770.275,296.792 765.5,298.5C 764.803,296.615 763.803,296.282 762.5,297.5C 759.573,296.199 756.573,295.199 753.5,294.5C 754.985,291.069 755.985,287.735 756.5,284.5C 759.053,281.956 761.553,281.956 764,284.5C 765,283.167 766,283.167 767,284.5C 768.054,282.246 769.554,281.913 771.5,283.5C 775.176,282.958 776.676,280.958 776,277.5C 775.482,274.492 773.982,272.159 771.5,270.5C 771.709,269.914 772.043,269.414 772.5,269C 770.063,268.797 767.729,267.963 765.5,266.5C 763.481,267.14 761.647,267.14 760,266.5C 759.395,268.481 758.395,268.815 757,267.5C 754.396,269.14 751.563,270.473 748.5,271.5C 747.614,272.325 747.281,273.325 747.5,274.5C 746.167,274.5 744.833,274.5 743.5,274.5C 743.683,276.936 743.016,279.103 741.5,281C 742.552,282.716 741.886,283.716 739.5,284C 740.649,285.604 740.649,287.27 739.5,289C 741.581,290.382 741.915,292.049 740.5,294C 741.819,299.767 743.819,305.267 746.5,310.5C 747.552,310.351 748.552,310.517 749.5,311C 749.167,311.333 748.833,311.667 748.5,312C 753.334,318.667 759.001,324.5 765.5,329.5C 766.675,328.145 767.675,328.312 768.5,330C 768.167,330.333 767.833,330.667 767.5,331C 768.448,331.483 769.448,331.649 770.5,331.5C 770.413,334.598 770.913,334.932 772,332.5C 772.31,337.142 774.81,339.308 779.5,339C 780.833,339.667 780.833,340.333 779.5,341C 782.335,341.756 784.835,343.589 787,346.5C 787.414,346.043 787.914,345.709 788.5,345.5C 789.893,346.863 791.559,347.696 793.5,348C 793.167,348.333 792.833,348.667 792.5,349C 795.167,349.333 797.833,349.667 800.5,350C 801,350.5 801.5,351 802,351.5C 803,350.167 804,350.167 805,351.5C 806,348.833 807,348.833 808,351.5C 809.667,350.167 811.333,350.167 813,351.5C 813.667,350.833 814.333,350.167 815,349.5C 817.498,348.879 819.832,349.545 822,351.5C 822.333,351.167 822.667,350.833 823,350.5C 823.333,351.833 823.667,353.167 824,354.5C 826.071,355.103 827.238,356.436 827.5,358.5 Z"/></g>
<g><path style="opacity:0.842" fill="#000000" d="M 751.5,366.5 C 750.167,366.833 750.167,367.167 751.5,367.5C 752.527,370.736 753.861,373.902 755.5,377C 755.043,377.414 754.709,377.914 754.5,378.5C 757.871,381.76 758.538,385.26 756.5,389C 757.93,390.889 758.597,393.055 758.5,395.5C 758.012,400.878 757.345,406.211 756.5,411.5C 758.022,413.156 757.689,414.323 755.5,415C 756.357,415.689 757.023,416.522 757.5,417.5C 753.276,423.77 749.942,430.437 747.5,437.5C 742.762,443.74 737.262,449.073 731,453.5C 730.667,453.167 730.333,452.833 730,452.5C 727.282,455.875 723.949,457.208 720,456.5C 717.512,457.647 715.512,459.314 714,461.5C 713.692,460.692 713.192,460.025 712.5,459.5C 711.114,461.644 709.614,462.977 708,463.5C 707.374,461.009 706.541,461.009 705.5,463.5C 704.015,462.567 702.682,462.9 701.5,464.5C 701.703,466.39 701.037,467.89 699.5,469C 700.357,469.689 701.023,470.522 701.5,471.5C 700.289,472.72 700.289,473.887 701.5,475C 699.484,476.028 698.484,477.695 698.5,480C 698.696,484.026 699.362,488.193 700.5,492.5C 699.167,492.833 699.167,493.167 700.5,493.5C 701.523,495.577 701.19,497.577 699.5,499.5C 698.167,499.833 698.167,500.167 699.5,500.5C 699.953,501.458 700.619,502.292 701.5,503C 700.294,504.018 700.627,504.518 702.5,504.5C 705.861,502.423 709.528,501.089 713.5,500.5C 714.086,500.709 714.586,501.043 715,501.5C 715.419,500.328 716.085,499.328 717,498.5C 720.738,499.618 724.071,498.952 727,496.5C 727.308,497.308 727.808,497.975 728.5,498.5C 730.479,498.123 732.312,496.789 734,494.5C 734.388,495.428 735.055,496.095 736,496.5C 738.39,496.316 740.724,496.316 743,496.5C 743.464,495.906 743.631,495.239 743.5,494.5C 745.401,494.567 747.234,494.233 749,493.5C 750.584,493.988 751.751,494.988 752.5,496.5C 753.711,495.726 753.711,494.893 752.5,494C 754.075,494.379 755.575,494.212 757,493.5C 757.667,494.833 758.667,495.833 760,496.5C 763.342,496.041 766.675,495.708 770,495.5C 771.316,498.028 772.483,498.028 773.5,495.5C 774.971,496.381 775.804,497.714 776,499.5C 778.326,498.526 780.826,498.193 783.5,498.5C 784.713,497.503 784.546,496.503 783,495.5C 781.32,496.603 779.82,496.27 778.5,494.5C 778.709,493.914 779.043,493.414 779.5,493C 776.766,490.354 776.433,487.687 778.5,485C 777.87,483.108 776.87,481.441 775.5,480C 779.4,476.146 779.733,472.312 776.5,468.5C 774.659,469.402 773.326,470.736 772.5,472.5C 771.167,472.833 771.167,473.167 772.5,473.5C 770.506,473.444 768.339,473.777 766,474.5C 764.527,474.097 763.194,473.43 762,472.5C 760.701,472.966 759.201,472.966 757.5,472.5C 757.649,471.448 757.483,470.448 757,469.5C 756.758,471.138 755.925,472.638 754.5,474C 755.634,475.016 755.301,475.683 753.5,476C 757.361,478.027 757.361,480.194 753.5,482.5C 754.025,483.192 754.692,483.692 755.5,484C 752.941,486.651 750.941,489.151 749.5,491.5C 748.021,490.852 746.521,490.519 745,490.5C 744.667,491.167 744.333,491.833 744,492.5C 739.277,487.791 738.11,482.458 740.5,476.5C 739.954,474.865 739.62,473.199 739.5,471.5C 743.449,471.307 743.449,470.807 739.5,470C 741.947,465.263 743.947,460.596 745.5,456C 744.189,453.925 744.855,452.591 747.5,452C 746.424,450.274 746.257,448.441 747,446.5C 750.558,445.435 751.058,443.769 748.5,441.5C 748.901,439.566 749.901,438.066 751.5,437C 749.071,436.549 748.904,435.715 751,434.5C 751.333,434.833 751.667,435.167 752,435.5C 753.792,431.716 756.292,428.549 759.5,426C 762.257,425.416 764.923,425.75 767.5,427C 768.833,427.667 768.833,428.333 767.5,429C 770.202,431.692 773.202,433.359 776.5,434C 781.26,439.549 786.26,444.883 791.5,450C 796.964,453.196 800.797,458.363 803,465.5C 806.692,467.692 809.526,470.692 811.5,474.5C 811.291,475.086 810.957,475.586 810.5,476C 813.201,479.339 815.868,482.672 818.5,486C 815.833,487 815.833,488 818.5,489C 816.845,492.082 816.345,495.249 817,498.5C 816.667,499.167 816.333,499.833 816,500.5C 815.282,499.549 814.449,499.383 813.5,500C 814.743,501.154 815.743,502.488 816.5,504C 815.167,506 813.833,508 812.5,510C 813.293,512.432 813.626,514.766 813.5,517C 812.167,517.333 810.833,517.667 809.5,518C 810.252,518.671 810.586,519.504 810.5,520.5C 809.167,520.833 809.167,521.167 810.5,521.5C 810.631,522.376 810.298,523.043 809.5,523.5C 808.604,522.494 807.938,522.494 807.5,523.5C 810.167,524.833 810.167,526.167 807.5,527.5C 808.167,528.5 808.833,529.5 809.5,530.5C 808.787,532.776 808.287,535.109 808,537.5C 807.346,536.304 806.846,536.304 806.5,537.5C 806.744,540.35 807.077,543.183 807.5,546C 805.996,547.337 804.996,549.004 804.5,551C 803.643,553.803 803.643,556.803 804.5,560C 803.009,562.097 802.009,564.43 801.5,567C 802.475,569.412 801.808,571.412 799.5,573C 800.167,573.667 800.833,574.333 801.5,575C 798.798,576.813 798.464,578.646 800.5,580.5C 800.154,581.696 799.654,581.696 799,580.5C 798.506,582.134 798.34,583.801 798.5,585.5C 796.362,585.703 794.695,586.703 793.5,588.5C 791.837,587.125 790.503,587.458 789.5,589.5C 787.668,588.752 786.001,587.752 784.5,586.5C 783.143,589.527 783.476,592.36 785.5,595C 781.56,595.75 778.726,594.25 777,590.5C 776,592.167 774.667,593.5 773,594.5C 772.167,593 771,591.833 769.5,591C 771.107,589.951 771.773,588.451 771.5,586.5C 770.448,586.649 769.448,586.483 768.5,586C 767.712,583.551 767.712,580.884 768.5,578C 767.711,577.454 766.711,576.787 765.5,576C 766.448,575.517 767.448,575.351 768.5,575.5C 768.313,573.436 767.813,571.436 767,569.5C 764.61,566.284 762.444,562.95 760.5,559.5C 756.011,559.604 751.511,559.604 747,559.5C 744.966,559.354 743.299,560.02 742,561.5C 741.517,560.552 741.351,559.552 741.5,558.5C 738.157,558.499 735.823,556.999 734.5,554C 735.063,551.273 735.73,548.607 736.5,546C 735.472,543.239 735.472,540.406 736.5,537.5C 736.709,536.006 737.376,534.839 738.5,534C 738.722,530.188 738.389,526.521 737.5,523C 738.789,519.406 740.455,516.073 742.5,513C 742.167,512.667 741.833,512.333 741.5,512C 743.984,512.929 746.317,514.429 748.5,516.5C 747.45,518.102 748.117,518.935 750.5,519C 748.071,519.451 747.904,520.285 750,521.5C 750.725,520.941 751.558,520.608 752.5,520.5C 755.406,520.7 757.906,521.7 760,523.5C 761.182,521.765 762.849,520.765 765,520.5C 766.162,521.187 767.328,521.353 768.5,521C 769.464,519.275 770.131,517.441 770.5,515.5C 771.613,514.306 772.613,512.973 773.5,511.5C 774.799,512.09 775.632,513.09 776,514.5C 777.973,513.402 780.14,513.569 782.5,515C 779.584,517.071 779.918,518.405 783.5,519C 782.833,519.333 782.167,519.667 781.5,520C 781.5,521.333 781.5,522.667 781.5,524C 785.378,526.877 788.544,530.377 791,534.5C 793.415,528.161 792.082,522.828 787,518.5C 785.334,519.34 785.167,518.84 786.5,517C 784.574,516.578 783.574,515.411 783.5,513.5C 781.43,512.419 779.763,510.253 778.5,507C 777.212,506.761 776.212,507.261 775.5,508.5C 775.167,507.167 774.833,507.167 774.5,508.5C 772.224,508.668 769.891,509.001 767.5,509.5C 766.167,508.833 764.833,508.167 763.5,507.5C 763.167,508.167 762.833,508.833 762.5,509.5C 760.866,509.032 759.7,508.032 759,506.5C 756.667,507.833 754.333,507.833 752,506.5C 750.215,507.24 748.382,507.907 746.5,508.5C 743.192,507.59 740.026,507.924 737,509.5C 734.525,508.973 732.191,508.973 730,509.5C 727.472,512.585 725.638,512.919 724.5,510.5C 722.547,511.024 720.88,512.024 719.5,513.5C 715.445,512.39 711.945,513.39 709,516.5C 707.23,515.724 705.397,515.89 703.5,517C 701.999,518.252 700.332,519.252 698.5,520C 699.895,522.075 699.562,523.908 697.5,525.5C 698.711,526.72 698.711,527.887 697.5,529C 698.167,529.667 698.833,530.333 699.5,531C 698.662,534.844 697.662,538.678 696.5,542.5C 697.311,543.216 697.978,544.05 698.5,545C 697.427,546.416 697.427,547.75 698.5,549C 696.826,550.506 695.826,552.339 695.5,554.5C 694.623,558.746 694.623,563.246 695.5,568C 694.58,571.339 693.247,574.506 691.5,577.5C 691.833,578.167 692.167,578.833 692.5,579.5C 691.5,580.833 690.5,582.167 689.5,583.5C 691.139,586.04 690.806,588.207 688.5,590C 689.357,590.689 690.023,591.522 690.5,592.5C 689.289,593.72 689.289,594.887 690.5,596C 688.311,596.677 687.978,597.844 689.5,599.5C 689.333,599.833 689.167,600.167 689,600.5C 685.009,598.362 680.842,597.696 676.5,598.5C 676.437,595.292 676.437,592.126 676.5,589C 676.759,587.739 677.426,586.739 678.5,586C 677.185,584.605 677.519,583.605 679.5,583C 679.009,578.895 679.009,574.561 679.5,570C 680.167,569.333 680.833,568.667 681.5,568C 679.857,564.36 680.524,561.193 683.5,558.5C 682.934,555.583 682.934,552.583 683.5,549.5C 685.842,549.225 685.842,548.392 683.5,547C 684.274,544.595 684.774,542.095 685,539.5C 685.654,540.696 686.154,540.696 686.5,539.5C 686.09,532.705 686.09,525.705 686.5,518.5C 685.5,518.5 684.5,518.5 683.5,518.5C 681.733,517.35 680.567,518.017 680,520.5C 679,517.833 678,517.833 677,520.5C 676.586,520.043 676.086,519.709 675.5,519.5C 671.363,521.121 667.363,522.287 663.5,523C 656.452,527.93 651.452,534.43 648.5,542.5C 645.104,543.472 641.937,543.472 639,542.5C 638.682,540.939 637.849,539.772 636.5,539C 639.167,538.333 639.167,537.667 636.5,537C 637.367,532.928 639.367,529.595 642.5,527C 642.167,526.667 641.833,526.333 641.5,526C 644.23,523.87 646.23,521.203 647.5,518C 650.757,515.187 654.424,513.02 658.5,511.5C 658.291,510.914 657.957,510.414 657.5,510C 660.103,509.978 662.769,510.144 665.5,510.5C 666.5,510 667.5,509.5 668.5,509C 668.167,508.667 667.833,508.333 667.5,508C 670.434,508.8 672.934,507.967 675,505.5C 677.385,507.539 679.552,507.539 681.5,505.5C 683.548,506.083 685.381,506.083 687,505.5C 687.617,504.551 687.451,503.718 686.5,503C 688.991,502.374 688.991,501.541 686.5,500.5C 686.98,493.073 686.98,486.073 686.5,479.5C 686.864,477.267 687.864,475.434 689.5,474C 689.155,471.021 687.822,468.187 685.5,465.5C 681.844,466.497 678.011,466.831 674,466.5C 671.802,464.625 669.969,464.625 668.5,466.5C 667.483,463.972 666.316,463.972 665,466.5C 663.493,465.495 662.327,464.162 661.5,462.5C 661.167,463.167 660.833,463.833 660.5,464.5C 642.268,460.769 630.101,450.102 624,432.5C 622.726,427.514 621.559,422.514 620.5,417.5C 621.376,416.749 622.376,416.249 623.5,416C 622.5,415.167 621.5,414.333 620.5,413.5C 621.167,412.167 621.833,410.833 622.5,409.5C 621.833,409.167 621.167,408.833 620.5,408.5C 621.346,404.653 621.68,400.986 621.5,397.5C 623.152,392.187 624.819,386.854 626.5,381.5C 625.754,380.264 625.421,378.93 625.5,377.5C 627.942,377.646 628.609,376.813 627.5,375C 629.014,373.561 629.347,372.061 628.5,370.5C 629.5,369.667 630.5,368.833 631.5,368C 631.5,366 631.5,364 631.5,362C 638.044,354.451 645.044,347.118 652.5,340C 657.348,336.621 662.348,333.621 667.5,331C 672.492,329.251 677.492,328.084 682.5,327.5C 688.915,328.119 695.415,328.452 702,328.5C 704.167,326.536 706.501,326.202 709,327.5C 709.691,325.109 710.691,325.109 712,327.5C 712.333,327.167 712.667,326.833 713,326.5C 715.022,327.786 717.189,328.786 719.5,329.5C 720.142,332.797 721.309,333.131 723,330.5C 725.452,333.821 728.618,336.321 732.5,338C 733.833,338.667 733.833,339.333 732.5,340C 734.833,341 736.5,342.667 737.5,345C 741.535,346.598 743.368,349.431 743,353.5C 743.667,354.833 744.333,354.833 745,353.5C 746.113,354.76 746.28,355.927 745.5,357C 746.5,357.333 747.5,357.667 748.5,358C 747.446,359.388 747.28,360.888 748,362.5C 750.129,361.137 750.629,361.471 749.5,363.5C 750.612,364.265 751.279,365.265 751.5,366.5 Z M 721.5,348.5 C 723.834,351.666 726.667,354.333 730,356.5C 731.329,360.243 733.496,363.41 736.5,366C 735.483,367.049 735.316,368.216 736,369.5C 736.667,368.167 737.333,368.167 738,369.5C 741.121,377.859 743.621,386.359 745.5,395C 746.108,397.184 745.441,399.184 743.5,401C 744.056,401.383 744.389,401.883 744.5,402.5C 743.957,402.56 743.624,402.893 743.5,403.5C 746.335,406.32 746.001,408.653 742.5,410.5C 743.651,415.159 743.151,419.493 741,423.5C 740.346,422.304 739.846,422.304 739.5,423.5C 739.833,424.167 740.167,424.833 740.5,425.5C 737.872,427.935 735.872,430.768 734.5,434C 731.55,436.788 728.217,438.955 724.5,440.5C 723.147,441.685 721.98,443.019 721,444.5C 720.586,444.043 720.086,443.709 719.5,443.5C 715.803,444.741 712.303,446.407 709,448.5C 706.758,447.825 704.591,448.325 702.5,450C 699.443,450.256 696.443,450.756 693.5,451.5C 692.914,451.291 692.414,450.957 692,450.5C 690.077,451.316 688.077,451.983 686,452.5C 676.892,451.782 668.058,450.782 659.5,449.5C 658.531,448.691 657.698,447.691 657,446.5C 654.222,447.823 651.722,446.823 649.5,443.5C 648.914,443.709 648.414,444.043 648,444.5C 647.033,443.322 646.533,441.989 646.5,440.5C 643.146,439.327 640.812,437.66 639.5,435.5C 640.428,434.232 640.595,432.899 640,431.5C 638.719,431.619 637.552,431.119 636.5,430C 636.833,429.667 637.167,429.333 637.5,429C 636.562,427.937 635.562,426.77 634.5,425.5C 636.53,422.164 636.53,418.664 634.5,415C 635.404,411.916 635.737,408.583 635.5,405C 635.241,403.739 634.574,402.739 633.5,402C 634.357,401.311 635.023,400.478 635.5,399.5C 635.054,397.632 634.721,395.799 634.5,394C 636.167,391.845 637.167,389.345 637.5,386.5C 637.291,385.914 636.957,385.414 636.5,385C 639.668,384.418 640.001,383.418 637.5,382C 638.381,381.292 639.047,380.458 639.5,379.5C 640.537,378.07 641.204,376.403 641.5,374.5C 640.957,374.44 640.624,374.107 640.5,373.5C 642.562,371.597 643.896,369.263 644.5,366.5C 646.816,364.53 648.649,362.196 650,359.5C 653.966,357.694 657.133,355.028 659.5,351.5C 660.71,351.068 661.71,350.401 662.5,349.5C 664.134,348.793 665.468,347.627 666.5,346C 668.5,345.667 670.5,345.333 672.5,345C 675.966,341.468 679.799,340.635 684,342.5C 688.049,341.898 692.049,341.231 696,340.5C 697.566,339.939 698.899,340.606 700,342.5C 701.796,341.233 703.629,341.233 705.5,342.5C 706.478,342.023 707.311,341.357 708,340.5C 710.615,343.044 713.615,345.044 717,346.5C 717.333,345.833 717.667,345.167 718,344.5C 718.416,346.55 719.583,347.884 721.5,348.5 Z M 621.5,397.5 C 622.363,396.537 623.03,396.537 623.5,397.5C 622.743,398.773 622.077,398.773 621.5,397.5 Z M 744.5,402.5 C 745.363,401.537 746.03,401.537 746.5,402.5C 745.743,403.773 745.077,403.773 744.5,402.5 Z M 764.5,443.5 C 770.061,446.887 774.894,451.22 779,456.5C 778.601,459.53 778.768,462.53 779.5,465.5C 779.484,467.516 778.484,468.516 776.5,468.5C 776.056,466.887 775.056,465.72 773.5,465C 774.38,463.644 774.714,462.144 774.5,460.5C 773.193,459.847 771.86,459.18 770.5,458.5C 769.808,459.025 769.308,459.692 769,460.5C 766.597,457.806 763.764,456.973 760.5,458C 760.902,452.778 762.235,447.944 764.5,443.5 Z M 701.5,464.5 C 698.999,464.489 698.832,463.822 701,462.5C 701.464,463.094 701.631,463.761 701.5,464.5 Z M 802.5,497.5 C 801.209,498.473 801.209,499.473 802.5,500.5C 801.675,501.386 800.675,501.719 799.5,501.5C 800.167,503.819 800.334,506.153 800,508.5C 796.551,505.562 793.718,502.229 791.5,498.5C 791.672,497.508 791.338,496.842 790.5,496.5C 791.543,488.225 792.377,479.891 793,471.5C 793.772,472.849 794.939,473.682 796.5,474C 796.167,474.333 795.833,474.667 795.5,475C 797.019,476.351 798.352,477.851 799.5,479.5C 801.875,479.118 804.208,479.618 806.5,481C 803.506,484.107 802.173,487.607 802.5,491.5C 801.833,493.167 801.167,494.833 800.5,496.5C 800.957,497.298 801.624,497.631 802.5,497.5 Z M 790.5,496.5 C 790.328,497.492 790.662,498.158 791.5,498.5C 790.399,499.598 789.066,499.765 787.5,499C 788.078,497.583 789.078,496.75 790.5,496.5 Z M 785.5,514.5 C 784.833,514.167 784.167,513.833 783.5,513.5C 784.988,510.814 785.655,511.147 785.5,514.5 Z M 809.5,514.5 C 810.773,515.077 810.773,515.743 809.5,516.5C 808.537,516.03 808.537,515.363 809.5,514.5 Z M 768.5,522.5 C 768.361,524.337 767.694,524.67 766.5,523.5C 766.957,522.702 767.624,522.369 768.5,522.5 Z M 749.5,533.5 C 752.001,533.511 752.168,534.178 750,535.5C 749.536,534.906 749.369,534.239 749.5,533.5 Z M 763.5,534.5 C 767.018,536.411 767.352,538.911 764.5,542C 764.665,543.117 764.998,544.284 765.5,545.5C 765.154,546.696 764.654,546.696 764,545.5C 763.5,546.5 763,547.5 762.5,548.5C 763.326,549.451 763.492,550.451 763,551.5C 761.601,550.773 760.101,550.273 758.5,550C 758.8,545.349 756.967,544.516 753,547.5C 752.097,546.299 750.931,545.465 749.5,545C 749.833,544.667 750.167,544.333 750.5,544C 749.409,541.115 748.575,538.281 748,535.5C 750.244,537.994 752.577,537.994 755,535.5C 756.316,538.028 757.483,538.028 758.5,535.5C 759.192,536.025 759.692,536.692 760,537.5C 761.729,537.026 762.895,536.026 763.5,534.5 Z M 782.5,579.5 C 780.082,575.842 779.415,572.175 780.5,568.5C 779.926,566.941 779.26,565.441 778.5,564C 780.901,563.195 780.734,562.362 778,561.5C 777.434,559.277 776.6,557.277 775.5,555.5C 775.779,552.882 776.446,550.382 777.5,548C 777.043,547.586 776.709,547.086 776.5,546.5C 778.35,545.758 779.016,544.758 778.5,543.5C 779.589,546.679 781.423,549.345 784,551.5C 786.305,550.061 788.138,550.561 789.5,553C 788.398,555.863 787.398,558.696 786.5,561.5C 787.498,564.337 786.832,566.837 784.5,569C 788.136,569.626 788.136,570.793 784.5,572.5C 784.709,573.086 785.043,573.586 785.5,574C 784.376,574.249 783.376,574.749 782.5,575.5C 783.363,576.726 783.363,578.06 782.5,579.5 Z M 760.5,559.5 C 760.783,558.711 761.283,558.044 762,557.5C 762.528,558.816 762.028,559.483 760.5,559.5 Z M 782.5,579.5 C 783.773,580.077 783.773,580.743 782.5,581.5C 781.537,581.03 781.537,580.363 782.5,579.5 Z"/></g>
<g><path style="opacity:0.105" fill="#000000" d="M 697.5,353.5 C 698.675,353.281 699.675,353.614 700.5,354.5C 700.222,357.067 700.056,359.733 700,362.5C 698.028,361.695 696.528,360.361 695.5,358.5C 696.456,356.925 697.123,355.258 697.5,353.5 Z"/></g>
<g><path style="opacity:0.02" fill="#000000" d="M 827.5,358.5 C 828.833,359.167 828.833,359.167 827.5,358.5 Z"/></g>
<g><path style="opacity:0.365" fill="#000000" d="M 751.5,366.5 C 752.833,367.167 752.833,367.167 751.5,366.5 Z"/></g>
<g><path style="opacity:0.247" fill="#000000" d="M 753.5,369.5 C 754.833,370.167 754.833,370.167 753.5,369.5 Z"/></g>
<g><path style="opacity:0.063" fill="#000000" d="M 755.5,371.5 C 756.833,372.167 756.833,372.167 755.5,371.5 Z"/></g>
<g><path style="opacity:0.749" fill="#000000" d="M 882.5,433.5 C 882.167,432.167 881.833,432.167 881.5,433.5C 875.935,435.161 869.935,435.827 863.5,435.5C 860.737,432.605 857.904,431.939 855,433.5C 854.667,432.5 854.333,431.5 854,430.5C 852.43,430.67 850.597,431.003 848.5,431.5C 850.477,428.107 849.81,425.441 846.5,423.5C 848.17,421.327 849.837,419.16 851.5,417C 859.142,417.698 866.642,418.865 874,420.5C 879.674,419.3 885.507,417.8 891.5,416C 893.65,414.351 895.65,412.518 897.5,410.5C 896.762,408.06 895.429,406.06 893.5,404.5C 894.939,402.657 894.772,400.99 893,399.5C 892.586,399.957 892.086,400.291 891.5,400.5C 891.262,398.522 889.929,396.855 887.5,395.5C 884.674,394.42 881.841,393.42 879,392.5C 872.144,391.929 865.144,391.929 858,392.5C 854.871,394.248 851.704,394.915 848.5,394.5C 847.572,396.335 846.406,396.668 845,395.5C 843.066,397.943 840.566,399.276 837.5,399.5C 837.723,402.114 836.556,403.781 834,404.5C 833.577,407.133 832.41,409.299 830.5,411C 831.114,412.13 831.114,413.463 830.5,415C 832.759,417.16 832.759,419.16 830.5,421C 833.348,429.574 837.515,438.408 843,447.5C 848.017,453.352 854.017,458.019 861,461.5C 862.667,461.167 864.333,460.833 866,460.5C 871.868,462.995 878.035,463.662 884.5,462.5C 885.647,462.818 886.481,463.484 887,464.5C 887.691,462.109 888.691,462.109 890,464.5C 890.5,464 891,463.5 891.5,463C 893.657,462.922 895.657,462.755 897.5,462.5C 898.799,463.09 899.632,464.09 900,465.5C 901.985,461.486 904.652,460.819 908,463.5C 909.019,462.313 910.186,461.313 911.5,460.5C 912.192,461.025 912.692,461.692 913,462.5C 913.388,461.572 914.055,460.905 915,460.5C 920.211,461.814 925.377,461.481 930.5,459.5C 931.89,461.203 933.39,461.87 935,461.5C 935.684,462.784 935.517,463.951 934.5,465C 935.951,464.737 937.284,464.904 938.5,465.5C 935.679,469.86 932.012,473.193 927.5,475.5C 922.543,474.803 917.71,475.47 913,477.5C 912.333,476.833 911.667,476.167 911,475.5C 909.414,476.376 907.914,477.376 906.5,478.5C 903.382,477.517 900.049,477.35 896.5,478C 895.874,477.25 895.374,476.416 895,475.5C 892.97,478.508 890.303,479.174 887,477.5C 885.128,478.068 883.295,478.735 881.5,479.5C 880.808,478.975 880.308,478.308 880,477.5C 877.175,479.084 875.008,478.418 873.5,475.5C 872.749,476.376 872.249,477.376 872,478.5C 868.688,477.024 865.188,476.19 861.5,476C 860.107,473.317 858.774,473.15 857.5,475.5C 856.186,474.687 855.019,473.687 854,472.5C 853.586,472.957 853.086,473.291 852.5,473.5C 850.091,472.299 848.091,470.633 846.5,468.5C 845.914,468.709 845.414,469.043 845,469.5C 843.833,467.833 842.667,466.167 841.5,464.5C 840.549,465.326 839.549,465.492 838.5,465C 838.833,464.667 839.167,464.333 839.5,464C 836.483,461.482 834.316,458.316 833,454.5C 829.12,452.388 827.287,449.055 827.5,444.5C 826.5,444.5 825.5,444.5 824.5,444.5C 823.578,441.874 822.578,439.207 821.5,436.5C 821.833,435.833 822.167,435.167 822.5,434.5C 821.537,431.935 820.204,429.602 818.5,427.5C 819.167,426.833 819.833,426.167 820.5,425.5C 817.017,421.564 816.684,417.397 819.5,413C 818.796,409.815 818.463,406.649 818.5,403.5C 821.152,399.183 824.485,395.516 828.5,392.5C 829.246,391.264 829.579,389.93 829.5,388.5C 831.766,388.859 833.599,388.192 835,386.5C 835.333,386.833 835.667,387.167 836,387.5C 836.309,386.234 836.809,385.067 837.5,384C 840,382.833 842.5,381.667 845,380.5C 847.085,381.647 848.585,380.98 849.5,378.5C 854.875,378.617 860.542,378.617 866.5,378.5C 867.937,375.956 869.437,375.956 871,378.5C 872,377.833 873,377.167 874,376.5C 875.667,377.833 877.333,377.833 879,376.5C 882.392,378.018 885.725,379.684 889,381.5C 890.84,380.167 891.34,380.334 890.5,382C 895.488,384.574 900.154,387.408 904.5,390.5C 906.776,395.224 908.609,400.224 910,405.5C 910.667,408.167 910.667,410.833 910,413.5C 907.587,416.062 905.92,419.062 905,422.5C 904.097,423.701 902.931,424.535 901.5,425C 902.821,426.545 902.488,427.711 900.5,428.5C 898.995,425.869 898.329,426.203 898.5,429.5C 895.368,429.784 892.368,430.617 889.5,432C 890.696,432.654 890.696,433.154 889.5,433.5C 887.229,433.228 884.895,433.228 882.5,433.5 Z"/></g>
<g><path style="opacity:0.775" fill="#000000" d="M 1004.5,378.5 C 1005.57,379.658 1006.74,379.658 1008,378.5C 1008.95,378.905 1009.61,379.572 1010,380.5C 1011.72,380.589 1013.55,380.256 1015.5,379.5C 1020.91,383.201 1025.91,387.367 1030.5,392C 1030.17,392.333 1029.83,392.667 1029.5,393C 1032.17,394 1032.17,395 1029.5,396C 1030.87,397.34 1032.2,398.674 1033.5,400C 1033.09,400.945 1032.43,401.612 1031.5,402C 1033.91,403.908 1033.91,405.908 1031.5,408C 1032.88,412.97 1031.22,416.47 1026.5,418.5C 1025.69,419.814 1024.69,420.981 1023.5,422C 1023.83,422.333 1024.17,422.667 1024.5,423C 1022.64,423.684 1020.97,424.684 1019.5,426C 1016.03,426.301 1012.69,427.134 1009.5,428.5C 1007.94,427.926 1006.44,427.26 1005,426.5C 1003.42,427.861 1001.58,428.528 999.5,428.5C 999.649,427.448 999.483,426.448 999,425.5C 998.29,426.973 997.124,427.64 995.5,427.5C 994.614,425.278 994.614,423.112 995.5,421C 994.971,419.441 994.304,417.941 993.5,416.5C 993.833,416.167 994.167,415.833 994.5,415.5C 999.506,413.969 1004.51,412.969 1009.5,412.5C 1010.74,413.246 1012.07,413.579 1013.5,413.5C 1013.35,411.058 1014.19,410.391 1016,411.5C 1017.63,410.181 1017.46,408.848 1015.5,407.5C 1017.33,405.844 1018.66,403.844 1019.5,401.5C 1018.09,398.787 1016.59,396.121 1015,393.5C 1014.59,393.957 1014.09,394.291 1013.5,394.5C 1012.45,393.617 1011.29,392.95 1010,392.5C 1007.74,393.253 1005.74,393.253 1004,392.5C 1000.25,394.291 996.416,395.957 992.5,397.5C 986.548,401.628 981.714,406.295 978,411.5C 977.771,414.458 976.604,416.958 974.5,419C 974.473,422.936 974.806,426.936 975.5,431C 977.587,435.213 979.754,439.38 982,443.5C 982.333,443.167 982.667,442.833 983,442.5C 985.499,446.494 988.666,449.828 992.5,452.5C 995.618,451.902 997.952,453.235 999.5,456.5C 1001.46,454.457 1002.96,455.123 1004,458.5C 1004.33,458.167 1004.67,457.833 1005,457.5C 1008.82,460.524 1012.99,461.857 1017.5,461.5C 1018.82,464.028 1019.98,464.028 1021,461.5C 1024.75,464.54 1028.75,465.207 1033,463.5C 1034.71,463.439 1036.04,464.106 1037,465.5C 1038.19,464.57 1039.53,463.903 1041,463.5C 1043.75,464.264 1046.42,464.597 1049,464.5C 1050.67,461.833 1052.33,461.833 1054,464.5C 1055,461.833 1056,461.833 1057,464.5C 1058.86,462.652 1061.03,462.652 1063.5,464.5C 1064.19,463.975 1064.69,463.308 1065,462.5C 1065.75,463.126 1066.58,463.626 1067.5,464C 1072.42,464.195 1077.25,464.695 1082,465.5C 1083.23,464.892 1084.56,464.559 1086,464.5C 1088.88,465.028 1091.71,465.694 1094.5,466.5C 1094.33,468.492 1095,470.158 1096.5,471.5C 1095.33,472.584 1094,473.417 1092.5,474C 1093.45,474.718 1093.62,475.551 1093,476.5C 1089.21,475.184 1085.37,475.851 1081.5,478.5C 1077.69,475.58 1073.86,475.246 1070,477.5C 1063.81,477.744 1057.48,477.41 1051,476.5C 1047.38,477.238 1043.72,477.904 1040,478.5C 1038.85,477.576 1037.85,477.576 1037,478.5C 1036.31,476.109 1035.31,476.109 1034,478.5C 1031.55,477.802 1029.21,476.802 1027,475.5C 1026.61,476.428 1025.95,477.095 1025,477.5C 1022.14,476.228 1019.31,475.894 1016.5,476.5C 1012.62,474.681 1008.79,473.014 1005,471.5C 1003.33,471.5 1001.67,471.5 1000,471.5C 999.626,470.584 999.126,469.75 998.5,469C 993.081,466.434 987.747,463.601 982.5,460.5C 981.147,459.476 980.48,458.143 980.5,456.5C 979.448,456.649 978.448,456.483 977.5,456C 974.01,452.921 971.01,449.421 968.5,445.5C 968.709,444.914 969.043,444.414 969.5,444C 965.774,439.546 963.107,434.546 961.5,429C 960.819,422.703 960.819,416.536 961.5,410.5C 965.137,405.095 968.137,400.095 970.5,395.5C 971.552,395.649 972.552,395.483 973.5,395C 975.633,391.731 978.3,388.898 981.5,386.5C 984.167,387.833 984.833,387.167 983.5,384.5C 985.347,383.17 986.847,383.503 988,385.5C 990.644,383.69 993.144,381.69 995.5,379.5C 996.478,379.977 997.311,380.643 998,381.5C 1000.05,380.074 1002.21,379.074 1004.5,378.5 Z"/></g>
<g><path style="opacity:0.212" fill="#000000" d="M 758.5,388.5 C 759.833,389.167 759.833,389.167 758.5,388.5 Z"/></g>
<g><path style="opacity:0.018" fill="#000000" d="M 804.5,426.5 C 804.897,425.475 805.563,425.308 806.5,426C 805.906,426.464 805.239,426.631 804.5,426.5 Z"/></g>
<g><path style="opacity:0.004" fill="#000000" d="M 811.5,430.5 C 812.833,431.167 812.833,431.167 811.5,430.5 Z"/></g>
<g><path style="opacity:0.027" fill="#000000" d="M 881.5,433.5 C 881.833,433.5 882.167,433.5 882.5,433.5C 882.315,434.17 881.981,434.17 881.5,433.5 Z"/></g>
<g><path style="opacity:0.857" fill="#000000" d="M 310.5,503.5 C 310.56,504.043 310.893,504.376 311.5,504.5C 312.982,502.517 314.649,500.684 316.5,499C 316.167,498.667 315.833,498.333 315.5,498C 317.049,496.786 318.215,495.286 319,493.5C 320,494.833 321,494.833 322,493.5C 322.333,492.167 322.667,490.833 323,489.5C 323.333,490.167 323.667,490.833 324,491.5C 327.716,486.16 331.383,480.827 335,475.5C 335.741,476.641 336.575,476.641 337.5,475.5C 339.171,472.508 341.171,469.841 343.5,467.5C 344.552,467.649 345.552,467.483 346.5,467C 345.366,465.984 345.699,465.317 347.5,465C 347.167,464.667 346.833,464.333 346.5,464C 347.701,463.097 348.535,461.931 349,460.5C 349.333,460.833 349.667,461.167 350,461.5C 351.946,458.031 354.779,455.864 358.5,455C 358.167,454.667 357.833,454.333 357.5,454C 360.326,451.016 363.492,448.516 367,446.5C 367.667,447.167 368.333,447.833 369,448.5C 371.194,445.983 373.194,446.316 375,449.5C 375.617,450.449 375.451,451.282 374.5,452C 375.167,452.333 375.833,452.667 376.5,453C 375.189,456.64 372.855,459.306 369.5,461C 366.29,465.854 361.79,470.021 356,473.5C 353.549,478.58 350.049,482.747 345.5,486C 343.253,489.736 340.087,493.236 336,496.5C 331.566,502.047 326.899,507.38 322,512.5C 321.667,512.167 321.333,511.833 321,511.5C 318.916,516.419 315.416,519.752 310.5,521.5C 306.833,527.167 302.167,531.833 296.5,535.5C 296.209,539.309 294.376,540.976 291,540.5C 289.471,541.729 288.304,543.229 287.5,545C 286.551,545.617 285.718,545.451 285,544.5C 284.333,545.167 283.667,545.833 283,546.5C 280.647,543.398 277.981,541.398 275,540.5C 274.153,537.51 275.32,536.176 278.5,536.5C 278.281,535.325 278.614,534.325 279.5,533.5C 285.461,529.704 290.294,524.704 294,518.5C 295.422,518.406 296.922,518.072 298.5,517.5C 302.531,512.71 306.531,508.043 310.5,503.5 Z"/></g>
<g><path style="opacity:0.802" fill="#000000" d="M 456.5,552.5 C 455.923,551.227 455.257,551.227 454.5,552.5C 453.914,555.349 452.58,557.682 450.5,559.5C 450.167,558.167 449.833,558.167 449.5,559.5C 448.226,560.189 448.226,561.023 449.5,562C 446.865,565.286 444.532,568.786 442.5,572.5C 441.624,573.251 440.624,573.751 439.5,574C 440.821,575.545 440.488,576.711 438.5,577.5C 438.089,576.738 437.923,575.738 438,574.5C 435.838,574.94 433.671,575.273 431.5,575.5C 430.594,573.614 429.594,571.78 428.5,570C 431.15,566.793 430.984,566.293 428,568.5C 427.833,568 427.667,567.5 427.5,567C 430.637,561.598 434.137,556.431 438,551.5C 438.333,550.167 438.667,548.833 439,547.5C 439.423,548.956 440.256,549.456 441.5,549C 441.043,548.586 440.709,548.086 440.5,547.5C 442.094,544.939 444.094,542.772 446.5,541C 446.167,540.667 445.833,540.333 445.5,540C 446.973,539.29 447.64,538.124 447.5,536.5C 450.361,536.487 451.361,535.321 450.5,533C 453.491,530.01 455.657,526.51 457,522.5C 458.351,520.981 459.851,519.648 461.5,518.5C 460.697,515.946 461.697,514.112 464.5,513C 464.167,512.667 463.833,512.333 463.5,512C 466.164,509.331 467.998,506.164 469,502.5C 470.067,501.809 471.234,501.309 472.5,501C 471.572,500.612 470.905,499.945 470.5,499C 471.593,495.373 473.593,492.373 476.5,490C 475.833,489.667 475.167,489.333 474.5,489C 476.155,486.347 478.155,484.014 480.5,482C 480.043,481.586 479.709,481.086 479.5,480.5C 481.737,478.638 482.403,476.471 481.5,474C 483.91,471.468 486.91,469.968 490.5,469.5C 489.312,468.16 487.812,467.493 486,467.5C 483.611,467.963 481.277,468.63 479,469.5C 477.416,469.012 476.249,468.012 475.5,466.5C 475.331,467.397 474.998,468.397 474.5,469.5C 473.808,468.975 473.308,468.308 473,467.5C 472,468.833 471,468.833 470,467.5C 469.333,468.167 468.667,468.833 468,469.5C 465.534,469.506 462.868,469.173 460,468.5C 458.342,468.675 457.009,469.342 456,470.5C 453.943,469.315 451.943,468.315 450,467.5C 446.914,467.932 443.748,468.265 440.5,468.5C 438.608,465.956 436.775,465.956 435,468.5C 434.707,465.046 433.374,464.712 431,467.5C 429.415,466.624 428.415,465.291 428,463.5C 426.796,464.471 426.296,465.471 426.5,466.5C 424.118,466.117 421.618,466.117 419,466.5C 416.923,465.983 414.923,465.316 413,464.5C 411.093,464.421 409.093,464.754 407,465.5C 406.311,464.643 405.478,463.977 404.5,463.5C 400.386,465.387 396.553,464.72 393,461.5C 390.525,463.752 387.859,463.752 385,461.5C 384.086,462.654 383.253,462.487 382.5,461C 383.26,459.559 383.926,458.059 384.5,456.5C 382.861,455.084 382.027,453.417 382,451.5C 384.804,450.431 387.471,449.098 390,447.5C 390.833,447.667 391.667,447.833 392.5,448C 391.304,448.654 391.304,449.154 392.5,449.5C 393.167,448.833 393.833,448.167 394.5,447.5C 395.425,448.641 396.259,448.641 397,447.5C 406.658,448.47 416.158,450.137 425.5,452.5C 427.76,450.64 430.26,450.64 433,452.5C 438.07,451.453 443.07,451.787 448,453.5C 449.649,452.102 450.982,452.436 452,454.5C 455.542,453.682 459.376,453.515 463.5,454C 464,454.5 464.5,455 465,455.5C 465.839,454.376 467.006,453.709 468.5,453.5C 473.217,454.503 477.883,454.17 482.5,452.5C 486.779,453.274 491.113,453.774 495.5,454C 496.333,454.833 497.167,455.667 498,456.5C 498.689,455.643 499.522,454.977 500.5,454.5C 501.202,456.699 502.202,459.199 503.5,462C 502.387,463.394 501.053,464.561 499.5,465.5C 498.359,466.425 498.359,467.259 499.5,468C 498.552,468.483 497.552,468.649 496.5,468.5C 494.774,472.596 495.44,476.263 498.5,479.5C 496.489,482.01 494.322,484.343 492,486.5C 491.28,488.112 491.446,489.612 492.5,491C 489.844,492.003 488.844,493.67 489.5,496C 488.809,497.067 488.309,498.234 488,499.5C 485.678,503.502 483.178,507.335 480.5,511C 480.833,511.333 481.167,511.667 481.5,512C 480.197,515.028 478.53,517.861 476.5,520.5C 476.709,521.086 477.043,521.586 477.5,522C 475.754,522.471 474.087,523.138 472.5,524C 473.576,525.726 473.743,527.559 473,529.5C 472.333,528.833 471.667,528.167 471,527.5C 470.509,531.827 468.509,535.16 465,537.5C 463.112,543.176 460.279,548.176 456.5,552.5 Z M 421.5,451.5 C 422.773,452.077 422.773,452.743 421.5,453.5C 420.537,453.03 420.537,452.363 421.5,451.5 Z M 441.5,454.5 C 442.077,453.227 442.743,453.227 443.5,454.5C 443.03,455.463 442.363,455.463 441.5,454.5 Z M 430.5,564.5 C 431.077,563.227 431.743,563.227 432.5,564.5C 432.03,565.463 431.363,565.463 430.5,564.5 Z"/></g>
<g><path style="opacity:0.353" fill="#000000" d="M 343.5,467.5 C 342.833,466.167 342.833,466.167 343.5,467.5 Z"/></g>
<g><path style="opacity:0.837" fill="#000000" d="M 420.5,491.5 C 420.631,490.761 420.464,490.094 420,489.5C 418.667,490.833 417.333,490.833 416,489.5C 415.333,492.167 414.667,492.167 414,489.5C 413.586,489.957 413.086,490.291 412.5,490.5C 412.471,489.166 411.637,487.833 410,486.5C 409.333,487.833 408.667,489.167 408,490.5C 406.512,488.18 404.679,488.013 402.5,490C 403.869,492.239 403.369,494.073 401,495.5C 397.193,501.114 392.86,507.114 388,513.5C 387.55,515.519 386.717,517.352 385.5,519C 386.744,521.303 388.411,521.803 390.5,520.5C 392.443,522.526 394.609,522.526 397,520.5C 401.184,521.858 404.684,524.191 407.5,527.5C 406.311,528.429 404.978,528.762 403.5,528.5C 403.227,530.451 403.893,531.951 405.5,533C 403.701,534.702 401.701,534.869 399.5,533.5C 396.493,535.719 393.659,535.386 391,532.5C 390.581,533.672 389.915,534.672 389,535.5C 386.051,533.796 382.885,532.462 379.5,531.5C 378.808,532.025 378.308,532.692 378,533.5C 377.098,530.196 375.764,529.862 374,532.5C 371.025,532.075 368.192,531.409 365.5,530.5C 359.467,530.203 353.133,530.203 346.5,530.5C 345.782,527.942 344.449,527.275 342.5,528.5C 341.713,526.896 340.38,526.229 338.5,526.5C 338.557,522.746 339.89,519.579 342.5,517C 347.628,516.552 352.794,516.385 358,516.5C 361.773,517.996 365.606,518.663 369.5,518.5C 370.442,518.392 371.275,518.059 372,517.5C 372.505,515.482 373.005,513.482 373.5,511.5C 376.764,511.274 377.764,509.774 376.5,507C 377.5,506.667 378.5,506.333 379.5,506C 379.167,505.667 378.833,505.333 378.5,505C 382.542,499.923 386.542,494.923 390.5,490C 389.638,487.266 388.805,487.099 388,489.5C 387.147,487.875 386.147,487.542 385,488.5C 384.544,487.256 385.044,486.423 386.5,486C 384.487,485.125 384.487,483.791 386.5,482C 380.153,482.432 374.653,480.265 370,475.5C 369.386,473.687 369.719,473.353 371,474.5C 371.71,473.027 372.876,472.36 374.5,472.5C 374.461,470.641 375.294,469.308 377,468.5C 381.666,468.944 386.333,468.944 391,468.5C 395.798,468.49 400.298,469.49 404.5,471.5C 407.633,470.48 410.466,470.48 413,471.5C 415.007,472.328 417.007,473.328 419,474.5C 421.044,473.994 423.044,473.661 425,473.5C 425.945,473.905 426.612,474.572 427,475.5C 428.049,474.483 429.216,474.316 430.5,475C 432.503,476.334 434.003,477.834 435,479.5C 436.339,482.179 437.173,484.679 437.5,487C 436.223,487.127 435.057,486.627 434,485.5C 432.726,486.535 431.56,487.702 430.5,489C 431.604,490.131 431.271,490.965 429.5,491.5C 427.675,490.429 426.508,491.096 426,493.5C 424.363,492.167 423.529,490.834 423.5,489.5C 422.482,490.193 421.482,490.859 420.5,491.5 Z"/></g>
<g><path style="opacity:0.229" fill="#000000" d="M 772.5,473.5 C 772.5,473.167 772.5,472.833 772.5,472.5C 775.167,472.833 775.167,473.167 772.5,473.5 Z"/></g>
<g><path style="opacity:0.008" fill="#000000" d="M 437.5,478.5 C 438.833,479.167 438.833,479.167 437.5,478.5 Z"/></g>
<g><path style="opacity:0.353" fill="#000000" d="M 699.5,478.5 C 700.833,479.167 700.833,479.167 699.5,478.5 Z"/></g>
<g><path style="opacity:0.053" fill="#000000" d="M 438.5,481.5 C 439.793,480.355 440.959,480.689 442,482.5C 442.667,483.5 442.667,484.5 442,485.5C 441.34,483.676 440.173,482.343 438.5,481.5 Z"/></g>
<g><path style="opacity:0.053" fill="#000000" d="M 704.5,484.5 C 708.416,485.425 708.416,486.425 704.5,487.5C 703.913,486.767 703.913,485.767 704.5,484.5 Z"/></g>
<g><path style="opacity:0.037" fill="#000000" d="M 764.5,484.5 C 766.074,486.102 766.741,488.102 766.5,490.5C 765.5,490.5 764.5,490.5 763.5,490.5C 763.833,488.5 764.167,486.5 764.5,484.5 Z"/></g>
<g><path style="opacity:0.012" fill="#000000" d="M 442.5,486.5 C 443.525,486.897 443.692,487.563 443,488.5C 442.536,487.906 442.369,487.239 442.5,486.5 Z"/></g>
<g><path style="opacity:0.075" fill="#000000" d="M 700.5,486.5 C 701.833,487.167 701.833,487.167 700.5,486.5 Z"/></g>
<g><path style="opacity:0.844" fill="#000000" d="M 501.5,595.5 C 501.103,594.475 500.437,594.308 499.5,595C 498.226,595.977 498.226,596.811 499.5,597.5C 497.59,599.562 495.257,601.062 492.5,602C 494.513,602.875 494.513,604.209 492.5,606C 491.062,606.219 489.729,606.719 488.5,607.5C 489.666,610.184 488.833,612.184 486,613.5C 485.612,612.572 484.945,611.905 484,611.5C 482.128,612.068 480.295,612.735 478.5,613.5C 474.266,609.386 473.933,604.719 477.5,599.5C 479.215,597.29 481.381,595.624 484,594.5C 487.091,589.986 490.425,585.653 494,581.5C 494.483,580.552 494.649,579.552 494.5,578.5C 495.5,578.5 496.5,578.5 497.5,578.5C 498.172,575.65 499.839,573.483 502.5,572C 502.167,571.667 501.833,571.333 501.5,571C 507.317,567.286 511.983,561.786 515.5,554.5C 519.386,553.412 519.386,552.579 515.5,552C 516.167,551.667 516.833,551.333 517.5,551C 516.313,549.981 515.313,548.814 514.5,547.5C 516.045,544.803 515.379,542.803 512.5,541.5C 512.977,540.522 513.643,539.689 514.5,539C 510.245,534.838 508.079,529.671 508,523.5C 507.031,521.266 505.698,519.266 504,517.5C 503.788,515.22 502.955,513.22 501.5,511.5C 501.709,510.914 502.043,510.414 502.5,510C 500.006,508.054 499.339,505.721 500.5,503C 499.833,501.333 499.167,499.667 498.5,498C 499.167,497.333 499.833,496.667 500.5,496C 499.446,494.612 499.28,493.112 500,491.5C 500.333,492.5 500.667,493.5 501,494.5C 502.074,493.382 503.24,492.382 504.5,491.5C 503.494,490.604 503.494,489.938 504.5,489.5C 506.146,490.779 507.313,492.445 508,494.5C 508.333,494.167 508.667,493.833 509,493.5C 516.229,513.186 523.229,532.519 530,551.5C 530.465,552.931 531.299,554.097 532.5,555C 531.788,556.425 531.621,557.925 532,559.5C 531.667,559.167 531.333,558.833 531,558.5C 530.667,559.5 530.333,560.5 530,561.5C 528.927,560.72 527.76,560.887 526.5,562C 527.183,564.983 525.849,566.983 522.5,568C 523.956,568.423 524.456,569.256 524,570.5C 523.107,569.289 522.274,569.289 521.5,570.5C 518.42,574.975 515.087,579.308 511.5,583.5C 510.914,583.291 510.414,582.957 510,582.5C 508.057,586.608 505.224,589.942 501.5,592.5C 502.653,593.687 502.653,594.687 501.5,595.5 Z"/></g>
<g><path style="opacity:0.286" fill="#000000" d="M 386.5,491.5 C 387.833,492.167 387.833,492.167 386.5,491.5 Z"/></g>
<g><path style="opacity:0.208" fill="#000000" d="M 420.5,491.5 C 419.833,492.167 419.833,492.167 420.5,491.5 Z"/></g>
<g><path style="opacity:0.051" fill="#000000" d="M 749.5,491.5 C 748.833,492.167 748.833,492.167 749.5,491.5 Z"/></g>
<g><path style="opacity:0.224" fill="#000000" d="M 700.5,492.5 C 701.833,493.167 701.833,493.167 700.5,492.5 Z"/></g>
<g><path style="opacity:0.082" fill="#000000" d="M 743.5,494.5 C 742.833,493.167 742.833,493.167 743.5,494.5 Z"/></g>
<g><path style="opacity:0.757" fill="#000000" d="M 1006.5,494.5 C 1007.79,495.058 1008.62,496.058 1009,497.5C 1011.19,494.751 1012.86,495.085 1014,498.5C 1016.5,496.353 1018.84,496.353 1021,498.5C 1023.23,494.622 1025.4,494.622 1027.5,498.5C 1028.45,498.013 1029.45,497.68 1030.5,497.5C 1033.25,498.269 1036.09,499.603 1039,501.5C 1039.33,500.833 1039.67,500.167 1040,499.5C 1041.85,502.138 1044.35,503.138 1047.5,502.5C 1047.69,504.263 1047.69,506.097 1047.5,508C 1048.83,509.637 1050.17,510.471 1051.5,510.5C 1050.62,511.971 1049.29,512.804 1047.5,513C 1048.52,514.049 1048.68,515.216 1048,516.5C 1046.11,517.097 1044.28,517.431 1042.5,517.5C 1041.17,516.5 1039.83,515.5 1038.5,514.5C 1037.5,515.167 1036.5,515.833 1035.5,516.5C 1034.64,513.58 1032.97,512.58 1030.5,513.5C 1029.52,513.023 1028.69,512.357 1028,511.5C 1027.28,512.059 1026.44,512.392 1025.5,512.5C 1017.62,511.88 1009.78,511.214 1002,510.5C 997.517,511.83 993.35,513.83 989.5,516.5C 987.065,514.721 986.065,515.387 986.5,518.5C 984.897,518.312 983.563,518.812 982.5,520C 983.167,520.333 983.833,520.667 984.5,521C 983.257,522.154 982.257,523.488 981.5,525C 980.551,525.617 979.718,525.451 979,524.5C 978.358,526.762 977.525,528.929 976.5,531C 977.552,532.716 976.886,533.716 974.5,534C 974.215,537.434 974.715,540.934 976,544.5C 976.333,544.167 976.667,543.833 977,543.5C 977.923,544.759 978.757,546.092 979.5,547.5C 980.72,546.289 981.887,546.289 983,547.5C 983.689,546.643 984.522,545.977 985.5,545.5C 985.833,546.833 986.167,548.167 986.5,549.5C 988.588,547.608 990.921,546.108 993.5,545C 995.394,543.921 995.727,542.587 994.5,541C 997.028,540.331 997.028,539.498 994.5,538.5C 992.405,539.229 990.572,538.563 989,536.5C 988.439,537.022 987.772,537.355 987,537.5C 985.7,536.293 984.2,535.626 982.5,535.5C 980.594,532.052 981.261,529.219 984.5,527C 984.043,526.586 983.709,526.086 983.5,525.5C 986.358,523.119 989.692,522.285 993.5,523C 995.49,525.384 997.824,526.217 1000.5,525.5C 1002.36,526.528 1003.69,528.028 1004.5,530C 1005.45,530.483 1006.45,530.649 1007.5,530.5C 1008.92,536.876 1008.76,543.209 1007,549.5C 1003,551.824 1000.17,555.157 998.5,559.5C 997.188,558.54 995.854,558.706 994.5,560C 994.833,560.333 995.167,560.667 995.5,561C 981.407,563.766 970.073,559.6 961.5,548.5C 962.025,547.808 962.692,547.308 963.5,547C 962.692,546.692 962.025,546.192 961.5,545.5C 962.048,540.887 962.215,536.22 962,531.5C 964.109,530.965 964.609,529.965 963.5,528.5C 964.025,527.808 964.692,527.308 965.5,527C 964.802,526.029 964.802,524.863 965.5,523.5C 967.123,520.045 968.957,516.712 971,513.5C 977.089,507.548 983.755,502.548 991,498.5C 995.039,497.666 999.372,497.666 1004,498.5C 1005.09,497.307 1005.93,495.973 1006.5,494.5 Z"/></g>
<g><path style="opacity:0.341" fill="#000000" d="M 783.5,498.5 C 782.833,497.167 782.833,497.167 783.5,498.5 Z"/></g>
<g><path style="opacity:0.282" fill="#000000" d="M 699.5,499.5 C 700.833,500.167 700.833,500.167 699.5,499.5 Z"/></g>
<g><path style="opacity:0.771" fill="#000000" d="M 895.5,499.5 C 896.721,500.028 897.887,500.695 899,501.5C 900.796,500.233 902.629,500.233 904.5,501.5C 905.748,500.96 906.915,500.293 908,499.5C 908.284,501.886 909.284,502.552 911,501.5C 912.086,503.847 913.419,503.847 915,501.5C 915.945,501.905 916.612,502.572 917,503.5C 917.308,502.692 917.808,502.025 918.5,501.5C 919.333,502.5 920.167,503.5 921,504.5C 922.333,503.167 923.667,503.167 925,504.5C 925.333,503.833 925.667,503.167 926,502.5C 927.717,503.455 929.384,504.455 931,505.5C 933.015,505.967 935.182,505.967 937.5,505.5C 940.676,509.035 941.343,513.035 939.5,517.5C 935.036,517.942 930.869,518.275 927,518.5C 925.285,516.093 923.118,515.426 920.5,516.5C 917.911,514.843 915.244,514.509 912.5,515.5C 909.961,514.885 907.461,514.218 905,513.5C 902,514.833 899,514.833 896,513.5C 894.209,515.513 892.875,515.513 892,513.5C 890.173,515.462 888.173,516.129 886,515.5C 884.073,516.861 881.906,517.694 879.5,518C 880.517,519.049 880.684,520.216 880,521.5C 878.192,521.112 876.525,521.112 875,521.5C 873.493,522.505 872.327,523.838 871.5,525.5C 869.786,524.391 869.119,525.058 869.5,527.5C 867.857,527.48 866.524,528.147 865.5,529.5C 864.723,531.777 863.723,533.943 862.5,536C 864.013,537.879 864.679,540.046 864.5,542.5C 867.926,542.757 870.426,544.423 872,547.5C 874.557,546.354 875.89,547.354 876,550.5C 878.26,548.003 879.593,548.67 880,552.5C 882.312,551.869 884.812,551.869 887.5,552.5C 888.833,551.5 890.167,550.5 891.5,549.5C 892.086,549.709 892.586,550.043 893,550.5C 894.444,548.845 896.278,548.178 898.5,548.5C 898.146,546.459 898.146,544.626 898.5,543C 892.164,540.136 885.498,538.803 878.5,539C 872.123,535.97 872.123,533.303 878.5,531C 878.167,530.667 877.833,530.333 877.5,530C 880.706,528.316 884.039,526.816 887.5,525.5C 889.055,527.146 890.721,527.479 892.5,526.5C 893.167,527.167 893.833,527.833 894.5,528.5C 895.963,528.368 897.463,528.035 899,527.5C 900.722,527.611 900.888,528.111 899.5,529C 906.941,530.608 911.608,535.108 913.5,542.5C 912.529,543.962 912.862,545.295 914.5,546.5C 912.914,548.923 911.914,551.59 911.5,554.5C 910.088,555.806 908.421,556.64 906.5,557C 908.929,557.451 909.096,558.285 907,559.5C 905.951,558.483 904.784,558.316 903.5,559C 898.815,561.625 894.315,563.791 890,565.5C 888,564.167 886,564.167 884,565.5C 882.024,564.039 880.024,563.706 878,564.5C 876.018,564.01 874.351,563.01 873,561.5C 872.667,561.833 872.333,562.167 872,562.5C 868.58,560.754 865.413,558.587 862.5,556C 855.742,554.576 851.575,550.409 850,543.5C 849.692,544.308 849.192,544.975 848.5,545.5C 847.253,543.994 847.253,542.494 848.5,541C 847.692,540.692 847.025,540.192 846.5,539.5C 847.5,538.833 848.5,538.167 849.5,537.5C 849.013,536.554 848.68,535.554 848.5,534.5C 850.439,530.956 852.105,527.289 853.5,523.5C 854.5,523 855.5,522.5 856.5,522C 855.289,521.107 855.289,520.274 856.5,519.5C 857.086,519.709 857.586,520.043 858,520.5C 858.284,518.114 859.284,517.448 861,518.5C 861.309,517.234 861.809,516.067 862.5,515C 870.965,509.434 879.965,504.934 889.5,501.5C 891.129,502.423 892.629,502.757 894,502.5C 894.513,501.473 895.013,500.473 895.5,499.5 Z"/></g>
<g><path style="opacity:0.353" fill="#000000" d="M 310.5,502.5 C 311.833,503.167 311.833,503.167 310.5,502.5 Z"/></g>
<g><path style="opacity:0.533" fill="#000000" d="M 375.5,508.5 C 376.833,509.167 376.833,509.167 375.5,508.5 Z"/></g>
<g><path style="opacity:0.106" fill="#000000" d="M 774.5,508.5 C 774.833,508.5 775.167,508.5 775.5,508.5C 775.315,509.17 774.981,509.17 774.5,508.5 Z"/></g>
<g><path style="opacity:0.592" fill="#000000" d="M 373.5,511.5 C 372.833,510.167 372.833,510.167 373.5,511.5 Z"/></g>
<g><path style="opacity:0.447" fill="#000000" d="M 770.5,515.5 C 769.833,514.167 769.833,514.167 770.5,515.5 Z"/></g>
<g><path style="opacity:0.522" fill="#000000" d="M 738.5,515.5 C 739.833,516.167 739.833,516.167 738.5,515.5 Z"/></g>
<g><path style="opacity:0.149" fill="#000000" d="M 296.5,516.5 C 297.833,517.167 297.833,517.167 296.5,516.5 Z"/></g>
<g><path style="opacity:0.09" fill="#000000" d="M 683.5,518.5 C 682.833,519.167 682.833,519.167 683.5,518.5 Z"/></g>
<g><path style="opacity:0.416" fill="#000000" d="M 811.5,519.5 C 812.833,520.167 812.833,520.167 811.5,519.5 Z"/></g>
<g><path style="opacity:0.133" fill="#000000" d="M 810.5,520.5 C 810.833,520.5 811.167,520.5 811.5,520.5C 811.315,521.17 810.981,521.17 810.5,520.5 Z"/></g>
<g><path style="opacity:0.156" fill="#000000" d="M 408.5,527.5 C 409.077,526.227 409.743,526.227 410.5,527.5C 410.03,528.463 409.363,528.463 408.5,527.5 Z"/></g>
<g><path style="opacity:0.149" fill="#000000" d="M 342.5,528.5 C 341.833,529.167 341.833,529.167 342.5,528.5 Z"/></g>
<g><path style="opacity:0.22" fill="#000000" d="M 638.5,528.5 C 639.833,529.167 639.833,529.167 638.5,528.5 Z"/></g>
<g><path style="opacity:0.337" fill="#000000" d="M 365.5,530.5 C 365.631,531.239 365.464,531.906 365,532.5C 364.308,531.563 364.475,530.897 365.5,530.5 Z"/></g>
<g><path style="opacity:0.008" fill="#000000" d="M 414.5,537.5 C 415.833,538.167 415.833,538.167 414.5,537.5 Z"/></g>
<g><path style="opacity:0.129" fill="#000000" d="M 415.5,539.5 C 416.833,540.167 416.833,540.167 415.5,539.5 Z"/></g>
<g><path style="opacity:0.804" fill="#000000" d="M 339.5,546.5 C 346.428,546.094 353.261,546.094 360,546.5C 361.333,547.167 362.333,548.167 363,549.5C 363.689,548.643 364.522,547.977 365.5,547.5C 367.737,547.694 369.903,547.694 372,547.5C 372.308,548.308 372.808,548.975 373.5,549.5C 374.72,548.289 375.887,548.289 377,549.5C 377.915,548.672 378.581,547.672 379,546.5C 380.507,548.008 382.173,549.341 384,550.5C 384.999,546.763 386.332,546.763 388,550.5C 388.308,549.692 388.808,549.025 389.5,548.5C 390.77,549.562 391.937,550.562 393,551.5C 399.006,550.168 404.672,550.168 410,551.5C 411.205,552.071 412.372,552.738 413.5,553.5C 413.64,554.903 413.64,556.403 413.5,558C 418.206,557.774 419.039,558.941 416,561.5C 415.667,562.833 415.333,564.167 415,565.5C 414.667,565.167 414.333,564.833 414,564.5C 409.81,567.936 405.31,568.269 400.5,565.5C 398.602,566.734 396.935,566.401 395.5,564.5C 393.518,565.623 391.518,565.623 389.5,564.5C 389.167,563.167 388.833,563.167 388.5,564.5C 387.348,563.375 386.348,563.375 385.5,564.5C 383.983,564.489 382.816,563.823 382,562.5C 378.45,562.572 374.95,562.905 371.5,563.5C 367.966,562.869 364.466,562.202 361,561.5C 358.58,562.488 356.247,562.155 354,560.5C 347.6,560.695 341.433,561.029 335.5,561.5C 334.483,558.972 333.316,558.972 332,561.5C 327.297,561.199 322.63,559.866 318,557.5C 315.183,557.923 312.35,558.256 309.5,558.5C 305.383,558.183 301.549,557.183 298,555.5C 296.512,557.82 294.679,557.987 292.5,556C 293.34,554.334 292.84,554.167 291,555.5C 290.167,554 289,552.833 287.5,552C 289.991,551.374 289.991,550.541 287.5,549.5C 288.531,548.3 289.365,546.966 290,545.5C 292.391,546.602 292.891,545.936 291.5,543.5C 292.274,542.289 293.107,542.289 294,543.5C 294.934,540.035 296.434,539.702 298.5,542.5C 304.17,543.001 309.67,543.001 315,542.5C 317.011,546.002 318.344,546.002 319,542.5C 322.462,542.983 322.962,544.15 320.5,546C 321.996,546.507 323.163,546.007 324,544.5C 325.851,546.781 327.518,546.781 329,544.5C 329.915,545.328 330.581,546.328 331,547.5C 332.38,544.942 333.88,544.942 335.5,547.5C 336.905,547.24 338.238,546.907 339.5,546.5 Z"/></g>
<g><path style="opacity:0.186" fill="#000000" d="M 648.5,542.5 C 649.239,542.369 649.906,542.536 650.5,543C 649.563,543.692 648.897,543.525 648.5,542.5 Z"/></g>
<g><path style="opacity:0.037" fill="#000000" d="M 545.5,544.5 C 549.37,545.022 549.87,546.022 547,547.5C 545.961,546.756 545.461,545.756 545.5,544.5 Z"/></g>
<g><path style="opacity:0.504" fill="#000000" d="M 642.5,545.5 C 643.386,544.224 644.386,544.224 645.5,545.5C 644.575,546.562 643.575,546.562 642.5,545.5 Z"/></g>
<g><path style="opacity:0.333" fill="#000000" d="M 339.5,546.5 C 338.833,545.167 338.833,545.167 339.5,546.5 Z"/></g>
<g><path style="opacity:0.557" fill="#000000" d="M 683.5,549.5 C 682.833,548.167 682.833,548.167 683.5,549.5 Z"/></g>
<g><path style="opacity:0.051" fill="#000000" d="M 456.5,552.5 C 455.833,553.167 455.833,553.167 456.5,552.5 Z"/></g>
<g><path style="opacity:0.047" fill="#000000" d="M 414.5,553.5 C 415.833,554.167 415.833,554.167 414.5,553.5 Z"/></g>
<g><path style="opacity:0.129" fill="#000000" d="M 695.5,554.5 C 696.239,554.369 696.906,554.536 697.5,555C 696.563,555.692 695.897,555.525 695.5,554.5 Z"/></g>
<g><path style="opacity:0.818" fill="#000000" d="M 287.5,555.5 C 289.412,556.98 290.579,558.98 291,561.5C 291.317,559.699 291.984,559.366 293,560.5C 293.929,564.244 293.429,567.744 291.5,571C 293.283,572.067 293.783,573.567 293,575.5C 288.946,585.884 283.613,595.55 277,604.5C 276.316,605.784 276.483,606.951 277.5,608C 276.12,609.324 275.786,610.657 276.5,612C 274.992,613.507 273.659,615.173 272.5,617C 272.833,617.333 273.167,617.667 273.5,618C 271.209,619.857 268.876,621.023 266.5,621.5C 264.67,621.224 263.003,620.557 261.5,619.5C 262.833,618.167 262.833,616.833 261.5,615.5C 261.982,609.869 263.648,604.369 266.5,599C 266.167,598.667 265.833,598.333 265.5,598C 266.967,596.902 267.801,595.402 268,593.5C 268.903,592.299 270.069,591.465 271.5,591C 270.549,590.282 270.383,589.449 271,588.5C 276.324,582.961 279.324,576.295 280,568.5C 280.75,567.874 281.584,567.374 282.5,567C 282.096,564.731 281.929,562.231 282,559.5C 284.463,558.968 286.297,557.634 287.5,555.5 Z"/></g>
<g><path style="opacity:0.22" fill="#000000" d="M 449.5,559.5 C 449.833,559.5 450.167,559.5 450.5,559.5C 450.315,560.17 449.981,560.17 449.5,559.5 Z"/></g>
<g><path style="opacity:0.31" fill="#000000" d="M 385.5,564.5 C 386.833,565.167 386.833,565.167 385.5,564.5 Z"/></g>
<g><path style="opacity:0.176" fill="#000000" d="M 388.5,564.5 C 388.833,564.5 389.167,564.5 389.5,564.5C 389.315,565.17 388.981,565.17 388.5,564.5 Z"/></g>
<g><path style="opacity:0.273" fill="#000000" d="M 764.5,569.5 C 765.289,569.783 765.956,570.283 766.5,571C 765.184,571.528 764.517,571.028 764.5,569.5 Z"/></g>
<g><path style="opacity:0.762" fill="#000000" d="M 828.5,619.5 C 831.248,618.065 832.914,615.732 833.5,612.5C 835.665,610.296 838.332,608.962 841.5,608.5C 850.012,609.515 856.179,613.848 860,621.5C 860.617,622.449 860.451,623.282 859.5,624C 863.3,629.694 862.966,635.361 858.5,641C 858.833,641.333 859.167,641.667 859.5,642C 857.639,645.401 855.305,648.401 852.5,651C 852.833,651.333 853.167,651.667 853.5,652C 851.974,653.887 849.974,654.887 847.5,655C 848.727,656.587 848.394,657.921 846.5,659C 845.167,659.333 843.833,659.667 842.5,660C 838.186,664.824 833.019,667.324 827,667.5C 824.426,667.073 821.926,667.073 819.5,667.5C 816.965,665.83 814.799,663.83 813,661.5C 812.465,663.271 811.631,663.604 810.5,662.5C 810.709,661.914 811.043,661.414 811.5,661C 809.61,659.109 808.11,656.942 807,654.5C 806.772,650.134 805.939,645.967 804.5,642C 804.811,638.466 804.811,634.966 804.5,631.5C 804.818,630.353 805.484,629.519 806.5,629C 805.572,628.612 804.905,627.945 804.5,627C 804.229,623.562 804.562,620.062 805.5,616.5C 809.311,616.404 809.311,615.738 805.5,614.5C 806.242,612.65 807.242,611.984 808.5,612.5C 807.833,611.833 807.167,611.167 806.5,610.5C 808.98,609.585 809.647,608.085 808.5,606C 809.167,605.667 809.833,605.333 810.5,605C 809.275,602.371 809.608,599.871 811.5,597.5C 812.086,597.709 812.586,598.043 813,598.5C 813.465,597.069 814.299,595.903 815.5,595C 815.043,594.586 814.709,594.086 814.5,593.5C 816.076,591.423 818.076,589.923 820.5,589C 820.167,588.667 819.833,588.333 819.5,588C 823.173,584.331 827.173,580.998 831.5,578C 836.961,575.412 842.295,573.245 847.5,571.5C 848.593,573.77 850.093,574.103 852,572.5C 852.702,573.795 853.369,575.128 854,576.5C 854.893,575.289 855.726,575.289 856.5,576.5C 855.653,577.845 854.487,578.845 853,579.5C 852.508,580.549 852.674,581.549 853.5,582.5C 851.163,583.517 849.496,585.184 848.5,587.5C 847.349,588.731 846.183,588.731 845,587.5C 842.932,589.562 840.432,590.728 837.5,591C 833.188,594.952 828.521,599.285 823.5,604C 823.833,604.333 824.167,604.667 824.5,605C 822.462,606.236 821.295,608.069 821,610.5C 820.535,615.855 819.369,621.022 817.5,626C 817.923,628.817 818.256,631.65 818.5,634.5C 817.975,635.192 817.308,635.692 816.5,636C 817.069,639.772 818.069,643.772 819.5,648C 818.639,650.995 819.972,652.495 823.5,652.5C 837.124,650.15 845.791,642.817 849.5,630.5C 848.42,628.004 847.086,625.67 845.5,623.5C 844.808,624.025 844.308,624.692 844,625.5C 839.393,624.283 838.559,625.617 841.5,629.5C 839.525,630.788 839.525,632.455 841.5,634.5C 839.509,637.494 837.509,640.494 835.5,643.5C 830.443,639.051 827.443,633.384 826.5,626.5C 826.901,624.566 827.901,623.066 829.5,622C 827.381,621.658 827.047,620.825 828.5,619.5 Z"/></g>
<g><path style="opacity:0.378" fill="#000000" d="M 452.5,574.5 C 451.475,574.103 451.308,573.437 452,572.5C 452.464,573.094 452.631,573.761 452.5,574.5 Z"/></g>
<g><path style="opacity:0.145" fill="#000000" d="M 452.5,575.5 C 452.5,575.167 452.5,574.833 452.5,574.5C 453.363,573.537 454.03,573.537 454.5,574.5C 454.043,575.298 453.376,575.631 452.5,575.5 Z"/></g>
<g><path style="opacity:0.824" fill="#000000" d="M 452.5,575.5 C 453.446,576.931 454.612,578.264 456,579.5C 456.273,581.101 456.773,582.601 457.5,584C 457.043,584.414 456.709,584.914 456.5,585.5C 458.87,587.688 459.537,590.188 458.5,593C 459.502,594.672 460.668,595.838 462,596.5C 462.658,598.108 462.158,599.275 460.5,600C 462,600.833 463.167,602 464,603.5C 464.236,606.208 465.069,608.708 466.5,611C 466.265,611.873 465.931,612.707 465.5,613.5C 467.076,615.577 469.076,617.077 471.5,618C 469.861,621.098 468.527,624.264 467.5,627.5C 466.209,627.263 465.209,627.596 464.5,628.5C 463.167,628.833 463.167,629.167 464.5,629.5C 464.483,631.028 463.816,631.528 462.5,631C 455.344,625.187 451.51,617.687 451,608.5C 449.006,603.488 446.839,598.654 444.5,594C 444.5,591.667 444.5,589.333 444.5,587C 442.38,585.477 442.047,583.644 443.5,581.5C 441.603,580.332 441.436,578.665 443,576.5C 443.333,577.167 443.667,577.833 444,578.5C 445.067,577.809 446.234,577.309 447.5,577C 448.833,576.333 448.833,575.667 447.5,575C 449.197,574.616 450.863,574.782 452.5,575.5 Z"/></g>
<g><path style="opacity:0.631" fill="#000000" d="M 445.5,575.5 C 446.833,576.167 446.833,576.167 445.5,575.5 Z"/></g>
<g><path style="opacity:0.173" fill="#000000" d="M 691.5,582.5 C 692.833,583.167 692.833,583.167 691.5,582.5 Z"/></g>
<g><path style="opacity:0.02" fill="#000000" d="M 789.5,594.5 C 790.773,595.077 790.773,595.743 789.5,596.5C 788.537,596.03 788.537,595.363 789.5,594.5 Z"/></g>
<g><path style="opacity:0.267" fill="#000000" d="M 501.5,595.5 C 501.5,596.833 500.833,597.5 499.5,597.5C 499.833,596.5 500.5,595.833 501.5,595.5 Z"/></g>
<g><path style="opacity:0.4" fill="#000000" d="M 472.5,606.5 C 473.833,607.167 473.833,607.167 472.5,606.5 Z"/></g>
<g><path style="opacity:0.041" fill="#000000" d="M 828.5,619.5 C 827.227,618.923 827.227,618.257 828.5,617.5C 829.463,617.97 829.463,618.637 828.5,619.5 Z"/></g>
<g><path style="opacity:0.814" fill="#000000" d="M 360.5,621.5 C 363.113,622.636 365.613,622.302 368,620.5C 368.853,622.125 369.853,622.458 371,621.5C 372.11,623.037 373.61,623.703 375.5,623.5C 375.351,622.448 375.517,621.448 376,620.5C 378.058,621.109 378.891,622.109 378.5,623.5C 379.518,622.807 380.518,622.141 381.5,621.5C 381.783,622.289 382.283,622.956 383,623.5C 385.333,623.5 387.667,623.5 390,623.5C 390.804,622.196 391.971,621.529 393.5,621.5C 399.937,622.624 406.437,622.624 413,621.5C 414.943,623.715 416.609,623.715 418,621.5C 419.729,623.434 421.729,623.434 424,621.5C 425.085,622.293 426.252,622.96 427.5,623.5C 429.804,623.691 432.138,623.357 434.5,622.5C 434.351,623.552 434.517,624.552 435,625.5C 436.5,622.108 438.333,621.441 440.5,623.5C 439.68,627.158 441.013,629.491 444.5,630.5C 440.673,637.489 435.173,639.489 428,636.5C 426.846,638.957 425.512,638.957 424,636.5C 423.667,637.167 423.333,637.833 423,638.5C 420.667,637.167 418.333,637.167 416,638.5C 415.333,637.833 414.667,637.167 414,636.5C 404.153,636.344 394.153,636.678 384,637.5C 382.667,636.833 381.333,636.167 380,635.5C 367.055,636.828 354.889,637.495 343.5,637.5C 343.704,636.471 343.204,635.471 342,634.5C 341.02,635.981 339.853,637.315 338.5,638.5C 334.588,638.366 330.755,638.032 327,637.5C 326.333,638.167 325.667,638.833 325,639.5C 324,638.167 323,638.167 322,639.5C 320.54,637.578 318.873,636.911 317,637.5C 315.915,638.293 314.748,638.96 313.5,639.5C 311.275,638.899 309.109,638.566 307,638.5C 303.993,640.491 300.827,640.491 297.5,638.5C 294.985,639.577 292.485,640.577 290,641.5C 289,640.833 288,640.167 287,639.5C 285.077,640.316 283.077,640.983 281,641.5C 270.964,640.939 260.797,640.939 250.5,641.5C 249.904,640.284 249.737,638.951 250,637.5C 247.609,638.602 247.109,637.936 248.5,635.5C 247.5,634.667 246.5,633.833 245.5,633C 247.729,631.515 250.062,630.182 252.5,629C 251.167,628.333 251.167,627.667 252.5,627C 254.134,626.506 255.801,626.34 257.5,626.5C 257.459,630.243 258.126,630.41 259.5,627C 261.698,626.627 263.865,626.127 266,625.5C 266.945,625.905 267.612,626.572 268,627.5C 268.689,626.643 269.522,625.977 270.5,625.5C 271.598,626.615 272.765,626.615 274,625.5C 276.075,627.623 278.075,627.29 280,624.5C 280.833,625.5 281.667,626.5 282.5,627.5C 282.489,626.559 282.989,625.892 284,625.5C 288.036,626.299 291.869,625.633 295.5,623.5C 298.743,624.015 301.576,625.348 304,627.5C 305,626.5 306,625.5 307,624.5C 307.333,625.167 307.667,625.833 308,626.5C 308.595,622.918 309.929,622.584 312,625.5C 313.242,624.128 314.742,623.128 316.5,622.5C 319.649,625.106 322.816,625.106 326,622.5C 327.261,622.759 328.261,623.426 329,624.5C 329.667,621.833 330.333,621.833 331,624.5C 331.915,623.672 332.581,622.672 333,621.5C 335.197,623.731 337.53,623.731 340,621.5C 341.333,622.167 342.333,623.167 343,624.5C 345.04,620.554 347.04,620.554 349,624.5C 349.417,623.244 350.25,622.577 351.5,622.5C 351.369,623.239 351.536,623.906 352,624.5C 353.706,623.692 354.539,622.359 354.5,620.5C 356.484,620.383 358.15,621.05 359.5,622.5C 360.107,622.376 360.44,622.043 360.5,621.5 Z"/></g>
<g><path style="opacity:0.4" fill="#000000" d="M 360.5,621.5 C 359.833,620.167 359.833,620.167 360.5,621.5 Z"/></g>
<g><path style="opacity:0.051" fill="#000000" d="M 381.5,620.5 C 382.833,621.167 382.833,621.167 381.5,620.5 Z"/></g>
<g><path style="opacity:0.212" fill="#000000" d="M 351.5,621.5 C 352.833,622.167 352.833,622.167 351.5,621.5 Z"/></g>
<g><path style="opacity:0.263" fill="#000000" d="M 373.5,621.5 C 374.833,622.167 374.833,622.167 373.5,621.5 Z"/></g>
<g><path style="opacity:0.233" fill="#000000" d="M 440.5,623.5 C 440.897,622.475 441.563,622.308 442.5,623C 441.906,623.464 441.239,623.631 440.5,623.5 Z"/></g>
<g><path style="opacity:0.004" fill="#000000" d="M 762.5,623.5 C 763.833,624.167 763.833,624.167 762.5,623.5 Z"/></g>
<g><path style="opacity:0.094" fill="#000000" d="M 759.5,624.5 C 761.465,624.948 761.798,625.948 760.5,627.5C 759.5,627 758.5,626.5 757.5,626C 758.416,625.722 759.082,625.222 759.5,624.5 Z"/></g>
<g><path style="opacity:0.206" fill="#000000" d="M 464.5,629.5 C 464.5,629.167 464.5,628.833 464.5,628.5C 467.167,628.833 467.167,629.167 464.5,629.5 Z"/></g>
<g><path style="opacity:0.082" fill="#000000" d="M 244.5,634.5 C 245.833,635.167 245.833,635.167 244.5,634.5 Z"/></g>
</svg>
