<?xml version="1.0" encoding="UTF-8"?>
<!DOCTYPE svg PUBLIC "-//W3C//DTD SVG 1.1//EN" "http://www.w3.org/Graphics/SVG/1.1/DTD/svg11.dtd">
<svg xmlns="http://www.w3.org/2000/svg" version="1.1" width="1133px" height="496px" style="shape-rendering:geometricPrecision; text-rendering:geometricPrecision; image-rendering:optimizeQuality; fill-rule:evenodd; clip-rule:evenodd" xmlns:xlink="http://www.w3.org/1999/xlink">
<g><path style="opacity:0.843" fill="#000000" d="M 901.5,-0.5 C 901.833,-0.5 902.167,-0.5 902.5,-0.5C 904.246,0.217615 904.912,1.21762 904.5,2.5C 907.57,0.377135 910.57,0.710468 913.5,3.5C 914.086,3.29069 914.586,2.95735 915,2.5C 922.398,6.60596 928.898,11.7726 934.5,18C 935.766,18.3095 936.933,18.8095 938,19.5C 941.26,23.7539 944.093,28.2539 946.5,33C 946.167,34 945.833,35 945.5,36C 946.191,37.0674 946.691,38.2341 947,39.5C 947.667,38.1667 948.333,38.1667 949,39.5C 949.601,41.1368 950.101,42.8034 950.5,44.5C 950.183,47.9555 949.85,51.7888 949.5,56C 950.538,59.6779 951.205,63.1779 951.5,66.5C 951.023,67.4776 950.357,68.3109 949.5,69C 949.766,72.8669 949.766,76.7002 949.5,80.5C 947.018,84.2993 945.018,88.2993 943.5,92.5C 940.215,100.224 935.548,107.058 929.5,113C 920.828,114.778 912.828,118.111 905.5,123C 902.654,123.393 900.154,123.226 898,122.5C 895.333,123.167 892.667,123.833 890,124.5C 888.326,122.991 886.66,122.324 885,122.5C 884.689,124.556 884.189,126.556 883.5,128.5C 882.858,133.761 882.858,138.928 883.5,144C 881.783,147.773 881.45,151.606 882.5,155.5C 883.5,154.833 884.5,154.167 885.5,153.5C 886.192,154.025 886.692,154.692 887,155.5C 888.506,152.526 890.172,152.193 892,154.5C 893.758,153.531 894.258,152.364 893.5,151C 896.591,151.643 899.425,150.81 902,148.5C 903.147,149.458 904.147,149.125 905,147.5C 905.333,147.833 905.667,148.167 906,148.5C 906.605,146.519 907.605,146.185 909,147.5C 911.271,145.566 913.271,145.566 915,147.5C 915.374,146.584 915.874,145.75 916.5,145C 918.871,144.265 921.205,143.432 923.5,142.5C 924.086,142.709 924.586,143.043 925,143.5C 927.525,140.785 930.358,139.785 933.5,140.5C 934.458,140.047 935.292,139.381 936,138.5C 937.087,140.932 937.587,140.598 937.5,137.5C 944.489,135.435 951.156,133.435 957.5,131.5C 958.052,133.331 958.052,134.997 957.5,136.5C 958.491,137.665 959.491,138.832 960.5,140C 959.564,143.505 957.564,146.171 954.5,148C 951.382,148.873 948.382,150.039 945.5,151.5C 944.914,151.291 944.414,150.957 944,150.5C 942.054,152.994 939.721,153.661 937,152.5C 935.179,154.287 933.012,155.62 930.5,156.5C 929.833,156.167 929.167,155.833 928.5,155.5C 923.591,158.025 918.591,160.359 913.5,162.5C 911.297,162.413 909.13,162.413 907,162.5C 901.602,165.105 895.935,167.105 890,168.5C 887.432,167.132 885.099,167.466 883,169.5C 881.338,167.427 879.671,166.094 878,165.5C 877.754,170.372 877.254,175.205 876.5,180C 876.735,180.873 877.069,181.707 877.5,182.5C 876.306,184.891 875.306,187.224 874.5,189.5C 874.727,191.671 875.06,193.838 875.5,196C 873.875,196.853 873.542,197.853 874.5,199C 873.601,201.192 872.601,203.358 871.5,205.5C 872.902,206.842 872.569,207.676 870.5,208C 870.5,210.333 870.5,212.667 870.5,215C 868.193,215.354 867.859,216.354 869.5,218C 869.097,219.473 868.43,220.806 867.5,222C 868.024,225.285 868.024,228.785 867.5,232.5C 868.325,233.386 869.325,233.719 870.5,233.5C 870.263,234.791 870.596,235.791 871.5,236.5C 870.683,238.308 871.35,239.808 873.5,241C 872.672,241.915 871.672,242.581 870.5,243C 871.574,243.739 872.241,244.739 872.5,246C 871.77,253.353 871.77,260.353 872.5,267C 870.417,271.246 870.417,275.58 872.5,280C 873.081,281.865 872.414,283.531 870.5,285C 872.356,287.606 872.356,290.44 870.5,293.5C 871.246,294.736 871.579,296.07 871.5,297.5C 872.5,297.5 873.5,297.5 874.5,297.5C 874.56,298.043 874.893,298.376 875.5,298.5C 876.773,297.743 876.773,297.077 875.5,296.5C 876.751,294.78 878.251,294.447 880,295.5C 881.637,294.167 882.471,292.834 882.5,291.5C 883.086,291.709 883.586,292.043 884,292.5C 884.469,290.892 885.135,289.225 886,287.5C 886.423,288.956 887.256,289.456 888.5,289C 888.727,287.865 889.06,286.698 889.5,285.5C 890.167,285.833 890.833,286.167 891.5,286.5C 893.67,284.914 896.004,283.58 898.5,282.5C 899.029,284.512 900.696,286.012 903.5,287C 902.167,288.333 902.167,289.667 903.5,291C 899.16,295.673 894.494,300.006 889.5,304C 888.167,304.333 886.833,304.667 885.5,305C 883.874,307.628 881.874,309.961 879.5,312C 876.303,312.759 873.303,313.593 870.5,314.5C 867.674,314.176 865.174,313.176 863,311.5C 862.282,312.451 861.449,312.617 860.5,312C 859.939,310.324 858.939,308.991 857.5,308C 859.924,305.446 859.924,302.946 857.5,300.5C 857.977,299.522 858.643,298.689 859.5,298C 858.167,297.667 856.833,297.333 855.5,297C 857.948,294.426 857.948,291.926 855.5,289.5C 858.043,286.256 858.043,283.089 855.5,280C 857.159,277.07 857.492,274.07 856.5,271C 858.715,269.057 858.715,267.391 856.5,266C 857.287,262.025 857.287,258.192 856.5,254.5C 854.018,258.725 851.351,262.891 848.5,267C 848.833,267.333 849.167,267.667 849.5,268C 846.877,270.268 845.211,273.101 844.5,276.5C 840.648,281.046 836.815,285.713 833,290.5C 832.529,292.246 831.862,293.913 831,295.5C 830.333,296.833 829.667,296.833 829,295.5C 828.667,296.833 828.333,298.167 828,299.5C 827.111,298.112 826.611,298.278 826.5,300C 826.645,300.772 826.978,301.439 827.5,302C 826.262,301.923 825.262,302.089 824.5,302.5C 825.641,303.425 825.641,304.259 824.5,305C 825.333,305.833 826.167,306.667 827,307.5C 827.92,305.368 829.087,303.368 830.5,301.5C 830.998,302.603 831.331,303.603 831.5,304.5C 832.914,301.79 834.914,300.79 837.5,301.5C 838.167,300.833 838.833,300.167 839.5,299.5C 840.48,300.981 841.647,302.315 843,303.5C 843.893,302.289 844.726,302.289 845.5,303.5C 845.475,305.63 844.975,307.63 844,309.5C 837.129,314.692 829.963,319.525 822.5,324C 816.685,326.991 810.852,329.825 805,332.5C 803.887,331.289 802.72,331.289 801.5,332.5C 800.289,331.726 800.289,330.893 801.5,330C 799.939,329.059 798.605,327.892 797.5,326.5C 798.766,322.445 800.766,318.778 803.5,315.5C 802.098,314.158 802.431,313.324 804.5,313C 803.549,312.282 803.383,311.449 804,310.5C 807.812,303.334 812.479,296.668 818,290.5C 818.483,289.552 818.649,288.552 818.5,287.5C 822.135,287.344 822.468,286.178 819.5,284C 820.996,283.493 822.163,283.993 823,285.5C 826.368,280.104 829.368,274.438 832,268.5C 832.718,269.451 833.551,269.617 834.5,269C 833.3,267.048 833.8,265.548 836,264.5C 840.985,255.146 846.485,245.98 852.5,237C 852.043,236.586 851.709,236.086 851.5,235.5C 853.344,233.805 854.677,231.805 855.5,229.5C 855.182,228.353 854.516,227.519 853.5,227C 856.028,223.641 856.695,220.308 855.5,217C 857,210.537 859,203.871 861.5,197C 861.355,196.228 861.022,195.561 860.5,195C 862.922,186.684 864.589,177.85 865.5,168.5C 863.142,169.178 860.975,169.512 859,169.5C 858.667,168.5 858.333,167.5 858,166.5C 856.94,166.254 855.773,166.254 854.5,166.5C 850.16,161.661 845.66,156.994 841,152.5C 840.667,152.833 840.333,153.167 840,153.5C 839.517,152.552 839.351,151.552 839.5,150.5C 834.705,148.205 831.038,145.205 828.5,141.5C 826.631,140.376 824.631,139.543 822.5,139C 823.833,137.16 823.666,136.66 822,137.5C 819.735,136.084 818.569,134.084 818.5,131.5C 820.379,131.607 820.712,131.107 819.5,130C 821.957,128.846 821.957,127.512 819.5,126C 821.307,123.724 822.807,123.557 824,125.5C 825.263,123.203 827.097,122.37 829.5,123C 829.167,123.333 828.833,123.667 828.5,124C 836.005,129.347 843.338,134.847 850.5,140.5C 852.351,142.184 854.018,144.017 855.5,146C 855.167,146.333 854.833,146.667 854.5,147C 858.89,148.614 862.723,151.114 866,154.5C 866.333,151.5 866.667,148.5 867,145.5C 867.424,147.615 868.591,148.448 870.5,148C 870.15,145.029 869.816,142.029 869.5,139C 871.263,137.346 871.596,135.513 870.5,133.5C 871.53,128.53 872.03,123.53 872,118.5C 871.586,118.957 871.086,119.291 870.5,119.5C 868.827,117.914 866.827,117.247 864.5,117.5C 864.5,116.5 864.5,115.5 864.5,114.5C 861.306,114.824 860.306,113.658 861.5,111C 859.22,110.767 857.22,109.934 855.5,108.5C 854.2,105.568 852.2,103.234 849.5,101.5C 848.399,97.4619 846.399,93.9619 843.5,91C 843.833,90.6667 844.167,90.3333 844.5,90C 843.252,89.1389 841.919,88.6389 840.5,88.5C 841.903,85.7915 841.236,83.4582 838.5,81.5C 837.476,75.858 835.476,70.6914 832.5,66C 833.167,65.3333 833.833,64.6667 834.5,64C 831.794,53.3373 832.96,42.504 838,31.5C 838.615,29.8839 839.615,28.5505 841,27.5C 841.691,29.8912 842.691,29.8912 844,27.5C 844.847,25.8068 845.68,24.1401 846.5,22.5C 847.79,21.9423 848.623,20.9423 849,19.5C 849.333,19.8333 849.667,20.1667 850,20.5C 851.113,19.2396 851.28,18.073 850.5,17C 851.833,17 853.167,17 854.5,17C 854.727,15.8647 855.06,14.698 855.5,13.5C 857.981,14.492 859.481,13.492 860,10.5C 860.333,10.8333 860.667,11.1667 861,11.5C 863.147,9.52389 865.647,8.19056 868.5,7.5C 869.351,4.38757 870.517,4.05424 872,6.5C 872.221,3.05692 873.221,2.72359 875,5.5C 876.204,4.52942 876.704,3.52942 876.5,2.5C 877.167,2.83333 877.833,3.16667 878.5,3.5C 880.109,2.11174 881.942,1.11174 884,0.5C 885.03,0.836112 885.53,1.50278 885.5,2.5C 886.756,2.09616 887.923,1.42949 889,0.5C 889.945,0.905365 890.612,1.57203 891,2.5C 893.6,0.109285 896.267,0.109285 899,2.5C 900.045,1.62656 900.878,0.626561 901.5,-0.5 Z M 885.5,2.5 C 885.158,3.33825 884.492,3.67158 883.5,3.5C 883.409,1.30228 884.075,0.968948 885.5,2.5 Z M 933.5,39.5 C 934.771,41.1086 935.771,42.9419 936.5,45C 935.833,45.3333 935.167,45.6667 934.5,46C 936.616,47.1707 937.282,48.6707 936.5,50.5C 936.977,51.4776 937.643,52.3109 938.5,53C 936.473,54.3957 936.14,56.0624 937.5,58C 935.109,59.3086 935.109,60.3086 937.5,61C 937.499,62.3988 937.165,63.8988 936.5,65.5C 937.383,66.548 938.05,67.7147 938.5,69C 938.108,70.0105 937.441,70.5105 936.5,70.5C 936.977,71.4776 937.643,72.3109 938.5,73C 936.919,74.828 935.585,76.828 934.5,79C 937.332,80.9076 936.999,81.741 933.5,81.5C 933.672,83.4918 933.005,85.1585 931.5,86.5C 931.709,87.086 932.043,87.586 932.5,88C 931.167,89.3333 929.833,90.6667 928.5,92C 929.28,93.073 929.113,94.2396 928,95.5C 927.667,95.1667 927.333,94.8333 927,94.5C 926.79,96.0581 926.29,97.3915 925.5,98.5C 925.047,99.4584 924.381,100.292 923.5,101C 923.833,101.333 924.167,101.667 924.5,102C 922.753,102.352 921.086,102.852 919.5,103.5C 917.533,105.731 915.366,107.064 913,107.5C 912.667,106.833 912.333,106.167 912,105.5C 910.883,106.949 910.216,108.616 910,110.5C 909.333,109.167 908.333,108.167 907,107.5C 903.2,108.199 899.367,108.865 895.5,109.5C 893.698,107.966 891.865,107.632 890,108.5C 886.686,107.718 883.52,106.718 880.5,105.5C 880.657,104.127 880.49,102.793 880,101.5C 879.385,103.116 878.385,104.449 877,105.5C 874.602,104.144 872.102,102.977 869.5,102C 868.874,101.25 868.374,100.416 868,99.5C 867.667,99.8333 867.333,100.167 867,100.5C 862.037,93.4594 857.37,86.7927 853,80.5C 850.971,73.5221 848.471,66.6887 845.5,60C 846.354,58.119 846.021,56.2857 844.5,54.5C 845.062,45.8694 848.396,38.2028 854.5,31.5C 856.87,29.6285 859.37,27.9619 862,26.5C 862.483,25.552 862.649,24.552 862.5,23.5C 867.072,23.0132 870.905,21.0132 874,17.5C 875.779,20.2764 876.779,19.9431 877,16.5C 878.406,17.6682 879.572,17.3348 880.5,15.5C 882.622,15.6225 884.789,15.6225 887,15.5C 887.308,16.3081 887.808,16.9747 888.5,17.5C 889.814,16.6872 890.981,15.6872 892,14.5C 892.84,17.4637 893.84,17.797 895,15.5C 896.537,15.9126 898.204,15.9126 900,15.5C 900.945,15.9054 901.612,16.572 902,17.5C 902.308,16.6919 902.808,16.0253 903.5,15.5C 904.833,16.5 906.167,17.5 907.5,18.5C 909.07,18.3062 910.57,18.3062 912,18.5C 913,19.5 914,20.5 915,21.5C 915.984,19.2053 916.817,19.5386 917.5,22.5C 919.316,24.4414 921.316,25.1081 923.5,24.5C 923.486,27.6792 925.32,29.6792 929,30.5C 929.635,31.9663 930.469,33.2997 931.5,34.5C 930.975,35.1924 930.308,35.6924 929.5,36C 930.667,36.5 931.5,37.3333 932,38.5C 933.087,36.0684 933.587,36.4017 933.5,39.5 Z M 875.5,296.5 C 876.773,297.077 876.773,297.743 875.5,298.5C 874.893,298.376 874.56,298.043 874.5,297.5C 875.167,297.5 875.5,297.167 875.5,296.5 Z"/></g>
<g><path style="opacity:0.365" fill="#000000" d="M 846.5,22.5 C 845.833,21.1667 845.833,21.1667 846.5,22.5 Z"/></g>
<g><path style="opacity:0.216" fill="#000000" d="M 840.5,88.5 C 839.833,87.1667 839.833,87.1667 840.5,88.5 Z"/></g>
<g><path style="opacity:0.082" fill="#000000" d="M 943.5,92.5 C 944.833,93.1667 944.833,93.1667 943.5,92.5 Z"/></g>
<g><path style="opacity:0.082" fill="#000000" d="M 815.5,129.5 C 816.833,130.167 816.833,130.167 815.5,129.5 Z"/></g>
<g><path style="opacity:0.153" fill="#000000" d="M 818.5,131.5 C 817.833,130.167 817.833,130.167 818.5,131.5 Z"/></g>
<g><path style="opacity:0.094" fill="#000000" d="M 933.5,140.5 C 932.833,139.167 932.833,139.167 933.5,140.5 Z"/></g>
<g><path style="opacity:0.082" fill="#000000" d="M 826.5,141.5 C 827.833,142.167 827.833,142.167 826.5,141.5 Z"/></g>
<g><path style="opacity:0.055" fill="#000000" d="M 871.5,235.5 C 872.833,236.167 872.833,236.167 871.5,235.5 Z"/></g>
<g><path style="opacity:0.298" fill="#000000" d="M 115.5,268.5 C 116.833,269.167 116.833,269.167 115.5,268.5 Z"/></g>
<g><path style="opacity:0.88" fill="#000000" d="M 184.5,278.5 C 185.979,279.148 187.479,279.481 189,279.5C 189.995,278.934 190.828,278.267 191.5,277.5C 194.196,281.292 196.862,281.292 199.5,277.5C 202.946,279.278 206.612,280.278 210.5,280.5C 213.921,280.345 217.088,280.012 220,279.5C 222.333,280.5 224.667,281.5 227,282.5C 227.388,281.572 228.055,280.905 229,280.5C 230.261,281.658 231.427,281.658 232.5,280.5C 237.869,281.426 243.203,281.426 248.5,280.5C 251.261,282.456 254.261,282.456 257.5,280.5C 256.001,279.096 256.334,278.43 258.5,278.5C 260.766,278.931 262.266,280.264 263,282.5C 263.995,281.934 264.828,281.267 265.5,280.5C 269.088,281.586 272.421,281.586 275.5,280.5C 275.62,281.586 276.287,282.253 277.5,282.5C 278.955,281.61 280.289,281.61 281.5,282.5C 282.333,281.5 283.167,280.5 284,279.5C 284.779,280.728 285.779,281.728 287,282.5C 288.533,281.305 290.033,281.305 291.5,282.5C 293.149,281.352 294.649,280.019 296,278.5C 296.667,279.833 297.333,281.167 298,282.5C 300.217,282.063 302.551,282.063 305,282.5C 305.333,281.833 305.667,281.167 306,280.5C 309.892,282.067 313.558,281.733 317,279.5C 317.333,280.5 317.667,281.5 318,282.5C 321.845,281.773 325.845,281.773 330,282.5C 330.995,281.934 331.828,281.267 332.5,280.5C 334.986,281.681 337.32,281.348 339.5,279.5C 341.167,280.5 342.833,281.5 344.5,282.5C 345.72,281.289 346.887,281.289 348,282.5C 348.333,281.833 348.667,281.167 349,280.5C 352.394,281.456 355.894,281.789 359.5,281.5C 360.167,277.5 360.833,277.5 361.5,281.5C 362.833,281.5 364.167,281.5 365.5,281.5C 365.656,277.865 366.822,277.532 369,280.5C 369.667,279.833 370.333,279.167 371,278.5C 371.953,280.592 373.286,280.925 375,279.5C 376.47,281.877 377.97,281.877 379.5,279.5C 381.079,283.264 382.579,283.264 384,279.5C 385.818,281.645 387.318,281.645 388.5,279.5C 389.333,280.5 390.167,281.5 391,282.5C 393.075,280.352 395.408,280.018 398,281.5C 399.67,277.943 401.836,277.609 404.5,280.5C 405.833,279.833 407.167,279.167 408.5,278.5C 409.647,278.818 410.481,279.484 411,280.5C 412.333,279.167 413.667,279.167 415,280.5C 418.003,277.747 420.67,278.08 423,281.5C 424.12,279.925 425.62,278.925 427.5,278.5C 429.577,279.937 431.91,280.604 434.5,280.5C 434.312,278.897 434.812,277.563 436,276.5C 438.627,277.314 440.96,278.647 443,280.5C 444,279.167 445,279.167 446,280.5C 446.605,278.519 447.605,278.185 449,279.5C 451.178,276.532 452.344,276.865 452.5,280.5C 453.552,280.649 454.552,280.483 455.5,280C 454.663,278.989 454.33,277.822 454.5,276.5C 458.587,276.294 462.087,277.627 465,280.5C 465.456,279.256 464.956,278.423 463.5,278C 465.324,275.919 466.991,276.085 468.5,278.5C 469.503,276.458 470.837,276.125 472.5,277.5C 474.754,275.027 476.92,275.027 479,277.5C 480.333,276.833 481.333,275.833 482,274.5C 483.314,275.313 484.481,276.313 485.5,277.5C 486.929,274.183 488.762,273.85 491,276.5C 491.765,276.43 492.265,276.097 492.5,275.5C 496.001,276.904 499.668,277.904 503.5,278.5C 502.975,279.192 502.308,279.692 501.5,280C 502.416,280.374 503.25,280.874 504,281.5C 504.671,280.748 505.504,280.414 506.5,280.5C 506.5,281.167 506.833,281.5 507.5,281.5C 507.047,282.458 506.381,283.292 505.5,284C 506.449,284.617 507.282,284.451 508,283.5C 509.017,286.028 510.184,286.028 511.5,283.5C 512.845,284.347 513.845,285.513 514.5,287C 515.448,287.483 516.448,287.649 517.5,287.5C 517.354,289.942 518.187,290.609 520,289.5C 520.658,291.108 520.158,292.275 518.5,293C 518.833,293.333 519.167,293.667 519.5,294C 521.055,293.575 522.555,292.742 524,291.5C 524.5,291.833 525,292.167 525.5,292.5C 524.687,293.814 523.687,294.981 522.5,296C 523.428,296.388 524.095,297.055 524.5,298C 523.67,299.465 523.504,300.965 524,302.5C 526.221,303.934 527.721,305.934 528.5,308.5C 529.817,310.159 531.483,311.326 533.5,312C 532.874,312.75 532.374,313.584 532,314.5C 531.329,313.748 530.496,313.414 529.5,313.5C 529.685,315.196 530.519,316.529 532,317.5C 532.669,314.972 533.502,314.972 534.5,317.5C 533.687,318.814 532.687,319.981 531.5,321C 533.35,323.033 534.016,323.033 533.5,321C 535.631,319.353 537.631,319.686 539.5,322C 537.315,324.678 537.649,327.178 540.5,329.5C 541.222,329.082 541.722,328.416 542,327.5C 542.061,329.686 542.228,331.686 542.5,333.5C 541.167,333.833 541.167,334.167 542.5,334.5C 541.909,335.151 541.243,335.818 540.5,336.5C 541.716,337.096 543.049,337.263 544.5,337C 544.957,337.414 545.291,337.914 545.5,338.5C 544.189,339.258 543.689,340.258 544,341.5C 548.685,341.982 548.518,343.315 543.5,345.5C 544.202,347.557 544.535,349.557 544.5,351.5C 543.575,352.562 542.575,352.562 541.5,351.5C 542.323,353.455 542.49,355.455 542,357.5C 540.951,356.483 539.784,356.316 538.5,357C 539.636,358.53 540.636,359.863 541.5,361C 540.5,361.333 539.5,361.667 538.5,362C 539.729,363.529 541.229,364.696 543,365.5C 543,366.833 543,368.167 543,369.5C 544.444,367.845 546.278,367.178 548.5,367.5C 548.5,369.167 548.5,370.833 548.5,372.5C 547.5,372.5 546.5,372.5 545.5,372.5C 545.014,375.755 546.014,378.422 548.5,380.5C 548.167,380.833 547.833,381.167 547.5,381.5C 546.833,380.833 546.167,380.167 545.5,379.5C 544.5,380.833 543.5,380.833 542.5,379.5C 542.46,381.621 541.96,383.621 541,385.5C 539.989,386.337 538.822,386.67 537.5,386.5C 537.5,387.833 537.5,389.167 537.5,390.5C 536.178,390.67 535.011,390.337 534,389.5C 532.829,390.893 531.329,391.727 529.5,392C 530.167,392.667 530.833,393.333 531.5,394C 530.448,395.119 529.281,395.619 528,395.5C 527.383,396.449 527.549,397.282 528.5,398C 525.438,399.061 522.938,400.894 521,403.5C 522.008,405.366 521.508,406.699 519.5,407.5C 519.167,406.167 518.833,406.167 518.5,407.5C 516.851,408.649 515.351,409.982 514,411.5C 513.055,411.095 512.388,410.428 512,409.5C 511.252,411.332 510.252,412.999 509,414.5C 507.989,413.663 506.822,413.33 505.5,413.5C 504.862,411.54 504.862,409.707 505.5,408C 505,407.5 504.5,407 504,406.5C 504.178,408.44 503.178,410.107 501,411.5C 499.406,410.427 497.906,409.427 496.5,408.5C 499.799,406.484 499.966,404.484 497,402.5C 496.333,403.833 495.333,404.833 494,405.5C 494.988,403.08 494.655,400.747 493,398.5C 491.869,399.604 491.035,399.271 490.5,397.5C 491.847,392.822 490.68,392.489 487,396.5C 486.667,395.167 486.333,393.833 486,392.5C 484.318,395.864 482.651,399.198 481,402.5C 480.388,399.885 478.888,398.219 476.5,397.5C 476.649,396.448 476.483,395.448 476,394.5C 475.333,395.833 474.667,395.833 474,394.5C 473.536,395.094 473.369,395.761 473.5,396.5C 471.058,396.119 470.391,396.786 471.5,398.5C 468.953,399.539 466.953,398.705 465.5,396C 467.5,395.333 468.833,394 469.5,392C 467.514,392.794 465.681,392.294 464,390.5C 463.383,389.551 463.549,388.718 464.5,388C 462.176,384.901 460.676,381.401 460,377.5C 458.581,376.54 457.081,375.707 455.5,375C 456.022,374.439 456.355,373.772 456.5,373C 454.865,369.207 453.198,365.874 451.5,363C 452.167,362.667 452.833,362.333 453.5,362C 451.573,359.211 449.073,357.045 446,355.5C 445.667,354.167 445.333,352.833 445,351.5C 443.647,352.685 442.48,354.019 441.5,355.5C 441.002,354.397 440.669,353.397 440.5,352.5C 439.261,352.942 438.261,353.609 437.5,354.5C 434.949,351.77 433.616,352.437 433.5,356.5C 432.127,356.657 430.793,356.49 429.5,356C 430.167,355.667 430.833,355.333 431.5,355C 430.377,353.956 429.044,353.29 427.5,353C 426.929,351.795 426.262,350.628 425.5,349.5C 424.808,351.232 424.308,353.232 424,355.5C 422.686,354.687 421.519,353.687 420.5,352.5C 418.842,354.323 417.009,355.99 415,357.5C 414.508,356.451 414.674,355.451 415.5,354.5C 413.509,350.611 412.676,350.611 413,354.5C 412.333,353.833 411.667,353.167 411,352.5C 409.087,354.956 407.421,354.622 406,351.5C 405.803,356.178 404.803,356.512 403,352.5C 402,353.833 401,353.833 400,352.5C 399.493,353.996 399.993,355.163 401.5,356C 399.893,355.981 398.226,355.815 396.5,355.5C 395.378,354.053 393.878,353.053 392,352.5C 391.508,353.549 391.674,354.549 392.5,355.5C 392.192,356.308 391.692,356.975 391,357.5C 388.021,355.356 385.188,353.022 382.5,350.5C 382.167,350.833 381.833,351.167 381.5,351.5C 382.624,352.914 383.624,354.414 384.5,356C 384,356.5 383.5,357 383,357.5C 381.005,353.201 378.172,352.535 374.5,355.5C 373.583,354.873 372.583,354.539 371.5,354.5C 371.167,353.167 370.833,353.167 370.5,354.5C 366.513,355.711 362.846,355.711 359.5,354.5C 359.631,353.624 359.298,352.957 358.5,352.5C 357.033,353.695 355.533,353.695 354,352.5C 352.01,353.818 350.01,355.152 348,356.5C 346.451,354.749 345.618,353.083 345.5,351.5C 344.833,352.5 344.167,353.5 343.5,354.5C 342.5,353.833 341.5,353.167 340.5,352.5C 339.583,353.127 338.583,353.461 337.5,353.5C 336.295,352.314 334.961,352.314 333.5,353.5C 331.393,354.034 329.393,353.367 327.5,351.5C 325.629,352.767 323.796,352.767 322,351.5C 321.333,352.833 320.667,354.167 320,355.5C 319.283,354.956 318.783,354.289 318.5,353.5C 317.542,353.047 316.708,352.381 316,351.5C 314.025,352.75 312.859,354.083 312.5,355.5C 311.186,354.687 310.019,353.687 309,352.5C 308.581,353.672 307.915,354.672 307,355.5C 304.877,354.117 303.877,352.45 304,350.5C 303.667,351.167 303.333,351.833 303,352.5C 302.311,351.643 301.478,350.977 300.5,350.5C 299.702,352.078 299.202,353.744 299,355.5C 298.12,353.261 296.62,351.595 294.5,350.5C 293.141,352.692 291.308,354.359 289,355.5C 289.333,354.167 289.667,352.833 290,351.5C 288.274,352.576 286.441,352.743 284.5,352C 285.711,351.107 285.711,350.274 284.5,349.5C 283.833,350.167 283.167,350.833 282.5,351.5C 280.96,348.118 278.793,347.784 276,350.5C 275.667,350.167 275.333,349.833 275,349.5C 274.581,350.672 273.915,351.672 273,352.5C 272.259,351.359 271.425,351.359 270.5,352.5C 269.749,351.624 269.249,350.624 269,349.5C 266.953,353.446 265.12,353.446 263.5,349.5C 261.983,349.489 260.816,348.823 260,347.5C 259.383,348.449 259.549,349.282 260.5,350C 258.112,350.865 256.612,350.032 256,347.5C 255.667,348.167 255.333,348.833 255,349.5C 252.382,345.892 251.549,345.892 252.5,349.5C 251.726,350.711 250.893,350.711 250,349.5C 249.536,350.094 249.369,350.761 249.5,351.5C 248.761,351.631 248.094,351.464 247.5,351C 248.451,350.282 248.617,349.449 248,348.5C 245.506,351.32 244.673,351.153 245.5,348C 244.991,346.831 244.158,345.998 243,345.5C 241.252,347.135 240.085,349.135 239.5,351.5C 238.305,349.703 236.638,348.703 234.5,348.5C 234.719,347.325 234.386,346.325 233.5,345.5C 232.138,347.012 231.804,348.512 232.5,350C 230.893,349.981 229.226,349.815 227.5,349.5C 226.721,347.073 225.554,347.073 224,349.5C 222.796,348.529 222.296,347.529 222.5,346.5C 220.971,347.284 219.304,348.284 217.5,349.5C 214.956,348.265 214.956,347.099 217.5,346C 215.899,345.727 214.399,345.227 213,344.5C 212.333,345.833 211.667,347.167 211,348.5C 210.23,347.402 209.397,347.402 208.5,348.5C 206.881,344.621 205.215,344.621 203.5,348.5C 200.566,349.799 198.066,349.132 196,346.5C 195.383,345.551 195.549,344.718 196.5,344C 195.975,343.308 195.308,342.808 194.5,342.5C 193.831,344.631 193.165,346.631 192.5,348.5C 192.167,347.833 191.833,347.167 191.5,346.5C 190.06,345.637 188.726,345.637 187.5,346.5C 185.566,346.099 184.066,345.099 183,343.5C 180.571,344.029 178.738,345.363 177.5,347.5C 177.12,345.979 176.954,344.313 177,342.5C 174.894,344.377 173.561,346.71 173,349.5C 172.187,347.564 171.687,345.564 171.5,343.5C 168.382,342.891 165.382,343.558 162.5,345.5C 160.432,345.033 158.432,344.366 156.5,343.5C 155.808,344.025 155.308,344.692 155,345.5C 153.249,344.826 151.583,344.493 150,344.5C 149.692,345.308 149.192,345.975 148.5,346.5C 147.833,345.5 147.167,344.5 146.5,343.5C 145.481,344.687 144.314,345.687 143,346.5C 142.804,344.096 141.638,342.429 139.5,341.5C 136.833,342.833 134.167,344.167 131.5,345.5C 132.304,343.982 132.304,342.148 131.5,340C 129.095,339.719 129.095,340.385 131.5,342C 130.234,342.309 129.067,342.809 128,343.5C 127,341.167 125.333,339.5 123,338.5C 124.295,342.381 122.795,344.048 118.5,343.5C 118.585,342.005 117.919,341.005 116.5,340.5C 115.304,340.846 115.304,341.346 116.5,342C 114.152,342.346 112.319,343.513 111,345.5C 109.846,344.257 108.512,343.257 107,342.5C 102.621,345.48 98.6206,345.147 95,341.5C 93.8869,342.711 92.7202,342.711 91.5,341.5C 90.7492,342.376 90.2492,343.376 90,344.5C 89.6174,343.944 89.1174,343.611 88.5,343.5C 88.2172,344.289 87.7172,344.956 87,345.5C 83.9978,345.003 81.9978,343.337 81,340.5C 79.6366,343.772 77.4699,344.772 74.5,343.5C 74.6495,342.448 74.4828,341.448 74,340.5C 70.7107,340.085 68.7107,341.752 68,345.5C 65.3856,342.26 62.2189,340.927 58.5,341.5C 57.09,341.868 56.09,342.701 55.5,344C 56.0509,345.398 56.3842,346.732 56.5,348C 55.552,348.483 54.552,348.649 53.5,348.5C 52.1566,350.921 51.1566,353.421 50.5,356C 50.8333,356.333 51.1667,356.667 51.5,357C 49.1671,358.243 48.5004,359.909 49.5,362C 48.7433,363.512 47.7433,364.846 46.5,366C 46.9589,367.943 45.9589,369.276 43.5,370C 44.731,371.183 44.731,372.349 43.5,373.5C 42.3518,375.35 41.0185,376.017 39.5,375.5C 42.1741,376.499 42.8408,378.166 41.5,380.5C 39.5331,381.202 37.8665,381.202 36.5,380.5C 37.1667,381.5 37.8333,382.5 38.5,383.5C 36.6671,384.968 36.3338,386.635 37.5,388.5C 38.1067,388.376 38.44,388.043 38.5,387.5C 41.417,385.928 44.0837,383.928 46.5,381.5C 47.1499,381.804 47.8165,382.137 48.5,382.5C 49.0653,380.49 50.0653,378.824 51.5,377.5C 54.0614,380.147 55.5614,379.48 56,375.5C 58.0571,378.014 60.3905,379.347 63,379.5C 63.6891,378.643 64.5224,377.977 65.5,377.5C 68.4205,380.923 71.5871,381.256 75,378.5C 75.5691,382.361 76.4024,382.361 77.5,378.5C 78.086,378.709 78.586,379.043 79,379.5C 79.3678,378.09 80.2011,377.09 81.5,376.5C 81.2936,378.61 82.1269,380.61 84,382.5C 84.993,376.996 87.8263,375.996 92.5,379.5C 93,380.5 93.5,381.5 94,382.5C 94.3333,380.833 94.6667,379.167 95,377.5C 96.1433,380.915 97.81,381.249 100,378.5C 101.604,379.649 103.27,379.649 105,378.5C 107.896,381.084 110.563,380.751 113,377.5C 113.77,381.998 115.936,382.664 119.5,379.5C 121.461,381.543 122.961,380.877 124,377.5C 124.221,380.943 125.221,381.276 127,378.5C 127.196,380.904 128.362,382.571 130.5,383.5C 131.386,382.675 131.719,381.675 131.5,380.5C 133.774,379.048 135.274,379.715 136,382.5C 136.833,381.667 137.667,380.833 138.5,380C 137.269,378.817 137.269,377.651 138.5,376.5C 139.192,377.025 139.692,377.692 140,378.5C 140.308,377.692 140.808,377.025 141.5,376.5C 142.806,377.912 143.64,379.579 144,381.5C 144.75,380.874 145.584,380.374 146.5,380C 146.167,379.667 145.833,379.333 145.5,379C 147.602,379.256 149.602,379.089 151.5,378.5C 152.652,380.688 154.152,380.688 156,378.5C 157.962,378.031 159.795,378.697 161.5,380.5C 161.402,379.384 161.902,378.384 163,377.5C 164.473,377.903 165.806,378.57 167,379.5C 167.333,379.167 167.667,378.833 168,378.5C 168.249,379.624 168.749,380.624 169.5,381.5C 170.298,381.043 170.631,380.376 170.5,379.5C 173.119,379.075 175.453,378.075 177.5,376.5C 177.842,377.338 178.508,377.672 179.5,377.5C 179.833,378.5 180.5,379.167 181.5,379.5C 181.775,377.242 182.775,376.908 184.5,378.5C 185.167,377.5 185.833,376.5 186.5,375.5C 187.192,376.025 187.692,376.692 188,377.5C 192.566,377.585 197.399,377.252 202.5,376.5C 202.737,380.289 203.404,380.289 204.5,376.5C 205.583,376.539 206.583,376.873 207.5,377.5C 208.5,376.833 209.5,376.167 210.5,375.5C 211.192,376.025 211.692,376.692 212,377.5C 214.939,374.491 217.272,374.824 219,378.5C 221.896,374.827 224.563,374.827 227,378.5C 227.368,377.09 228.201,376.09 229.5,375.5C 230.711,376.39 232.045,376.39 233.5,375.5C 235.496,376.982 237.496,377.649 239.5,377.5C 240.141,373.629 241.641,372.962 244,375.5C 248.48,374.816 252.48,376.149 256,379.5C 258.096,378.285 257.929,377.451 255.5,377C 255.982,375.992 256.148,374.825 256,373.5C 257.333,374.167 258.333,375.167 259,376.5C 261.157,373.922 262.323,373.922 262.5,376.5C 264.198,375.319 265.865,375.319 267.5,376.5C 266.494,377.396 266.494,378.062 267.5,378.5C 268.524,377.147 269.857,376.48 271.5,376.5C 271.281,377.675 271.614,378.675 272.5,379.5C 273.281,378.271 273.781,376.938 274,375.5C 277.29,376.872 280.456,376.538 283.5,374.5C 284.814,375.313 285.981,376.313 287,377.5C 287.991,376.061 289.324,375.061 291,374.5C 292,375.833 293,377.167 294,378.5C 296.354,376.363 299.188,375.363 302.5,375.5C 302.275,379.056 303.108,379.39 305,376.5C 308.276,376.776 311.609,376.776 315,376.5C 316.605,377.101 317.938,378.101 319,379.5C 320.487,378.747 320.654,377.914 319.5,377C 320.416,376.626 321.25,376.126 322,375.5C 323.512,377.957 324.846,377.957 326,375.5C 327,376.833 328,376.833 329,375.5C 330.062,376.899 331.395,377.899 333,378.5C 333.045,377.077 334.211,376.077 336.5,375.5C 338.861,377.564 341.194,377.23 343.5,374.5C 345.725,377.911 347.391,377.911 348.5,374.5C 349.711,375.274 349.711,376.107 348.5,377C 350.403,377.774 352.07,377.44 353.5,376C 352.346,375.086 352.513,374.253 354,373.5C 354.837,375.844 356.171,377.844 358,379.5C 358.29,377.956 358.956,376.623 360,375.5C 361.543,376.285 363.21,376.285 365,375.5C 366.598,376.408 367.764,377.408 368.5,378.5C 368.825,374.893 369.992,374.226 372,376.5C 372.333,375.5 372.667,374.5 373,373.5C 376.993,375.079 381.327,376.079 386,376.5C 387.533,375.305 389.033,375.305 390.5,376.5C 391.386,375.675 391.719,374.675 391.5,373.5C 392.5,373.5 393.5,373.5 394.5,373.5C 394.089,376.276 394.922,376.943 397,375.5C 398.338,376.506 399.671,377.506 401,378.5C 403.403,377.121 405.57,375.455 407.5,373.5C 409.731,375.6 412.064,375.933 414.5,374.5C 416.097,373.91 417.431,372.91 418.5,371.5C 419.799,372.09 420.632,373.09 421,374.5C 421.667,373.833 422.333,373.167 423,372.5C 424.333,373.833 425.667,373.833 427,372.5C 428.188,373.563 428.688,374.897 428.5,376.5C 429.822,376.67 430.989,376.337 432,375.5C 431.737,374.049 431.904,372.716 432.5,371.5C 434.51,372.502 436.51,373.502 438.5,374.5C 437.571,376.322 438.238,377.655 440.5,378.5C 441.167,377.5 441.833,376.5 442.5,375.5C 443.519,376.687 444.686,377.687 446,378.5C 446.748,376.668 447.748,375.001 449,373.5C 449.591,376.145 450.925,376.811 453,375.5C 455.009,376.482 455.509,377.815 454.5,379.5C 456.848,382.05 457.514,384.884 456.5,388C 457.905,389.269 459.571,389.769 461.5,389.5C 461.675,391.621 461.341,393.621 460.5,395.5C 458.345,398.839 455.845,399.172 453,396.5C 452.567,398.664 453.067,400.664 454.5,402.5C 454.297,404.208 453.464,405.541 452,406.5C 451.667,405.833 451.333,405.167 451,404.5C 448,406.173 445,406.84 442,406.5C 438.744,405.652 435.411,404.985 432,404.5C 430.674,404.245 429.674,403.578 429,402.5C 428.005,403.066 427.172,403.733 426.5,404.5C 424.551,405.725 423.218,405.058 422.5,402.5C 420.908,404.562 419.075,404.895 417,403.5C 415.686,404.313 414.519,405.313 413.5,406.5C 412.685,404.724 411.518,404.057 410,404.5C 408.566,406.136 406.733,407.136 404.5,407.5C 402.629,406.233 400.796,406.233 399,407.5C 397.598,405.027 396.098,405.027 394.5,407.5C 392.071,407.579 389.571,407.245 387,406.5C 385.67,407.582 384.17,408.249 382.5,408.5C 380.868,404.805 379.535,404.805 378.5,408.5C 374.212,406.124 369.879,406.124 365.5,408.5C 361.829,406.635 358.329,406.635 355,408.5C 353.209,406.487 351.875,406.487 351,408.5C 347.172,406.671 343.506,406.671 340,408.5C 338.674,408.245 337.674,407.578 337,406.5C 336,407.167 335,407.833 334,408.5C 332.989,407.663 331.822,407.33 330.5,407.5C 329.5,404.833 328.5,404.833 327.5,407.5C 325.226,406.048 323.726,406.715 323,409.5C 321.196,407.581 319.196,407.248 317,408.5C 314.987,406.206 312.82,406.206 310.5,408.5C 308.031,406.993 305.865,407.327 304,409.5C 300.014,407.299 295.848,406.965 291.5,408.5C 288.789,406.462 286.289,406.462 284,408.5C 281.371,408.072 279.038,407.072 277,405.5C 276.085,406.328 275.419,407.328 275,408.5C 272.883,406.457 270.55,406.124 268,407.5C 267.055,407.095 266.388,406.428 266,405.5C 263.657,406.127 261.49,407.127 259.5,408.5C 258.186,407.687 257.019,406.687 256,405.5C 252.792,407.908 249.625,407.908 246.5,405.5C 245.065,407.401 243.398,407.734 241.5,406.5C 239.618,407.093 237.785,407.76 236,408.5C 235.646,406.193 234.646,405.859 233,407.5C 231.527,407.097 230.194,406.43 229,405.5C 228.632,406.91 227.799,407.91 226.5,408.5C 223.352,407.788 220.186,407.121 217,406.5C 216.055,406.095 215.388,405.428 215,404.5C 214.751,405.624 214.251,406.624 213.5,407.5C 212.167,406.833 210.833,406.167 209.5,405.5C 209.002,406.603 208.669,407.603 208.5,408.5C 207.252,407.96 206.085,407.293 205,406.5C 201.909,409.726 198.575,410.059 195,407.5C 193.333,408.833 191.667,408.833 190,407.5C 188.715,407.95 187.548,408.617 186.5,409.5C 184.837,407.199 183.003,407.199 181,409.5C 177.307,409.153 173.307,408.819 169,408.5C 167.395,409.101 166.062,410.101 165,411.5C 164.667,410.5 164.333,409.5 164,408.5C 162.75,409.573 161.416,409.573 160,408.5C 158.739,408.759 157.739,409.426 157,410.5C 155.216,407.997 153.549,407.997 152,410.5C 149.524,408.185 147.191,408.518 145,411.5C 143.057,409.434 140.891,409.101 138.5,410.5C 137.353,410.182 136.519,409.516 136,408.5C 134.088,409.692 132.088,410.692 130,411.5C 129.333,410.833 128.667,410.167 128,409.5C 125.14,411.422 122.473,411.422 120,409.5C 119,410.167 118,410.833 117,411.5C 110.991,410.501 104.824,410.168 98.5,410.5C 98.1667,409.167 97.8333,409.167 97.5,410.5C 94.6726,411.178 91.8393,410.844 89,409.5C 84.2176,410.758 79.3842,410.758 74.5,409.5C 73.3279,409.919 72.3279,410.585 71.5,411.5C 71.574,409.688 71.2407,407.688 70.5,405.5C 70.2514,406.582 70.0848,407.915 70,409.5C 69.4387,410.022 68.772,410.355 68,410.5C 63.5541,410.98 59.5541,410.313 56,408.5C 54.395,409.101 53.0616,410.101 52,411.5C 49.6174,409.045 46.9507,408.045 44,408.5C 42.1746,407.897 40.3413,407.23 38.5,406.5C 40.0396,405.468 40.5396,404.135 40,402.5C 39.1732,398.681 37.1732,395.681 34,393.5C 32.6667,394.167 31.3333,394.833 30,395.5C 29.3162,396.784 29.4829,397.951 30.5,399C 29.9535,399.925 29.2868,400.758 28.5,401.5C 26.9579,400.253 25.4579,400.253 24,401.5C 21.3103,397.17 19.3103,397.504 18,402.5C 19.0721,399.824 18.4055,397.491 16,395.5C 15.3632,397.303 14.1965,398.636 12.5,399.5C 11.8076,398.975 11.3076,398.308 11,397.5C 10.5272,399.779 9.52715,401.779 8,403.5C 6.08577,402.324 6.25244,401.324 8.5,400.5C 7.83333,400.167 7.16667,399.833 6.5,399.5C 7.02527,398.808 7.69194,398.308 8.5,398C 7.31471,396.647 5.98138,395.48 4.5,394.5C 5.37598,393.749 6.37598,393.249 7.5,393C 6.33333,391.833 5.16667,390.667 4,389.5C 3.75083,390.624 3.25083,391.624 2.5,392.5C 0.403801,391.38 0.0704681,389.88 1.5,388C 0.905578,387.536 0.238911,387.369 -0.5,387.5C -0.5,387.167 -0.5,386.833 -0.5,386.5C 0.472826,385.209 1.47283,385.209 2.5,386.5C 3.60388,385.369 3.27055,384.535 1.5,384C 3.16667,383.667 4.83333,383.333 6.5,383C 5.5,382.667 4.5,382.333 3.5,382C 4.83333,381 4.83333,380 3.5,379C 5.33434,376.797 7.16767,374.63 9,372.5C 9.68379,371.216 9.51712,370.049 8.5,369C 10.286,368.215 11.786,367.049 13,365.5C 14.3703,361.867 16.2036,358.533 18.5,355.5C 17.7614,352.852 17.9281,350.186 19,347.5C 19.414,347.957 19.914,348.291 20.5,348.5C 21.9488,345.268 23.1155,341.935 24,338.5C 24.3333,339.167 24.6667,339.833 25,340.5C 25.6869,338.432 25.5202,336.432 24.5,334.5C 27.4083,330.168 29.4083,325.501 30.5,320.5C 32.8726,318.591 32.8726,316.758 30.5,315C 31.7836,313.703 31.6169,312.536 30,311.5C 28.9698,313.776 27.4698,314.443 25.5,313.5C 26.9587,311.417 28.2921,309.25 29.5,307C 28.2625,306.768 27.2625,306.268 26.5,305.5C 27.2389,305.631 27.9056,305.464 28.5,305C 27.6634,303.989 27.33,302.822 27.5,301.5C 28.552,301.649 29.552,301.483 30.5,301C 31.3041,299.229 32.4708,297.729 34,296.5C 34.3826,297.056 34.8826,297.389 35.5,297.5C 35.5,297.833 35.5,298.167 35.5,298.5C 36.8734,298.657 38.2068,298.49 39.5,298C 38.944,297.617 38.6107,297.117 38.5,296.5C 41.1553,295.533 41.822,293.867 40.5,291.5C 41,291.167 41.5,290.833 42,290.5C 44.0909,290.579 46.2576,290.913 48.5,291.5C 50.5,290.167 52.5,288.833 54.5,287.5C 55.8027,288.718 56.8027,288.385 57.5,286.5C 59.5385,287.277 60.2052,288.443 59.5,290C 60.448,290.483 61.448,290.649 62.5,290.5C 62.6399,288.876 61.9733,287.71 60.5,287C 62.4806,285.369 64.4806,285.535 66.5,287.5C 67.452,286.467 67.452,285.3 66.5,284C 69.4692,280.862 71.9692,281.362 74,285.5C 76.1667,284 78,282.167 79.5,280C 80.8333,279.667 82.1667,279.333 83.5,279C 82.944,278.617 82.6107,278.117 82.5,277.5C 84.3767,277.9 85.8767,278.9 87,280.5C 88.2853,280.05 89.452,279.383 90.5,278.5C 92.0701,278.694 93.5701,278.694 95,278.5C 95.2649,280.163 94.7649,281.663 93.5,283C 94.7425,283.311 95.7425,282.811 96.5,281.5C 97.6956,281.846 97.6956,282.346 96.5,283C 97.7659,283.309 98.9326,283.809 100,284.5C 100.492,283.451 100.326,282.451 99.5,281.5C 100.665,280.416 101.998,279.583 103.5,279C 102.167,278 100.833,277 99.5,276C 100.227,274.601 100.727,273.101 101,271.5C 101.308,272.308 101.808,272.975 102.5,273.5C 103.814,272.687 104.981,271.687 106,270.5C 108.418,272.68 111.084,273.013 114,271.5C 114.902,274.804 116.236,275.138 118,272.5C 119.646,274.141 120.646,273.807 121,271.5C 121.293,274.954 122.626,275.288 125,272.5C 126.389,276.272 127.389,276.272 128,272.5C 129.399,273.227 130.899,273.727 132.5,274C 132.167,274.333 131.833,274.667 131.5,275C 133.138,275.242 134.638,276.075 136,277.5C 136.833,276.5 137.667,275.5 138.5,274.5C 139.833,275.5 141.167,276.5 142.5,277.5C 143.833,276.833 145.167,276.167 146.5,275.5C 151.77,276.988 157.103,277.821 162.5,278C 162.833,277.667 163.167,277.333 163.5,277C 160.949,275.484 161.282,274.651 164.5,274.5C 164.085,276.948 165.085,278.281 167.5,278.5C 169.329,277.535 171.162,276.535 173,275.5C 175.241,275.68 175.741,276.513 174.5,278C 175.025,278.692 175.692,279.192 176.5,279.5C 179.299,278.719 181.966,278.386 184.5,278.5 Z M 509.5,289.5 C 510.363,288.537 511.03,288.537 511.5,289.5C 510.743,290.773 510.077,290.773 509.5,289.5 Z M 103.5,290.5 C 105.337,290.639 105.67,291.306 104.5,292.5C 103.702,292.043 103.369,291.376 103.5,290.5 Z M 38.5,296.5 C 38.6107,297.117 38.944,297.617 39.5,298C 38.2068,298.49 36.8734,298.657 35.5,298.5C 35.5,298.167 35.5,297.833 35.5,297.5C 36.609,297.443 37.609,297.11 38.5,296.5 Z M 106.5,297.5 C 108.035,296.212 109.701,296.212 111.5,297.5C 109.93,297.738 108.263,297.738 106.5,297.5 Z M 129.5,303.5 C 129.842,304.338 130.508,304.672 131.5,304.5C 131.5,303.833 131.5,303.167 131.5,302.5C 133.38,302.229 134.713,302.896 135.5,304.5C 137.044,304.297 138.378,303.63 139.5,302.5C 140.5,303.167 141.5,303.833 142.5,304.5C 143.192,303.975 143.692,303.308 144,302.5C 144.223,304.881 145.39,306.547 147.5,307.5C 147.47,306.503 147.97,305.836 149,305.5C 150.44,306.148 151.94,306.481 153.5,306.5C 153.238,307.978 153.571,309.311 154.5,310.5C 155.833,307.335 158,305.002 161,303.5C 161.667,305.5 162.333,307.5 163,309.5C 164.563,306.956 166.063,306.956 167.5,309.5C 168.506,309.062 168.506,308.396 167.5,307.5C 169.961,305.26 172.627,304.927 175.5,306.5C 175.229,308.38 175.896,309.713 177.5,310.5C 178.806,309.533 179.473,308.199 179.5,306.5C 178.448,306.649 177.448,306.483 176.5,306C 177.944,305.219 179.277,305.386 180.5,306.5C 181.008,308.904 182.175,309.571 184,308.5C 185,309.167 186,309.833 187,310.5C 188.333,309.167 189.667,309.167 191,310.5C 190.954,308.687 191.12,307.021 191.5,305.5C 192.452,307.045 192.785,308.712 192.5,310.5C 193.833,310.5 195.167,310.5 196.5,310.5C 196.833,311.833 197.167,311.833 197.5,310.5C 198.873,310.657 200.207,310.49 201.5,310C 201.057,308.482 201.724,307.315 203.5,306.5C 205.568,307.954 207.401,310.287 209,313.5C 209.333,311.833 209.667,310.167 210,308.5C 210.671,309.252 211.504,309.586 212.5,309.5C 212.517,307.972 213.184,307.472 214.5,308C 216.875,310.732 219.375,313.232 222,315.5C 222.278,314.584 222.778,313.918 223.5,313.5C 224.11,312.609 224.443,311.609 224.5,310.5C 226.129,312.06 227.296,311.727 228,309.5C 228.219,310.938 228.719,312.271 229.5,313.5C 229.313,312.183 229.98,310.85 231.5,309.5C 232.425,310.641 233.259,310.641 234,309.5C 235.333,311.5 237,313.167 239,314.5C 240.481,313.529 241.315,312.196 241.5,310.5C 241.833,310.5 242.167,310.5 242.5,310.5C 242.281,311.675 242.614,312.675 243.5,313.5C 245.34,312.33 247.006,311.33 248.5,310.5C 249.167,310.5 249.833,310.5 250.5,310.5C 251.868,311.472 253.368,312.472 255,313.5C 254.547,311.546 254.38,309.713 254.5,308C 255,307.833 255.5,307.667 256,307.5C 258.507,309.904 261.174,312.237 264,314.5C 265.273,312.428 267.107,311.095 269.5,310.5C 272.912,313.369 275.579,312.703 277.5,308.5C 279.258,309.128 280.758,310.128 282,311.5C 282.333,310.833 282.667,310.167 283,309.5C 284.117,310.949 284.784,312.616 285,314.5C 285.928,312.665 287.094,312.332 288.5,313.5C 289.298,311.922 289.798,310.256 290,308.5C 290.266,311.984 291.766,312.984 294.5,311.5C 295.847,312.171 297.014,312.171 298,311.5C 299.017,314.028 300.184,314.028 301.5,311.5C 303.967,312.874 305.801,312.207 307,309.5C 307.324,311.569 308.158,311.902 309.5,310.5C 310.5,311.167 311.5,311.833 312.5,312.5C 314.572,310.384 316.738,308.384 319,306.5C 318.667,308.5 318.333,310.5 318,312.5C 318.333,312.833 318.667,313.167 319,313.5C 320.33,312.418 321.83,311.751 323.5,311.5C 323.369,312.239 323.536,312.906 324,313.5C 324.923,312.241 325.757,310.908 326.5,309.5C 327.696,309.846 327.696,310.346 326.5,311C 328.955,312.864 331.122,312.698 333,310.5C 333.333,311.167 333.667,311.833 334,312.5C 336.258,309.965 338.425,309.632 340.5,311.5C 342.709,310.405 344.875,310.738 347,312.5C 347.546,311.711 348.213,310.711 349,309.5C 350,310.833 351,310.833 352,309.5C 352.981,312.689 354.314,313.022 356,310.5C 357.666,311.34 357.833,310.84 356.5,309C 357,308.5 357.5,308 358,307.5C 358.368,308.91 359.201,309.91 360.5,310.5C 363.777,310.546 366.944,310.212 370,309.5C 371.163,313.213 372.663,313.213 374.5,309.5C 375.265,310.612 376.265,311.279 377.5,311.5C 377.833,312.833 378.167,312.833 378.5,311.5C 379.794,310.71 380.961,309.71 382,308.5C 383.292,309.791 384.458,309.791 385.5,308.5C 386.289,308.783 386.956,309.283 387.5,310C 386.289,310.893 386.289,311.726 387.5,312.5C 390.269,310.898 393.269,309.898 396.5,309.5C 398.225,311.092 399.225,310.758 399.5,308.5C 398.115,307.698 398.282,307.031 400,306.5C 401.595,307.356 402.428,308.689 402.5,310.5C 404.291,309.517 405.791,308.184 407,306.5C 407.684,307.784 407.517,308.951 406.5,310C 407.676,312.301 409.01,312.634 410.5,311C 410.167,310.667 409.833,310.333 409.5,310C 411.025,308.991 412.692,308.491 414.5,308.5C 414.389,309.117 414.056,309.617 413.5,310C 414.701,310.903 415.535,312.069 416,313.5C 416.508,311.096 417.675,310.429 419.5,311.5C 422.028,310.483 422.028,309.316 419.5,308C 421.367,307.289 422.867,307.789 424,309.5C 425.085,308.707 426.252,308.04 427.5,307.5C 429.5,308.5 431.5,309.5 433.5,310.5C 434.5,310 435.5,309.5 436.5,309C 435.446,307.612 435.28,306.112 436,304.5C 436.495,306.99 437.995,308.49 440.5,309C 442.891,309.287 445.224,309.787 447.5,310.5C 448.541,308.009 449.374,308.009 450,310.5C 450.333,309.5 450.667,308.5 451,307.5C 452.011,308.337 453.178,308.67 454.5,308.5C 455.749,310.972 457.415,311.139 459.5,309C 458.944,308.617 458.611,308.117 458.5,307.5C 460.807,307.388 462.973,308.388 465,310.5C 465.49,309.207 465.657,307.873 465.5,306.5C 468.237,306.401 470.904,306.735 473.5,307.5C 474.171,306.153 474.171,304.986 473.5,304C 474.094,303.536 474.761,303.369 475.5,303.5C 475.227,305.451 475.893,306.951 477.5,308C 470.888,312.461 464.222,316.628 457.5,320.5C 454.972,322.78 451.972,324.614 448.5,326C 447.874,326.75 447.374,327.584 447,328.5C 445.972,326.639 444.472,325.305 442.5,324.5C 441.289,325.274 441.289,326.107 442.5,327C 442,327.167 441.5,327.333 441,327.5C 439.908,326.704 438.741,326.037 437.5,325.5C 436.584,325.543 435.917,325.876 435.5,326.5C 433.901,327.562 432.234,327.562 430.5,326.5C 429.626,325.475 428.459,324.808 427,324.5C 425.467,325.695 423.967,325.695 422.5,324.5C 421.712,325.77 420.712,326.77 419.5,327.5C 419.209,326.351 418.376,325.684 417,325.5C 415.089,326.407 413.256,326.407 411.5,325.5C 410.522,325.977 409.689,326.643 409,327.5C 408.667,326.833 408.333,326.167 408,325.5C 406.467,325.944 404.967,326.277 403.5,326.5C 402.833,325.833 402.167,325.167 401.5,324.5C 400.807,328.182 399.307,328.182 397,324.5C 395.583,325.078 394.75,326.078 394.5,327.5C 392.61,327.703 391.11,327.037 390,325.5C 386.987,327.215 384.32,326.548 382,323.5C 378.937,324.675 378.77,326.009 381.5,327.5C 380.5,327.5 379.5,327.5 378.5,327.5C 378.29,324.03 377.123,324.03 375,327.5C 373.698,326.915 372.531,326.249 371.5,325.5C 367.68,325.677 363.513,326.01 359,326.5C 356.202,324.201 353.535,324.201 351,326.5C 349.097,326.306 347.263,326.306 345.5,326.5C 346.061,324.934 345.394,323.601 343.5,322.5C 342.614,323.325 342.281,324.325 342.5,325.5C 341.518,326.141 340.518,326.807 339.5,327.5C 338.468,324.807 336.802,324.14 334.5,325.5C 333.176,322.919 331.676,322.919 330,325.5C 328.739,324.342 327.573,324.342 326.5,325.5C 324.511,324.113 322.678,324.447 321,326.5C 318.036,322.499 315.036,322.166 312,325.5C 310.54,323.578 308.873,322.911 307,323.5C 305.333,324.5 303.667,325.5 302,326.5C 302.077,325.262 301.911,324.262 301.5,323.5C 299.095,325.33 296.595,325.997 294,325.5C 292.566,323.864 290.733,322.864 288.5,322.5C 286.345,322.838 284.011,322.838 281.5,322.5C 281.158,323.338 280.492,323.672 279.5,323.5C 279.672,324.492 279.338,325.158 278.5,325.5C 277.093,323.692 275.926,321.692 275,319.5C 274.751,320.624 274.251,321.624 273.5,322.5C 267.497,322.101 261.33,322.101 255,322.5C 251.634,320.306 248.134,320.306 244.5,322.5C 243.808,321.975 243.308,321.308 243,320.5C 240.266,323.293 239.266,322.959 240,319.5C 237.758,322.474 235.592,322.807 233.5,320.5C 232.417,320.539 231.417,320.873 230.5,321.5C 229.449,320.115 228.116,319.115 226.5,318.5C 226.002,319.603 225.669,320.603 225.5,321.5C 222.697,319.575 219.697,319.575 216.5,321.5C 214.718,318.77 212.385,318.103 209.5,319.5C 207.895,317.121 206.562,317.121 205.5,319.5C 204.732,318.737 204.232,317.737 204,316.5C 203.283,317.044 202.783,317.711 202.5,318.5C 200.533,317.368 198.7,317.701 197,319.5C 196.309,317.109 195.309,317.109 194,319.5C 193.005,318.934 192.172,318.267 191.5,317.5C 190.5,317.5 189.5,317.5 188.5,317.5C 188.265,316.903 187.765,316.57 187,316.5C 185.667,317.167 184.333,317.833 183,318.5C 181.699,318.361 180.866,317.695 180.5,316.5C 178.516,316.383 176.85,317.05 175.5,318.5C 171.776,316.232 167.943,316.232 164,318.5C 162.984,317.366 162.317,317.699 162,319.5C 161.889,314.621 160.722,314.288 158.5,318.5C 157.749,317.624 157.249,316.624 157,315.5C 155.182,317.645 153.682,317.645 152.5,315.5C 150.837,316.875 149.503,316.542 148.5,314.5C 146.884,315.115 145.551,316.115 144.5,317.5C 143.197,314.621 141.197,313.955 138.5,315.5C 137.808,314.975 137.308,314.308 137,313.5C 136.033,314.678 135.533,316.011 135.5,317.5C 133.709,316.076 131.875,314.742 130,313.5C 127.435,315.179 124.602,315.846 121.5,315.5C 120.434,316.692 119.601,316.359 119,314.5C 118.586,314.957 118.086,315.291 117.5,315.5C 114.011,314.402 110.678,313.735 107.5,313.5C 106.858,316.797 105.691,317.131 104,314.5C 103.692,315.308 103.192,315.975 102.5,316.5C 100.956,313.922 98.7891,314.255 96,317.5C 95.4177,314.332 94.4177,313.999 93,316.5C 92.2613,315.426 91.2613,314.759 90,314.5C 87.8458,315.274 85.6792,315.941 83.5,316.5C 82.791,317.404 81.791,317.737 80.5,317.5C 80.719,316.325 80.3857,315.325 79.5,314.5C 76.552,315.134 73.552,315.467 70.5,315.5C 70.5858,314.504 70.2524,313.671 69.5,313C 72.2538,312.728 74.9205,312.228 77.5,311.5C 78.172,310.733 79.0053,310.066 80,309.5C 81.4399,312.335 83.2733,312.835 85.5,311C 84.8333,310.333 84.1667,309.667 83.5,309C 85.856,308.845 88.1893,308.845 90.5,309C 93.2971,305.971 97.1305,303.471 102,301.5C 102.95,302.022 103.784,302.689 104.5,303.5C 105.096,302.284 105.263,300.951 105,299.5C 106.758,300.469 107.258,301.636 106.5,303C 109.489,305.272 110.822,304.439 110.5,300.5C 112.698,301.014 114.698,302.014 116.5,303.5C 117.5,302.833 118.5,302.167 119.5,301.5C 120.696,301.846 120.696,302.346 119.5,303C 122.582,305.68 125.915,305.847 129.5,303.5 Z M 123.5,301.5 C 121.972,301.483 121.472,300.816 122,299.5C 122.717,300.044 123.217,300.711 123.5,301.5 Z M 123.5,301.5 C 124.363,300.537 125.03,300.537 125.5,301.5C 124.743,302.773 124.077,302.773 123.5,301.5 Z M 480.5,302.5 C 481.675,302.281 482.675,302.614 483.5,303.5C 482.14,304.665 481.14,304.332 480.5,302.5 Z M 153.5,303.5 C 156.797,303.329 157.131,303.995 154.5,305.5C 153.702,305.043 153.369,304.376 153.5,303.5 Z M 217.5,303.5 C 218.776,304.386 218.776,305.386 217.5,306.5C 216.913,305.767 216.913,304.767 217.5,303.5 Z M 392.5,303.5 C 393.773,304.077 393.773,304.743 392.5,305.5C 391.537,305.03 391.537,304.363 392.5,303.5 Z M 449.5,304.5 C 450.773,305.077 450.773,305.743 449.5,306.5C 448.537,306.03 448.537,305.363 449.5,304.5 Z M 273.5,305.5 C 274.773,306.077 274.773,306.743 273.5,307.5C 272.537,307.03 272.537,306.363 273.5,305.5 Z M 233.5,306.5 C 235.983,306.73 236.483,307.397 235,308.5C 233.97,308.164 233.47,307.497 233.5,306.5 Z M 457.5,307.5 C 456.895,309.481 455.895,309.815 454.5,308.5C 454.369,307.761 454.536,307.094 455,306.5C 455.671,307.252 456.504,307.586 457.5,307.5 Z M 264.5,307.5 C 267.797,307.329 268.131,307.995 265.5,309.5C 264.702,309.043 264.369,308.376 264.5,307.5 Z M 241.5,310.5 C 239.972,310.483 239.472,309.816 240,308.5C 240.717,309.044 241.217,309.711 241.5,310.5 Z M 242.5,310.5 C 243.077,309.227 243.743,309.227 244.5,310.5C 244.03,311.463 243.363,311.463 242.5,310.5 Z M 294.5,311.5 C 291.863,309.846 292.197,309.346 295.5,310C 294.944,310.383 294.611,310.883 294.5,311.5 Z M 482.5,311.5 C 482.517,309.972 483.184,309.472 484.5,310C 483.956,310.717 483.289,311.217 482.5,311.5 Z M 529.5,313.5 C 527.645,313.728 526.812,313.061 527,311.5C 527.995,312.066 528.828,312.733 529.5,313.5 Z M 472.5,314.5 C 475.001,314.511 475.168,315.178 473,316.5C 472.536,315.906 472.369,315.239 472.5,314.5 Z M 188.5,317.5 C 188.029,318.901 187.362,320.234 186.5,321.5C 185.059,319.167 185.725,317.834 188.5,317.5 Z M 172.5,318.5 C 173.773,319.077 173.773,319.743 172.5,320.5C 171.537,320.03 171.537,319.363 172.5,318.5 Z M 205.5,319.5 C 206.776,320.386 206.776,321.386 205.5,322.5C 204.438,321.575 204.438,320.575 205.5,319.5 Z M 245.5,323.5 C 246.773,324.077 246.773,324.743 245.5,325.5C 244.537,325.03 244.537,324.363 245.5,323.5 Z M 33.5,325.5 C 34.2891,325.783 34.9558,326.283 35.5,327C 34.184,327.528 33.5173,327.028 33.5,325.5 Z M 282.5,325.5 C 285.001,325.511 285.168,326.178 283,327.5C 282.536,326.906 282.369,326.239 282.5,325.5 Z M 309.5,326.5 C 310.289,326.783 310.956,327.283 311.5,328C 310.184,328.528 309.517,328.028 309.5,326.5 Z M 381.5,327.5 C 383.028,327.517 383.528,328.184 383,329.5C 382.283,328.956 381.783,328.289 381.5,327.5 Z M 424.5,327.5 C 425.376,327.369 426.043,327.702 426.5,328.5C 424.192,329.873 423.525,329.54 424.5,327.5 Z M 507.5,331.5 C 506.553,333.758 507.553,334.925 510.5,335C 509.549,335.718 509.383,336.551 510,337.5C 514.446,341.053 516.612,345.387 516.5,350.5C 516.833,351.833 517.167,351.833 517.5,350.5C 520.544,354.282 522.878,358.616 524.5,363.5C 525.901,362.479 527.235,361.479 528.5,360.5C 530.476,361.427 530.809,362.76 529.5,364.5C 526.961,365.115 524.461,365.782 522,366.5C 521.405,365.101 521.572,363.768 522.5,362.5C 521.998,361.479 521.332,361.312 520.5,362C 519.845,363.487 518.845,364.653 517.5,365.5C 516.548,367.045 516.215,368.712 516.5,370.5C 515.07,370.579 513.736,370.246 512.5,369.5C 511.205,370.098 509.872,370.598 508.5,371C 511.365,373.403 511.199,374.236 508,373.5C 506.678,377.31 504.511,379.643 501.5,380.5C 503.109,381.898 503.942,383.565 504,385.5C 502.671,386.494 501.338,387.494 500,388.5C 498.415,387.956 496.915,387.289 495.5,386.5C 495.176,385.188 494.509,384.355 493.5,384C 493.645,383.228 493.978,382.561 494.5,382C 490.625,380.653 490.625,379.486 494.5,378.5C 491.931,375.603 490.264,372.27 489.5,368.5C 487.451,367.118 485.785,365.452 484.5,363.5C 485.837,362.685 486.837,361.518 487.5,360C 486.464,358.383 485.297,358.216 484,359.5C 484.284,355.595 482.784,354.262 479.5,355.5C 479.913,352.68 478.913,350.68 476.5,349.5C 476.918,348.778 477.584,348.278 478.5,348C 477.944,347.617 477.611,347.117 477.5,346.5C 478.473,346.013 479.473,345.513 480.5,345C 477.469,341.728 477.803,340.561 481.5,341.5C 481.833,342.833 482.167,342.833 482.5,341.5C 484.351,341.649 486.184,341.649 488,341.5C 488.309,340.234 488.809,339.067 489.5,338C 488.833,337.667 488.167,337.333 487.5,337C 488.667,336.5 489.5,335.667 490,334.5C 490.333,335.5 490.667,336.5 491,337.5C 491.967,336.322 492.467,334.989 492.5,333.5C 496.845,336.314 498.845,334.981 498.5,329.5C 500.144,329.286 501.644,329.62 503,330.5C 503.419,329.328 504.085,328.328 505,327.5C 505.122,329.437 505.955,330.77 507.5,331.5 Z M 540.5,329.5 C 539.251,331.972 537.585,332.139 535.5,330C 536.676,328.086 537.676,328.252 538.5,330.5C 539.183,330.137 539.85,329.804 540.5,329.5 Z M 488.5,330.5 C 491.137,332.154 490.803,332.654 487.5,332C 488.056,331.617 488.389,331.117 488.5,330.5 Z M 66.5,339.5 C 69.0009,339.511 69.1676,340.178 67,341.5C 66.5357,340.906 66.369,340.239 66.5,339.5 Z M 153.5,339.5 C 156.001,339.511 156.168,340.178 154,341.5C 153.536,340.906 153.369,340.239 153.5,339.5 Z M 88.5,343.5 C 86.663,343.361 86.3296,342.694 87.5,341.5C 88.2975,341.957 88.6309,342.624 88.5,343.5 Z M 171.5,343.5 C 171.511,340.999 172.178,340.832 173.5,343C 172.906,343.464 172.239,343.631 171.5,343.5 Z M 191.5,346.5 C 190.438,345.425 190.438,344.425 191.5,343.5C 192.776,344.614 192.776,345.614 191.5,346.5 Z M 543.5,345.5 C 542.711,345.217 542.044,344.717 541.5,344C 542.816,343.472 543.483,343.972 543.5,345.5 Z M 265.5,348.5 C 265.639,346.663 266.306,346.33 267.5,347.5C 267.043,348.298 266.376,348.631 265.5,348.5 Z M 46.5,348.5 C 47.0768,347.227 47.7435,347.227 48.5,348.5C 48.0302,349.463 47.3635,349.463 46.5,348.5 Z M 265.5,348.5 C 265.158,349.338 264.492,349.672 263.5,349.5C 263.409,347.302 264.075,346.969 265.5,348.5 Z M 289.5,348.5 C 290.289,348.783 290.956,349.283 291.5,350C 290.184,350.528 289.517,350.028 289.5,348.5 Z M 318.5,353.5 C 318.094,351.891 318.094,350.557 318.5,349.5C 319.782,350.958 319.782,352.292 318.5,353.5 Z M 539.5,349.5 C 540.833,349.5 541.5,350.167 541.5,351.5C 541.5,350.167 540.833,349.5 539.5,349.5 Z M 349.5,352.5 C 348.711,352.217 348.044,351.717 347.5,351C 348.816,350.472 349.483,350.972 349.5,352.5 Z M 479.5,355.5 C 480.463,356.363 480.463,357.03 479.5,357.5C 478.227,356.743 478.227,356.077 479.5,355.5 Z M 535.5,362.5 C 534.624,362.631 533.957,362.298 533.5,361.5C 534.057,359.765 534.39,358.098 534.5,356.5C 535.466,358.396 535.799,360.396 535.5,362.5 Z M 484.5,363.5 C 482.663,363.361 482.33,362.694 483.5,361.5C 484.298,361.957 484.631,362.624 484.5,363.5 Z M 535.5,362.5 C 536.117,362.389 536.617,362.056 537,361.5C 537.781,362.944 537.614,364.277 536.5,365.5C 535.614,364.675 535.281,363.675 535.5,362.5 Z M 376.5,376.5 C 378.085,377.002 378.585,378.002 378,379.5C 376.961,378.756 376.461,377.756 376.5,376.5 Z M 368.5,378.5 C 373.023,377.351 373.357,378.017 369.5,380.5C 368.702,380.043 368.369,379.376 368.5,378.5 Z M 186.5,378.5 C 189.001,378.511 189.168,379.178 187,380.5C 186.536,379.906 186.369,379.239 186.5,378.5 Z M 450.5,378.5 C 451.043,378.56 451.376,378.893 451.5,379.5C 450.635,380.583 449.635,380.749 448.5,380C 449.416,379.722 450.082,379.222 450.5,378.5 Z M 181.5,379.5 C 184.001,379.511 184.168,380.178 182,381.5C 181.536,380.906 181.369,380.239 181.5,379.5 Z M 237.5,379.5 C 238.773,380.077 238.773,380.743 237.5,381.5C 236.537,381.03 236.537,380.363 237.5,379.5 Z M 66.5,380.5 C 67.404,381.209 67.7373,382.209 67.5,383.5C 66.1266,383.657 64.7932,383.49 63.5,383C 64.9423,382.623 65.9423,381.79 66.5,380.5 Z M 157.5,381.5 C 160.001,381.511 160.168,382.178 158,383.5C 157.536,382.906 157.369,382.239 157.5,381.5 Z M 490.5,385.5 C 491.239,385.369 491.906,385.536 492.5,386C 492.201,387.32 492.034,388.82 492,390.5C 490.192,388.967 489.692,387.3 490.5,385.5 Z M 452.5,386.5 C 453.289,386.783 453.956,387.283 454.5,388C 453.184,388.528 452.517,388.028 452.5,386.5 Z M 488.5,389.5 C 489.267,390.172 489.934,391.005 490.5,392C 488.939,392.188 488.272,391.355 488.5,389.5 Z M 494.5,389.5 C 495.267,390.172 495.934,391.005 496.5,392C 494.833,392.667 493.167,392.667 491.5,392C 493.119,391.764 494.119,390.931 494.5,389.5 Z M 498.5,398.5 C 498.167,398.5 497.833,398.5 497.5,398.5C 496.537,397.637 496.537,396.97 497.5,396.5C 498.298,396.957 498.631,397.624 498.5,398.5 Z M 358.5,402.5 C 359.077,401.227 359.743,401.227 360.5,402.5C 360.03,403.463 359.363,403.463 358.5,402.5 Z M 48.5,402.5 C 49.6211,404.089 49.4544,405.756 48,407.5C 47.3603,405.735 47.5269,404.068 48.5,402.5 Z M 196.5,402.5 C 197.249,403.531 197.915,404.698 198.5,406C 198.167,406.167 197.833,406.333 197.5,406.5C 196.571,405.311 196.238,403.978 196.5,402.5 Z M 279.5,402.5 C 280.773,403.077 280.773,403.743 279.5,404.5C 278.537,404.03 278.537,403.363 279.5,402.5 Z M 119.5,404.5 C 121.646,404.696 121.812,405.696 120,407.5C 119.517,406.552 119.351,405.552 119.5,404.5 Z"/></g>
<g><path style="opacity:0.169" fill="#000000" d="M 145.5,272.5 C 146.833,273.167 146.833,273.167 145.5,272.5 Z"/></g>
<g><path style="opacity:0.542" fill="#000000" d="M 499.5,272.5 C 502.028,273.518 501.861,274.518 499,275.5C 498.5,275.167 498,274.833 497.5,274.5C 498.243,273.818 498.909,273.151 499.5,272.5 Z"/></g>
<g><path style="opacity:0.367" fill="#000000" d="M 95.5,273.5 C 97.7602,274.238 97.9269,275.238 96,276.5C 94.2716,275.648 94.105,274.648 95.5,273.5 Z"/></g>
<g><path style="opacity:0.137" fill="#000000" d="M 140.5,273.5 C 141.833,274.167 141.833,274.167 140.5,273.5 Z"/></g>
<g><path style="opacity:0.286" fill="#000000" d="M 492.5,275.5 C 491.833,274.167 491.833,274.167 492.5,275.5 Z"/></g>
<g><path style="opacity:0.063" fill="#000000" d="M 82.5,277.5 C 81.8333,276.167 81.8333,276.167 82.5,277.5 Z"/></g>
<g><path style="opacity:0.067" fill="#000000" d="M 89.5,276.5 C 90.8333,277.167 90.8333,277.167 89.5,276.5 Z"/></g>
<g><path style="opacity:0.153" fill="#000000" d="M 178.5,276.5 C 179.833,277.167 179.833,277.167 178.5,276.5 Z"/></g>
<g><path style="opacity:0.571" fill="#000000" d="M 184.5,278.5 C 184.639,276.663 185.306,276.33 186.5,277.5C 186.043,278.298 185.376,278.631 184.5,278.5 Z"/></g>
<g><path style="opacity:0.094" fill="#000000" d="M 191.5,277.5 C 190.833,276.167 190.833,276.167 191.5,277.5 Z"/></g>
<g><path style="opacity:0.055" fill="#000000" d="M 844.5,276.5 C 845.833,277.167 845.833,277.167 844.5,276.5 Z"/></g>
<g><path style="opacity:0.141" fill="#000000" d="M 220.5,277.5 C 221.833,278.167 221.833,278.167 220.5,277.5 Z"/></g>
<g><path style="opacity:0.484" fill="#000000" d="M 354.5,277.5 C 355.311,280.484 354.311,280.984 351.5,279C 352.737,278.768 353.737,278.268 354.5,277.5 Z"/></g>
<g><path style="opacity:0.146" fill="#000000" d="M 379.5,279.5 C 376.999,279.489 376.832,278.822 379,277.5C 379.464,278.094 379.631,278.761 379.5,279.5 Z"/></g>
<g><path style="opacity:0.502" fill="#000000" d="M 265.5,280.5 C 262.863,278.846 263.197,278.346 266.5,279C 265.944,279.383 265.611,279.883 265.5,280.5 Z"/></g>
<g><path style="opacity:0.518" fill="#000000" d="M 275.5,280.5 C 275.639,278.663 276.306,278.33 277.5,279.5C 277.043,280.298 276.376,280.631 275.5,280.5 Z"/></g>
<g><path style="opacity:0.468" fill="#000000" d="M 507.5,281.5 C 506.833,281.5 506.5,281.167 506.5,280.5C 508.496,277.551 509.829,277.884 510.5,281.5C 509.575,282.562 508.575,282.562 507.5,281.5 Z"/></g>
<g><path style="opacity:0.271" fill="#000000" d="M 72.5,279.5 C 73.525,279.897 73.6917,280.563 73,281.5C 72.5357,280.906 72.369,280.239 72.5,279.5 Z"/></g>
<g><path style="opacity:0.059" fill="#000000" d="M 97.5,279.5 C 98.8333,280.167 98.8333,280.167 97.5,279.5 Z"/></g>
<g><path style="opacity:0.2" fill="#000000" d="M 232.5,279.5 C 233.833,280.167 233.833,280.167 232.5,279.5 Z"/></g>
<g><path style="opacity:0.251" fill="#000000" d="M 299.5,279.5 C 300.833,280.167 300.833,280.167 299.5,279.5 Z"/></g>
<g><path style="opacity:0.239" fill="#000000" d="M 332.5,280.5 C 331.833,279.167 331.833,279.167 332.5,280.5 Z"/></g>
<g><path style="opacity:0.263" fill="#000000" d="M 64.5,281.5 C 65.525,281.897 65.6917,282.563 65,283.5C 64.5357,282.906 64.369,282.239 64.5,281.5 Z"/></g>
<g><path style="opacity:0.214" fill="#000000" d="M 52.5,284.5 C 53.525,284.897 53.6917,285.563 53,286.5C 52.5357,285.906 52.369,285.239 52.5,284.5 Z"/></g>
<g><path style="opacity:0.247" fill="#000000" d="M 49.5,286.5 C 50.8333,287.167 50.8333,287.167 49.5,286.5 Z"/></g>
<g><path style="opacity:0.259" fill="#000000" d="M 36.5,293.5 C 37.525,293.897 37.6917,294.563 37,295.5C 36.5357,294.906 36.369,294.239 36.5,293.5 Z"/></g>
<g><path style="opacity:0.545" fill="#000000" d="M 29.5,294.5 C 31.8102,296.278 31.6436,298.278 29,300.5C 27.0902,298.373 27.2569,296.373 29.5,294.5 Z"/></g>
<g><path style="opacity:0.29" fill="#000000" d="M 130.5,302.5 C 130.833,302.5 131.167,302.5 131.5,302.5C 131.5,303.167 131.5,303.833 131.5,304.5C 130.508,304.672 129.842,304.338 129.5,303.5C 130.167,303.5 130.5,303.167 130.5,302.5 Z"/></g>
<g><path style="opacity:0.514" fill="#000000" d="M 26.5,305.5 C 25.8333,304.167 25.8333,304.167 26.5,305.5 Z"/></g>
<g><path style="opacity:0.51" fill="#000000" d="M 98.5,304.5 C 99.2891,304.783 99.9558,305.283 100.5,306C 99.184,306.528 98.5173,306.028 98.5,304.5 Z"/></g>
<g><path style="opacity:0.347" fill="#000000" d="M 141.5,305.5 C 143.337,305.639 143.67,306.306 142.5,307.5C 141.702,307.043 141.369,306.376 141.5,305.5 Z"/></g>
<g><path style="opacity:0.122" fill="#000000" d="M 528.5,305.5 C 529.833,306.167 529.833,306.167 528.5,305.5 Z"/></g>
<g><path style="opacity:0.098" fill="#000000" d="M 887.5,305.5 C 888.833,306.167 888.833,306.167 887.5,305.5 Z"/></g>
<g><path style="opacity:0.133" fill="#000000" d="M 24.5,308.5 C 24.8966,307.475 25.5632,307.308 26.5,308C 25.9056,308.464 25.2389,308.631 24.5,308.5 Z"/></g>
<g><path style="opacity:0.292" fill="#000000" d="M 147.5,307.5 C 149.337,307.639 149.67,308.306 148.5,309.5C 147.702,309.043 147.369,308.376 147.5,307.5 Z"/></g>
<g><path style="opacity:0.476" fill="#000000" d="M 457.5,307.5 C 457.833,307.5 458.167,307.5 458.5,307.5C 458.611,308.117 458.944,308.617 459.5,309C 457.415,311.139 455.749,310.972 454.5,308.5C 455.895,309.815 456.895,309.481 457.5,307.5 Z"/></g>
<g><path style="opacity:0.205" fill="#000000" d="M 150.5,308.5 C 151.289,308.783 151.956,309.283 152.5,310C 151.184,310.528 150.517,310.028 150.5,308.5 Z"/></g>
<g><path style="opacity:0.229" fill="#000000" d="M 158.5,308.5 C 160.337,308.639 160.67,309.306 159.5,310.5C 158.702,310.043 158.369,309.376 158.5,308.5 Z"/></g>
<g><path style="opacity:0.386" fill="#000000" d="M 451.5,309.5 C 453.337,309.639 453.67,310.306 452.5,311.5C 451.702,311.043 451.369,310.376 451.5,309.5 Z"/></g>
<g><path style="opacity:0.537" fill="#000000" d="M 277.5,310.5 C 279.026,311.105 280.026,312.271 280.5,314C 278.522,313.967 277.522,312.8 277.5,310.5 Z"/></g>
<g><path style="opacity:0.521" fill="#000000" d="M 426.5,312.5 C 425.244,312.539 424.244,312.039 423.5,311C 424.998,310.415 425.998,310.915 426.5,312.5 Z"/></g>
<g><path style="opacity:0.231" fill="#000000" d="M 77.5,311.5 C 78.2891,311.783 78.9558,312.283 79.5,313C 78.184,313.528 77.5173,313.028 77.5,311.5 Z"/></g>
<g><path style="opacity:0.658" fill="#000000" d="M 430.5,311.5 C 431.773,312.077 431.773,312.743 430.5,313.5C 429.537,313.03 429.537,312.363 430.5,311.5 Z"/></g>
<g><path style="opacity:0.305" fill="#000000" d="M 97.5,312.5 C 98.7733,313.077 98.7733,313.743 97.5,314.5C 96.537,314.03 96.537,313.363 97.5,312.5 Z"/></g>
<g><path style="opacity:0.226" fill="#000000" d="M 282.5,312.5 C 283.773,313.077 283.773,313.743 282.5,314.5C 281.537,314.03 281.537,313.363 282.5,312.5 Z"/></g>
<g><path style="opacity:0.502" fill="#000000" d="M 26.5,315.5 C 30.2965,316.911 30.2965,317.911 26.5,318.5C 26.5,317.5 26.5,316.5 26.5,315.5 Z"/></g>
<g><path style="opacity:0.196" fill="#000000" d="M 536.5,316.5 C 537.833,317.167 537.833,317.167 536.5,316.5 Z"/></g>
<g><path style="opacity:0.38" fill="#000000" d="M 233.5,320.5 C 232.537,319.637 232.537,318.97 233.5,318.5C 234.773,319.257 234.773,319.923 233.5,320.5 Z"/></g>
<g><path style="opacity:0.463" fill="#000000" d="M 30.5,320.5 C 29.8333,319.167 29.8333,319.167 30.5,320.5 Z"/></g>
<g><path style="opacity:0.298" fill="#000000" d="M 543.5,332.5 C 544.833,333.167 544.833,333.167 543.5,332.5 Z"/></g>
<g><path style="opacity:0.286" fill="#000000" d="M 542.5,333.5 C 542.833,333.5 543.167,333.5 543.5,333.5C 543.315,334.17 542.981,334.17 542.5,333.5 Z"/></g>
<g><path style="opacity:0.137" fill="#000000" d="M 546.5,337.5 C 547.833,338.167 547.833,338.167 546.5,337.5 Z"/></g>
<g><path style="opacity:0.409" fill="#000000" d="M 74.5,343.5 C 72.5244,346.3 71.6911,345.967 72,342.5C 72.6708,343.252 73.5041,343.586 74.5,343.5 Z"/></g>
<g><path style="opacity:0.051" fill="#000000" d="M 124.5,342.5 C 125.833,343.167 125.833,343.167 124.5,342.5 Z"/></g>
<g><path style="opacity:0.271" fill="#000000" d="M 93.5,343.5 C 95.337,343.639 95.6704,344.306 94.5,345.5C 93.7025,345.043 93.3691,344.376 93.5,343.5 Z"/></g>
<g><path style="opacity:0.275" fill="#000000" d="M 118.5,343.5 C 117.833,344.167 117.833,344.167 118.5,343.5 Z"/></g>
<g><path style="opacity:0.26" fill="#000000" d="M 140.5,343.5 C 141.773,344.077 141.773,344.743 140.5,345.5C 139.537,345.03 139.537,344.363 140.5,343.5 Z"/></g>
<g><path style="opacity:0.11" fill="#000000" d="M 62.5,344.5 C 63.8333,345.167 63.8333,345.167 62.5,344.5 Z"/></g>
<g><path style="opacity:0.188" fill="#000000" d="M 123.5,345.5 C 124.833,346.167 124.833,346.167 123.5,345.5 Z"/></g>
<g><path style="opacity:0.154" fill="#000000" d="M 163.5,346.5 C 166.001,346.511 166.168,347.178 164,348.5C 163.536,347.906 163.369,347.239 163.5,346.5 Z"/></g>
<g><path style="opacity:0.043" fill="#000000" d="M 548.5,346.5 C 549.833,347.167 549.833,347.167 548.5,346.5 Z"/></g>
<g><path style="opacity:0.09" fill="#000000" d="M 90.5,347.5 C 91.8333,348.167 91.8333,348.167 90.5,347.5 Z"/></g>
<g><path style="opacity:0.094" fill="#000000" d="M 98.5,347.5 C 99.8333,348.167 99.8333,348.167 98.5,347.5 Z"/></g>
<g><path style="opacity:0.373" fill="#000000" d="M 242.5,347.5 C 243.833,348.167 243.833,348.167 242.5,347.5 Z"/></g>
<g><path style="opacity:0.329" fill="#000000" d="M 154.5,348.5 C 155.833,349.167 155.833,349.167 154.5,348.5 Z"/></g>
<g><path style="opacity:0.29" fill="#000000" d="M 192.5,348.5 C 191.833,349.167 191.833,349.167 192.5,348.5 Z"/></g>
<g><path style="opacity:0.21" fill="#000000" d="M 208.5,348.5 C 208.103,349.525 207.437,349.692 206.5,349C 207.094,348.536 207.761,348.369 208.5,348.5 Z"/></g>
<g><path style="opacity:0.094" fill="#000000" d="M 227.5,349.5 C 226.833,350.167 226.833,350.167 227.5,349.5 Z"/></g>
<g><path style="opacity:0.373" fill="#000000" d="M 211.5,350.5 C 212.833,351.167 212.833,351.167 211.5,350.5 Z"/></g>
<g><path style="opacity:0.067" fill="#000000" d="M 255.5,350.5 C 256.833,351.167 256.833,351.167 255.5,350.5 Z"/></g>
<g><path style="opacity:0.261" fill="#000000" d="M 249.5,351.5 C 250.239,351.369 250.906,351.536 251.5,352C 250.563,352.692 249.897,352.525 249.5,351.5 Z"/></g>
<g><path style="opacity:0.059" fill="#000000" d="M 238.5,352.5 C 239.833,353.167 239.833,353.167 238.5,352.5 Z"/></g>
<g><path style="opacity:0.302" fill="#000000" d="M 277.5,352.5 C 278.833,353.167 278.833,353.167 277.5,352.5 Z"/></g>
<g><path style="opacity:0.086" fill="#000000" d="M 241.5,353.5 C 242.833,354.167 242.833,354.167 241.5,353.5 Z"/></g>
<g><path style="opacity:0.205" fill="#000000" d="M 324.5,353.5 C 325.289,353.783 325.956,354.283 326.5,355C 325.184,355.528 324.517,355.028 324.5,353.5 Z"/></g>
<g><path style="opacity:0.255" fill="#000000" d="M 333.5,353.5 C 332.833,354.167 332.833,354.167 333.5,353.5 Z"/></g>
<g><path style="opacity:0.184" fill="#000000" d="M 337.5,353.5 C 337.631,354.239 337.464,354.906 337,355.5C 336.308,354.563 336.475,353.897 337.5,353.5 Z"/></g>
<g><path style="opacity:0.325" fill="#000000" d="M 53.5,354.5 C 54.8333,355.167 54.8333,355.167 53.5,354.5 Z"/></g>
<g><path style="opacity:0.075" fill="#000000" d="M 292.5,354.5 C 293.833,355.167 293.833,355.167 292.5,354.5 Z"/></g>
<g><path style="opacity:0.221" fill="#000000" d="M 315.5,355.5 C 316.077,354.227 316.743,354.227 317.5,355.5C 317.03,356.463 316.363,356.463 315.5,355.5 Z"/></g>
<g><path style="opacity:0.128" fill="#000000" d="M 359.5,354.5 C 359.489,357.001 358.822,357.168 357.5,355C 358.094,354.536 358.761,354.369 359.5,354.5 Z"/></g>
<g><path style="opacity:0.245" fill="#000000" d="M 370.5,354.5 C 370.833,354.5 371.167,354.5 371.5,354.5C 371.167,357.167 370.833,357.167 370.5,354.5 Z"/></g>
<g><path style="opacity:0.225" fill="#000000" d="M 426.5,354.5 C 427.525,354.897 427.692,355.563 427,356.5C 426.536,355.906 426.369,355.239 426.5,354.5 Z"/></g>
<g><path style="opacity:0.309" fill="#000000" d="M 437.5,354.5 C 439.337,354.639 439.67,355.306 438.5,356.5C 437.702,356.043 437.369,355.376 437.5,354.5 Z"/></g>
<g><path style="opacity:0.073" fill="#000000" d="M 303.5,355.5 C 304.525,355.897 304.692,356.563 304,357.5C 303.536,356.906 303.369,356.239 303.5,355.5 Z"/></g>
<g><path style="opacity:0.106" fill="#000000" d="M 379.5,355.5 C 380.833,356.167 380.833,356.167 379.5,355.5 Z"/></g>
<g><path style="opacity:0.216" fill="#000000" d="M 396.5,355.5 C 395.833,356.167 395.833,356.167 396.5,355.5 Z"/></g>
<g><path style="opacity:0.18" fill="#000000" d="M 543.5,356.5 C 543.897,355.475 544.563,355.308 545.5,356C 544.906,356.464 544.239,356.631 543.5,356.5 Z"/></g>
<g><path style="opacity:0.157" fill="#000000" d="M 395.5,356.5 C 394.833,357.167 394.833,357.167 395.5,356.5 Z"/></g>
<g><path style="opacity:0.031" fill="#000000" d="M 332.5,357.5 C 333.833,358.167 333.833,358.167 332.5,357.5 Z"/></g>
<g><path style="opacity:0.461" fill="#000000" d="M 359.5,357.5 C 360.525,357.897 360.692,358.563 360,359.5C 359.536,358.906 359.369,358.239 359.5,357.5 Z"/></g>
<g><path style="opacity:0.02" fill="#000000" d="M 402.5,358.5 C 403.833,359.167 403.833,359.167 402.5,358.5 Z"/></g>
<g><path style="opacity:0.129" fill="#000000" d="M 409.5,358.5 C 410.833,359.167 410.833,359.167 409.5,358.5 Z"/></g>
<g><path style="opacity:0.194" fill="#000000" d="M 421.5,359.5 C 421.897,358.475 422.563,358.308 423.5,359C 422.906,359.464 422.239,359.631 421.5,359.5 Z"/></g>
<g><path style="opacity:0.299" fill="#000000" d="M 543.5,358.5 C 546.001,358.511 546.168,359.178 544,360.5C 543.536,359.906 543.369,359.239 543.5,358.5 Z"/></g>
<g><path style="opacity:0.102" fill="#000000" d="M 381.5,359.5 C 382.833,360.167 382.833,360.167 381.5,359.5 Z"/></g>
<g><path style="opacity:0.467" fill="#000000" d="M 544.5,363.5 C 545.833,364.167 545.833,364.167 544.5,363.5 Z"/></g>
<g><path style="opacity:0.173" fill="#000000" d="M 548.5,363.5 C 549.833,364.167 549.833,364.167 548.5,363.5 Z"/></g>
<g><path style="opacity:0.433" fill="#000000" d="M 489.5,368.5 C 489.586,367.504 489.252,366.671 488.5,366C 492.145,364.452 492.478,365.285 489.5,368.5 Z"/></g>
<g><path style="opacity:0.037" fill="#000000" d="M 548.5,364.5 C 548.631,365.239 548.464,365.906 548,366.5C 547.308,365.563 547.475,364.897 548.5,364.5 Z"/></g>
<g><path style="opacity:0.349" fill="#000000" d="M 550.5,365.5 C 551.833,366.167 551.833,366.167 550.5,365.5 Z"/></g>
<g><path style="opacity:0.209" fill="#000000" d="M 338.5,372.5 C 341.199,375.272 340.866,375.772 337.5,374C 338.056,373.617 338.389,373.117 338.5,372.5 Z"/></g>
<g><path style="opacity:0.176" fill="#000000" d="M 249.5,373.5 C 250.833,374.167 250.833,374.167 249.5,373.5 Z"/></g>
<g><path style="opacity:0.355" fill="#000000" d="M 268.5,373.5 C 271.797,373.329 272.131,373.995 269.5,375.5C 268.702,375.043 268.369,374.376 268.5,373.5 Z"/></g>
<g><path style="opacity:0.286" fill="#000000" d="M 414.5,374.5 C 413.833,373.167 413.833,373.167 414.5,374.5 Z"/></g>
<g><path style="opacity:0.071" fill="#000000" d="M 50.5,374.5 C 51.8333,375.167 51.8333,375.167 50.5,374.5 Z"/></g>
<g><path style="opacity:0.614" fill="#000000" d="M 113.5,374.5 C 114.525,374.897 114.692,375.563 114,376.5C 113.536,375.906 113.369,375.239 113.5,374.5 Z"/></g>
<g><path style="opacity:0.325" fill="#000000" d="M 191.5,374.5 C 192.833,375.167 192.833,375.167 191.5,374.5 Z"/></g>
<g><path style="opacity:0.484" fill="#000000" d="M 204.5,376.5 C 203.475,376.103 203.308,375.437 204,374.5C 204.464,375.094 204.631,375.761 204.5,376.5 Z"/></g>
<g><path style="opacity:0.141" fill="#000000" d="M 315.5,374.5 C 316.833,375.167 316.833,375.167 315.5,374.5 Z"/></g>
<g><path style="opacity:0.393" fill="#000000" d="M 151.5,378.5 C 151.494,375.452 152.494,374.952 154.5,377C 153.473,377.513 152.473,378.013 151.5,378.5 Z"/></g>
<g><path style="opacity:0.229" fill="#000000" d="M 177.5,376.5 C 178.386,375.224 179.386,375.224 180.5,376.5C 180.376,377.107 180.043,377.44 179.5,377.5C 179.158,376.662 178.492,376.328 177.5,376.5 Z"/></g>
<g><path style="opacity:0.573" fill="#000000" d="M 170.5,379.5 C 169.833,378.167 169.833,378.167 170.5,379.5 Z"/></g>
<g><path style="opacity:0.55" fill="#000000" d="M 46.5,381.5 C 44.663,381.361 44.3296,380.694 45.5,379.5C 46.2975,379.957 46.6309,380.624 46.5,381.5 Z"/></g>
<g><path style="opacity:0.344" fill="#000000" d="M 131.5,380.5 C 130.425,381.562 129.425,381.562 128.5,380.5C 129.614,379.224 130.614,379.224 131.5,380.5 Z"/></g>
<g><path style="opacity:0.51" fill="#000000" d="M 498.5,382.5 C 500.973,382.604 501.639,383.604 500.5,385.5C 498.129,385.108 497.462,384.108 498.5,382.5 Z"/></g>
<g><path style="opacity:0.324" fill="#000000" d="M 39.5,384.5 C 40.525,384.897 40.6917,385.563 40,386.5C 39.5357,385.906 39.369,385.239 39.5,384.5 Z"/></g>
<g><path style="opacity:0.092" fill="#000000" d="M 458.5,384.5 C 459.525,384.897 459.692,385.563 459,386.5C 458.536,385.906 458.369,385.239 458.5,384.5 Z"/></g>
<g><path style="opacity:0.122" fill="#000000" d="M 38.5,387.5 C 37.8333,386.167 37.8333,386.167 38.5,387.5 Z"/></g>
<g><path style="opacity:0.112" fill="#000000" d="M 460.5,395.5 C 461.756,395.461 462.756,395.961 463.5,397C 462.002,397.585 461.002,397.085 460.5,395.5 Z"/></g>
<g><path style="opacity:0.31" fill="#000000" d="M 473.5,396.5 C 474.833,397.167 474.833,397.167 473.5,396.5 Z"/></g>
<g><path style="opacity:0.353" fill="#000000" d="M 476.5,397.5 C 475.833,398.167 475.833,398.167 476.5,397.5 Z"/></g>
<g><path style="opacity:0.276" fill="#000000" d="M 35.5,399.5 C 36.7733,400.077 36.7733,400.743 35.5,401.5C 34.537,401.03 34.537,400.363 35.5,399.5 Z"/></g>
<g><path style="opacity:0.012" fill="#000000" d="M 457.5,399.5 C 458.525,399.897 458.692,400.563 458,401.5C 457.536,400.906 457.369,400.239 457.5,399.5 Z"/></g>
<g><path style="opacity:0.163" fill="#000000" d="M 475.5,400.5 C 475.897,399.475 476.563,399.308 477.5,400C 476.906,400.464 476.239,400.631 475.5,400.5 Z"/></g>
<g><path style="opacity:0.256" fill="#000000" d="M 459.5,400.5 C 461.859,401.389 462.025,402.722 460,404.5C 459.51,403.207 459.343,401.873 459.5,400.5 Z"/></g>
<g><path style="opacity:0.471" fill="#000000" d="M 21.5,401.5 C 22.8333,402.167 22.8333,402.167 21.5,401.5 Z"/></g>
<g><path style="opacity:0.329" fill="#000000" d="M 473.5,403.5 C 474.833,404.167 474.833,404.167 473.5,403.5 Z"/></g>
<g><path style="opacity:0.114" fill="#000000" d="M 426.5,404.5 C 427.833,405.167 427.833,405.167 426.5,404.5 Z"/></g>
<g><path style="opacity:0.392" fill="#000000" d="M 496.5,405.5 C 497.833,406.167 497.833,406.167 496.5,405.5 Z"/></g>
<g><path style="opacity:0.051" fill="#000000" d="M 428.5,406.5 C 429.833,407.167 429.833,407.167 428.5,406.5 Z"/></g>
<g><path style="opacity:0.078" fill="#000000" d="M 327.5,407.5 C 328.833,408.167 328.833,408.167 327.5,407.5 Z"/></g>
<g><path style="opacity:0.094" fill="#000000" d="M 330.5,407.5 C 329.833,408.167 329.833,408.167 330.5,407.5 Z"/></g>
<g><path style="opacity:0.092" fill="#000000" d="M 493.5,407.5 C 494.525,407.897 494.692,408.563 494,409.5C 493.536,408.906 493.369,408.239 493.5,407.5 Z"/></g>
<g><path style="opacity:0.173" fill="#000000" d="M 518.5,407.5 C 518.833,407.5 519.167,407.5 519.5,407.5C 519.315,408.17 518.981,408.17 518.5,407.5 Z"/></g>
<g><path style="opacity:0.139" fill="#000000" d="M 232.5,408.5 C 233.525,408.897 233.692,409.563 233,410.5C 232.536,409.906 232.369,409.239 232.5,408.5 Z"/></g>
<g><path style="opacity:0.247" fill="#000000" d="M 382.5,408.5 C 381.833,409.167 381.833,409.167 382.5,408.5 Z"/></g>
<g><path style="opacity:0.204" fill="#000000" d="M 97.5,410.5 C 97.8333,410.5 98.1667,410.5 98.5,410.5C 98.3147,411.17 97.9813,411.17 97.5,410.5 Z"/></g>
<g><path style="opacity:0.055" fill="#000000" d="M 132.5,411.5 C 133.833,412.167 133.833,412.167 132.5,411.5 Z"/></g>
<g><path style="opacity:0.031" fill="#000000" d="M 498.5,411.5 C 499.833,412.167 499.833,412.167 498.5,411.5 Z"/></g>
<g><path style="opacity:0.714" fill="#000000" d="M 505.5,413.5 C 504.833,414.167 504.833,414.167 505.5,413.5 Z"/></g>
<g><path style="opacity:0.834" fill="#000000" d="M 1122.5,415.5 C 1122.78,414.711 1123.28,414.044 1124,413.5C 1126.65,413.843 1129.48,414.51 1132.5,415.5C 1132.5,418.833 1132.5,422.167 1132.5,425.5C 1130.09,427.319 1127.76,428.985 1125.5,430.5C 1122.18,428.721 1118.68,428.721 1115,430.5C 1112.05,430.091 1109.39,429.091 1107,427.5C 1106.58,428.672 1105.91,429.672 1105,430.5C 1102.33,430.297 1099.5,429.63 1096.5,428.5C 1095.81,429.025 1095.31,429.692 1095,430.5C 1093.56,429.74 1092.06,429.074 1090.5,428.5C 1089.89,428.624 1089.56,428.957 1089.5,429.5C 1088.5,429.586 1087.67,429.252 1087,428.5C 1086.67,429.167 1086.33,429.833 1086,430.5C 1083.69,429.85 1081.19,429.85 1078.5,430.5C 1076.81,430.24 1075.31,429.573 1074,428.5C 1070.94,429.411 1068.1,429.411 1065.5,428.5C 1060.57,429.705 1055.74,430.372 1051,430.5C 1050,429.833 1049,429.167 1048,428.5C 1045.83,430.455 1043.5,431.121 1041,430.5C 1040.68,428.431 1039.84,428.098 1038.5,429.5C 1037.5,428.833 1036.5,428.167 1035.5,427.5C 1033.67,430.689 1030.83,431.022 1027,428.5C 1026.67,428.833 1026.33,429.167 1026,429.5C 1025.51,437.137 1025.34,445.137 1025.5,453.5C 1027.53,456.132 1027.53,458.965 1025.5,462C 1025.4,464.585 1025.74,467.251 1026.5,470C 1025.98,472.077 1025.32,474.077 1024.5,476C 1025.72,477.416 1027.05,477.249 1028.5,475.5C 1033.77,475.714 1039.27,476.047 1045,476.5C 1045.69,474.109 1046.69,474.109 1048,476.5C 1049.75,474.75 1051.92,474.083 1054.5,474.5C 1060.91,474.337 1067.41,474.337 1074,474.5C 1076.95,474.091 1079.61,473.091 1082,471.5C 1082.69,472.357 1083.52,473.023 1084.5,473.5C 1089.45,473.575 1094.62,473.242 1100,472.5C 1103.72,473.812 1107.55,474.812 1111.5,475.5C 1116.71,475.638 1122.21,475.638 1128,475.5C 1129.47,476.267 1130.97,476.933 1132.5,477.5C 1132.5,481.833 1132.5,486.167 1132.5,490.5C 1130.45,489.23 1128.45,488.897 1126.5,489.5C 1126.17,488.167 1125.83,488.167 1125.5,489.5C 1124.5,489.5 1123.5,489.5 1122.5,489.5C 1121.47,488.751 1120.3,488.085 1119,487.5C 1116.55,488.529 1113.88,489.196 1111,489.5C 1109.8,488.529 1109.3,487.529 1109.5,486.5C 1106.92,487.393 1104.25,487.726 1101.5,487.5C 1101.17,486.167 1100.83,486.167 1100.5,487.5C 1097.74,487.202 1095.24,486.202 1093,484.5C 1092.09,485.328 1091.42,486.328 1091,487.5C 1090.33,484.833 1089.67,484.833 1089,487.5C 1086.71,485.462 1084.21,485.462 1081.5,487.5C 1078.55,487.981 1075.72,487.314 1073,485.5C 1072.69,486.308 1072.19,486.975 1071.5,487.5C 1070.29,486.61 1068.96,486.61 1067.5,487.5C 1065.97,487.471 1064.8,486.804 1064,485.5C 1063,486.5 1062,487.5 1061,488.5C 1061.21,484.484 1060.21,484.484 1058,488.5C 1055.01,485.558 1052.51,485.892 1050.5,489.5C 1049.83,488.833 1049.17,488.167 1048.5,487.5C 1046.49,489.203 1044.49,489.537 1042.5,488.5C 1040.52,488.383 1038.85,489.05 1037.5,490.5C 1036.82,489.757 1036.15,489.091 1035.5,488.5C 1034.83,487.167 1034.17,487.167 1033.5,488.5C 1030.42,488.042 1026.92,488.042 1023,488.5C 1022.69,489.308 1022.19,489.975 1021.5,490.5C 1020.67,489.5 1019.83,488.5 1019,487.5C 1017.09,488.079 1015.43,488.079 1014,487.5C 1013.38,486.551 1013.55,485.718 1014.5,485C 1012.52,483.37 1011.18,481.37 1010.5,479C 1010.6,473.279 1010.6,467.612 1010.5,462C 1011.5,461.167 1012.5,460.333 1013.5,459.5C 1012.6,459.331 1011.6,458.998 1010.5,458.5C 1011.07,456.941 1011.74,455.441 1012.5,454C 1011.34,452.991 1010.68,451.658 1010.5,450C 1011.6,444.116 1011.6,438.283 1010.5,432.5C 1010.39,430.626 1011.06,429.126 1012.5,428C 1011.48,427.481 1010.82,426.647 1010.5,425.5C 1011.43,421.689 1013.93,418.689 1018,416.5C 1018.33,416.833 1018.67,417.167 1019,417.5C 1019.28,416.584 1019.78,415.918 1020.5,415.5C 1022.77,415.304 1025.27,414.637 1028,413.5C 1032.33,414.167 1036.67,414.833 1041,415.5C 1042.81,415.407 1044.65,415.073 1046.5,414.5C 1047.67,414.919 1048.67,415.585 1049.5,416.5C 1050.25,414.988 1051.42,413.988 1053,413.5C 1059.5,414.583 1065.84,414.583 1072,413.5C 1074,414.167 1075.33,415.5 1076,417.5C 1076.58,414.876 1077.91,414.209 1080,415.5C 1081.77,412.956 1083.61,412.956 1085.5,415.5C 1089.09,414.434 1092.92,414.434 1097,415.5C 1097.33,414.833 1097.67,414.167 1098,413.5C 1106.13,413.35 1114.29,414.017 1122.5,415.5 Z M 1020.5,415.5 C 1021.29,415.783 1021.96,416.283 1022.5,417C 1021.18,417.528 1020.52,417.028 1020.5,415.5 Z M 1122.5,415.5 C 1124.34,415.639 1124.67,416.306 1123.5,417.5C 1122.7,417.043 1122.37,416.376 1122.5,415.5 Z M 1042.5,488.5 C 1042.78,487.711 1043.28,487.044 1044,486.5C 1044.53,487.816 1044.03,488.483 1042.5,488.5 Z"/></g>
<g><path style="opacity:0.441" fill="#000000" d="M 501.5,414.5 C 502.525,414.897 502.692,415.563 502,416.5C 501.536,415.906 501.369,415.239 501.5,414.5 Z"/></g>
<g><path style="opacity:0.31" fill="#000000" d="M 508.5,416.5 C 509.525,416.897 509.692,417.563 509,418.5C 508.536,417.906 508.369,417.239 508.5,416.5 Z"/></g>
<g><path style="opacity:0.831" fill="#000000" d="M 774.5,435.5 C 773.006,434.601 771.506,434.935 770,436.5C 770.127,440.134 770.294,443.634 770.5,447C 769.833,448.667 769.167,450.333 768.5,452C 769.733,456.064 770.4,460.064 770.5,464C 768.034,464.93 768.201,465.763 771,466.5C 772.923,465.198 774.757,465.365 776.5,467C 776.167,467.333 775.833,467.667 775.5,468C 780.178,468.197 780.512,469.197 776.5,471C 779.211,474.303 778.544,476.969 774.5,479C 774.833,479.333 775.167,479.667 775.5,480C 774.128,480.402 772.795,480.902 771.5,481.5C 769.873,479.279 768.54,479.612 767.5,482.5C 766.178,482.33 765.011,482.663 764,483.5C 763.692,482.692 763.192,482.025 762.5,481.5C 761.52,482.981 760.353,484.315 759,485.5C 758.667,484.167 758.333,482.833 758,481.5C 756.744,480.97 755.244,480.97 753.5,481.5C 752.808,480.975 752.308,480.308 752,479.5C 751.044,480.894 749.711,481.561 748,481.5C 745.911,480.555 743.911,480.555 742,481.5C 741.333,480.833 740.667,480.167 740,479.5C 739.612,480.428 738.945,481.095 738,481.5C 735.038,481.156 732.204,480.823 729.5,480.5C 728.833,480.833 728.167,481.167 727.5,481.5C 723.326,481.631 718.993,481.298 714.5,480.5C 713.749,481.376 713.249,482.376 713,483.5C 710.684,481.541 708.684,481.541 707,483.5C 705.57,483.306 704.07,483.306 702.5,483.5C 701.522,483.023 700.689,482.357 700,481.5C 698.112,484.273 696.112,484.606 694,482.5C 693.722,483.416 693.222,484.082 692.5,484.5C 692.167,481.833 691.833,481.833 691.5,484.5C 687.291,483.973 682.791,483.973 678,484.5C 676.983,487.028 675.816,487.028 674.5,484.5C 672.607,486.367 670.607,487.034 668.5,486.5C 667.542,486.953 666.708,487.619 666,488.5C 662.361,488.53 658.694,488.196 655,487.5C 654.536,488.094 654.369,488.761 654.5,489.5C 653.504,489.586 652.671,489.252 652,488.5C 650.684,491.028 649.517,491.028 648.5,488.5C 646.391,489.65 644.391,490.984 642.5,492.5C 640.275,491.899 638.109,491.566 636,491.5C 635.418,494.668 634.418,495.001 633,492.5C 632.683,494.301 632.016,494.634 631,493.5C 629.698,494.085 628.531,494.751 627.5,495.5C 627.167,495.5 626.833,495.5 626.5,495.5C 625.28,493.718 624.614,491.718 624.5,489.5C 620.623,489.517 619.957,488.351 622.5,486C 621.829,485.014 621.829,483.847 622.5,482.5C 623.404,481.791 623.737,480.791 623.5,479.5C 627.3,479.589 630.966,478.922 634.5,477.5C 635.554,477.68 636.554,478.013 637.5,478.5C 639.909,475.959 642.576,474.626 645.5,474.5C 648.084,474.632 650.584,474.965 653,475.5C 659.162,473.551 665.162,471.885 671,470.5C 676.853,471.2 682.687,470.866 688.5,469.5C 690.061,470.347 691.561,470.014 693,468.5C 695.42,469.488 697.753,469.155 700,467.5C 705.525,468.338 710.525,468.671 715,468.5C 720.218,466.955 725.218,466.622 730,467.5C 732,466.833 734,466.167 736,465.5C 741.617,466.487 747.117,466.487 752.5,465.5C 753.354,464.478 754.354,463.645 755.5,463C 754.549,462.282 754.383,461.449 755,460.5C 755.654,461.696 756.154,461.696 756.5,460.5C 755.5,459.667 754.5,458.833 753.5,458C 753.743,455.455 753.743,452.955 753.5,450.5C 754.074,448.941 754.74,447.441 755.5,446C 754.884,442.137 754.05,438.304 753,434.5C 752.196,435.804 751.029,436.471 749.5,436.5C 747.777,435.448 746.11,435.448 744.5,436.5C 744.089,435.738 743.923,434.738 744,433.5C 742.579,436.622 740.913,436.956 739,434.5C 737.075,436.973 735.242,436.973 733.5,434.5C 732.478,434.855 731.811,435.522 731.5,436.5C 728.794,436.425 726.127,436.092 723.5,435.5C 723.167,434.167 722.833,434.167 722.5,435.5C 721.833,435.5 721.167,435.5 720.5,435.5C 712.9,436.566 705.233,436.566 697.5,435.5C 695.009,437.168 692.842,436.834 691,434.5C 689.75,435.573 688.416,435.573 687,434.5C 686.05,435.022 685.216,435.689 684.5,436.5C 680.545,436.189 676.545,436.189 672.5,436.5C 670.133,436.158 667.8,435.658 665.5,435C 666.696,434.346 666.696,433.846 665.5,433.5C 664.281,434.263 663.281,435.263 662.5,436.5C 662.167,435.833 661.833,435.167 661.5,434.5C 660.059,435.304 658.559,435.971 657,436.5C 652.037,435.632 647.204,435.632 642.5,436.5C 641.522,436.023 640.689,435.357 640,434.5C 639.581,435.672 638.915,436.672 638,437.5C 635.018,436.823 632.185,436.823 629.5,437.5C 629.167,436.833 628.833,436.167 628.5,435.5C 626.908,437.562 625.075,437.895 623,436.5C 619.843,437.721 616.676,438.721 613.5,439.5C 611.709,438.076 609.875,436.742 608,435.5C 606.16,436.833 605.66,436.666 606.5,435C 603.521,433.388 602.188,430.888 602.5,427.5C 605.818,425.425 609.485,424.092 613.5,423.5C 614.167,423.833 614.833,424.167 615.5,424.5C 619.507,424.025 623.34,423.025 627,421.5C 628,422.167 629,422.833 630,423.5C 634.163,421.559 638.163,421.559 642,423.5C 644.944,422.743 647.944,422.077 651,421.5C 654.354,421.694 657.688,422.027 661,422.5C 662.441,421.74 663.941,421.074 665.5,420.5C 667.371,421.767 669.204,421.767 671,420.5C 672.132,422.522 673.799,422.855 676,421.5C 677.907,423.584 679.573,423.584 681,421.5C 682.779,422.479 684.445,422.146 686,420.5C 688.796,421.211 691.63,421.878 694.5,422.5C 701.745,422.197 709.078,421.531 716.5,420.5C 718.614,421.034 720.448,422.034 722,423.5C 723.194,422.57 724.527,421.903 726,421.5C 731.967,421.449 737.8,421.782 743.5,422.5C 744.647,422.182 745.481,421.516 746,420.5C 747.66,420.324 749.326,420.991 751,422.5C 752.903,422.306 754.737,422.306 756.5,422.5C 757.192,421.975 757.692,421.308 758,420.5C 763.87,421.604 769.703,422.271 775.5,422.5C 776.25,425.567 776.916,428.4 777.5,431C 777.085,433.026 776.085,434.526 774.5,435.5 Z M 729.5,480.5 C 728.537,479.637 728.537,478.97 729.5,478.5C 730.773,479.257 730.773,479.923 729.5,480.5 Z"/></g>
<g><path style="opacity:0.231" fill="#000000" d="M 777.5,424.5 C 778.833,425.167 778.833,425.167 777.5,424.5 Z"/></g>
<g><path style="opacity:0.284" fill="#000000" d="M 602.5,426.5 C 602.897,425.475 603.563,425.308 604.5,426C 603.906,426.464 603.239,426.631 602.5,426.5 Z"/></g>
<g><path style="opacity:0.275" fill="#000000" d="M 1089.5,429.5 C 1090.83,430.167 1090.83,430.167 1089.5,429.5 Z"/></g>
<g><path style="opacity:0.318" fill="#000000" d="M 1128.5,429.5 C 1129.83,430.167 1129.83,430.167 1128.5,429.5 Z"/></g>
<g><path style="opacity:0.427" fill="#000000" d="M 1118.5,430.5 C 1119.83,431.167 1119.83,431.167 1118.5,430.5 Z"/></g>
<g><path style="opacity:0.294" fill="#000000" d="M 697.5,435.5 C 698.833,436.167 698.833,436.167 697.5,435.5 Z"/></g>
<g><path style="opacity:0.035" fill="#000000" d="M 720.5,435.5 C 719.833,436.167 719.833,436.167 720.5,435.5 Z"/></g>
<g><path style="opacity:0.047" fill="#000000" d="M 722.5,435.5 C 722.833,435.5 723.167,435.5 723.5,435.5C 723.315,436.17 722.981,436.17 722.5,435.5 Z"/></g>
<g><path style="opacity:0.373" fill="#000000" d="M 774.5,435.5 C 773.833,436.167 773.833,436.167 774.5,435.5 Z"/></g>
<g><path style="opacity:0.088" fill="#000000" d="M 650.5,437.5 C 650.897,436.475 651.563,436.308 652.5,437C 651.906,437.464 651.239,437.631 650.5,437.5 Z"/></g>
<g><path style="opacity:0.098" fill="#000000" d="M 731.5,436.5 C 732.833,437.167 732.833,437.167 731.5,436.5 Z"/></g>
<g><path style="opacity:0.318" fill="#000000" d="M 1054.5,473.5 C 1055.83,474.167 1055.83,474.167 1054.5,473.5 Z"/></g>
<g><path style="opacity:0.259" fill="#000000" d="M 622.5,482.5 C 619.999,482.489 619.832,481.822 622,480.5C 622.464,481.094 622.631,481.761 622.5,482.5 Z"/></g>
<g><path style="opacity:0.267" fill="#000000" d="M 727.5,481.5 C 726.833,482.167 726.833,482.167 727.5,481.5 Z"/></g>
<g><path style="opacity:0.165" fill="#000000" d="M 767.5,482.5 C 768.833,483.167 768.833,483.167 767.5,482.5 Z"/></g>
<g><path style="opacity:0.047" fill="#000000" d="M 691.5,484.5 C 691.833,484.5 692.167,484.5 692.5,484.5C 692.315,485.17 691.981,485.17 691.5,484.5 Z"/></g>
<g><path style="opacity:0.149" fill="#000000" d="M 701.5,484.5 C 702.833,485.167 702.833,485.167 701.5,484.5 Z"/></g>
<g><path style="opacity:0.343" fill="#000000" d="M 668.5,486.5 C 669.525,486.897 669.692,487.563 669,488.5C 668.536,487.906 668.369,487.239 668.5,486.5 Z"/></g>
<g><path style="opacity:0.161" fill="#000000" d="M 1053.5,487.5 C 1054.83,488.167 1054.83,488.167 1053.5,487.5 Z"/></g>
<g><path style="opacity:0.102" fill="#000000" d="M 1100.5,487.5 C 1100.83,487.5 1101.17,487.5 1101.5,487.5C 1101.31,488.17 1100.98,488.17 1100.5,487.5 Z"/></g>
<g><path style="opacity:0.206" fill="#000000" d="M 1033.5,488.5 C 1034.17,488.5 1034.83,488.5 1035.5,488.5C 1034.83,489.833 1034.17,489.833 1033.5,488.5 Z"/></g>
<g><path style="opacity:0.125" fill="#000000" d="M 654.5,489.5 C 655.833,490.167 655.833,490.167 654.5,489.5 Z"/></g>
<g><path style="opacity:0.361" fill="#000000" d="M 1014.5,489.5 C 1015.83,490.167 1015.83,490.167 1014.5,489.5 Z"/></g>
<g><path style="opacity:0.335" fill="#000000" d="M 1122.5,489.5 C 1121.75,490.573 1120.75,490.74 1119.5,490C 1120.45,489.517 1121.45,489.351 1122.5,489.5 Z"/></g>
<g><path style="opacity:0.098" fill="#000000" d="M 1125.5,489.5 C 1125.83,489.5 1126.17,489.5 1126.5,489.5C 1126.31,490.17 1125.98,490.17 1125.5,489.5 Z"/></g>
<g><path style="opacity:0.424" fill="#000000" d="M 647.5,490.5 C 648.833,491.167 648.833,491.167 647.5,490.5 Z"/></g>
</svg>
