<?xml version="1.0" encoding="UTF-8"?>
<!DOCTYPE svg PUBLIC "-//W3C//DTD SVG 1.1//EN" "http://www.w3.org/Graphics/SVG/1.1/DTD/svg11.dtd">
<svg xmlns="http://www.w3.org/2000/svg" version="1.1" width="800px" height="334px" style="shape-rendering:geometricPrecision; text-rendering:geometricPrecision; image-rendering:optimizeQuality; fill-rule:evenodd; clip-rule:evenodd" xmlns:xlink="http://www.w3.org/1999/xlink">
<g><path style="opacity:0.151" fill="#000000" d="M 535.5,-0.5 C 536.833,-0.5 538.167,-0.5 539.5,-0.5C 540.5,2.16667 541.5,2.16667 542.5,-0.5C 543.167,-0.5 543.833,-0.5 544.5,-0.5C 544.833,2.16667 545.167,2.16667 545.5,-0.5C 546.833,-0.5 548.167,-0.5 549.5,-0.5C 549.64,1.12377 548.973,2.29044 547.5,3C 543.728,3.40598 540.061,4.23932 536.5,5.5C 535.534,3.60395 535.201,1.60395 535.5,-0.5 Z"/></g>
<g><path style="opacity:0.011" fill="#000000" d="M 551.5,-0.5 C 551.833,-0.5 552.167,-0.5 552.5,-0.5C 553.895,0.647669 553.728,1.64767 552,2.5C 551.517,1.55198 551.351,0.551975 551.5,-0.5 Z"/></g>
<g><path style="opacity:0.004" fill="#000000" d="M 556.5,0.5 C 556.5,0.166667 556.5,-0.166667 556.5,-0.5C 557.167,-0.5 557.833,-0.5 558.5,-0.5C 558.158,0.338246 557.492,0.67158 556.5,0.5 Z"/></g>
<g><path style="opacity:0.006" fill="#000000" d="M 556.5,0.5 C 556.103,1.52502 555.437,1.69169 554.5,1C 555.094,0.535656 555.761,0.368989 556.5,0.5 Z"/></g>
<g><path style="opacity:0.004" fill="#000000" d="M 563.5,0.5 C 564.833,1.16667 564.833,1.16667 563.5,0.5 Z"/></g>
<g><path style="opacity:0.01" fill="#000000" d="M 566.5,0.5 C 568.337,0.639452 568.67,1.30612 567.5,2.5C 566.702,2.04311 566.369,1.37644 566.5,0.5 Z"/></g>
<g><path style="opacity:0.768" fill="#000000" d="M 528.5,48.5 C 529.833,47.8333 529.833,47.1667 528.5,46.5C 528.461,45.4168 528.127,44.4168 527.5,43.5C 530.797,41.7666 534.297,40.7666 538,40.5C 547.661,41.602 557.328,42.602 567,43.5C 570.54,41.9054 573.54,42.572 576,45.5C 578.752,43.0268 581.586,43.0268 584.5,45.5C 586.941,45.4216 589.274,45.0883 591.5,44.5C 591.833,45.1667 592.167,45.8333 592.5,46.5C 594.235,45.943 595.902,45.6097 597.5,45.5C 598.478,45.9767 599.311,46.6433 600,47.5C 600.333,46.8333 600.667,46.1667 601,45.5C 602.715,45.5197 604.548,46.1864 606.5,47.5C 616.239,47.5617 626.072,47.2283 636,46.5C 637,47.1667 638,47.8333 639,48.5C 642.667,47.1667 646.333,47.1667 650,48.5C 651,47.8333 652,47.1667 653,46.5C 654.989,46.3213 656.989,46.9879 659,48.5C 661.151,48.2275 663.151,47.5608 665,46.5C 666.818,48.6454 668.318,48.6454 669.5,46.5C 671.462,47.6345 673.462,47.6345 675.5,46.5C 677.029,46.5288 678.196,47.1955 679,48.5C 683.837,48.3352 688.837,47.6686 694,46.5C 696.854,47.114 699.687,47.7807 702.5,48.5C 703.833,47.8333 705.167,47.1667 706.5,46.5C 708.702,47.7797 710.868,47.7797 713,46.5C 719.324,48.2044 725.491,48.5377 731.5,47.5C 732.748,48.0402 733.915,48.7069 735,49.5C 741.675,48.8008 748.675,48.4675 756,48.5C 756.677,50.689 757.844,51.0224 759.5,49.5C 769.042,50.0407 778.208,52.0407 787,55.5C 789.709,56.99 789.875,58.49 787.5,60C 788.981,62.7623 790.647,65.429 792.5,68C 792.847,72.5196 792.847,77.1863 792.5,82C 794.79,82.7904 795.123,84.1237 793.5,86C 794.988,88.6249 795.822,91.4582 796,94.5C 799.417,96.0719 799.251,97.2386 795.5,98C 797.136,99.434 798.136,101.267 798.5,103.5C 796.991,105.62 797.324,107.287 799.5,108.5C 799.5,109.167 799.5,109.833 799.5,110.5C 796.833,110.833 796.833,111.167 799.5,111.5C 799.5,112.167 799.5,112.833 799.5,113.5C 798.761,113.369 798.094,113.536 797.5,114C 798.833,115 798.833,116 797.5,117C 798.094,117.464 798.761,117.631 799.5,117.5C 799.5,118.167 799.5,118.833 799.5,119.5C 798.761,119.369 798.094,119.536 797.5,120C 798.085,121.302 798.751,122.469 799.5,123.5C 799.5,126.5 799.5,129.5 799.5,132.5C 798.761,132.369 798.094,132.536 797.5,133C 798.109,134.948 798.776,136.782 799.5,138.5C 799.5,143.167 799.5,147.833 799.5,152.5C 798.167,153.167 798.167,153.833 799.5,154.5C 799.5,155.167 799.5,155.833 799.5,156.5C 798.167,156.833 798.167,157.167 799.5,157.5C 799.5,158.5 799.5,159.5 799.5,160.5C 798.167,160.833 798.167,161.167 799.5,161.5C 799.5,162.5 799.5,163.5 799.5,164.5C 798.167,165.167 798.167,165.833 799.5,166.5C 799.5,167.5 799.5,168.5 799.5,169.5C 798.869,171.903 797.869,174.236 796.5,176.5C 799.044,179.717 799.044,182.884 796.5,186C 797.86,187.938 797.527,189.604 795.5,191C 795.396,195.784 795.73,200.618 796.5,205.5C 795.325,205.281 794.325,205.614 793.5,206.5C 794.552,210.114 794.552,213.78 793.5,217.5C 793.722,219.055 794.389,220.389 795.5,221.5C 795.39,223.098 795.057,224.765 794.5,226.5C 796.563,228.775 795.896,230.608 792.5,232C 794.183,235.549 795.183,239.383 795.5,243.5C 795.373,249.088 795.373,254.421 795.5,259.5C 793.687,262.482 793.687,265.148 795.5,267.5C 795.113,269.274 794.447,270.941 793.5,272.5C 794.167,272.833 794.833,273.167 795.5,273.5C 794.305,274.967 794.305,276.467 795.5,278C 795.271,281.333 793.937,284.5 791.5,287.5C 793.784,289.863 793.784,292.363 791.5,295C 791.575,299.85 791.575,304.684 791.5,309.5C 790.624,310.251 789.624,310.751 788.5,311C 790.283,312.067 790.783,313.567 790,315.5C 788.168,320.548 784.668,323.548 779.5,324.5C 781.167,325.5 782.5,326.833 783.5,328.5C 782.019,329.48 780.685,330.647 779.5,332C 780.056,332.383 780.389,332.883 780.5,333.5C 777.5,333.5 774.5,333.5 771.5,333.5C 771.167,332.167 770.833,332.167 770.5,333.5C 769.167,333.5 767.833,333.5 766.5,333.5C 764.107,332.79 761.607,332.123 759,331.5C 755.379,332.089 751.712,332.422 748,332.5C 739.702,331.169 731.369,330.169 723,329.5C 721.601,329.501 720.101,329.835 718.5,330.5C 717.833,329.833 717.167,329.167 716.5,328.5C 714.689,329.736 712.856,329.736 711,328.5C 709.103,330.916 707.103,330.916 705,328.5C 702.167,329.87 699.5,329.536 697,327.5C 691.247,328.468 685.247,328.135 679,326.5C 675.915,327.487 672.915,327.153 670,325.5C 662.729,325.229 655.229,325.563 647.5,326.5C 646.522,326.023 645.689,325.357 645,324.5C 641.526,326.42 638.192,326.42 635,324.5C 627.986,325.493 620.819,325.493 613.5,324.5C 613.167,325.167 612.833,325.833 612.5,326.5C 611.808,325.975 611.308,325.308 611,324.5C 609.914,326.847 608.581,326.847 607,324.5C 605.765,325.615 604.598,325.615 603.5,324.5C 602.522,324.977 601.689,325.643 601,326.5C 600.692,325.692 600.192,325.025 599.5,324.5C 592.587,324.273 585.92,324.273 579.5,324.5C 574.968,323.86 570.468,323.194 566,322.5C 565.667,322.833 565.333,323.167 565,323.5C 560.63,322.685 556.296,321.685 552,320.5C 551.586,320.957 551.086,321.291 550.5,321.5C 541.758,319.655 533.425,317.488 525.5,315C 524.17,313.035 522.836,311.035 521.5,309C 521.905,308.055 522.572,307.388 523.5,307C 520.833,306 520.833,305 523.5,304C 522.313,302.981 521.313,301.814 520.5,300.5C 520.482,281.674 520.482,263.34 520.5,245.5C 519.608,240.597 519.608,235.764 520.5,231C 519.711,228.733 519.044,226.4 518.5,224C 518.612,218.068 518.778,212.235 519,206.5C 518.586,206.957 518.086,207.291 517.5,207.5C 517.511,206.559 517.011,205.892 516,205.5C 514.324,208.16 512.657,208.16 511,205.5C 509.559,206.26 508.059,206.926 506.5,207.5C 503.574,206.479 500.407,205.146 497,203.5C 491.151,203.526 486.151,201.193 482,196.5C 481.586,196.957 481.086,197.291 480.5,197.5C 477.848,195.121 474.848,193.288 471.5,192C 470.267,190.333 468.933,188.833 467.5,187.5C 464.812,184.567 463.145,185.234 462.5,189.5C 462.677,193.862 463.01,198.195 463.5,202.5C 461.966,204.302 461.632,206.135 462.5,208C 462.095,208.945 461.428,209.612 460.5,210C 461.308,210.308 461.975,210.808 462.5,211.5C 461.61,212.711 461.61,214.045 462.5,215.5C 461.455,217.205 460.122,218.705 458.5,220C 459.935,222.267 459.602,224.267 457.5,226C 458.449,226.617 459.282,226.451 460,225.5C 460.333,226.833 460.667,228.167 461,229.5C 463.403,231.305 465.07,233.638 466,236.5C 467.803,243.816 469.47,250.816 471,257.5C 471.789,261.091 471.622,264.591 470.5,268C 473.954,268.293 474.288,269.626 471.5,272C 475.5,273.667 475.5,275.333 471.5,277C 472.308,277.308 472.975,277.808 473.5,278.5C 472.525,281.778 472.525,285.278 473.5,289C 473.507,290.812 472.84,292.312 471.5,293.5C 472.243,295.638 472.91,297.804 473.5,300C 472.497,306.664 472.164,313.497 472.5,320.5C 469.172,323.658 465.672,326.658 462,329.5C 461.731,326.648 460.897,323.982 459.5,321.5C 460.021,316.387 460.021,310.887 459.5,305C 459.905,304.055 460.572,303.388 461.5,303C 460.692,302.692 460.025,302.192 459.5,301.5C 459.804,297.197 459.804,292.53 459.5,287.5C 460.025,286.808 460.692,286.308 461.5,286C 458.918,282.958 458.918,279.958 461.5,277C 459.21,276.21 458.877,274.876 460.5,273C 458.153,271.419 458.153,270.086 460.5,269C 459.07,266.945 457.737,264.779 456.5,262.5C 457.025,261.808 457.692,261.308 458.5,261C 457.5,258.667 456.5,256.333 455.5,254C 456.167,253.667 456.833,253.333 457.5,253C 455.724,251.329 455.39,249.496 456.5,247.5C 455.5,246.167 454.5,244.833 453.5,243.5C 450.605,250.157 447.772,256.824 445,263.5C 444,264.167 443,264.833 442,265.5C 441.109,270.746 438.609,274.912 434.5,278C 435.276,279.77 435.11,281.603 434,283.5C 430.982,288.189 427.482,292.522 423.5,296.5C 422.754,297.736 422.421,299.07 422.5,300.5C 421.325,300.281 420.325,300.614 419.5,301.5C 416.195,305.141 412.862,308.808 409.5,312.5C 406.31,313.599 403.31,314.932 400.5,316.5C 400.671,313.203 400.005,312.869 398.5,315.5C 397.571,314.311 397.238,312.978 397.5,311.5C 398.552,311.649 399.552,311.483 400.5,311C 399.556,308.281 399.223,305.448 399.5,302.5C 401.911,302.863 403.411,301.863 404,299.5C 404.333,299.833 404.667,300.167 405,300.5C 405.21,296.132 407.377,293.466 411.5,292.5C 411.413,289.402 411.913,289.068 413,291.5C 424.082,274.348 433.915,256.348 442.5,237.5C 444.485,233.265 445.152,228.931 444.5,224.5C 444.818,223.353 445.484,222.519 446.5,222C 445.185,220.605 445.519,219.605 447.5,219C 446.57,214.512 447.237,210.179 449.5,206C 448.978,205.05 448.311,204.216 447.5,203.5C 448.311,202.784 448.978,201.95 449.5,201C 449.704,198.463 449.704,195.963 449.5,193.5C 449.029,191.712 448.696,189.878 448.5,188C 448.675,186.342 449.342,185.009 450.5,184C 448.248,181.525 448.248,178.859 450.5,176C 449.5,175 448.5,174 447.5,173C 449.991,172.374 449.991,171.541 447.5,170.5C 448.025,169.808 448.692,169.308 449.5,169C 447.562,166.53 446.396,163.696 446,160.5C 442.583,158.928 442.749,157.761 446.5,157C 445.21,152.667 443.544,148.5 441.5,144.5C 442.428,143.232 442.595,141.899 442,140.5C 441.107,141.711 440.274,141.711 439.5,140.5C 440.167,139.167 440.833,137.833 441.5,136.5C 441.062,135.494 440.396,135.494 439.5,136.5C 438.77,135.066 437.77,133.9 436.5,133C 437.7,131.048 437.2,129.548 435,128.5C 435.083,124.749 433.249,122.749 429.5,122.5C 420.677,124.758 411.677,124.925 402.5,123C 401.299,122.097 400.465,120.931 400,119.5C 398.582,121.363 396.749,121.863 394.5,121C 395.833,120.333 395.833,119.667 394.5,119C 393.049,119.263 391.716,119.096 390.5,118.5C 391.326,117.549 391.492,116.549 391,115.5C 390.163,117.007 388.996,117.507 387.5,117C 387.833,116.667 388.167,116.333 388.5,116C 383.812,111.672 379.812,107.339 376.5,103C 375.288,101.434 375.288,99.4338 376.5,97C 374.86,93.4348 373.526,89.7681 372.5,86C 372.439,84.2894 373.106,82.956 374.5,82C 373.572,81.6121 372.905,80.9454 372.5,80C 375.096,76.7851 375.096,73.6185 372.5,70.5C 374.339,64.6438 375.673,58.6438 376.5,52.5C 379.833,52.1626 380.833,50.496 379.5,47.5C 381.861,43.6108 383.861,39.6108 385.5,35.5C 386.5,35.5 387.5,35.5 388.5,35.5C 388.879,31.2854 391.212,28.7854 395.5,28C 394.167,26.6667 394.167,25.3333 395.5,24C 397.061,23.6824 398.228,22.8491 399,21.5C 402.499,22.987 403.833,21.987 403,18.5C 404,18.8333 405,19.1667 406,19.5C 408.333,17.8333 410.667,16.1667 413,14.5C 414.572,16.5894 416.405,16.5894 418.5,14.5C 420.167,15.8333 421.833,15.8333 423.5,14.5C 424.216,15.311 425.05,15.9777 426,16.5C 430.74,14.6221 434.74,15.6221 438,19.5C 438.333,19.1667 438.667,18.8333 439,18.5C 441.693,20.2381 444.526,21.7381 447.5,23C 456.456,32.164 463.456,42.3307 468.5,53.5C 468.291,54.086 467.957,54.586 467.5,55C 470.039,56.0992 470.705,57.7658 469.5,60C 472.372,64.5388 472.705,69.2054 470.5,74C 471.218,76.4607 471.885,78.9607 472.5,81.5C 471.253,86.3097 469.586,90.9764 467.5,95.5C 468.246,96.7362 468.579,98.0695 468.5,99.5C 467.448,99.3505 466.448,99.5172 465.5,100C 466.451,100.718 466.617,101.551 466,102.5C 463.04,105.613 460.206,108.78 457.5,112C 455.655,113.128 453.655,113.628 451.5,113.5C 451.646,115.942 450.813,116.609 449,115.5C 448.167,117 447,118.167 445.5,119C 446.448,119.483 447.448,119.649 448.5,119.5C 448.34,121.199 448.506,122.866 449,124.5C 451.776,128.809 453.943,133.476 455.5,138.5C 454.716,142.399 455.549,146.065 458,149.5C 458.311,151.556 458.811,153.556 459.5,155.5C 459.291,156.086 458.957,156.586 458.5,157C 459.579,157.956 460.745,158.789 462,159.5C 464.301,159.164 466.468,157.831 468.5,155.5C 469.967,155.723 471.467,156.056 473,156.5C 474.177,155.682 475.51,154.682 477,153.5C 479.323,153.811 481.656,154.144 484,154.5C 485.333,151.833 486.667,151.833 488,154.5C 490.725,152.242 493.725,151.909 497,153.5C 498.067,151.717 499.567,151.217 501.5,152C 500.304,152.654 500.304,153.154 501.5,153.5C 504.5,152.833 507.5,152.167 510.5,151.5C 513.715,152.973 517.049,153.473 520.5,153C 520.536,146.876 520.536,141.042 520.5,135.5C 521.025,134.808 521.692,134.308 522.5,134C 521.439,132.151 520.773,130.151 520.5,128C 520.889,125.249 520.889,122.582 520.5,120C 521.167,119.667 521.833,119.333 522.5,119C 521.833,117.333 521.167,115.667 520.5,114C 520.981,109.388 520.981,104.554 520.5,99.5C 521.167,98.5 521.833,97.5 522.5,96.5C 521.098,92.0092 520.431,87.3426 520.5,82.5C 524.5,82.1667 524.5,81.8333 520.5,81.5C 521.013,74.0368 521.013,66.7034 520.5,59.5C 520.722,57.9446 521.389,56.6113 522.5,55.5C 522.167,54.8333 521.833,54.1667 521.5,53.5C 524.154,52.0319 526.487,50.3652 528.5,48.5 Z M 419.5,29.5 C 422.137,30.1641 424.803,30.8307 427.5,31.5C 428.086,31.2907 428.586,30.9574 429,30.5C 433.612,33.4488 438.445,35.9488 443.5,38C 444.497,41.2065 446.664,44.0399 450,46.5C 451.506,49.6699 453.006,52.8366 454.5,56C 453.391,57.813 454.058,58.6463 456.5,58.5C 456.719,62.3776 457.719,66.0442 459.5,69.5C 458.821,71.5879 458.488,73.5879 458.5,75.5C 459.025,76.1924 459.692,76.6924 460.5,77C 458.904,83.1209 456.904,89.1209 454.5,95C 454.833,95.3333 455.167,95.6667 455.5,96C 454.019,96.9803 452.685,98.147 451.5,99.5C 451.709,100.086 452.043,100.586 452.5,101C 447.908,102.55 443.241,103.716 438.5,104.5C 438.338,106.824 437.172,108.491 435,109.5C 428.524,108.547 421.858,108.547 415,109.5C 404.663,109.299 396.163,105.299 389.5,97.5C 388.045,92.1648 386.378,86.6648 384.5,81C 385.786,78.9777 386.786,76.8111 387.5,74.5C 386.833,73.8333 386.167,73.1667 385.5,72.5C 386.695,71.0325 386.695,69.5325 385.5,68C 387.898,59.6284 391.398,51.7951 396,44.5C 399.177,40.3254 402.677,36.4921 406.5,33C 410.912,31.2031 415.245,30.0364 419.5,29.5 Z M 564.5,55.5 C 566.339,56.7525 568.172,56.7525 570,55.5C 570.317,57.3008 570.984,57.6341 572,56.5C 574.584,59.4682 576.584,59.1348 578,55.5C 579.375,57.9772 581.209,58.8106 583.5,58C 582.304,58.6543 582.304,59.1543 583.5,59.5C 585.021,59.1203 586.687,58.9536 588.5,59C 589.667,58.5 590.5,57.6667 591,56.5C 592,58.1667 593.333,59.5 595,60.5C 595.333,59.5 595.667,58.5 596,57.5C 599.082,60.6433 602.415,60.9766 606,58.5C 607.885,59.3133 608.551,60.6467 608,62.5C 603.463,61.6483 598.797,61.6483 594,62.5C 593.481,61.4844 592.647,60.8178 591.5,60.5C 589.235,60.9397 587.068,61.6064 585,62.5C 583.475,61.2799 581.641,60.6132 579.5,60.5C 574.059,61.097 569.059,61.097 564.5,60.5C 561.717,62.2743 559.717,64.6076 558.5,67.5C 556.516,67.6168 554.85,66.9501 553.5,65.5C 552.702,67.0777 552.202,68.7444 552,70.5C 550.455,69.1787 549.289,69.5121 548.5,71.5C 549.196,86.1813 549.196,100.681 548.5,115C 546.311,115.677 545.978,116.844 547.5,118.5C 546.833,119.833 546.167,121.167 545.5,122.5C 546.025,123.192 546.692,123.692 547.5,124C 546.333,124.5 545.5,125.333 545,126.5C 544.5,129.5 544,132.5 543.5,135.5C 543.134,140.71 543.8,145.876 545.5,151C 544.833,151.333 544.167,151.667 543.5,152C 544.833,152.667 544.833,153.333 543.5,154C 544.167,154.333 544.833,154.667 545.5,155C 544.02,156.299 543.354,157.966 543.5,160C 543.591,166.985 543.591,173.985 543.5,181C 544.044,183.4 544.711,185.733 545.5,188C 545,188.5 544.5,189 544,189.5C 543.749,198.52 543.249,207.52 542.5,216.5C 542.64,218.03 543.307,219.03 544.5,219.5C 543.645,220.531 542.978,221.697 542.5,223C 543.394,228.437 543.061,233.77 541.5,239C 542.085,246.545 542.085,253.878 541.5,261C 543.604,261.489 543.938,262.655 542.5,264.5C 542.919,265.672 543.585,266.672 544.5,267.5C 544.062,268.506 543.396,268.506 542.5,267.5C 541.464,275.913 540.797,284.58 540.5,293.5C 541.5,293.5 542.5,293.5 543.5,293.5C 543.54,298.013 545.206,299.013 548.5,296.5C 549.506,296.938 549.506,297.604 548.5,298.5C 550.917,299.072 553.084,300.072 555,301.5C 555.414,301.043 555.914,300.709 556.5,300.5C 560.28,301.822 564.113,302.822 568,303.5C 581.501,304.583 594.835,304.583 608,303.5C 611.111,304.961 614.277,305.294 617.5,304.5C 618.428,306.335 619.594,306.668 621,305.5C 627.146,306.334 633.313,307.334 639.5,308.5C 640.584,308.315 641.584,307.982 642.5,307.5C 643.563,309.347 645.229,309.681 647.5,308.5C 650.131,308.782 652.631,309.449 655,310.5C 655.354,308.193 656.354,307.859 658,309.5C 658.945,309.095 659.612,308.428 660,307.5C 660.388,308.428 661.055,309.095 662,309.5C 666.109,310.183 670.109,311.183 674,312.5C 679.438,312.29 685.272,312.29 691.5,312.5C 692.251,311.624 692.751,310.624 693,309.5C 693.196,311.286 694.029,312.619 695.5,313.5C 701.559,312.857 707.726,312.857 714,313.5C 715.658,313.325 716.991,312.658 718,311.5C 723.925,312.81 730.092,313.477 736.5,313.5C 742.5,313.333 748.5,313.167 754.5,313C 755.833,312.333 755.833,311.667 754.5,311C 758.185,310.259 758.851,308.759 756.5,306.5C 756.833,306.167 757.167,305.833 757.5,305.5C 759.169,306.671 760.669,308.004 762,309.5C 762.772,309.355 763.439,309.022 764,308.5C 764.314,306.131 765.148,303.964 766.5,302C 765.521,300.221 765.854,298.555 767.5,297C 767.203,292.593 767.203,288.26 767.5,284C 769.355,279.897 771.022,275.73 772.5,271.5C 772.167,270.833 771.833,270.167 771.5,269.5C 772.199,264.978 773.199,260.311 774.5,255.5C 773.61,237.223 773.277,219.389 773.5,202C 774.227,199.876 774.894,197.709 775.5,195.5C 774.017,187.67 772.684,179.837 771.5,172C 772.097,170.111 772.431,168.278 772.5,166.5C 772.003,162.825 771.003,159.325 769.5,156C 770.479,154.221 770.146,152.555 768.5,151C 769.148,148.153 769.481,145.319 769.5,142.5C 768.885,139.961 768.218,137.461 767.5,135C 767.841,126.178 767.841,117.345 767.5,108.5C 768.041,105.792 768.708,103.126 769.5,100.5C 769.813,94.1319 769.479,87.6319 768.5,81C 769.653,79.3463 770.987,77.8463 772.5,76.5C 771.024,73.4349 768.857,72.1015 766,72.5C 764.559,71.13 762.892,70.13 761,69.5C 758.831,69.2887 756.497,69.6221 754,70.5C 752.635,70.1557 751.468,69.4891 750.5,68.5C 749.5,69.1667 748.5,69.8333 747.5,70.5C 745.389,67.9557 743.222,67.9557 741,70.5C 740.395,68.5188 739.395,68.1854 738,69.5C 734.574,68.3132 731.074,67.3132 727.5,66.5C 726.833,67.1667 726.167,67.8333 725.5,68.5C 722.72,67.8049 720.053,66.8049 717.5,65.5C 716.808,66.0253 716.308,66.6919 716,67.5C 714.542,66.2532 713.042,66.2532 711.5,67.5C 710.522,67.0233 709.689,66.3567 709,65.5C 708.125,67.5127 706.791,67.5127 705,65.5C 704.667,65.8333 704.333,66.1667 704,66.5C 703.692,65.6919 703.192,65.0253 702.5,64.5C 701.575,65.6405 700.741,65.6405 700,64.5C 699.667,65.1667 699.333,65.8333 699,66.5C 697.333,63.8333 695.667,63.8333 694,66.5C 693.612,65.572 692.945,64.9054 692,64.5C 686.618,65.0653 681.284,65.3987 676,65.5C 675.125,63.4873 673.791,63.4873 672,65.5C 669.752,65.1421 667.252,64.4755 664.5,63.5C 662.689,64.7357 660.856,64.7357 659,63.5C 657.548,65.8253 655.881,65.8253 654,63.5C 649.173,65.0304 644.506,64.697 640,62.5C 638.739,62.7591 637.739,63.4258 637,64.5C 635.293,63.5415 633.459,62.8748 631.5,62.5C 626.012,62.3679 620.512,62.7012 615,63.5C 613.509,61.9963 611.676,61.1629 609.5,61C 610.126,60.2496 610.626,59.4162 611,58.5C 614.261,60.0234 617.595,60.3567 621,59.5C 622.473,59.9031 623.806,60.5697 625,61.5C 625.333,60.8333 625.667,60.1667 626,59.5C 629.115,61.6046 632.115,61.6046 635,59.5C 636.085,60.2931 637.252,60.9598 638.5,61.5C 642.111,61.0573 645.944,60.3906 650,59.5C 650.915,60.3279 651.581,61.3279 652,62.5C 652.739,61.4258 653.739,60.7591 655,60.5C 658.551,60.2755 661.884,60.6088 665,61.5C 665.945,61.0946 666.612,60.428 667,59.5C 672.009,60.1575 677.175,60.1575 682.5,59.5C 682.833,60.8333 683.167,60.8333 683.5,59.5C 684.151,60.0906 684.818,60.7573 685.5,61.5C 687.12,58.9422 688.62,58.9422 690,61.5C 692.058,60.8905 692.891,59.8905 692.5,58.5C 694.163,60.8007 695.997,60.8007 698,58.5C 699.299,59.9797 700.966,60.6464 703,60.5C 705.505,59.8094 707.838,59.476 710,59.5C 710.667,62.1667 711.333,62.1667 712,59.5C 716.116,60.465 720.116,60.465 724,59.5C 725,62.1667 726,62.1667 727,59.5C 727.333,60.1667 727.667,60.8333 728,61.5C 729.974,61.3528 731.974,61.0195 734,60.5C 735.351,62.019 736.851,63.3523 738.5,64.5C 740.875,63.3575 743.208,62.3575 745.5,61.5C 748.615,63.7879 751.282,63.7879 753.5,61.5C 754.216,62.311 755.05,62.9777 756,63.5C 760.508,63.3257 765.342,63.159 770.5,63C 771.759,63.9234 773.092,64.7568 774.5,65.5C 775.083,67.0016 775.916,68.3349 777,69.5C 779.597,82.3959 782.097,95.5626 784.5,109C 783.653,112.339 783.986,116.006 785.5,120C 785.233,128.8 785.233,137.967 785.5,147.5C 782.833,148.833 782.833,150.167 785.5,151.5C 784.167,155.833 784.167,160.167 785.5,164.5C 785.171,172.046 783.838,179.546 781.5,187C 783.041,190.87 782.708,194.537 780.5,198C 781.308,198.308 781.975,198.808 782.5,199.5C 781.833,202.167 781.167,204.833 780.5,207.5C 780.581,211.303 780.915,215.469 781.5,220C 778.833,222.333 778.833,224.667 781.5,227C 780.775,240.462 780.775,254.295 781.5,268.5C 781.075,273.83 780.075,278.996 778.5,284C 779.067,286.507 779.4,289.007 779.5,291.5C 777.382,293.439 777.049,295.606 778.5,298C 777.759,303.159 776.759,308.326 775.5,313.5C 776.106,315.709 776.773,317.876 777.5,320C 776.975,320.692 776.308,321.192 775.5,321.5C 772.167,320.167 768.833,320.167 765.5,321.5C 760.69,319.239 755.856,319.239 751,321.5C 748.095,319.907 744.929,318.907 741.5,318.5C 733.78,318.02 726.447,318.02 719.5,318.5C 719.5,317.5 719.5,316.5 719.5,315.5C 717.901,315.232 716.568,315.566 715.5,316.5C 710.48,317.689 704.48,317.689 697.5,316.5C 696.328,315.295 694.995,315.295 693.5,316.5C 691.952,314.078 690.286,314.078 688.5,316.5C 687.167,315.5 685.833,314.5 684.5,313.5C 683.186,314.313 682.019,315.313 681,316.5C 679.857,313.085 678.19,312.751 676,315.5C 674.077,314.684 672.077,314.017 670,313.5C 665.937,313.45 661.937,313.783 658,314.5C 657.333,313.833 656.667,313.167 656,312.5C 653.067,313.466 650.401,313.466 648,312.5C 647.333,313.167 646.667,313.833 646,314.5C 644.62,311.942 643.12,311.942 641.5,314.5C 640.402,313.385 639.235,313.385 638,314.5C 636.989,314.108 636.489,313.441 636.5,312.5C 634.031,314.007 631.865,313.673 630,311.5C 629.751,312.624 629.251,313.624 628.5,314.5C 626.051,314.02 623.885,313.02 622,311.5C 620.915,312.293 619.748,312.96 618.5,313.5C 613.386,313.132 608.052,313.132 602.5,313.5C 600.971,313.471 599.804,312.804 599,311.5C 598.333,314.167 597.667,314.167 597,311.5C 594.868,312.78 592.702,312.78 590.5,311.5C 587.586,313.973 584.752,313.973 582,311.5C 578.059,312.123 574.059,312.456 570,312.5C 567.43,311.991 565.097,310.991 563,309.5C 559.675,309.708 556.342,310.041 553,310.5C 549.801,307.518 546.134,306.851 542,308.5C 540.758,307.128 539.258,306.128 537.5,305.5C 536.779,303.314 536.113,301.147 535.5,299C 536.727,297.413 536.394,296.079 534.5,295C 534.899,290.713 535.566,286.213 536.5,281.5C 536.182,280.353 535.516,279.519 534.5,279C 535.401,275.02 535.735,270.854 535.5,266.5C 534.849,258.969 534.182,251.469 533.5,244C 535.957,242.846 535.957,241.512 533.5,240C 534.833,238.667 534.833,237.333 533.5,236C 535.491,232.993 535.491,229.827 533.5,226.5C 534.195,223.216 534.195,220.216 533.5,217.5C 534.163,215.196 534.83,212.863 535.5,210.5C 534.91,209.201 533.91,208.368 532.5,208C 533.293,206.915 533.96,205.748 534.5,204.5C 534.366,198.364 534.366,192.197 534.5,186C 534.325,184.342 533.658,183.009 532.5,182C 534.602,180.267 534.935,178.267 533.5,176C 534.188,170.532 534.855,165.032 535.5,159.5C 532.833,158.167 532.833,156.833 535.5,155.5C 534.272,151.36 534.272,147.193 535.5,143C 535.245,141.674 534.578,140.674 533.5,140C 535.41,139.592 536.41,138.425 536.5,136.5C 536.245,113.422 536.245,90.422 536.5,67.5C 536.023,66.5224 535.357,65.6891 534.5,65C 535.188,62.273 535.522,59.6064 535.5,57C 533.132,54.992 531.298,52.8253 530,50.5C 531.512,51.2567 532.846,52.2567 534,53.5C 534.333,52.8333 534.667,52.1667 535,51.5C 536.079,53.3937 537.413,53.727 539,52.5C 539.333,53.1667 539.667,53.8333 540,54.5C 542.297,54.4609 544.63,54.1276 547,53.5C 551.631,55.0699 556.297,55.4033 561,54.5C 562.041,56.3115 563.207,56.6448 564.5,55.5 Z M 676.5,78.5 C 676.369,79.3764 676.702,80.0431 677.5,80.5C 678.833,79.8333 680.167,79.1667 681.5,78.5C 683.289,79.8772 685.289,80.8772 687.5,81.5C 688.192,80.9747 688.692,80.3081 689,79.5C 692.773,80.5171 696.606,80.5171 700.5,79.5C 701.5,82.1667 702.5,82.1667 703.5,79.5C 705.138,80.1589 706.805,80.8256 708.5,81.5C 709.192,80.9747 709.692,80.3081 710,79.5C 710.953,81.5922 712.286,81.9255 714,80.5C 715.804,82.9815 717.304,82.9815 718.5,80.5C 720.797,80.9557 723.13,82.289 725.5,84.5C 726.72,83.2889 727.887,83.2889 729,84.5C 729.333,83.8333 729.667,83.1667 730,82.5C 731.652,83.217 733.152,83.5504 734.5,83.5C 723.127,91.6484 712.127,99.9818 701.5,108.5C 699.032,111.238 696.032,113.238 692.5,114.5C 691.003,119.598 687.67,122.931 682.5,124.5C 681.702,127.811 679.869,130.478 677,132.5C 675.562,133.9 674.729,135.567 674.5,137.5C 673.448,137.351 672.448,137.517 671.5,138C 672.641,138.741 672.641,139.575 671.5,140.5C 669.027,142.061 667.027,144.061 665.5,146.5C 664.675,147.386 663.675,147.719 662.5,147.5C 662.649,148.552 662.483,149.552 662,150.5C 659.108,153.271 656.442,156.271 654,159.5C 653.333,158.167 652.667,158.167 652,159.5C 651.167,157.5 650.333,155.5 649.5,153.5C 648.914,153.709 648.414,154.043 648,154.5C 647.28,152.944 646.113,151.944 644.5,151.5C 644.5,150.5 644.5,149.5 644.5,148.5C 642.058,148.881 641.391,148.214 642.5,146.5C 639.437,143.18 635.77,140.68 631.5,139C 632.167,138.333 632.833,137.667 633.5,137C 630.611,134.444 627.277,132.777 623.5,132C 624.526,129.536 623.692,127.702 621,126.5C 620.517,125.552 620.351,124.552 620.5,123.5C 619.127,123.657 617.793,123.49 616.5,123C 614.629,120.63 612.962,118.13 611.5,115.5C 610.012,113.729 608.179,112.396 606,111.5C 605.426,108.679 604.092,106.346 602,104.5C 600.989,103.663 599.822,103.33 598.5,103.5C 598.5,102.5 598.5,101.5 598.5,100.5C 596.801,100.473 595.467,99.8062 594.5,98.5C 593.826,96.9755 592.826,95.6422 591.5,94.5C 590.675,93.6143 589.675,93.281 588.5,93.5C 588.5,92.1667 588.5,90.8333 588.5,89.5C 585.892,89.3944 583.892,88.2277 582.5,86C 582.957,85.586 583.291,85.086 583.5,84.5C 580.473,81.6377 577.307,78.9711 574,76.5C 573.409,75.5165 573.743,74.8499 575,74.5C 576.856,75.7357 578.689,75.7357 580.5,74.5C 581.167,75.1667 581.833,75.8333 582.5,76.5C 587.308,73.5953 591.642,74.2619 595.5,78.5C 596.27,76.7282 597.603,75.7282 599.5,75.5C 603.843,76.4198 608.343,76.4198 613,75.5C 613.308,76.3081 613.808,76.9747 614.5,77.5C 618.5,77.1667 622.5,76.8333 626.5,76.5C 628.816,79.4265 630.316,79.0932 631,75.5C 631.576,78.1242 632.91,78.7908 635,77.5C 636.154,79.9574 637.488,79.9574 639,77.5C 639.667,78.1667 640.333,78.8333 641,79.5C 642,78.1667 643,78.1667 644,79.5C 644.689,78.6433 645.522,77.9767 646.5,77.5C 648.453,81.4121 650.287,81.4121 652,77.5C 653.972,79.4425 656.139,79.7758 658.5,78.5C 659.167,79.1667 659.833,79.8333 660.5,80.5C 662.429,79.6198 664.263,78.6198 666,77.5C 667.834,79.7562 669.501,79.7562 671,77.5C 671.419,78.6721 672.085,79.6721 673,80.5C 673.816,79.1772 674.983,78.5106 676.5,78.5 Z M 754.5,126.5 C 757,130.913 756.667,135.246 753.5,139.5C 754.325,140.386 755.325,140.719 756.5,140.5C 756.38,142.199 756.046,143.865 755.5,145.5C 755.818,146.647 756.484,147.481 757.5,148C 756.833,150.333 756.167,152.667 755.5,155C 756.328,155.915 757.328,156.581 758.5,157C 757.978,157.561 757.645,158.228 757.5,159C 758.513,165.415 759.513,171.581 760.5,177.5C 760.47,180.773 760.47,184.106 760.5,187.5C 760.942,188.739 761.609,189.739 762.5,190.5C 761.761,190.369 761.094,190.536 760.5,191C 760.653,192.209 760.986,193.375 761.5,194.5C 760.997,197.484 760.664,200.484 760.5,203.5C 760.977,204.478 761.643,205.311 762.5,206C 761.427,207.25 761.427,208.584 762.5,210C 761.704,211.092 761.037,212.259 760.5,213.5C 761.833,215.167 761.833,216.833 760.5,218.5C 760.818,219.647 761.484,220.481 762.5,221C 761.289,222.113 761.289,223.28 762.5,224.5C 762.023,225.478 761.357,226.311 760.5,227C 761.167,227.333 761.833,227.667 762.5,228C 761.253,229.458 761.253,230.958 762.5,232.5C 761.833,233.167 761.167,233.833 760.5,234.5C 760.888,236.359 760.888,238.359 760.5,240.5C 761.311,241.216 761.978,242.05 762.5,243C 759.975,245.727 759.975,248.393 762.5,251C 762.112,252.808 762.112,254.475 762.5,256C 761.692,256.308 761.025,256.808 760.5,257.5C 759.643,260.637 759.643,263.97 760.5,267.5C 757.417,270.072 756.084,273.405 756.5,277.5C 755.691,276.531 754.691,275.698 753.5,275C 754.337,273.989 754.67,272.822 754.5,271.5C 753.5,271.5 752.5,271.5 751.5,271.5C 748.663,265.819 745.329,260.485 741.5,255.5C 739.054,252.133 736.388,249.133 733.5,246.5C 733.291,245.078 732.791,243.745 732,242.5C 731.667,242.833 731.333,243.167 731,243.5C 726.723,238.825 722.89,233.825 719.5,228.5C 715.329,225.675 712.329,222.008 710.5,217.5C 709.325,217.719 708.325,217.386 707.5,216.5C 705.942,214.044 703.942,212.044 701.5,210.5C 701.709,209.914 702.043,209.414 702.5,209C 697.64,205.588 693.64,202.088 690.5,198.5C 689.928,196.745 689.094,195.078 688,193.5C 684.585,193.109 682.419,190.942 681.5,187C 680.551,186.383 679.718,186.549 679,187.5C 678.448,183.799 676.281,181.799 672.5,181.5C 672.302,177.107 669.635,174.607 664.5,174C 665.167,173.667 665.833,173.333 666.5,173C 665.196,172.196 664.529,171.029 664.5,169.5C 665.651,167.675 666.318,165.675 666.5,163.5C 668.179,163.715 669.179,163.048 669.5,161.5C 672.113,160.905 672.113,160.071 669.5,159C 670.325,157.312 671.325,157.145 672.5,158.5C 674.024,155.764 676.191,153.764 679,152.5C 680.027,149.113 681.527,146.113 683.5,143.5C 684.873,143.657 686.207,143.49 687.5,143C 684.972,142.331 684.972,141.498 687.5,140.5C 689.677,141.504 690.011,140.838 688.5,138.5C 689.5,137.5 690.5,136.5 691.5,135.5C 692.086,135.709 692.586,136.043 693,136.5C 693.662,135.016 694.496,133.683 695.5,132.5C 696.994,129.864 699.328,128.03 702.5,127C 705.39,122.608 709.057,119.108 713.5,116.5C 713.291,115.914 712.957,115.414 712.5,115C 714.715,113.956 717.048,113.29 719.5,113C 721.487,111.681 722.654,109.848 723,107.5C 723.414,107.957 723.914,108.291 724.5,108.5C 727.197,106.142 730.197,104.142 733.5,102.5C 735.185,100.983 736.685,99.3159 738,97.5C 738.333,97.8333 738.667,98.1667 739,98.5C 745.12,93.5556 750.953,88.8889 756.5,84.5C 756.833,84.6667 757.167,84.8333 757.5,85C 756.44,88.7924 755.44,92.6257 754.5,96.5C 757.348,99.6353 757.015,102.302 753.5,104.5C 754.603,104.998 755.603,105.331 756.5,105.5C 753.975,108.42 753.975,111.254 756.5,114C 756,114.5 755.5,115 755,115.5C 754.754,118.89 754.254,122.223 753.5,125.5C 753.624,126.107 753.957,126.44 754.5,126.5 Z M 564.5,87.5 C 570.268,94.4359 576.601,100.936 583.5,107C 583.167,107.333 582.833,107.667 582.5,108C 583.448,108.483 584.448,108.649 585.5,108.5C 585.351,109.552 585.517,110.552 586,111.5C 589.674,114.842 593.008,118.508 596,122.5C 597.205,123.071 598.372,123.738 599.5,124.5C 604.954,130.791 610.621,136.957 616.5,143C 621.258,145.029 624.258,148.529 625.5,153.5C 627.76,154.139 629.76,155.306 631.5,157C 633.253,158.999 634.587,161.165 635.5,163.5C 636.675,163.281 637.675,163.614 638.5,164.5C 640.956,167.458 643.622,170.291 646.5,173C 645.024,175.643 643.024,177.81 640.5,179.5C 640.709,180.086 641.043,180.586 641.5,181C 639.671,181.273 638.171,182.107 637,183.5C 632.766,192.599 626.766,200.265 619,206.5C 613.438,214.075 607.438,221.408 601,228.5C 595.95,236.889 590.117,243.889 583.5,249.5C 584.025,250.192 584.692,250.692 585.5,251C 583.671,251.273 582.171,252.107 581,253.5C 577.163,259.282 573.33,264.948 569.5,270.5C 565.932,270.759 564.599,272.759 565.5,276.5C 564.448,276.351 563.448,276.517 562.5,277C 560.87,279.366 559.037,281.533 557,283.5C 554.908,280.329 555.075,277.329 557.5,274.5C 555.65,271.546 555.65,268.38 557.5,265C 556.983,262.923 556.316,260.923 555.5,259C 556.357,258.311 557.023,257.478 557.5,256.5C 556.167,254.167 556.167,251.833 557.5,249.5C 556.833,248.167 556.167,246.833 555.5,245.5C 556.167,242.5 556.833,239.5 557.5,236.5C 557.291,235.914 556.957,235.414 556.5,235C 557.313,228.581 557.813,222.081 558,215.5C 560.349,213.256 559.849,212.089 556.5,212C 559.428,211.64 560.094,210.307 558.5,208C 558.975,206.237 559.642,204.57 560.5,203C 559.692,202.692 559.025,202.192 558.5,201.5C 559.115,198.961 559.782,196.461 560.5,194C 559.414,189.537 559.414,184.87 560.5,180C 560.245,178.674 559.578,177.674 558.5,177C 559.042,174.451 559.376,171.951 559.5,169.5C 557.348,167.152 557.681,164.818 560.5,162.5C 559.926,160.941 559.26,159.441 558.5,158C 559.711,156.887 559.711,155.72 558.5,154.5C 559.167,153.5 559.833,152.5 560.5,151.5C 559.975,150.808 559.308,150.308 558.5,150C 559.357,149.311 560.023,148.478 560.5,147.5C 559.679,141.07 559.345,134.737 559.5,128.5C 560.91,123.694 562.243,118.861 563.5,114C 563.097,112.527 562.43,111.194 561.5,110C 564.571,108.432 564.904,106.598 562.5,104.5C 563.868,98.5745 564.535,92.9078 564.5,87.5 Z M 520.5,192.5 C 519.402,193.397 519.402,194.23 520.5,195C 519.975,195.692 519.308,196.192 518.5,196.5C 516.52,195.516 514.853,194.183 513.5,192.5C 512.833,193.167 512.167,193.833 511.5,194.5C 505.676,193.579 499.843,191.912 494,189.5C 493.228,189.645 492.561,189.978 492,190.5C 491.729,186.87 490.062,185.87 487,187.5C 479.734,182.735 472.901,177.402 466.5,171.5C 468.357,168.494 470.857,167.828 474,169.5C 474.464,168.906 474.631,168.239 474.5,167.5C 478.052,166.739 481.386,166.406 484.5,166.5C 496.081,164.954 507.748,163.954 519.5,163.5C 520.123,166 520.457,168.5 520.5,171C 519.643,171.689 518.977,172.522 518.5,173.5C 519.663,178.318 519.663,183.318 518.5,188.5C 518.585,190.333 519.252,191.666 520.5,192.5 Z M 741.5,281.5 C 741.881,282.931 742.881,283.764 744.5,284C 744.167,284.333 743.833,284.667 743.5,285C 745.163,287.16 746.83,289.327 748.5,291.5C 747.391,292.965 747.891,293.965 750,294.5C 750.49,295.793 750.657,297.127 750.5,298.5C 741.92,298.99 733.586,299.324 725.5,299.5C 725.631,298.624 725.298,297.957 724.5,297.5C 722.086,299.747 719.42,300.08 716.5,298.5C 714.108,300.631 711.775,300.298 709.5,297.5C 701.939,297.609 694.439,297.943 687,298.5C 686.311,297.643 685.478,296.977 684.5,296.5C 682.5,296.833 680.5,297.167 678.5,297.5C 677.808,296.975 677.308,296.308 677,295.5C 675.326,297.009 673.66,297.676 672,297.5C 670.332,293.763 668.999,293.763 668,297.5C 667.51,296.207 667.343,294.873 667.5,293.5C 665.876,293.36 664.71,294.027 664,295.5C 662.984,294.366 662.317,294.699 662,296.5C 661.196,295.196 660.029,294.529 658.5,294.5C 655.167,294.5 651.833,294.5 648.5,294.5C 646.971,294.471 645.804,293.804 645,292.5C 642.02,292.585 639.02,292.919 636,293.5C 632.412,291.398 629.078,291.398 626,293.5C 624.281,291.684 622.115,290.684 619.5,290.5C 616.76,290.488 613.927,290.822 611,291.5C 609.333,290.833 607.667,290.167 606,289.5C 603.073,289.771 600.239,289.771 597.5,289.5C 596.031,291.375 594.198,291.375 592,289.5C 589.136,290.212 586.136,290.545 583,290.5C 580.546,289.656 578.046,288.656 575.5,287.5C 573.2,289.831 571.534,289.664 570.5,287C 572.396,285.276 574.062,283.443 575.5,281.5C 576.833,281.5 577.5,280.833 577.5,279.5C 579.825,278.345 580.992,276.345 581,273.5C 583.799,272.227 585.633,270.227 586.5,267.5C 587.5,267.5 588.5,267.5 589.5,267.5C 589.343,266.127 589.51,264.793 590,263.5C 591.417,262.922 592.25,261.922 592.5,260.5C 596.929,256.8 600.262,252.8 602.5,248.5C 605.624,245.159 608.958,241.326 612.5,237C 611.167,235.16 611.334,234.66 613,235.5C 613.333,234.5 613.667,233.5 614,232.5C 614.333,232.833 614.667,233.167 615,233.5C 615.483,232.552 615.649,231.552 615.5,230.5C 616.5,230.5 617.5,230.5 618.5,230.5C 618.687,228.436 619.187,226.436 620,224.5C 620.308,225.308 620.808,225.975 621.5,226.5C 622.695,224.879 623.695,223.213 624.5,221.5C 625.833,221.167 625.833,220.833 624.5,220.5C 624.863,218.223 625.863,217.556 627.5,218.5C 628.806,217.088 629.64,215.421 630,213.5C 631.159,214.566 631.992,214.233 632.5,212.5C 634.921,209.788 637.588,207.288 640.5,205C 640.888,203.475 640.888,201.808 640.5,200C 643.612,199.375 645.445,197.542 646,194.5C 647.214,192.951 648.714,191.785 650.5,191C 649.944,190.617 649.611,190.117 649.5,189.5C 651.505,188.746 652.172,187.579 651.5,186C 652.849,185.228 653.682,184.061 654,182.5C 664.304,191.806 673.971,201.806 683,212.5C 689.333,218.5 695.667,224.5 702,230.5C 707.077,236.076 711.577,242.076 715.5,248.5C 721.001,252.1 724.501,256.767 726,262.5C 730.985,264.983 733.818,268.983 734.5,274.5C 735.5,274.5 736.5,274.5 737.5,274.5C 738.097,277.374 739.431,279.708 741.5,281.5 Z M 520.5,245.5 C 522.028,245.517 522.528,246.184 522,247.5C 521.283,246.956 520.783,246.289 520.5,245.5 Z"/></g>
<g><path style="opacity:0.106" fill="#000000" d="M 528.5,46.5 C 528.5,47.1667 528.5,47.8333 528.5,48.5C 525.833,47.8333 525.833,47.1667 528.5,46.5 Z"/></g>
<g><path style="opacity:0.857" fill="#000000" d="M 65.5,185.5 C 65.56,186.043 65.8933,186.376 66.5,186.5C 67.982,184.517 69.6487,182.684 71.5,181C 71.1667,180.667 70.8333,180.333 70.5,180C 72.0488,178.786 73.2155,177.286 74,175.5C 75,176.833 76,176.833 77,175.5C 77.3333,174.167 77.6667,172.833 78,171.5C 78.3333,172.167 78.6667,172.833 79,173.5C 82.7161,168.16 86.3828,162.827 90,157.5C 90.7412,158.641 91.5745,158.641 92.5,157.5C 94.1712,154.508 96.1712,151.841 98.5,149.5C 99.552,149.649 100.552,149.483 101.5,149C 100.366,147.984 100.699,147.317 102.5,147C 102.167,146.667 101.833,146.333 101.5,146C 102.701,145.097 103.535,143.931 104,142.5C 104.333,142.833 104.667,143.167 105,143.5C 106.946,140.031 109.779,137.864 113.5,137C 113.167,136.667 112.833,136.333 112.5,136C 115.326,133.016 118.492,130.516 122,128.5C 122.667,129.167 123.333,129.833 124,130.5C 126.194,127.983 128.194,128.316 130,131.5C 130.617,132.449 130.451,133.282 129.5,134C 130.167,134.333 130.833,134.667 131.5,135C 130.189,138.64 127.855,141.306 124.5,143C 121.29,147.854 116.79,152.021 111,155.5C 108.549,160.58 105.049,164.747 100.5,168C 98.2533,171.736 95.0867,175.236 91,178.5C 86.5658,184.047 81.8991,189.38 77,194.5C 76.6667,194.167 76.3333,193.833 76,193.5C 73.9165,198.419 70.4165,201.752 65.5,203.5C 61.8333,209.167 57.1667,213.833 51.5,217.5C 51.2093,221.309 49.376,222.976 46,222.5C 44.4708,223.729 43.3041,225.229 42.5,227C 41.5509,227.617 40.7175,227.451 40,226.5C 39.3333,227.167 38.6667,227.833 38,228.5C 35.6474,225.398 32.9807,223.398 30,222.5C 29.1531,219.51 30.3198,218.176 33.5,218.5C 33.281,217.325 33.6143,216.325 34.5,215.5C 40.4606,211.704 45.2939,206.704 49,200.5C 50.4222,200.406 51.9222,200.072 53.5,199.5C 57.5309,194.71 61.5309,190.043 65.5,185.5 Z"/></g>
<g><path style="opacity:0.802" fill="#000000" d="M 211.5,234.5 C 210.923,233.227 210.257,233.227 209.5,234.5C 208.914,237.349 207.58,239.682 205.5,241.5C 205.167,240.167 204.833,240.167 204.5,241.5C 203.226,242.189 203.226,243.023 204.5,244C 201.865,247.286 199.532,250.786 197.5,254.5C 196.624,255.251 195.624,255.751 194.5,256C 195.821,257.545 195.488,258.711 193.5,259.5C 193.089,258.738 192.923,257.738 193,256.5C 190.838,256.94 188.671,257.273 186.5,257.5C 185.594,255.614 184.594,253.78 183.5,252C 186.15,248.793 185.984,248.293 183,250.5C 182.833,250 182.667,249.5 182.5,249C 185.637,243.598 189.137,238.431 193,233.5C 193.333,232.167 193.667,230.833 194,229.5C 194.423,230.956 195.256,231.456 196.5,231C 196.043,230.586 195.709,230.086 195.5,229.5C 197.094,226.939 199.094,224.772 201.5,223C 201.167,222.667 200.833,222.333 200.5,222C 201.973,221.29 202.64,220.124 202.5,218.5C 205.361,218.487 206.361,217.321 205.5,215C 208.491,212.01 210.657,208.51 212,204.5C 213.351,202.981 214.851,201.648 216.5,200.5C 215.697,197.946 216.697,196.112 219.5,195C 219.167,194.667 218.833,194.333 218.5,194C 221.164,191.331 222.998,188.164 224,184.5C 225.067,183.809 226.234,183.309 227.5,183C 226.572,182.612 225.905,181.945 225.5,181C 226.593,177.373 228.593,174.373 231.5,172C 230.833,171.667 230.167,171.333 229.5,171C 231.155,168.347 233.155,166.014 235.5,164C 235.043,163.586 234.709,163.086 234.5,162.5C 236.737,160.638 237.403,158.471 236.5,156C 238.91,153.468 241.91,151.968 245.5,151.5C 244.312,150.16 242.812,149.493 241,149.5C 238.611,149.963 236.277,150.63 234,151.5C 232.416,151.012 231.249,150.012 230.5,148.5C 230.331,149.397 229.998,150.397 229.5,151.5C 228.808,150.975 228.308,150.308 228,149.5C 227,150.833 226,150.833 225,149.5C 224.333,150.167 223.667,150.833 223,151.5C 220.534,151.506 217.868,151.173 215,150.5C 213.342,150.675 212.009,151.342 211,152.5C 208.943,151.315 206.943,150.315 205,149.5C 201.914,149.932 198.748,150.265 195.5,150.5C 193.608,147.956 191.775,147.956 190,150.5C 189.707,147.046 188.374,146.712 186,149.5C 184.415,148.624 183.415,147.291 183,145.5C 181.796,146.471 181.296,147.471 181.5,148.5C 179.118,148.117 176.618,148.117 174,148.5C 171.923,147.983 169.923,147.316 168,146.5C 166.093,146.421 164.093,146.754 162,147.5C 161.311,146.643 160.478,145.977 159.5,145.5C 155.386,147.387 151.553,146.72 148,143.5C 145.525,145.752 142.859,145.752 140,143.5C 139.086,144.654 138.253,144.487 137.5,143C 138.26,141.559 138.926,140.059 139.5,138.5C 137.861,137.084 137.027,135.417 137,133.5C 139.804,132.431 142.471,131.098 145,129.5C 145.833,129.667 146.667,129.833 147.5,130C 146.304,130.654 146.304,131.154 147.5,131.5C 148.167,130.833 148.833,130.167 149.5,129.5C 150.425,130.641 151.259,130.641 152,129.5C 161.658,130.47 171.158,132.137 180.5,134.5C 182.76,132.64 185.26,132.64 188,134.5C 193.07,133.453 198.07,133.787 203,135.5C 204.649,134.102 205.982,134.436 207,136.5C 210.542,135.682 214.376,135.515 218.5,136C 219,136.5 219.5,137 220,137.5C 220.839,136.376 222.006,135.709 223.5,135.5C 228.217,136.503 232.883,136.17 237.5,134.5C 241.779,135.274 246.113,135.774 250.5,136C 251.333,136.833 252.167,137.667 253,138.5C 253.689,137.643 254.522,136.977 255.5,136.5C 256.202,138.699 257.202,141.199 258.5,144C 257.387,145.394 256.053,146.561 254.5,147.5C 253.359,148.425 253.359,149.259 254.5,150C 253.552,150.483 252.552,150.649 251.5,150.5C 249.774,154.596 250.44,158.263 253.5,161.5C 251.489,164.01 249.322,166.343 247,168.5C 246.28,170.112 246.446,171.612 247.5,173C 244.844,174.003 243.844,175.67 244.5,178C 243.809,179.067 243.309,180.234 243,181.5C 240.678,185.502 238.178,189.335 235.5,193C 235.833,193.333 236.167,193.667 236.5,194C 235.197,197.028 233.53,199.861 231.5,202.5C 231.709,203.086 232.043,203.586 232.5,204C 230.754,204.471 229.087,205.138 227.5,206C 228.576,207.726 228.743,209.559 228,211.5C 227.333,210.833 226.667,210.167 226,209.5C 225.509,213.827 223.509,217.16 220,219.5C 218.112,225.176 215.279,230.176 211.5,234.5 Z M 176.5,133.5 C 177.773,134.077 177.773,134.743 176.5,135.5C 175.537,135.03 175.537,134.363 176.5,133.5 Z M 196.5,136.5 C 197.077,135.227 197.743,135.227 198.5,136.5C 198.03,137.463 197.363,137.463 196.5,136.5 Z M 185.5,246.5 C 186.077,245.227 186.743,245.227 187.5,246.5C 187.03,247.463 186.363,247.463 185.5,246.5 Z"/></g>
<g><path style="opacity:0.353" fill="#000000" d="M 98.5,149.5 C 97.8333,148.167 97.8333,148.167 98.5,149.5 Z"/></g>
<g><path style="opacity:0.845" fill="#000000" d="M 192.5,161.5 C 194.091,162.219 195.591,163.219 197,164.5C 197.684,165.784 197.517,166.951 196.5,168C 197.308,168.308 197.975,168.808 198.5,169.5C 198.407,171.682 197.241,173.682 195,175.5C 194,174.833 193,174.167 192,173.5C 190.604,175.527 188.938,175.86 187,174.5C 186.667,175.167 186.333,175.833 186,176.5C 183.876,175.773 181.709,175.106 179.5,174.5C 178.833,173.5 178.167,172.5 177.5,171.5C 175.44,173.892 173.273,173.892 171,171.5C 169.333,172.167 167.667,172.833 166,173.5C 165.692,172.692 165.192,172.025 164.5,171.5C 162.89,172.552 161.223,172.552 159.5,171.5C 156.808,172.737 154.475,174.404 152.5,176.5C 151.348,178.818 149.681,180.652 147.5,182C 149.567,182.536 151.401,182.036 153,180.5C 153.851,183.612 155.017,183.946 156.5,181.5C 157.425,182.641 158.259,182.641 159,181.5C 159.315,184.147 160.482,184.813 162.5,183.5C 163.509,186.337 165.509,187.67 168.5,187.5C 168.64,189.124 167.973,190.29 166.5,191C 167.051,192.398 167.384,193.732 167.5,195C 165.385,195.557 163.385,196.391 161.5,197.5C 160.063,194.956 158.563,194.956 157,197.5C 152.957,195.517 148.791,195.184 144.5,196.5C 141.972,194.126 138.972,193.126 135.5,193.5C 134.063,195.96 133.063,198.626 132.5,201.5C 136.314,201.717 139.481,202.717 142,204.5C 143.703,203.3 145.203,203.633 146.5,205.5C 149.768,204.005 153.102,204.505 156.5,207C 157.284,209.555 158.618,212.222 160.5,215C 156.953,216.808 153.286,218.308 149.5,219.5C 145.862,218.818 142.195,218.318 138.5,218C 137.874,217.25 137.374,216.416 137,215.5C 133.019,216.757 129.353,216.09 126,213.5C 125.667,213.833 125.333,214.167 125,214.5C 120.401,212.22 115.901,210.554 111.5,209.5C 112.771,206.76 113.438,203.76 113.5,200.5C 114.752,198.999 115.752,197.332 116.5,195.5C 118.826,194.855 120.493,193.522 121.5,191.5C 123.5,190.833 124.833,189.5 125.5,187.5C 135.586,178.251 144.753,168.251 153,157.5C 156.898,155.703 160.231,156.37 163,159.5C 163.667,158.833 164.333,158.167 165,157.5C 165.741,158.641 166.575,158.641 167.5,157.5C 168.192,158.025 168.692,158.692 169,159.5C 171.98,159.415 174.98,159.081 178,158.5C 182.909,160.447 187.742,161.447 192.5,161.5 Z"/></g>
<g><path style="opacity:0.09" fill="#000000" d="M 192.5,160.5 C 193.833,161.167 193.833,161.167 192.5,160.5 Z"/></g>
<g><path style="opacity:0.844" fill="#000000" d="M 256.5,277.5 C 256.103,276.475 255.437,276.308 254.5,277C 253.226,277.977 253.226,278.811 254.5,279.5C 252.59,281.562 250.257,283.062 247.5,284C 249.513,284.875 249.513,286.209 247.5,288C 246.062,288.219 244.729,288.719 243.5,289.5C 244.666,292.184 243.833,294.184 241,295.5C 240.612,294.572 239.945,293.905 239,293.5C 237.128,294.068 235.295,294.735 233.5,295.5C 229.266,291.386 228.933,286.719 232.5,281.5C 234.215,279.29 236.381,277.624 239,276.5C 242.091,271.986 245.425,267.653 249,263.5C 249.483,262.552 249.649,261.552 249.5,260.5C 250.5,260.5 251.5,260.5 252.5,260.5C 253.172,257.65 254.839,255.483 257.5,254C 257.167,253.667 256.833,253.333 256.5,253C 262.317,249.286 266.983,243.786 270.5,236.5C 274.386,235.412 274.386,234.579 270.5,234C 271.167,233.667 271.833,233.333 272.5,233C 271.313,231.981 270.313,230.814 269.5,229.5C 271.045,226.803 270.379,224.803 267.5,223.5C 267.977,222.522 268.643,221.689 269.5,221C 265.245,216.838 263.079,211.671 263,205.5C 262.031,203.266 260.698,201.266 259,199.5C 258.788,197.22 257.955,195.22 256.5,193.5C 256.709,192.914 257.043,192.414 257.5,192C 255.006,190.054 254.339,187.721 255.5,185C 254.833,183.333 254.167,181.667 253.5,180C 254.167,179.333 254.833,178.667 255.5,178C 254.446,176.612 254.28,175.112 255,173.5C 255.333,174.5 255.667,175.5 256,176.5C 257.074,175.382 258.24,174.382 259.5,173.5C 258.494,172.604 258.494,171.938 259.5,171.5C 261.146,172.779 262.313,174.445 263,176.5C 263.333,176.167 263.667,175.833 264,175.5C 271.229,195.186 278.229,214.519 285,233.5C 285.465,234.931 286.299,236.097 287.5,237C 286.788,238.425 286.621,239.925 287,241.5C 286.667,241.167 286.333,240.833 286,240.5C 285.667,241.5 285.333,242.5 285,243.5C 283.927,242.72 282.76,242.887 281.5,244C 282.183,246.983 280.849,248.983 277.5,250C 278.956,250.423 279.456,251.256 279,252.5C 278.107,251.289 277.274,251.289 276.5,252.5C 273.42,256.975 270.087,261.308 266.5,265.5C 265.914,265.291 265.414,264.957 265,264.5C 263.057,268.608 260.224,271.942 256.5,274.5C 257.653,275.687 257.653,276.687 256.5,277.5 Z"/></g>
<g><path style="opacity:0.031" fill="#000000" d="M 446.5,175.5 C 448.337,175.639 448.67,176.306 447.5,177.5C 446.702,177.043 446.369,176.376 446.5,175.5 Z"/></g>
<g><path style="opacity:0.071" fill="#000000" d="M 160.5,181.5 C 161.833,182.167 161.833,182.167 160.5,181.5 Z"/></g>
<g><path style="opacity:0.353" fill="#000000" d="M 65.5,184.5 C 66.8333,185.167 66.8333,185.167 65.5,184.5 Z"/></g>
<g><path style="opacity:0.086" fill="#000000" d="M 125.5,187.5 C 124.833,186.167 124.833,186.167 125.5,187.5 Z"/></g>
<g><path style="opacity:0.004" fill="#000000" d="M 467.5,187.5 C 466.833,188.167 466.833,188.167 467.5,187.5 Z"/></g>
<g><path style="opacity:0.263" fill="#000000" d="M 121.5,191.5 C 120.761,191.631 120.094,191.464 119.5,191C 120.437,190.308 121.103,190.475 121.5,191.5 Z"/></g>
<g><path style="opacity:0.072" fill="#000000" d="M 449.5,193.5 C 449.361,195.337 448.694,195.67 447.5,194.5C 447.957,193.702 448.624,193.369 449.5,193.5 Z"/></g>
<g><path style="opacity:0.149" fill="#000000" d="M 51.5,198.5 C 52.8333,199.167 52.8333,199.167 51.5,198.5 Z"/></g>
<g><path style="opacity:0.004" fill="#000000" d="M 796.5,205.5 C 797.833,206.167 797.833,206.167 796.5,205.5 Z"/></g>
<g><path style="opacity:0.176" fill="#000000" d="M 111.5,209.5 C 111.103,210.525 110.437,210.692 109.5,210C 110.094,209.536 110.761,209.369 111.5,209.5 Z"/></g>
<g><path style="opacity:0.008" fill="#000000" d="M 169.5,219.5 C 170.833,220.167 170.833,220.167 169.5,219.5 Z"/></g>
<g><path style="opacity:0.129" fill="#000000" d="M 170.5,221.5 C 171.833,222.167 171.833,222.167 170.5,221.5 Z"/></g>
<g><path style="opacity:0.804" fill="#000000" d="M 94.5,228.5 C 101.428,228.094 108.261,228.094 115,228.5C 116.333,229.167 117.333,230.167 118,231.5C 118.689,230.643 119.522,229.977 120.5,229.5C 122.737,229.694 124.903,229.694 127,229.5C 127.308,230.308 127.808,230.975 128.5,231.5C 129.72,230.289 130.887,230.289 132,231.5C 132.915,230.672 133.581,229.672 134,228.5C 135.507,230.008 137.173,231.341 139,232.5C 139.999,228.763 141.332,228.763 143,232.5C 143.308,231.692 143.808,231.025 144.5,230.5C 145.77,231.562 146.937,232.562 148,233.5C 154.006,232.168 159.672,232.168 165,233.5C 166.205,234.071 167.372,234.738 168.5,235.5C 168.64,236.903 168.64,238.403 168.5,240C 173.206,239.774 174.039,240.941 171,243.5C 170.667,244.833 170.333,246.167 170,247.5C 169.667,247.167 169.333,246.833 169,246.5C 164.81,249.936 160.31,250.269 155.5,247.5C 153.602,248.734 151.935,248.401 150.5,246.5C 148.518,247.623 146.518,247.623 144.5,246.5C 144.167,245.167 143.833,245.167 143.5,246.5C 142.348,245.375 141.348,245.375 140.5,246.5C 138.983,246.489 137.816,245.823 137,244.5C 133.45,244.572 129.95,244.905 126.5,245.5C 122.966,244.869 119.466,244.202 116,243.5C 113.58,244.488 111.247,244.155 109,242.5C 102.6,242.695 96.433,243.029 90.5,243.5C 89.4826,240.972 88.3159,240.972 87,243.5C 82.2966,243.199 77.63,241.866 73,239.5C 70.1831,239.923 67.3498,240.256 64.5,240.5C 60.3825,240.183 56.5492,239.183 53,237.5C 51.5124,239.82 49.6791,239.987 47.5,238C 48.3402,236.334 47.8402,236.167 46,237.5C 45.1667,236 44,234.833 42.5,234C 44.9913,233.374 44.9913,232.541 42.5,231.5C 43.5312,230.3 44.3645,228.966 45,227.5C 47.3909,228.602 47.8909,227.936 46.5,225.5C 47.2739,224.289 48.1072,224.289 49,225.5C 49.9336,222.035 51.4336,221.702 53.5,224.5C 59.1696,225.001 64.6696,225.001 70,224.5C 72.0105,228.002 73.3439,228.002 74,224.5C 77.4621,224.983 77.9621,226.15 75.5,228C 76.9961,228.507 78.1627,228.007 79,226.5C 80.851,228.781 82.5177,228.781 84,226.5C 84.9147,227.328 85.5814,228.328 86,229.5C 87.3799,226.942 88.8799,226.942 90.5,229.5C 91.9049,229.24 93.2382,228.907 94.5,228.5 Z"/></g>
<g><path style="opacity:0.333" fill="#000000" d="M 94.5,228.5 C 93.8333,227.167 93.8333,227.167 94.5,228.5 Z"/></g>
<g><path style="opacity:0.051" fill="#000000" d="M 211.5,234.5 C 210.833,235.167 210.833,235.167 211.5,234.5 Z"/></g>
<g><path style="opacity:0.047" fill="#000000" d="M 169.5,235.5 C 170.833,236.167 170.833,236.167 169.5,235.5 Z"/></g>
<g><path style="opacity:0.818" fill="#000000" d="M 42.5,237.5 C 44.4119,238.98 45.5785,240.98 46,243.5C 46.3173,241.699 46.984,241.366 48,242.5C 48.9285,246.244 48.4285,249.744 46.5,253C 48.2826,254.067 48.7826,255.567 48,257.5C 43.946,267.884 38.6127,277.55 32,286.5C 31.3162,287.784 31.4829,288.951 32.5,290C 31.1198,291.324 30.7865,292.657 31.5,294C 29.992,295.507 28.6587,297.173 27.5,299C 27.8333,299.333 28.1667,299.667 28.5,300C 26.2089,301.857 23.8756,303.023 21.5,303.5C 19.6698,303.224 18.0032,302.557 16.5,301.5C 17.8333,300.167 17.8333,298.833 16.5,297.5C 16.9815,291.869 18.6482,286.369 21.5,281C 21.1667,280.667 20.8333,280.333 20.5,280C 21.9675,278.902 22.8008,277.402 23,275.5C 23.9025,274.299 25.0692,273.465 26.5,273C 25.5494,272.282 25.3828,271.449 26,270.5C 31.3239,264.961 34.3239,258.295 35,250.5C 35.7504,249.874 36.5838,249.374 37.5,249C 37.0958,246.731 36.9291,244.231 37,241.5C 39.4632,240.968 41.2965,239.634 42.5,237.5 Z"/></g>
<g><path style="opacity:0.22" fill="#000000" d="M 204.5,241.5 C 204.833,241.5 205.167,241.5 205.5,241.5C 205.315,242.17 204.981,242.17 204.5,241.5 Z"/></g>
<g><path style="opacity:0.31" fill="#000000" d="M 140.5,246.5 C 141.833,247.167 141.833,247.167 140.5,246.5 Z"/></g>
<g><path style="opacity:0.176" fill="#000000" d="M 143.5,246.5 C 143.833,246.5 144.167,246.5 144.5,246.5C 144.315,247.17 143.981,247.17 143.5,246.5 Z"/></g>
<g><path style="opacity:0.378" fill="#000000" d="M 207.5,256.5 C 206.475,256.103 206.308,255.437 207,254.5C 207.464,255.094 207.631,255.761 207.5,256.5 Z"/></g>
<g><path style="opacity:0.145" fill="#000000" d="M 207.5,257.5 C 207.5,257.167 207.5,256.833 207.5,256.5C 208.363,255.537 209.03,255.537 209.5,256.5C 209.043,257.298 208.376,257.631 207.5,257.5 Z"/></g>
<g><path style="opacity:0.824" fill="#000000" d="M 207.5,257.5 C 208.446,258.931 209.612,260.264 211,261.5C 211.273,263.101 211.773,264.601 212.5,266C 212.043,266.414 211.709,266.914 211.5,267.5C 213.87,269.688 214.537,272.188 213.5,275C 214.502,276.672 215.668,277.838 217,278.5C 217.658,280.108 217.158,281.275 215.5,282C 217,282.833 218.167,284 219,285.5C 219.236,288.208 220.069,290.708 221.5,293C 221.265,293.873 220.931,294.707 220.5,295.5C 222.076,297.577 224.076,299.077 226.5,300C 224.861,303.098 223.527,306.264 222.5,309.5C 221.209,309.263 220.209,309.596 219.5,310.5C 218.167,310.833 218.167,311.167 219.5,311.5C 219.483,313.028 218.816,313.528 217.5,313C 210.344,307.187 206.51,299.687 206,290.5C 204.006,285.488 201.839,280.654 199.5,276C 199.5,273.667 199.5,271.333 199.5,269C 197.38,267.477 197.047,265.644 198.5,263.5C 196.603,262.332 196.436,260.665 198,258.5C 198.333,259.167 198.667,259.833 199,260.5C 200.067,259.809 201.234,259.309 202.5,259C 203.833,258.333 203.833,257.667 202.5,257C 204.197,256.616 205.863,256.782 207.5,257.5 Z"/></g>
<g><path style="opacity:0.631" fill="#000000" d="M 200.5,257.5 C 201.833,258.167 201.833,258.167 200.5,257.5 Z"/></g>
<g><path style="opacity:0.267" fill="#000000" d="M 256.5,277.5 C 256.5,278.833 255.833,279.5 254.5,279.5C 254.833,278.5 255.5,277.833 256.5,277.5 Z"/></g>
<g><path style="opacity:0.4" fill="#000000" d="M 227.5,288.5 C 228.833,289.167 228.833,289.167 227.5,288.5 Z"/></g>
<g><path style="opacity:0.814" fill="#000000" d="M 115.5,303.5 C 118.113,304.636 120.613,304.302 123,302.5C 123.853,304.125 124.853,304.458 126,303.5C 127.11,305.037 128.61,305.703 130.5,305.5C 130.351,304.448 130.517,303.448 131,302.5C 133.058,303.109 133.891,304.109 133.5,305.5C 134.518,304.807 135.518,304.141 136.5,303.5C 136.783,304.289 137.283,304.956 138,305.5C 140.333,305.5 142.667,305.5 145,305.5C 145.804,304.196 146.971,303.529 148.5,303.5C 154.937,304.624 161.437,304.624 168,303.5C 169.943,305.715 171.609,305.715 173,303.5C 174.729,305.434 176.729,305.434 179,303.5C 180.085,304.293 181.252,304.96 182.5,305.5C 184.804,305.691 187.138,305.357 189.5,304.5C 189.351,305.552 189.517,306.552 190,307.5C 191.5,304.108 193.333,303.441 195.5,305.5C 194.68,309.158 196.013,311.491 199.5,312.5C 195.673,319.489 190.173,321.489 183,318.5C 181.846,320.957 180.512,320.957 179,318.5C 178.667,319.167 178.333,319.833 178,320.5C 175.667,319.167 173.333,319.167 171,320.5C 170.333,319.833 169.667,319.167 169,318.5C 159.153,318.344 149.153,318.678 139,319.5C 137.667,318.833 136.333,318.167 135,317.5C 122.055,318.828 109.889,319.495 98.5,319.5C 98.7036,318.471 98.2036,317.471 97,316.5C 96.0197,317.981 94.853,319.315 93.5,320.5C 89.5879,320.366 85.7546,320.032 82,319.5C 81.3333,320.167 80.6667,320.833 80,321.5C 79,320.167 78,320.167 77,321.5C 75.54,319.578 73.8733,318.911 72,319.5C 70.9148,320.293 69.7481,320.96 68.5,321.5C 66.2753,320.899 64.1086,320.566 62,320.5C 58.9932,322.491 55.8265,322.491 52.5,320.5C 49.985,321.577 47.485,322.577 45,323.5C 44,322.833 43,322.167 42,321.5C 40.077,322.316 38.077,322.983 36,323.5C 25.9637,322.939 15.7971,322.939 5.5,323.5C 4.90405,322.284 4.73739,320.951 5,319.5C 2.60908,320.602 2.10908,319.936 3.5,317.5C 2.5,316.667 1.5,315.833 0.5,315C 2.72897,313.515 5.0623,312.182 7.5,311C 6.16667,310.333 6.16667,309.667 7.5,309C 9.13414,308.506 10.8008,308.34 12.5,308.5C 12.4592,312.243 13.1259,312.41 14.5,309C 16.6982,308.627 18.8649,308.127 21,307.5C 21.9454,307.905 22.6121,308.572 23,309.5C 23.6891,308.643 24.5224,307.977 25.5,307.5C 26.5984,308.615 27.7651,308.615 29,307.5C 31.075,309.623 33.075,309.29 35,306.5C 35.8333,307.5 36.6667,308.5 37.5,309.5C 37.4895,308.559 37.9895,307.892 39,307.5C 43.0358,308.299 46.8692,307.633 50.5,305.5C 53.7427,306.015 56.5761,307.348 59,309.5C 60,308.5 61,307.5 62,306.5C 62.3333,307.167 62.6667,307.833 63,308.5C 63.5954,304.918 64.9288,304.584 67,307.5C 68.2419,306.128 69.7419,305.128 71.5,304.5C 74.6492,307.106 77.8158,307.106 81,304.5C 82.2613,304.759 83.2613,305.426 84,306.5C 84.6667,303.833 85.3333,303.833 86,306.5C 86.9147,305.672 87.5814,304.672 88,303.5C 90.1969,305.731 92.5302,305.731 95,303.5C 96.3333,304.167 97.3333,305.167 98,306.5C 100.04,302.554 102.04,302.554 104,306.5C 104.417,305.244 105.25,304.577 106.5,304.5C 106.369,305.239 106.536,305.906 107,306.5C 108.706,305.692 109.539,304.359 109.5,302.5C 111.484,302.383 113.15,303.05 114.5,304.5C 115.107,304.376 115.44,304.043 115.5,303.5 Z"/></g>
<g><path style="opacity:0.4" fill="#000000" d="M 115.5,303.5 C 114.833,302.167 114.833,302.167 115.5,303.5 Z"/></g>
<g><path style="opacity:0.051" fill="#000000" d="M 136.5,302.5 C 137.833,303.167 137.833,303.167 136.5,302.5 Z"/></g>
<g><path style="opacity:0.212" fill="#000000" d="M 106.5,303.5 C 107.833,304.167 107.833,304.167 106.5,303.5 Z"/></g>
<g><path style="opacity:0.263" fill="#000000" d="M 128.5,303.5 C 129.833,304.167 129.833,304.167 128.5,303.5 Z"/></g>
<g><path style="opacity:0.233" fill="#000000" d="M 195.5,305.5 C 195.897,304.475 196.563,304.308 197.5,305C 196.906,305.464 196.239,305.631 195.5,305.5 Z"/></g>
<g><path style="opacity:0.206" fill="#000000" d="M 219.5,311.5 C 219.5,311.167 219.5,310.833 219.5,310.5C 222.167,310.833 222.167,311.167 219.5,311.5 Z"/></g>
<g><path style="opacity:0.082" fill="#000000" d="M -0.5,316.5 C 0.833333,317.167 0.833333,317.167 -0.5,316.5 Z"/></g>
</svg>
