<?xml version="1.0" encoding="UTF-8"?>
<!DOCTYPE svg PUBLIC "-//W3C//DTD SVG 1.1//EN" "http://www.w3.org/Graphics/SVG/1.1/DTD/svg11.dtd">
<svg xmlns="http://www.w3.org/2000/svg" version="1.1" width="1268px" height="1192px" style="shape-rendering:geometricPrecision; text-rendering:geometricPrecision; image-rendering:optimizeQuality; fill-rule:evenodd; clip-rule:evenodd" xmlns:xlink="http://www.w3.org/1999/xlink">
<g><path style="opacity:0.877" fill="#de3f3e" d="M 705.5,533.5 C 707.189,534.304 708.855,535.304 710.5,536.5C 711.086,536.291 711.586,535.957 712,535.5C 716.704,538.692 721.038,542.358 725,546.5C 725.414,546.043 725.914,545.709 726.5,545.5C 729.6,547.591 732.767,549.591 736,551.5C 736.333,551.167 736.667,550.833 737,550.5C 737.667,551.833 738.333,553.167 739,554.5C 740,554.5 741,554.5 742,554.5C 742.684,555.784 742.517,556.951 741.5,558C 742.784,558.684 743.951,558.517 745,557.5C 748.402,560.727 752.235,563.394 756.5,565.5C 757.216,567.482 758.383,569.149 760,570.5C 760.667,569.833 761.333,569.167 762,568.5C 763.242,570.541 765.075,571.707 767.5,572C 766.167,573.84 766.334,574.34 768,573.5C 770.369,574.86 772.536,576.526 774.5,578.5C 773.339,580.224 773.505,581.89 775,583.5C 776.544,580.736 777.711,580.903 778.5,584C 778.381,585.145 778.048,586.312 777.5,587.5C 776.624,587.369 775.957,587.702 775.5,588.5C 776.381,589.971 777.714,590.804 779.5,591C 777.657,594.323 775.657,597.989 773.5,602C 773.905,602.945 774.572,603.612 775.5,604C 773.616,604.216 771.949,604.883 770.5,606C 770.833,606.333 771.167,606.667 771.5,607C 769.176,610.099 767.676,613.599 767,617.5C 764.523,622.37 761.023,626.87 756.5,631C 756.833,631.333 757.167,631.667 757.5,632C 756.687,633.314 755.687,634.481 754.5,635.5C 754.709,636.086 755.043,636.586 755.5,637C 754.049,636.737 752.716,636.904 751.5,637.5C 752.311,638.216 752.978,639.05 753.5,640C 751.424,641.244 750.424,643.077 750.5,645.5C 749.448,645.351 748.448,645.517 747.5,646C 747.833,646.333 748.167,646.667 748.5,647C 744.95,652.369 741.616,657.869 738.5,663.5C 737.25,663.577 736.417,664.244 736,665.5C 734.893,664.288 734.393,664.621 734.5,666.5C 733.883,666.611 733.383,666.944 733,667.5C 731.796,666.529 731.296,665.529 731.5,664.5C 730.167,665.833 728.833,667.167 727.5,668.5C 726.808,667.975 726.308,667.308 726,666.5C 724.951,667.517 723.784,667.684 722.5,667C 720.349,665.226 718.016,663.726 715.5,662.5C 715.877,660.521 717.211,658.688 719.5,657C 716.843,654.723 714.176,652.39 711.5,650C 713.761,649.761 715.761,649.594 717.5,649.5C 716.737,648.281 715.737,647.281 714.5,646.5C 715.731,643.41 716.731,640.243 717.5,637C 717.241,635.739 716.574,634.739 715.5,634C 716.449,633.383 717.282,633.549 718,634.5C 718.317,632.699 718.984,632.366 720,633.5C 720.93,631.448 722.43,629.948 724.5,629C 723.552,628.517 722.552,628.351 721.5,628.5C 721.656,624.865 722.822,624.532 725,627.5C 725.113,623.451 726.28,619.785 728.5,616.5C 730.156,614.978 731.323,615.311 732,617.5C 733.074,616.382 734.24,615.382 735.5,614.5C 732.089,612.275 732.089,610.609 735.5,609.5C 734.263,608.719 733.263,607.719 732.5,606.5C 734.624,605.851 736.624,605.017 738.5,604C 737.483,602.951 737.316,601.784 738,600.5C 739.941,604.554 740.775,604.22 740.5,599.5C 741.5,599.5 742.5,599.5 743.5,599.5C 743.528,597.418 742.861,595.584 741.5,594C 742.357,593.311 743.023,592.478 743.5,591.5C 742.242,588.576 740.576,585.91 738.5,583.5C 737.094,584.668 735.928,584.335 735,582.5C 735,581.167 735,579.833 735,578.5C 733.984,579.634 733.317,579.301 733,577.5C 732.333,578.167 731.667,578.833 731,579.5C 729.302,577.734 727.969,575.734 727,573.5C 725.908,576.986 724.075,577.319 721.5,574.5C 722.304,576.018 722.304,577.852 721.5,580C 723.426,580.422 724.426,581.589 724.5,583.5C 723.448,583.351 722.448,583.517 721.5,584C 722.212,585.425 722.379,586.925 722,588.5C 724.69,588.767 727.19,590.101 729.5,592.5C 727.405,593.081 725.572,593.081 724,592.5C 723.689,593.742 724.189,594.742 725.5,595.5C 722.801,597.898 721.467,600.898 721.5,604.5C 719.843,606.144 717.509,607.144 714.5,607.5C 713.522,607.023 712.689,606.357 712,605.5C 707.607,605.576 702.773,606.243 697.5,607.5C 696.583,606.873 695.583,606.539 694.5,606.5C 694.167,605.167 693.833,605.167 693.5,606.5C 692.417,606.461 691.417,606.127 690.5,605.5C 689.312,606.84 687.812,607.507 686,607.5C 682.337,606.829 678.837,606.829 675.5,607.5C 674.808,606.975 674.308,606.308 674,605.5C 670.978,607.005 667.978,607.672 665,607.5C 664.085,606.672 663.419,605.672 663,604.5C 661.667,605.833 660.333,607.167 659,608.5C 658.751,607.376 658.251,606.376 657.5,605.5C 654.397,605.923 651.564,606.923 649,608.5C 647.748,606.999 646.748,605.332 646,603.5C 644.582,606.001 643.582,605.668 643,602.5C 642.51,603.793 642.343,605.127 642.5,606.5C 640.323,606.414 638.323,605.747 636.5,604.5C 635.059,605.304 633.559,605.971 632,606.5C 629.695,605.371 627.362,605.371 625,606.5C 623.289,606.561 621.956,605.894 621,604.5C 620.374,606.991 619.541,606.991 618.5,604.5C 617.707,604.931 616.873,605.265 616,605.5C 615.645,604.491 614.812,603.824 613.5,603.5C 611.183,602.466 610.183,603.466 610.5,606.5C 608.459,606.146 606.626,606.146 605,606.5C 601.649,602.509 598.315,602.509 595,606.5C 593.559,605.13 591.892,604.13 590,603.5C 586.769,606.326 583.436,606.659 580,604.5C 576.381,604.858 572.881,604.858 569.5,604.5C 567.389,607.044 565.222,607.044 563,604.5C 557.874,604.891 552.54,605.557 547,606.5C 544.551,606.139 542.218,605.472 540,604.5C 538.488,605.257 537.154,606.257 536,607.5C 534.647,606.315 533.48,604.981 532.5,603.5C 531.833,604.167 531.167,604.833 530.5,605.5C 527.432,605.367 524.432,605.367 521.5,605.5C 520.522,605.023 519.689,604.357 519,603.5C 518.25,604.126 517.416,604.626 516.5,605C 513.668,605.212 511.002,605.379 508.5,605.5C 506.547,604.976 504.88,603.976 503.5,602.5C 502.41,603.391 502.41,604.391 503.5,605.5C 503,605.833 502.5,606.167 502,606.5C 500.765,605.385 499.598,605.385 498.5,606.5C 497.5,605.833 496.5,605.167 495.5,604.5C 491.347,605.68 487.18,605.68 483,604.5C 479.719,607.589 477.386,606.923 476,602.5C 475.51,601.207 475.343,599.873 475.5,598.5C 474.178,598.33 473.011,598.663 472,599.5C 470.933,598.809 469.766,598.309 468.5,598C 467.911,596.127 468.578,594.46 470.5,593C 468.555,593.128 466.722,592.962 465,592.5C 464.833,591.833 464.667,591.167 464.5,590.5C 466.638,588.491 467.971,586.491 468.5,584.5C 470.781,583.392 472.948,582.058 475,580.5C 476.049,581.517 477.216,581.684 478.5,581C 477.158,578.985 476.658,576.818 477,574.5C 478,575.833 479,577.167 480,578.5C 481,577.167 482,575.833 483,574.5C 483.923,575.759 484.757,577.092 485.5,578.5C 486.645,577.224 486.645,575.891 485.5,574.5C 486,574.167 486.5,573.833 487,573.5C 489.384,574.719 491.717,574.719 494,573.5C 494.333,574.167 494.667,574.833 495,575.5C 496.356,574.62 497.856,574.286 499.5,574.5C 499.343,573.127 499.51,571.793 500,570.5C 503.275,571.886 506.109,573.886 508.5,576.5C 509.506,576.062 509.506,575.396 508.5,574.5C 510.566,571.702 512.066,572.035 513,575.5C 513.388,574.572 514.055,573.905 515,573.5C 516.533,574.695 518.033,574.695 519.5,573.5C 520.862,575.012 521.196,576.512 520.5,578C 524.3,578.562 524.967,577.562 522.5,575C 523.5,574.5 524.5,574 525.5,573.5C 526.141,574.993 527.141,575.993 528.5,576.5C 529.016,574.8 530.016,573.467 531.5,572.5C 533.479,572.877 535.312,574.211 537,576.5C 538.584,575.139 540.418,574.472 542.5,574.5C 542.281,575.675 542.614,576.675 543.5,577.5C 544.429,574.999 545.929,574.333 548,575.5C 548.95,574.978 549.784,574.311 550.5,573.5C 552.042,574.747 553.542,574.747 555,573.5C 555.925,574.047 556.758,574.713 557.5,575.5C 556.41,576.609 556.41,577.609 557.5,578.5C 558.362,577.234 559.029,575.901 559.5,574.5C 560.735,574.279 561.735,573.612 562.5,572.5C 563.842,573.902 564.676,573.569 565,571.5C 566,572.833 567,574.167 568,575.5C 568.779,574.272 569.779,573.272 571,572.5C 572.947,573.686 574.78,575.02 576.5,576.5C 578.134,576.032 579.3,575.032 580,573.5C 581.938,574.86 583.604,574.527 585,572.5C 585.711,574.367 585.211,575.867 583.5,577C 585.045,578.369 586.711,578.202 588.5,576.5C 587.975,575.808 587.308,575.308 586.5,575C 587.931,574.535 589.097,573.701 590,572.5C 591.356,573.38 592.856,573.714 594.5,573.5C 595.952,574.713 597.286,574.38 598.5,572.5C 600.179,573.782 602.013,574.782 604,575.5C 604.667,574.833 605.333,574.167 606,573.5C 607.756,574.548 609.59,574.548 611.5,573.5C 613.872,574.103 616.039,575.103 618,576.5C 619.221,575.728 620.221,574.728 621,573.5C 620.737,574.951 620.904,576.284 621.5,577.5C 622.808,575.359 624.308,573.359 626,571.5C 626.29,573.044 626.956,574.377 628,575.5C 631.623,574.428 635.29,573.428 639,572.5C 639.464,573.094 639.631,573.761 639.5,574.5C 640.609,574.557 641.609,574.89 642.5,575.5C 642.369,576.239 642.536,576.906 643,577.5C 644.252,575.999 645.252,574.332 646,572.5C 646.684,576.093 648.184,576.427 650.5,573.5C 652.122,575.439 653.956,575.772 656,574.5C 656.667,575.167 657.333,575.833 658,576.5C 659.356,575.62 660.856,575.286 662.5,575.5C 662.176,578.68 663.51,579.847 666.5,579C 664.579,577.759 664.246,576.259 665.5,574.5C 666.719,575.263 667.719,576.263 668.5,577.5C 671.265,572.51 674.598,572.177 678.5,576.5C 680.163,575.125 681.497,575.458 682.5,577.5C 684.167,576.167 685.833,574.833 687.5,573.5C 687.833,574.833 688.167,576.167 688.5,577.5C 691.472,576.164 691.805,574.664 689.5,573C 690.908,572.685 692.241,573.018 693.5,574C 692.304,574.654 692.304,575.154 693.5,575.5C 695.167,574.833 696.833,574.167 698.5,573.5C 702.041,576.116 705.541,576.116 709,573.5C 710.905,574.158 712.405,575.325 713.5,577C 711.258,579.469 711.925,580.802 715.5,581C 714.465,579.493 714.632,577.993 716,576.5C 716.414,576.957 716.914,577.291 717.5,577.5C 718.752,575.999 719.752,574.332 720.5,572.5C 717.457,570.824 715.123,568.491 713.5,565.5C 709.71,564.997 706.043,563.831 702.5,562C 699.949,560.2 697.615,558.2 695.5,556C 695.833,555.667 696.167,555.333 696.5,555C 693.965,554.383 691.632,554.883 689.5,556.5C 688.904,555.284 688.737,553.951 689,552.5C 687.989,553.337 686.822,553.67 685.5,553.5C 685.104,550.956 685.771,548.789 687.5,547C 685.833,547.333 684.167,547.667 682.5,548C 680.965,545.861 679.299,543.861 677.5,542C 678.793,541.51 680.127,541.343 681.5,541.5C 680.963,538.964 679.63,536.964 677.5,535.5C 677.488,533.588 677.821,531.588 678.5,529.5C 681.042,529.294 682.709,527.961 683.5,525.5C 682.189,524.742 681.689,523.742 682,522.5C 683.067,523.191 684.234,523.691 685.5,524C 684.273,525.587 684.606,526.921 686.5,528C 688.896,528.866 689.563,528.366 688.5,526.5C 691.728,525.841 694.561,526.841 697,529.5C 697.333,529.167 697.667,528.833 698,528.5C 698.508,530.904 699.675,531.571 701.5,530.5C 702.711,531.274 702.711,532.107 701.5,533C 702.878,534.334 704.211,534.501 705.5,533.5 Z M 639.5,574.5 C 639.157,576.225 638.157,576.725 636.5,576C 637.527,575.487 638.527,574.987 639.5,574.5 Z M 624.5,577.5 C 624.511,574.999 625.178,574.832 626.5,577C 625.906,577.464 625.239,577.631 624.5,577.5 Z M 528.5,576.5 C 531.001,576.511 531.168,577.178 529,578.5C 528.536,577.906 528.369,577.239 528.5,576.5 Z M 572.5,577.5 C 573.077,576.227 573.743,576.227 574.5,577.5C 574.03,578.463 573.363,578.463 572.5,577.5 Z M 544.5,578.5 C 547.001,578.511 547.168,579.178 545,580.5C 544.536,579.906 544.369,579.239 544.5,578.5 Z M 651.5,579.5 C 651.56,578.957 651.893,578.624 652.5,578.5C 653.583,579.365 653.749,580.365 653,581.5C 652.722,580.584 652.222,579.918 651.5,579.5 Z M 703.5,579.5 C 706.797,579.329 707.131,579.995 704.5,581.5C 703.702,581.043 703.369,580.376 703.5,579.5 Z M 772.5,584.5 C 774.983,584.73 775.483,585.397 774,586.5C 772.97,586.164 772.47,585.497 772.5,584.5 Z M 512.5,600.5 C 513.077,599.227 513.743,599.227 514.5,600.5C 514.03,601.463 513.363,601.463 512.5,600.5 Z M 683.5,601.5 C 685.085,602.002 685.585,603.002 685,604.5C 683.961,603.756 683.461,602.756 683.5,601.5 Z M 711.5,601.5 C 711.5,602.167 711.5,602.833 711.5,603.5C 708.833,602.833 708.833,602.167 711.5,601.5 Z M 715.5,601.5 C 716.573,602.251 716.74,603.251 716,604.5C 714.272,603.648 714.105,602.648 715.5,601.5 Z M 731.5,618.5 C 735.06,619.311 735.226,620.311 732,621.5C 730.317,620.824 730.15,619.824 731.5,618.5 Z M 728.5,621.5 C 729.573,622.251 729.74,623.251 729,624.5C 727.272,623.648 727.105,622.648 728.5,621.5 Z M 750.5,632.5 C 752.646,632.696 752.812,633.696 751,635.5C 749.272,634.648 749.105,633.648 750.5,632.5 Z M 721.5,635.5 C 722.289,635.783 722.956,636.283 723.5,637C 722.184,637.528 721.517,637.028 721.5,635.5 Z M 738.5,652.5 C 741.001,652.511 741.168,653.178 739,654.5C 738.536,653.906 738.369,653.239 738.5,652.5 Z"/></g>
<g><path style="opacity:0.297" fill="#de3f3e" d="M 678.5,525.5 C 677.227,524.923 677.227,524.257 678.5,523.5C 679.463,523.97 679.463,524.637 678.5,525.5 Z"/></g>
<g><path style="opacity:0.447" fill="#de3f3e" d="M 678.5,525.5 C 679.376,525.369 680.043,525.702 680.5,526.5C 679.388,527.265 678.721,528.265 678.5,529.5C 676.571,529.769 674.905,529.269 673.5,528C 675.653,527.901 677.319,527.067 678.5,525.5 Z"/></g>
<g><path style="opacity:0.171" fill="#de3f3e" d="M 705.5,533.5 C 705.369,532.761 705.536,532.094 706,531.5C 706.692,532.437 706.525,533.103 705.5,533.5 Z"/></g>
<g><path style="opacity:0.067" fill="#de3f3e" d="M 712.5,534.5 C 712.897,533.475 713.563,533.308 714.5,534C 713.906,534.464 713.239,534.631 712.5,534.5 Z"/></g>
<g><path style="opacity:0.286" fill="#de3f3e" d="M 674.5,535.5 C 675.833,536.167 675.833,536.167 674.5,535.5 Z"/></g>
<g><path style="opacity:0.454" fill="#de3f3e" d="M 677.5,535.5 C 677.649,536.552 677.483,537.552 677,538.5C 676.26,537.251 676.427,536.251 677.5,535.5 Z"/></g>
<g><path style="opacity:0.216" fill="#de3f3e" d="M 719.5,537.5 C 718.833,536.167 718.833,536.167 719.5,537.5 Z"/></g>
<g><path style="opacity:0.224" fill="#de3f3e" d="M 718.5,537.5 C 717.833,538.167 717.833,538.167 718.5,537.5 Z"/></g>
<g><path style="opacity:0.184" fill="#de3f3e" d="M 719.5,537.5 C 720.833,538.167 720.833,538.167 719.5,537.5 Z"/></g>
<g><path style="opacity:0.859" fill="#de3f3e" d="M 581.5,571.5 C 582.833,572.167 582.833,572.167 581.5,571.5 Z"/></g>
<g><path style="opacity:0.131" fill="#de3f3e" d="M 618.5,573.5 C 618.517,571.972 619.184,571.472 620.5,572C 619.956,572.717 619.289,573.217 618.5,573.5 Z"/></g>
<g><path style="opacity:0.02" fill="#de3f3e" d="M 632.5,571.5 C 633.833,572.167 633.833,572.167 632.5,571.5 Z"/></g>
<g><path style="opacity:0.525" fill="#de3f3e" d="M 594.5,572.5 C 595.833,573.167 595.833,573.167 594.5,572.5 Z"/></g>
<g><path style="opacity:0.251" fill="#de3f3e" d="M 559.5,574.5 C 558.833,573.167 558.833,573.167 559.5,574.5 Z"/></g>
<g><path style="opacity:0.125" fill="#de3f3e" d="M 618.5,573.5 C 617.833,574.167 617.833,574.167 618.5,573.5 Z"/></g>
<g><path style="opacity:0.588" fill="#de3f3e" d="M 642.5,575.5 C 642.369,574.761 642.536,574.094 643,573.5C 643.692,574.437 643.525,575.103 642.5,575.5 Z"/></g>
<g><path style="opacity:0.357" fill="#de3f3e" d="M 771.5,573.5 C 772.833,574.167 772.833,574.167 771.5,573.5 Z"/></g>
<g><path style="opacity:0.118" fill="#de3f3e" d="M 775.5,579.5 C 776.833,580.167 776.833,580.167 775.5,579.5 Z"/></g>
<g><path style="opacity:0.361" fill="#de3f3e" d="M 468.5,584.5 C 467.833,583.167 467.833,583.167 468.5,584.5 Z"/></g>
<g><path style="opacity:0.139" fill="#de3f3e" d="M 724.5,583.5 C 725.525,583.897 725.692,584.563 725,585.5C 724.536,584.906 724.369,584.239 724.5,583.5 Z"/></g>
<g><path style="opacity:0.605" fill="#de3f3e" d="M 734.5,584.5 C 736.76,585.238 736.927,586.238 735,587.5C 733.272,586.648 733.105,585.648 734.5,584.5 Z"/></g>
<g><path style="opacity:0.435" fill="#de3f3e" d="M 777.5,587.5 C 780.001,587.511 780.168,588.178 778,589.5C 777.536,588.906 777.369,588.239 777.5,587.5 Z"/></g>
<g><path style="opacity:0.286" fill="#de3f3e" d="M 740.5,591.5 C 741.833,592.167 741.833,592.167 740.5,591.5 Z"/></g>
<g><path style="opacity:0.157" fill="#de3f3e" d="M 730.5,593.5 C 731.833,594.167 731.833,594.167 730.5,593.5 Z"/></g>
<g><path style="opacity:0.267" fill="#de3f3e" d="M 733.5,593.5 C 734.833,594.167 734.833,594.167 733.5,593.5 Z"/></g>
<g><path style="opacity:0.306" fill="#de3f3e" d="M 466.5,595.5 C 467.833,596.167 467.833,596.167 466.5,595.5 Z"/></g>
<g><path style="opacity:0.139" fill="#de3f3e" d="M 726.5,596.5 C 727.525,596.897 727.692,597.563 727,598.5C 726.536,597.906 726.369,597.239 726.5,596.5 Z"/></g>
<g><path style="opacity:0.421" fill="#de3f3e" d="M 471.5,600.5 C 472.289,600.783 472.956,601.283 473.5,602C 472.184,602.528 471.517,602.028 471.5,600.5 Z"/></g>
<g><path style="opacity:0.157" fill="#de3f3e" d="M 466.5,601.5 C 467.833,602.167 467.833,602.167 466.5,601.5 Z"/></g>
<g><path style="opacity:0.78" fill="#de3f3e" d="M 613.5,603.5 C 613.631,604.239 613.464,604.906 613,605.5C 612.308,604.563 612.475,603.897 613.5,603.5 Z"/></g>
<g><path style="opacity:0.178" fill="#de3f3e" d="M 722.5,604.5 C 723.525,604.897 723.692,605.563 723,606.5C 722.536,605.906 722.369,605.239 722.5,604.5 Z"/></g>
<g><path style="opacity:0.055" fill="#de3f3e" d="M 693.5,606.5 C 693.833,606.5 694.167,606.5 694.5,606.5C 694.315,607.17 693.981,607.17 693.5,606.5 Z"/></g>
<g><path style="opacity:0.848" fill="#de3f3e" d="M 625.5,689.5 C 625.167,688.167 624.833,688.167 624.5,689.5C 621.427,690.694 618.427,691.694 615.5,692.5C 609.465,692.35 603.465,692.017 597.5,691.5C 597.94,694.714 599.606,697.047 602.5,698.5C 604.24,698.848 605.907,698.848 607.5,698.5C 609.159,696.413 610.826,696.746 612.5,699.5C 613.736,698.754 615.07,698.421 616.5,698.5C 617.281,700.322 618.448,700.989 620,700.5C 620.311,701.742 619.811,702.742 618.5,703.5C 618.957,704.298 619.624,704.631 620.5,704.5C 621.954,707.934 620.788,710.267 617,711.5C 615.914,709.153 614.581,709.153 613,711.5C 607.153,711.466 601.32,711.466 595.5,711.5C 594.497,709.458 593.163,709.125 591.5,710.5C 590.209,708.041 588.209,706.541 585.5,706C 585.493,704.417 585.826,702.751 586.5,701C 584.181,697.75 582.847,694.416 582.5,691C 583.5,690.667 584.5,690.333 585.5,690C 584.061,689.009 583.061,687.676 582.5,686C 586.581,682.891 588.414,678.725 588,673.5C 588.903,672.299 590.069,671.465 591.5,671C 590.216,670.316 589.049,670.483 588,671.5C 586.676,670.12 585.343,669.786 584,670.5C 583.311,669.643 582.478,668.977 581.5,668.5C 578.827,669.501 576.493,671.001 574.5,673C 576.394,674.079 576.727,675.413 575.5,677C 576.167,679.333 576.833,681.667 577.5,684C 576.833,684.667 576.167,685.333 575.5,686C 576.833,686.667 576.833,687.333 575.5,688C 577.797,689.16 577.464,690.16 574.5,691C 575.428,691.388 576.095,692.055 576.5,693C 575.305,694.533 575.305,696.033 576.5,697.5C 573.956,698.937 573.956,700.437 576.5,702C 575.642,703.57 574.975,705.237 574.5,707C 572.786,707.128 571.119,707.962 569.5,709.5C 568.483,706.972 567.316,706.972 566,709.5C 565.383,708.551 565.549,707.718 566.5,707C 565.552,706.517 564.552,706.351 563.5,706.5C 563.93,703.138 562.93,700.305 560.5,698C 563.47,693.082 563.803,688.415 561.5,684C 563.756,682.166 563.756,680.499 561.5,679C 562.167,677 562.833,675 563.5,673C 561.311,672.323 560.978,671.156 562.5,669.5C 560.604,668.534 558.604,668.201 556.5,668.5C 556.487,665.639 555.321,664.639 553,665.5C 550.982,663.867 549.982,661.867 550,659.5C 552.279,657.711 554.279,655.711 556,653.5C 557.587,654.727 558.921,654.394 560,652.5C 561.85,654.962 563.017,654.462 563.5,651C 562.194,647.198 562.194,643.365 563.5,639.5C 559.092,634.21 559.759,629.877 565.5,626.5C 567.444,627.189 569.444,627.689 571.5,628C 573.087,630.197 574.753,631.53 576.5,632C 573.94,634.159 573.94,636.326 576.5,638.5C 575.624,639.251 574.624,639.751 573.5,640C 575.616,641.171 576.282,642.671 575.5,644.5C 577.859,647.988 577.526,651.321 574.5,654.5C 574.667,655.167 574.833,655.833 575,656.5C 575.667,655.167 576.333,655.167 577,656.5C 577.333,655.5 577.667,654.5 578,653.5C 579.688,655.045 581.688,656.045 584,656.5C 585.402,654.027 586.902,654.027 588.5,656.5C 589.086,656.291 589.586,655.957 590,655.5C 591.154,656.743 592.488,657.743 594,658.5C 594.617,659.449 594.451,660.282 593.5,661C 594.925,662.362 595.758,663.862 596,665.5C 597.823,661.879 600.157,661.213 603,663.5C 605.157,661.869 607.657,661.369 610.5,662C 608.405,661.444 608.238,660.944 610,660.5C 610.95,661.022 611.784,661.689 612.5,662.5C 613.842,661.098 614.676,661.431 615,663.5C 618.061,662.775 620.894,662.775 623.5,663.5C 624.833,665.5 626.167,667.5 627.5,669.5C 627.291,670.086 626.957,670.586 626.5,671C 628.01,672.351 629.01,674.018 629.5,676C 628.614,679.236 628.614,682.236 629.5,685C 627.317,686.205 625.984,687.705 625.5,689.5 Z M 594.5,666.5 C 593.89,669.824 592.223,670.324 589.5,668C 591.154,667.392 592.821,666.892 594.5,666.5 Z M 606.5,679.5 C 604.801,679.66 603.134,679.494 601.5,679C 602.328,678.085 603.328,677.419 604.5,677C 603.833,676.667 603.167,676.333 602.5,676C 604.659,675.088 606.825,674.255 609,673.5C 610.11,675.037 611.61,675.703 613.5,675.5C 613.762,676.978 613.429,678.311 612.5,679.5C 611.389,678.389 610.055,677.722 608.5,677.5C 607.287,677.747 606.62,678.414 606.5,679.5 Z M 562.5,696.5 C 564.973,696.947 565.14,697.947 563,699.5C 562.517,698.552 562.351,697.552 562.5,696.5 Z"/></g>
<g><path style="opacity:0.063" fill="#de3f3e" d="M 471.5,636.5 C 472.833,637.167 472.833,637.167 471.5,636.5 Z"/></g>
<g><path style="opacity:0.835" fill="#de3f3e" d="M 785.5,696.5 C 784.494,701.349 784.494,706.182 785.5,711C 783.273,711.704 782.94,712.871 784.5,714.5C 782.135,717.592 779.469,719.592 776.5,720.5C 774.931,719.286 774.098,717.619 774,715.5C 773.282,716.451 772.449,716.617 771.5,716C 772.43,714.605 772.43,713.105 771.5,711.5C 773.531,709.443 773.531,707.61 771.5,706C 770.896,703.2 771.563,700.534 773.5,698C 773.209,690.986 772.875,684.32 772.5,678C 774.685,673.813 775.019,669.48 773.5,665C 774.167,664 774.833,663 775.5,662C 775.06,655.93 774.727,650.263 774.5,645C 775.561,642.768 776.561,640.602 777.5,638.5C 778.482,637.859 779.482,637.193 780.5,636.5C 781.72,637.711 782.887,637.711 784,636.5C 786.122,637.22 786.622,638.387 785.5,640C 786.624,640.839 787.291,642.006 787.5,643.5C 787.642,653.598 787.642,663.432 787.5,673C 786.879,676.186 786.212,679.352 785.5,682.5C 786.002,683.716 786.335,684.883 786.5,686C 784.652,687.861 784.652,690.028 786.5,692.5C 785.975,693.192 785.308,693.692 784.5,694C 785.252,694.671 785.586,695.504 785.5,696.5 Z"/></g>
<g><path style="opacity:0.094" fill="#de3f3e" d="M 777.5,638.5 C 776.833,637.167 776.833,637.167 777.5,638.5 Z"/></g>
<g><path style="opacity:0.829" fill="#de3f3e" d="M 484.5,638.5 C 486.695,638.778 488.861,638.778 491,638.5C 491.388,639.428 492.055,640.095 493,640.5C 496.178,639.002 499.011,639.502 501.5,642C 501.043,642.414 500.709,642.914 500.5,643.5C 504.692,647.096 504.192,650.096 499,652.5C 497.915,650.343 496.749,650.176 495.5,652C 493.765,652.651 492.098,652.485 490.5,651.5C 488.941,652.074 487.441,652.74 486,653.5C 484.467,653.056 482.967,652.723 481.5,652.5C 481.325,659.342 481.325,666.342 481.5,673.5C 483.484,673.617 485.15,672.95 486.5,671.5C 487.72,672.711 488.887,672.711 490,671.5C 490.875,673.513 492.209,673.513 494,671.5C 496.08,673.123 498.246,674.623 500.5,676C 499.185,677.395 499.519,678.395 501.5,679C 498.619,680.251 496.786,682.417 496,685.5C 493.291,684.803 490.624,684.47 488,684.5C 487.667,685.167 487.333,685.833 487,686.5C 485.54,684.578 483.873,683.911 482,684.5C 481.584,691.203 481.417,697.703 481.5,704C 487.469,705.519 493.469,706.852 499.5,708C 499.167,708.333 498.833,708.667 498.5,709C 499.981,709.98 501.315,711.147 502.5,712.5C 500.132,713.872 498.466,715.872 497.5,718.5C 492.722,717.279 487.889,717.279 483,718.5C 480.141,717.827 477.308,716.993 474.5,716C 472.393,713.773 470.06,711.773 467.5,710C 467.833,709.667 468.167,709.333 468.5,709C 467.552,708.517 466.552,708.351 465.5,708.5C 465.297,706.61 465.963,705.11 467.5,704C 466.692,703.692 466.025,703.192 465.5,702.5C 466.115,699.961 466.782,697.461 467.5,695C 466.273,693.413 466.606,692.079 468.5,691C 467.289,689.887 467.289,688.72 468.5,687.5C 465.531,686.332 465.198,684.999 467.5,683.5C 466.674,682.549 466.508,681.549 467,680.5C 467.654,681.696 468.154,681.696 468.5,680.5C 467.829,678.493 466.829,676.66 465.5,675C 466.253,672.742 466.253,670.742 465.5,669C 466.167,666.667 466.833,664.333 467.5,662C 467.167,661.667 466.833,661.333 466.5,661C 467.357,660.311 468.023,659.478 468.5,658.5C 468.154,657.304 467.654,657.304 467,658.5C 465.534,655.504 465.367,652.67 466.5,650C 465.308,648.088 464.308,646.088 463.5,644C 465.202,642.282 467.035,642.115 469,643.5C 470.853,639.415 473.853,638.748 478,641.5C 479.61,639.511 481.443,639.178 483.5,640.5C 484.298,640.043 484.631,639.376 484.5,638.5 Z"/></g>
<g><path style="opacity:0.122" fill="#de3f3e" d="M 576.5,640.5 C 577.833,641.167 577.833,641.167 576.5,640.5 Z"/></g>
<g><path style="opacity:0.402" fill="#de3f3e" d="M 663.5,652.5 C 664.525,652.897 664.692,653.563 664,654.5C 663.536,653.906 663.369,653.239 663.5,652.5 Z"/></g>
<g><path style="opacity:0.02" fill="#de3f3e" d="M 592.5,655.5 C 591.833,654.167 591.833,654.167 592.5,655.5 Z"/></g>
<g><path style="opacity:0.02" fill="#de3f3e" d="M 660.5,655.5 C 659.833,654.167 659.833,654.167 660.5,655.5 Z"/></g>
<g><path style="opacity:0.869" fill="#de3f3e" d="M 679.5,671.5 C 678.883,671.389 678.383,671.056 678,670.5C 673.325,673.19 668.658,672.856 664,669.5C 660.896,670.935 658.396,673.102 656.5,676C 656.957,676.414 657.291,676.914 657.5,677.5C 652.936,686.497 650.27,695.831 649.5,705.5C 648.448,705.351 647.448,705.517 646.5,706C 647.696,706.654 647.696,707.154 646.5,707.5C 643.963,705.471 641.463,705.804 639,708.5C 638.339,706.084 636.839,704.418 634.5,703.5C 635.167,702.5 635.833,701.5 636.5,700.5C 635.689,699.784 635.022,698.95 634.5,698C 635.649,696.27 635.649,694.604 634.5,693C 635.328,692.085 636.328,691.419 637.5,691C 636.707,689.915 636.04,688.748 635.5,687.5C 637.167,684.167 638.833,680.833 640.5,677.5C 639.653,675.939 639.986,674.439 641.5,673C 640.833,672.667 640.167,672.333 639.5,672C 642.502,669.838 644.502,667.005 645.5,663.5C 647.045,661.56 649.045,660.394 651.5,660C 650.549,659.282 650.383,658.449 651,657.5C 652,658.167 653,658.833 654,659.5C 655.792,657.372 657.958,656.039 660.5,655.5C 663.249,655.726 665.916,655.393 668.5,654.5C 673.322,656.89 676.656,660.557 678.5,665.5C 677.833,666.167 677.167,666.833 676.5,667.5C 676.846,668.696 677.346,668.696 678,667.5C 678.791,668.745 679.291,670.078 679.5,671.5 Z"/></g>
<g><path style="opacity:0.173" fill="#de3f3e" d="M 592.5,655.5 C 593.833,656.167 593.833,656.167 592.5,655.5 Z"/></g>
<g><path style="opacity:0.247" fill="#de3f3e" d="M 713.5,655.5 C 714.833,656.167 714.833,656.167 713.5,655.5 Z"/></g>
<g><path style="opacity:0.233" fill="#de3f3e" d="M 713.5,657.5 C 714.773,658.077 714.773,658.743 713.5,659.5C 712.537,659.03 712.537,658.363 713.5,657.5 Z"/></g>
<g><path style="opacity:0.286" fill="#de3f3e" d="M 618.5,660.5 C 619.833,661.167 619.833,661.167 618.5,660.5 Z"/></g>
<g><path style="opacity:0.094" fill="#de3f3e" d="M 645.5,660.5 C 646.833,661.167 646.833,661.167 645.5,660.5 Z"/></g>
<g><path style="opacity:0.188" fill="#de3f3e" d="M 542.5,663.5 C 543.833,664.167 543.833,664.167 542.5,663.5 Z"/></g>
<g><path style="opacity:0.078" fill="#de3f3e" d="M 738.5,663.5 C 739.833,664.167 739.833,664.167 738.5,663.5 Z"/></g>
<g><path style="opacity:0.825" fill="#de3f3e" d="M 545.5,676.5 C 544.746,678.505 543.579,679.172 542,678.5C 540.561,681.275 538.728,683.775 536.5,686C 539.559,686.988 540.725,688.821 540,691.5C 540.414,691.043 540.914,690.709 541.5,690.5C 543.631,693.195 545.631,696.028 547.5,699C 547.377,701.211 547.377,703.378 547.5,705.5C 547,706.5 546.5,707.5 546,708.5C 542.211,706.426 538.377,704.426 534.5,702.5C 532.939,700.027 530.939,698.027 528.5,696.5C 525.849,698.65 523.349,700.983 521,703.5C 519.388,706.617 517.554,709.617 515.5,712.5C 514.094,711.332 512.928,711.665 512,713.5C 511.252,711.668 510.252,710.001 509,708.5C 508.586,708.957 508.086,709.291 507.5,709.5C 506.738,708.372 506.071,707.205 505.5,706C 506.456,703.123 507.789,700.456 509.5,698C 509.167,697.667 508.833,697.333 508.5,697C 512.987,697.08 513.987,695.58 511.5,692.5C 513.817,690.196 515.817,687.696 517.5,685C 513.821,680.988 509.821,677.321 505.5,674C 506.167,673.667 506.833,673.333 507.5,673C 506.167,671.667 506.167,670.333 507.5,669C 508.449,668.383 509.282,668.549 510,669.5C 511.784,666.997 513.451,666.997 515,669.5C 515.308,668.692 515.808,668.025 516.5,667.5C 518.527,668.693 520.027,670.36 521,672.5C 521.333,672.167 521.667,671.833 522,671.5C 524.071,672.364 525.738,673.697 527,675.5C 529.234,671.542 532.067,668.042 535.5,665C 538.501,665.056 541.501,665.556 544.5,666.5C 545.167,666.167 545.833,665.833 546.5,665.5C 546.818,667.85 546.818,670.017 546.5,672C 545.201,673.326 543.868,674.66 542.5,676C 543.448,676.483 544.448,676.649 545.5,676.5 Z M 535.5,666.5 C 537.337,666.639 537.67,667.306 536.5,668.5C 535.702,668.043 535.369,667.376 535.5,666.5 Z"/></g>
<g><path style="opacity:0.431" fill="#de3f3e" d="M 716.5,668.5 C 716.351,667.448 716.517,666.448 717,665.5C 717.74,666.749 717.573,667.749 716.5,668.5 Z"/></g>
<g><path style="opacity:0.348" fill="#de3f3e" d="M 734.5,666.5 C 735.289,666.783 735.956,667.283 736.5,668C 735.184,668.528 734.517,668.028 734.5,666.5 Z"/></g>
<g><path style="opacity:0.867" fill="#de3f3e" d="M 690.5,669.5 C 693.652,672.433 696.985,672.767 700.5,670.5C 701.731,671.651 701.731,672.817 700.5,674C 701.421,675.756 702.588,675.923 704,674.5C 705.225,674.862 706.391,675.362 707.5,676C 708.641,676.741 708.641,677.575 707.5,678.5C 709.747,679.245 711.58,680.578 713,682.5C 714.89,686.17 716.39,690.003 717.5,694C 716.542,695.147 716.875,696.147 718.5,697C 717.833,697.333 717.167,697.667 716.5,698C 717.624,698.249 718.624,698.749 719.5,699.5C 718.471,699.296 717.471,699.796 716.5,701C 718.091,703.386 719.091,706.053 719.5,709C 717.846,711.497 717.013,713.997 717,716.5C 716.077,715.241 715.243,713.908 714.5,712.5C 712.574,711.939 710.574,711.773 708.5,712C 705.489,708.915 704.489,705.415 705.5,701.5C 703.725,699.725 702.725,697.225 702.5,694C 703.554,692.612 703.72,691.112 703,689.5C 700.576,687.348 697.743,686.015 694.5,685.5C 691.581,688.226 689.581,691.559 688.5,695.5C 687.397,695.998 686.397,696.331 685.5,696.5C 686.428,697.768 686.595,699.101 686,700.5C 685.667,700.167 685.333,699.833 685,699.5C 684.548,702.149 683.714,704.649 682.5,707C 682.833,707.333 683.167,707.667 683.5,708C 682.5,708.5 681.5,709 680.5,709.5C 678.201,707.768 675.701,706.434 673,705.5C 672.667,705.833 672.333,706.167 672,706.5C 671.585,704.709 670.585,703.376 669,702.5C 668.966,700.82 668.799,699.32 668.5,698C 672.072,689.114 675.739,680.281 679.5,671.5C 680.75,671.577 681.583,672.244 682,673.5C 683,671.833 684,670.167 685,668.5C 685.974,670.878 686.641,670.544 687,667.5C 688.596,666.952 689.763,667.618 690.5,669.5 Z"/></g>
<g><path style="opacity:0.231" fill="#de3f3e" d="M 690.5,669.5 C 690.897,668.475 691.563,668.308 692.5,669C 691.906,669.464 691.239,669.631 690.5,669.5 Z"/></g>
<g><path style="opacity:0.353" fill="#de3f3e" d="M 716.5,668.5 C 716.217,669.289 715.717,669.956 715,670.5C 714.472,669.184 714.972,668.517 716.5,668.5 Z"/></g>
<g><path style="opacity:0.866" fill="#de3f3e" d="M 739.5,712.5 C 739.167,711.167 738.833,711.167 738.5,712.5C 732.678,713.86 728.178,711.86 725,706.5C 724.667,706.833 724.333,707.167 724,707.5C 723.713,705.109 723.213,702.776 722.5,700.5C 723.773,698.016 723.773,695.516 722.5,693C 722.903,691.527 723.57,690.194 724.5,689C 723.366,687.984 723.699,687.317 725.5,687C 724.446,685.612 724.28,684.112 725,682.5C 727.87,679.597 730.203,676.263 732,672.5C 735.097,673.873 737.263,672.873 738.5,669.5C 739.251,670.376 739.751,671.376 740,672.5C 745.164,670.521 750.164,671.188 755,674.5C 755.667,675.167 755.667,675.833 755,676.5C 754.346,675.304 753.846,675.304 753.5,676.5C 754.263,677.719 755.263,678.719 756.5,679.5C 755.318,681.467 755.985,682.8 758.5,683.5C 754.693,685.767 754.693,687.934 758.5,690C 758.835,691.164 758.835,692.497 758.5,694C 759.308,694.308 759.975,694.808 760.5,695.5C 758.672,699.083 758.672,702.416 760.5,705.5C 760.154,710.116 760.154,714.95 760.5,720C 758.801,720.393 757.301,719.893 756,718.5C 749.117,721.585 746.617,719.751 748.5,713C 747,712.5 745.5,712 744,711.5C 742.56,712.148 741.06,712.481 739.5,712.5 Z M 738.5,684.5 C 742.035,684.557 744.368,686.223 745.5,689.5C 743.693,692.978 741.359,695.978 738.5,698.5C 736.627,698.518 736.294,698.018 737.5,697C 736.833,694.333 736.167,691.667 735.5,689C 737.376,688.082 738.376,686.582 738.5,684.5 Z"/></g>
<g><path style="opacity:0.231" fill="#de3f3e" d="M 546.5,674.5 C 547.833,675.167 547.833,675.167 546.5,674.5 Z"/></g>
<g><path style="opacity:0.294" fill="#de3f3e" d="M 546.5,675.5 C 545.833,676.167 545.833,676.167 546.5,675.5 Z"/></g>
<g><path style="opacity:0.039" fill="#de3f3e" d="M 624.5,689.5 C 624.833,689.5 625.167,689.5 625.5,689.5C 625.315,690.17 624.981,690.17 624.5,689.5 Z"/></g>
<g><path style="opacity:0.235" fill="#de3f3e" d="M 465.5,690.5 C 466.833,691.167 466.833,691.167 465.5,690.5 Z"/></g>
<g><path style="opacity:0.718" fill="#de3f3e" d="M 510.5,694.5 C 511.833,695.167 511.833,695.167 510.5,694.5 Z"/></g>
<g><path style="opacity:0.024" fill="#de3f3e" d="M 614.5,696.5 C 615.833,697.167 615.833,697.167 614.5,696.5 Z"/></g>
<g><path style="opacity:0.4" fill="#de3f3e" d="M 785.5,696.5 C 786.833,697.167 786.833,697.167 785.5,696.5 Z"/></g>
<g><path style="opacity:0.471" fill="#de3f3e" d="M 602.5,697.5 C 603.833,698.167 603.833,698.167 602.5,697.5 Z"/></g>
<g><path style="opacity:0.141" fill="#de3f3e" d="M 616.5,697.5 C 617.833,698.167 617.833,698.167 616.5,697.5 Z"/></g>
<g><path style="opacity:0.153" fill="#de3f3e" d="M 620.5,703.5 C 621.833,704.167 621.833,704.167 620.5,703.5 Z"/></g>
<g><path style="opacity:0.259" fill="#de3f3e" d="M 738.5,712.5 C 738.833,712.5 739.167,712.5 739.5,712.5C 739.315,713.17 738.981,713.17 738.5,712.5 Z"/></g>
<g><path style="opacity:0.216" fill="#de3f3e" d="M 784.5,714.5 C 785.833,715.167 785.833,715.167 784.5,714.5 Z"/></g>
<g><path style="opacity:0.169" fill="#de3f3e" d="M 518.5,719.5 C 519.833,720.167 519.833,720.167 518.5,719.5 Z"/></g>
<g><path style="opacity:0.828" fill="#de3f3e" d="M 518.5,720.5 C 520.844,721.391 523.51,721.557 526.5,721C 528.009,724.603 530.343,725.603 533.5,724C 533.167,723.667 532.833,723.333 532.5,723C 534.137,722.399 535.803,721.899 537.5,721.5C 539.538,722.634 541.538,722.634 543.5,721.5C 544.192,722.025 544.692,722.692 545,723.5C 545.388,722.572 546.055,721.905 547,721.5C 548.422,722.205 549.755,722.539 551,722.5C 553.619,720.231 556.119,720.231 558.5,722.5C 562.528,721.722 566.528,722.055 570.5,723.5C 571.292,725.465 571.959,727.465 572.5,729.5C 570.844,730.992 569.344,732.658 568,734.5C 567.667,733.833 567.333,733.167 567,732.5C 565.921,734.394 564.587,734.727 563,733.5C 560.684,735.459 558.684,735.459 557,733.5C 554.563,733.868 551.897,734.534 549,735.5C 548.333,734.833 547.667,734.167 547,733.5C 542.172,735.326 537.339,736.326 532.5,736.5C 533.392,743.736 534.058,750.736 534.5,757.5C 537.194,755.672 539.194,753.339 540.5,750.5C 543.897,751.494 547.23,751.16 550.5,749.5C 551.478,749.977 552.311,750.643 553,751.5C 553.79,749.21 555.124,748.877 557,750.5C 557.945,750.095 558.612,749.428 559,748.5C 559.991,749.939 561.324,750.939 563,751.5C 562.669,753.019 562.836,754.352 563.5,755.5C 564.174,757.024 565.174,758.358 566.5,759.5C 564.196,761.431 562.362,763.764 561,766.5C 555.825,765.646 550.492,765.646 545,766.5C 542.553,765.594 540.053,764.761 537.5,764C 538.673,760.89 538.173,760.723 536,763.5C 535.667,763.167 535.333,762.833 535,762.5C 532.887,764.271 533.053,765.771 535.5,767C 534.813,769.232 534.479,771.398 534.5,773.5C 534.977,774.478 535.643,775.311 536.5,776C 535.91,782.474 535.41,788.974 535,795.5C 533.221,792.724 532.221,793.057 532,796.5C 531.21,792.71 528.876,790.71 525,790.5C 522.29,787.82 521.457,784.82 522.5,781.5C 521.947,776.11 521.947,769.944 522.5,763C 519.39,760.695 519.057,758.195 521.5,755.5C 519.078,753.952 519.078,752.286 521.5,750.5C 520.253,748.958 520.253,747.458 521.5,746C 520.572,745.612 519.905,744.945 519.5,744C 519.833,741.667 520.167,739.333 520.5,737C 520.389,735.278 519.889,735.112 519,736.5C 517.863,733.232 517.03,729.898 516.5,726.5C 516.361,724.117 517.028,722.117 518.5,720.5 Z M 533.5,759.5 C 534.497,758.287 535.497,758.454 536.5,760C 535.423,760.47 534.423,760.303 533.5,759.5 Z"/></g>
<g><path style="opacity:0.836" fill="#de3f3e" d="M 768.5,756.5 C 767.209,757.542 767.209,758.708 768.5,760C 767.457,761.976 766.123,762.476 764.5,761.5C 762.598,764.565 759.932,766.731 756.5,768C 752.579,768.971 748.246,769.471 743.5,769.5C 741.493,768.829 739.66,767.829 738,766.5C 735.914,766.919 734.414,768.086 733.5,770C 736.789,774.924 740.956,779.091 746,782.5C 746.414,782.043 746.914,781.709 747.5,781.5C 749.438,784.079 751.271,784.079 753,781.5C 754.47,783.152 756.303,784.152 758.5,784.5C 761.012,783.244 763.512,783.244 766,784.5C 767.303,784.022 768.469,783.355 769.5,782.5C 769.351,783.552 769.517,784.552 770,785.5C 771,784.167 772,782.833 773,781.5C 774.744,784.118 775.911,783.785 776.5,780.5C 778.678,783.259 781.011,785.926 783.5,788.5C 781.849,790.402 781.516,792.402 782.5,794.5C 779.981,796.505 777.147,797.838 774,798.5C 773.309,796.109 772.309,796.109 771,798.5C 767.902,797.456 764.902,797.789 762,799.5C 760.075,797.027 758.242,797.027 756.5,799.5C 755.28,798.289 754.113,798.289 753,799.5C 751.622,797.787 749.955,796.453 748,795.5C 747.667,796.167 747.333,796.833 747,797.5C 744.948,796.277 742.781,795.277 740.5,794.5C 740,793.5 739.5,792.5 739,791.5C 737.817,792.731 736.651,792.731 735.5,791.5C 732.558,788.2 729.225,785.533 725.5,783.5C 723.601,780.43 722.935,777.264 723.5,774C 722.106,773.044 721.439,771.711 721.5,770C 721.578,765.314 721.744,760.481 722,755.5C 723.299,752.994 724.299,750.327 725,747.5C 726.758,746.531 727.258,745.364 726.5,744C 730.93,740.447 734.93,736.447 738.5,732C 741.212,729.977 744.212,728.477 747.5,727.5C 748.486,731.375 749.653,731.375 751,727.5C 752.676,728.061 754.009,729.061 755,730.5C 757.292,729.399 758.792,730.232 759.5,733C 760.793,733.49 762.127,733.657 763.5,733.5C 763.105,736.523 764.105,737.523 766.5,736.5C 767.003,740.634 768.669,744.134 771.5,747C 771.287,750.154 770.287,753.321 768.5,756.5 Z M 742.5,755.5 C 740.654,753.97 739.654,751.97 739.5,749.5C 742.574,746.964 746.074,744.964 750,743.5C 753.633,744.14 756.467,745.973 758.5,749C 756.318,751.518 753.818,752.685 751,752.5C 749.454,755.465 747.121,755.799 744,753.5C 743.283,754.044 742.783,754.711 742.5,755.5 Z M 735.5,757.5 C 738.001,757.511 738.168,758.178 736,759.5C 735.536,758.906 735.369,758.239 735.5,757.5 Z"/></g>
<g><path style="opacity:0.853" fill="#de3f3e" d="M 641.5,745.5 C 642.712,746.23 643.712,747.23 644.5,748.5C 648.075,746.93 651.408,744.93 654.5,742.5C 655.894,744.984 657.394,744.984 659,742.5C 665.123,743.973 670.956,746.806 676.5,751C 681.107,754.323 682.607,758.49 681,763.5C 678.132,761.575 675.465,761.575 673,763.5C 672.329,762.748 671.496,762.414 670.5,762.5C 670.167,759.833 669.833,759.833 669.5,762.5C 668.571,761.064 667.405,759.731 666,758.5C 665.667,758.833 665.333,759.167 665,759.5C 661.74,756.016 658.24,755.849 654.5,759C 656.912,761.035 656.245,762.035 652.5,762C 651.773,763.399 651.273,764.899 651,766.5C 650.667,765.833 650.333,765.167 650,764.5C 649.667,765.833 649.333,767.167 649,768.5C 648.667,768.167 648.333,767.833 648,767.5C 647.934,770.276 646.768,772.442 644.5,774C 645.458,775.147 645.125,776.147 643.5,777C 644.428,777.388 645.095,778.055 645.5,779C 644.711,780.626 643.711,782.126 642.5,783.5C 642.624,784.107 642.957,784.44 643.5,784.5C 643.425,787.407 642.591,790.073 641,792.5C 639.559,791.74 638.059,791.074 636.5,790.5C 635.719,791.737 634.719,792.737 633.5,793.5C 632.315,792.147 630.981,790.98 629.5,790C 628.256,789.544 627.423,790.044 627,791.5C 626.833,791 626.667,790.5 626.5,790C 626.623,778.631 626.623,767.131 626.5,755.5C 627.09,754.201 628.09,753.368 629.5,753C 627.342,751.688 627.009,750.022 628.5,748C 626.487,747.125 626.487,745.791 628.5,744C 628.167,743.667 627.833,743.333 627.5,743C 628.249,741.258 629.916,739.758 632.5,738.5C 634.061,739.347 635.561,739.014 637,737.5C 638.257,740.351 639.757,743.018 641.5,745.5 Z M 641.5,745.5 C 641.217,746.289 640.717,746.956 640,747.5C 639.472,746.184 639.972,745.517 641.5,745.5 Z"/></g>
<g><path style="opacity:0.869" fill="#de3f3e" d="M 575.5,789.5 C 573.549,787.52 572.049,785.187 571,782.5C 570.28,780.888 570.446,779.388 571.5,778C 570.422,777.326 569.755,776.326 569.5,775C 570.114,773.463 570.114,772.13 569.5,771C 570.095,767.916 571.428,765.249 573.5,763C 572.5,760.909 573.167,759.243 575.5,758C 575.043,757.586 574.709,757.086 574.5,756.5C 576.661,749.5 581.161,744.5 588,741.5C 591.359,743.885 594.859,743.885 598.5,741.5C 599.192,742.025 599.692,742.692 600,743.5C 600.333,743.167 600.667,742.833 601,742.5C 602.243,744.833 603.909,745.5 606,744.5C 607.257,746.746 609.09,748.079 611.5,748.5C 611.351,749.552 611.517,750.552 612,751.5C 612.667,752.833 613.333,752.833 614,751.5C 616.752,754.578 619.086,757.911 621,761.5C 621.743,763.441 621.576,765.274 620.5,767C 623.443,768.459 623.776,770.126 621.5,772C 622.428,772.388 623.095,773.055 623.5,774C 623.475,775.988 623.475,777.988 623.5,780C 620.057,780.221 619.724,781.221 622.5,783C 621.289,784.844 619.956,785.678 618.5,785.5C 619.167,786.167 619.833,786.833 620.5,787.5C 617.818,789.505 615.152,791.505 612.5,793.5C 611.833,793.167 611.167,792.833 610.5,792.5C 608.036,793.105 605.369,794.105 602.5,795.5C 601.833,794.833 601.167,794.167 600.5,793.5C 599.389,794.611 598.055,795.278 596.5,795.5C 590.631,793.995 584.631,793.329 578.5,793.5C 578.579,792.07 578.246,790.736 577.5,789.5C 576.743,788.227 576.077,788.227 575.5,789.5 Z M 592.5,756.5 C 595.709,756.594 598.876,757.594 602,759.5C 602.333,759.167 602.667,758.833 603,758.5C 604.646,759.779 605.813,761.445 606.5,763.5C 607.5,764 608.5,764.5 609.5,765C 609.351,769.324 609.017,773.658 608.5,778C 603.167,781.315 597.667,782.148 592,780.5C 590.159,783.323 588.659,783.156 587.5,780C 586.167,779.667 584.833,779.333 583.5,779C 583.623,776.789 583.623,774.622 583.5,772.5C 586.52,767.121 589.52,761.788 592.5,756.5 Z"/></g>
<g><path style="opacity:0.322" fill="#de3f3e" d="M 592.5,741.5 C 593.833,742.167 593.833,742.167 592.5,741.5 Z"/></g>
<g><path style="opacity:0.815" fill="#de3f3e" d="M 722.5,789.5 C 722.351,790.552 722.517,791.552 723,792.5C 723.654,791.304 724.154,791.304 724.5,792.5C 723.68,794.111 722.346,794.778 720.5,794.5C 720.5,795.833 720.5,797.167 720.5,798.5C 718.058,798.119 717.391,798.786 718.5,800.5C 715.606,801.797 712.773,802.13 710,801.5C 708.739,801.759 707.739,802.426 707,803.5C 706.36,801.602 705.027,801.268 703,802.5C 700.837,802.505 699.337,801.505 698.5,799.5C 697.833,799.833 697.167,800.167 696.5,800.5C 695.066,799.064 693.9,797.398 693,795.5C 691.16,796.833 690.66,796.666 691.5,795C 689.5,793.333 687.5,791.667 685.5,790C 685.833,789.667 686.167,789.333 686.5,789C 685.809,787.933 685.309,786.766 685,785.5C 683.633,786.524 682.8,786.024 682.5,784C 682.431,778.598 682.764,773.431 683.5,768.5C 684.563,764.482 686.397,760.815 689,757.5C 689.414,757.957 689.914,758.291 690.5,758.5C 691.815,756.684 693.315,755.017 695,753.5C 696.813,754.609 697.646,753.942 697.5,751.5C 699.958,749.722 702.624,748.056 705.5,746.5C 708.053,746.945 710.72,746.945 713.5,746.5C 713.756,748.937 714.423,751.271 715.5,753.5C 714.098,754.842 714.431,755.676 716.5,756C 714.667,757.833 712.833,759.667 711,761.5C 710.667,761.167 710.333,760.833 710,760.5C 708.316,762.701 706.316,763.367 704,762.5C 701.362,765.474 698.695,768.474 696,771.5C 695.358,773.762 694.525,775.929 693.5,778C 695.723,778.652 696.89,780.152 697,782.5C 697.333,782.167 697.667,781.833 698,781.5C 698.726,784.288 700.56,785.788 703.5,786C 706.432,787.701 709.099,787.534 711.5,785.5C 712.478,785.977 713.311,786.643 714,787.5C 715.11,785.963 716.61,785.297 718.5,785.5C 718.312,787.103 718.812,788.437 720,789.5C 720.333,788.833 720.667,788.167 721,787.5C 721.278,788.416 721.778,789.082 722.5,789.5 Z"/></g>
<g><path style="opacity:0.243" fill="#de3f3e" d="M 717.5,749.5 C 718.833,750.167 718.833,750.167 717.5,749.5 Z"/></g>
<g><path style="opacity:0.133" fill="#de3f3e" d="M 564.5,751.5 C 565.525,751.897 565.692,752.563 565,753.5C 564.536,752.906 564.369,752.239 564.5,751.5 Z"/></g>
<g><path style="opacity:0.031" fill="#de3f3e" d="M 771.5,752.5 C 772.833,753.167 772.833,753.167 771.5,752.5 Z"/></g>
<g><path style="opacity:0.055" fill="#de3f3e" d="M 718.5,753.5 C 719.833,754.167 719.833,754.167 718.5,753.5 Z"/></g>
<g><path style="opacity:0.165" fill="#de3f3e" d="M 563.5,754.5 C 564.833,755.167 564.833,755.167 563.5,754.5 Z"/></g>
<g><path style="opacity:0.09" fill="#de3f3e" d="M 771.5,754.5 C 772.833,755.167 772.833,755.167 771.5,754.5 Z"/></g>
<g><path style="opacity:0.035" fill="#de3f3e" d="M 768.5,756.5 C 769.833,757.167 769.833,757.167 768.5,756.5 Z"/></g>
<g><path style="opacity:0.224" fill="#de3f3e" d="M 669.5,762.5 C 669.833,762.5 670.167,762.5 670.5,762.5C 670.315,763.17 669.981,763.17 669.5,762.5 Z"/></g>
<g><path style="opacity:0.132" fill="#de3f3e" d="M 683.5,768.5 C 682.427,767.749 682.26,766.749 683,765.5C 683.483,766.448 683.649,767.448 683.5,768.5 Z"/></g>
<g><path style="opacity:0.035" fill="#de3f3e" d="M 520.5,768.5 C 521.833,769.167 521.833,769.167 520.5,768.5 Z"/></g>
<g><path style="opacity:0.149" fill="#de3f3e" d="M 522.5,781.5 C 521.475,781.103 521.308,780.437 522,779.5C 522.464,780.094 522.631,780.761 522.5,781.5 Z"/></g>
<g><path style="opacity:0.376" fill="#de3f3e" d="M 776.5,780.5 C 775.833,779.167 775.833,779.167 776.5,780.5 Z"/></g>
<g><path style="opacity:0.353" fill="#de3f3e" d="M 769.5,781.5 C 770.833,782.167 770.833,782.167 769.5,781.5 Z"/></g>
<g><path style="opacity:0.322" fill="#de3f3e" d="M 758.5,782.5 C 759.833,783.167 759.833,783.167 758.5,782.5 Z"/></g>
<g><path style="opacity:0.106" fill="#de3f3e" d="M 643.5,783.5 C 644.833,784.167 644.833,784.167 643.5,783.5 Z"/></g>
<g><path style="opacity:0.271" fill="#de3f3e" d="M 722.5,788.5 C 723.833,789.167 723.833,789.167 722.5,788.5 Z"/></g>
<g><path style="opacity:0.227" fill="#de3f3e" d="M 575.5,789.5 C 576.833,790.167 576.833,790.167 575.5,789.5 Z"/></g>
</svg>
