<?xml version="1.0" encoding="UTF-8"?>
<!DOCTYPE svg PUBLIC "-//W3C//DTD SVG 1.1//EN" "http://www.w3.org/Graphics/SVG/1.1/DTD/svg11.dtd">
<svg xmlns="http://www.w3.org/2000/svg" version="1.1" width="836px" height="348px" style="shape-rendering:geometricPrecision; text-rendering:geometricPrecision; image-rendering:optimizeQuality; fill-rule:evenodd; clip-rule:evenodd" xmlns:xlink="http://www.w3.org/1999/xlink">
<g><path style="opacity:0.849" fill="#000000" d="M 583.5,-0.5 C 584.167,-0.5 584.833,-0.5 585.5,-0.5C 585.351,0.551975 585.517,1.55198 586,2.5C 587.041,1.52887 587.874,0.528868 588.5,-0.5C 588.833,-0.5 589.167,-0.5 589.5,-0.5C 589.833,0.833333 590.167,0.833333 590.5,-0.5C 591.5,-0.5 592.5,-0.5 593.5,-0.5C 593.369,0.238911 593.536,0.905578 594,1.5C 596.394,0.0490198 598.561,0.382353 600.5,2.5C 602.261,1.96486 603.594,0.964857 604.5,-0.5C 605.167,-0.5 605.833,-0.5 606.5,-0.5C 606.842,0.338246 607.508,0.67158 608.5,0.5C 608.783,1.28913 609.283,1.9558 610,2.5C 611.441,1.74022 612.941,1.07356 614.5,0.5C 617.845,1.14715 621.012,1.14715 624,0.5C 625.017,3.02797 626.184,3.02797 627.5,0.5C 628.534,3.12472 629.534,3.12472 630.5,0.5C 632.341,1.67327 634.174,1.67327 636,0.5C 637.368,1.70263 638.868,2.70263 640.5,3.5C 644.052,2.61729 647.386,2.61729 650.5,3.5C 652.561,2.31825 654.061,2.98492 655,5.5C 655.333,4.83333 655.667,4.16667 656,3.5C 657.676,4.0611 659.009,5.0611 660,6.5C 661.117,6.33494 662.284,6.0016 663.5,5.5C 664.167,6.16667 664.833,6.83333 665.5,7.5C 666.315,5.72407 667.482,5.0574 669,5.5C 670.655,5.80243 671.988,7.13576 673,9.5C 674,8.83333 675,8.16667 676,7.5C 676.419,8.67209 677.085,9.67209 678,10.5C 679.974,10.3528 681.974,10.0195 684,9.5C 685.312,12.5809 687.645,14.2476 691,14.5C 691.667,13.8333 692.333,13.1667 693,12.5C 694.224,15.473 696.224,16.1397 699,14.5C 699.911,17.633 701.744,18.633 704.5,17.5C 705.386,18.325 705.719,19.325 705.5,20.5C 707.873,21.2943 710.206,22.2943 712.5,23.5C 713.086,23.2907 713.586,22.9574 714,22.5C 715.1,26.0807 716.767,26.7474 719,24.5C 720.762,24.9444 720.595,25.4444 718.5,26C 719.649,27.7441 720.983,27.9108 722.5,26.5C 725.173,28.6773 728.173,30.1773 731.5,31C 732.701,31.9025 733.535,33.0692 734,34.5C 735.613,33.3777 736.78,33.8777 737.5,36C 738.766,36.3095 739.933,36.8095 741,37.5C 741.333,37.1667 741.667,36.8333 742,36.5C 743.438,37.9003 744.271,39.567 744.5,41.5C 746.695,40.3918 748.695,40.5585 750.5,42C 754.566,46.7574 759.066,50.9241 764,54.5C 764.333,54.1667 764.667,53.8333 765,53.5C 765.865,55.2251 766.531,56.8917 767,58.5C 769.292,57.3991 770.792,58.2324 771.5,61C 775.93,64.3972 780.43,68.5639 785,73.5C 785.202,75.2556 785.702,76.9223 786.5,78.5C 788.123,77.5244 789.457,78.0244 790.5,80C 790.167,80.3333 789.833,80.6667 789.5,81C 797.855,88.3714 804.355,97.2047 809,107.5C 809.833,110 810.667,112.5 811.5,115C 810.062,117.366 810.562,117.866 813,116.5C 813.837,118.351 814.671,120.184 815.5,122C 814.833,122.667 814.167,123.333 813.5,124C 815.333,125.167 816.833,126.667 818,128.5C 819.72,134.974 820.887,141.141 821.5,147C 820.833,147.333 820.167,147.667 819.5,148C 820.105,154.466 820.438,160.799 820.5,167C 820.591,169.823 819.257,171.49 816.5,172C 819.028,172.669 819.028,173.502 816.5,174.5C 814.018,173.103 811.352,172.269 808.5,172C 804.71,169.819 804.71,167.819 808.5,166C 807.551,165.383 806.718,165.549 806,166.5C 804.285,163.413 804.785,160.579 807.5,158C 806.167,157 806.167,156 807.5,155C 806.672,154.085 805.672,153.419 804.5,153C 806.396,150.265 807.062,147.432 806.5,144.5C 806.154,143.304 805.654,143.304 805,144.5C 804.691,143.234 804.191,142.067 803.5,141C 804.167,140.667 804.833,140.333 805.5,140C 804.896,137.532 803.562,135.532 801.5,134C 801.772,131.272 801.772,128.606 801.5,126C 800.5,125.167 799.5,124.333 798.5,123.5C 798.5,122.167 798.5,120.833 798.5,119.5C 798.154,118.304 797.654,118.304 797,119.5C 796.691,118.234 796.191,117.067 795.5,116C 795.833,115.667 796.167,115.333 796.5,115C 792.634,111.723 791.301,108.057 792.5,104C 791.167,103.667 789.833,103.333 788.5,103C 788.957,102.586 789.291,102.086 789.5,101.5C 787.102,100.102 785.435,98.1025 784.5,95.5C 783.264,94.7542 781.93,94.4208 780.5,94.5C 780.649,93.448 780.483,92.448 780,91.5C 775.043,84.8737 769.709,78.5404 764,72.5C 763.026,74.8776 762.359,74.5443 762,71.5C 750.754,60.061 738.087,50.3943 724,42.5C 723.667,42.8333 723.333,43.1667 723,43.5C 721.381,41.4171 719.381,39.7504 717,38.5C 716.667,38.8333 716.333,39.1667 716,39.5C 714.757,37.1671 713.091,36.5004 711,37.5C 710.082,35.3676 708.749,34.701 707,35.5C 702.64,33.3877 698.806,31.0544 695.5,28.5C 694.914,28.7093 694.414,29.0426 694,29.5C 691.896,27.2616 689.562,26.2616 687,26.5C 685.488,25.7433 684.154,24.7433 683,23.5C 682.667,23.8333 682.333,24.1667 682,24.5C 677.389,23.0585 672.889,21.3918 668.5,19.5C 667.833,19.8333 667.167,20.1667 666.5,20.5C 662.63,18.9571 658.63,17.6238 654.5,16.5C 650.106,17.0472 645.772,16.3805 641.5,14.5C 638.412,14.3518 635.245,14.6852 632,15.5C 631,14.8333 630,14.1667 629,13.5C 621.28,14.2737 613.447,14.2737 605.5,13.5C 604.808,12.9747 604.308,12.3081 604,11.5C 601.241,12.3234 598.407,12.9901 595.5,13.5C 591.159,13.7905 586.659,13.4571 582,12.5C 581.667,13.1667 581.333,13.8333 581,14.5C 576.139,14.097 571.306,14.097 566.5,14.5C 565.353,14.8178 564.519,15.4844 564,16.5C 563.326,15.4216 562.326,14.7549 561,14.5C 559.089,15.4069 557.256,15.4069 555.5,14.5C 553.941,15.0736 552.441,15.7402 551,16.5C 550.667,15.8333 550.333,15.1667 550,14.5C 549,15.8333 548,15.8333 547,14.5C 545.351,17.8765 543.351,18.2099 541,15.5C 540.5,16 540,16.5 539.5,17C 536.11,17.2463 532.777,17.7463 529.5,18.5C 528.833,18.1667 528.167,17.8333 527.5,17.5C 521.175,19.4558 514.842,21.1224 508.5,22.5C 507.558,22.3918 506.725,22.0585 506,21.5C 504.667,22.8333 503.333,24.1667 502,25.5C 500.732,25.3842 499.398,25.0509 498,24.5C 493.38,26.8048 489.046,29.4714 485,32.5C 482.909,31.5004 481.243,32.1671 480,34.5C 478.701,34.0338 477.201,34.0338 475.5,34.5C 475.5,35.5 475.5,36.5 475.5,37.5C 473.097,37.393 471.264,38.393 470,40.5C 469.667,40.1667 469.333,39.8333 469,39.5C 468.667,40.5 468.333,41.5 468,42.5C 462.056,46.4428 456.722,51.1095 452,56.5C 447.335,62.9066 442.835,69.4066 438.5,76C 438.833,76.3333 439.167,76.6667 439.5,77C 436.662,84.3896 434.662,91.8896 433.5,99.5C 434.057,101.235 434.39,102.902 434.5,104.5C 431.647,108.048 431.314,111.714 433.5,115.5C 430.841,117.964 430.174,120.797 431.5,124C 428.876,124.576 428.209,125.91 429.5,128C 428.833,128.333 428.167,128.667 427.5,129C 427.833,130.667 428.167,132.333 428.5,134C 427.167,135.667 425.833,137.333 424.5,139C 426.932,140.087 426.598,140.587 423.5,140.5C 423.649,141.552 423.483,142.552 423,143.5C 422.333,142.167 421.667,142.167 421,143.5C 420.188,140.18 418.355,139.18 415.5,140.5C 415.157,142.483 415.824,143.817 417.5,144.5C 417.343,145.873 417.51,147.207 418,148.5C 419.483,146.054 420.649,146.388 421.5,149.5C 420.975,150.192 420.308,150.692 419.5,151C 421.57,151.948 423.07,153.448 424,155.5C 427.001,154.451 428.835,152.451 429.5,149.5C 429.833,150.167 430.167,150.833 430.5,151.5C 431.338,151.158 431.672,150.492 431.5,149.5C 433.728,148.678 434.395,147.345 433.5,145.5C 434.757,143.321 436.257,141.321 438,139.5C 438.233,137.22 439.066,135.22 440.5,133.5C 439.605,131.655 440.272,130.322 442.5,129.5C 443.5,132.167 444.5,132.167 445.5,129.5C 447.756,130.438 450.09,130.438 452.5,129.5C 452.338,131.527 452.505,133.527 453,135.5C 453.889,134.112 454.389,134.278 454.5,136C 453.138,140.641 451.471,145.474 449.5,150.5C 448.5,150.5 447.5,150.5 446.5,150.5C 443.516,158.316 438.516,164.483 431.5,169C 432.667,171.833 431.833,172.667 429,171.5C 428.667,172.5 428.333,173.5 428,174.5C 427.667,174.167 427.333,173.833 427,173.5C 424.254,174.65 421.421,175.15 418.5,175C 416.329,170.853 413.829,167.02 411,163.5C 409.921,155.612 406.421,149.112 400.5,144C 400.833,143.667 401.167,143.333 401.5,143C 400.234,139.4 397.734,137.233 394,136.5C 393.749,134.567 393.249,132.734 392.5,131C 391.911,129.127 392.578,127.46 394.5,126C 395.935,126.311 397.268,126.145 398.5,125.5C 402.696,128.098 407.03,130.431 411.5,132.5C 410.527,134.068 410.36,135.735 411,137.5C 412.094,135.922 412.928,134.255 413.5,132.5C 415.739,130.999 415.739,129.666 413.5,128.5C 415.387,126.112 416.054,123.612 415.5,121C 417.569,120.676 417.902,119.842 416.5,118.5C 418.936,116.447 418.602,114.614 415.5,113C 416.833,113 418.167,113 419.5,113C 416.611,108.278 417.277,104.111 421.5,100.5C 420.559,100.511 419.892,100.011 419.5,99C 419.735,96.6483 419.901,94.1483 420,91.5C 420.451,93.9288 421.285,94.0955 422.5,92C 421.07,87.1736 422.07,82.507 425.5,78C 425.043,77.586 424.709,77.086 424.5,76.5C 425.919,74.0415 426.919,71.3749 427.5,68.5C 430.734,63.0784 434.234,57.745 438,52.5C 438.333,52.8333 438.667,53.1667 439,53.5C 442.239,47.3849 446.406,42.0516 451.5,37.5C 452.492,37.6716 453.158,37.3382 453.5,36.5C 455.411,36.4257 456.578,35.4257 457,33.5C 458.107,34.7119 458.607,34.3786 458.5,32.5C 460.027,32.573 461.027,31.9063 461.5,30.5C 466.337,27.1799 471.337,24.0132 476.5,21C 491.406,14.6009 506.739,9.43423 522.5,5.5C 523.192,6.02527 523.692,6.69194 524,7.5C 525.845,5.64991 527.845,5.31658 530,6.5C 531.46,4.57755 533.127,3.91089 535,4.5C 537.307,2.54564 539.307,2.54564 541,4.5C 543.761,3.69162 546.428,2.69162 549,1.5C 549.149,4.27855 549.983,4.77855 551.5,3C 553.713,2.3744 555.88,2.54106 558,3.5C 559.261,3.24092 560.261,2.57425 561,1.5C 562.113,2.71109 563.28,2.71109 564.5,1.5C 564.833,2.16667 565.167,2.83333 565.5,3.5C 567.638,2.59498 569.805,1.59498 572,0.5C 573.873,-0.0891119 575.54,0.577555 577,2.5C 577.333,1.83333 577.667,1.16667 578,0.5C 579.667,0.833333 581.333,1.16667 583,1.5C 583.464,0.905578 583.631,0.238911 583.5,-0.5 Z M 442.5,129.5 C 443.5,129.5 444.5,129.5 445.5,129.5C 444.5,132.167 443.5,132.167 442.5,129.5 Z M 411.5,132.5 C 412.167,132.5 412.833,132.5 413.5,132.5C 412.928,134.255 412.094,135.922 411,137.5C 410.36,135.735 410.527,134.068 411.5,132.5 Z M 415.5,140.5 C 414.244,140.539 413.244,140.039 412.5,139C 413.998,138.415 414.998,138.915 415.5,140.5 Z M 429.5,149.5 C 430.167,149.5 430.833,149.5 431.5,149.5C 431.672,150.492 431.338,151.158 430.5,151.5C 430.167,150.833 429.833,150.167 429.5,149.5 Z"/></g>
<g><path style="opacity:0.031" fill="#000000" d="M 608.5,-0.5 C 608.833,-0.5 609.167,-0.5 609.5,-0.5C 609.315,0.170143 608.981,0.170143 608.5,-0.5 Z"/></g>
<g><path style="opacity:0.145" fill="#000000" d="M 617.5,-0.5 C 617.833,-0.5 618.167,-0.5 618.5,-0.5C 618.315,0.170143 617.981,0.170143 617.5,-0.5 Z"/></g>
<g><path style="opacity:0.02" fill="#000000" d="M 629.5,-0.5 C 629.833,-0.5 630.167,-0.5 630.5,-0.5C 630.5,-0.166667 630.5,0.166667 630.5,0.5C 630.167,0.166667 629.833,-0.166667 629.5,-0.5 Z"/></g>
<g><path style="opacity:0.267" fill="#000000" d="M 640.5,0.5 C 641.833,1.16667 641.833,1.16667 640.5,0.5 Z"/></g>
<g><path style="opacity:0.184" fill="#000000" d="M 650.5,3.5 C 649.761,3.63101 649.094,3.46434 648.5,3C 649.437,2.30831 650.103,2.47498 650.5,3.5 Z"/></g>
<g><path style="opacity:0.024" fill="#000000" d="M 688.5,11.5 C 687.833,10.1667 687.833,10.1667 688.5,11.5 Z"/></g>
<g><path style="opacity:0.243" fill="#000000" d="M 688.5,11.5 C 689.833,12.1667 689.833,12.1667 688.5,11.5 Z"/></g>
<g><path style="opacity:0.4" fill="#000000" d="M 505.5,24.5 C 506.833,25.1667 506.833,25.1667 505.5,24.5 Z"/></g>
<g><path style="opacity:0.086" fill="#000000" d="M 462.5,27.5 C 463.833,28.1667 463.833,28.1667 462.5,27.5 Z"/></g>
<g><path style="opacity:0.082" fill="#000000" d="M 461.5,30.5 C 460.833,29.1667 460.833,29.1667 461.5,30.5 Z"/></g>
<g><path style="opacity:0.086" fill="#000000" d="M 458.5,32.5 C 457.833,31.1667 457.833,31.1667 458.5,32.5 Z"/></g>
<g><path style="opacity:0.012" fill="#000000" d="M 738.5,34.5 C 739.833,35.1667 739.833,35.1667 738.5,34.5 Z"/></g>
<g><path style="opacity:0.224" fill="#000000" d="M 453.5,36.5 C 452.833,35.1667 452.833,35.1667 453.5,36.5 Z"/></g>
<g><path style="opacity:0.141" fill="#000000" d="M 451.5,37.5 C 450.833,36.1667 450.833,36.1667 451.5,37.5 Z"/></g>
<g><path style="opacity:0.204" fill="#000000" d="M 428.5,63.5 C 429.833,64.1667 429.833,64.1667 428.5,63.5 Z"/></g>
<g><path style="opacity:0.122" fill="#000000" d="M 422.5,77.5 C 423.525,77.8966 423.692,78.5632 423,79.5C 422.536,78.9056 422.369,78.2389 422.5,77.5 Z"/></g>
<g><path style="opacity:0.857" fill="#000000" d="M 65.5,156.5 C 65.56,157.043 65.8933,157.376 66.5,157.5C 67.982,155.517 69.6487,153.684 71.5,152C 71.1667,151.667 70.8333,151.333 70.5,151C 72.0488,149.786 73.2155,148.286 74,146.5C 75,147.833 76,147.833 77,146.5C 77.3333,145.167 77.6667,143.833 78,142.5C 78.3333,143.167 78.6667,143.833 79,144.5C 82.7161,139.16 86.3828,133.827 90,128.5C 90.7412,129.641 91.5745,129.641 92.5,128.5C 94.1712,125.508 96.1712,122.841 98.5,120.5C 99.552,120.649 100.552,120.483 101.5,120C 100.366,118.984 100.699,118.317 102.5,118C 102.167,117.667 101.833,117.333 101.5,117C 102.701,116.097 103.535,114.931 104,113.5C 104.333,113.833 104.667,114.167 105,114.5C 106.946,111.031 109.779,108.864 113.5,108C 113.167,107.667 112.833,107.333 112.5,107C 115.326,104.016 118.492,101.516 122,99.5C 122.667,100.167 123.333,100.833 124,101.5C 126.194,98.9825 128.194,99.3159 130,102.5C 130.617,103.449 130.451,104.282 129.5,105C 130.167,105.333 130.833,105.667 131.5,106C 130.189,109.64 127.855,112.306 124.5,114C 121.29,118.854 116.79,123.021 111,126.5C 108.549,131.58 105.049,135.747 100.5,139C 98.2533,142.736 95.0867,146.236 91,149.5C 86.5658,155.047 81.8991,160.38 77,165.5C 76.6667,165.167 76.3333,164.833 76,164.5C 73.9165,169.419 70.4165,172.752 65.5,174.5C 61.8333,180.167 57.1667,184.833 51.5,188.5C 51.2093,192.309 49.376,193.976 46,193.5C 44.4708,194.729 43.3041,196.229 42.5,198C 41.5509,198.617 40.7175,198.451 40,197.5C 39.3333,198.167 38.6667,198.833 38,199.5C 35.6474,196.398 32.9807,194.398 30,193.5C 29.1531,190.51 30.3198,189.176 33.5,189.5C 33.281,188.325 33.6143,187.325 34.5,186.5C 40.4606,182.704 45.2939,177.704 49,171.5C 50.4222,171.406 51.9222,171.072 53.5,170.5C 57.5309,165.71 61.5309,161.043 65.5,156.5 Z"/></g>
<g><path style="opacity:0.802" fill="#000000" d="M 211.5,205.5 C 210.923,204.227 210.257,204.227 209.5,205.5C 208.914,208.349 207.58,210.682 205.5,212.5C 205.167,211.167 204.833,211.167 204.5,212.5C 203.226,213.189 203.226,214.023 204.5,215C 201.865,218.286 199.532,221.786 197.5,225.5C 196.624,226.251 195.624,226.751 194.5,227C 195.821,228.545 195.488,229.711 193.5,230.5C 193.089,229.738 192.923,228.738 193,227.5C 190.838,227.94 188.671,228.273 186.5,228.5C 185.594,226.614 184.594,224.78 183.5,223C 186.15,219.793 185.984,219.293 183,221.5C 182.833,221 182.667,220.5 182.5,220C 185.637,214.598 189.137,209.431 193,204.5C 193.333,203.167 193.667,201.833 194,200.5C 194.423,201.956 195.256,202.456 196.5,202C 196.043,201.586 195.709,201.086 195.5,200.5C 197.094,197.939 199.094,195.772 201.5,194C 201.167,193.667 200.833,193.333 200.5,193C 201.973,192.29 202.64,191.124 202.5,189.5C 205.361,189.487 206.361,188.321 205.5,186C 208.491,183.01 210.657,179.51 212,175.5C 213.351,173.981 214.851,172.648 216.5,171.5C 215.697,168.946 216.697,167.112 219.5,166C 219.167,165.667 218.833,165.333 218.5,165C 221.164,162.331 222.998,159.164 224,155.5C 225.067,154.809 226.234,154.309 227.5,154C 226.572,153.612 225.905,152.945 225.5,152C 226.593,148.373 228.593,145.373 231.5,143C 230.833,142.667 230.167,142.333 229.5,142C 231.155,139.347 233.155,137.014 235.5,135C 235.043,134.586 234.709,134.086 234.5,133.5C 236.737,131.638 237.403,129.471 236.5,127C 238.91,124.468 241.91,122.968 245.5,122.5C 244.312,121.16 242.812,120.493 241,120.5C 238.611,120.963 236.277,121.63 234,122.5C 232.416,122.012 231.249,121.012 230.5,119.5C 230.331,120.397 229.998,121.397 229.5,122.5C 228.808,121.975 228.308,121.308 228,120.5C 227,121.833 226,121.833 225,120.5C 224.333,121.167 223.667,121.833 223,122.5C 220.534,122.506 217.868,122.173 215,121.5C 213.342,121.675 212.009,122.342 211,123.5C 208.943,122.315 206.943,121.315 205,120.5C 201.914,120.932 198.748,121.265 195.5,121.5C 193.608,118.956 191.775,118.956 190,121.5C 189.707,118.046 188.374,117.712 186,120.5C 184.415,119.624 183.415,118.291 183,116.5C 181.796,117.471 181.296,118.471 181.5,119.5C 179.118,119.117 176.618,119.117 174,119.5C 171.923,118.983 169.923,118.316 168,117.5C 166.093,117.421 164.093,117.754 162,118.5C 161.311,117.643 160.478,116.977 159.5,116.5C 155.386,118.387 151.553,117.72 148,114.5C 145.525,116.752 142.859,116.752 140,114.5C 139.086,115.654 138.253,115.487 137.5,114C 138.26,112.559 138.926,111.059 139.5,109.5C 137.861,108.084 137.027,106.417 137,104.5C 139.804,103.431 142.471,102.098 145,100.5C 145.833,100.667 146.667,100.833 147.5,101C 146.304,101.654 146.304,102.154 147.5,102.5C 148.167,101.833 148.833,101.167 149.5,100.5C 150.425,101.641 151.259,101.641 152,100.5C 161.658,101.47 171.158,103.137 180.5,105.5C 182.76,103.64 185.26,103.64 188,105.5C 193.07,104.453 198.07,104.787 203,106.5C 204.649,105.102 205.982,105.436 207,107.5C 210.542,106.682 214.376,106.515 218.5,107C 219,107.5 219.5,108 220,108.5C 220.839,107.376 222.006,106.709 223.5,106.5C 228.217,107.503 232.883,107.17 237.5,105.5C 241.779,106.274 246.113,106.774 250.5,107C 251.333,107.833 252.167,108.667 253,109.5C 253.689,108.643 254.522,107.977 255.5,107.5C 256.202,109.699 257.202,112.199 258.5,115C 257.387,116.394 256.053,117.561 254.5,118.5C 253.359,119.425 253.359,120.259 254.5,121C 253.552,121.483 252.552,121.649 251.5,121.5C 249.774,125.596 250.44,129.263 253.5,132.5C 251.489,135.01 249.322,137.343 247,139.5C 246.28,141.112 246.446,142.612 247.5,144C 244.844,145.003 243.844,146.67 244.5,149C 243.809,150.067 243.309,151.234 243,152.5C 240.678,156.502 238.178,160.335 235.5,164C 235.833,164.333 236.167,164.667 236.5,165C 235.197,168.028 233.53,170.861 231.5,173.5C 231.709,174.086 232.043,174.586 232.5,175C 230.754,175.471 229.087,176.138 227.5,177C 228.576,178.726 228.743,180.559 228,182.5C 227.333,181.833 226.667,181.167 226,180.5C 225.509,184.827 223.509,188.16 220,190.5C 218.112,196.176 215.279,201.176 211.5,205.5 Z M 176.5,104.5 C 177.773,105.077 177.773,105.743 176.5,106.5C 175.537,106.03 175.537,105.363 176.5,104.5 Z M 196.5,107.5 C 197.077,106.227 197.743,106.227 198.5,107.5C 198.03,108.463 197.363,108.463 196.5,107.5 Z M 185.5,217.5 C 186.077,216.227 186.743,216.227 187.5,217.5C 187.03,218.463 186.363,218.463 185.5,217.5 Z"/></g>
<g><path style="opacity:0.847" fill="#000000" d="M 507.5,260.5 C 504.63,266.252 501.13,266.252 497,260.5C 496.667,260.833 496.333,261.167 496,261.5C 495.206,254.237 495.373,247.071 496.5,240C 495.743,238.488 494.743,237.154 493.5,236C 493.665,234.883 493.998,233.716 494.5,232.5C 492.907,229.285 491.24,226.118 489.5,223C 489.833,222.667 490.167,222.333 490.5,222C 487.138,217.65 483.971,213.817 481,210.5C 480.667,210.833 480.333,211.167 480,211.5C 477.318,208.147 473.985,206.813 470,207.5C 469.667,206.833 469.333,206.167 469,205.5C 468.059,208.815 467.226,212.148 466.5,215.5C 466.952,222.941 466.952,230.607 466.5,238.5C 466.24,240.187 465.573,241.687 464.5,243C 465.428,243.388 466.095,244.055 466.5,245C 465.921,252.842 465.921,261.175 466.5,270C 464.449,272.16 462.949,274.66 462,277.5C 461,278.167 460,278.833 459,279.5C 457.283,277.127 455.783,274.627 454.5,272C 454.112,270.475 454.112,268.808 454.5,267C 451.833,265.667 451.833,264.333 454.5,263C 454.952,259.618 454.452,256.451 453,253.5C 453.718,254.451 454.551,254.617 455.5,254C 454.672,253.085 453.672,252.419 452.5,252C 453.357,251.311 454.023,250.478 454.5,249.5C 451.901,245.233 451.901,240.9 454.5,236.5C 454.672,229.406 454.339,222.406 453.5,215.5C 454.025,214.808 454.692,214.308 455.5,214C 453.078,212.112 453.078,210.112 455.5,208C 456.789,202.644 456.789,197.311 455.5,192C 456.007,188.261 456.673,184.594 457.5,181C 457.676,179.34 457.009,177.674 455.5,176C 456.62,169.496 456.62,162.829 455.5,156C 456.167,155.333 456.833,154.667 457.5,154C 455.6,148.116 455.6,142.282 457.5,136.5C 456.224,133.966 455.89,131.466 456.5,129C 455.707,127.915 455.04,126.748 454.5,125.5C 454.846,124.304 455.346,124.304 456,125.5C 458.412,123.673 459.912,121.673 460.5,119.5C 461.892,120.605 463.059,121.939 464,123.5C 465.752,121.226 467.752,119.226 470,117.5C 470.333,117.833 470.667,118.167 471,118.5C 471.043,115.783 472.043,115.116 474,116.5C 475.285,116.05 476.452,115.383 477.5,114.5C 478.748,115.04 479.915,115.707 481,116.5C 481.84,113.536 482.84,113.203 484,115.5C 485.881,114.646 487.714,114.979 489.5,116.5C 490.478,116.023 491.311,115.357 492,114.5C 496.34,117.62 501.173,119.786 506.5,121C 505.304,121.654 505.304,122.154 506.5,122.5C 507.451,121.674 508.451,121.508 509.5,122C 514.887,127.877 520.554,133.544 526.5,139C 526.043,139.414 525.709,139.914 525.5,140.5C 529.252,145.075 532.086,149.741 534,154.5C 533.235,158.893 533.402,163.059 534.5,167C 533.692,167.308 533.025,167.808 532.5,168.5C 534.187,172.243 533.187,175.076 529.5,177C 530.167,177.333 530.833,177.667 531.5,178C 527.394,185.092 521.394,190.759 513.5,195C 511.004,196.08 508.67,197.414 506.5,199C 503.736,199.532 501.07,200.366 498.5,201.5C 495.929,200.2 494.262,201.033 493.5,204C 497.027,210.995 500.693,217.829 504.5,224.5C 504.291,225.086 503.957,225.586 503.5,226C 504.732,229.356 506.398,232.856 508.5,236.5C 507.266,238.398 507.599,240.065 509.5,241.5C 509.362,243.638 509.362,245.805 509.5,248C 508.971,249.559 508.304,251.059 507.5,252.5C 508.263,253.719 509.263,254.719 510.5,255.5C 509.965,257.271 509.131,257.604 508,256.5C 507.51,257.793 507.343,259.127 507.5,260.5 Z M 489.5,129.5 C 490.93,130.537 492.597,131.204 494.5,131.5C 494.833,132.833 495.167,132.833 495.5,131.5C 498.257,132.512 500.924,133.512 503.5,134.5C 505.134,135.972 506.634,137.638 508,139.5C 508.333,139.167 508.667,138.833 509,138.5C 510.375,140.376 511.542,142.376 512.5,144.5C 513.167,144.167 513.833,143.833 514.5,143.5C 515.872,147.369 517.872,150.869 520.5,154C 520.81,158.736 520.81,163.736 520.5,169C 518.3,171.205 516.467,173.705 515,176.5C 514.667,176.167 514.333,175.833 514,175.5C 513,176.833 512,178.167 511,179.5C 510.107,178.289 509.274,178.289 508.5,179.5C 509.629,181.529 509.129,181.863 507,180.5C 503.797,182.855 500.631,185.188 497.5,187.5C 497.167,186.167 496.833,186.167 496.5,187.5C 495.504,187.586 494.671,187.252 494,186.5C 494.077,187.738 493.911,188.738 493.5,189.5C 492.808,188.975 492.308,188.308 492,187.5C 491.259,188.641 490.425,188.641 489.5,187.5C 485.967,188.869 482.467,190.202 479,191.5C 475.915,189.16 472.915,189.493 470,192.5C 469.362,191.391 468.862,190.225 468.5,189C 469.47,180.961 469.803,172.795 469.5,164.5C 468.975,163.808 468.308,163.308 467.5,163C 470.555,160.763 470.888,158.43 468.5,156C 468.867,148.767 469.034,141.267 469,133.5C 470.558,132.655 471.558,133.321 472,135.5C 476.629,129.647 482.463,127.647 489.5,129.5 Z"/></g>
<g><path style="opacity:0.361" fill="#000000" d="M 469.5,115.5 C 470.833,116.167 470.833,116.167 469.5,115.5 Z"/></g>
<g><path style="opacity:0.353" fill="#000000" d="M 98.5,120.5 C 97.8333,119.167 97.8333,119.167 98.5,120.5 Z"/></g>
<g><path style="opacity:0.02" fill="#000000" d="M 747.5,124.5 C 748.833,125.167 748.833,125.167 747.5,124.5 Z"/></g>
<g><path style="opacity:0.039" fill="#000000" d="M 400.5,125.5 C 401.833,126.167 401.833,126.167 400.5,125.5 Z"/></g>
<g><path style="opacity:0.838" fill="#000000" d="M 759.5,148.5 C 757.448,149.053 757.115,150.053 758.5,151.5C 758.567,153.401 758.233,155.234 757.5,157C 758.56,158.928 759.893,160.595 761.5,162C 759.334,164.989 759.001,168.155 760.5,171.5C 759.448,171.351 758.448,171.517 757.5,172C 761.757,174.42 765.757,175.254 769.5,174.5C 770.04,175.748 770.707,176.915 771.5,178C 769.024,180.137 769.024,182.303 771.5,184.5C 769.983,184.511 768.816,185.177 768,186.5C 767.667,186.167 767.333,185.833 767,185.5C 765.972,187.361 764.472,188.695 762.5,189.5C 762.167,188.833 761.833,188.167 761.5,187.5C 759.833,188.333 758.167,189.167 756.5,190C 757.692,191.912 758.692,193.912 759.5,196C 759.579,197.907 759.246,199.907 758.5,202C 759.167,202.667 759.833,203.333 760.5,204C 759.009,206.097 758.009,208.43 757.5,211C 757.476,214.269 757.809,217.603 758.5,221C 757.509,222.677 756.509,224.343 755.5,226C 759.32,229.342 759.32,232.509 755.5,235.5C 757.174,236.88 758.84,238.213 760.5,239.5C 762.105,238.57 763.605,238.57 765,239.5C 769.788,237.072 774.622,235.406 779.5,234.5C 781.444,235.189 783.444,235.689 785.5,236C 784.833,236.333 784.167,236.667 783.5,237C 784.554,238.388 784.72,239.888 784,241.5C 780.124,246.191 775.291,249.524 769.5,251.5C 768.808,250.975 768.308,250.308 768,249.5C 767,250.833 766,250.833 765,249.5C 764.411,251.863 762.911,252.863 760.5,252.5C 759.434,251.308 758.601,251.641 758,253.5C 756.542,252.253 755.042,252.253 753.5,253.5C 752.808,252.975 752.308,252.308 752,251.5C 749.646,251.892 747.146,251.892 744.5,251.5C 744.661,248.472 743.994,245.639 742.5,243C 743.077,239.944 743.743,236.944 744.5,234C 743.891,231.942 742.891,231.109 741.5,231.5C 742.415,230.672 743.081,229.672 743.5,228.5C 742.534,224.84 742.201,221.007 742.5,217C 743.167,216.333 743.833,215.667 744.5,215C 744.015,212.32 743.682,209.653 743.5,207C 744.167,205.667 744.833,204.333 745.5,203C 745.446,199.88 744.779,197.046 743.5,194.5C 744.167,193.833 744.833,193.167 745.5,192.5C 744.333,190.833 743.167,189.167 742,187.5C 738.407,188.237 734.907,188.404 731.5,188C 732.337,186.989 732.67,185.822 732.5,184.5C 731.5,184.5 730.5,184.5 729.5,184.5C 729.64,182.876 728.973,181.71 727.5,181C 730.894,177.883 734.727,175.383 739,173.5C 741.235,174.239 743.235,174.239 745,173.5C 745.345,160.225 745.179,147.392 744.5,135C 745.207,132.48 746.04,129.98 747,127.5C 750.097,126.127 752.263,127.127 753.5,130.5C 754.251,129.624 754.751,128.624 755,127.5C 755.833,129 757,130.167 758.5,131C 757.646,132.881 757.979,134.714 759.5,136.5C 758.833,137.833 758.167,139.167 757.5,140.5C 757.846,141.696 758.346,141.696 759,140.5C 759.492,141.549 759.326,142.549 758.5,143.5C 759.167,144.167 759.833,144.833 760.5,145.5C 759.873,146.417 759.539,147.417 759.5,148.5 Z"/></g>
<g><path style="opacity:0.098" fill="#000000" d="M 163.5,128.5 C 162.833,127.167 162.833,127.167 163.5,128.5 Z"/></g>
<g><path style="opacity:0.282" fill="#000000" d="M 445.5,129.5 C 444.5,129.5 443.5,129.5 442.5,129.5C 442.957,127.443 443.957,127.443 445.5,129.5 Z"/></g>
<g><path style="opacity:0.839" fill="#000000" d="M 163.5,128.5 C 170.89,128.88 177.223,131.38 182.5,136C 179.999,137.418 180.332,138.418 183.5,139C 183.167,139.333 182.833,139.667 182.5,140C 183.428,140.388 184.095,141.055 184.5,142C 185.353,144.133 185.686,146.133 185.5,148C 183.39,153.089 180.89,157.922 178,162.5C 176.989,161.663 175.822,161.33 174.5,161.5C 174.5,162.5 174.5,163.5 174.5,164.5C 171.188,164.993 168.021,165.993 165,167.5C 163.739,167.241 162.739,166.574 162,165.5C 161.667,166.167 161.333,166.833 161,167.5C 159.097,167.306 157.263,167.306 155.5,167.5C 155.167,167.833 154.833,168.167 154.5,168.5C 156.516,170.404 158.182,172.571 159.5,175C 157.806,176.939 155.973,178.772 154,180.5C 154,181.833 154,183.167 154,184.5C 152.184,182.559 150.184,181.892 148,182.5C 147.184,181.177 146.017,180.511 144.5,180.5C 141.464,174.909 137.631,169.909 133,165.5C 129.488,169.533 125.655,172.866 121.5,175.5C 121.5,176.5 121.5,177.5 121.5,178.5C 119.278,178.178 117.444,178.845 116,180.5C 115,177.5 114,174.5 113,171.5C 112.576,173.615 111.409,174.448 109.5,174C 110.103,172.175 110.77,170.341 111.5,168.5C 114.416,167.172 115.583,165.172 115,162.5C 117.349,162.165 119.015,160.499 120,157.5C 122.146,156.624 123.979,155.291 125.5,153.5C 125.291,152.914 124.957,152.414 124.5,152C 125.744,151.544 126.577,152.044 127,153.5C 131.048,147.135 135.048,140.802 139,134.5C 139.414,134.957 139.914,135.291 140.5,135.5C 142.174,133.487 144.174,131.82 146.5,130.5C 148.064,131.186 149.731,131.019 151.5,130C 150.304,129.346 150.304,128.846 151.5,128.5C 155.656,128.755 159.656,128.755 163.5,128.5 Z M 163.5,142.5 C 165.5,143.167 167.5,143.833 169.5,144.5C 170.96,146.424 170.626,148.091 168.5,149.5C 165.47,150.432 162.637,151.765 160,153.5C 158.494,150.526 156.828,150.193 155,152.5C 152.144,152.127 149.31,150.961 146.5,149C 147.705,147.624 149.038,146.458 150.5,145.5C 151.315,146.837 152.482,147.837 154,148.5C 155.509,148.077 157.009,146.91 158.5,145C 159.784,144.316 160.951,144.483 162,145.5C 163.039,144.756 163.539,143.756 163.5,142.5 Z"/></g>
<g><path style="opacity:0.844" fill="#000000" d="M 256.5,248.5 C 256.103,247.475 255.437,247.308 254.5,248C 253.226,248.977 253.226,249.811 254.5,250.5C 252.59,252.562 250.257,254.062 247.5,255C 249.513,255.875 249.513,257.209 247.5,259C 246.062,259.219 244.729,259.719 243.5,260.5C 244.666,263.184 243.833,265.184 241,266.5C 240.612,265.572 239.945,264.905 239,264.5C 237.128,265.068 235.295,265.735 233.5,266.5C 229.266,262.386 228.933,257.719 232.5,252.5C 234.215,250.29 236.381,248.624 239,247.5C 242.091,242.986 245.425,238.653 249,234.5C 249.483,233.552 249.649,232.552 249.5,231.5C 250.5,231.5 251.5,231.5 252.5,231.5C 253.172,228.65 254.839,226.483 257.5,225C 257.167,224.667 256.833,224.333 256.5,224C 262.317,220.286 266.983,214.786 270.5,207.5C 274.386,206.412 274.386,205.579 270.5,205C 271.167,204.667 271.833,204.333 272.5,204C 271.313,202.981 270.313,201.814 269.5,200.5C 271.045,197.803 270.379,195.803 267.5,194.5C 267.977,193.522 268.643,192.689 269.5,192C 265.245,187.838 263.079,182.671 263,176.5C 262.031,174.266 260.698,172.266 259,170.5C 258.788,168.22 257.955,166.22 256.5,164.5C 256.709,163.914 257.043,163.414 257.5,163C 255.006,161.054 254.339,158.721 255.5,156C 254.833,154.333 254.167,152.667 253.5,151C 254.167,150.333 254.833,149.667 255.5,149C 254.446,147.612 254.28,146.112 255,144.5C 255.333,145.5 255.667,146.5 256,147.5C 257.074,146.382 258.24,145.382 259.5,144.5C 258.494,143.604 258.494,142.938 259.5,142.5C 261.146,143.779 262.313,145.445 263,147.5C 263.333,147.167 263.667,146.833 264,146.5C 271.229,166.186 278.229,185.519 285,204.5C 285.465,205.931 286.299,207.097 287.5,208C 286.788,209.425 286.621,210.925 287,212.5C 286.667,212.167 286.333,211.833 286,211.5C 285.667,212.5 285.333,213.5 285,214.5C 283.927,213.72 282.76,213.887 281.5,215C 282.183,217.983 280.849,219.983 277.5,221C 278.956,221.423 279.456,222.256 279,223.5C 278.107,222.289 277.274,222.289 276.5,223.5C 273.42,227.975 270.087,232.308 266.5,236.5C 265.914,236.291 265.414,235.957 265,235.5C 263.057,239.608 260.224,242.942 256.5,245.5C 257.653,246.687 257.653,247.687 256.5,248.5 Z"/></g>
<g><path style="opacity:0.494" fill="#000000" d="M 417.5,143.5 C 418.833,144.167 418.833,144.167 417.5,143.5 Z"/></g>
<g><path style="opacity:0.655" fill="#000000" d="M 431.5,146.5 C 432.833,147.167 432.833,147.167 431.5,146.5 Z"/></g>
<g><path style="opacity:0.396" fill="#000000" d="M 431.5,147.5 C 431.5,148.167 431.5,148.833 431.5,149.5C 430.833,149.5 430.167,149.5 429.5,149.5C 429.833,148.5 430.5,147.833 431.5,147.5 Z"/></g>
<g><path style="opacity:0.302" fill="#000000" d="M 759.5,148.5 C 760.833,149.167 760.833,149.167 759.5,148.5 Z"/></g>
<g><path style="opacity:0.224" fill="#000000" d="M 758.5,150.5 C 759.833,151.167 759.833,151.167 758.5,150.5 Z"/></g>
<g><path style="opacity:0.353" fill="#000000" d="M 65.5,155.5 C 66.8333,156.167 66.8333,156.167 65.5,155.5 Z"/></g>
<g><path style="opacity:0.076" fill="#000000" d="M 759.5,155.5 C 760.525,155.897 760.692,156.563 760,157.5C 759.536,156.906 759.369,156.239 759.5,155.5 Z"/></g>
<g><path style="opacity:0.149" fill="#000000" d="M 51.5,169.5 C 52.8333,170.167 52.8333,170.167 51.5,169.5 Z"/></g>
<g><path style="opacity:0.112" fill="#000000" d="M 108.5,169.5 C 109.573,170.251 109.74,171.251 109,172.5C 108.517,171.552 108.351,170.552 108.5,169.5 Z"/></g>
<g><path style="opacity:0.357" fill="#000000" d="M 637.5,175.5 C 638.833,176.167 638.833,176.167 637.5,175.5 Z"/></g>
<g><path style="opacity:0.845" fill="#000000" d="M 705.5,228.5 C 703.609,229.536 701.776,229.536 700,228.5C 698.27,230.602 696.437,230.435 694.5,228C 694.833,227.667 695.167,227.333 695.5,227C 694.258,226.689 693.258,227.189 692.5,228.5C 686.736,224.915 686.069,220.582 690.5,215.5C 691.425,214.359 692.259,214.359 693,215.5C 694,214.5 695,213.5 696,212.5C 702.059,217.278 706.892,216.278 710.5,209.5C 709.563,206.295 708.063,202.962 706,199.5C 702.883,196.543 699.883,194.21 697,192.5C 693.782,195.498 690.282,197.998 686.5,200C 687.554,201.388 687.72,202.888 687,204.5C 686.586,204.043 686.086,203.709 685.5,203.5C 684.784,205.482 683.617,207.149 682,208.5C 680.085,211.235 678.918,214.235 678.5,217.5C 675.954,218.979 675.954,220.479 678.5,222C 677.128,223.242 676.128,224.742 675.5,226.5C 675.846,227.696 676.346,227.696 677,226.5C 677.564,228.562 677.064,230.395 675.5,232C 678.565,236.745 682.065,241.245 686,245.5C 689.531,245.087 692.531,246.421 695,249.5C 695.667,248.833 696.333,248.167 697,247.5C 698.113,248.711 699.28,248.711 700.5,247.5C 702.5,250.167 704.5,250.167 706.5,247.5C 707.086,247.709 707.586,248.043 708,248.5C 709.65,247.109 710.15,245.609 709.5,244C 710.449,243.383 711.282,243.549 712,244.5C 714.021,241.343 716.688,240.01 720,240.5C 720.333,239.5 720.667,238.5 721,237.5C 721.318,239.061 722.151,240.228 723.5,241C 722.5,241.333 721.5,241.667 720.5,242C 723.202,243.813 723.536,245.646 721.5,247.5C 721.709,248.086 722.043,248.586 722.5,249C 720.12,251.756 718.286,254.922 717,258.5C 713.169,259.505 709.669,260.838 706.5,262.5C 689.821,265.036 676.655,259.37 667,245.5C 666.667,245.833 666.333,246.167 666,246.5C 665.405,245.101 665.572,243.768 666.5,242.5C 666.043,241.702 665.376,241.369 664.5,241.5C 663.367,237.206 662.7,233.039 662.5,229C 663.921,226.157 664.921,223.157 665.5,220C 662.875,218.607 662.875,217.441 665.5,216.5C 666.692,215.434 666.359,214.601 664.5,214C 666.158,213.275 666.658,212.108 666,210.5C 664.488,211.257 663.154,212.257 662,213.5C 660.414,212.624 658.914,211.624 657.5,210.5C 657.9,207.93 657.234,205.43 655.5,203C 656.893,201.699 657.393,200.199 657,198.5C 651.59,193.278 645.09,190.778 637.5,191C 634.198,195.387 633.865,199.887 636.5,204.5C 635.167,204.833 635.167,205.167 636.5,205.5C 637.783,207.606 638.616,209.94 639,212.5C 640.84,211.167 641.34,211.334 640.5,213C 641.191,214.067 641.691,215.234 642,216.5C 644.443,219.481 646.276,222.481 647.5,225.5C 646.624,225.369 645.957,225.702 645.5,226.5C 647.386,227.93 649.053,229.597 650.5,231.5C 650.167,232.167 649.833,232.833 649.5,233.5C 651.415,237.331 652.415,241.165 652.5,245C 651.833,245.667 651.167,246.333 650.5,247C 651.538,249.381 650.872,251.381 648.5,253C 649.167,253.333 649.833,253.667 650.5,254C 648.974,255.887 646.974,256.887 644.5,257C 645.993,258.156 645.826,258.99 644,259.5C 643.228,259.355 642.561,259.022 642,258.5C 640.636,259.696 639.136,260.696 637.5,261.5C 635.946,260.628 634.612,260.628 633.5,261.5C 629.165,261.3 624.998,261.3 621,261.5C 619.739,261.241 618.739,260.574 618,259.5C 615.618,260.866 613.452,260.533 611.5,258.5C 610.833,258.833 610.167,259.167 609.5,259.5C 609.167,258.833 608.833,258.167 608.5,257.5C 607.914,257.709 607.414,258.043 607,258.5C 602.309,254.467 600.143,249.134 600.5,242.5C 602.646,239.238 604.146,239.238 605,242.5C 608.443,241.315 611.109,242.315 613,245.5C 614.147,244.542 615.147,244.875 616,246.5C 616.333,246.167 616.667,245.833 617,245.5C 619.333,246.5 621.667,247.5 624,248.5C 626.982,247.823 629.815,247.823 632.5,248.5C 634.586,247.511 636.253,246.178 637.5,244.5C 638.942,242.183 638.608,240.016 636.5,238C 637.517,236.951 637.684,235.784 637,234.5C 633.106,225.85 628.773,217.517 624,209.5C 622.881,206.943 622.715,204.443 623.5,202C 623.045,199.688 622.045,197.688 620.5,196C 622.569,195.676 622.902,194.842 621.5,193.5C 622.188,190.217 623.188,187.051 624.5,184C 624.167,183.667 623.833,183.333 623.5,183C 624.987,180.515 626.821,178.348 629,176.5C 629.308,177.308 629.808,177.975 630.5,178.5C 631.5,177.833 632.5,177.167 633.5,176.5C 634.548,177.383 635.715,178.05 637,178.5C 641.617,178.747 646.283,178.747 651,178.5C 652.326,179.799 653.66,181.132 655,182.5C 656.406,181.332 657.572,181.665 658.5,183.5C 661.068,182.81 663.568,182.477 666,182.5C 667.07,185.242 668.57,187.742 670.5,190C 668.987,192.454 669.654,194.121 672.5,195C 671.5,196 670.5,197 669.5,198C 670.167,198.333 670.833,198.667 671.5,199C 670.446,200.388 670.28,201.888 671,203.5C 673.157,200.344 675.657,197.511 678.5,195C 678.167,194.667 677.833,194.333 677.5,194C 680.187,192.125 682.021,189.625 683,186.5C 686.782,185.002 690.449,182.669 694,179.5C 696.685,180.58 699.685,180.58 703,179.5C 704.897,179.896 706.397,180.896 707.5,182.5C 709.017,181.089 710.351,181.256 711.5,183C 710.833,183.333 710.167,183.667 709.5,184C 711.5,184.667 712.833,186 713.5,188C 714.448,188.483 715.448,188.649 716.5,188.5C 716.714,190.144 716.38,191.644 715.5,193C 715.833,193.167 716.167,193.333 716.5,193.5C 717.251,192.624 717.751,191.624 718,190.5C 719.793,195.13 721.959,199.963 724.5,205C 723.833,205.333 723.167,205.667 722.5,206C 723.576,207.726 723.743,209.559 723,211.5C 720.603,216.627 717.936,221.627 715,226.5C 713.293,225.862 711.46,225.862 709.5,226.5C 709.719,227.675 709.386,228.675 708.5,229.5C 707.667,228.5 706.833,227.5 706,226.5C 705.536,227.094 705.369,227.761 705.5,228.5 Z"/></g>
<g><path style="opacity:0.259" fill="#000000" d="M 646.5,177.5 C 647.833,178.167 647.833,178.167 646.5,177.5 Z"/></g>
<g><path style="opacity:0.047" fill="#000000" d="M 144.5,180.5 C 143.833,181.167 143.833,181.167 144.5,180.5 Z"/></g>
<g><path style="opacity:0.844" fill="#000000" d="M 588.5,186.5 C 589.209,187.404 590.209,187.737 591.5,187.5C 591.561,190.05 592.894,191.55 595.5,192C 594.167,193.84 594.334,194.34 596,193.5C 597.368,194.993 597.535,196.493 596.5,198C 597.167,198.667 597.833,199.333 598.5,200C 596.689,202.471 595.022,204.971 593.5,207.5C 590.361,209.803 587.361,212.303 584.5,215C 584.833,215.333 585.167,215.667 585.5,216C 584.451,216.492 583.451,216.326 582.5,215.5C 581.996,218.342 580.329,219.675 577.5,219.5C 576.925,221.202 576.092,222.869 575,224.5C 574.667,224.167 574.333,223.833 574,223.5C 572.601,224.227 571.101,224.727 569.5,225C 570.451,225.718 570.617,226.551 570,227.5C 567.885,228.379 565.551,228.379 563,227.5C 561.783,228.386 560.449,229.386 559,230.5C 555.593,230.133 552.093,229.967 548.5,230C 549.696,229.346 549.696,228.846 548.5,228.5C 546.549,229.256 544.716,229.589 543,229.5C 541.722,225.013 539.555,224.846 536.5,229C 537.833,229.667 537.833,230.333 536.5,231C 538.991,231.626 538.991,232.459 536.5,233.5C 537.946,235.618 538.613,237.951 538.5,240.5C 539.5,240.5 540.5,240.5 541.5,240.5C 542.257,244.263 544.59,246.763 548.5,248C 548.167,248.333 547.833,248.667 547.5,249C 548.672,249.419 549.672,250.085 550.5,251C 556.173,252.728 561.34,255.228 566,258.5C 566.308,257.692 566.808,257.025 567.5,256.5C 570.45,257.488 573.45,258.321 576.5,259C 577.313,260.314 578.313,261.481 579.5,262.5C 578.167,263.833 578.167,265.167 579.5,266.5C 578.224,267.645 576.891,267.645 575.5,266.5C 574.552,269.715 573.219,270.048 571.5,267.5C 569.546,268.68 567.379,269.346 565,269.5C 561.859,269.462 559.192,268.462 557,266.5C 555.715,266.95 554.548,267.617 553.5,268.5C 552.304,268.154 552.304,267.654 553.5,267C 551.167,266 548.833,265 546.5,264C 547.458,262.853 547.125,261.853 545.5,261C 543.833,260.667 542.167,260.333 540.5,260C 539.743,258.488 538.743,257.154 537.5,256C 534.213,254.687 531.213,252.854 528.5,250.5C 525.715,245.039 523.382,239.372 521.5,233.5C 520.941,231.04 521.608,228.707 523.5,226.5C 523.118,223.13 524.118,219.964 526.5,217C 526.043,216.586 525.709,216.086 525.5,215.5C 527.968,212.528 529.802,209.194 531,205.5C 534.131,201.901 537.631,199.067 541.5,197C 541.167,196.667 540.833,196.333 540.5,196C 541.973,195.29 542.64,194.124 542.5,192.5C 543.552,192.649 544.552,192.483 545.5,192C 544.346,191.086 544.513,190.253 546,189.5C 546.333,189.833 546.667,190.167 547,190.5C 549.009,187.742 551.009,187.408 553,189.5C 553.271,185.87 554.938,184.87 558,186.5C 558.333,185.833 558.667,185.167 559,184.5C 560.268,184.616 561.602,184.949 563,185.5C 567.702,184.56 572.202,183.894 576.5,183.5C 580.697,184.908 584.697,185.908 588.5,186.5 Z M 579.5,195.5 C 580.848,196.527 581.348,197.86 581,199.5C 575.667,205.634 570.334,210.968 565,215.5C 563.387,214.378 562.22,214.878 561.5,217C 558.685,218.582 556.185,218.415 554,216.5C 552.271,218.434 550.271,218.434 548,216.5C 546.415,217.376 545.415,218.709 545,220.5C 543.445,217.887 543.611,215.221 545.5,212.5C 545.291,211.914 544.957,211.414 544.5,211C 547.5,207.833 550.5,204.667 553.5,201.5C 554.086,201.709 554.586,202.043 555,202.5C 555.284,200.114 556.284,199.448 558,200.5C 560.311,198.89 562.811,197.557 565.5,196.5C 569.857,196.238 574.024,196.572 578,197.5C 578.717,196.956 579.217,196.289 579.5,195.5 Z M 539.5,221.5 C 537.24,220.762 537.073,219.762 539,218.5C 539.483,219.448 539.649,220.448 539.5,221.5 Z M 539.5,221.5 C 540.363,220.537 541.03,220.537 541.5,221.5C 540.743,222.773 540.077,222.773 539.5,221.5 Z"/></g>
<g><path style="opacity:0.216" fill="#000000" d="M 771.5,184.5 C 772.833,185.167 772.833,185.167 771.5,184.5 Z"/></g>
<g><path style="opacity:0.075" fill="#000000" d="M 588.5,185.5 C 589.833,186.167 589.833,186.167 588.5,185.5 Z"/></g>
<g><path style="opacity:0.376" fill="#000000" d="M 767.5,188.5 C 768.833,189.167 768.833,189.167 767.5,188.5 Z"/></g>
<g><path style="opacity:0.067" fill="#000000" d="M 168.5,189.5 C 170.337,189.639 170.67,190.306 169.5,191.5C 168.702,191.043 168.369,190.376 168.5,189.5 Z"/></g>
<g><path style="opacity:0.012" fill="#000000" d="M 163.5,193.5 C 163.897,192.475 164.563,192.308 165.5,193C 164.906,193.464 164.239,193.631 163.5,193.5 Z"/></g>
<g><path style="opacity:0.137" fill="#000000" d="M 170.5,192.5 C 171.833,193.167 171.833,193.167 170.5,192.5 Z"/></g>
<g><path style="opacity:0.804" fill="#000000" d="M 94.5,199.5 C 101.428,199.094 108.261,199.094 115,199.5C 116.333,200.167 117.333,201.167 118,202.5C 118.689,201.643 119.522,200.977 120.5,200.5C 122.737,200.694 124.903,200.694 127,200.5C 127.308,201.308 127.808,201.975 128.5,202.5C 129.72,201.289 130.887,201.289 132,202.5C 132.915,201.672 133.581,200.672 134,199.5C 135.507,201.008 137.173,202.341 139,203.5C 139.999,199.763 141.332,199.763 143,203.5C 143.308,202.692 143.808,202.025 144.5,201.5C 145.77,202.562 146.937,203.562 148,204.5C 154.006,203.168 159.672,203.168 165,204.5C 166.205,205.071 167.372,205.738 168.5,206.5C 168.64,207.903 168.64,209.403 168.5,211C 173.206,210.774 174.039,211.941 171,214.5C 170.667,215.833 170.333,217.167 170,218.5C 169.667,218.167 169.333,217.833 169,217.5C 164.81,220.936 160.31,221.269 155.5,218.5C 153.602,219.734 151.935,219.401 150.5,217.5C 148.518,218.623 146.518,218.623 144.5,217.5C 144.167,216.167 143.833,216.167 143.5,217.5C 142.348,216.375 141.348,216.375 140.5,217.5C 138.983,217.489 137.816,216.823 137,215.5C 133.45,215.572 129.95,215.905 126.5,216.5C 122.966,215.869 119.466,215.202 116,214.5C 113.58,215.488 111.247,215.155 109,213.5C 102.6,213.695 96.433,214.029 90.5,214.5C 89.4826,211.972 88.3159,211.972 87,214.5C 82.2966,214.199 77.63,212.866 73,210.5C 70.1831,210.923 67.3498,211.256 64.5,211.5C 60.3825,211.183 56.5492,210.183 53,208.5C 51.5124,210.82 49.6791,210.987 47.5,209C 48.3402,207.334 47.8402,207.167 46,208.5C 45.1667,207 44,205.833 42.5,205C 44.9913,204.374 44.9913,203.541 42.5,202.5C 43.5312,201.3 44.3645,199.966 45,198.5C 47.3909,199.602 47.8909,198.936 46.5,196.5C 47.2739,195.289 48.1072,195.289 49,196.5C 49.9336,193.035 51.4336,192.702 53.5,195.5C 59.1696,196.001 64.6696,196.001 70,195.5C 72.0105,199.002 73.3439,199.002 74,195.5C 77.4621,195.983 77.9621,197.15 75.5,199C 76.9961,199.507 78.1627,199.007 79,197.5C 80.851,199.781 82.5177,199.781 84,197.5C 84.9147,198.328 85.5814,199.328 86,200.5C 87.3799,197.942 88.8799,197.942 90.5,200.5C 91.9049,200.24 93.2382,199.907 94.5,199.5 Z"/></g>
<g><path style="opacity:0.22" fill="#000000" d="M 598.5,197.5 C 599.833,198.167 599.833,198.167 598.5,197.5 Z"/></g>
<g><path style="opacity:0.333" fill="#000000" d="M 94.5,199.5 C 93.8333,198.167 93.8333,198.167 94.5,199.5 Z"/></g>
<g><path style="opacity:0.071" fill="#000000" d="M 636.5,204.5 C 637.833,205.167 637.833,205.167 636.5,204.5 Z"/></g>
<g><path style="opacity:0.051" fill="#000000" d="M 211.5,205.5 C 210.833,206.167 210.833,206.167 211.5,205.5 Z"/></g>
<g><path style="opacity:0.047" fill="#000000" d="M 169.5,206.5 C 170.833,207.167 170.833,207.167 169.5,206.5 Z"/></g>
<g><path style="opacity:0.09" fill="#000000" d="M 593.5,207.5 C 594.833,208.167 594.833,208.167 593.5,207.5 Z"/></g>
<g><path style="opacity:0.818" fill="#000000" d="M 42.5,208.5 C 44.4119,209.98 45.5785,211.98 46,214.5C 46.3173,212.699 46.984,212.366 48,213.5C 48.9285,217.244 48.4285,220.744 46.5,224C 48.2826,225.067 48.7826,226.567 48,228.5C 43.946,238.884 38.6127,248.55 32,257.5C 31.3162,258.784 31.4829,259.951 32.5,261C 31.1198,262.324 30.7865,263.657 31.5,265C 29.992,266.507 28.6587,268.173 27.5,270C 27.8333,270.333 28.1667,270.667 28.5,271C 26.2089,272.857 23.8756,274.023 21.5,274.5C 19.6698,274.224 18.0032,273.557 16.5,272.5C 17.8333,271.167 17.8333,269.833 16.5,268.5C 16.9815,262.869 18.6482,257.369 21.5,252C 21.1667,251.667 20.8333,251.333 20.5,251C 21.9675,249.902 22.8008,248.402 23,246.5C 23.9025,245.299 25.0692,244.465 26.5,244C 25.5494,243.282 25.3828,242.449 26,241.5C 31.3239,235.961 34.3239,229.295 35,221.5C 35.7504,220.874 36.5838,220.374 37.5,220C 37.0958,217.731 36.9291,215.231 37,212.5C 39.4632,211.968 41.2965,210.634 42.5,208.5 Z"/></g>
<g><path style="opacity:0.838" fill="#000000" d="M 431.5,223.5 C 431.528,225.582 430.861,227.416 429.5,229C 430.167,229.333 430.833,229.667 431.5,230C 431.6,233.643 430.933,236.976 429.5,240C 430.094,240.464 430.761,240.631 431.5,240.5C 431.439,242.592 430.439,244.092 428.5,245C 429.5,245.833 430.5,246.667 431.5,247.5C 430.359,248.425 430.359,249.259 431.5,250C 429.071,250.451 428.904,251.285 431,252.5C 431.743,254.441 431.576,256.274 430.5,258C 431.357,258.689 432.023,259.522 432.5,260.5C 431.265,262.316 431.265,263.983 432.5,265.5C 433.392,269.616 435.058,273.783 437.5,278C 437.167,278.333 436.833,278.667 436.5,279C 437.416,279.374 438.25,279.874 439,280.5C 441.589,286.05 444.922,291.05 449,295.5C 449.333,295.167 449.667,294.833 450,294.5C 450.772,295.849 451.939,296.682 453.5,297C 451.699,297.317 451.366,297.984 452.5,299C 453.549,299.492 454.549,299.326 455.5,298.5C 456.597,300.229 457.763,301.896 459,303.5C 459.718,302.549 460.551,302.383 461.5,303C 462.622,305.124 464.122,306.957 466,308.5C 466.414,308.043 466.914,307.709 467.5,307.5C 476.288,312.486 485.622,317.486 495.5,322.5C 496.167,322.167 496.833,321.833 497.5,321.5C 500.196,323.838 503.029,325.171 506,325.5C 506.333,324.833 506.667,324.167 507,323.5C 508,324.5 509,325.5 510,326.5C 513.3,326.65 516.633,326.65 520,326.5C 520.677,328.689 521.844,329.022 523.5,327.5C 525.811,328.214 527.978,329.214 530,330.5C 531.791,328.487 533.125,328.487 534,330.5C 538.422,330.355 542.755,330.355 547,330.5C 547.333,331.167 547.667,331.833 548,332.5C 550.469,332.288 552.969,331.955 555.5,331.5C 556.672,331.919 557.672,332.585 558.5,333.5C 559.192,332.975 559.692,332.308 560,331.5C 562.349,331.516 564.682,331.516 567,331.5C 568.032,333.145 569.199,333.478 570.5,332.5C 571.748,333.04 572.915,333.707 574,334.5C 576.066,331.868 578.566,331.201 581.5,332.5C 583.055,332.278 584.389,331.611 585.5,330.5C 589.25,330.312 593.084,330.645 597,331.5C 597.739,330.426 598.739,329.759 600,329.5C 604.158,329.991 607.991,329.991 611.5,329.5C 613.124,329.64 614.29,328.973 615,327.5C 615.308,328.308 615.808,328.975 616.5,329.5C 617.425,328.359 618.259,328.359 619,329.5C 620.682,327.446 622.349,327.779 624,330.5C 624.419,329.328 625.085,328.328 626,327.5C 629.188,327.151 632.355,327.818 635.5,329.5C 636.696,329.154 636.696,328.654 635.5,328C 636.5,327.5 637.5,327 638.5,326.5C 640.371,327.767 642.204,327.767 644,326.5C 644.333,327.167 644.667,327.833 645,328.5C 646.194,326.475 647.694,326.141 649.5,327.5C 651.091,325.014 653.091,324.348 655.5,325.5C 657.088,324.99 658.255,323.99 659,322.5C 659.308,323.308 659.808,323.975 660.5,324.5C 661.425,323.359 662.259,323.359 663,324.5C 665.305,321.39 667.805,321.057 670.5,323.5C 671.298,323.043 671.631,322.376 671.5,321.5C 673.47,320.838 675.47,320.172 677.5,319.5C 679.367,322.229 680.367,321.896 680.5,318.5C 682.591,318.318 684.591,318.652 686.5,319.5C 687.333,318.5 688.167,317.5 689,316.5C 690.943,317.807 692.777,317.807 694.5,316.5C 698.837,316.217 702.504,314.551 705.5,311.5C 708.103,312.239 710.436,312.239 712.5,311.5C 715.968,308.454 719.968,306.287 724.5,305C 725.584,302.175 726.751,302.008 728,304.5C 730.237,302.719 732.237,300.719 734,298.5C 734.333,299.167 734.667,299.833 735,300.5C 736.558,297.65 738.724,296.65 741.5,297.5C 742.142,294.203 743.309,293.869 745,296.5C 745.249,295.376 745.749,294.376 746.5,293.5C 749.817,292.934 752.317,291.267 754,288.5C 754.333,288.833 754.667,289.167 755,289.5C 757.419,287.415 760.253,286.415 763.5,286.5C 763.5,285.167 763.5,283.833 763.5,282.5C 765.39,282.297 766.89,282.963 768,284.5C 768.561,282.275 769.561,280.275 771,278.5C 771.333,278.833 771.667,279.167 772,279.5C 772.419,278.328 773.085,277.328 774,276.5C 774.368,277.91 775.201,278.91 776.5,279.5C 777.506,279.062 777.506,278.396 776.5,277.5C 778.833,275.833 780.833,273.833 782.5,271.5C 784.451,272.256 786.284,272.589 788,272.5C 788.464,271.906 788.631,271.239 788.5,270.5C 792.322,265.791 797.322,262.957 803.5,262C 801.299,261.223 801.299,260.056 803.5,258.5C 804.478,258.977 805.311,259.643 806,260.5C 808.152,258.188 810.152,258.522 812,261.5C 813.613,260.378 814.78,260.878 815.5,263C 814.944,263.383 814.611,263.883 814.5,264.5C 813.167,264.833 813.167,265.167 814.5,265.5C 815.209,266.404 816.209,266.737 817.5,266.5C 817.188,263.112 818.521,260.612 821.5,259C 820.551,258.383 819.718,258.549 819,259.5C 818.691,258.234 818.191,257.067 817.5,256C 818.574,255.261 819.241,254.261 819.5,253C 818.333,250.833 817.167,248.667 816,246.5C 815.667,247.5 815.333,248.5 815,249.5C 814.667,249.167 814.333,248.833 814,248.5C 808.018,251.716 802.351,254.716 797,257.5C 793.877,254.667 790.377,253.834 786.5,255C 788.891,254.309 788.891,253.309 786.5,252C 787.525,249.929 788.358,247.762 789,245.5C 796.432,242.784 803.766,239.118 811,234.5C 811.333,234.833 811.667,235.167 812,235.5C 813.444,233.845 815.278,233.178 817.5,233.5C 817.56,234.043 817.893,234.376 818.5,234.5C 820.149,233.294 821.649,231.961 823,230.5C 824.079,232.394 825.413,232.727 827,231.5C 829.726,235.507 832.226,239.674 834.5,244C 832.388,245.217 832.721,246.383 835.5,247.5C 835.5,247.833 835.5,248.167 835.5,248.5C 834.78,252.7 834.114,257.033 833.5,261.5C 834.626,263.95 833.959,265.95 831.5,267.5C 832.374,269.705 831.708,271.538 829.5,273C 830.022,273.561 830.355,274.228 830.5,275C 827.469,277.903 827.135,280.903 829.5,284C 828.809,285.067 828.309,286.234 828,287.5C 825.464,287.142 822.798,287.142 820,287.5C 817.575,286.739 816.242,285.072 816,282.5C 815.667,282.833 815.333,283.167 815,283.5C 814.5,282.5 814,281.5 813.5,280.5C 814.279,277.324 815.279,274.157 816.5,271C 816,270.5 815.5,270 815,269.5C 795.092,284.036 773.925,296.536 751.5,307C 748.511,309.381 745.344,311.548 742,313.5C 740.913,311.068 740.413,311.402 740.5,314.5C 733.668,316.087 727.501,319.087 722,323.5C 721.586,323.043 721.086,322.709 720.5,322.5C 717.265,323.762 714.098,325.095 711,326.5C 710.228,326.355 709.561,326.022 709,325.5C 707.782,327.019 706.282,328.186 704.5,329C 701.633,328.756 698.633,329.089 695.5,330C 691.548,331.929 687.548,333.762 683.5,335.5C 682.252,334.96 681.085,334.293 680,333.5C 679.683,335.301 679.016,335.634 678,334.5C 675.282,335.347 672.616,336.347 670,337.5C 668.605,336.185 667.605,336.519 667,338.5C 665.602,337.949 664.268,337.616 663,337.5C 659.232,339.424 655.399,340.091 651.5,339.5C 647.154,340.643 642.82,341.643 638.5,342.5C 630.409,342.82 622.409,342.82 614.5,342.5C 612.389,345.044 610.222,345.044 608,342.5C 607,343.167 606,343.833 605,344.5C 602.437,344.659 599.77,344.325 597,343.5C 595.316,345.459 593.316,345.459 591,343.5C 588.667,344.877 586.167,345.877 583.5,346.5C 577.271,345.569 570.771,345.236 564,345.5C 563.283,346.044 562.783,346.711 562.5,347.5C 562.167,347.5 561.833,347.5 561.5,347.5C 560.5,344.833 559.5,344.833 558.5,347.5C 558.167,347.5 557.833,347.5 557.5,347.5C 555.622,345.491 553.456,345.158 551,346.5C 542.666,343.399 534.333,342.399 526,343.5C 524.524,340.568 522.857,340.234 521,342.5C 518.733,341.711 516.4,341.044 514,340.5C 513.055,340.095 512.388,339.428 512,338.5C 510.201,338.721 508.368,339.054 506.5,339.5C 486.74,333.956 468.407,325.122 451.5,313C 450.551,312.383 449.718,312.549 449,313.5C 447.356,310.689 445.19,308.356 442.5,306.5C 441.719,305.271 441.219,303.938 441,302.5C 440.086,303.654 439.253,303.487 438.5,302C 438.833,301.667 439.167,301.333 439.5,301C 438.5,300.667 437.5,300.333 436.5,300C 436.833,299.667 437.167,299.333 437.5,299C 435.779,298.261 434.113,297.427 432.5,296.5C 428.27,287.325 423.937,278.159 419.5,269C 419.735,268.127 420.069,267.293 420.5,266.5C 418.884,260.766 417.551,254.933 416.5,249C 419.156,246.353 419.156,243.686 416.5,241C 417.24,239.215 417.907,237.382 418.5,235.5C 417.975,234.808 417.308,234.308 416.5,234C 419.011,231.309 419.011,228.642 416.5,226C 418.62,223.133 418.62,220.133 416.5,217C 417.339,214.717 419.006,212.55 421.5,210.5C 423.488,211.289 423.821,212.455 422.5,214C 426.197,212.354 428.863,213.854 430.5,218.5C 430.154,219.696 429.654,219.696 429,218.5C 429.148,219.825 428.982,220.992 428.5,222C 429.527,222.513 430.527,223.013 431.5,223.5 Z M 812.5,267.5 C 815.001,267.511 815.168,268.178 813,269.5C 812.536,268.906 812.369,268.239 812.5,267.5 Z M 681.5,320.5 C 684.001,320.511 684.168,321.178 682,322.5C 681.536,321.906 681.369,321.239 681.5,320.5 Z M 589.5,332.5 C 590.077,331.227 590.743,331.227 591.5,332.5C 591.03,333.463 590.363,333.463 589.5,332.5 Z"/></g>
<g><path style="opacity:0.22" fill="#000000" d="M 204.5,212.5 C 204.833,212.5 205.167,212.5 205.5,212.5C 205.315,213.17 204.981,213.17 204.5,212.5 Z"/></g>
<g><path style="opacity:0.486" fill="#000000" d="M 665.5,216.5 C 664.833,215.167 664.833,215.167 665.5,216.5 Z"/></g>
<g><path style="opacity:0.31" fill="#000000" d="M 140.5,217.5 C 141.833,218.167 141.833,218.167 140.5,217.5 Z"/></g>
<g><path style="opacity:0.176" fill="#000000" d="M 143.5,217.5 C 143.833,217.5 144.167,217.5 144.5,217.5C 144.315,218.17 143.981,218.17 143.5,217.5 Z"/></g>
<g><path style="opacity:0.031" fill="#000000" d="M 678.5,217.5 C 679.833,218.167 679.833,218.167 678.5,217.5 Z"/></g>
<g><path style="opacity:0.349" fill="#000000" d="M 677.5,219.5 C 678.833,220.167 678.833,220.167 677.5,219.5 Z"/></g>
<g><path style="opacity:0.071" fill="#000000" d="M 431.5,222.5 C 432.833,223.167 432.833,223.167 431.5,222.5 Z"/></g>
<g><path style="opacity:0.378" fill="#000000" d="M 207.5,227.5 C 206.475,227.103 206.308,226.437 207,225.5C 207.464,226.094 207.631,226.761 207.5,227.5 Z"/></g>
<g><path style="opacity:0.031" fill="#000000" d="M 647.5,225.5 C 648.833,226.167 648.833,226.167 647.5,225.5 Z"/></g>
<g><path style="opacity:0.145" fill="#000000" d="M 207.5,228.5 C 207.5,228.167 207.5,227.833 207.5,227.5C 208.363,226.537 209.03,226.537 209.5,227.5C 209.043,228.298 208.376,228.631 207.5,228.5 Z"/></g>
<g><path style="opacity:0.824" fill="#000000" d="M 207.5,228.5 C 208.446,229.931 209.612,231.264 211,232.5C 211.273,234.101 211.773,235.601 212.5,237C 212.043,237.414 211.709,237.914 211.5,238.5C 213.87,240.688 214.537,243.188 213.5,246C 214.502,247.672 215.668,248.838 217,249.5C 217.658,251.108 217.158,252.275 215.5,253C 217,253.833 218.167,255 219,256.5C 219.236,259.208 220.069,261.708 221.5,264C 221.265,264.873 220.931,265.707 220.5,266.5C 222.076,268.577 224.076,270.077 226.5,271C 224.861,274.098 223.527,277.264 222.5,280.5C 221.209,280.263 220.209,280.596 219.5,281.5C 218.167,281.833 218.167,282.167 219.5,282.5C 219.483,284.028 218.816,284.528 217.5,284C 210.344,278.187 206.51,270.687 206,261.5C 204.006,256.488 201.839,251.654 199.5,247C 199.5,244.667 199.5,242.333 199.5,240C 197.38,238.477 197.047,236.644 198.5,234.5C 196.603,233.332 196.436,231.665 198,229.5C 198.333,230.167 198.667,230.833 199,231.5C 200.067,230.809 201.234,230.309 202.5,230C 203.833,229.333 203.833,228.667 202.5,228C 204.197,227.616 205.863,227.782 207.5,228.5 Z"/></g>
<g><path style="opacity:0.161" fill="#000000" d="M 539.5,227.5 C 540.833,228.167 540.833,228.167 539.5,227.5 Z"/></g>
<g><path style="opacity:0.631" fill="#000000" d="M 200.5,228.5 C 201.833,229.167 201.833,229.167 200.5,228.5 Z"/></g>
<g><path style="opacity:0.271" fill="#000000" d="M 705.5,228.5 C 706.833,229.167 706.833,229.167 705.5,228.5 Z"/></g>
<g><path style="opacity:0.133" fill="#000000" d="M 676.5,231.5 C 677.833,232.167 677.833,232.167 676.5,231.5 Z"/></g>
<g><path style="opacity:0.498" fill="#000000" d="M 817.5,232.5 C 818.833,233.167 818.833,233.167 817.5,232.5 Z"/></g>
<g><path style="opacity:0.008" fill="#000000" d="M 431.5,239.5 C 432.833,240.167 432.833,240.167 431.5,239.5 Z"/></g>
<g><path style="opacity:0.159" fill="#000000" d="M 600.5,242.5 C 599.475,242.103 599.308,241.437 600,240.5C 600.464,241.094 600.631,241.761 600.5,242.5 Z"/></g>
<g><path style="opacity:0.241" fill="#000000" d="M 637.5,244.5 C 636.427,243.749 636.26,242.749 637,241.5C 637.483,242.448 637.649,243.448 637.5,244.5 Z"/></g>
<g><path style="opacity:0.125" fill="#000000" d="M 664.5,241.5 C 663.833,242.167 663.833,242.167 664.5,241.5 Z"/></g>
<g><path style="opacity:0.267" fill="#000000" d="M 256.5,248.5 C 256.5,249.833 255.833,250.5 254.5,250.5C 254.833,249.5 255.5,248.833 256.5,248.5 Z"/></g>
<g><path style="opacity:0.375" fill="#000000" d="M 785.5,248.5 C 786.525,248.897 786.692,249.563 786,250.5C 785.536,249.906 785.369,249.239 785.5,248.5 Z"/></g>
<g><path style="opacity:0.259" fill="#000000" d="M 760.5,252.5 C 759.833,253.167 759.833,253.167 760.5,252.5 Z"/></g>
<g><path style="opacity:0.247" fill="#000000" d="M 755.5,253.5 C 756.833,254.167 756.833,254.167 755.5,253.5 Z"/></g>
<g><path style="opacity:0.055" fill="#000000" d="M 784.5,253.5 C 785.833,254.167 785.833,254.167 784.5,253.5 Z"/></g>
<g><path style="opacity:0.118" fill="#000000" d="M 535.5,256.5 C 536.833,257.167 536.833,257.167 535.5,256.5 Z"/></g>
<g><path style="opacity:0.4" fill="#000000" d="M 227.5,259.5 C 228.833,260.167 228.833,260.167 227.5,259.5 Z"/></g>
<g><path style="opacity:0.067" fill="#000000" d="M 507.5,260.5 C 508.833,261.167 508.833,261.167 507.5,260.5 Z"/></g>
<g><path style="opacity:0.445" fill="#000000" d="M 633.5,261.5 C 634.525,261.897 634.692,262.563 634,263.5C 633.536,262.906 633.369,262.239 633.5,261.5 Z"/></g>
<g><path style="opacity:0.071" fill="#000000" d="M 706.5,262.5 C 707.833,263.167 707.833,263.167 706.5,262.5 Z"/></g>
<g><path style="opacity:0.114" fill="#000000" d="M 432.5,264.5 C 433.833,265.167 433.833,265.167 432.5,264.5 Z"/></g>
<g><path style="opacity:0.267" fill="#000000" d="M 814.5,264.5 C 815.833,265.167 815.833,265.167 814.5,264.5 Z"/></g>
<g><path style="opacity:0.247" fill="#000000" d="M 788.5,270.5 C 787.761,270.631 787.094,270.464 786.5,270C 787.437,269.308 788.103,269.475 788.5,270.5 Z"/></g>
<g><path style="opacity:0.814" fill="#000000" d="M 115.5,274.5 C 118.113,275.636 120.613,275.302 123,273.5C 123.853,275.125 124.853,275.458 126,274.5C 127.11,276.037 128.61,276.703 130.5,276.5C 130.351,275.448 130.517,274.448 131,273.5C 133.058,274.109 133.891,275.109 133.5,276.5C 134.518,275.807 135.518,275.141 136.5,274.5C 136.783,275.289 137.283,275.956 138,276.5C 140.333,276.5 142.667,276.5 145,276.5C 145.804,275.196 146.971,274.529 148.5,274.5C 154.937,275.624 161.437,275.624 168,274.5C 169.943,276.715 171.609,276.715 173,274.5C 174.729,276.434 176.729,276.434 179,274.5C 180.085,275.293 181.252,275.96 182.5,276.5C 184.804,276.691 187.138,276.357 189.5,275.5C 189.351,276.552 189.517,277.552 190,278.5C 191.5,275.108 193.333,274.441 195.5,276.5C 194.68,280.158 196.013,282.491 199.5,283.5C 195.673,290.489 190.173,292.489 183,289.5C 181.846,291.957 180.512,291.957 179,289.5C 178.667,290.167 178.333,290.833 178,291.5C 175.667,290.167 173.333,290.167 171,291.5C 170.333,290.833 169.667,290.167 169,289.5C 159.153,289.344 149.153,289.678 139,290.5C 137.667,289.833 136.333,289.167 135,288.5C 122.055,289.828 109.889,290.495 98.5,290.5C 98.7036,289.471 98.2036,288.471 97,287.5C 96.0197,288.981 94.853,290.315 93.5,291.5C 89.5879,291.366 85.7546,291.032 82,290.5C 81.3333,291.167 80.6667,291.833 80,292.5C 79,291.167 78,291.167 77,292.5C 75.54,290.578 73.8733,289.911 72,290.5C 70.9148,291.293 69.7481,291.96 68.5,292.5C 66.2753,291.899 64.1086,291.566 62,291.5C 58.9932,293.491 55.8265,293.491 52.5,291.5C 49.985,292.577 47.485,293.577 45,294.5C 44,293.833 43,293.167 42,292.5C 40.077,293.316 38.077,293.983 36,294.5C 25.9637,293.939 15.7971,293.939 5.5,294.5C 4.90405,293.284 4.73739,291.951 5,290.5C 2.60908,291.602 2.10908,290.936 3.5,288.5C 2.5,287.667 1.5,286.833 0.5,286C 2.72897,284.515 5.0623,283.182 7.5,282C 6.16667,281.333 6.16667,280.667 7.5,280C 9.13414,279.506 10.8008,279.34 12.5,279.5C 12.4592,283.243 13.1259,283.41 14.5,280C 16.6982,279.627 18.8649,279.127 21,278.5C 21.9454,278.905 22.6121,279.572 23,280.5C 23.6891,279.643 24.5224,278.977 25.5,278.5C 26.5984,279.615 27.7651,279.615 29,278.5C 31.075,280.623 33.075,280.29 35,277.5C 35.8333,278.5 36.6667,279.5 37.5,280.5C 37.4895,279.559 37.9895,278.892 39,278.5C 43.0358,279.299 46.8692,278.633 50.5,276.5C 53.7427,277.015 56.5761,278.348 59,280.5C 60,279.5 61,278.5 62,277.5C 62.3333,278.167 62.6667,278.833 63,279.5C 63.5954,275.918 64.9288,275.584 67,278.5C 68.2419,277.128 69.7419,276.128 71.5,275.5C 74.6492,278.106 77.8158,278.106 81,275.5C 82.2613,275.759 83.2613,276.426 84,277.5C 84.6667,274.833 85.3333,274.833 86,277.5C 86.9147,276.672 87.5814,275.672 88,274.5C 90.1969,276.731 92.5302,276.731 95,274.5C 96.3333,275.167 97.3333,276.167 98,277.5C 100.04,273.554 102.04,273.554 104,277.5C 104.417,276.244 105.25,275.577 106.5,275.5C 106.369,276.239 106.536,276.906 107,277.5C 108.706,276.692 109.539,275.359 109.5,273.5C 111.484,273.383 113.15,274.05 114.5,275.5C 115.107,275.376 115.44,275.043 115.5,274.5 Z"/></g>
<g><path style="opacity:0.4" fill="#000000" d="M 115.5,274.5 C 114.833,273.167 114.833,273.167 115.5,274.5 Z"/></g>
<g><path style="opacity:0.051" fill="#000000" d="M 136.5,273.5 C 137.833,274.167 137.833,274.167 136.5,273.5 Z"/></g>
<g><path style="opacity:0.212" fill="#000000" d="M 106.5,274.5 C 107.833,275.167 107.833,275.167 106.5,274.5 Z"/></g>
<g><path style="opacity:0.263" fill="#000000" d="M 128.5,274.5 C 129.833,275.167 129.833,275.167 128.5,274.5 Z"/></g>
<g><path style="opacity:0.233" fill="#000000" d="M 195.5,276.5 C 195.897,275.475 196.563,275.308 197.5,276C 196.906,276.464 196.239,276.631 195.5,276.5 Z"/></g>
<g><path style="opacity:0.329" fill="#000000" d="M 464.5,276.5 C 465.833,277.167 465.833,277.167 464.5,276.5 Z"/></g>
<g><path style="opacity:0.206" fill="#000000" d="M 219.5,282.5 C 219.5,282.167 219.5,281.833 219.5,281.5C 222.167,281.833 222.167,282.167 219.5,282.5 Z"/></g>
<g><path style="opacity:0.082" fill="#000000" d="M -0.5,287.5 C 0.833333,288.167 0.833333,288.167 -0.5,287.5 Z"/></g>
<g><path style="opacity:0.345" fill="#000000" d="M 707.5,310.5 C 708.833,311.167 708.833,311.167 707.5,310.5 Z"/></g>
<g><path style="opacity:0.039" fill="#000000" d="M 699.5,312.5 C 700.833,313.167 700.833,313.167 699.5,312.5 Z"/></g>
<g><path style="opacity:0.133" fill="#000000" d="M 694.5,316.5 C 693.833,315.167 693.833,315.167 694.5,316.5 Z"/></g>
<g><path style="opacity:0.424" fill="#000000" d="M 671.5,321.5 C 670.833,320.167 670.833,320.167 671.5,321.5 Z"/></g>
<g><path style="opacity:0.251" fill="#000000" d="M 611.5,329.5 C 610.833,328.167 610.833,328.167 611.5,329.5 Z"/></g>
<g><path style="opacity:0.055" fill="#000000" d="M 697.5,330.5 C 698.833,331.167 698.833,331.167 697.5,330.5 Z"/></g>
</svg>
