<?xml version="1.0" encoding="UTF-8"?>
<!DOCTYPE svg PUBLIC "-//W3C//DTD SVG 1.1//EN" "http://www.w3.org/Graphics/SVG/1.1/DTD/svg11.dtd">
<svg xmlns="http://www.w3.org/2000/svg" version="1.1" width="954px" height="416px" style="shape-rendering:geometricPrecision; text-rendering:geometricPrecision; image-rendering:optimizeQuality; fill-rule:evenodd; clip-rule:evenodd" xmlns:xlink="http://www.w3.org/1999/xlink">
<g><path style="opacity:0.337" fill="#000000" d="M 636.5,-0.5 C 636.833,-0.5 637.167,-0.5 637.5,-0.5C 637.5,-0.166667 637.5,0.166667 637.5,0.5C 637.167,0.166667 636.833,-0.166667 636.5,-0.5 Z"/></g>
<g><path style="opacity:0.831" fill="#000000" d="M 645.5,-0.5 C 647.167,-0.5 648.833,-0.5 650.5,-0.5C 651.167,0.833333 651.833,0.833333 652.5,-0.5C 654.167,-0.5 655.833,-0.5 657.5,-0.5C 657.833,0.833333 658.167,0.833333 658.5,-0.5C 659.167,-0.5 659.833,-0.5 660.5,-0.5C 661.167,0.833333 661.833,0.833333 662.5,-0.5C 664.5,-0.5 666.5,-0.5 668.5,-0.5C 668.833,0.833333 669.167,0.833333 669.5,-0.5C 669.833,-0.5 670.167,-0.5 670.5,-0.5C 671.167,0.833333 671.833,0.833333 672.5,-0.5C 673.167,-0.5 673.833,-0.5 674.5,-0.5C 676.556,0.216112 678.723,0.882779 681,1.5C 681.333,1.16667 681.667,0.833333 682,0.5C 682.689,1.35668 683.522,2.02335 684.5,2.5C 685.768,1.57211 687.101,1.40544 688.5,2C 695.69,5.09626 702.69,8.4296 709.5,12C 708.833,12.3333 708.167,12.6667 707.5,13C 711.881,14.7447 716.214,16.078 720.5,17C 725.88,21.5972 732.213,25.9305 739.5,30C 742.701,35.0295 747.034,38.8629 752.5,41.5C 752.833,41 753.167,40.5 753.5,40C 752.069,37.7084 751.236,35.2084 751,32.5C 750.215,30.714 749.049,29.214 747.5,28C 748.167,27.6667 748.833,27.3333 749.5,27C 747.392,24.6928 746.059,22.3595 745.5,20C 747.434,18.2713 747.434,16.2713 745.5,14C 748.503,7.06519 752.503,6.23186 757.5,11.5C 759.245,15.0222 760.911,18.5222 762.5,22C 761.755,24.405 762.422,26.5717 764.5,28.5C 763.443,30.7663 763.943,32.7663 766,34.5C 767.741,41.1756 769.574,47.5089 771.5,53.5C 771.829,57.7366 771.329,62.0699 770,66.5C 769.667,66.1667 769.333,65.8333 769,65.5C 768.529,67.2464 767.862,68.913 767,70.5C 764.3,71.3444 761.633,72.3444 759,73.5C 757.441,72.9706 755.941,72.304 754.5,71.5C 751.843,73.1142 750.01,72.4475 749,69.5C 747.62,72.0578 746.12,72.0578 744.5,69.5C 742.059,70.3266 739.893,70.3266 738,69.5C 735.8,68.478 733.8,67.1447 732,65.5C 730.39,67.5311 728.557,67.5311 726.5,65.5C 723.472,66.4942 721.138,65.4942 719.5,62.5C 719.919,61.3279 720.585,60.3279 721.5,59.5C 720.691,57.9291 720.357,56.2624 720.5,54.5C 723.537,52.9893 726.704,51.656 730,50.5C 731.676,51.0611 733.009,52.0611 734,53.5C 735.101,51.6061 736.434,50.9394 738,51.5C 738.915,52.3279 739.581,53.3279 740,54.5C 740.333,54.1667 740.667,53.8333 741,53.5C 745.334,54.9407 750.001,56.274 755,57.5C 757.969,56.3974 758.136,55.064 755.5,53.5C 756.025,52.8076 756.692,52.3076 757.5,52C 755.773,50.6106 754.439,48.9439 753.5,47C 753.905,46.0546 754.572,45.3879 755.5,45C 751.803,43.1493 750.803,44.316 752.5,48.5C 751.394,52.8887 749.227,53.8887 746,51.5C 744.16,52.8331 743.66,52.6665 744.5,51C 742.481,50.5503 740.648,49.717 739,48.5C 739.617,46.9052 739.284,45.5719 738,44.5C 737.667,44.8333 737.333,45.1667 737,45.5C 735.667,44.1667 734.333,42.8333 733,41.5C 732.586,41.9574 732.086,42.2907 731.5,42.5C 730.167,40.8333 728.833,39.1667 727.5,37.5C 724.366,35.8563 721.533,33.8563 719,31.5C 717.284,32.5523 716.284,31.8856 716,29.5C 715.586,29.9574 715.086,30.2907 714.5,30.5C 709.582,27.1896 704.582,24.023 699.5,21C 693.402,19.1339 687.402,16.9672 681.5,14.5C 680.893,14.6236 680.56,14.9569 680.5,15.5C 678.13,15.264 676.13,14.264 674.5,12.5C 673.529,15.1339 671.695,15.1339 669,12.5C 668.309,14.8912 667.309,14.8912 666,12.5C 665.085,13.3279 664.419,14.3279 664,15.5C 663.309,13.1088 662.309,13.1088 661,15.5C 658.777,14.2168 656.61,13.8834 654.5,14.5C 654.167,13.1667 653.833,13.1667 653.5,14.5C 651.662,13.8982 649.829,13.5649 648,13.5C 645.763,14.0563 643.763,15.0563 642,16.5C 641.667,15.8333 641.333,15.1667 641,14.5C 638.667,15.1667 636.333,15.8333 634,16.5C 633.667,16.1667 633.333,15.8333 633,15.5C 628.824,18.1135 624.657,18.7802 620.5,17.5C 618.833,18.1667 617.167,18.8333 615.5,19.5C 615.167,18.8333 614.833,18.1667 614.5,17.5C 613.803,19.3845 612.803,19.7178 611.5,18.5C 607.033,19.4873 602.867,21.1539 599,23.5C 598.667,23.1667 598.333,22.8333 598,22.5C 596.592,26.1685 594.925,26.1685 593,22.5C 592.682,24.0609 591.849,25.2276 590.5,26C 587.542,26.5683 584.875,27.735 582.5,29.5C 581.549,28.6744 580.549,28.5078 579.5,29C 580.654,29.9138 580.487,30.7471 579,31.5C 578.586,31.0426 578.086,30.7093 577.5,30.5C 575.821,32.1045 573.821,32.7711 571.5,32.5C 571.719,33.675 571.386,34.675 570.5,35.5C 568.259,36.0318 566.759,37.3651 566,39.5C 565.915,37.9154 565.749,36.5821 565.5,35.5C 562.699,39.4704 559.699,43.3037 556.5,47C 555.216,47.6838 554.049,47.5171 553,46.5C 551.122,49.6125 549.288,52.6125 547.5,55.5C 546.07,55.4208 544.736,55.7542 543.5,56.5C 542.139,54.9716 540.972,53.3049 540,51.5C 538.636,52.2583 537.469,51.7583 536.5,50C 537.88,48.6764 538.214,47.3431 537.5,46C 538.113,43.8526 538.779,41.686 539.5,39.5C 544.101,34.8645 549.101,30.6979 554.5,27C 556.5,26.3333 558.5,25.6667 560.5,25C 559.167,24.3333 559.167,23.6667 560.5,23C 578.228,12.9811 597.562,6.64777 618.5,4C 620.076,3.56037 621.41,2.72704 622.5,1.5C 623.5,2.16667 624.5,2.83333 625.5,3.5C 626.82,1.72989 628.32,1.39656 630,2.5C 632.607,1.87671 635.107,1.21004 637.5,0.5C 640.385,0.8064 643.052,0.473067 645.5,-0.5 Z"/></g>
<g><path style="opacity:0.027" fill="#000000" d="M 653.5,14.5 C 653.833,14.5 654.167,14.5 654.5,14.5C 654.315,15.1701 653.981,15.1701 653.5,14.5 Z"/></g>
<g><path style="opacity:0.02" fill="#000000" d="M 680.5,15.5 C 681.833,16.1667 681.833,16.1667 680.5,15.5 Z"/></g>
<g><path style="opacity:0.086" fill="#000000" d="M 606.5,21.5 C 607.833,22.1667 607.833,22.1667 606.5,21.5 Z"/></g>
<g><path style="opacity:0.039" fill="#000000" d="M 536.5,42.5 C 537.833,43.1667 537.833,43.1667 536.5,42.5 Z"/></g>
<g><path style="opacity:0.525" fill="#000000" d="M 547.5,55.5 C 548.833,56.1667 548.833,56.1667 547.5,55.5 Z"/></g>
<g><path style="opacity:0.848" fill="#000000" d="M 510.5,66.5 C 512.907,69.7277 515.073,73.0611 517,76.5C 518.426,81.0414 519.926,85.5414 521.5,90C 520.833,93 520.167,96 519.5,99C 520.574,99.7387 521.241,100.739 521.5,102C 521.459,105.354 521.459,108.687 521.5,112C 519.006,113.946 518.339,116.279 519.5,119C 518.773,120.399 518.273,121.899 518,123.5C 516.937,124.438 515.77,125.438 514.5,126.5C 515.025,127.192 515.692,127.692 516.5,128C 512.226,133.491 507.893,138.991 503.5,144.5C 501.206,145.706 498.873,146.706 496.5,147.5C 496.649,148.552 496.483,149.552 496,150.5C 495.667,150.167 495.333,149.833 495,149.5C 494.167,150.5 493.333,151.5 492.5,152.5C 491.914,152.291 491.414,151.957 491,151.5C 489.172,153.081 487.172,154.415 485,155.5C 483.456,152.736 482.289,152.903 481.5,156C 478.02,156.301 474.687,157.135 471.5,158.5C 471.901,160.434 472.901,161.934 474.5,163C 471.833,163.667 471.833,164.333 474.5,165C 472.468,167.299 471.801,169.799 472.5,172.5C 471.975,173.192 471.308,173.692 470.5,174C 471.26,175.441 471.926,176.941 472.5,178.5C 471.509,181.178 470.509,183.845 469.5,186.5C 471.973,188.098 471.973,189.598 469.5,191C 470.833,192.333 470.833,193.667 469.5,195C 472.002,198.364 473.335,197.864 473.5,193.5C 475.433,193.271 477.1,192.438 478.5,191C 476.069,189.271 476.403,187.771 479.5,186.5C 480.944,187.981 481.611,187.648 481.5,185.5C 482.774,184.811 482.774,183.977 481.5,183C 483.767,182.106 485.434,180.606 486.5,178.5C 487.451,176.882 488.784,175.549 490.5,174.5C 490.291,173.914 489.957,173.414 489.5,173C 492.226,171.221 495.059,170.054 498,169.5C 499.718,170.85 501.552,172.017 503.5,173C 502.833,173.333 502.167,173.667 501.5,174C 503.211,175.133 503.711,176.633 503,178.5C 499.814,183.409 495.98,188.242 491.5,193C 491.833,193.333 492.167,193.667 492.5,194C 488.504,197.163 484.837,200.663 481.5,204.5C 480.359,205.425 480.359,206.259 481.5,207C 480.333,208.167 479.167,209.333 478,210.5C 477.586,210.043 477.086,209.709 476.5,209.5C 475.772,211.193 474.772,212.693 473.5,214C 473.833,214.333 474.167,214.667 474.5,215C 471.995,215.51 470.495,217.01 470,219.5C 469.667,219.167 469.333,218.833 469,218.5C 468.517,219.448 468.351,220.448 468.5,221.5C 464.597,222.462 464.597,223.629 468.5,225C 467.833,226.333 467.167,227.667 466.5,229C 467.051,230.398 467.384,231.732 467.5,233C 466.484,233.519 465.818,234.353 465.5,235.5C 466.056,239.669 466.223,244.003 466,248.5C 465.667,247.833 465.333,247.167 465,246.5C 464.691,247.766 464.191,248.933 463.5,250C 464.449,250.617 465.282,250.451 466,249.5C 466.617,250.449 466.451,251.282 465.5,252C 466.308,252.308 466.975,252.808 467.5,253.5C 467.167,256.345 466.167,258.845 464.5,261C 466.899,262.96 467.065,265.126 465,267.5C 464.572,262.502 463.739,262.335 462.5,267C 463.358,268.788 464.358,270.622 465.5,272.5C 464.687,273.814 463.687,274.981 462.5,276C 463.094,276.464 463.761,276.631 464.5,276.5C 464.051,280.033 463.718,283.366 463.5,286.5C 464.742,288.733 466.076,290.899 467.5,293C 466.603,297.073 467.603,300.74 470.5,304C 469.978,304.561 469.645,305.228 469.5,306C 471.87,310.663 473.704,315.496 475,320.5C 475.788,327.592 477.121,334.259 479,340.5C 480.587,339.273 481.921,339.606 483,341.5C 484.918,340.458 486.751,339.292 488.5,338C 484.879,337.391 481.879,335.891 479.5,333.5C 479.007,331.194 478.674,328.861 478.5,326.5C 480.5,326.5 482.5,326.5 484.5,326.5C 484.36,324.876 485.027,323.71 486.5,323C 489.466,322.105 492.133,322.605 494.5,324.5C 495.183,324.137 495.85,323.804 496.5,323.5C 497.658,326.134 498.658,325.967 499.5,323C 501.906,322.221 503.573,323.054 504.5,325.5C 509.096,325.768 511.762,328.102 512.5,332.5C 517.536,332.062 522.369,332.728 527,334.5C 527.333,334.167 527.667,333.833 528,333.5C 532.462,335.1 536.962,336.433 541.5,337.5C 541.178,339.722 541.845,341.556 543.5,343C 542.809,344.067 542.309,345.234 542,346.5C 541.667,346.167 541.333,345.833 541,345.5C 539.738,347.303 538.071,348.636 536,349.5C 535.331,346.972 534.498,346.972 533.5,349.5C 534.305,351.472 535.639,352.972 537.5,354C 530.403,360.415 523.403,367.082 516.5,374C 514.833,374.333 513.167,374.667 511.5,375C 512.5,375.333 513.5,375.667 514.5,376C 509.83,378.916 505.664,382.416 502,386.5C 496.418,386.661 490.585,386.327 484.5,385.5C 483.167,388.167 481.833,388.167 480.5,385.5C 479.808,386.025 479.308,386.692 479,387.5C 475.941,386.258 472.941,384.925 470,383.5C 469.692,384.308 469.192,384.975 468.5,385.5C 464.19,384.492 459.69,384.158 455,384.5C 454.055,384.905 453.388,385.572 453,386.5C 451.331,384.279 449.331,383.945 447,385.5C 446.05,384.978 445.216,384.311 444.5,383.5C 434.722,383.455 425.222,383.455 416,383.5C 413.2,382.872 410.533,381.872 408,380.5C 403.098,381.255 398.098,381.588 393,381.5C 387.672,380.806 382.838,379.14 378.5,376.5C 381.192,375.409 381.858,373.743 380.5,371.5C 380.44,370.957 380.107,370.624 379.5,370.5C 378.281,371.263 377.281,372.263 376.5,373.5C 375.914,373.291 375.414,372.957 375,372.5C 374.67,369.676 373.836,367.009 372.5,364.5C 372.818,363.353 373.484,362.519 374.5,362C 374.167,361.667 373.833,361.333 373.5,361C 379.889,354.496 386.389,348.663 393,343.5C 393.333,343.833 393.667,344.167 394,344.5C 394.456,343.256 393.956,342.423 392.5,342C 393.253,340.513 394.086,340.346 395,341.5C 397.388,338.263 400.554,336.597 404.5,336.5C 404.5,335.5 404.5,334.5 404.5,333.5C 406.691,334.291 408.691,334.291 410.5,333.5C 412.137,332.782 413.803,332.616 415.5,333C 415.167,333.333 414.833,333.667 414.5,334C 415.358,335.788 416.358,337.622 417.5,339.5C 415.132,340.872 413.466,342.872 412.5,345.5C 407.869,347.135 404.535,350.135 402.5,354.5C 400.786,353.391 400.119,354.058 400.5,356.5C 399.448,356.351 398.448,356.517 397.5,357C 397.833,357.333 398.167,357.667 398.5,358C 396.423,360.738 393.757,362.738 390.5,364C 391.34,365.666 390.84,365.833 389,364.5C 388.691,367.048 389.858,368.715 392.5,369.5C 393.478,369.023 394.311,368.357 395,367.5C 399.307,369.961 403.64,369.961 408,367.5C 408.308,368.308 408.808,368.975 409.5,369.5C 412.366,369.446 415.199,369.446 418,369.5C 418.333,368.833 418.667,368.167 419,367.5C 419.57,370.844 420.736,371.177 422.5,368.5C 423.696,368.846 423.696,369.346 422.5,370C 424.874,372.065 427.04,371.899 429,369.5C 430.657,372.16 432.324,372.16 434,369.5C 435.66,370.829 437.493,371.829 439.5,372.5C 441.343,372.245 443.343,372.078 445.5,372C 446,371.5 446.5,371 447,370.5C 448.793,372.806 450.96,373.139 453.5,371.5C 456.702,372.127 459.869,372.794 463,373.5C 463.915,372.672 464.581,371.672 465,370.5C 465.611,374.272 466.611,374.272 468,370.5C 470.209,372.706 472.709,373.04 475.5,371.5C 476.192,372.025 476.692,372.692 477,373.5C 478.61,373.87 480.11,373.203 481.5,371.5C 483.059,372.074 484.559,372.74 486,373.5C 486.308,372.692 486.808,372.025 487.5,371.5C 488.668,374.469 490.001,374.802 491.5,372.5C 492.5,373.167 493.5,373.833 494.5,374.5C 496.033,371.741 498.033,369.408 500.5,367.5C 503.097,365.569 505.431,363.236 507.5,360.5C 508.192,361.025 508.692,361.692 509,362.5C 509.333,361.167 509.667,359.833 510,358.5C 511.84,359.833 512.34,359.666 511.5,358C 513.815,356.891 515.315,355.057 516,352.5C 516.414,352.957 516.914,353.291 517.5,353.5C 518.315,349.798 520.648,347.965 524.5,348C 521.463,345.135 517.796,343.302 513.5,342.5C 512.573,340.887 511.739,339.221 511,337.5C 509.448,337.011 508.281,337.678 507.5,339.5C 505.983,339.489 504.816,338.823 504,337.5C 503.764,339.764 503.264,341.931 502.5,344C 502.957,344.414 503.291,344.914 503.5,345.5C 502.726,346.711 501.893,346.711 501,345.5C 500.517,346.448 500.351,347.448 500.5,348.5C 497.937,349.088 495.604,350.088 493.5,351.5C 488.863,354.456 484.196,357.456 479.5,360.5C 478.914,360.291 478.414,359.957 478,359.5C 477.581,360.672 476.915,361.672 476,362.5C 474.855,360.074 473.522,357.741 472,355.5C 471.282,356.451 470.449,356.617 469.5,356C 468.892,353.498 467.559,351.498 465.5,350C 465.95,348.715 466.617,347.548 467.5,346.5C 465.219,344.326 465.219,342.326 467.5,340.5C 466.369,339.396 465.535,339.729 465,341.5C 463.272,339.806 463.772,338.639 466.5,338C 466.019,335.22 465.019,333.054 463.5,331.5C 461.515,331.859 460.849,332.692 461.5,334C 460.809,335.067 460.309,336.234 460,337.5C 458.757,336.664 457.59,336.997 456.5,338.5C 456.709,339.086 457.043,339.586 457.5,340C 455.074,339.952 452.741,340.119 450.5,340.5C 448.437,338.28 446.604,335.946 445,333.5C 444.346,334.696 443.846,334.696 443.5,333.5C 444.025,332.808 444.692,332.308 445.5,332C 444.402,331.23 444.402,330.397 445.5,329.5C 445.833,329.5 446.167,329.5 446.5,329.5C 447.96,327.537 449.627,325.704 451.5,324C 450.833,323.667 450.167,323.333 449.5,323C 451.809,322.244 453.809,322.744 455.5,324.5C 455.833,323.833 456.167,323.167 456.5,322.5C 457.85,323.95 459.516,324.617 461.5,324.5C 461.286,322.856 461.62,321.356 462.5,320C 459.3,316.713 457.633,312.713 457.5,308C 457.793,305.692 456.959,303.526 455,301.5C 453.632,302.993 453.465,304.493 454.5,306C 453.103,307.31 452.103,308.81 451.5,310.5C 450.833,311.5 450.167,312.5 449.5,313.5C 447.876,315.151 446.543,317.151 445.5,319.5C 447.114,322.157 446.448,323.99 443.5,325C 444.337,326.011 444.67,327.178 444.5,328.5C 441.532,328.626 439.532,330.126 438.5,333C 439.051,334.398 439.384,335.732 439.5,337C 437.699,337.317 437.366,337.984 438.5,339C 437.062,339.219 435.729,339.719 434.5,340.5C 435.033,342.224 436.199,343.891 438,345.5C 439.726,344.424 441.559,344.257 443.5,345C 445.377,346.185 447.377,347.185 449.5,348C 446.724,349.779 447.057,350.779 450.5,351C 450.018,352.008 449.852,353.175 450,354.5C 449.667,354.167 449.333,353.833 449,353.5C 446.837,354.136 444.67,355.136 442.5,356.5C 441.312,357.684 440.145,357.684 439,356.5C 437.727,358.572 435.893,359.905 433.5,360.5C 432.808,359.975 432.308,359.308 432,358.5C 431.221,359.728 430.221,360.728 429,361.5C 425.275,360.351 421.608,360.351 418,361.5C 416.299,359.59 414.799,357.59 413.5,355.5C 414.759,349.247 417.425,343.747 421.5,339C 423.172,332.497 425.839,326.997 429.5,322.5C 429.726,318.821 431.226,315.821 434,313.5C 436.389,305.555 440.222,298.389 445.5,292C 445.376,288.445 447.043,285.612 450.5,283.5C 451.022,282.393 451.355,281.226 451.5,280C 452.586,272.75 452.586,265.75 451.5,259C 452.293,257.915 452.96,256.748 453.5,255.5C 452.055,248.564 452.389,241.731 454.5,235C 454.597,232.415 454.264,229.749 453.5,227C 454.114,224.146 454.781,221.313 455.5,218.5C 454.327,216.483 452.827,215.816 451,216.5C 450.535,215.069 449.701,213.903 448.5,213C 448.833,212.667 449.167,212.333 449.5,212C 448.91,210.491 448.244,208.991 447.5,207.5C 446.914,207.709 446.414,208.043 446,208.5C 445.184,207.177 444.017,206.511 442.5,206.5C 441.272,204.99 441.272,203.49 442.5,202C 441.181,200.372 439.848,200.539 438.5,202.5C 436.976,200.142 434.976,198.309 432.5,197C 433.712,195.893 433.379,195.393 431.5,195.5C 430.517,194.15 429.184,193.15 427.5,192.5C 428.597,190.465 430.263,189.132 432.5,188.5C 430.833,184.167 432.167,182.833 436.5,184.5C 438.157,182.421 440.157,182.254 442.5,184C 445.053,187.43 448.053,190.43 451.5,193C 451.167,193.333 450.833,193.667 450.5,194C 452.305,194.972 453.972,196.139 455.5,197.5C 456.008,190.189 457.341,182.856 459.5,175.5C 459.023,174.522 458.357,173.689 457.5,173C 459.241,168.747 460.241,164.58 460.5,160.5C 460.547,159 459.881,158 458.5,157.5C 457.033,157.723 455.533,158.056 454,158.5C 453.667,157.833 453.333,157.167 453,156.5C 451,157.167 449,157.833 447,158.5C 446.424,155.876 445.09,155.209 443,156.5C 441.829,154.384 440.329,153.718 438.5,154.5C 437.201,153.91 436.368,152.91 436,151.5C 434.951,152.517 433.784,152.684 432.5,152C 429.065,148.525 425.398,145.192 421.5,142C 421.833,141.667 422.167,141.333 422.5,141C 421.283,139.352 420.45,137.519 420,135.5C 419.465,137.271 418.631,137.604 417.5,136.5C 415.849,134.598 415.516,132.598 416.5,130.5C 415.433,126.018 414.766,121.684 414.5,117.5C 416.752,114.938 417.418,112.104 416.5,109C 417.009,107.831 417.842,106.998 419,106.5C 419.236,104.236 419.736,102.069 420.5,100C 419.366,98.984 419.699,98.3173 421.5,98C 420.483,96.9505 420.316,95.7839 421,94.5C 422.156,95.9928 422.99,95.8261 423.5,94C 422.316,92.4523 422.483,90.9523 424,89.5C 425,89.1667 426,88.8333 427,88.5C 432.222,78.2798 439.555,69.9465 449,63.5C 450.998,64.2714 452.665,63.6048 454,61.5C 456.776,63.1397 458.776,62.473 460,59.5C 460.388,60.428 461.055,61.0946 462,61.5C 464.927,61.229 467.761,61.229 470.5,61.5C 471.593,59.2303 473.093,58.897 475,60.5C 476.261,60.2409 477.261,59.5742 478,58.5C 478.249,59.624 478.749,60.624 479.5,61.5C 481.792,60.6906 483.959,60.3573 486,60.5C 487.763,61.9437 489.763,62.9437 492,63.5C 494.952,63.3857 497.952,63.3857 501,63.5C 502.764,60.8624 504.098,61.1958 505,64.5C 506.833,61.6667 508.333,61.8333 509.5,65C 508.288,66.1068 508.621,66.6068 510.5,66.5 Z M 487.5,76.5 C 487.856,78.1898 488.856,79.1898 490.5,79.5C 490.56,78.9569 490.893,78.6236 491.5,78.5C 492.243,79.9079 493.077,81.2412 494,82.5C 494.601,80.6412 495.434,80.3079 496.5,81.5C 498.541,81.8541 500.374,81.8541 502,81.5C 503.218,83.0192 504.718,84.1859 506.5,85C 505.5,85.8333 504.5,86.6667 503.5,87.5C 504.616,87.402 505.616,87.902 506.5,89C 506.355,89.772 506.022,90.4387 505.5,91C 506.823,91.8159 507.489,92.9826 507.5,94.5C 506.167,94.8333 506.167,95.1667 507.5,95.5C 507.67,96.8221 507.337,97.9887 506.5,99C 507.482,101.738 508.148,104.572 508.5,107.5C 507.448,107.351 506.448,107.517 505.5,108C 506.167,109.667 506.833,111.333 507.5,113C 505.812,115.825 504.979,118.991 505,122.5C 501.721,126.249 498.721,130.249 496,134.5C 495,134.5 494,134.5 493,134.5C 491.955,135.373 491.122,136.373 490.5,137.5C 488.657,138.246 487.324,139.579 486.5,141.5C 485.893,141.376 485.56,141.043 485.5,140.5C 484,142.179 482.167,143.512 480,144.5C 479.667,143.833 479.333,143.167 479,142.5C 478.333,143.833 477.667,143.833 477,142.5C 476.646,144.807 475.646,145.141 474,143.5C 471.587,145.368 469.087,145.034 466.5,142.5C 465.494,142.938 465.494,143.604 466.5,144.5C 465.758,145.287 464.925,145.953 464,146.5C 461.973,145.788 460.973,144.788 461,143.5C 459.739,143.759 458.739,144.426 458,145.5C 455.433,143.695 452.599,142.362 449.5,141.5C 448.5,142.167 447.5,142.833 446.5,143.5C 445.893,143.376 445.56,143.043 445.5,142.5C 444.732,141.737 444.232,140.737 444,139.5C 443.282,140.451 442.449,140.617 441.5,140C 442.833,139.333 442.833,138.667 441.5,138C 439.152,137.654 437.319,136.487 436,134.5C 435.667,134.833 435.333,135.167 435,135.5C 434.773,132.94 433.44,131.274 431,130.5C 429.987,126.78 428.82,123.114 427.5,119.5C 429.27,118.18 429.603,116.68 428.5,115C 430.394,113.921 430.727,112.587 429.5,111C 431.121,108.834 431.955,106.334 432,103.5C 432.465,102.069 433.299,100.903 434.5,100C 434.167,99 433.833,98 433.5,97C 434.938,96.7811 436.271,96.2811 437.5,95.5C 440.548,89.6129 444.215,84.1129 448.5,79C 453.318,77.442 457.818,75.2754 462,72.5C 464.447,75.0443 466.947,75.0443 469.5,72.5C 472.443,73.2435 475.443,73.7435 478.5,74C 480.731,74.622 482.565,75.7887 484,77.5C 485.011,76.6634 486.178,76.33 487.5,76.5 Z M 435.5,91.5 C 437.646,91.6964 437.812,92.6964 436,94.5C 435.517,93.552 435.351,92.552 435.5,91.5 Z M 446.5,329.5 C 446.167,329.5 445.833,329.5 445.5,329.5C 445.5,328.833 445.167,328.5 444.5,328.5C 444.67,327.178 444.337,326.011 443.5,325C 446.448,323.99 447.114,322.157 445.5,319.5C 446.543,317.151 447.876,315.151 449.5,313.5C 450.167,312.5 450.833,311.5 451.5,310.5C 452.103,308.81 453.103,307.31 454.5,306C 453.465,304.493 453.632,302.993 455,301.5C 456.959,303.526 457.793,305.692 457.5,308C 457.633,312.713 459.3,316.713 462.5,320C 461.62,321.356 461.286,322.856 461.5,324.5C 459.516,324.617 457.85,323.95 456.5,322.5C 456.167,323.167 455.833,323.833 455.5,324.5C 453.809,322.744 451.809,322.244 449.5,323C 450.167,323.333 450.833,323.667 451.5,324C 449.627,325.704 447.96,327.537 446.5,329.5 Z M 463.5,330.5 C 461.656,329.796 461.156,328.463 462,326.5C 464.372,327.317 464.872,328.65 463.5,330.5 Z M 463.5,331.5 C 463.5,331.167 463.5,330.833 463.5,330.5C 464.376,330.369 465.043,330.702 465.5,331.5C 465.03,332.463 464.363,332.463 463.5,331.5 Z M 485.5,334.5 C 487.337,334.639 487.67,335.306 486.5,336.5C 485.702,336.043 485.369,335.376 485.5,334.5 Z M 528.5,346.5 C 530.983,346.73 531.483,347.397 530,348.5C 528.97,348.164 528.47,347.497 528.5,346.5 Z"/></g>
<g><path style="opacity:0.32" fill="#000000" d="M 499.5,61.5 C 499.897,60.475 500.563,60.3083 501.5,61C 500.906,61.4643 500.239,61.631 499.5,61.5 Z"/></g>
<g><path style="opacity:0.098" fill="#000000" d="M 510.5,65.5 C 511.833,66.1667 511.833,66.1667 510.5,65.5 Z"/></g>
<g><path style="opacity:0.106" fill="#000000" d="M 417.5,100.5 C 418.833,101.167 418.833,101.167 417.5,100.5 Z"/></g>
<g><path style="opacity:0.327" fill="#000000" d="M 417.5,105.5 C 417.369,104.761 417.536,104.094 418,103.5C 418.692,104.437 418.525,105.103 417.5,105.5 Z"/></g>
<g><path style="opacity:0.012" fill="#000000" d="M 417.5,105.5 C 416.833,106.167 416.833,106.167 417.5,105.5 Z"/></g>
<g><path style="opacity:0.796" fill="#000000" d="M 953.5,152.5 C 953.5,153.167 953.5,153.833 953.5,154.5C 952.751,155.531 952.085,156.698 951.5,158C 952.094,158.464 952.761,158.631 953.5,158.5C 953.5,159.167 953.5,159.833 953.5,160.5C 951.32,162.963 950.986,165.796 952.5,169C 951.128,173.115 949.961,177.282 949,181.5C 947.43,185.338 944.93,189.004 941.5,192.5C 939.099,193.358 937.099,194.691 935.5,196.5C 932.52,199.144 929.52,201.811 926.5,204.5C 925.558,204.392 924.725,204.059 924,203.5C 922.027,204.64 920.193,205.973 918.5,207.5C 917.914,207.291 917.414,206.957 917,206.5C 913.439,208.305 909.606,209.639 905.5,210.5C 901.93,210.07 898.097,210.07 894,210.5C 892.441,209.971 890.941,209.304 889.5,208.5C 887.833,209.167 886.167,209.833 884.5,210.5C 882.383,209.468 880.217,209.468 878,210.5C 876.289,210.561 874.956,209.894 874,208.5C 871.708,209.601 870.208,208.768 869.5,206C 867.108,204.591 864.774,203.091 862.5,201.5C 861.281,202.263 860.281,203.263 859.5,204.5C 857.836,203.777 856.169,204.11 854.5,205.5C 853.402,210.622 851.902,215.622 850,220.5C 848.26,221.716 847.26,223.382 847,225.5C 845.681,227.487 843.848,228.654 841.5,229C 842.308,229.308 842.975,229.808 843.5,230.5C 841.763,235.055 839.096,238.889 835.5,242C 835.833,242.333 836.167,242.667 836.5,243C 833.102,247.18 830.268,251.68 828,256.5C 820.356,263.076 815.523,260.742 813.5,249.5C 815.712,243.048 819.378,237.714 824.5,233.5C 825.687,230.831 826.52,228.165 827,225.5C 824.094,227.807 820.927,229.807 817.5,231.5C 816.914,231.291 816.414,230.957 816,230.5C 815.506,232.134 815.34,233.801 815.5,235.5C 814.127,235.343 812.793,235.51 811.5,236C 808.797,239.019 805.464,241.019 801.5,242C 803.421,243.241 803.754,244.741 802.5,246.5C 801.5,247.833 800.5,247.833 799.5,246.5C 798.738,247.628 798.071,248.795 797.5,250C 794.44,250.848 791.44,251.848 788.5,253C 787.078,255.926 785.078,258.426 782.5,260.5C 779.543,261.806 777.209,263.806 775.5,266.5C 774.205,267.098 772.872,267.598 771.5,268C 772.475,270.412 771.808,272.412 769.5,274C 770.308,274.308 770.975,274.808 771.5,275.5C 770.382,278.812 770.382,282.145 771.5,285.5C 769.799,285.966 768.299,285.966 767,285.5C 763.859,286.303 761.859,287.636 761,289.5C 756.604,289.74 752.104,289.406 747.5,288.5C 747.64,286.876 746.973,285.71 745.5,285C 745.833,284.667 746.167,284.333 746.5,284C 745.272,283.221 744.272,282.221 743.5,281C 743.831,278.364 744.498,275.531 745.5,272.5C 748.529,271.323 751.196,269.49 753.5,267C 751.376,265.878 749.543,264.378 748,262.5C 747.311,263.357 746.478,264.023 745.5,264.5C 744.304,264.154 744.304,263.654 745.5,263C 743.579,262.64 741.912,261.806 740.5,260.5C 740.872,257.609 740.872,254.609 740.5,251.5C 742.849,249.796 743.849,247.463 743.5,244.5C 747.425,246.437 750.091,245.271 751.5,241C 752.766,240.691 753.933,240.191 755,239.5C 755.333,240.167 755.667,240.833 756,241.5C 757.353,240.315 758.52,238.981 759.5,237.5C 760.446,237.987 761.446,238.32 762.5,238.5C 764.67,236.914 767.004,235.58 769.5,234.5C 772.496,235.833 774.163,234.833 774.5,231.5C 776.144,231.714 777.644,231.38 779,230.5C 779.333,231.5 779.667,232.5 780,233.5C 782.685,231.976 785.352,230.31 788,228.5C 788.873,228.735 789.707,229.069 790.5,229.5C 793.713,226.928 797.38,225.428 801.5,225C 802.41,223.195 803.41,221.362 804.5,219.5C 809.15,217.334 813.817,215.168 818.5,213C 817.874,212.25 817.374,211.416 817,210.5C 816.29,211.973 815.124,212.64 813.5,212.5C 813.567,209.234 811.901,207.734 808.5,208C 805.875,206.08 804.709,203.58 805,200.5C 805.893,201.711 806.726,201.711 807.5,200.5C 804.82,198.589 804.987,196.922 808,195.5C 808.333,196.167 808.667,196.833 809,197.5C 810.462,195.292 812.295,194.626 814.5,195.5C 817.507,193.281 820.341,193.614 823,196.5C 823.333,195.833 823.667,195.167 824,194.5C 828.772,194.387 833.939,194.553 839.5,195C 845.849,193.644 850.849,190.311 854.5,185C 855.833,184.667 857.167,184.333 858.5,184C 854.979,181.767 853.646,178.767 854.5,175C 854,174.5 853.5,174 853,173.5C 852.245,167.514 851.411,161.681 850.5,156C 852.087,152.004 854.087,148.337 856.5,145C 855.692,144.692 855.025,144.192 854.5,143.5C 855.309,141.929 855.643,140.262 855.5,138.5C 857.575,138.698 859.575,138.865 861.5,139C 860.058,135.872 860.558,133.038 863,130.5C 864.734,129.751 866.567,129.251 868.5,129C 866.355,128.257 866.189,127.424 868,126.5C 868.945,126.905 869.612,127.572 870,128.5C 871.999,126.507 873.499,124.173 874.5,121.5C 875.274,120.289 876.107,120.289 877,121.5C 877.315,118.853 878.482,118.187 880.5,119.5C 882.116,118.885 883.449,117.885 884.5,116.5C 886.403,116.694 888.237,116.694 890,116.5C 891.92,113.562 894.42,112.895 897.5,114.5C 898.281,113.263 899.281,112.263 900.5,111.5C 901.5,112.833 902.5,112.833 903.5,111.5C 904.167,112.167 904.833,112.833 905.5,113.5C 908.089,110.895 910.589,110.895 913,113.5C 914.049,111.893 915.549,111.227 917.5,111.5C 917.596,115.311 918.262,115.311 919.5,111.5C 921.167,113 922.833,114.5 924.5,116C 931.736,116.611 936.903,120.111 940,126.5C 940.333,126.167 940.667,125.833 941,125.5C 941,126.833 941,128.167 941,129.5C 941.333,129.167 941.667,128.833 942,128.5C 943.649,129.648 945.149,130.981 946.5,132.5C 943.952,134.219 944.285,135.552 947.5,136.5C 947.291,137.086 946.957,137.586 946.5,138C 949.668,138.582 950.001,139.582 947.5,141C 949.564,143.549 950.564,146.215 950.5,149C 951.371,150.364 952.371,151.53 953.5,152.5 Z M 936.5,168.5 C 933.082,168.884 931.748,170.551 932.5,173.5C 933.451,172.674 934.451,172.508 935.5,173C 934.333,174.167 933.167,175.333 932,176.5C 931.586,176.043 931.086,175.709 930.5,175.5C 929.667,177.5 928.833,179.5 928,181.5C 926.989,180.663 925.822,180.33 924.5,180.5C 923.833,182.833 923.167,185.167 922.5,187.5C 920.058,187.354 919.391,188.187 920.5,190C 918.633,190.711 917.133,190.211 916,188.5C 915.044,189.579 914.211,190.745 913.5,192C 910.851,192.452 908.351,193.286 906,194.5C 903.731,193.405 901.564,193.739 899.5,195.5C 898.784,194.689 897.95,194.022 897,193.5C 895.467,194.695 893.967,194.695 892.5,193.5C 891.522,193.977 890.689,194.643 890,195.5C 888.089,194.555 886.089,194.555 884,195.5C 879.89,194.842 876.724,193.342 874.5,191C 875.423,188.959 875.756,186.792 875.5,184.5C 874.5,184.5 873.5,184.5 872.5,184.5C 871.921,180.763 871.921,177.096 872.5,173.5C 871.988,170.649 870.321,169.316 867.5,169.5C 867.955,167.633 868.622,165.8 869.5,164C 869.002,157.39 871.169,151.557 876,146.5C 876.684,145.216 876.517,144.049 875.5,143C 880.731,138.469 886.231,134.302 892,130.5C 894.6,131.307 896.934,130.64 899,128.5C 902.031,128.151 905.198,128.151 908.5,128.5C 909.748,127.96 910.915,127.293 912,126.5C 917.511,127.702 922.344,129.536 926.5,132C 928.377,134.126 929.377,136.626 929.5,139.5C 931.942,139.119 932.609,139.786 931.5,141.5C 932.263,142.719 933.263,143.719 934.5,144.5C 934.167,145.167 933.833,145.833 933.5,146.5C 935.102,149.269 936.102,152.269 936.5,155.5C 935.141,157.306 935.475,158.806 937.5,160C 936.292,162.25 934.959,164.417 933.5,166.5C 934.602,167.176 935.602,167.842 936.5,168.5 Z M 766.5,253.5 C 762.926,258.962 762.093,258.629 764,252.5C 764.671,253.252 765.504,253.586 766.5,253.5 Z"/></g>
<g><path style="opacity:0.857" fill="#000000" d="M 65.5,174.5 C 65.56,175.043 65.8933,175.376 66.5,175.5C 67.982,173.517 69.6487,171.684 71.5,170C 71.1667,169.667 70.8333,169.333 70.5,169C 72.0488,167.786 73.2155,166.286 74,164.5C 75,165.833 76,165.833 77,164.5C 77.3333,163.167 77.6667,161.833 78,160.5C 78.3333,161.167 78.6667,161.833 79,162.5C 82.7161,157.16 86.3828,151.827 90,146.5C 90.7412,147.641 91.5745,147.641 92.5,146.5C 94.1712,143.508 96.1712,140.841 98.5,138.5C 99.552,138.649 100.552,138.483 101.5,138C 100.366,136.984 100.699,136.317 102.5,136C 102.167,135.667 101.833,135.333 101.5,135C 102.701,134.097 103.535,132.931 104,131.5C 104.333,131.833 104.667,132.167 105,132.5C 106.946,129.031 109.779,126.864 113.5,126C 113.167,125.667 112.833,125.333 112.5,125C 115.326,122.016 118.492,119.516 122,117.5C 122.667,118.167 123.333,118.833 124,119.5C 126.194,116.983 128.194,117.316 130,120.5C 130.617,121.449 130.451,122.282 129.5,123C 130.167,123.333 130.833,123.667 131.5,124C 130.189,127.64 127.855,130.306 124.5,132C 121.29,136.854 116.79,141.021 111,144.5C 108.549,149.58 105.049,153.747 100.5,157C 98.2533,160.736 95.0867,164.236 91,167.5C 86.5658,173.047 81.8991,178.38 77,183.5C 76.6667,183.167 76.3333,182.833 76,182.5C 73.9165,187.419 70.4165,190.752 65.5,192.5C 61.8333,198.167 57.1667,202.833 51.5,206.5C 51.2093,210.309 49.376,211.976 46,211.5C 44.4708,212.729 43.3041,214.229 42.5,216C 41.5509,216.617 40.7175,216.451 40,215.5C 39.3333,216.167 38.6667,216.833 38,217.5C 35.6474,214.398 32.9807,212.398 30,211.5C 29.1531,208.51 30.3198,207.176 33.5,207.5C 33.281,206.325 33.6143,205.325 34.5,204.5C 40.4606,200.704 45.2939,195.704 49,189.5C 50.4222,189.406 51.9222,189.072 53.5,188.5C 57.5309,183.71 61.5309,179.043 65.5,174.5 Z"/></g>
<g><path style="opacity:0.802" fill="#000000" d="M 211.5,223.5 C 210.923,222.227 210.257,222.227 209.5,223.5C 208.914,226.349 207.58,228.682 205.5,230.5C 205.167,229.167 204.833,229.167 204.5,230.5C 203.226,231.189 203.226,232.023 204.5,233C 201.865,236.286 199.532,239.786 197.5,243.5C 196.624,244.251 195.624,244.751 194.5,245C 195.821,246.545 195.488,247.711 193.5,248.5C 193.089,247.738 192.923,246.738 193,245.5C 190.838,245.94 188.671,246.273 186.5,246.5C 185.594,244.614 184.594,242.78 183.5,241C 186.15,237.793 185.984,237.293 183,239.5C 182.833,239 182.667,238.5 182.5,238C 185.637,232.598 189.137,227.431 193,222.5C 193.333,221.167 193.667,219.833 194,218.5C 194.423,219.956 195.256,220.456 196.5,220C 196.043,219.586 195.709,219.086 195.5,218.5C 197.094,215.939 199.094,213.772 201.5,212C 201.167,211.667 200.833,211.333 200.5,211C 201.973,210.29 202.64,209.124 202.5,207.5C 205.361,207.487 206.361,206.321 205.5,204C 208.491,201.01 210.657,197.51 212,193.5C 213.351,191.981 214.851,190.648 216.5,189.5C 215.697,186.946 216.697,185.112 219.5,184C 219.167,183.667 218.833,183.333 218.5,183C 221.164,180.331 222.998,177.164 224,173.5C 225.067,172.809 226.234,172.309 227.5,172C 226.572,171.612 225.905,170.945 225.5,170C 226.593,166.373 228.593,163.373 231.5,161C 230.833,160.667 230.167,160.333 229.5,160C 231.155,157.347 233.155,155.014 235.5,153C 235.043,152.586 234.709,152.086 234.5,151.5C 236.737,149.638 237.403,147.471 236.5,145C 238.91,142.468 241.91,140.968 245.5,140.5C 244.312,139.16 242.812,138.493 241,138.5C 238.611,138.963 236.277,139.63 234,140.5C 232.416,140.012 231.249,139.012 230.5,137.5C 230.331,138.397 229.998,139.397 229.5,140.5C 228.808,139.975 228.308,139.308 228,138.5C 227,139.833 226,139.833 225,138.5C 224.333,139.167 223.667,139.833 223,140.5C 220.534,140.506 217.868,140.173 215,139.5C 213.342,139.675 212.009,140.342 211,141.5C 208.943,140.315 206.943,139.315 205,138.5C 201.914,138.932 198.748,139.265 195.5,139.5C 193.608,136.956 191.775,136.956 190,139.5C 189.707,136.046 188.374,135.712 186,138.5C 184.415,137.624 183.415,136.291 183,134.5C 181.796,135.471 181.296,136.471 181.5,137.5C 179.118,137.117 176.618,137.117 174,137.5C 171.923,136.983 169.923,136.316 168,135.5C 166.093,135.421 164.093,135.754 162,136.5C 161.311,135.643 160.478,134.977 159.5,134.5C 155.386,136.387 151.553,135.72 148,132.5C 145.525,134.752 142.859,134.752 140,132.5C 139.086,133.654 138.253,133.487 137.5,132C 138.26,130.559 138.926,129.059 139.5,127.5C 137.861,126.084 137.027,124.417 137,122.5C 139.804,121.431 142.471,120.098 145,118.5C 145.833,118.667 146.667,118.833 147.5,119C 146.304,119.654 146.304,120.154 147.5,120.5C 148.167,119.833 148.833,119.167 149.5,118.5C 150.425,119.641 151.259,119.641 152,118.5C 161.658,119.47 171.158,121.137 180.5,123.5C 182.76,121.64 185.26,121.64 188,123.5C 193.07,122.453 198.07,122.787 203,124.5C 204.649,123.102 205.982,123.436 207,125.5C 210.542,124.682 214.376,124.515 218.5,125C 219,125.5 219.5,126 220,126.5C 220.839,125.376 222.006,124.709 223.5,124.5C 228.217,125.503 232.883,125.17 237.5,123.5C 241.779,124.274 246.113,124.774 250.5,125C 251.333,125.833 252.167,126.667 253,127.5C 253.689,126.643 254.522,125.977 255.5,125.5C 256.202,127.699 257.202,130.199 258.5,133C 257.387,134.394 256.053,135.561 254.5,136.5C 253.359,137.425 253.359,138.259 254.5,139C 253.552,139.483 252.552,139.649 251.5,139.5C 249.774,143.596 250.44,147.263 253.5,150.5C 251.489,153.01 249.322,155.343 247,157.5C 246.28,159.112 246.446,160.612 247.5,162C 244.844,163.003 243.844,164.67 244.5,167C 243.809,168.067 243.309,169.234 243,170.5C 240.678,174.502 238.178,178.335 235.5,182C 235.833,182.333 236.167,182.667 236.5,183C 235.197,186.028 233.53,188.861 231.5,191.5C 231.709,192.086 232.043,192.586 232.5,193C 230.754,193.471 229.087,194.138 227.5,195C 228.576,196.726 228.743,198.559 228,200.5C 227.333,199.833 226.667,199.167 226,198.5C 225.509,202.827 223.509,206.16 220,208.5C 218.112,214.176 215.279,219.176 211.5,223.5 Z M 176.5,122.5 C 177.773,123.077 177.773,123.743 176.5,124.5C 175.537,124.03 175.537,123.363 176.5,122.5 Z M 196.5,125.5 C 197.077,124.227 197.743,124.227 198.5,125.5C 198.03,126.463 197.363,126.463 196.5,125.5 Z M 185.5,235.5 C 186.077,234.227 186.743,234.227 187.5,235.5C 187.03,236.463 186.363,236.463 185.5,235.5 Z"/></g>
<g><path style="opacity:0.353" fill="#000000" d="M 98.5,138.5 C 97.8333,137.167 97.8333,137.167 98.5,138.5 Z"/></g>
<g><path style="opacity:0.852" fill="#000000" d="M 158.5,209.5 C 156.657,207.333 154.99,205 153.5,202.5C 150.724,203.089 148.39,204.422 146.5,206.5C 144.627,207.089 142.96,206.422 141.5,204.5C 136.133,205.222 130.799,204.722 125.5,203C 124.743,201.488 123.743,200.154 122.5,199C 121.256,198.544 120.423,199.044 120,200.5C 118.079,198.119 115.579,196.619 112.5,196C 107.852,190.94 107.519,185.607 111.5,180C 110.833,179.667 110.167,179.333 109.5,179C 111.95,173.718 114.616,168.552 117.5,163.5C 118.76,162.618 119.926,161.618 121,160.5C 121.333,161.167 121.667,161.833 122,162.5C 122.309,158.667 124.142,156 127.5,154.5C 129.102,155.55 129.935,154.883 130,152.5C 130.414,152.957 130.914,153.291 131.5,153.5C 135.038,151.231 138.705,149.231 142.5,147.5C 145.125,148.38 147.458,147.713 149.5,145.5C 154.982,146.851 160.482,147.851 166,148.5C 167.666,147.66 167.833,148.16 166.5,150C 169.14,150.896 171.307,152.396 173,154.5C 173.667,155.5 173.667,156.5 173,157.5C 172.282,156.549 171.449,156.383 170.5,157C 172.273,161.571 174.273,166.071 176.5,170.5C 175.945,173.102 175.779,175.769 176,178.5C 172.248,183.672 168.748,189.005 165.5,194.5C 166.83,196.807 168.163,199.141 169.5,201.5C 169.392,202.442 169.059,203.275 168.5,204C 169.308,204.308 169.975,204.808 170.5,205.5C 169.167,206.5 169.167,207.5 170.5,208.5C 169.609,209.59 168.609,209.59 167.5,208.5C 166.719,209.737 165.719,210.737 164.5,211.5C 163.167,210.167 161.833,210.167 160.5,211.5C 159.304,211.154 159.304,210.654 160.5,210C 159.906,209.536 159.239,209.369 158.5,209.5 Z M 157.5,166.5 C 156.535,167.721 156.702,169.054 158,170.5C 158.317,168.699 158.984,168.366 160,169.5C 161.028,171.844 161.694,174.177 162,176.5C 160.692,178.641 159.192,180.641 157.5,182.5C 154.312,173.907 149.812,172.574 144,178.5C 143.774,181.095 143.274,183.595 142.5,186C 143.313,187.314 144.313,188.481 145.5,189.5C 143.851,190.648 142.351,191.981 141,193.5C 140.07,191.448 138.57,189.948 136.5,189C 132.735,187.951 129.068,186.618 125.5,185C 124.236,183.139 123.236,181.139 122.5,179C 124.77,176.898 126.437,174.398 127.5,171.5C 132.244,167.712 137.077,164.045 142,160.5C 143,161.167 144,161.833 145,162.5C 146.459,159.557 148.126,159.224 150,161.5C 152.97,160.866 155.637,160.866 158,161.5C 160.081,163.557 159.914,165.223 157.5,166.5 Z"/></g>
<g><path style="opacity:0.844" fill="#000000" d="M 256.5,266.5 C 256.103,265.475 255.437,265.308 254.5,266C 253.226,266.977 253.226,267.811 254.5,268.5C 252.59,270.562 250.257,272.062 247.5,273C 249.513,273.875 249.513,275.209 247.5,277C 246.062,277.219 244.729,277.719 243.5,278.5C 244.666,281.184 243.833,283.184 241,284.5C 240.612,283.572 239.945,282.905 239,282.5C 237.128,283.068 235.295,283.735 233.5,284.5C 229.266,280.386 228.933,275.719 232.5,270.5C 234.215,268.29 236.381,266.624 239,265.5C 242.091,260.986 245.425,256.653 249,252.5C 249.483,251.552 249.649,250.552 249.5,249.5C 250.5,249.5 251.5,249.5 252.5,249.5C 253.172,246.65 254.839,244.483 257.5,243C 257.167,242.667 256.833,242.333 256.5,242C 262.317,238.286 266.983,232.786 270.5,225.5C 274.386,224.412 274.386,223.579 270.5,223C 271.167,222.667 271.833,222.333 272.5,222C 271.313,220.981 270.313,219.814 269.5,218.5C 271.045,215.803 270.379,213.803 267.5,212.5C 267.977,211.522 268.643,210.689 269.5,210C 265.245,205.838 263.079,200.671 263,194.5C 262.031,192.266 260.698,190.266 259,188.5C 258.788,186.22 257.955,184.22 256.5,182.5C 256.709,181.914 257.043,181.414 257.5,181C 255.006,179.054 254.339,176.721 255.5,174C 254.833,172.333 254.167,170.667 253.5,169C 254.167,168.333 254.833,167.667 255.5,167C 254.446,165.612 254.28,164.112 255,162.5C 255.333,163.5 255.667,164.5 256,165.5C 257.074,164.382 258.24,163.382 259.5,162.5C 258.494,161.604 258.494,160.938 259.5,160.5C 261.146,161.779 262.313,163.445 263,165.5C 263.333,165.167 263.667,164.833 264,164.5C 271.229,184.186 278.229,203.519 285,222.5C 285.465,223.931 286.299,225.097 287.5,226C 286.788,227.425 286.621,228.925 287,230.5C 286.667,230.167 286.333,229.833 286,229.5C 285.667,230.5 285.333,231.5 285,232.5C 283.927,231.72 282.76,231.887 281.5,233C 282.183,235.983 280.849,237.983 277.5,239C 278.956,239.423 279.456,240.256 279,241.5C 278.107,240.289 277.274,240.289 276.5,241.5C 273.42,245.975 270.087,250.308 266.5,254.5C 265.914,254.291 265.414,253.957 265,253.5C 263.057,257.608 260.224,260.942 256.5,263.5C 257.653,264.687 257.653,265.687 256.5,266.5 Z"/></g>
<g><path style="opacity:0.353" fill="#000000" d="M 65.5,173.5 C 66.8333,174.167 66.8333,174.167 65.5,173.5 Z"/></g>
<g><path style="opacity:0.122" fill="#000000" d="M 486.5,178.5 C 485.833,177.167 485.833,177.167 486.5,178.5 Z"/></g>
<g><path style="opacity:0.337" fill="#000000" d="M 436.5,180.5 C 437.833,181.167 437.833,181.167 436.5,180.5 Z"/></g>
<g><path style="opacity:0.02" fill="#000000" d="M 481.5,185.5 C 480.833,184.167 480.833,184.167 481.5,185.5 Z"/></g>
<g><path style="opacity:0.149" fill="#000000" d="M 51.5,187.5 C 52.8333,188.167 52.8333,188.167 51.5,187.5 Z"/></g>
<g><path style="opacity:0.141" fill="#000000" d="M 473.5,193.5 C 472.833,192.167 472.833,192.167 473.5,193.5 Z"/></g>
<g><path style="opacity:0.431" fill="#000000" d="M 431.5,195.5 C 430.833,196.167 430.833,196.167 431.5,195.5 Z"/></g>
<g><path style="opacity:0.111" fill="#000000" d="M 935.5,196.5 C 937.337,196.639 937.67,197.306 936.5,198.5C 935.702,198.043 935.369,197.376 935.5,196.5 Z"/></g>
<g><path style="opacity:0.141" fill="#000000" d="M 442.5,206.5 C 441.833,207.167 441.833,207.167 442.5,206.5 Z"/></g>
<g><path style="opacity:0.224" fill="#000000" d="M 157.5,209.5 C 156.833,208.167 156.833,208.167 157.5,209.5 Z"/></g>
<g><path style="opacity:0.125" fill="#000000" d="M 157.5,209.5 C 157.833,209.5 158.167,209.5 158.5,209.5C 158.315,210.17 157.981,210.17 157.5,209.5 Z"/></g>
<g><path style="opacity:0.137" fill="#000000" d="M 170.5,210.5 C 171.833,211.167 171.833,211.167 170.5,210.5 Z"/></g>
<g><path style="opacity:0.804" fill="#000000" d="M 94.5,217.5 C 101.428,217.094 108.261,217.094 115,217.5C 116.333,218.167 117.333,219.167 118,220.5C 118.689,219.643 119.522,218.977 120.5,218.5C 122.737,218.694 124.903,218.694 127,218.5C 127.308,219.308 127.808,219.975 128.5,220.5C 129.72,219.289 130.887,219.289 132,220.5C 132.915,219.672 133.581,218.672 134,217.5C 135.507,219.008 137.173,220.341 139,221.5C 139.999,217.763 141.332,217.763 143,221.5C 143.308,220.692 143.808,220.025 144.5,219.5C 145.77,220.562 146.937,221.562 148,222.5C 154.006,221.168 159.672,221.168 165,222.5C 166.205,223.071 167.372,223.738 168.5,224.5C 168.64,225.903 168.64,227.403 168.5,229C 173.206,228.774 174.039,229.941 171,232.5C 170.667,233.833 170.333,235.167 170,236.5C 169.667,236.167 169.333,235.833 169,235.5C 164.81,238.936 160.31,239.269 155.5,236.5C 153.602,237.734 151.935,237.401 150.5,235.5C 148.518,236.623 146.518,236.623 144.5,235.5C 144.167,234.167 143.833,234.167 143.5,235.5C 142.348,234.375 141.348,234.375 140.5,235.5C 138.983,235.489 137.816,234.823 137,233.5C 133.45,233.572 129.95,233.905 126.5,234.5C 122.966,233.869 119.466,233.202 116,232.5C 113.58,233.488 111.247,233.155 109,231.5C 102.6,231.695 96.433,232.029 90.5,232.5C 89.4826,229.972 88.3159,229.972 87,232.5C 82.2966,232.199 77.63,230.866 73,228.5C 70.1831,228.923 67.3498,229.256 64.5,229.5C 60.3825,229.183 56.5492,228.183 53,226.5C 51.5124,228.82 49.6791,228.987 47.5,227C 48.3402,225.334 47.8402,225.167 46,226.5C 45.1667,225 44,223.833 42.5,223C 44.9913,222.374 44.9913,221.541 42.5,220.5C 43.5312,219.3 44.3645,217.966 45,216.5C 47.3909,217.602 47.8909,216.936 46.5,214.5C 47.2739,213.289 48.1072,213.289 49,214.5C 49.9336,211.035 51.4336,210.702 53.5,213.5C 59.1696,214.001 64.6696,214.001 70,213.5C 72.0105,217.002 73.3439,217.002 74,213.5C 77.4621,213.983 77.9621,215.15 75.5,217C 76.9961,217.507 78.1627,217.007 79,215.5C 80.851,217.781 82.5177,217.781 84,215.5C 84.9147,216.328 85.5814,217.328 86,218.5C 87.3799,215.942 88.8799,215.942 90.5,218.5C 91.9049,218.24 93.2382,217.907 94.5,217.5 Z"/></g>
<g><path style="opacity:0.333" fill="#000000" d="M 94.5,217.5 C 93.8333,216.167 93.8333,216.167 94.5,217.5 Z"/></g>
<g><path style="opacity:0.837" fill="#000000" d="M 716.5,246.5 C 716.5,247.167 716.5,247.833 716.5,248.5C 715.624,248.369 714.957,248.702 714.5,249.5C 715.266,251.68 716.266,253.847 717.5,256C 717.81,261.132 717.81,265.965 717.5,270.5C 716.167,270.833 716.167,271.167 717.5,271.5C 718.165,277.506 718.165,283.673 717.5,290C 717.95,291.285 718.617,292.452 719.5,293.5C 717.876,294.869 717.376,296.536 718,298.5C 719.873,299.089 721.54,298.422 723,296.5C 724.572,298.563 726.405,299.229 728.5,298.5C 731.41,298.914 734.077,299.914 736.5,301.5C 737.107,301.376 737.44,301.043 737.5,300.5C 739.044,300.703 740.378,301.37 741.5,302.5C 743.163,301.125 744.497,301.458 745.5,303.5C 747.382,302.907 749.215,302.24 751,301.5C 754.49,302.844 758.157,304.511 762,306.5C 763.402,304.027 764.902,304.027 766.5,306.5C 767.541,304.009 768.374,304.009 769,306.5C 771,305.833 773,305.167 775,304.5C 782.117,309.035 782.95,308.202 777.5,302C 777.538,298.96 778.205,295.793 779.5,292.5C 777.62,289.91 778.286,288.41 781.5,288C 779.487,287.125 779.487,285.791 781.5,284C 780.39,281.263 780.223,278.429 781,275.5C 781.654,276.696 782.154,276.696 782.5,275.5C 781.258,272.625 780.258,269.792 779.5,267C 781.634,264.199 784.134,261.699 787,259.5C 787.945,259.905 788.612,260.572 789,261.5C 789.667,260.833 790.333,260.167 791,259.5C 792.039,261.746 793.206,263.913 794.5,266C 794.167,266.333 793.833,266.667 793.5,267C 794.894,268.739 795.561,270.739 795.5,273C 795.172,283.025 794.172,292.858 792.5,302.5C 791.167,302.833 791.167,303.167 792.5,303.5C 790.8,308.289 788.467,308.622 785.5,304.5C 783.178,307.584 784.178,309.251 788.5,309.5C 789.049,311.687 790.215,312.354 792,311.5C 793.441,314.047 793.941,316.547 793.5,319C 791.983,320.508 790.149,321.342 788,321.5C 784.989,321.285 781.989,321.285 779,321.5C 778.311,320.643 777.478,319.977 776.5,319.5C 771.547,320.547 766.547,320.547 761.5,319.5C 758.492,318.935 755.659,317.935 753,316.5C 751.938,317.097 750.772,317.43 749.5,317.5C 738.193,315.09 727.36,312.423 717,309.5C 717.046,307.687 716.88,306.021 716.5,304.5C 713.716,303.608 711.216,303.608 709,304.5C 707.833,302 706.667,299.5 705.5,297C 705.833,296.667 706.167,296.333 706.5,296C 705.5,295.167 704.5,294.333 703.5,293.5C 703.71,285.938 703.71,278.772 703.5,272C 704.167,271 704.833,270 705.5,269C 704.5,266.667 703.5,264.333 702.5,262C 704.538,259.711 704.538,257.211 702.5,254.5C 702.226,250.867 702.559,247.033 703.5,243C 702.934,242.005 702.267,241.172 701.5,240.5C 702.028,239.279 702.695,238.113 703.5,237C 703.437,234.511 703.104,232.011 702.5,229.5C 702.701,227.027 703.368,224.694 704.5,222.5C 705.167,223.5 705.833,224.5 706.5,225.5C 706.833,225.333 707.167,225.167 707.5,225C 707.835,223.836 707.835,222.503 707.5,221C 709.703,219.981 711.869,218.814 714,217.5C 714.945,217.905 715.612,218.572 716,219.5C 718,218.833 720,218.167 722,217.5C 725.05,217.529 728.217,218.196 731.5,219.5C 734.893,219.042 738.227,218.709 741.5,218.5C 742.5,218.667 743.5,218.833 744.5,219C 743.346,219.914 743.513,220.747 745,221.5C 747.461,220.782 749.961,220.115 752.5,219.5C 753.906,220.427 755.406,221.427 757,222.5C 757.112,219.553 758.612,218.22 761.5,218.5C 761.5,219.5 761.5,220.5 761.5,221.5C 762.822,221.67 763.989,221.337 765,220.5C 767.355,223.264 770.188,225.431 773.5,227C 772.5,228 771.5,229 770.5,230C 766.931,230.555 763.265,231.722 759.5,233.5C 755.178,233.91 750.845,233.244 746.5,231.5C 743.819,233.54 741.486,233.54 739.5,231.5C 737.135,232.289 734.801,231.956 732.5,230.5C 731.522,230.977 730.689,231.643 730,232.5C 728.333,231.167 726.667,231.167 725,232.5C 723.004,232.004 721.337,231.004 720,229.5C 719.333,230.167 718.667,230.833 718,231.5C 717.282,230.549 716.449,230.383 715.5,231C 716.174,232.751 716.507,234.417 716.5,236C 715.833,236.333 715.167,236.667 714.5,237C 716.077,239.564 717.077,242.397 717.5,245.5C 717.376,246.107 717.043,246.44 716.5,246.5 Z M 716.5,246.5 C 714.972,246.483 714.472,245.816 715,244.5C 715.717,245.044 716.217,245.711 716.5,246.5 Z M 717.5,299.5 C 718.773,300.077 718.773,300.743 717.5,301.5C 716.537,301.03 716.537,300.363 717.5,299.5 Z"/></g>
<g><path style="opacity:0.106" fill="#000000" d="M 468.5,221.5 C 469.833,222.167 469.833,222.167 468.5,221.5 Z"/></g>
<g><path style="opacity:0.051" fill="#000000" d="M 211.5,223.5 C 210.833,224.167 210.833,224.167 211.5,223.5 Z"/></g>
<g><path style="opacity:0.047" fill="#000000" d="M 169.5,224.5 C 170.833,225.167 170.833,225.167 169.5,224.5 Z"/></g>
<g><path style="opacity:0.818" fill="#000000" d="M 42.5,226.5 C 44.4119,227.98 45.5785,229.98 46,232.5C 46.3173,230.699 46.984,230.366 48,231.5C 48.9285,235.244 48.4285,238.744 46.5,242C 48.2826,243.067 48.7826,244.567 48,246.5C 43.946,256.884 38.6127,266.55 32,275.5C 31.3162,276.784 31.4829,277.951 32.5,279C 31.1198,280.324 30.7865,281.657 31.5,283C 29.992,284.507 28.6587,286.173 27.5,288C 27.8333,288.333 28.1667,288.667 28.5,289C 26.2089,290.857 23.8756,292.023 21.5,292.5C 19.6698,292.224 18.0032,291.557 16.5,290.5C 17.8333,289.167 17.8333,287.833 16.5,286.5C 16.9815,280.869 18.6482,275.369 21.5,270C 21.1667,269.667 20.8333,269.333 20.5,269C 21.9675,267.902 22.8008,266.402 23,264.5C 23.9025,263.299 25.0692,262.465 26.5,262C 25.5494,261.282 25.3828,260.449 26,259.5C 31.3239,253.961 34.3239,247.295 35,239.5C 35.7504,238.874 36.5838,238.374 37.5,238C 37.0958,235.731 36.9291,233.231 37,230.5C 39.4632,229.968 41.2965,228.634 42.5,226.5 Z"/></g>
<g><path style="opacity:0.22" fill="#000000" d="M 204.5,230.5 C 204.833,230.5 205.167,230.5 205.5,230.5C 205.315,231.17 204.981,231.17 204.5,230.5 Z"/></g>
<g><path style="opacity:0.31" fill="#000000" d="M 140.5,235.5 C 141.833,236.167 141.833,236.167 140.5,235.5 Z"/></g>
<g><path style="opacity:0.176" fill="#000000" d="M 143.5,235.5 C 143.833,235.5 144.167,235.5 144.5,235.5C 144.315,236.17 143.981,236.17 143.5,235.5 Z"/></g>
<g><path style="opacity:0.365" fill="#000000" d="M 701.5,240.5 C 700.833,241.167 700.833,241.167 701.5,240.5 Z"/></g>
<g><path style="opacity:0.336" fill="#000000" d="M 912.5,242.5 C 913.5,242.5 914.5,242.5 915.5,242.5C 915.281,243.675 915.614,244.675 916.5,245.5C 917.989,245.533 919.322,246.033 920.5,247C 915.416,247.426 910.416,248.26 905.5,249.5C 905.351,248.448 905.517,247.448 906,246.5C 908.425,245.357 910.592,244.024 912.5,242.5 Z"/></g>
<g><path style="opacity:0.378" fill="#000000" d="M 207.5,245.5 C 206.475,245.103 206.308,244.437 207,243.5C 207.464,244.094 207.631,244.761 207.5,245.5 Z"/></g>
<g><path style="opacity:0.145" fill="#000000" d="M 207.5,246.5 C 207.5,246.167 207.5,245.833 207.5,245.5C 208.363,244.537 209.03,244.537 209.5,245.5C 209.043,246.298 208.376,246.631 207.5,246.5 Z"/></g>
<g><path style="opacity:0.824" fill="#000000" d="M 207.5,246.5 C 208.446,247.931 209.612,249.264 211,250.5C 211.273,252.101 211.773,253.601 212.5,255C 212.043,255.414 211.709,255.914 211.5,256.5C 213.87,258.688 214.537,261.188 213.5,264C 214.502,265.672 215.668,266.838 217,267.5C 217.658,269.108 217.158,270.275 215.5,271C 217,271.833 218.167,273 219,274.5C 219.236,277.208 220.069,279.708 221.5,282C 221.265,282.873 220.931,283.707 220.5,284.5C 222.076,286.577 224.076,288.077 226.5,289C 224.861,292.098 223.527,295.264 222.5,298.5C 221.209,298.263 220.209,298.596 219.5,299.5C 218.167,299.833 218.167,300.167 219.5,300.5C 219.483,302.028 218.816,302.528 217.5,302C 210.344,296.187 206.51,288.687 206,279.5C 204.006,274.488 201.839,269.654 199.5,265C 199.5,262.667 199.5,260.333 199.5,258C 197.38,256.477 197.047,254.644 198.5,252.5C 196.603,251.332 196.436,249.665 198,247.5C 198.333,248.167 198.667,248.833 199,249.5C 200.067,248.809 201.234,248.309 202.5,248C 203.833,247.333 203.833,246.667 202.5,246C 204.197,245.616 205.863,245.782 207.5,246.5 Z"/></g>
<g><path style="opacity:0.631" fill="#000000" d="M 200.5,246.5 C 201.833,247.167 201.833,247.167 200.5,246.5 Z"/></g>
<g><path style="opacity:0.122" fill="#000000" d="M 716.5,248.5 C 717.833,249.167 717.833,249.167 716.5,248.5 Z"/></g>
<g><path style="opacity:0.004" fill="#000000" d="M 909.5,249.5 C 910.833,250.167 910.833,250.167 909.5,249.5 Z"/></g>
<g><path style="opacity:0.267" fill="#000000" d="M 256.5,266.5 C 256.5,267.833 255.833,268.5 254.5,268.5C 254.833,267.5 255.5,266.833 256.5,266.5 Z"/></g>
<g><path style="opacity:0.031" fill="#000000" d="M 802.5,266.5 C 805.451,267.245 808.451,267.412 811.5,267C 808.992,268.45 806.325,269.617 803.5,270.5C 802.571,269.311 802.238,267.978 802.5,266.5 Z"/></g>
<g><path style="opacity:0.369" fill="#000000" d="M 717.5,270.5 C 718.833,271.167 718.833,271.167 717.5,270.5 Z"/></g>
<g><path style="opacity:0.063" fill="#000000" d="M 464.5,275.5 C 465.833,276.167 465.833,276.167 464.5,275.5 Z"/></g>
<g><path style="opacity:0.4" fill="#000000" d="M 227.5,277.5 C 228.833,278.167 228.833,278.167 227.5,277.5 Z"/></g>
<g><path style="opacity:0.814" fill="#000000" d="M 115.5,292.5 C 118.113,293.636 120.613,293.302 123,291.5C 123.853,293.125 124.853,293.458 126,292.5C 127.11,294.037 128.61,294.703 130.5,294.5C 130.351,293.448 130.517,292.448 131,291.5C 133.058,292.109 133.891,293.109 133.5,294.5C 134.518,293.807 135.518,293.141 136.5,292.5C 136.783,293.289 137.283,293.956 138,294.5C 140.333,294.5 142.667,294.5 145,294.5C 145.804,293.196 146.971,292.529 148.5,292.5C 154.937,293.624 161.437,293.624 168,292.5C 169.943,294.715 171.609,294.715 173,292.5C 174.729,294.434 176.729,294.434 179,292.5C 180.085,293.293 181.252,293.96 182.5,294.5C 184.804,294.691 187.138,294.357 189.5,293.5C 189.351,294.552 189.517,295.552 190,296.5C 191.5,293.108 193.333,292.441 195.5,294.5C 194.68,298.158 196.013,300.491 199.5,301.5C 195.673,308.489 190.173,310.489 183,307.5C 181.846,309.957 180.512,309.957 179,307.5C 178.667,308.167 178.333,308.833 178,309.5C 175.667,308.167 173.333,308.167 171,309.5C 170.333,308.833 169.667,308.167 169,307.5C 159.153,307.344 149.153,307.678 139,308.5C 137.667,307.833 136.333,307.167 135,306.5C 122.055,307.828 109.889,308.495 98.5,308.5C 98.7036,307.471 98.2036,306.471 97,305.5C 96.0197,306.981 94.853,308.315 93.5,309.5C 89.5879,309.366 85.7546,309.032 82,308.5C 81.3333,309.167 80.6667,309.833 80,310.5C 79,309.167 78,309.167 77,310.5C 75.54,308.578 73.8733,307.911 72,308.5C 70.9148,309.293 69.7481,309.96 68.5,310.5C 66.2753,309.899 64.1086,309.566 62,309.5C 58.9932,311.491 55.8265,311.491 52.5,309.5C 49.985,310.577 47.485,311.577 45,312.5C 44,311.833 43,311.167 42,310.5C 40.077,311.316 38.077,311.983 36,312.5C 25.9637,311.939 15.7971,311.939 5.5,312.5C 4.90405,311.284 4.73739,309.951 5,308.5C 2.60908,309.602 2.10908,308.936 3.5,306.5C 2.5,305.667 1.5,304.833 0.5,304C 2.72897,302.515 5.0623,301.182 7.5,300C 6.16667,299.333 6.16667,298.667 7.5,298C 9.13414,297.506 10.8008,297.34 12.5,297.5C 12.4592,301.243 13.1259,301.41 14.5,298C 16.6982,297.627 18.8649,297.127 21,296.5C 21.9454,296.905 22.6121,297.572 23,298.5C 23.6891,297.643 24.5224,296.977 25.5,296.5C 26.5984,297.615 27.7651,297.615 29,296.5C 31.075,298.623 33.075,298.29 35,295.5C 35.8333,296.5 36.6667,297.5 37.5,298.5C 37.4895,297.559 37.9895,296.892 39,296.5C 43.0358,297.299 46.8692,296.633 50.5,294.5C 53.7427,295.015 56.5761,296.348 59,298.5C 60,297.5 61,296.5 62,295.5C 62.3333,296.167 62.6667,296.833 63,297.5C 63.5954,293.918 64.9288,293.584 67,296.5C 68.2419,295.128 69.7419,294.128 71.5,293.5C 74.6492,296.106 77.8158,296.106 81,293.5C 82.2613,293.759 83.2613,294.426 84,295.5C 84.6667,292.833 85.3333,292.833 86,295.5C 86.9147,294.672 87.5814,293.672 88,292.5C 90.1969,294.731 92.5302,294.731 95,292.5C 96.3333,293.167 97.3333,294.167 98,295.5C 100.04,291.554 102.04,291.554 104,295.5C 104.417,294.244 105.25,293.577 106.5,293.5C 106.369,294.239 106.536,294.906 107,295.5C 108.706,294.692 109.539,293.359 109.5,291.5C 111.484,291.383 113.15,292.05 114.5,293.5C 115.107,293.376 115.44,293.043 115.5,292.5 Z"/></g>
<g><path style="opacity:0.4" fill="#000000" d="M 115.5,292.5 C 114.833,291.167 114.833,291.167 115.5,292.5 Z"/></g>
<g><path style="opacity:0.051" fill="#000000" d="M 136.5,291.5 C 137.833,292.167 137.833,292.167 136.5,291.5 Z"/></g>
<g><path style="opacity:0.212" fill="#000000" d="M 106.5,292.5 C 107.833,293.167 107.833,293.167 106.5,292.5 Z"/></g>
<g><path style="opacity:0.263" fill="#000000" d="M 128.5,292.5 C 129.833,293.167 129.833,293.167 128.5,292.5 Z"/></g>
<g><path style="opacity:0.233" fill="#000000" d="M 195.5,294.5 C 195.897,293.475 196.563,293.308 197.5,294C 196.906,294.464 196.239,294.631 195.5,294.5 Z"/></g>
<g><path style="opacity:0.206" fill="#000000" d="M 219.5,300.5 C 219.5,300.167 219.5,299.833 219.5,299.5C 222.167,299.833 222.167,300.167 219.5,300.5 Z"/></g>
<g><path style="opacity:0.145" fill="#000000" d="M 737.5,300.5 C 736.833,299.167 736.833,299.167 737.5,300.5 Z"/></g>
<g><path style="opacity:0.071" fill="#000000" d="M 792.5,302.5 C 793.833,303.167 793.833,303.167 792.5,302.5 Z"/></g>
<g><path style="opacity:0.082" fill="#000000" d="M -0.5,305.5 C 0.833333,306.167 0.833333,306.167 -0.5,305.5 Z"/></g>
<g><path style="opacity:0.165" fill="#000000" d="M 711.5,305.5 C 712.833,306.167 712.833,306.167 711.5,305.5 Z"/></g>
<g><path style="opacity:0.051" fill="#000000" d="M 788.5,308.5 C 789.833,309.167 789.833,309.167 788.5,308.5 Z"/></g>
<g><path style="opacity:0.255" fill="#000000" d="M 794.5,316.5 C 795.833,317.167 795.833,317.167 794.5,316.5 Z"/></g>
<g><path style="opacity:0.275" fill="#000000" d="M 496.5,322.5 C 497.833,323.167 497.833,323.167 496.5,322.5 Z"/></g>
<g><path style="opacity:0.369" fill="#000000" d="M 513.5,329.5 C 514.833,330.167 514.833,330.167 513.5,329.5 Z"/></g>
<g><path style="opacity:0.286" fill="#000000" d="M 410.5,333.5 C 409.475,333.103 409.308,332.437 410,331.5C 410.464,332.094 410.631,332.761 410.5,333.5 Z"/></g>
<g><path style="opacity:0.165" fill="#000000" d="M 480.5,335.5 C 481.833,336.167 481.833,336.167 480.5,335.5 Z"/></g>
<g><path style="opacity:0.149" fill="#000000" d="M 507.5,339.5 C 508.833,340.167 508.833,340.167 507.5,339.5 Z"/></g>
<g><path style="opacity:0.11" fill="#000000" d="M 500.5,348.5 C 501.833,349.167 501.833,349.167 500.5,348.5 Z"/></g>
<g><path style="opacity:0.831" fill="#000000" d="M 726.5,404.5 C 724.76,404.152 723.093,404.152 721.5,404.5C 718.028,405.815 715.528,408.148 714,411.5C 712.333,410.167 710.667,410.167 709,411.5C 708.333,410.833 707.667,410.167 707,409.5C 705.388,409.952 704.388,411.285 704,413.5C 703.692,412.692 703.192,412.025 702.5,411.5C 699.419,413.132 696.086,414.132 692.5,414.5C 690.813,414.24 689.313,413.573 688,412.5C 687.667,413.167 687.333,413.833 687,414.5C 685.915,413.707 684.748,413.04 683.5,412.5C 681.556,413.801 679.556,414.801 677.5,415.5C 677.167,415.5 676.833,415.5 676.5,415.5C 675.739,414.609 674.739,413.942 673.5,413.5C 668.173,415.366 663.006,414.699 658,411.5C 656.327,413.917 654.494,413.917 652.5,411.5C 650.405,412.229 648.572,411.563 647,409.5C 645.249,410.174 643.583,410.507 642,410.5C 641.676,408.431 640.842,408.098 639.5,409.5C 638.803,407.615 637.803,407.282 636.5,408.5C 635.735,407.388 634.735,406.721 633.5,406.5C 633.167,405.167 632.833,405.167 632.5,406.5C 626.653,404.434 620.653,401.934 614.5,399C 613.457,397.024 612.123,396.524 610.5,397.5C 605.964,395.082 601.964,391.248 598.5,386C 599.737,385.768 600.737,385.268 601.5,384.5C 603.032,383.323 604.532,381.989 606,380.5C 607.676,381.061 609.009,382.061 610,383.5C 611.828,381.193 613.494,381.526 615,384.5C 615.333,384.167 615.667,383.833 616,383.5C 621.615,388.264 628.115,391.097 635.5,392C 634.167,393.84 634.334,394.34 636,393.5C 646.08,396.773 656.08,399.107 666,400.5C 667,399.833 668,399.167 669,398.5C 669.804,399.804 670.971,400.471 672.5,400.5C 678.822,400.086 684.989,400.086 691,400.5C 698.424,398.899 705.59,396.565 712.5,393.5C 713.086,393.709 713.586,394.043 714,394.5C 715.076,390.894 717.243,389.894 720.5,391.5C 727.77,387.178 734.937,381.844 742,375.5C 748.358,368.752 754.191,361.586 759.5,354C 760.449,353.383 761.282,353.549 762,354.5C 762.333,353.167 762.667,351.833 763,350.5C 765.529,353.315 768.196,353.649 771,351.5C 771.692,352.025 772.192,352.692 772.5,353.5C 770.338,356.14 770.005,358.973 771.5,362C 771.031,363.887 770.031,365.387 768.5,366.5C 768.709,367.086 769.043,367.586 769.5,368C 768.062,368.219 766.729,368.719 765.5,369.5C 765.24,372.54 763.406,374.874 760,376.5C 756.951,381.914 752.451,386.747 746.5,391C 746.833,391.333 747.167,391.667 747.5,392C 744.512,392.217 741.845,393.217 739.5,395C 740.28,396.073 740.113,397.24 739,398.5C 737.951,397.483 736.784,397.316 735.5,398C 735.833,398.333 736.167,398.667 736.5,399C 733.134,400.834 729.801,402.667 726.5,404.5 Z M 754.5,361.5 C 755.289,361.783 755.956,362.283 756.5,363C 755.184,363.528 754.517,363.028 754.5,361.5 Z"/></g>
<g><path style="opacity:0.02" fill="#000000" d="M 493.5,351.5 C 494.833,352.167 494.833,352.167 493.5,351.5 Z"/></g>
<g><path style="opacity:0.184" fill="#000000" d="M 442.5,356.5 C 443.833,357.167 443.833,357.167 442.5,356.5 Z"/></g>
<g><path style="opacity:0.227" fill="#000000" d="M 445.5,356.5 C 446.833,357.167 446.833,357.167 445.5,356.5 Z"/></g>
<g><path style="opacity:0.431" fill="#000000" d="M 414.5,359.5 C 415.833,360.167 415.833,360.167 414.5,359.5 Z"/></g>
<g><path style="opacity:0.016" fill="#000000" d="M 772.5,361.5 C 773.833,362.167 773.833,362.167 772.5,361.5 Z"/></g>
<g><path style="opacity:0.828" fill="#000000" d="M 589.5,411.5 C 588.178,411.67 587.011,411.337 586,410.5C 585,411.833 584,413.167 583,414.5C 582.139,411.632 580.472,409.298 578,407.5C 576.989,401.511 576.156,395.511 575.5,389.5C 576.466,383.549 577.132,377.549 577.5,371.5C 580.346,371.191 581.846,369.525 582,366.5C 583,365.833 584,365.167 585,364.5C 586,365.833 587,365.833 588,364.5C 587.383,366.095 587.716,367.428 589,368.5C 591.075,366.352 593.408,366.018 596,367.5C 599.66,365.975 603.493,364.975 607.5,364.5C 610.193,365.145 612.693,365.145 615,364.5C 617.667,365.167 620.333,365.833 623,366.5C 622.868,369.898 622.702,373.232 622.5,376.5C 621.167,376.5 619.833,376.5 618.5,376.5C 618.649,377.552 618.483,378.552 618,379.5C 612.516,379.156 607.016,379.156 601.5,379.5C 600.833,378.833 600.167,378.167 599.5,377.5C 598.304,377.846 598.304,378.346 599.5,379C 598.234,379.309 597.067,379.809 596,380.5C 594.989,379.663 593.822,379.33 592.5,379.5C 592.034,381.201 592.034,382.701 592.5,384C 589.345,384.981 589.012,386.315 591.5,388C 590.833,388.333 590.167,388.667 589.5,389C 590.43,390.194 591.097,391.527 591.5,393C 591.14,394.652 590.807,396.318 590.5,398C 593.167,400 593.167,402 590.5,404C 591.167,404.333 591.833,404.667 592.5,405C 591.576,405.85 591.576,406.85 592.5,408C 591.929,409.599 590.929,410.766 589.5,411.5 Z"/></g>
<g><path style="opacity:0.439" fill="#000000" d="M 392.5,366.5 C 393.833,367.167 393.833,367.167 392.5,366.5 Z"/></g>
<g><path style="opacity:0.22" fill="#000000" d="M 500.5,367.5 C 499.833,366.167 499.833,366.167 500.5,367.5 Z"/></g>
<g><path style="opacity:0.141" fill="#000000" d="M 412.5,367.5 C 413.833,368.167 413.833,368.167 412.5,367.5 Z"/></g>
<g><path style="opacity:0.075" fill="#000000" d="M 371.5,368.5 C 372.833,369.167 372.833,369.167 371.5,368.5 Z"/></g>
<g><path style="opacity:0.008" fill="#000000" d="M 380.5,371.5 C 379.833,372.167 379.833,372.167 380.5,371.5 Z"/></g>
<g><path style="opacity:0.498" fill="#000000" d="M 378.5,376.5 C 377.833,375.167 377.833,375.167 378.5,376.5 Z"/></g>
<g><path style="opacity:0.38" fill="#000000" d="M 601.5,384.5 C 600.448,384.649 599.448,384.483 598.5,384C 599.667,383.5 600.5,382.667 601,381.5C 602.728,382.352 602.895,383.352 601.5,384.5 Z"/></g>
<g><path style="opacity:0.414" fill="#000000" d="M 743.5,394.5 C 743.897,393.475 744.563,393.308 745.5,394C 744.906,394.464 744.239,394.631 743.5,394.5 Z"/></g>
<g><path style="opacity:0.569" fill="#000000" d="M 726.5,404.5 C 725.833,405.167 725.833,405.167 726.5,404.5 Z"/></g>
<g><path style="opacity:0.165" fill="#000000" d="M 632.5,406.5 C 632.833,406.5 633.167,406.5 633.5,406.5C 633.315,407.17 632.981,407.17 632.5,406.5 Z"/></g>
<g><path style="opacity:0.388" fill="#000000" d="M 718.5,408.5 C 718.897,407.475 719.563,407.308 720.5,408C 719.906,408.464 719.239,408.631 718.5,408.5 Z"/></g>
<g><path style="opacity:0.452" fill="#000000" d="M 589.5,411.5 C 590.289,411.783 590.956,412.283 591.5,413C 590.184,413.528 589.517,413.028 589.5,411.5 Z"/></g>
</svg>
