# Blender 4.2.3 LTS
# www.blender.org
o 2x1
v -0.470000 -0.500000 0.470000
v -0.470000 -0.470000 0.500000
v -0.500000 -0.470000 0.470000
v -0.470000 0.470000 0.500000
v -0.470000 0.500000 0.470000
v -0.500000 0.470000 0.470000
v -0.470000 -0.500000 -0.470000
v -0.500000 -0.470000 -0.470000
v -0.470000 -0.470000 -0.500000
v -0.470000 0.500000 -0.470000
v -0.470000 0.470000 -0.500000
v -0.500000 0.470000 -0.470000
v 0.470000 -0.500000 0.470000
v 0.500000 -0.470000 0.470000
v 0.470000 -0.470000 0.500000
v 0.470000 0.500000 0.470000
v 0.470000 0.470000 0.500000
v 0.500000 0.470000 0.470000
v 0.470000 -0.500000 -0.470000
v 0.470000 -0.470000 -0.500000
v 0.500000 -0.470000 -0.470000
v 0.470000 0.500000 -0.470000
v 0.500000 0.470000 -0.470000
v 0.470000 0.470000 -0.500000
v -0.470000 -0.500000 -0.530000
v -0.470000 -0.470000 -0.500000
v -0.500000 -0.470000 -0.530000
v -0.470000 0.470000 -0.500000
v -0.470000 0.500000 -0.530000
v -0.500000 0.470000 -0.530000
v -0.470000 -0.500000 -1.470000
v -0.500000 -0.470000 -1.470000
v -0.470000 -0.470000 -1.500000
v -0.470000 0.500000 -1.470000
v -0.470000 0.470000 -1.500000
v -0.500000 0.470000 -1.470000
v 0.470000 -0.500000 -0.530000
v 0.500000 -0.470000 -0.530000
v 0.470000 -0.470000 -0.500000
v 0.470000 0.500000 -0.530000
v 0.470000 0.470000 -0.500000
v 0.500000 0.470000 -0.530000
v 0.470000 -0.500000 -1.470000
v 0.470000 -0.470000 -1.500000
v 0.500000 -0.470000 -1.470000
v 0.470000 0.500000 -1.470000
v 0.500000 0.470000 -1.470000
v 0.470000 0.470000 -1.500000
v 0.530000 -0.500000 0.470000
v 0.530000 -0.470000 0.500000
v 0.500000 -0.470000 0.470000
v 0.530000 0.470000 0.500000
v 0.530000 0.500000 0.470000
v 0.500000 0.470000 0.470000
v 0.530000 -0.500000 -0.470000
v 0.500000 -0.470000 -0.470000
v 0.530000 -0.470000 -0.500000
v 0.530000 0.500000 -0.470000
v 0.530000 0.470000 -0.500000
v 0.500000 0.470000 -0.470000
v 1.470000 -0.500000 0.470000
v 1.500000 -0.470000 0.470000
v 1.470000 -0.470000 0.500000
v 1.470000 0.500000 0.470000
v 1.470000 0.470000 0.500000
v 1.500000 0.470000 0.470000
v 1.470000 -0.500000 -0.470000
v 1.470000 -0.470000 -0.500000
v 1.500000 -0.470000 -0.470000
v 1.470000 0.500000 -0.470000
v 1.500000 0.470000 -0.470000
v 1.470000 0.470000 -0.500000
v 0.530000 -0.500000 -0.530000
v 0.530000 -0.470000 -0.500000
v 0.500000 -0.470000 -0.530000
v 0.530000 0.470000 -0.500000
v 0.530000 0.500000 -0.530000
v 0.500000 0.470000 -0.530000
v 0.530000 -0.500000 -1.470000
v 0.500000 -0.470000 -1.470000
v 0.530000 -0.470000 -1.500000
v 0.530000 0.500000 -1.470000
v 0.530000 0.470000 -1.500000
v 0.500000 0.470000 -1.470000
v 1.470000 -0.500000 -0.530000
v 1.500000 -0.470000 -0.530000
v 1.470000 -0.470000 -0.500000
v 1.470000 0.500000 -0.530000
v 1.470000 0.470000 -0.500000
v 1.500000 0.470000 -0.530000
v 1.470000 -0.500000 -1.470000
v 1.470000 -0.470000 -1.500000
v 1.500000 -0.470000 -1.470000
v 1.470000 0.500000 -1.470000
v 1.500000 0.470000 -1.470000
v 1.470000 0.470000 -1.500000
vn -0.0000 -0.0000 1.0000
vn -0.0000 1.0000 -0.0000
vn -1.0000 -0.0000 -0.0000
vn -0.5773 -0.5774 0.5774
vn -0.5773 0.5774 0.5774
vn -0.5773 -0.5773 -0.5774
vn -0.5773 0.5773 -0.5774
vn 0.5773 -0.5774 0.5773
vn 0.5773 0.5774 0.5773
vn 0.5774 -0.5774 -0.5774
vn 0.5774 0.5774 -0.5774
vn -0.7071 -0.7071 -0.0000
vn -0.7071 -0.0000 0.7071
vn -0.7071 0.7071 -0.0000
vn -0.7071 -0.0000 -0.7071
vn -0.0000 -0.7071 -0.7071
vn -0.0000 0.7071 -0.7071
vn 0.7071 -0.7071 -0.0000
vn 0.7071 0.7071 -0.0000
vn 0.7071 -0.0000 0.7071
vn -0.0000 -0.7071 0.7071
vn -0.0000 0.7071 0.7071
vn -0.0000 -1.0000 -0.0000
vn -0.0000 -0.0000 -1.0000
vn -0.5773 -0.5773 0.5774
vn -0.5773 0.5773 0.5774
vn -0.5773 -0.5774 -0.5774
vn -0.5773 0.5774 -0.5774
vn 0.5774 -0.5774 0.5774
vn 0.5774 0.5774 0.5774
vn 0.5773 -0.5774 -0.5773
vn 0.5773 0.5774 -0.5773
vn 0.7071 -0.0000 -0.7071
vn 1.0000 -0.0000 -0.0000
vn -0.5773 -0.5774 0.5773
vn -0.5773 0.5774 0.5773
vn -0.5774 -0.5774 -0.5774
vn -0.5774 0.5774 -0.5774
vn 0.5773 -0.5774 0.5774
vn 0.5773 0.5774 0.5774
vn 0.5773 -0.5773 -0.5774
vn 0.5773 0.5773 -0.5774
vn -0.5774 -0.5774 0.5774
vn -0.5774 0.5774 0.5774
vn -0.5773 -0.5774 -0.5773
vn -0.5773 0.5774 -0.5773
vn 0.5773 -0.5773 0.5774
vn 0.5773 0.5773 0.5774
vn 0.5773 -0.5774 -0.5774
vn 0.5773 0.5774 -0.5774
vt 0.382500 0.757500
vt 0.617500 0.757500
vt 0.617500 0.992500
vt 0.382500 0.992500
vt 0.632500 0.507500
vt 0.867500 0.507500
vt 0.867500 0.742500
vt 0.632500 0.742500
vt 0.382500 0.007500
vt 0.617500 0.007500
vt 0.617500 0.242500
vt 0.382500 0.242500
vt 0.132500 0.742500
vt 0.132500 0.750000
vt 0.125000 0.742500
vt 0.617500 0.000000
vt 0.625000 0.007500
vt 0.132500 0.507500
vt 0.125000 0.507500
vt 0.132500 0.500000
vt 0.625000 0.242500
vt 0.617500 0.250000
vt 0.367500 0.742500
vt 0.375000 0.742500
vt 0.367500 0.750000
vt 0.625000 0.757500
vt 0.617500 0.750000
vt 0.367500 0.507500
vt 0.367500 0.500000
vt 0.375000 0.507500
vt 0.625000 0.492500
vt 0.617500 0.500000
vt 0.617500 0.492500
vt 0.382500 0.000000
vt 0.617500 0.257500
vt 0.382500 0.257500
vt 0.625000 0.257500
vt 0.382500 0.507500
vt 0.382500 0.742500
vt 0.617500 0.742500
vt 0.617500 0.507500
vt 0.625000 0.992500
vt 0.382500 0.492500
s 0
f 15/1/1 17/2/1 4/3/1 2/4/1
f 22/5/2 10/6/2 5/7/2 16/8/2
f 3/9/3 6/10/3 12/11/3 8/12/3
f 1/13/4 2/14/4 3/15/4
f 4/16/5 5/17/5 6/10/5
f 7/18/6 8/19/6 9/20/6
f 10/21/7 11/22/7 12/11/7
f 13/23/8 14/24/8 15/25/8
f 16/26/9 17/2/9 18/27/9
f 19/28/10 20/29/10 21/30/10
f 22/31/11 23/32/11 24/33/11
f 7/18/12 1/13/12 3/15/12 8/19/12
f 2/34/13 4/16/13 6/10/13 3/9/13
f 5/17/14 10/21/14 12/11/14 6/10/14
f 11/35/15 9/36/15 8/12/15 12/11/15
f 19/28/16 7/18/16 9/20/16 20/29/16
f 10/37/17 22/31/17 24/33/17 11/35/17
f 13/23/18 19/28/18 21/38/18 14/39/18
f 22/5/19 16/8/19 18/40/19 23/41/19
f 17/2/20 15/1/20 14/39/20 18/40/20
f 1/13/21 13/23/21 15/25/21 2/14/21
f 16/26/22 5/42/22 4/3/22 17/2/22
f 7/18/23 19/28/23 13/23/23 1/13/23
f 46/5/2 34/6/2 29/7/2 40/8/2
f 27/9/3 30/10/3 36/11/3 32/12/3
f 33/36/24 35/35/24 48/33/24 44/43/24
f 25/13/25 26/14/25 27/15/25
f 28/16/26 29/17/26 30/10/26
f 31/18/27 32/19/27 33/20/27
f 34/21/28 35/22/28 36/11/28
f 37/23/29 38/24/29 39/25/29
f 40/26/30 41/2/30 42/27/30
f 43/28/31 44/29/31 45/30/31
f 46/31/32 47/32/32 48/33/32
f 31/18/12 25/13/12 27/15/12 32/19/12
f 26/34/13 28/16/13 30/10/13 27/9/13
f 29/17/14 34/21/14 36/11/14 30/10/14
f 35/35/15 33/36/15 32/12/15 36/11/15
f 43/28/16 31/18/16 33/20/16 44/29/16
f 34/37/17 46/31/17 48/33/17 35/35/17
f 47/41/33 45/38/33 44/43/33 48/33/33
f 37/23/18 43/28/18 45/38/18 38/39/18
f 46/5/19 40/8/19 42/40/19 47/41/19
f 25/13/21 37/23/21 39/25/21 26/14/21
f 40/26/22 29/42/22 28/3/22 41/2/22
f 31/18/23 43/28/23 37/23/23 25/13/23
f 63/1/1 65/2/1 52/3/1 50/4/1
f 69/38/34 71/41/34 66/40/34 62/39/34
f 70/5/2 58/6/2 53/7/2 64/8/2
f 49/13/35 50/14/35 51/15/35
f 52/16/36 53/17/36 54/10/36
f 55/18/37 56/19/37 57/20/37
f 58/21/38 59/22/38 60/11/38
f 61/23/39 62/24/39 63/25/39
f 64/26/40 65/2/40 66/27/40
f 67/28/41 68/29/41 69/30/41
f 70/31/42 71/32/42 72/33/42
f 55/18/12 49/13/12 51/15/12 56/19/12
f 50/34/13 52/16/13 54/10/13 51/9/13
f 53/17/14 58/21/14 60/11/14 54/10/14
f 67/28/16 55/18/16 57/20/16 68/29/16
f 58/37/17 70/31/17 72/33/17 59/35/17
f 71/41/33 69/38/33 68/43/33 72/33/33
f 61/23/18 67/28/18 69/38/18 62/39/18
f 70/5/19 64/8/19 66/40/19 71/41/19
f 65/2/20 63/1/20 62/39/20 66/40/20
f 49/13/21 61/23/21 63/25/21 50/14/21
f 64/26/22 53/42/22 52/3/22 65/2/22
f 55/18/23 67/28/23 61/23/23 49/13/23
f 93/38/34 95/41/34 90/40/34 86/39/34
f 94/5/2 82/6/2 77/7/2 88/8/2
f 81/36/24 83/35/24 96/33/24 92/43/24
f 73/13/43 74/14/43 75/15/43
f 76/16/44 77/17/44 78/10/44
f 79/18/45 80/19/45 81/20/45
f 82/21/46 83/22/46 84/11/46
f 85/23/47 86/24/47 87/25/47
f 88/26/48 89/2/48 90/27/48
f 91/28/49 92/29/49 93/30/49
f 94/31/50 95/32/50 96/33/50
f 79/18/12 73/13/12 75/15/12 80/19/12
f 77/17/14 82/21/14 84/11/14 78/10/14
f 83/35/15 81/36/15 80/12/15 84/11/15
f 91/28/16 79/18/16 81/20/16 92/29/16
f 82/37/17 94/31/17 96/33/17 83/35/17
f 95/41/33 93/38/33 92/43/33 96/33/33
f 85/23/18 91/28/18 93/38/18 86/39/18
f 94/5/19 88/8/19 90/40/19 95/41/19
f 89/2/20 87/1/20 86/39/20 90/40/20
f 73/13/21 85/23/21 87/25/21 74/14/21
f 88/26/22 77/42/22 76/3/22 89/2/22
f 79/18/23 91/28/23 85/23/23 73/13/23
