# Blender 4.3.0
# www.blender.org
o Main_Reference.002
v -0.491622 -0.466150 0.480826
v -0.489427 -0.435866 0.510458
v -0.519738 -0.434378 0.480810
v -0.432226 0.502323 0.499054
v -0.430770 0.531923 0.468694
v -0.462538 0.503811 0.469406
v -0.503209 -0.476868 -0.459042
v -0.531325 -0.445096 -0.459057
v -0.501753 -0.447268 -0.489401
v -0.442357 0.521205 -0.471174
v -0.444552 0.490921 -0.500805
v -0.474125 0.493093 -0.470461
v 0.446565 -0.523483 0.469914
v 0.478332 -0.495371 0.469201
v 0.448760 -0.493199 0.499546
v 0.507416 0.474590 0.457782
v 0.505961 0.444990 0.488142
v 0.535533 0.442818 0.457797
v 0.434978 -0.534201 -0.469954
v 0.436434 -0.504601 -0.500314
v 0.466746 -0.506089 -0.470666
v 0.495830 0.463872 -0.482086
v 0.523946 0.432100 -0.482070
v 0.493634 0.433588 -0.511717
vn 0.0123 0.0114 0.9999
vn 0.9981 -0.0610 -0.0116
vn 0.0609 0.9981 -0.0121
vn -0.9981 0.0610 0.0116
vn -0.0123 -0.0114 -0.9999
vn -0.6043 -0.5344 0.5910
vn -0.5340 0.6180 0.5770
vn -0.6185 -0.5476 -0.5636
vn -0.5482 0.6049 -0.5776
vn 0.5482 -0.6049 0.5776
vn 0.6185 0.5476 0.5636
vn 0.5340 -0.6180 -0.5770
vn 0.6043 0.5344 -0.5910
vn -0.7488 -0.6626 0.0168
vn -0.6970 0.0512 0.7152
vn -0.6627 0.7489 -0.0004
vn -0.7145 0.0351 -0.6988
vn -0.0517 -0.7138 -0.6984
vn 0.0343 0.6977 -0.7156
vn 0.6970 -0.0512 -0.7152
vn 0.6627 -0.7489 0.0004
vn 0.7488 0.6626 -0.0168
vn 0.7145 -0.0351 0.6988
vn -0.0343 -0.6977 0.7156
vn 0.0517 0.7138 0.6984
vn -0.0609 -0.9981 0.0121
vt 0.382500 0.757500
vt 0.617500 0.757500
vt 0.617500 0.992500
vt 0.382500 0.992500
vt 0.382500 0.507500
vt 0.617500 0.507500
vt 0.617500 0.742500
vt 0.382500 0.742500
vt 0.632500 0.507500
vt 0.867500 0.507500
vt 0.867500 0.742500
vt 0.632500 0.742500
vt 0.382500 0.007500
vt 0.617500 0.007500
vt 0.617500 0.242500
vt 0.382500 0.242500
vt 0.382500 0.257500
vt 0.617500 0.257500
vt 0.617500 0.492500
vt 0.382500 0.492500
vt 0.132500 0.742500
vt 0.132500 0.750000
vt 0.125000 0.742500
vt 0.617500 0.000000
vt 0.625000 0.007500
vt 0.132500 0.507500
vt 0.125000 0.507500
vt 0.132500 0.500000
vt 0.625000 0.242500
vt 0.617500 0.250000
vt 0.367500 0.742500
vt 0.375000 0.742500
vt 0.367500 0.750000
vt 0.625000 0.757500
vt 0.617500 0.750000
vt 0.367500 0.507500
vt 0.367500 0.500000
vt 0.375000 0.507500
vt 0.625000 0.492500
vt 0.617500 0.500000
vt 0.382500 0.000000
vt 0.625000 0.257500
vt 0.625000 0.992500
s 0
f 15/1/1 17/2/1 4/3/1 2/4/1
f 21/5/2 23/6/2 18/7/2 14/8/2
f 22/9/3 10/10/3 5/11/3 16/12/3
f 3/13/4 6/14/4 12/15/4 8/16/4
f 9/17/5 11/18/5 24/19/5 20/20/5
f 1/21/6 2/22/6 3/23/6
f 4/24/7 5/25/7 6/14/7
f 7/26/8 8/27/8 9/28/8
f 10/29/9 11/30/9 12/15/9
f 13/31/10 14/32/10 15/33/10
f 16/34/11 17/2/11 18/35/11
f 19/36/12 20/37/12 21/38/12
f 22/39/13 23/40/13 24/19/13
f 7/26/14 1/21/14 3/23/14 8/27/14
f 2/41/15 4/24/15 6/14/15 3/13/15
f 5/25/16 10/29/16 12/15/16 6/14/16
f 11/18/17 9/17/17 8/16/17 12/15/17
f 19/36/18 7/26/18 9/28/18 20/37/18
f 10/42/19 22/39/19 24/19/19 11/18/19
f 23/6/20 21/5/20 20/20/20 24/19/20
f 13/31/21 19/36/21 21/5/21 14/8/21
f 22/9/22 16/12/22 18/7/22 23/6/22
f 17/2/23 15/1/23 14/8/23 18/7/23
f 1/21/24 13/31/24 15/33/24 2/22/24
f 16/34/25 5/43/25 4/3/25 17/2/25
f 7/26/26 19/36/26 13/31/26 1/21/26
o Main_Reference.003
v 0.557390 -0.573173 0.414182
v 0.553216 -0.545569 0.446129
v 0.524661 -0.546183 0.414756
v 0.462462 0.387824 0.510481
v 0.460843 0.419798 0.482641
v 0.433907 0.387210 0.479108
v 0.597427 -0.504705 -0.522465
v 0.564698 -0.477714 -0.521891
v 0.595808 -0.472730 -0.550305
v 0.500880 0.488267 -0.454006
v 0.505054 0.460663 -0.485953
v 0.473944 0.455679 -0.457540
v 1.492141 -0.485484 0.460549
v 1.519078 -0.452896 0.464082
v 1.487967 -0.457880 0.492495
v 1.395595 0.507487 0.529008
v 1.397213 0.475513 0.556847
v 1.428324 0.480497 0.528434
v 1.532179 -0.417015 -0.476099
v 1.530560 -0.385041 -0.503938
v 1.559115 -0.384428 -0.472566
v 1.435632 0.575956 -0.407640
v 1.468361 0.548966 -0.408214
v 1.439806 0.548352 -0.439587
vn -0.0426 -0.0728 0.9964
vn 0.9944 0.0933 0.0493
vn -0.0965 0.9930 0.0685
vn -0.9944 -0.0933 -0.0493
vn 0.0426 0.0728 -0.9964
vn -0.5430 -0.6692 0.5073
vn -0.6545 0.4774 0.5863
vn -0.4938 -0.5851 -0.6433
vn -0.6053 0.5615 -0.5642
vn 0.6053 -0.5615 0.5642
vn 0.4938 0.5851 0.6433
vn 0.6545 -0.4774 -0.5863
vn 0.5430 0.6692 -0.5073
vn -0.6349 -0.7681 -0.0833
vn -0.7333 -0.1175 0.6697
vn -0.7714 0.6362 0.0135
vn -0.6730 -0.0145 -0.7395
vn 0.0984 -0.6506 -0.7530
vn -0.0382 0.7536 -0.6562
vn 0.7333 0.1175 -0.6697
vn 0.7714 -0.6362 -0.0135
vn 0.6349 0.7681 0.0833
vn 0.6730 0.0145 0.7395
vn 0.0382 -0.7536 0.6562
vn -0.0984 0.6506 0.7530
vn 0.0965 -0.9930 -0.0685
vt 0.382500 0.757500
vt 0.617500 0.757500
vt 0.617500 0.992500
vt 0.382500 0.992500
vt 0.382500 0.507500
vt 0.617500 0.507500
vt 0.617500 0.742500
vt 0.382500 0.742500
vt 0.632500 0.507500
vt 0.867500 0.507500
vt 0.867500 0.742500
vt 0.632500 0.742500
vt 0.382500 0.007500
vt 0.617500 0.007500
vt 0.617500 0.242500
vt 0.382500 0.242500
vt 0.382500 0.257500
vt 0.617500 0.257500
vt 0.617500 0.492500
vt 0.382500 0.492500
vt 0.132500 0.742500
vt 0.132500 0.750000
vt 0.125000 0.742500
vt 0.617500 0.000000
vt 0.625000 0.007500
vt 0.132500 0.507500
vt 0.125000 0.507500
vt 0.132500 0.500000
vt 0.625000 0.242500
vt 0.617500 0.250000
vt 0.367500 0.742500
vt 0.375000 0.742500
vt 0.367500 0.750000
vt 0.625000 0.757500
vt 0.617500 0.750000
vt 0.367500 0.507500
vt 0.367500 0.500000
vt 0.375000 0.507500
vt 0.625000 0.492500
vt 0.617500 0.500000
vt 0.382500 0.000000
vt 0.625000 0.257500
vt 0.625000 0.992500
s 0
f 39/44/27 41/45/27 28/46/27 26/47/27
f 45/48/28 47/49/28 42/50/28 38/51/28
f 46/52/29 34/53/29 29/54/29 40/55/29
f 27/56/30 30/57/30 36/58/30 32/59/30
f 33/60/31 35/61/31 48/62/31 44/63/31
f 25/64/32 26/65/32 27/66/32
f 28/67/33 29/68/33 30/57/33
f 31/69/34 32/70/34 33/71/34
f 34/72/35 35/73/35 36/58/35
f 37/74/36 38/75/36 39/76/36
f 40/77/37 41/45/37 42/78/37
f 43/79/38 44/80/38 45/81/38
f 46/82/39 47/83/39 48/62/39
f 31/69/40 25/64/40 27/66/40 32/70/40
f 26/84/41 28/67/41 30/57/41 27/56/41
f 29/68/42 34/72/42 36/58/42 30/57/42
f 35/61/43 33/60/43 32/59/43 36/58/43
f 43/79/44 31/69/44 33/71/44 44/80/44
f 34/85/45 46/82/45 48/62/45 35/61/45
f 47/49/46 45/48/46 44/63/46 48/62/46
f 37/74/47 43/79/47 45/48/47 38/51/47
f 46/52/48 40/55/48 42/50/48 47/49/48
f 41/45/49 39/44/49 38/51/49 42/50/49
f 25/64/50 37/74/50 39/76/50 26/65/50
f 40/77/51 29/86/51 28/46/51 41/45/51
f 31/69/52 43/79/52 37/74/52 25/64/52
o Main_Reference.004
v 1.591839 -0.480450 0.539284
v 1.591140 -0.447632 0.566163
v 1.559693 -0.452785 0.538154
v 1.519892 0.485176 0.474541
v 1.516043 0.511898 0.441814
v 1.488445 0.480023 0.446532
v 1.542487 -0.575942 -0.394550
v 1.510341 -0.548277 -0.395680
v 1.538638 -0.549219 -0.427277
v 1.466691 0.416406 -0.492020
v 1.467390 0.383588 -0.518899
v 1.439093 0.384531 -0.487302
v 2.527835 -0.414479 0.483072
v 2.555433 -0.382603 0.478354
v 2.527136 -0.381661 0.509951
v 2.452039 0.577869 0.385602
v 2.455888 0.551146 0.418329
v 2.484185 0.550204 0.386732
v 2.478483 -0.509971 -0.450762
v 2.474634 -0.483248 -0.483489
v 2.506081 -0.478095 -0.455480
v 2.402687 0.482377 -0.548232
v 2.434833 0.454712 -0.547102
v 2.403386 0.449559 -0.575111
vn 0.0525 0.1016 0.9934
vn 0.9957 0.0702 -0.0598
vn -0.0758 0.9923 -0.0975
vn -0.9957 -0.0702 0.0598
vn -0.0525 -0.1016 -0.9934
vn -0.5008 -0.5548 0.6644
vn -0.5883 0.5911 0.5518
vn -0.5614 -0.6721 -0.4828
vn -0.6490 0.4738 -0.5953
vn 0.6490 -0.4738 0.5953
vn 0.5614 0.6721 0.4828
vn 0.5883 -0.5911 -0.5518
vn 0.5008 0.5548 -0.6644
vn -0.6505 -0.7513 0.1112
vn -0.6670 0.0222 0.7448
vn -0.7577 0.6521 -0.0266
vn -0.7412 -0.1215 -0.6602
vn 0.0165 -0.7735 -0.6335
vn -0.0907 0.6299 -0.7714
vn 0.6670 -0.0222 -0.7448
vn 0.7577 -0.6521 0.0266
vn 0.6505 0.7513 -0.1112
vn 0.7412 0.1215 0.6602
vn 0.0907 -0.6299 0.7714
vn -0.0165 0.7735 0.6335
vn 0.0758 -0.9923 0.0975
vt 0.382500 0.757500
vt 0.617500 0.757500
vt 0.617500 0.992500
vt 0.382500 0.992500
vt 0.382500 0.507500
vt 0.617500 0.507500
vt 0.617500 0.742500
vt 0.382500 0.742500
vt 0.632500 0.507500
vt 0.867500 0.507500
vt 0.867500 0.742500
vt 0.632500 0.742500
vt 0.382500 0.007500
vt 0.617500 0.007500
vt 0.617500 0.242500
vt 0.382500 0.242500
vt 0.382500 0.257500
vt 0.617500 0.257500
vt 0.617500 0.492500
vt 0.382500 0.492500
vt 0.132500 0.742500
vt 0.132500 0.750000
vt 0.125000 0.742500
vt 0.617500 0.000000
vt 0.625000 0.007500
vt 0.132500 0.507500
vt 0.125000 0.507500
vt 0.132500 0.500000
vt 0.625000 0.242500
vt 0.617500 0.250000
vt 0.367500 0.742500
vt 0.375000 0.742500
vt 0.367500 0.750000
vt 0.625000 0.757500
vt 0.617500 0.750000
vt 0.367500 0.507500
vt 0.367500 0.500000
vt 0.375000 0.507500
vt 0.625000 0.492500
vt 0.617500 0.500000
vt 0.382500 0.000000
vt 0.625000 0.257500
vt 0.625000 0.992500
s 0
f 63/87/53 65/88/53 52/89/53 50/90/53
f 69/91/54 71/92/54 66/93/54 62/94/54
f 70/95/55 58/96/55 53/97/55 64/98/55
f 51/99/56 54/100/56 60/101/56 56/102/56
f 57/103/57 59/104/57 72/105/57 68/106/57
f 49/107/58 50/108/58 51/109/58
f 52/110/59 53/111/59 54/100/59
f 55/112/60 56/113/60 57/114/60
f 58/115/61 59/116/61 60/101/61
f 61/117/62 62/118/62 63/119/62
f 64/120/63 65/88/63 66/121/63
f 67/122/64 68/123/64 69/124/64
f 70/125/65 71/126/65 72/105/65
f 55/112/66 49/107/66 51/109/66 56/113/66
f 50/127/67 52/110/67 54/100/67 51/99/67
f 53/111/68 58/115/68 60/101/68 54/100/68
f 59/104/69 57/103/69 56/102/69 60/101/69
f 67/122/70 55/112/70 57/114/70 68/123/70
f 58/128/71 70/125/71 72/105/71 59/104/71
f 71/92/72 69/91/72 68/106/72 72/105/72
f 61/117/73 67/122/73 69/91/73 62/94/73
f 70/95/74 64/98/74 66/93/74 71/92/74
f 65/88/75 63/87/75 62/94/75 66/93/75
f 49/107/76 61/117/76 63/119/76 50/108/76
f 64/120/77 53/129/77 52/89/77 65/88/77
f 55/112/78 67/122/78 61/117/78 49/107/78
o Main_Reference.005
v 1.534030 -0.580044 -0.620920
v 1.529842 -0.553848 -0.587811
v 1.502013 -0.552230 -0.619793
v 1.462049 0.377680 -0.481696
v 1.461909 0.410942 -0.508032
v 1.434220 0.379298 -0.513679
v 1.597448 -0.469340 -1.552221
v 1.565431 -0.441526 -1.551095
v 1.597308 -0.436078 -1.578557
v 1.525327 0.521646 -1.439333
v 1.529515 0.495450 -1.472442
v 1.497638 0.490002 -1.444981
v 2.469435 -0.520038 -0.550089
v 2.497124 -0.488393 -0.544442
v 2.465247 -0.493841 -0.516980
v 2.397314 0.470949 -0.437201
v 2.397454 0.437687 -0.410865
v 2.429331 0.443135 -0.438327
v 2.532853 -0.409333 -1.481391
v 2.532713 -0.376071 -1.507726
v 2.560543 -0.377689 -1.475744
v 2.460732 0.581653 -1.368503
v 2.492749 0.553839 -1.369629
v 2.464920 0.555457 -1.401612
vn -0.0675 -0.1178 0.9907
vn 0.9951 0.0638 0.0754
vn -0.0721 0.9910 0.1129
vn -0.9951 -0.0638 -0.0754
vn 0.0675 0.1178 -0.9907
vn -0.5718 -0.6770 0.4633
vn -0.6551 0.4673 0.5937
vn -0.4939 -0.5410 -0.6807
vn -0.5772 0.6033 -0.5503
vn 0.5772 -0.6033 0.5503
vn 0.4939 0.5410 0.6807
vn 0.6551 -0.4673 -0.5937
vn 0.5718 0.6770 -0.4633
vn -0.6527 -0.7459 -0.1331
vn -0.7514 -0.1284 0.6473
vn -0.7546 0.6556 0.0265
vn -0.6559 0.0381 -0.7538
vn 0.0987 -0.6175 -0.7804
vn -0.0033 0.7840 -0.6207
vn 0.7514 0.1284 -0.6473
vn 0.7546 -0.6556 -0.0265
vn 0.6527 0.7459 0.1331
vn 0.6559 -0.0381 0.7538
vn 0.0033 -0.7840 0.6207
vn -0.0987 0.6175 0.7804
vn 0.0721 -0.9910 -0.1129
vt 0.382500 0.757500
vt 0.617500 0.757500
vt 0.617500 0.992500
vt 0.382500 0.992500
vt 0.382500 0.507500
vt 0.617500 0.507500
vt 0.617500 0.742500
vt 0.382500 0.742500
vt 0.632500 0.507500
vt 0.867500 0.507500
vt 0.867500 0.742500
vt 0.632500 0.742500
vt 0.382500 0.007500
vt 0.617500 0.007500
vt 0.617500 0.242500
vt 0.382500 0.242500
vt 0.382500 0.257500
vt 0.617500 0.257500
vt 0.617500 0.492500
vt 0.382500 0.492500
vt 0.132500 0.742500
vt 0.132500 0.750000
vt 0.125000 0.742500
vt 0.617500 0.000000
vt 0.625000 0.007500
vt 0.132500 0.507500
vt 0.125000 0.507500
vt 0.132500 0.500000
vt 0.625000 0.242500
vt 0.617500 0.250000
vt 0.367500 0.742500
vt 0.375000 0.742500
vt 0.367500 0.750000
vt 0.625000 0.757500
vt 0.617500 0.750000
vt 0.367500 0.507500
vt 0.367500 0.500000
vt 0.375000 0.507500
vt 0.625000 0.492500
vt 0.617500 0.500000
vt 0.382500 0.000000
vt 0.625000 0.257500
vt 0.625000 0.992500
s 0
f 87/130/79 89/131/79 76/132/79 74/133/79
f 93/134/80 95/135/80 90/136/80 86/137/80
f 94/138/81 82/139/81 77/140/81 88/141/81
f 75/142/82 78/143/82 84/144/82 80/145/82
f 81/146/83 83/147/83 96/148/83 92/149/83
f 73/150/84 74/151/84 75/152/84
f 76/153/85 77/154/85 78/143/85
f 79/155/86 80/156/86 81/157/86
f 82/158/87 83/159/87 84/144/87
f 85/160/88 86/161/88 87/162/88
f 88/163/89 89/131/89 90/164/89
f 91/165/90 92/166/90 93/167/90
f 94/168/91 95/169/91 96/148/91
f 79/155/92 73/150/92 75/152/92 80/156/92
f 74/170/93 76/153/93 78/143/93 75/142/93
f 77/154/94 82/158/94 84/144/94 78/143/94
f 83/147/95 81/146/95 80/145/95 84/144/95
f 91/165/96 79/155/96 81/157/96 92/166/96
f 82/171/97 94/168/97 96/148/97 83/147/97
f 95/135/98 93/134/98 92/149/98 96/148/98
f 85/160/99 91/165/99 93/134/99 86/137/99
f 94/138/100 88/141/100 90/136/100 95/135/100
f 89/131/101 87/130/101 86/137/101 90/136/101
f 73/150/102 85/160/102 87/162/102 74/151/102
f 88/163/103 77/172/103 76/132/103 89/131/103
f 79/155/104 91/165/104 85/160/104 73/150/104
o Main_Reference.006
v 0.583937 -0.431327 -0.429097
v 0.585710 -0.397223 -0.403922
v 0.553275 -0.402056 -0.430840
v 0.561216 0.532359 -0.541323
v 0.557879 0.557590 -0.575268
v 0.528780 0.527525 -0.568240
v 0.503886 -0.570338 -1.355309
v 0.473224 -0.541067 -1.357052
v 0.500550 -0.545107 -1.389254
v 0.477828 0.418578 -1.501479
v 0.476055 0.384474 -1.526654
v 0.448729 0.388514 -1.494452
v 1.520202 -0.418892 -0.511883
v 1.549301 -0.388828 -0.518910
v 1.521975 -0.384788 -0.486708
v 1.494144 0.570024 -0.658054
v 1.497481 0.544793 -0.624108
v 1.524806 0.540753 -0.656310
v 1.440151 -0.557904 -1.438094
v 1.436815 -0.532673 -1.472039
v 1.469250 -0.527840 -1.445122
v 1.414093 0.431012 -1.584265
v 1.444756 0.401742 -1.582522
v 1.412320 0.396908 -1.609440
vn 0.0852 0.1479 0.9853
vn 0.9960 0.0132 -0.0881
vn -0.0261 0.9889 -0.1462
vn -0.9960 -0.0132 0.0881
vn -0.0852 -0.1479 -0.9853
vn -0.5108 -0.4932 0.7041
vn -0.5409 0.6487 0.5353
vn -0.6092 -0.6640 -0.4336
vn -0.6393 0.4779 -0.6024
vn 0.6393 -0.4779 0.6024
vn 0.6092 0.6640 0.4336
vn 0.5409 -0.6487 -0.5353
vn 0.5108 0.4932 -0.7041
vn -0.6859 -0.7086 0.1656
vn -0.6441 0.0952 0.7590
vn -0.7227 0.6899 -0.0411
vn -0.7645 -0.1139 -0.6345
vn -0.0418 -0.8038 -0.5934
vn -0.0786 0.5947 -0.8001
vn 0.6441 -0.0952 -0.7590
vn 0.7227 -0.6899 0.0411
vn 0.6859 0.7086 -0.1656
vn 0.7645 0.1139 0.6345
vn 0.0786 -0.5947 0.8001
vn 0.0418 0.8038 0.5934
vn 0.0261 -0.9889 0.1462
vt 0.382500 0.757500
vt 0.617500 0.757500
vt 0.617500 0.992500
vt 0.382500 0.992500
vt 0.382500 0.507500
vt 0.617500 0.507500
vt 0.617500 0.742500
vt 0.382500 0.742500
vt 0.632500 0.507500
vt 0.867500 0.507500
vt 0.867500 0.742500
vt 0.632500 0.742500
vt 0.382500 0.007500
vt 0.617500 0.007500
vt 0.617500 0.242500
vt 0.382500 0.242500
vt 0.382500 0.257500
vt 0.617500 0.257500
vt 0.617500 0.492500
vt 0.382500 0.492500
vt 0.132500 0.742500
vt 0.132500 0.750000
vt 0.125000 0.742500
vt 0.617500 0.000000
vt 0.625000 0.007500
vt 0.132500 0.507500
vt 0.125000 0.507500
vt 0.132500 0.500000
vt 0.625000 0.242500
vt 0.617500 0.250000
vt 0.367500 0.742500
vt 0.375000 0.742500
vt 0.367500 0.750000
vt 0.625000 0.757500
vt 0.617500 0.750000
vt 0.367500 0.507500
vt 0.367500 0.500000
vt 0.375000 0.507500
vt 0.625000 0.492500
vt 0.617500 0.500000
vt 0.382500 0.000000
vt 0.625000 0.257500
vt 0.625000 0.992500
s 0
f 111/173/105 113/174/105 100/175/105 98/176/105
f 117/177/106 119/178/106 114/179/106 110/180/106
f 118/181/107 106/182/107 101/183/107 112/184/107
f 99/185/108 102/186/108 108/187/108 104/188/108
f 105/189/109 107/190/109 120/191/109 116/192/109
f 97/193/110 98/194/110 99/195/110
f 100/196/111 101/197/111 102/186/111
f 103/198/112 104/199/112 105/200/112
f 106/201/113 107/202/113 108/187/113
f 109/203/114 110/204/114 111/205/114
f 112/206/115 113/174/115 114/207/115
f 115/208/116 116/209/116 117/210/116
f 118/211/117 119/212/117 120/191/117
f 103/198/118 97/193/118 99/195/118 104/199/118
f 98/213/119 100/196/119 102/186/119 99/185/119
f 101/197/120 106/201/120 108/187/120 102/186/120
f 107/190/121 105/189/121 104/188/121 108/187/121
f 115/208/122 103/198/122 105/200/122 116/209/122
f 106/214/123 118/211/123 120/191/123 107/190/123
f 119/178/124 117/177/124 116/192/124 120/191/124
f 109/203/125 115/208/125 117/177/125 110/180/125
f 118/181/126 112/184/126 114/179/126 119/178/126
f 113/174/127 111/173/127 110/180/127 114/179/127
f 97/193/128 109/203/128 111/205/128 98/194/128
f 112/206/129 101/215/129 100/175/129 113/174/129
f 103/198/130 115/208/130 109/203/130 97/193/130
o Main_Reference.007
v -0.386376 -0.503166 -0.464628
v -0.388789 -0.470605 -0.437537
v -0.419874 -0.477151 -0.465659
v -0.506813 0.458010 -0.523238
v -0.511934 0.484722 -0.555800
v -0.537899 0.451464 -0.551360
v -0.428796 -0.594807 -1.399189
v -0.462294 -0.568792 -1.400219
v -0.433917 -0.568095 -1.431750
v -0.554354 0.393081 -1.490360
v -0.551941 0.360520 -1.517451
v -0.580319 0.359823 -1.485920
v 0.545220 -0.389692 -0.518041
v 0.571185 -0.356434 -0.522481
v 0.542807 -0.357130 -0.490950
v 0.419662 0.598196 -0.609212
v 0.424782 0.571484 -0.576651
v 0.453160 0.572181 -0.608182
v 0.502800 -0.481333 -1.452601
v 0.497679 -0.454621 -1.485162
v 0.528765 -0.448075 -1.457041
v 0.377242 0.506555 -1.543772
v 0.410740 0.480540 -1.542742
v 0.379655 0.473994 -1.570863
vn 0.0451 0.0975 0.9942
vn 0.9911 0.1207 -0.0568
vn -0.1256 0.9879 -0.0912
vn -0.9911 -0.1207 0.0568
vn -0.0451 -0.0975 -0.9942
vn -0.4736 -0.5838 0.6595
vn -0.6186 0.5569 0.5542
vn -0.5258 -0.6963 -0.4886
vn -0.6707 0.4444 -0.5938
vn 0.6707 -0.4444 0.5938
vn 0.5258 0.6963 0.4886
vn 0.6186 -0.5569 -0.5542
vn 0.4736 0.5838 -0.6595
vn -0.6120 -0.7839 0.1046
vn -0.6689 -0.0164 0.7432
vn -0.7896 0.6132 -0.0243
vn -0.7327 -0.1543 -0.6628
vn 0.0569 -0.7675 -0.6385
vn -0.1207 0.6296 -0.7675
vn 0.6689 0.0164 -0.7432
vn 0.7896 -0.6132 0.0243
vn 0.6120 0.7839 -0.1046
vn 0.7327 0.1543 0.6628
vn 0.1207 -0.6296 0.7675
vn -0.0569 0.7675 0.6385
vn 0.1256 -0.9879 0.0912
vt 0.382500 0.757500
vt 0.617500 0.757500
vt 0.617500 0.992500
vt 0.382500 0.992500
vt 0.382500 0.507500
vt 0.617500 0.507500
vt 0.617500 0.742500
vt 0.382500 0.742500
vt 0.632500 0.507500
vt 0.867500 0.507500
vt 0.867500 0.742500
vt 0.632500 0.742500
vt 0.382500 0.007500
vt 0.617500 0.007500
vt 0.617500 0.242500
vt 0.382500 0.242500
vt 0.382500 0.257500
vt 0.617500 0.257500
vt 0.617500 0.492500
vt 0.382500 0.492500
vt 0.132500 0.742500
vt 0.132500 0.750000
vt 0.125000 0.742500
vt 0.617500 0.000000
vt 0.625000 0.007500
vt 0.132500 0.507500
vt 0.125000 0.507500
vt 0.132500 0.500000
vt 0.625000 0.242500
vt 0.617500 0.250000
vt 0.367500 0.742500
vt 0.375000 0.742500
vt 0.367500 0.750000
vt 0.625000 0.757500
vt 0.617500 0.750000
vt 0.367500 0.507500
vt 0.367500 0.500000
vt 0.375000 0.507500
vt 0.625000 0.492500
vt 0.617500 0.500000
vt 0.382500 0.000000
vt 0.625000 0.257500
vt 0.625000 0.992500
s 0
f 135/216/131 137/217/131 124/218/131 122/219/131
f 141/220/132 143/221/132 138/222/132 134/223/132
f 142/224/133 130/225/133 125/226/133 136/227/133
f 123/228/134 126/229/134 132/230/134 128/231/134
f 129/232/135 131/233/135 144/234/135 140/235/135
f 121/236/136 122/237/136 123/238/136
f 124/239/137 125/240/137 126/229/137
f 127/241/138 128/242/138 129/243/138
f 130/244/139 131/245/139 132/230/139
f 133/246/140 134/247/140 135/248/140
f 136/249/141 137/217/141 138/250/141
f 139/251/142 140/252/142 141/253/142
f 142/254/143 143/255/143 144/234/143
f 127/241/144 121/236/144 123/238/144 128/242/144
f 122/256/145 124/239/145 126/229/145 123/228/145
f 125/240/146 130/244/146 132/230/146 126/229/146
f 131/233/147 129/232/147 128/231/147 132/230/147
f 139/251/148 127/241/148 129/243/148 140/252/148
f 130/257/149 142/254/149 144/234/149 131/233/149
f 143/221/150 141/220/150 140/235/150 144/234/150
f 133/246/151 139/251/151 141/220/151 134/223/151
f 142/224/152 136/227/152 138/222/152 143/221/152
f 137/217/153 135/216/153 134/223/153 138/222/153
f 121/236/154 133/246/154 135/248/154 122/237/154
f 136/249/155 125/258/155 124/218/155 137/217/155
f 127/241/156 139/251/156 133/246/156 121/236/156
