# Blender 4.3.2
# www.blender.org
mtllib BorderBottom.mtl
o Border_Bottom
v -15.500000 0.000000 -2.300000
v -15.500000 0.000000 0.750000
v 15.500000 0.000000 -2.300000
v 15.500000 0.000000 0.750000
v -15.499999 0.500000 0.750000
v 15.500000 0.500000 0.750000
v -15.499999 0.500000 -2.300000
v 15.499999 0.500000 -2.300000
vn -0.0000 -1.0000 -0.0000
vn -0.0000 1.0000 -0.0000
vn -0.0000 -0.0000 1.0000
vn -0.0000 -0.0000 -1.0000
vn -1.0000 -0.0000 -0.0000
vn 1.0000 -0.0000 -0.0000
vt 0.375000 0.750000
vt 0.625000 0.750000
vt 0.625000 1.000000
vt 0.375000 1.000000
vt 0.375000 0.000000
vt 0.625000 0.000000
s 0
usemtl Borders
f 3/1/1 4/2/1 2/3/1 1/4/1
f 5/3/2 6/2/2 8/2/2 7/3/2
f 2/3/3 4/2/3 6/2/3 5/3/3
f 1/5/4 7/6/4 8/2/4 3/1/4
f 2/3/5 5/3/5 7/3/5 1/5/5
f 3/1/6 8/2/6 6/2/6 4/2/6
