# Blender 4.3.2
# www.blender.org
o Border_Top
v -15.500000 18.000000 -2.300000
v -15.500000 18.000000 0.750000
v 15.500000 18.000000 -2.300000
v 15.500000 18.000000 0.750000
v -15.499999 17.500000 0.750000
v 15.499999 17.500000 0.750000
v -15.499999 17.500000 -2.300000
v 15.499999 17.500000 -2.300000
vn -0.0000 1.0000 -0.0000
vn -0.0000 -0.0000 1.0000
vn -0.0000 -1.0000 -0.0000
vn -0.0000 -0.0000 -1.0000
vn -1.0000 -0.0000 -0.0000
vn 1.0000 -0.0000 -0.0000
vt 0.375000 0.250000
vt 0.625000 0.250000
vt 0.625000 0.500000
vt 0.375000 0.500000
s 0
f 1/1/1 2/2/1 4/3/1 3/4/1
f 4/3/2 2/2/2 5/2/2 6/3/2
f 6/3/3 5/2/3 7/2/3 8/3/3
f 3/4/4 8/3/4 7/2/4 1/1/4
f 1/1/5 7/2/5 5/2/5 2/2/5
f 4/3/6 6/3/6 8/3/6 3/4/6
