# Blender 4.2.3 LTS
# www.blender.org
o Border
v -15.999999 0.000000 -1.000000
v -15.999999 0.000000 0.750000
v -15.999999 18.000000 -1.000000
v -15.999999 18.000000 0.750000
v 15.999999 0.000000 -1.000000
v 15.999999 0.000000 0.750000
v 15.999999 18.000000 -1.000000
v 15.999999 18.000000 0.750000
v -15.499999 0.500000 0.750000
v -15.499999 17.500000 0.750000
v 15.499999 17.500000 0.750000
v 15.499999 0.500000 0.750000
v -15.499999 0.500000 -1.000000
v -15.499999 17.500000 -1.000000
v 15.499999 17.500000 -1.000000
v 15.499999 0.500000 -1.000000
vn -1.0000 -0.0000 -0.0000
vn -0.0000 1.0000 -0.0000
vn 1.0000 -0.0000 -0.0000
vn -0.0000 -1.0000 -0.0000
vn -0.0000 -0.0000 -1.0000
vn -0.0000 -0.0000 1.0000
vt 0.375000 0.000000
vt 0.625000 0.000000
vt 0.625000 0.250000
vt 0.375000 0.250000
vt 0.625000 0.500000
vt 0.375000 0.500000
vt 0.625000 0.750000
vt 0.375000 0.750000
vt 0.625000 1.000000
vt 0.375000 1.000000
s 0
f 1/1/1 2/2/1 4/3/1 3/4/1
f 3/4/2 4/3/2 8/5/2 7/6/2
f 7/6/3 8/5/3 6/7/3 5/8/3
f 5/8/4 6/7/4 2/9/4 1/10/4
f 3/4/5 14/3/5 13/2/5 1/1/5
f 6/7/6 8/5/6 11/5/6 12/7/6
f 9/9/2 12/7/2 16/7/2 13/9/2
f 4/3/6 2/2/6 9/2/6 10/3/6
f 2/9/6 6/7/6 12/7/6 9/9/6
f 8/5/6 4/3/6 10/3/6 11/5/6
f 11/5/4 10/3/4 14/3/4 15/5/4
f 12/7/1 11/5/1 15/5/1 16/7/1
f 10/3/3 9/2/3 13/2/3 14/3/3
f 7/6/5 15/5/5 14/3/5 3/4/5
f 5/8/5 16/7/5 15/5/5 7/6/5
f 1/1/5 13/2/5 16/7/5 5/8/5
