# Blender 4.3.0
# www.blender.org
o 2x2_Breakable
v -1.061075 -0.448817 0.918996
v -1.065536 -0.416224 0.945788
v -1.089684 -0.418530 0.910981
v -1.037472 0.519817 0.864300
v -1.031220 0.546971 0.832306
v -1.061620 0.517511 0.829492
v -0.893251 -0.534024 -0.001968
v -0.921860 -0.503738 -0.009983
v -0.886999 -0.506870 -0.033961
v -0.863396 0.461763 -0.088658
v -0.858936 0.429170 -0.115449
v -0.893796 0.432303 -0.091472
v -0.136604 -0.461764 1.088658
v -0.106204 -0.432303 1.091472
v -0.141064 -0.429171 1.115449
v -0.106749 0.534024 1.001968
v -0.113000 0.506870 1.033961
v -0.078140 0.503737 1.009983
v 0.031220 -0.546971 0.167694
v 0.037472 -0.519817 0.135700
v 0.061620 -0.517511 0.170508
v 0.061075 0.448816 0.081004
v 0.089684 0.418530 0.089019
v 0.065536 0.416223 0.054212
vn -0.1785 0.0906 0.9797
vn 0.0299 0.9958 -0.0867
vn -0.9835 0.0138 -0.1805
vn -0.6881 -0.5146 0.5115
vn -0.6537 0.6352 0.4114
vn -0.4820 -0.6193 -0.6198
vn -0.4475 0.5305 -0.7199
vn 0.4475 -0.5305 0.7199
vn 0.4820 0.6193 0.6198
vn 0.6537 -0.6352 -0.4114
vn 0.6881 0.5146 -0.5115
vn -0.7165 -0.6944 -0.0663
vn -0.8217 0.0738 0.5652
vn -0.6743 0.7139 -0.1889
vn -0.5692 -0.0544 -0.8204
vn 0.1051 -0.7682 -0.6315
vn 0.1474 0.6400 -0.7541
vn 0.6743 -0.7139 0.1889
vn 0.7165 0.6944 0.0663
vn 0.5692 0.0544 0.8204
vn -0.1474 -0.6400 0.7541
vn -0.1051 0.7682 0.6315
vn -0.0299 -0.9958 0.0867
vn 0.1785 -0.0906 -0.9797
vn 0.8217 -0.0738 -0.5652
vn 0.9835 -0.0138 0.1805
vt 0.382500 0.757500
vt 0.617500 0.757500
vt 0.617500 0.992500
vt 0.382500 0.992500
vt 0.632500 0.507500
vt 0.867500 0.507500
vt 0.867500 0.742500
vt 0.632500 0.742500
vt 0.382500 0.007500
vt 0.617500 0.007500
vt 0.617500 0.242500
vt 0.382500 0.242500
vt 0.132500 0.742500
vt 0.132500 0.750000
vt 0.125000 0.742500
vt 0.617500 0.000000
vt 0.625000 0.007500
vt 0.132500 0.507500
vt 0.125000 0.507500
vt 0.132500 0.500000
vt 0.625000 0.242500
vt 0.617500 0.250000
vt 0.367500 0.742500
vt 0.375000 0.742500
vt 0.367500 0.750000
vt 0.625000 0.757500
vt 0.617500 0.750000
vt 0.367500 0.507500
vt 0.367500 0.500000
vt 0.375000 0.507500
vt 0.625000 0.492500
vt 0.617500 0.500000
vt 0.617500 0.492500
vt 0.382500 0.000000
vt 0.617500 0.257500
vt 0.382500 0.257500
vt 0.625000 0.257500
vt 0.382500 0.507500
vt 0.382500 0.742500
vt 0.617500 0.742500
vt 0.617500 0.507500
vt 0.625000 0.992500
s 0
f 15/1/1 17/2/1 4/3/1 2/4/1
f 22/5/2 10/6/2 5/7/2 16/8/2
f 3/9/3 6/10/3 12/11/3 8/12/3
f 1/13/4 2/14/4 3/15/4
f 4/16/5 5/17/5 6/10/5
f 7/18/6 8/19/6 9/20/6
f 10/21/7 11/22/7 12/11/7
f 13/23/8 14/24/8 15/25/8
f 16/26/9 17/2/9 18/27/9
f 19/28/10 20/29/10 21/30/10
f 22/31/11 23/32/11 24/33/11
f 7/18/12 1/13/12 3/15/12 8/19/12
f 2/34/13 4/16/13 6/10/13 3/9/13
f 5/17/14 10/21/14 12/11/14 6/10/14
f 11/35/15 9/36/15 8/12/15 12/11/15
f 19/28/16 7/18/16 9/20/16 20/29/16
f 10/37/17 22/31/17 24/33/17 11/35/17
f 13/23/18 19/28/18 21/38/18 14/39/18
f 22/5/19 16/8/19 18/40/19 23/41/19
f 17/2/20 15/1/20 14/39/20 18/40/20
f 1/13/21 13/23/21 15/25/21 2/14/21
f 16/26/22 5/42/22 4/3/22 17/2/22
f 7/18/23 19/28/23 13/23/23 1/13/23
f 11/35/24 24/33/24 20/29/24 9/20/24
f 24/33/25 23/32/25 21/30/25 20/29/25
f 23/41/26 18/40/26 14/39/26 21/38/26
o 2x2_Breakable.001
v 0.159566 -0.521276 0.051522
v 0.166098 -0.492034 0.081560
v 0.129949 -0.491924 0.059351
v 0.152225 0.447469 0.108788
v 0.144808 0.478196 0.080489
v 0.116076 0.447579 0.086579
v -0.058951 -0.498014 -0.862430
v -0.088569 -0.468663 -0.854602
v -0.066368 -0.467288 -0.890730
v -0.073710 0.501457 -0.833464
v -0.080241 0.472215 -0.863501
v -0.102442 0.470840 -0.827373
v 1.073709 -0.501457 -0.166536
v 1.102442 -0.470841 -0.172627
v 1.080241 -0.472216 -0.136499
v 1.058951 0.498014 -0.137570
v 1.066368 0.467288 -0.109270
v 1.088569 0.468663 -0.145398
v 0.855192 -0.478196 -1.080489
v 0.847775 -0.447470 -1.108788
v 0.883924 -0.447580 -1.086579
v 0.840434 0.521275 -1.051522
v 0.870051 0.491924 -1.059351
v 0.833902 0.492033 -1.081560
vn 0.2325 -0.0247 0.9723
vn -0.0148 0.9995 0.0290
vn -0.9725 -0.0211 0.2320
vn -0.4187 -0.6035 0.6786
vn -0.4358 0.5506 0.7120
vn -0.6872 -0.5749 -0.4441
vn -0.7042 0.5792 -0.4107
vn 0.7042 -0.5792 0.4107
vn 0.6872 0.5749 0.4441
vn 0.4358 -0.5506 -0.7120
vn 0.4187 0.6035 -0.6786
vn -0.6772 -0.7216 0.1436
vn -0.5233 -0.0324 0.8515
vn -0.6981 0.6918 0.1845
vn -0.8520 0.0026 -0.5235
vn -0.1539 -0.6892 -0.7080
vn -0.1748 0.7242 -0.6670
vn 0.6981 -0.6918 -0.1845
vn 0.6772 0.7216 -0.1436
vn 0.8520 -0.0026 0.5235
vn 0.1748 -0.7242 0.6670
vn 0.1539 0.6892 0.7080
vn 0.0148 -0.9995 -0.0290
vn -0.2325 0.0247 -0.9723
vn 0.5233 0.0324 -0.8515
vn 0.9725 0.0211 -0.2320
vt 0.382500 0.757500
vt 0.617500 0.757500
vt 0.617500 0.992500
vt 0.382500 0.992500
vt 0.632500 0.507500
vt 0.867500 0.507500
vt 0.867500 0.742500
vt 0.632500 0.742500
vt 0.382500 0.007500
vt 0.617500 0.007500
vt 0.617500 0.242500
vt 0.382500 0.242500
vt 0.132500 0.742500
vt 0.132500 0.750000
vt 0.125000 0.742500
vt 0.617500 0.000000
vt 0.625000 0.007500
vt 0.132500 0.507500
vt 0.125000 0.507500
vt 0.132500 0.500000
vt 0.625000 0.242500
vt 0.617500 0.250000
vt 0.367500 0.742500
vt 0.375000 0.742500
vt 0.367500 0.750000
vt 0.625000 0.757500
vt 0.617500 0.750000
vt 0.367500 0.507500
vt 0.367500 0.500000
vt 0.375000 0.507500
vt 0.625000 0.492500
vt 0.617500 0.500000
vt 0.617500 0.492500
vt 0.382500 0.000000
vt 0.617500 0.257500
vt 0.382500 0.257500
vt 0.625000 0.257500
vt 0.382500 0.507500
vt 0.382500 0.742500
vt 0.617500 0.742500
vt 0.617500 0.507500
vt 0.625000 0.992500
s 0
f 39/43/27 41/44/27 28/45/27 26/46/27
f 46/47/28 34/48/28 29/49/28 40/50/28
f 27/51/29 30/52/29 36/53/29 32/54/29
f 25/55/30 26/56/30 27/57/30
f 28/58/31 29/59/31 30/52/31
f 31/60/32 32/61/32 33/62/32
f 34/63/33 35/64/33 36/53/33
f 37/65/34 38/66/34 39/67/34
f 40/68/35 41/44/35 42/69/35
f 43/70/36 44/71/36 45/72/36
f 46/73/37 47/74/37 48/75/37
f 31/60/38 25/55/38 27/57/38 32/61/38
f 26/76/39 28/58/39 30/52/39 27/51/39
f 29/59/40 34/63/40 36/53/40 30/52/40
f 35/77/41 33/78/41 32/54/41 36/53/41
f 43/70/42 31/60/42 33/62/42 44/71/42
f 34/79/43 46/73/43 48/75/43 35/77/43
f 37/65/44 43/70/44 45/80/44 38/81/44
f 46/47/45 40/50/45 42/82/45 47/83/45
f 41/44/46 39/43/46 38/81/46 42/82/46
f 25/55/47 37/65/47 39/67/47 26/56/47
f 40/68/48 29/84/48 28/45/48 41/44/48
f 31/60/49 43/70/49 37/65/49 25/55/49
f 35/77/50 48/75/50 44/71/50 33/62/50
f 48/75/51 47/74/51 45/72/51 44/71/51
f 47/83/52 42/82/52 38/81/52 45/80/52
o 2x2_Breakable.003
v 0.019634 -0.457408 1.001823
v 0.020841 -0.425750 1.030042
v -0.009438 -0.426543 1.000334
v 0.049456 0.512249 0.975827
v 0.050075 0.540463 0.944147
v 0.019177 0.511456 0.946119
v 0.010406 -0.511365 0.063418
v -0.018665 -0.480500 0.061929
v 0.011025 -0.483151 0.031739
v 0.040847 0.486506 0.005742
v 0.039640 0.454848 -0.022476
v 0.009949 0.457499 0.007714
v 0.959153 -0.486506 0.994258
v 0.990051 -0.457499 0.992286
v 0.960360 -0.454848 1.022476
v 0.989594 0.511365 0.936582
v 0.988975 0.483151 0.968261
v 1.018666 0.480500 0.938071
v 0.949925 -0.540464 0.055853
v 0.950544 -0.512250 0.024173
v 0.980823 -0.511456 0.053881
v 0.980366 0.457407 -0.001823
v 1.009438 0.426543 -0.000334
v 0.979159 0.425749 -0.030042
vn 0.0098 0.0574 0.9983
vn 0.0304 0.9979 -0.0577
vn -0.9995 0.0310 0.0080
vn -0.5890 -0.5251 0.6143
vn -0.5538 0.6271 0.5477
vn -0.6003 -0.5914 -0.5384
vn -0.5651 0.5609 -0.6050
vn 0.5651 -0.5609 0.6050
vn 0.6003 0.5914 0.5384
vn 0.5538 -0.6271 -0.5477
vn 0.5890 0.5251 -0.6143
vn -0.7283 -0.6837 0.0465
vn -0.6998 0.0625 0.7116
vn -0.6852 0.7275 -0.0351
vn -0.7137 -0.0187 -0.7002
vn -0.0285 -0.7462 -0.6651
vn 0.0146 0.6650 -0.7467
vn 0.6852 -0.7275 0.0351
vn 0.7283 0.6837 -0.0465
vn 0.7137 0.0187 0.7002
vn -0.0146 -0.6650 0.7467
vn 0.0285 0.7462 0.6651
vn -0.0304 -0.9979 0.0577
vn -0.0098 -0.0574 -0.9983
vn 0.6998 -0.0625 -0.7116
vn 0.9995 -0.0310 -0.0080
vt 0.382500 0.757500
vt 0.617500 0.757500
vt 0.617500 0.992500
vt 0.382500 0.992500
vt 0.632500 0.507500
vt 0.867500 0.507500
vt 0.867500 0.742500
vt 0.632500 0.742500
vt 0.382500 0.007500
vt 0.617500 0.007500
vt 0.617500 0.242500
vt 0.382500 0.242500
vt 0.132500 0.742500
vt 0.132500 0.750000
vt 0.125000 0.742500
vt 0.617500 0.000000
vt 0.625000 0.007500
vt 0.132500 0.507500
vt 0.125000 0.507500
vt 0.132500 0.500000
vt 0.625000 0.242500
vt 0.617500 0.250000
vt 0.367500 0.742500
vt 0.375000 0.742500
vt 0.367500 0.750000
vt 0.625000 0.757500
vt 0.617500 0.750000
vt 0.367500 0.507500
vt 0.367500 0.500000
vt 0.375000 0.507500
vt 0.625000 0.492500
vt 0.617500 0.500000
vt 0.617500 0.492500
vt 0.382500 0.000000
vt 0.617500 0.257500
vt 0.382500 0.257500
vt 0.625000 0.257500
vt 0.382500 0.507500
vt 0.382500 0.742500
vt 0.617500 0.742500
vt 0.617500 0.507500
vt 0.625000 0.992500
s 0
f 63/85/53 65/86/53 52/87/53 50/88/53
f 70/89/54 58/90/54 53/91/54 64/92/54
f 51/93/55 54/94/55 60/95/55 56/96/55
f 49/97/56 50/98/56 51/99/56
f 52/100/57 53/101/57 54/94/57
f 55/102/58 56/103/58 57/104/58
f 58/105/59 59/106/59 60/95/59
f 61/107/60 62/108/60 63/109/60
f 64/110/61 65/86/61 66/111/61
f 67/112/62 68/113/62 69/114/62
f 70/115/63 71/116/63 72/117/63
f 55/102/64 49/97/64 51/99/64 56/103/64
f 50/118/65 52/100/65 54/94/65 51/93/65
f 53/101/66 58/105/66 60/95/66 54/94/66
f 59/119/67 57/120/67 56/96/67 60/95/67
f 67/112/68 55/102/68 57/104/68 68/113/68
f 58/121/69 70/115/69 72/117/69 59/119/69
f 61/107/70 67/112/70 69/122/70 62/123/70
f 70/89/71 64/92/71 66/124/71 71/125/71
f 65/86/72 63/85/72 62/123/72 66/124/72
f 49/97/73 61/107/73 63/109/73 50/98/73
f 64/110/74 53/126/74 52/87/74 65/86/74
f 55/102/75 67/112/75 61/107/75 49/97/75
f 59/119/76 72/117/76 68/113/76 57/104/76
f 72/117/77 71/116/77 69/114/77 68/113/77
f 71/125/78 66/124/78 62/123/78 69/122/78
o 2x2_Breakable.002
v -0.928528 -0.510544 -0.002498
v -0.925691 -0.481320 0.028127
v -0.958257 -0.480471 0.000947
v -0.920972 0.458370 0.051797
v -0.923507 0.489126 0.022682
v -0.953537 0.459219 0.024616
v -1.012704 -0.486547 -0.938414
v -1.042433 -0.456475 -0.934969
v -1.015240 -0.455791 -0.967528
v -1.007683 0.513123 -0.913234
v -1.010520 0.483899 -0.943859
v -1.037713 0.483216 -0.911300
v 0.007683 -0.513124 -0.086766
v 0.037713 -0.483216 -0.088700
v 0.010520 -0.483899 -0.056141
v 0.012704 0.486547 -0.061586
v 0.015240 0.455791 -0.032472
v 0.042433 0.456474 -0.065031
v -0.076493 -0.489127 -1.022682
v -0.079029 -0.458371 -1.051797
v -0.046463 -0.459219 -1.024616
v -0.071472 0.510544 -0.997502
v -0.041743 0.480471 -1.000947
v -0.074309 0.481319 -1.028127
vn 0.0895 -0.0255 0.9957
vn 0.0050 0.9997 0.0252
vn -0.9960 0.0027 0.0896
vn -0.5262 -0.5903 0.6121
vn -0.5204 0.5640 0.6411
vn -0.6296 -0.5608 -0.5376
vn -0.6238 0.5935 -0.5085
vn 0.6238 -0.5935 0.5085
vn 0.6296 0.5608 0.5376
vn 0.5204 -0.5640 -0.6411
vn 0.5262 0.5903 -0.6121
vn -0.7078 -0.7049 0.0456
vn -0.6409 -0.0161 0.7674
vn -0.7007 0.7088 0.0812
vn -0.7676 0.0200 -0.6406
vn -0.0669 -0.6888 -0.7218
vn -0.0598 0.7249 -0.6862
vn 0.7007 -0.7088 -0.0812
vn 0.7078 0.7049 -0.0456
vn 0.7676 -0.0200 0.6406
vn 0.0598 -0.7249 0.6862
vn 0.0669 0.6888 0.7218
vn -0.0050 -0.9997 -0.0252
vn -0.0895 0.0255 -0.9957
vn 0.6409 0.0161 -0.7674
vn 0.9960 -0.0027 -0.0896
vt 0.382500 0.757500
vt 0.617500 0.757500
vt 0.617500 0.992500
vt 0.382500 0.992500
vt 0.632500 0.507500
vt 0.867500 0.507500
vt 0.867500 0.742500
vt 0.632500 0.742500
vt 0.382500 0.007500
vt 0.617500 0.007500
vt 0.617500 0.242500
vt 0.382500 0.242500
vt 0.132500 0.742500
vt 0.132500 0.750000
vt 0.125000 0.742500
vt 0.617500 0.000000
vt 0.625000 0.007500
vt 0.132500 0.507500
vt 0.125000 0.507500
vt 0.132500 0.500000
vt 0.625000 0.242500
vt 0.617500 0.250000
vt 0.367500 0.742500
vt 0.375000 0.742500
vt 0.367500 0.750000
vt 0.625000 0.757500
vt 0.617500 0.750000
vt 0.367500 0.507500
vt 0.367500 0.500000
vt 0.375000 0.507500
vt 0.625000 0.492500
vt 0.617500 0.500000
vt 0.617500 0.492500
vt 0.382500 0.000000
vt 0.617500 0.257500
vt 0.382500 0.257500
vt 0.625000 0.257500
vt 0.382500 0.507500
vt 0.382500 0.742500
vt 0.617500 0.742500
vt 0.617500 0.507500
vt 0.625000 0.992500
s 0
f 87/127/79 89/128/79 76/129/79 74/130/79
f 94/131/80 82/132/80 77/133/80 88/134/80
f 75/135/81 78/136/81 84/137/81 80/138/81
f 73/139/82 74/140/82 75/141/82
f 76/142/83 77/143/83 78/136/83
f 79/144/84 80/145/84 81/146/84
f 82/147/85 83/148/85 84/137/85
f 85/149/86 86/150/86 87/151/86
f 88/152/87 89/128/87 90/153/87
f 91/154/88 92/155/88 93/156/88
f 94/157/89 95/158/89 96/159/89
f 79/144/90 73/139/90 75/141/90 80/145/90
f 74/160/91 76/142/91 78/136/91 75/135/91
f 77/143/92 82/147/92 84/137/92 78/136/92
f 83/161/93 81/162/93 80/138/93 84/137/93
f 91/154/94 79/144/94 81/146/94 92/155/94
f 82/163/95 94/157/95 96/159/95 83/161/95
f 85/149/96 91/154/96 93/164/96 86/165/96
f 94/131/97 88/134/97 90/166/97 95/167/97
f 89/128/98 87/127/98 86/165/98 90/166/98
f 73/139/99 85/149/99 87/151/99 74/140/99
f 88/152/100 77/168/100 76/129/100 89/128/100
f 79/144/101 91/154/101 85/149/101 73/139/101
f 83/161/102 96/159/102 92/155/102 81/146/102
f 96/159/103 95/158/103 93/156/103 92/155/103
f 95/167/104 90/166/104 86/165/104 93/164/104
