<?xml version="1.0" encoding="UTF-8"?>
<svg version="1.1" xmlns="http://www.w3.org/2000/svg" width="920" height="800">
<path d="M0 0 C4.82804041 0.62318393 9.12106524 2.02376946 13.62890625 3.7890625 C14.38645203 4.08012375 15.1439978 4.371185 15.92449951 4.67106628 C17.58915614 5.31122667 19.25284332 5.95391224 20.91567993 6.5987854 C25.57984329 8.40715635 30.25148005 10.19608059 34.921875 11.98828125 C35.9411055 12.37999008 36.960336 12.77169891 38.01045227 13.17527771 C51.09951873 18.20054374 64.22361029 23.13310025 77.34540939 28.07207489 C79.27516558 28.79844709 81.20487274 29.52494935 83.134552 30.25152588 C83.75570483 30.48540386 84.37685766 30.71928185 85.01683331 30.96024704 C86.88192009 31.66265163 88.74686083 32.36544394 90.61180115 33.0682373 C93.05539509 33.98817951 95.49969279 34.90625471 97.94471741 35.8223877 C103.6649844 37.96934134 109.37386491 40.13637248 115.05756474 42.37809849 C117.72192654 43.42814433 120.39018334 44.46809129 123.05864525 45.50766563 C124.93391826 46.24345404 126.80315638 46.99456512 128.67219543 47.74604797 C129.80799545 48.18780869 130.94379547 48.6295694 132.11401367 49.0847168 C133.10858078 49.47958786 134.10314789 49.87445892 135.12785339 50.28129578 C139.81738141 51.45476776 143.79155985 50.24670923 148.20214844 48.53564453 C148.98323471 48.23593246 149.76432098 47.9362204 150.56907654 47.62742615 C151.82652428 47.13509239 151.82652428 47.13509239 153.109375 46.6328125 C154.00797745 46.28642227 154.9065799 45.94003204 155.83241272 45.58314514 C157.78267887 44.83065147 159.73194887 44.07557204 161.68032837 43.31820679 C165.87525049 41.68760581 170.07489141 40.06932377 174.27424622 38.45018005 C176.48249398 37.59858431 178.69048761 36.7463293 180.89823914 35.89344788 C192.85168365 31.27741703 204.83103326 26.73018862 216.8125 22.1875 C228.41819104 17.78704197 240.02337855 13.38649726 251.6015625 8.9140625 C253.20986684 8.29399372 254.81818347 7.6739568 256.42651367 7.05395508 C259.35071365 5.92645835 262.27235317 4.79265011 265.19262695 3.6550293 C266.47077349 3.16170716 267.74900655 2.6686091 269.02734375 2.17578125 C270.66304321 1.54023315 270.66304321 1.54023315 272.33178711 0.8918457 C275 0 275 0 278 0 C276.436656 4.81877798 273.68884685 8.30543654 270.625 12.25 C266.32369833 17.88322961 262.12704906 23.56850134 258.0625 29.375 C253.92144505 35.28458809 249.73579833 41.15791038 245.5 47 C241.29295772 52.80553095 237.1240453 58.63522 233 64.5 C226.2078953 74.15523463 219.28179787 83.71205932 212.35449219 93.27050781 C206.02171736 102.01146795 199.72809656 110.77620234 193.51928711 119.60571289 C189.34744926 125.52979108 185.10686623 131.40240075 180.85546875 137.26953125 C177.20004235 142.32082453 173.58658208 147.39963538 170 152.5 C160.17707269 166.46137281 150.11847675 180.25184923 140 194 C135.7117641 189.98766163 132.38320594 185.60021145 129 180.8125 C127.84387317 179.19392243 126.68761963 177.57543536 125.53125 175.95703125 C124.94472656 175.13283691 124.35820312 174.30864258 123.75390625 173.45947266 C121.02060979 169.6266179 118.25969741 165.81386493 115.5 162 C114.41651791 160.50010745 113.33318496 159.00010715 112.25 157.5 C111.71375 156.7575 111.1775 156.015 110.625 155.25 C109 153 107.375 150.75 105.75 148.5 C105.2135083 147.75717773 104.6770166 147.01435547 104.12426758 146.24902344 C103.04332809 144.75231299 101.96243599 143.25556832 100.8815918 141.75878906 C98.1370246 137.95817363 95.39158034 134.15819702 92.64453125 130.359375 C87.34317769 123.02666167 82.05344563 115.68638156 76.80126953 108.31835938 C71.7901413 101.29435105 66.72930529 94.30621493 61.67333984 87.31445312 C58.94736861 83.54406981 56.22378466 79.77196306 53.5 76 C52.41667856 74.49999141 51.33334521 72.99999142 50.25 71.5 C30.75 44.5 30.75 44.5 29.1237793 42.24829102 C28.04453876 40.75397045 26.96527458 39.25966696 25.88598633 37.76538086 C23.11483531 33.9286279 20.34414313 30.09154488 17.57421875 26.25390625 C17.01114014 25.47402344 16.44806152 24.69414062 15.86791992 23.890625 C14.7620376 22.35848875 13.65671624 20.82594741 12.55200195 19.29296875 C10.18737154 16.01420904 7.81652496 12.74149132 5.40625 9.49609375 C4.6740625 8.50738281 3.941875 7.51867187 3.1875 6.5 C2.56230469 5.6646875 1.93710937 4.829375 1.29296875 3.96875 C0 2 0 2 0 0 Z " fill="#3A76FE" transform="translate(319,476)"/>
<path d="M0 0 C40.59 0 81.18 0 123 0 C123 26.07 123 52.14 123 79 C133.395 75.3184375 133.395 75.3184375 144 71.5625 C147.36106873 70.37429301 150.72213745 69.18608602 154.08320618 67.99787903 C163.18739372 64.77807709 172.28607079 61.54409154 181.37210083 58.27336121 C185.78836489 56.68414958 190.20695552 55.10146569 194.62573242 53.51925659 C196.74995858 52.7565214 198.87301082 51.99050889 200.99487305 51.22122192 C203.95854712 50.1470736 206.92600394 49.08408516 209.89453125 48.0234375 C210.77671829 47.7003511 211.65890533 47.37726471 212.56782532 47.04438782 C213.37535751 46.75823105 214.18288971 46.47207428 215.01489258 46.17724609 C215.71616776 45.92429779 216.41744293 45.67134949 217.13996887 45.41073608 C219 45 219 45 222 46 C217.43417499 55.8302462 211.65260075 62.01017227 201.3742218 65.89393616 C194.71413614 68.26991509 187.94287075 70.32586931 181.18066406 72.38818359 C172.73408954 74.98469328 164.39760406 77.91576353 156.04257202 80.79006958 C152.0513846 82.15940274 148.05505691 83.51338594 144.05882263 84.86790466 C129.58910361 89.77479886 115.16109683 94.79868064 100.74633789 99.86450195 C96.68087872 101.29286342 92.60994541 102.7048714 88.53747559 104.11309814 C85.81073524 105.06615207 83.09375462 106.0446538 80.37597656 107.02294922 C78.50348977 107.68133156 76.63077397 108.33906298 74.7578125 108.99609375 C73.89993134 109.31159683 73.04205017 109.62709991 72.15817261 109.9521637 C62.12208415 113.4222264 54.51309045 110.40425621 44.82421875 107.0546875 C43.64272751 106.65292297 42.46123627 106.25115845 41.24394226 105.83721924 C38.05154809 104.74971194 34.86168068 103.65533375 31.67284393 102.55747223 C29.00558712 101.64058893 26.33635629 100.72953212 23.66707993 99.8185482 C5.84046257 93.7343147 -11.96158686 87.57800293 -29.73168945 81.33056641 C-38.68488749 78.18523714 -47.65263575 75.09188064 -56.6484375 72.0703125 C-58.56950445 71.42303139 -60.49056572 70.77573344 -62.41162109 70.12841797 C-66.05459368 68.90147824 -69.70116773 67.68614012 -73.35009766 66.47705078 C-74.9835383 65.92782463 -76.61684666 65.37820485 -78.25 64.828125 C-78.99462494 64.58506622 -79.73924988 64.34200745 -80.50643921 64.09158325 C-86.96927771 61.89573189 -86.96927771 61.89573189 -89 59 C-89 58.34 -89 57.68 -89 57 C-89.66 57 -90.32 57 -91 57 C-92.4631783 55.02559073 -93.80713064 53.06761129 -95.125 51 C-95.68380859 50.14148438 -95.68380859 50.14148438 -96.25390625 49.265625 C-97.17550408 47.84778218 -98.08855821 46.42439275 -99 45 C-97 44 -97 44 -94.7306366 44.58950806 C-93.78078384 44.92558075 -92.83093109 45.26165344 -91.85229492 45.60791016 C-90.7694371 45.98687943 -89.68657928 46.36584869 -88.57090759 46.75630188 C-87.38606277 47.17961288 -86.20121796 47.60292389 -84.98046875 48.0390625 C-83.74998306 48.47200119 -82.51949738 48.90493988 -81.25172424 49.35099792 C-77.91654931 50.52454294 -74.58468008 51.70722101 -71.25334167 52.89160538 C-67.82543417 54.1085471 -64.39454573 55.31702015 -60.96386719 56.52612305 C-55.51074836 58.44901914 -50.05920882 60.37632067 -44.60888672 62.30712891 C-36.38678822 65.21946701 -28.15735748 68.11070982 -19.92602539 70.99682617 C-13.28261888 73.32723579 -6.64151744 75.66421209 0 78 C0 52.26 0 26.52 0 0 Z " fill="#1E54D1" transform="translate(397,397)"/>
<path d="M0 0 C4.82804041 0.62318393 9.12106524 2.02376946 13.62890625 3.7890625 C14.38645203 4.08012375 15.1439978 4.371185 15.92449951 4.67106628 C17.58915614 5.31122667 19.25284332 5.95391224 20.91567993 6.5987854 C25.57984329 8.40715635 30.25148005 10.19608059 34.921875 11.98828125 C35.9411055 12.37999008 36.960336 12.77169891 38.01045227 13.17527771 C51.09951873 18.20054374 64.22361029 23.13310025 77.34540939 28.07207489 C86.63871371 31.5701323 95.93097029 35.07096219 105.22174072 38.57574463 C107.84682951 39.56570119 110.47251813 40.55404871 113.09857178 41.54144287 C116.51103273 42.82455979 119.92249458 44.11030059 123.33330345 45.39780235 C124.63219741 45.88756662 125.93145054 46.37637948 127.23107338 46.86420631 C129.02242313 47.53676711 130.81239659 48.21299028 132.60229492 48.8894043 C133.62304611 49.27380173 134.6437973 49.65819916 135.69548035 50.054245 C138 51 138 51 139 52 C139.09643778 53.82227687 139.12187371 55.6483336 139.12025452 57.47315979 C139.12231651 59.25481537 139.12231651 59.25481537 139.12442017 61.07246399 C139.12082489 62.38732285 139.11722961 63.7021817 139.11352539 65.05688477 C139.11324352 66.44617714 139.11340125 67.83546967 139.1139679 69.22476196 C139.11425588 73.00765289 139.10835901 76.79051238 139.10139394 80.57339597 C139.09516055 84.52255677 139.09455661 88.47171822 139.09336853 92.42088318 C139.09025517 99.90425075 139.08204172 107.38760379 139.07201904 114.87096494 C139.06085805 123.38835733 139.05534749 131.9057504 139.05032361 140.42314827 C139.03985911 157.94877394 139.02225958 175.47438543 139 193 C136.51051674 190.5414441 134.25446453 188.15508472 132.22265625 185.3046875 C131.71605469 184.59828125 131.20945312 183.891875 130.6875 183.1640625 C130.15125 182.40867187 129.615 181.65328125 129.0625 180.875 C127.89723324 179.2473258 126.73186587 177.61972362 125.56640625 175.9921875 C124.97359863 175.16170898 124.38079102 174.33123047 123.77001953 173.47558594 C121.02764563 169.64004506 118.2633893 165.82041198 115.5 162 C114.41654764 160.50008597 113.33321465 159.00008571 112.25 157.5 C111.71375 156.7575 111.1775 156.015 110.625 155.25 C109 153 107.375 150.75 105.75 148.5 C105.2135083 147.75717773 104.6770166 147.01435547 104.12426758 146.24902344 C103.04332809 144.75231299 101.96243599 143.25556832 100.8815918 141.75878906 C98.1370246 137.95817363 95.39158034 134.15819702 92.64453125 130.359375 C87.34317769 123.02666167 82.05344563 115.68638156 76.80126953 108.31835938 C71.7901413 101.29435105 66.72930529 94.30621493 61.67333984 87.31445312 C58.94736861 83.54406981 56.22378466 79.77196306 53.5 76 C52.41667856 74.49999141 51.33334521 72.99999142 50.25 71.5 C30.75 44.5 30.75 44.5 29.1237793 42.24829102 C28.04453876 40.75397045 26.96527458 39.25966696 25.88598633 37.76538086 C23.11483531 33.9286279 20.34414313 30.09154488 17.57421875 26.25390625 C17.01114014 25.47402344 16.44806152 24.69414062 15.86791992 23.890625 C14.7620376 22.35848875 13.65671624 20.82594741 12.55200195 19.29296875 C10.18737154 16.01420904 7.81652496 12.74149132 5.40625 9.49609375 C4.6740625 8.50738281 3.941875 7.51867187 3.1875 6.5 C2.56230469 5.6646875 1.93710937 4.829375 1.29296875 3.96875 C0 2 0 2 0 0 Z " fill="#1E54D1" transform="translate(319,476)"/>
<path d="M0 0 C20.13 0 40.26 0 61 0 C61 26.07 61 52.14 61 79 C67.93 76.545625 74.86 74.09125 82 71.5625 C85.36106873 70.37429301 88.72213745 69.18608602 92.08320618 67.99787903 C101.18739372 64.77807709 110.28607079 61.54409154 119.37210083 58.27336121 C123.78836489 56.68414958 128.20695552 55.10146569 132.62573242 53.51925659 C134.74995858 52.7565214 136.87301082 51.99050889 138.99487305 51.22122192 C141.95854712 50.1470736 144.92600394 49.08408516 147.89453125 48.0234375 C148.77671829 47.7003511 149.65890533 47.37726471 150.56782532 47.04438782 C151.37535751 46.75823105 152.18288971 46.47207428 153.01489258 46.17724609 C153.71616776 45.92429779 154.41744293 45.67134949 155.13996887 45.41073608 C157 45 157 45 160 46 C155.43417499 55.8302462 149.65260075 62.01017227 139.3742218 65.89393616 C132.71413614 68.26991509 125.94287075 70.32586931 119.18066406 72.38818359 C110.73408954 74.98469328 102.39760406 77.91576353 94.04257202 80.79006958 C90.0513846 82.15940274 86.05505691 83.51338594 82.05882263 84.86790466 C67.58910361 89.77479886 53.16109683 94.79868064 38.74633789 99.86450195 C29.99596744 102.93649926 21.23220288 105.96752198 12.4453125 108.93359375 C11.5455368 109.24071793 10.64576111 109.5478421 9.71871948 109.86427307 C8.46600754 110.28421791 8.46600754 110.28421791 7.18798828 110.71264648 C6.4504129 110.96175278 5.71283752 111.21085907 4.95291138 111.46751404 C3 112 3 112 0 112 C0 75.04 0 38.08 0 0 Z " fill="#3A76FE" transform="translate(459,397)"/>
</svg>
