# Blender 4.2.3 LTS
# www.blender.org
o 3x3
v -1.470000 0.500000 0.470000
v -1.470000 0.530000 0.500000
v -1.500000 0.530000 0.470000
v -1.470000 1.470000 0.500000
v -1.470000 1.500000 0.470000
v -1.500000 1.470000 0.470000
v -1.470000 0.500000 -0.470000
v -1.500000 0.530000 -0.470000
v -1.470000 0.530000 -0.500000
v -1.470000 1.500000 -0.470000
v -1.470000 1.470000 -0.500000
v -1.500000 1.470000 -0.470000
v -0.530000 0.500000 0.470000
v -0.500000 0.530000 0.470000
v -0.530000 0.530000 0.500000
v -0.530000 1.500000 0.470000
v -0.530000 1.470000 0.500000
v -0.500000 1.470000 0.470000
v -0.530000 0.500000 -0.470000
v -0.530000 0.530000 -0.500000
v -0.500000 0.530000 -0.470000
v -0.530000 1.500000 -0.470000
v -0.500000 1.470000 -0.470000
v -0.530000 1.470000 -0.500000
v -0.470000 0.500000 0.470000
v -0.470000 0.530000 0.500000
v -0.500000 0.530000 0.470000
v -0.470000 1.470000 0.500000
v -0.470000 1.500000 0.470000
v -0.500000 1.470000 0.470000
v -0.470000 0.500000 -0.470000
v -0.500000 0.530000 -0.470000
v -0.470000 0.530000 -0.500000
v -0.470000 1.500000 -0.470000
v -0.470000 1.470000 -0.500000
v -0.500000 1.470000 -0.470000
v 0.470000 0.500000 0.470000
v 0.500000 0.530000 0.470000
v 0.470000 0.530000 0.500000
v 0.470000 1.500000 0.470000
v 0.470000 1.470000 0.500000
v 0.500000 1.470000 0.470000
v 0.470000 0.500000 -0.470000
v 0.470000 0.530000 -0.500000
v 0.500000 0.530000 -0.470000
v 0.470000 1.500000 -0.470000
v 0.500000 1.470000 -0.470000
v 0.470000 1.470000 -0.500000
v 0.530000 0.500000 0.470000
v 0.530000 0.530000 0.500000
v 0.530000 1.470000 0.500000
v 0.530000 1.500000 0.470000
v 0.530000 0.500000 -0.470000
v 0.530000 0.530000 -0.500000
v 0.530000 1.500000 -0.470000
v 0.530000 1.470000 -0.500000
v 1.470000 0.500000 0.470000
v 1.500000 0.530000 0.470000
v 1.470000 0.530000 0.500000
v 1.470000 1.500000 0.470000
v 1.470000 1.470000 0.500000
v 1.500000 1.470000 0.470000
v 1.470000 0.500000 -0.470000
v 1.470000 0.530000 -0.500000
v 1.500000 0.530000 -0.470000
v 1.470000 1.500000 -0.470000
v 1.500000 1.470000 -0.470000
v 1.470000 1.470000 -0.500000
v -1.470000 -0.500000 0.470000
v -1.470000 -0.470000 0.500000
v -1.500000 -0.470000 0.470000
v -1.470000 0.470000 0.500000
v -1.470000 0.500000 0.470000
v -1.500000 0.470000 0.470000
v -1.470000 -0.500000 -0.470000
v -1.500000 -0.470000 -0.470000
v -1.470000 -0.470000 -0.500000
v -1.470000 0.500000 -0.470000
v -1.470000 0.470000 -0.500000
v -1.500000 0.470000 -0.470000
v -0.530000 -0.500000 0.470000
v -0.500000 -0.470000 0.470000
v -0.530000 -0.470000 0.500000
v -0.530000 0.500000 0.470000
v -0.530000 0.470000 0.500000
v -0.500000 0.470000 0.470000
v -0.530000 -0.500000 -0.470000
v -0.530000 -0.470000 -0.500000
v -0.500000 -0.470000 -0.470000
v -0.530000 0.500000 -0.470000
v -0.500000 0.470000 -0.470000
v -0.530000 0.470000 -0.500000
v -0.470000 -0.500000 0.470000
v -0.470000 -0.470000 0.500000
v -0.500000 -0.470000 0.470000
v -0.470000 0.470000 0.500000
v -0.470000 0.500000 0.470000
v -0.500000 0.470000 0.470000
v -0.470000 -0.500000 -0.470000
v -0.500000 -0.470000 -0.470000
v -0.470000 -0.470000 -0.500000
v -0.470000 0.500000 -0.470000
v -0.470000 0.470000 -0.500000
v -0.500000 0.470000 -0.470000
v 0.470000 -0.500000 0.470000
v 0.500000 -0.470000 0.470000
v 0.470000 -0.470000 0.500000
v 0.470000 0.500000 0.470000
v 0.470000 0.470000 0.500000
v 0.500000 0.470000 0.470000
v 0.470000 -0.500000 -0.470000
v 0.470000 -0.470000 -0.500000
v 0.500000 -0.470000 -0.470000
v 0.470000 0.500000 -0.470000
v 0.500000 0.470000 -0.470000
v 0.470000 0.470000 -0.500000
v 0.530000 -0.500000 0.470000
v 0.530000 -0.470000 0.500000
v 0.500000 -0.470000 0.470000
v 0.530000 0.470000 0.500000
v 0.530000 0.500000 0.470000
v 0.500000 0.470000 0.470000
v 0.530000 -0.500000 -0.470000
v 0.500000 -0.470000 -0.470000
v 0.530000 -0.470000 -0.500000
v 0.530000 0.500000 -0.470000
v 0.530000 0.470000 -0.500000
v 0.500000 0.470000 -0.470000
v 1.470000 -0.500000 0.470000
v 1.500000 -0.470000 0.470000
v 1.470000 -0.470000 0.500000
v 1.470000 0.500000 0.470000
v 1.470000 0.470000 0.500000
v 1.500000 0.470000 0.470000
v 1.470000 -0.500000 -0.470000
v 1.470000 -0.470000 -0.500000
v 1.500000 -0.470000 -0.470000
v 1.470000 0.500000 -0.470000
v 1.500000 0.470000 -0.470000
v 1.470000 0.470000 -0.500000
v -1.470000 -1.500000 0.470000
v -1.470000 -1.470000 0.500000
v -1.500000 -1.470000 0.470000
v -1.470000 -0.530000 0.500000
v -1.470000 -0.500000 0.470000
v -1.500000 -0.530000 0.470000
v -1.470000 -1.500000 -0.470000
v -1.500000 -1.470000 -0.470000
v -1.470000 -1.470000 -0.500000
v -1.470000 -0.500000 -0.470000
v -1.470000 -0.530000 -0.500000
v -1.500000 -0.530000 -0.470000
v -0.530000 -1.500000 0.470000
v -0.500000 -1.470000 0.470000
v -0.530000 -1.470000 0.500000
v -0.530000 -0.500000 0.470000
v -0.530000 -0.530000 0.500000
v -0.500000 -0.530000 0.470000
v -0.530000 -1.500000 -0.470000
v -0.530000 -1.470000 -0.500000
v -0.500000 -1.470000 -0.470000
v -0.530000 -0.500000 -0.470000
v -0.500000 -0.530000 -0.470000
v -0.530000 -0.530000 -0.500000
v -0.470000 -1.500000 0.470000
v -0.470000 -1.470000 0.500000
v -0.500000 -1.470000 0.470000
v -0.470000 -0.530000 0.500000
v -0.470000 -0.500000 0.470000
v -0.500000 -0.530000 0.470000
v -0.470000 -1.500000 -0.470000
v -0.500000 -1.470000 -0.470000
v -0.470000 -1.470000 -0.500000
v -0.470000 -0.500000 -0.470000
v -0.470000 -0.530000 -0.500000
v -0.500000 -0.530000 -0.470000
v 0.470000 -1.500000 0.470000
v 0.500000 -1.470000 0.470000
v 0.470000 -1.470000 0.500000
v 0.470000 -0.500000 0.470000
v 0.470000 -0.530000 0.500000
v 0.500000 -0.530000 0.470000
v 0.470000 -1.500000 -0.470000
v 0.470000 -1.470000 -0.500000
v 0.500000 -1.470000 -0.470000
v 0.470000 -0.500000 -0.470000
v 0.500000 -0.530000 -0.470000
v 0.470000 -0.530000 -0.500000
v 0.530000 -1.500000 0.470000
v 0.530000 -1.470000 0.500000
v 0.500000 -1.470000 0.470000
v 0.530000 -0.530000 0.500000
v 0.530000 -0.500000 0.470000
v 0.500000 -0.530000 0.470000
v 0.530000 -1.500000 -0.470000
v 0.500000 -1.470000 -0.470000
v 0.530000 -1.470000 -0.500000
v 0.530000 -0.500000 -0.470000
v 0.530000 -0.530000 -0.500000
v 0.500000 -0.530000 -0.470000
v 1.470000 -1.500000 0.470000
v 1.500000 -1.470000 0.470000
v 1.470000 -1.470000 0.500000
v 1.470000 -0.500000 0.470000
v 1.470000 -0.530000 0.500000
v 1.500000 -0.530000 0.470000
v 1.470000 -1.500000 -0.470000
v 1.470000 -1.470000 -0.500000
v 1.500000 -1.470000 -0.470000
v 1.470000 -0.500000 -0.470000
v 1.500000 -0.530000 -0.470000
v 1.470000 -0.530000 -0.500000
vn -0.0000 -0.0000 1.0000
vn 1.0000 -0.0000 -0.0000
vn -0.0000 1.0000 -0.0000
vn -1.0000 -0.0000 -0.0000
vn -0.0000 -0.0000 -1.0000
vn -0.5774 -0.5774 0.5773
vn -0.5774 0.5774 0.5773
vn -0.5774 -0.5774 -0.5773
vn -0.5773 0.5774 -0.5773
vn 0.5773 -0.5774 0.5773
vn 0.5774 0.5774 0.5773
vn 0.5774 -0.5774 -0.5774
vn 0.5773 0.5774 -0.5774
vn -0.7071 -0.7071 -0.0000
vn -0.7071 -0.0000 0.7071
vn -0.7071 0.7071 -0.0000
vn -0.7071 -0.0000 -0.7071
vn -0.0000 -0.7071 -0.7071
vn -0.0000 0.7071 -0.7071
vn 0.7071 -0.0000 -0.7071
vn 0.7071 -0.7071 -0.0000
vn 0.7071 0.7071 -0.0000
vn 0.7071 -0.0000 0.7071
vn -0.0000 -0.7071 0.7071
vn -0.0000 0.7071 0.7071
vn -0.0000 -1.0000 -0.0000
vn -0.5773 -0.5774 0.5773
vn -0.5774 -0.5774 -0.5774
vn -0.5773 0.5774 -0.5774
vn 0.5774 -0.5774 0.5773
vn 0.5774 -0.5774 -0.5773
vn 0.5773 0.5774 -0.5773
vn -0.5774 0.5774 -0.5773
vn -0.5773 0.5774 0.5773
vn 0.5773 0.5774 0.5773
vn 0.5774 0.5774 -0.5773
vn -0.5773 0.5774 0.5774
vn -0.5773 -0.5774 -0.5773
vn -0.5773 0.5773 -0.5774
vn 0.5773 -0.5774 -0.5774
vn 0.5774 0.5774 -0.5774
vn -0.5773 -0.5774 -0.5774
vn 0.5773 0.5774 0.5774
vn 0.5773 0.5773 -0.5774
vn -0.5774 0.5774 -0.5774
vn 0.5773 -0.5774 -0.5773
vt 0.382500 0.757500
vt 0.617500 0.757500
vt 0.617500 0.992500
vt 0.382500 0.992500
vt 0.382500 0.507500
vt 0.617500 0.507500
vt 0.617500 0.742500
vt 0.382500 0.742500
vt 0.632500 0.507500
vt 0.867500 0.507500
vt 0.867500 0.742500
vt 0.632500 0.742500
vt 0.382500 0.007500
vt 0.617500 0.007500
vt 0.617500 0.242500
vt 0.382500 0.242500
vt 0.382500 0.257500
vt 0.617500 0.257500
vt 0.617500 0.492500
vt 0.382500 0.492500
vt 0.132500 0.742500
vt 0.132500 0.750000
vt 0.125000 0.742500
vt 0.617500 0.000000
vt 0.625000 0.007500
vt 0.132500 0.507500
vt 0.125000 0.507500
vt 0.132500 0.500000
vt 0.625000 0.242500
vt 0.617500 0.250000
vt 0.367500 0.742500
vt 0.375000 0.742500
vt 0.367500 0.750000
vt 0.625000 0.757500
vt 0.617500 0.750000
vt 0.367500 0.507500
vt 0.367500 0.500000
vt 0.375000 0.507500
vt 0.625000 0.492500
vt 0.617500 0.500000
vt 0.382500 0.000000
vt 0.625000 0.257500
vt 0.625000 0.992500
s 0
f 15/1/1 17/2/1 4/3/1 2/4/1
f 21/5/2 23/6/2 18/7/2 14/8/2
f 22/9/3 10/10/3 5/11/3 16/12/3
f 3/13/4 6/14/4 12/15/4 8/16/4
f 9/17/5 11/18/5 24/19/5 20/20/5
f 1/21/6 2/22/6 3/23/6
f 4/24/7 5/25/7 6/14/7
f 7/26/8 8/27/8 9/28/8
f 10/29/9 11/30/9 12/15/9
f 13/31/10 14/32/10 15/33/10
f 16/34/11 17/2/11 18/35/11
f 19/36/12 20/37/12 21/38/12
f 22/39/13 23/40/13 24/19/13
f 7/26/14 1/21/14 3/23/14 8/27/14
f 2/41/15 4/24/15 6/14/15 3/13/15
f 5/25/16 10/29/16 12/15/16 6/14/16
f 11/18/17 9/17/17 8/16/17 12/15/17
f 19/36/18 7/26/18 9/28/18 20/37/18
f 10/42/19 22/39/19 24/19/19 11/18/19
f 23/6/20 21/5/20 20/20/20 24/19/20
f 13/31/21 19/36/21 21/5/21 14/8/21
f 22/9/22 16/12/22 18/7/22 23/6/22
f 17/2/23 15/1/23 14/8/23 18/7/23
f 1/21/24 13/31/24 15/33/24 2/22/24
f 16/34/25 5/43/25 4/3/25 17/2/25
f 7/26/26 19/36/26 13/31/26 1/21/26
f 39/1/1 41/2/1 28/3/1 26/4/1
f 46/9/3 34/10/3 29/11/3 40/12/3
f 27/13/4 30/14/4 36/15/4 32/16/4
f 33/17/5 35/18/5 48/19/5 44/20/5
f 25/21/27 26/22/27 27/23/27
f 28/24/7 29/25/7 30/14/7
f 31/26/28 32/27/28 33/28/28
f 34/29/29 35/30/29 36/15/29
f 37/31/10 38/32/10 39/33/10
f 40/34/11 41/2/11 42/35/11
f 43/36/12 44/37/12 45/38/12
f 46/39/13 47/40/13 48/19/13
f 31/26/14 25/21/14 27/23/14 32/27/14
f 26/41/15 28/24/15 30/14/15 27/13/15
f 29/25/16 34/29/16 36/15/16 30/14/16
f 35/18/17 33/17/17 32/16/17 36/15/17
f 43/36/18 31/26/18 33/28/18 44/37/18
f 34/42/19 46/39/19 48/19/19 35/18/19
f 47/6/20 45/5/20 44/20/20 48/19/20
f 37/31/21 43/36/21 45/5/21 38/8/21
f 46/9/22 40/12/22 42/7/22 47/6/22
f 41/2/23 39/1/23 38/8/23 42/7/23
f 25/21/24 37/31/24 39/33/24 26/22/24
f 40/34/25 29/43/25 28/3/25 41/2/25
f 31/26/26 43/36/26 37/31/26 25/21/26
f 59/1/1 61/2/1 51/3/1 50/4/1
f 65/5/2 67/6/2 62/7/2 58/8/2
f 66/9/3 55/10/3 52/11/3 60/12/3
f 54/17/5 56/18/5 68/19/5 64/20/5
f 49/21/27 50/22/27 38/23/27
f 51/24/7 52/25/7 42/14/7
f 53/26/28 45/27/28 54/28/28
f 55/29/29 56/30/29 47/15/29
f 57/31/30 58/32/30 59/33/30
f 60/34/11 61/2/11 62/35/11
f 63/36/31 64/37/31 65/38/31
f 66/39/32 67/40/32 68/19/32
f 53/26/14 49/21/14 38/23/14 45/27/14
f 50/41/15 51/24/15 42/14/15 38/13/15
f 52/25/16 55/29/16 47/15/16 42/14/16
f 56/18/17 54/17/17 45/16/17 47/15/17
f 63/36/18 53/26/18 54/28/18 64/37/18
f 55/42/19 66/39/19 68/19/19 56/18/19
f 67/6/20 65/5/20 64/20/20 68/19/20
f 57/31/21 63/36/21 65/5/21 58/8/21
f 66/9/22 60/12/22 62/7/22 67/6/22
f 61/2/23 59/1/23 58/8/23 62/7/23
f 49/21/24 57/31/24 59/33/24 50/22/24
f 60/34/25 52/43/25 51/3/25 61/2/25
f 53/26/26 63/36/26 57/31/26 49/21/26
f 83/1/1 85/2/1 72/3/1 70/4/1
f 89/5/2 91/6/2 86/7/2 82/8/2
f 90/9/3 78/10/3 73/11/3 84/12/3
f 71/13/4 74/14/4 80/15/4 76/16/4
f 77/17/5 79/18/5 92/19/5 88/20/5
f 69/21/6 70/22/6 71/23/6
f 72/24/7 73/25/7 74/14/7
f 75/26/8 76/27/8 77/28/8
f 78/29/33 79/30/33 80/15/33
f 81/31/30 82/32/30 83/33/30
f 84/34/11 85/2/11 86/35/11
f 87/36/12 88/37/12 89/38/12
f 90/39/32 91/40/32 92/19/32
f 75/26/14 69/21/14 71/23/14 76/27/14
f 70/41/15 72/24/15 74/14/15 71/13/15
f 73/25/16 78/29/16 80/15/16 74/14/16
f 79/18/17 77/17/17 76/16/17 80/15/17
f 87/36/18 75/26/18 77/28/18 88/37/18
f 78/42/19 90/39/19 92/19/19 79/18/19
f 91/6/20 89/5/20 88/20/20 92/19/20
f 81/31/21 87/36/21 89/5/21 82/8/21
f 90/9/22 84/12/22 86/7/22 91/6/22
f 85/2/23 83/1/23 82/8/23 86/7/23
f 69/21/24 81/31/24 83/33/24 70/22/24
f 84/34/25 73/43/25 72/3/25 85/2/25
f 75/26/26 87/36/26 81/31/26 69/21/26
f 107/1/1 109/2/1 96/3/1 94/4/1
f 113/5/2 115/6/2 110/7/2 106/8/2
f 114/9/3 102/10/3 97/11/3 108/12/3
f 95/13/4 98/14/4 104/15/4 100/16/4
f 101/17/5 103/18/5 116/19/5 112/20/5
f 93/21/6 94/22/6 95/23/6
f 96/24/34 97/25/34 98/14/34
f 99/26/28 100/27/28 101/28/28
f 102/29/29 103/30/29 104/15/29
f 105/31/30 106/32/30 107/33/30
f 108/34/35 109/2/35 110/35/35
f 111/36/12 112/37/12 113/38/12
f 114/39/13 115/40/13 116/19/13
f 99/26/14 93/21/14 95/23/14 100/27/14
f 94/41/15 96/24/15 98/14/15 95/13/15
f 97/25/16 102/29/16 104/15/16 98/14/16
f 103/18/17 101/17/17 100/16/17 104/15/17
f 111/36/18 99/26/18 101/28/18 112/37/18
f 102/42/19 114/39/19 116/19/19 103/18/19
f 115/6/20 113/5/20 112/20/20 116/19/20
f 105/31/21 111/36/21 113/5/21 106/8/21
f 114/9/22 108/12/22 110/7/22 115/6/22
f 109/2/23 107/1/23 106/8/23 110/7/23
f 93/21/24 105/31/24 107/33/24 94/22/24
f 108/34/25 97/43/25 96/3/25 109/2/25
f 99/26/26 111/36/26 105/31/26 93/21/26
f 131/1/1 133/2/1 120/3/1 118/4/1
f 137/5/2 139/6/2 134/7/2 130/8/2
f 138/9/3 126/10/3 121/11/3 132/12/3
f 119/13/4 122/14/4 128/15/4 124/16/4
f 125/17/5 127/18/5 140/19/5 136/20/5
f 117/21/6 118/22/6 119/23/6
f 120/24/7 121/25/7 122/14/7
f 123/26/28 124/27/28 125/28/28
f 126/29/9 127/30/9 128/15/9
f 129/31/30 130/32/30 131/33/30
f 132/34/11 133/2/11 134/35/11
f 135/36/31 136/37/31 137/38/31
f 138/39/36 139/40/36 140/19/36
f 123/26/14 117/21/14 119/23/14 124/27/14
f 118/41/15 120/24/15 122/14/15 119/13/15
f 121/25/16 126/29/16 128/15/16 122/14/16
f 127/18/17 125/17/17 124/16/17 128/15/17
f 135/36/18 123/26/18 125/28/18 136/37/18
f 126/42/19 138/39/19 140/19/19 127/18/19
f 139/6/20 137/5/20 136/20/20 140/19/20
f 129/31/21 135/36/21 137/5/21 130/8/21
f 138/9/22 132/12/22 134/7/22 139/6/22
f 133/2/23 131/1/23 130/8/23 134/7/23
f 117/21/24 129/31/24 131/33/24 118/22/24
f 132/34/25 121/43/25 120/3/25 133/2/25
f 123/26/26 135/36/26 129/31/26 117/21/26
f 155/1/1 157/2/1 144/3/1 142/4/1
f 161/5/2 163/6/2 158/7/2 154/8/2
f 162/9/3 150/10/3 145/11/3 156/12/3
f 143/13/4 146/14/4 152/15/4 148/16/4
f 149/17/5 151/18/5 164/19/5 160/20/5
f 141/21/6 142/22/6 143/23/6
f 144/24/37 145/25/37 146/14/37
f 147/26/38 148/27/38 149/28/38
f 150/29/39 151/30/39 152/15/39
f 153/31/30 154/32/30 155/33/30
f 156/34/35 157/2/35 158/35/35
f 159/36/40 160/37/40 161/38/40
f 162/39/41 163/40/41 164/19/41
f 147/26/14 141/21/14 143/23/14 148/27/14
f 142/41/15 144/24/15 146/14/15 143/13/15
f 145/25/16 150/29/16 152/15/16 146/14/16
f 151/18/17 149/17/17 148/16/17 152/15/17
f 159/36/18 147/26/18 149/28/18 160/37/18
f 150/42/19 162/39/19 164/19/19 151/18/19
f 163/6/20 161/5/20 160/20/20 164/19/20
f 153/31/21 159/36/21 161/5/21 154/8/21
f 162/9/22 156/12/22 158/7/22 163/6/22
f 157/2/23 155/1/23 154/8/23 158/7/23
f 141/21/24 153/31/24 155/33/24 142/22/24
f 156/34/25 145/43/25 144/3/25 157/2/25
f 147/26/26 159/36/26 153/31/26 141/21/26
f 179/1/1 181/2/1 168/3/1 166/4/1
f 185/5/2 187/6/2 182/7/2 178/8/2
f 186/9/3 174/10/3 169/11/3 180/12/3
f 167/13/4 170/14/4 176/15/4 172/16/4
f 173/17/5 175/18/5 188/19/5 184/20/5
f 165/21/6 166/22/6 167/23/6
f 168/24/37 169/25/37 170/14/37
f 171/26/42 172/27/42 173/28/42
f 174/29/39 175/30/39 176/15/39
f 177/31/30 178/32/30 179/33/30
f 180/34/43 181/2/43 182/35/43
f 183/36/40 184/37/40 185/38/40
f 186/39/44 187/40/44 188/19/44
f 171/26/14 165/21/14 167/23/14 172/27/14
f 166/41/15 168/24/15 170/14/15 167/13/15
f 169/25/16 174/29/16 176/15/16 170/14/16
f 175/18/17 173/17/17 172/16/17 176/15/17
f 183/36/18 171/26/18 173/28/18 184/37/18
f 174/42/19 186/39/19 188/19/19 175/18/19
f 187/6/20 185/5/20 184/20/20 188/19/20
f 177/31/21 183/36/21 185/5/21 178/8/21
f 186/9/22 180/12/22 182/7/22 187/6/22
f 181/2/23 179/1/23 178/8/23 182/7/23
f 165/21/24 177/31/24 179/33/24 166/22/24
f 180/34/25 169/43/25 168/3/25 181/2/25
f 171/26/26 183/36/26 177/31/26 165/21/26
f 203/1/1 205/2/1 192/3/1 190/4/1
f 209/5/2 211/6/2 206/7/2 202/8/2
f 210/9/3 198/10/3 193/11/3 204/12/3
f 191/13/4 194/14/4 200/15/4 196/16/4
f 197/17/5 199/18/5 212/19/5 208/20/5
f 189/21/6 190/22/6 191/23/6
f 192/24/34 193/25/34 194/14/34
f 195/26/42 196/27/42 197/28/42
f 198/29/45 199/30/45 200/15/45
f 201/31/30 202/32/30 203/33/30
f 204/34/43 205/2/43 206/35/43
f 207/36/46 208/37/46 209/38/46
f 210/39/44 211/40/44 212/19/44
f 195/26/14 189/21/14 191/23/14 196/27/14
f 190/41/15 192/24/15 194/14/15 191/13/15
f 193/25/16 198/29/16 200/15/16 194/14/16
f 199/18/17 197/17/17 196/16/17 200/15/17
f 207/36/18 195/26/18 197/28/18 208/37/18
f 198/42/19 210/39/19 212/19/19 199/18/19
f 211/6/20 209/5/20 208/20/20 212/19/20
f 201/31/21 207/36/21 209/5/21 202/8/21
f 210/9/22 204/12/22 206/7/22 211/6/22
f 205/2/23 203/1/23 202/8/23 206/7/23
f 189/21/24 201/31/24 203/33/24 190/22/24
f 204/34/25 193/43/25 192/3/25 205/2/25
f 195/26/26 207/36/26 201/31/26 189/21/26
