<?xml version="1.0" encoding="UTF-8"?>
<svg version="1.1" xmlns="http://www.w3.org/2000/svg" width="795" height="285">
<path d="M0 0 C0.61875 0.165 1.2375 0.33 1.875 0.5 C4.26491382 1.06233266 5.85204456 1.02334803 8.27734375 0.640625 C9.15519531 0.51171875 10.03304687 0.3828125 10.9375 0.25 C11.81277344 0.11078125 12.68804687 -0.0284375 13.58984375 -0.171875 C14.38519531 -0.11515625 15.18054688 -0.0584375 16 0 C17.62890625 1.984375 17.62890625 1.984375 19 4 C19.99 4 20.98 4 22 4 C22 3.34 22 2.68 22 2 C25.50776784 0.39644899 28.14354879 -0.22036864 32 0 C32 0.66 32 1.32 32 2 C32.53367188 1.84402344 33.06734375 1.68804687 33.6171875 1.52734375 C39.72528546 -0.06837042 44.79475863 0.061049 51 1 C51.721875 1.09796875 52.44375 1.1959375 53.1875 1.296875 C54.79367364 1.51707622 56.39725331 1.75610376 58 2 C58 2.66 58 3.32 58 4 C58.99 3.67 59.98 3.34 61 3 C61.33 2.34 61.66 1.68 62 1 C63.2375 1.20625 64.475 1.4125 65.75 1.625 C69.20477328 2.07668414 70.98035942 1.85824036 74 0 C74.66 0.33 75.32 0.66 76 1 C77.32 1 78.64 1 80 1 C80.33 1.99 80.66 2.98 81 4 C81.66 4.33 82.32 4.66 83 5 C83 4.34 83 3.68 83 3 C84.134375 2.855625 85.26875 2.71125 86.4375 2.5625 C89.80777201 2.38828522 89.80777201 2.38828522 91 1 C92.99958364 0.95919217 95.00045254 0.95745644 97 1 C97 1.99 97 2.98 97 4 C97.66 3.01 98.32 2.02 99 1 C100.32 1 101.64 1 103 1 C104.19625 0.95875 105.3925 0.9175 106.625 0.875 C110 1 110 1 112 3 C112.66 2.34 113.32 1.68 114 1 C114 1.66 114 2.32 114 3 C114.66 3 115.32 3 116 3 C116 2.34 116 1.68 116 1 C119.83216824 -0.37958057 123.04970777 0.36513161 127 1 C128.32 1 129.64 1 131 1 C132.34164079 1.2981424 133.67851173 1.62243192 135 2 C135 2.66 135 3.32 135 4 C134.01 4 133.02 4 132 4 C132 4.66 132 5.32 132 6 C137.20478772 5.44276813 137.20478772 5.44276813 142.3125 4.375 C144 4 144 4 147 5 C147 5.66 147 6.32 147 7 C149.31 6.34 151.62 5.68 154 5 C154.33 5.99 154.66 6.98 155 8 C158.51190809 9.22969878 158.51190809 9.22969878 162 10 C162.33 9.01 162.66 8.02 163 7 C163.99 7.66 164.98 8.32 166 9 C166 9.66 166 10.32 166 11 C166.61875 10.814375 167.2375 10.62875 167.875 10.4375 C170 10 170 10 172 11 C172 11.66 172 12.32 172 13 C173.485 12.505 173.485 12.505 175 12 C177.26171875 12.12109375 177.26171875 12.12109375 179.6875 12.4375 C180.89986328 12.59025391 180.89986328 12.59025391 182.13671875 12.74609375 C182.75160156 12.82988281 183.36648438 12.91367188 184 13 C184 13.99 184 14.98 184 16 C184.928125 15.835 185.85625 15.67 186.8125 15.5 C189.9435993 15.00884717 192.8373658 15 196 15 C196.598125 15.474375 197.19625 15.94875 197.8125 16.4375 C200.50960903 18.36400645 202.74378965 18.6299761 206 19 C206 18.34 206 17.68 206 17 C206.66 17.33 207.32 17.66 208 18 C208.33 18.99 208.66 19.98 209 21 C209.99 21 210.98 21 212 21 C212 21.66 212 22.32 212 23 C212.99 23 213.98 23 215 23 C215.33 23.66 215.66 24.32 216 25 C216.969375 25 217.93875 25 218.9375 25 C223.02108384 25 224.60069607 25.88173105 228.2109375 27.9765625 C230.1062944 29.06080597 232.03156132 30.05514943 234 31 C234 31.66 234 32.32 234 33 C235.98 32.01 235.98 32.01 238 31 C238.33 31.99 238.66 32.98 239 34 C241.31 34 243.62 34 246 34 C246.66 35.32 247.32 36.64 248 38 C248.99 38 249.98 38 251 38 C250.67 38.66 250.34 39.32 250 40 C250.66 40 251.32 40 252 40 C252 39.01 252 38.02 252 37 C252.66 37 253.32 37 254 37 C254.33 38.32 254.66 39.64 255 41 C255.639375 41.103125 256.27875 41.20625 256.9375 41.3125 C257.618125 41.539375 258.29875 41.76625 259 42 C259.33 42.99 259.66 43.98 260 45 C260.99 45 261.98 45 263 45 C263.66666667 46.33333333 264.33333333 47.66666667 265 49 C266.485 48.505 266.485 48.505 268 48 C268 48.99 268 49.98 268 51 C269.485 50.505 269.485 50.505 271 50 C271 50.66 271 51.32 271 52 C271.66 52 272.32 52 273 52 C273.33 51.01 273.66 50.02 274 49 C275.5 50.3125 275.5 50.3125 277 52 C277 52.99 277 53.98 277 55 C278.65 54.67 280.3 54.34 282 54 C282 54.99 282 55.98 282 57 C282.66 57.33 283.32 57.66 284 58 C284 56.68 284 55.36 284 54 C284.66 54 285.32 54 286 54 C286.33 55.65 286.66 57.3 287 59 C288.32 59 289.64 59 291 59 C291.33 60.65 291.66 62.3 292 64 C293.485 63.505 293.485 63.505 295 63 C299.68119396 64.56680619 303.90261827 67.12827284 307 71 C307 71.66 307 72.32 307 73 C308.485 72.505 308.485 72.505 310 72 C311.9375 73.3125 311.9375 73.3125 314 75 C315.31836295 75.69580267 316.64791086 76.37224433 318 77 C317.67 77.99 317.34 78.98 317 80 C318.485 79.505 318.485 79.505 320 79 C323.1875 80.9375 323.1875 80.9375 326 83 C326 82.34 326 81.68 326 81 C325.34 81 324.68 81 324 81 C324.33 80.01 324.66 79.02 325 78 C325 78.66 325 79.32 325 80 C326.32 80.33 327.64 80.66 329 81 C328.67 81.99 328.34 82.98 328 84 C329.32 84 330.64 84 332 84 C332 84.99 332 85.98 332 87 C335.96 87.66 339.92 88.32 344 89 C344 89.99 344 90.98 344 92 C344.5775 92.04125 345.155 92.0825 345.75 92.125 C349.13312465 93.44065958 350.19222685 95.96552364 352 99 C353.32 98.67 354.64 98.34 356 98 C355.67 98.99 355.34 99.98 355 101 C355.721875 100.896875 356.44375 100.79375 357.1875 100.6875 C361.15928126 101.12880903 362.40845099 103.0674577 365 106 C366.70967999 107.84645439 367.86365998 108.93182999 370.125 110.0625 C372 111 372 111 373 113 C375.01669827 114.13350534 375.01669827 114.13350534 377 115 C377 115.66 377 116.32 377 117 C379.475 117.99 379.475 117.99 382 119 C382 119.66 382 120.32 382 121 C383.485 120.505 383.485 120.505 385 120 C385.7425 120.804375 386.485 121.60875 387.25 122.4375 C389.66288759 125.11536182 389.66288759 125.11536182 392.1875 125.5 C392.785625 125.665 393.38375 125.83 394 126 C395.25 128.5625 395.25 128.5625 396 131 C397.65 131 399.3 131 401 131 C401.33 132.65 401.66 134.3 402 136 C402.62648438 135.91621094 403.25296875 135.83242187 403.8984375 135.74609375 C405.12433594 135.59333984 405.12433594 135.59333984 406.375 135.4375 C407.18710937 135.33308594 407.99921875 135.22867188 408.8359375 135.12109375 C411 135 411 135 413 136 C413.33 135.34 413.66 134.68 414 134 C415.9375 131.875 415.9375 131.875 418 130 C418.66 130 419.32 130 420 130 C420.33 130.99 420.66 131.98 421 133 C421 132.01 421 131.02 421 130 C421.33 129.01 421.66 128.02 422 127 C423.485 126.505 423.485 126.505 425 126 C425.33 125.34 425.66 124.68 426 124 C428.0625 122.875 428.0625 122.875 430 122 C430 120.68 430 119.36 430 118 C430.99 118 431.98 118 433 118 C433 118.66 433 119.32 433 120 C433.66 120 434.32 120 435 120 C434.67 118.68 434.34 117.36 434 116 C434.66 116 435.32 116 436 116 C436.33 115.01 436.66 114.02 437 113 C438.875 112.375 438.875 112.375 441 112 C444.11332248 111.33131686 444.11332248 111.33131686 445.1875 108.9375 C445.455625 108.298125 445.72375 107.65875 446 107 C446.66 107 447.32 107 448 107 C448.33 105.68 448.66 104.36 449 103 C451 103 453 103 455 103 C455 102.34 455 101.68 455 101 C454.34 100.67 453.68 100.34 453 100 C454.98 98.68 456.96 97.36 459 96 C459.66 96.33 460.32 96.66 461 97 C460.67 97.66 460.34 98.32 460 99 C460.66 99 461.32 99 462 99 C462 97.68 462 96.36 462 95 C462.99 95 463.98 95 465 95 C465.33 94.01 465.66 93.02 466 92 C467.32 92.33 468.64 92.66 470 93 C469.67 92.01 469.34 91.02 469 90 C469.66 90 470.32 90 471 90 C471.66 89.34 472.32 88.68 473 88 C473.99 88.33 474.98 88.66 476 89 C476.33 88.34 476.66 87.68 477 87 C477.99 87 478.98 87 480 87 C479.67 86.01 479.34 85.02 479 84 C479.99 84 480.98 84 482 84 C482.33 83.34 482.66 82.68 483 82 C483.53625 82.20625 484.0725 82.4125 484.625 82.625 C487.90852004 83.14345053 489.99401842 82.33599181 493 81 C493.33 80.01 493.66 79.02 494 78 C494.99 78 495.98 78 497 78 C497.33 78.33 497.66 78.66 498 79 C498.66 78.01 499.32 77.02 500 76 C503.625 75.3125 503.625 75.3125 507 75 C507.33 74.01 507.66 73.02 508 72 C509.32 72 510.64 72 512 72 C512.33 71.01 512.66 70.02 513 69 C513.721875 69.20625 514.44375 69.4125 515.1875 69.625 C518.44641585 70.05952211 520.08304504 69.41680669 523 68 C523 67.34 523 66.68 523 66 C523.763125 65.87625 524.52625 65.7525 525.3125 65.625 C528.20267136 65.11897208 528.20267136 65.11897208 531 63 C531.66 63 532.32 63 533 63 C535.52631081 61.89473902 537.0276801 60.9723199 539 59 C539.60457031 59.15984375 540.20914063 59.3196875 540.83203125 59.484375 C543.70336446 60.16728668 545.0147205 59.437902 547.6875 58.25 C551.8355176 56.47139898 555.98134463 54.96720441 560.28515625 53.61328125 C562.0073048 53.13526024 562.0073048 53.13526024 563 52 C565.33297433 51.95907063 567.66705225 51.95758277 570 52 C570.33 51.34 570.66 50.68 571 50 C573.64860427 49.40644386 576.29197322 49.25790731 579 49 C579 49.66 579 50.32 579 51 C581.31 50.67 583.62 50.34 586 50 C585.67 50.66 585.34 51.32 585 52 C588.153368 52.70074844 590.72724974 53 594 53 C594.33 54.65 594.66 56.3 595 58 C595.66 58 596.32 58 597 58 C597 58.99 597 59.98 597 61 C597.66 61.33 598.32 61.66 599 62 C598.59442551 68.44723594 597.44892472 74.2544911 595.625 80.4453125 C595.05288096 82.78384908 594.85813295 84.67156758 594.9375 87.0625 C594.9684375 88.5165625 594.9684375 88.5165625 595 90 C594.34 90.66 593.68 91.32 593 92 C593 93.32 593 94.64 593 96 C592.67 96.66 592.34 97.32 592 98 C592.66 98 593.32 98 594 98 C594 98.66 594 99.32 594 100 C593.34 100.33 592.68 100.66 592 101 C590.55850938 105.14651005 590 109.31393336 590 113.6875 C590 117.26935889 589.14667221 119.62743466 588 123 C587.67381966 125.34690733 587.44284883 127.68581408 587.24609375 130.046875 C587 132 587 132 586 134 C585.34 134 584.68 134 584 134 C584.185625 134.94875 584.37125 135.8975 584.5625 136.875 C585 140 585 140 584 142 C583.835 142.825 583.67 143.65 583.5 144.5 C583 147 583 147 582 149 C582.185625 149.763125 582.37125 150.52625 582.5625 151.3125 C583.09457251 154.5809454 582.25090211 155.98311843 581 159 C581 160.03125 581 161.0625 581 162.125 C581 165 581 165 579 168 C579.66 168 580.32 168 581 168 C580.814375 168.721875 580.62875 169.44375 580.4375 170.1875 C579.98004693 173.12826973 580.26483643 175.14103058 581 178 C580.34 178 579.68 178 579 178 C579.20625 178.556875 579.4125 179.11375 579.625 179.6875 C580.10695211 182.659538 579.26565028 184.31979941 578 187 C578.99 187.66 579.98 188.32 581 189 C580.484375 189.763125 579.96875 190.52625 579.4375 191.3125 C578.7259375 192.6428125 578.7259375 192.6428125 578 194 C578.33 194.99 578.66 195.98 579 197 C578.814375 197.639375 578.62875 198.27875 578.4375 198.9375 C577.76551756 201.05026596 577.76551756 201.05026596 579 203 C580 205 580 205 579.8125 207.125 C579 209 579 209 576 211 C576.66 211.33 577.32 211.66 578 212 C578 212.66 578 213.32 578 214 C577.34 214 576.68 214 576 214 C576.185625 214.9075 576.37125 215.815 576.5625 216.75 C577 220 577 220 576.4375 222.1875 C576.293125 222.785625 576.14875 223.38375 576 224 C576.66 224.99 577.32 225.98 578 227 C577.34 227.99 576.68 228.98 576 230 C575.34 230 574.68 230 574 230 C574.185625 230.9075 574.37125 231.815 574.5625 232.75 C574.95734621 235.68314324 574.94691572 237.2644657 574 240 C574.99 240.33 575.98 240.66 577 241 C572.25 245.875 572.25 245.875 570 247 C570 247.99 570 248.98 570 250 C569.01 250.33 568.02 250.66 567 251 C567 252.32 567 253.64 567 255 C566.34 255 565.68 255 565 255 C565 255.99 565 256.98 565 258 C564.01 258.495 564.01 258.495 563 259 C562.67 259.66 562.34 260.32 562 261 C561.401875 260.67 560.80375 260.34 560.1875 260 C557.94613529 258.79212012 557.94613529 258.79212012 555 259 C554.01 258.34 553.02 257.68 552 257 C552 255.68 552 254.36 552 253 C551.67 253.66 551.34 254.32 551 255 C550.2575 254.690625 549.515 254.38125 548.75 254.0625 C546.13924503 252.94970861 546.13924503 252.94970861 543.8125 252.625 C542 252 542 252 540.8125 250.0625 C540.544375 249.381875 540.27625 248.70125 540 248 C539.67 247.34 539.34 246.68 539 246 C538.01 246.99 537.02 247.98 536 249 C534 248 534 248 533 245 C532.01 245 531.02 245 530 245 C529.67 244.34 529.34 243.68 529 243 C528.01 242.67 527.02 242.34 526 242 C526 240.02 526 238.04 526 236 C525.67 237.32 525.34 238.64 525 240 C521.08406554 239.21681311 517.63593365 237.60820142 514 236 C514 235.01 514 234.02 514 233 C513.34 232.67 512.68 232.34 512 232 C512 232.66 512 233.32 512 234 C511.01 234 510.02 234 509 234 C509.66 232.35 510.32 230.7 511 229 C510.4225 229.37125 509.845 229.7425 509.25 230.125 C507 231 507 231 504.75 230.125 C503.88375 229.568125 503.88375 229.568125 503 229 C503 228.34 503 227.68 503 227 C502.01 226.67 501.02 226.34 500 226 C500.66 225.01 501.32 224.02 502 223 C499.03 223.99 499.03 223.99 496 225 C494.68 223.68 493.36 222.36 492 221 C492.33 220.34 492.66 219.68 493 219 C492.01 219.33 491.02 219.66 490 220 C490 219.34 490 218.68 490 218 C489.01 218.33 488.02 218.66 487 219 C486.34 218.67 485.68 218.34 485 218 C484.67 218.99 484.34 219.98 484 221 C483.67 220.34 483.34 219.68 483 219 C483.33 218.34 483.66 217.68 484 217 C484.99 217 485.98 217 487 217 C483.94736336 216.01879536 482.05263664 216.01879536 479 217 C478.34 215.02 477.68 213.04 477 211 C476.071875 211.04125 475.14375 211.0825 474.1875 211.125 C471 211 471 211 468 209 C467.67 208.01 467.34 207.02 467 206 C466.030625 205.87625 465.06125 205.7525 464.0625 205.625 C463.051875 205.41875 462.04125 205.2125 461 205 C460.67 204.34 460.34 203.68 460 203 C459.05125 202.690625 458.1025 202.38125 457.125 202.0625 C454.14092099 201.04791314 452.76815988 200.55400872 451 198 C451 196.68 451 195.36 451 194 C450.34 194.66 449.68 195.32 449 196 C447.515 194.515 447.515 194.515 446 193 C445.67 193.66 445.34 194.32 445 195 C444.01 195 443.02 195 442 195 C441.67 194.01 441.34 193.02 441 192 C441.99 191.67 442.98 191.34 444 191 C441.69 191 439.38 191 437 191 C436.67 190.34 436.34 189.68 436 189 C433.67843403 188.59270772 431.3431213 188.25561323 429 188 C429.33 186.68 429.66 185.36 430 184 C428.02 184.33 426.04 184.66 424 185 C423.67 184.34 423.34 183.68 423 183 C421.35 183 419.7 183 418 183 C417.34 181.68 416.68 180.36 416 179 C415.01 179 414.02 179 413 179 C413 178.34 413 177.68 413 177 C412.278125 177.350625 411.55625 177.70125 410.8125 178.0625 C407.6877295 179.10409017 406.11838004 178.89096572 403 178 C403 178.66 403 179.32 403 180 C402.236875 180.268125 401.47375 180.53625 400.6875 180.8125 C397.99592628 181.80853525 397.99592628 181.80853525 396.375 183.625 C395.92125 184.07875 395.4675 184.5325 395 185 C394.01 185 393.02 185 392 185 C390.56750695 186.4805404 390.56750695 186.4805404 389.25 188.375 C386.222594 192.13289949 383.706572 192.86693637 379 194 C376.55901182 195.85420839 376.55901182 195.85420839 375 198 C375 198.66 375 199.32 375 200 C371.62902617 201.49821059 369.79557881 202 366 202 C366 202.66 366 203.32 366 204 C366.66 204 367.32 204 368 204 C368 204.66 368 205.32 368 206 C364.25 207.125 364.25 207.125 362 206 C362 206.66 362 207.32 362 208 C361.401875 208.144375 360.80375 208.28875 360.1875 208.4375 C358.43849596 208.8872439 356.71322977 209.42892341 355 210 C353.77030122 213.51190809 353.77030122 213.51190809 353 217 C352.34 215.68 351.68 214.36 351 213 C350.01 213 349.02 213 348 213 C348 213.99 348 214.98 348 216 C347.195625 216.12375 346.39125 216.2475 345.5625 216.375 C344.716875 216.58125 343.87125 216.7875 343 217 C342.67 217.66 342.34 218.32 342 219 C340.68 219 339.36 219 338 219 C336.65835921 219.2981424 335.32148827 219.62243192 334 220 C333.9175 220.61875 333.835 221.2375 333.75 221.875 C333 224 333 224 331.0625 225.125 C330.381875 225.41375 329.70125 225.7025 329 226 C328.34 226.66 327.68 227.32 327 228 C326.01 227.34 325.02 226.68 324 226 C324.33 225.34 324.66 224.68 325 224 C324.34 224 323.68 224 323 224 C322.67 224.99 322.34 225.98 322 227 C321.34 227 320.68 227 320 227 C319.67 228.32 319.34 229.64 319 231 C316.92446352 231.5534764 315.15634036 232 313 232 C310.93618425 232.32843384 310.93618425 232.32843384 309 233 C308.67 233.66 308.34 234.32 308 235 C305.67843403 235.40729228 303.3431213 235.74438677 301 236 C300.67 236.99 300.34 237.98 300 239 C296.63905556 241.32680769 292.97711783 241.49382137 289 242 C288.01 242.33 287.02 242.66 286 243 C285.67 242.34 285.34 241.68 285 241 C283.515 241.99 283.515 241.99 282 243 C276.65454545 243.32727273 276.65454545 243.32727273 274 242 C274 242.66 274 243.32 274 244 C274.66 244 275.32 244 276 244 C276 244.99 276 245.98 276 247 C273.58555381 248.43078293 272.28577002 249.01394 269.4375 248.875 C266.82390313 248.72161747 266.82390313 248.72161747 265.1875 251 C264.795625 251.66 264.40375 252.32 264 253 C263.67 252.34 263.34 251.68 263 251 C260.69 251.33 258.38 251.66 256 252 C255.67 252.99 255.34 253.98 255 255 C254.34 254.34 253.68 253.68 253 253 C252.05125 253.350625 251.1025 253.70125 250.125 254.0625 C247 255 247 255 245 254 C245 255.32 245 256.64 245 258 C244.01 258 243.02 258 242 258 C242 257.01 242 256.02 242 255 C240.9171875 255.9590625 240.9171875 255.9590625 239.8125 256.9375 C235.75258204 259.91477317 232.96717964 260 228 260 C227.01 260.33 226.02 260.66 225 261 C224.34 260.67 223.68 260.34 223 260 C223 260.66 223 261.32 223 262 C221.35 262 219.7 262 218 262 C217.67 262.66 217.34 263.32 217 264 C217 263.34 217 262.68 217 262 C214.6568787 262.25561323 212.32156597 262.59270772 210 263 C209.67 263.66 209.34 264.32 209 265 C207.0390625 265.8515625 207.0390625 265.8515625 204.625 266.625 C203.83351563 266.88539063 203.04203125 267.14578125 202.2265625 267.4140625 C197.73951418 268.59486469 194.26584102 267.42194701 190 266 C187.83284443 266.87483915 187.83284443 266.87483915 186 268 C185.01 267.34 184.02 266.68 183 266 C183 266.66 183 267.32 183 268 C181.0625 268.5625 181.0625 268.5625 179 269 C178.67 268.67 178.34 268.34 178 268 C177.67 268.99 177.34 269.98 177 271 C175.68 271 174.36 271 173 271 C172.67 270.67 172.34 270.34 172 270 C171.67 271.32 171.34 272.64 171 274 C170.34 273.67 169.68 273.34 169 273 C169.33 272.34 169.66 271.68 170 271 C169.21625 271.165 168.4325 271.33 167.625 271.5 C165 272 165 272 163 272 C162.401875 272.350625 161.80375 272.70125 161.1875 273.0625 C158.39197532 274.26058201 156.87015851 273.85329037 154 273 C153.67 272.67 153.34 272.34 153 272 C152.608125 272.474375 152.21625 272.94875 151.8125 273.4375 C149.53435547 275.4014177 147.98103359 275.77642248 145 276 C144.01 275.34 143.02 274.68 142 274 C141.01 274.99 140.02 275.98 139 277 C138.34 276.67 137.68 276.34 137 276 C136.67 276.99 136.34 277.98 136 279 C135.01 278.67 134.02 278.34 133 278 C133 277.34 133 276.68 133 276 C131.19747131 275.29805007 131.19747131 275.29805007 129 275 C128.34 275.350625 127.68 275.70125 127 276.0625 C126.34 276.371875 125.68 276.68125 125 277 C122.75 276.125 122.75 276.125 121 275 C120.67 276.32 120.34 277.64 120 279 C117.37812506 277.95125002 116.20628639 277.35068687 114.75 274.875 C114.5025 274.25625 114.255 273.6375 114 273 C114 274.32 114 275.64 114 277 C112.1875 277.625 112.1875 277.625 110 278 C109.01 277.34 108.02 276.68 107 276 C107 276.66 107 277.32 107 278 C104.69 278.66 102.38 279.32 100 280 C100 279.34 100 278.68 100 278 C99.34 278 98.68 278 98 278 C98 277.01 98 276.02 98 275 C97.01 275 96.02 275 95 275 C95 276.32 95 277.64 95 279 C94.01 278.67 93.02 278.34 92 278 C92 277.01 92 276.02 92 275 C91.34 276.32 90.68 277.64 90 279 C88.453125 278.690625 88.453125 278.690625 86.875 278.375 C82.83169533 277.98371245 80.72685797 278.5600776 77 280 C76.01 280 75.02 280 74 280 C74 279.01 74 278.02 74 277 C73.34 277 72.68 277 72 277 C72 277.66 72 278.32 72 279 C70.906875 279.144375 69.81375 279.28875 68.6875 279.4375 C65.06877013 279.88288104 65.06877013 279.88288104 62 281 C59.37156116 279.99500868 58.27596315 279.55192629 57 277 C56.67 277.99 56.34 278.98 56 280 C54.68 280 53.36 280 52 280 C51.34 280.33 50.68 280.66 50 281 C50 280.34 50 279.68 50 279 C49.34 279 48.68 279 48 279 C47.67 279.99 47.34 280.98 47 282 C40.125 279.25 40.125 279.25 39 277 C37.68 277.33 36.36 277.66 35 278 C35 278.99 35 279.98 35 281 C32.83125748 280.49396008 31.00032373 280.00016187 29 279 C28.67 279.99 28.34 280.98 28 282 C26.35 281.34 24.7 280.68 23 280 C23 280.66 23 281.32 23 282 C22.01 282 21.02 282 20 282 C19.67 281.34 19.34 280.68 19 280 C16.51587793 279.17195931 14.64779693 279 12 279 C11.67 279 11.34 279 11 279 C10.67 279.66 10.34 280.32 10 281 C9.01 280.01 8.02 279.02 7 278 C6.67 278.99 6.34 279.98 6 281 C4.906875 280.62875 3.81375 280.2575 2.6875 279.875 C0.8621875 279.441875 0.8621875 279.441875 -1 279 C-1.99 279.66 -2.98 280.32 -4 281 C-4.66 279.68 -5.32 278.36 -6 277 C-7.11375 277.061875 -7.11375 277.061875 -8.25 277.125 C-11 277 -11 277 -12.8125 276.0625 C-18.35900533 273.36848312 -24.14271078 273.90175827 -30 275 C-30 274.34 -30 273.68 -30 273 C-30.66 273 -31.32 273 -32 273 C-32.33 272.01 -32.66 271.02 -33 270 C-33.66 271.32 -34.32 272.64 -35 274 C-35.99 274 -36.98 274 -38 274 C-38 273.34 -38 272.68 -38 272 C-38.66 272 -39.32 272 -40 272 C-40.33 272.99 -40.66 273.98 -41 275 C-41.66 274.67 -42.32 274.34 -43 274 C-43 273.34 -43 272.68 -43 272 C-43.66 272 -44.32 272 -45 272 C-45 271.34 -45 270.68 -45 270 C-47.91517292 271.07401108 -49.77810176 271.77810176 -52 274 C-52.99 272.515 -52.99 272.515 -54 271 C-54.99 271.33 -55.98 271.66 -57 272 C-57 270.35 -57 268.7 -57 267 C-58.32 266.34 -59.64 265.68 -61 265 C-60.67 266.65 -60.34 268.3 -60 270 C-62 269.33333333 -64 268.66666667 -66 268 C-66 267.01 -66 266.02 -66 265 C-67.32 265 -68.64 265 -70 265 C-70 264.34 -70 263.68 -70 263 C-70.66 263 -71.32 263 -72 263 C-72 264.65 -72 266.3 -72 268 C-73.32 267.67 -74.64 267.34 -76 267 C-75.67 266.34 -75.34 265.68 -75 265 C-75.99 265.33 -76.98 265.66 -78 266 C-80.125 265.6875 -80.125 265.6875 -82 265 C-82.33 264.34 -82.66 263.68 -83 263 C-83.33 263.66 -83.66 264.32 -84 265 C-86.31 265 -88.62 265 -91 265 C-91 264.01 -91 263.02 -91 262 C-90.34 262 -89.68 262 -89 262 C-89.33 261.34 -89.66 260.68 -90 260 C-93.52655706 260 -96.53674957 260.80479915 -99.94140625 261.66015625 C-102 262 -102 262 -104 261 C-104.625 258.4375 -104.625 258.4375 -105 256 C-105.94875 256 -106.8975 256 -107.875 256 C-109.58333333 256 -111.29166667 256 -113 256 C-113.99 256.33 -114.98 256.66 -116 257 C-116.33 256.01 -116.66 255.02 -117 254 C-118.32 254.33 -119.64 254.66 -121 255 C-121.33 254.01 -121.66 253.02 -122 252 C-121.34 252 -120.68 252 -120 252 C-120 251.34 -120 250.68 -120 250 C-120.99 250 -121.98 250 -123 250 C-123 249.34 -123 248.68 -123 248 C-123.66 247.67 -124.32 247.34 -125 247 C-125 246.34 -125 245.68 -125 245 C-125.66 244.67 -126.32 244.34 -127 244 C-127.33 244.33 -127.66 244.66 -128 245 C-128.66 245 -129.32 245 -130 245 C-130 244.34 -130 243.68 -130 243 C-130.99 242.67 -131.98 242.34 -133 242 C-133 241.01 -133 240.02 -133 239 C-133.66 239 -134.32 239 -135 239 C-134.67 237.68 -134.34 236.36 -134 235 C-135.32 235.33 -136.64 235.66 -138 236 C-138.1546875 235.0409375 -138.1546875 235.0409375 -138.3125 234.0625 C-138.539375 233.381875 -138.76625 232.70125 -139 232 C-139.99 231.67 -140.98 231.34 -142 231 C-143.1875 228.9375 -143.1875 228.9375 -144 227 C-144.66 227 -145.32 227 -146 227 C-146.33 226.01 -146.66 225.02 -147 224 C-149.01508358 223.26676204 -149.01508358 223.26676204 -151 223 C-151.495 219.535 -151.495 219.535 -152 216 C-151.34 216 -150.68 216 -150 216 C-149.773125 215.278125 -149.54625 214.55625 -149.3125 213.8125 C-147.72245423 210.40525907 -145.77781089 208.51940988 -143 206 C-142.2575 205.29875 -141.515 204.5975 -140.75 203.875 C-137.58949854 201.72011264 -134.66862027 200.84643745 -130.98828125 199.90625 C-128.4536087 198.75095721 -127.97591517 197.54677328 -127 195 C-126.34 195 -125.68 195 -125 195 C-125 195.66 -125 196.32 -125 197 C-124.01 196.67 -123.02 196.34 -122 196 C-122.33 195.34 -122.66 194.68 -123 194 C-122.360625 193.525625 -121.72125 193.05125 -121.0625 192.5625 C-118.54710338 190.65803439 -118.54710338 190.65803439 -117 188 C-116.34 188 -115.68 188 -115 188 C-114.83318891 185.08347826 -114.83318891 185.08347826 -115 182 C-115.66 181.34 -116.32 180.68 -117 180 C-117 178.68 -117 177.36 -117 176 C-118.3921875 175.566875 -118.3921875 175.566875 -119.8125 175.125 C-123 174 -123 174 -126 172 C-126.99 172.66 -127.98 173.32 -129 174 C-129 173.34 -129 172.68 -129 172 C-129.66 172 -130.32 172 -131 172 C-131 173.32 -131 174.64 -131 176 C-133.64 175.67 -136.28 175.34 -139 175 C-139 173.68 -139 172.36 -139 171 C-139.66 171.33 -140.32 171.66 -141 172 C-140.67 172.66 -140.34 173.32 -140 174 C-142.97 173.01 -142.97 173.01 -146 172 C-146 171.34 -146 170.68 -146 170 C-147.32 170 -148.64 170 -150 170 C-150.33 170.66 -150.66 171.32 -151 172 C-151.76183594 171.96519531 -152.52367187 171.93039063 -153.30859375 171.89453125 C-162.17456452 171.66209007 -168.8830661 172.52543546 -176 178 C-179 177 -179 177 -180.125 175.1875 C-182.30612245 169.73469388 -182.30612245 169.73469388 -181.0625 166.75 C-180.711875 166.1725 -180.36125 165.595 -180 165 C-180.61875 164.9175 -181.2375 164.835 -181.875 164.75 C-184 164 -184 164 -185.0625 162.0625 C-185.371875 161.381875 -185.68125 160.70125 -186 160 C-186.99 159.34 -187.98 158.68 -189 158 C-188.34 157.01 -187.68 156.02 -187 155 C-187 154.01 -187 153.02 -187 152 C-187.66 151.67 -188.32 151.34 -189 151 C-189 150.34 -189 149.68 -189 149 C-189.31802943 147.33034549 -189.64984951 145.66321482 -190 144 C-189.34 144 -188.68 144 -188 144 C-188.350625 142.9275 -188.70125 141.855 -189.0625 140.75 C-189.97290714 137.10837144 -189.96806244 136.33443728 -189 133 C-189.27050453 130.99053778 -189.59367909 128.98645776 -190 127 C-190.66 127 -191.32 127 -192 127 C-191.814375 126.443125 -191.62875 125.88625 -191.4375 125.3125 C-190.84380264 122.99594435 -190.84380264 122.99594435 -191.5 120.6875 C-192.13575897 117.27029553 -191.6000766 114.40043405 -191 111 C-191.66 111 -192.32 111 -193 111 C-193.02708567 109.39592672 -193.04643483 107.7917215 -193.0625 106.1875 C-193.07410156 105.29417969 -193.08570313 104.40085937 -193.09765625 103.48046875 C-193 101 -193 101 -192 98 C-192.33 97.01 -192.66 96.02 -193 95 C-192.73046875 92.84375 -192.73046875 92.84375 -192.1875 90.5 C-192.01605469 89.7265625 -191.84460938 88.953125 -191.66796875 88.15625 C-191 86 -191 86 -189 83 C-188.43951959 80.9596234 -188.43951959 80.9596234 -188.0625 78.75 C-187.13054552 74.42205987 -186.26973048 70.83506184 -184 67 C-180.85640809 65.73153309 -178.38705198 65 -175 65 C-173.515 64.505 -173.515 64.505 -172 64 C-172.185625 63.21625 -172.37125 62.4325 -172.5625 61.625 C-173 59 -173 59 -172 57 C-170.35 57 -168.7 57 -167 57 C-167 56.01 -167 55.02 -167 54 C-166.34 54 -165.68 54 -165 54 C-164.67 53.01 -164.34 52.02 -164 51 C-161.9375 49.3125 -161.9375 49.3125 -160 48 C-159.01 48.495 -159.01 48.495 -158 49 C-157.67 48.01 -157.34 47.02 -157 46 C-154.03 45.505 -154.03 45.505 -151 45 C-151 44.34 -151 43.68 -151 43 C-151.99 43.33 -152.98 43.66 -154 44 C-154 43.01 -154 42.02 -154 41 C-152.35 41 -150.7 41 -149 41 C-148.34 39.68 -147.68 38.36 -147 37 C-145.68 37.33 -144.36 37.66 -143 38 C-142.34 36.35 -141.68 34.7 -141 33 C-138.6739143 32.61936779 -136.33944736 32.28730055 -134 32 C-133.67 32.33 -133.34 32.66 -133 33 C-132.38125 32.319375 -132.38125 32.319375 -131.75 31.625 C-129.93374279 29.93847545 -128.1999574 29.0999787 -126 28 C-125.67 27.34 -125.34 26.68 -125 26 C-123.9275 25.87625 -122.855 25.7525 -121.75 25.625 C-117.55903002 24.926505 -116.17722947 23.67556166 -113 21 C-111.33817696 20.64330254 -109.6707006 20.31248745 -108 20 C-106.38179175 19.39020211 -104.77723586 18.74308159 -103.1875 18.0625 C-100.04158526 16.76574645 -96.99899111 15.65897043 -93.6875 14.875 C-89.88213818 13.97203279 -86.53617409 12.872753 -83.13671875 10.94140625 C-80.72498246 9.87883139 -79.17786587 9.82418259 -76.5625 9.9375 C-73.19996983 10.02613341 -70.29609949 9.72102176 -67 9 C-66.505 9.495 -66.505 9.495 -66 10 C-65.34 9.34 -64.68 8.68 -64 8 C-61.07658794 6.6507329 -59.24792684 6 -56 6 C-56 6.66 -56 7.32 -56 8 C-55.67 7.525625 -55.34 7.05125 -55 6.5625 C-52.00964464 4.22628488 -48.73932026 4.03015581 -45 4 C-44.01 4.33 -43.02 4.66 -42 5 C-41.01 4.34 -40.02 3.68 -39 3 C-37.88625 3.165 -36.7725 3.33 -35.625 3.5 C-31.86918308 4.01804371 -30.30285614 3.70147135 -27 2 C-27 2.99 -27 3.98 -27 5 C-26.47148437 4.52046875 -25.94296875 4.0409375 -25.3984375 3.546875 C-22.37440842 1.596524 -20.20069975 1.46670908 -16.625 1.25 C-15.52414063 1.17265625 -14.42328125 1.0953125 -13.2890625 1.015625 C-8.92070694 0.99487272 -5.13715506 1.62094831 -1 3 C-0.67 2.01 -0.34 1.02 0 0 Z M13 1 C12.67 1.66 12.34 2.32 12 3 C12.66 3 13.32 3 14 3 C13.67 2.34 13.34 1.68 13 1 Z M52 2 C52 2.66 52 3.32 52 4 C52.66 4 53.32 4 54 4 C54 3.34 54 2.68 54 2 C53.34 2 52.68 2 52 2 Z M37 3 C38 5 38 5 38 5 Z M125 3 C125.33 3.66 125.66 4.32 126 5 C126.66 5 127.32 5 128 5 C128 4.34 128 3.68 128 3 C127.01 3 126.02 3 125 3 Z M42 4 C43 6 43 6 43 6 Z M-60 9 C-59.67 9.99 -59.34 10.98 -59 12 C-58.34 11.34 -57.68 10.68 -57 10 C-57.99 9.67 -58.98 9.34 -60 9 Z M-64 11 C-63.67 11.66 -63.34 12.32 -63 13 C-62.67 12.34 -62.34 11.68 -62 11 C-62.66 11 -63.32 11 -64 11 Z M-77 16 C-76 18 -76 18 -76 18 Z M-117 26 C-116.67 26.66 -116.34 27.32 -116 28 C-115.01 27.67 -114.02 27.34 -113 27 C-114.32 26.67 -115.64 26.34 -117 26 Z M-8 27 C-8.33 27.66 -8.66 28.32 -9 29 C-8.34 29 -7.68 29 -7 29 C-7.33 28.34 -7.66 27.68 -8 27 Z M12 27 C12 27.99 12 28.98 12 30 C12.99 29.67 13.98 29.34 15 29 C14.01 28.34 13.02 27.68 12 27 Z M-119 28 C-118.34 28.66 -117.68 29.32 -117 30 C-117 29.34 -117 28.68 -117 28 C-117.66 28 -118.32 28 -119 28 Z M-4 28 C-4.33 28.66 -4.66 29.32 -5 30 C-3.68 29.34 -2.36 28.68 -1 28 C-1.99 28 -2.98 28 -4 28 Z M45 28 C45 28.66 45 29.32 45 30 C45.66 29.67 46.32 29.34 47 29 C46.34 28.67 45.68 28.34 45 28 Z M97 28 C98 30 98 30 98 30 Z M5 29 C6 31 6 31 6 31 Z M17 29 C17 29.66 17 30.32 17 31 C17.66 30.67 18.32 30.34 19 30 C18.34 29.67 17.68 29.34 17 29 Z M-47 30 C-47.33 30.66 -47.66 31.32 -48 32 C-47.34 32 -46.68 32 -46 32 C-46.33 31.34 -46.66 30.68 -47 30 Z M1 30 C1 30.66 1 31.32 1 32 C-0.98 32 -2.96 32 -5 32 C-5 32.66 -5 33.32 -5 34 C-5.66 34 -6.32 34 -7 34 C-7.33 33.34 -7.66 32.68 -8 32 C-8.5775 32.185625 -9.155 32.37125 -9.75 32.5625 C-12.20692525 33.04023546 -13.64397534 32.75729364 -16 32 C-16 32.66 -16 33.32 -16 34 C-16.5775 34.12375 -17.155 34.2475 -17.75 34.375 C-20.02760434 34.8907603 -20.02760434 34.8907603 -21.875 36.1875 C-25.01659988 37.38869995 -26.9584366 36.19017698 -30 35 C-30.66 35 -31.32 35 -32 35 C-32.33 34.34 -32.66 33.68 -33 33 C-33.598125 33.350625 -34.19625 33.70125 -34.8125 34.0625 C-37 35 -37 35 -40 34 C-40.66 34.33 -41.32 34.66 -42 35 C-42.99 34.01 -42.99 34.01 -44 33 C-44 33.66 -44 34.32 -44 35 C-45.98 34.67 -47.96 34.34 -50 34 C-49.01 34.99 -48.02 35.98 -47 37 C-50.33333333 37 -53.66666667 37 -57 37 C-57.33 37.99 -57.66 38.98 -58 40 C-59.9375 40.75 -59.9375 40.75 -62 41 C-62.99 40.505 -62.99 40.505 -64 40 C-66.3400417 40.28241883 -68.67504723 40.61250787 -71 41 C-71 41.66 -71 42.32 -71 43 C-73.31 43 -75.62 43 -78 43 C-77.01 44.98 -77.01 44.98 -76 47 C-77.32 46.67 -78.64 46.34 -80 46 C-80 45.34 -80 44.68 -80 44 C-81.65 43.34 -83.3 42.68 -85 42 C-85 42.99 -85 43.98 -85 45 C-86.98 45.99 -88.96 46.98 -91 48 C-91.99 47.34 -92.98 46.68 -94 46 C-94.495 47.485 -94.495 47.485 -95 49 C-96.65 49 -98.3 49 -100 49 C-100 49.66 -100 50.32 -100 51 C-100.78375 50.95875 -101.5675 50.9175 -102.375 50.875 C-105.16116119 50.71271266 -105.16116119 50.71271266 -107 53 C-107.99 52.67 -108.98 52.34 -110 52 C-110.495 54.475 -110.495 54.475 -111 57 C-111.99 55.68 -112.98 54.36 -114 53 C-114.495 55.475 -114.495 55.475 -115 58 C-116.32 57.34 -117.64 56.68 -119 56 C-119 57.32 -119 58.64 -119 60 C-119.66 59.01 -120.32 58.02 -121 57 C-123.05990478 58.29467677 -123.05990478 58.29467677 -125 60 C-125 60.99 -125 61.98 -125 63 C-127.475 63.495 -127.475 63.495 -130 64 C-130.33 63.34 -130.66 62.68 -131 62 C-131.33 62.99 -131.66 63.98 -132 65 C-132.66 65 -133.32 65 -134 65 C-134.33 66.32 -134.66 67.64 -135 69 C-135.66 69 -136.32 69 -137 69 C-137.33 68.34 -137.66 67.68 -138 67 C-138.33 67.66 -138.66 68.32 -139 69 C-140.485 69.495 -140.485 69.495 -142 70 C-142.639375 70.99 -143.27875 71.98 -143.9375 73 C-146 76 -146 76 -148.0625 76.6875 C-148.701875 76.790625 -149.34125 76.89375 -150 77 C-151.60411246 78.35405861 -151.60411246 78.35405861 -153 80 C-154.96303844 82.04483171 -156.59336812 83.39557874 -159 85 C-158.67 87.31 -158.34 89.62 -158 92 C-159.98 92.495 -159.98 92.495 -162 93 C-163.17571451 96.67410785 -163.07366746 100.16929183 -163 104 C-164.98 104.495 -164.98 104.495 -167 105 C-166.814375 105.598125 -166.62875 106.19625 -166.4375 106.8125 C-166 109 -166 109 -167 112 C-166.34 112.33 -165.68 112.66 -165 113 C-165.66 114.98 -166.32 116.96 -167 119 C-166.01 119.33 -165.02 119.66 -164 120 C-164.185625 120.598125 -164.37125 121.19625 -164.5625 121.8125 C-165.22093687 124.16408762 -165.22093687 124.16408762 -164 127 C-164.99 127.495 -164.99 127.495 -166 128 C-165.34 128.99 -164.68 129.98 -164 131 C-164.04125 131.94875 -164.0825 132.8975 -164.125 133.875 C-163.96194123 137.95146934 -162.86048445 139.13951555 -160 142 C-156.79514992 143.16472334 -156.79514992 143.16472334 -153.3125 143.6875 C-151.19781023 144.07091984 -149.08921392 144.49590794 -147 145 C-146.505 145.99 -146.505 145.99 -146 147 C-145.21625 146.79375 -144.4325 146.5875 -143.625 146.375 C-142.325625 146.189375 -142.325625 146.189375 -141 146 C-140.34 146.66 -139.68 147.32 -139 148 C-139 147.01 -139 146.02 -139 145 C-134.25 145.875 -134.25 145.875 -132 147 C-129.98072489 146.39421747 -127.97746603 145.73080266 -126 145 C-126 145.66 -126 146.32 -126 147 C-123.69 146.67 -121.38 146.34 -119 146 C-119 146.66 -119 147.32 -119 148 C-115.95613276 148.08226668 -113.92824652 147.97608217 -111 147 C-110.01 147.33 -109.02 147.66 -108 148 C-108.495 149.485 -108.495 149.485 -109 151 C-108.01 152.485 -108.01 152.485 -107 154 C-107 153.34 -107 152.68 -107 152 C-106.34 152 -105.68 152 -105 152 C-104.01 152.99 -104.01 152.99 -103 154 C-102.67 153.67 -102.34 153.34 -102 153 C-99.5625 152.75 -99.5625 152.75 -97 153 C-96.01 154.485 -96.01 154.485 -95 156 C-94.34 156 -93.68 156 -93 156 C-91.35173889 158.96687001 -90.55728913 161.65626525 -90 165 C-89.34 165 -88.68 165 -88 165 C-88 164.34 -88 163.68 -88 163 C-87.01 163 -86.02 163 -85 163 C-84.67 164.32 -84.34 165.64 -84 167 C-84.99 167.33 -85.98 167.66 -87 168 C-86.67 168.99 -86.34 169.98 -86 171 C-85.34 171 -84.68 171 -84 171 C-84.33 171.66 -84.66 172.32 -85 173 C-85.99 173 -86.98 173 -88 173 C-87.649375 174.11375 -87.29875 175.2275 -86.9375 176.375 C-85.4345847 182.31257384 -86.07532992 188.22598976 -88 194 C-88.99 193.67 -89.98 193.34 -91 193 C-90.67 194.32 -90.34 195.64 -90 197 C-89.01 197 -88.02 197 -87 197 C-87.68732957 199.74931827 -88.35560222 201.53418821 -90.69140625 203.22265625 C-92.43116325 204.20324656 -94.2137611 205.10688055 -96 206 C-96 206.66 -96 207.32 -96 208 C-97.11375 208.0825 -98.2275 208.165 -99.375 208.25 C-101.169375 208.62125 -101.169375 208.62125 -103 209 C-104.27489266 210.79927039 -104.27489266 210.79927039 -105 213 C-107.35633233 215.66037521 -108.59218586 216.86406195 -112 218 C-112 218.99 -112 219.98 -112 221 C-110.68 221 -109.36 221 -108 221 C-107.505 223.475 -107.505 223.475 -107 226 C-106.01 225.67 -105.02 225.34 -104 225 C-103.67 226.32 -103.34 227.64 -103 229 C-101.45859034 229.31376521 -99.91685785 229.62594465 -98.375 229.9375 C-97.46621094 230.12183594 -96.55742188 230.30617187 -95.62109375 230.49609375 C-93.57046056 230.89032874 -91.50541729 231.20976599 -89.4375 231.5 C-88.633125 231.665 -87.82875 231.83 -87 232 C-86.67 232.66 -86.34 233.32 -86 234 C-85.01 234 -84.02 234 -83 234 C-83 233.01 -83 232.02 -83 231 C-80.125 231.25 -80.125 231.25 -77 232 C-75.625 234.0625 -75.625 234.0625 -75 236 C-72.69 235.67 -70.38 235.34 -68 235 C-68 235.66 -68 236.32 -68 237 C-67.278125 236.814375 -66.55625 236.62875 -65.8125 236.4375 C-62.87173027 235.98004693 -60.85896942 236.26483643 -58 237 C-58 236.34 -58 235.68 -58 235 C-57.34 235.66 -56.68 236.32 -56 237 C-53.93125966 237.6425235 -53.93125966 237.6425235 -52 238 C-52 238.66 -52 239.32 -52 240 C-51.34 240 -50.68 240 -50 240 C-50 239.34 -50 238.68 -50 238 C-49.4121875 238.7425 -49.4121875 238.7425 -48.8125 239.5 C-46.41591758 241.48337856 -45.04776772 241.1486716 -42 241 C-41.29875 241.20625 -40.5975 241.4125 -39.875 241.625 C-39.25625 241.74875 -38.6375 241.8725 -38 242 C-37.01 241.34 -36.02 240.68 -35 240 C-35 240.66 -35 241.32 -35 242 C-30.05183286 244.80396138 -25.38317715 243.77350507 -20 243 C-19.67 243.99 -19.34 244.98 -19 246 C-17.68 245.34 -16.36 244.68 -15 244 C-14.67 244.66 -14.34 245.32 -14 246 C-14 245.34 -14 244.68 -14 244 C-12.68 244 -11.36 244 -10 244 C-10 244.66 -10 245.32 -10 246 C-10.66 246.33 -11.32 246.66 -12 247 C-10.35 247 -8.7 247 -7 247 C-7 246.34 -7 245.68 -7 245 C-5.0625 245.375 -5.0625 245.375 -3 246 C-2.67 246.66 -2.34 247.32 -2 248 C-0.88625 247.9690625 -0.88625 247.9690625 0.25 247.9375 C3 248 3 248 4.9375 248.5 C8.84486885 249.44724093 12.55112943 249.06412437 16.5 248.5 C19.72801776 248.03885461 22.74624775 247.92064019 26 248 C26.33 249.32 26.66 250.64 27 252 C27.66 251.67 28.32 251.34 29 251 C28.67 250.01 28.34 249.02 28 248 C28.99 248 29.98 248 31 248 C31.33 248.66 31.66 249.32 32 250 C32 249.34 32 248.68 32 248 C32.61875 248.185625 33.2375 248.37125 33.875 248.5625 C36.04160178 249.23686176 36.04160178 249.23686176 38 248 C38.33 248.66 38.66 249.32 39 250 C41.475 249.01 41.475 249.01 44 248 C44 248.66 44 249.32 44 250 C44.90363281 249.9278125 45.80726563 249.855625 46.73828125 249.78125 C47.91777344 249.6884375 49.09726563 249.595625 50.3125 249.5 C51.48425781 249.4071875 52.65601563 249.314375 53.86328125 249.21875 C55.905194 249.07635011 57.9531279 249 60 249 C60.66 248.67 61.32 248.34 62 248 C62.33 248.66 62.66 249.32 63 250 C64.051875 249.649375 65.10375 249.29875 66.1875 248.9375 C69.88859572 248.02739449 71.43467379 248.10866845 75 249 C75.99 248.67 76.98 248.34 78 248 C79.91445967 248.2640634 81.82881458 248.52895521 83.7421875 248.80078125 C89.19766148 249.2821466 94.19201198 248.65305645 99 246 C98.67 247.32 98.34 248.64 98 250 C98.66 250 99.32 250 100 250 C100.66 249.01 101.32 248.02 102 247 C104.6796875 246.7421875 104.6796875 246.7421875 107.875 246.875 C111.52259627 247.0094323 114.48990291 246.95462892 118 246 C119.32 246 120.64 246 122 246 C129.61324677 245.56495521 129.61324677 245.56495521 137 243.8125 C138.485 243.4103125 138.485 243.4103125 140 243 C140.99 243.66 141.98 244.32 143 245 C146.65670531 244.19351312 146.65670531 244.19351312 150 243 C150 242.34 150 241.68 150 241 C151.98 241.66 153.96 242.32 156 243 C156 242.34 156 241.68 156 241 C156.72445313 241.02320313 157.44890625 241.04640625 158.1953125 241.0703125 C163.58070084 241.17083975 167.9497551 241.09400398 173 239 C176.29318923 238.07379053 179.62313552 237.53722844 183 237 C183.33 237.66 183.66 238.32 184 239 C184 238.01 184 237.02 184 236 C185.32 236.33 186.64 236.66 188 237 C188.33 236.01 188.66 235.02 189 234 C190.98567708 234.26041667 192.97135417 234.52083333 194.95703125 234.78125 C198.67420745 235.17926504 199.7671917 235.15520553 203 233 C205.26171875 232.5859375 205.26171875 232.5859375 207.6875 232.375 C208.89986328 232.26285156 208.89986328 232.26285156 210.13671875 232.1484375 C210.75160156 232.09945312 211.36648438 232.05046875 212 232 C212 231.34 212 230.68 212 230 C212.845625 230.04125 213.69125 230.0825 214.5625 230.125 C218.05503793 230.13544997 218.05503793 230.13544997 221.5 229 C224.87292668 228.03630666 227.51944548 227.83021685 231 228 C231 227.34 231 226.68 231 226 C232.70840281 227.63412443 233.93453047 228.86906094 235 231 C235.66 231 236.32 231 237 231 C237.33 229.35 237.66 227.7 238 226 C240.78783135 225.25657831 243.12277417 225 246 225 C246.66 224.01 247.32 223.02 248 222 C250.62356462 221.01484622 253.24524123 220.57761071 256 220 C256 219.34 256 218.68 256 218 C258.31 218.33 260.62 218.66 263 219 C263.33 218.34 263.66 217.68 264 217 C264.99 217 265.98 217 267 217 C268.7563305 216.22555505 270.48412956 215.38486776 272.1875 214.5 C273.08855469 214.0359375 273.98960937 213.571875 274.91796875 213.09375 C275.60503906 212.7328125 276.29210937 212.371875 277 212 C277 212.66 277 213.32 277 214 C277.66 214 278.32 214 279 214 C279 213.01 279 212.02 279 211 C280.11375 211.04125 281.2275 211.0825 282.375 211.125 C286.04366025 211.41121859 286.04366025 211.41121859 288 209 C289.66014616 208.63557767 291.32706064 208.30027117 293 208 C293.33 207.67 293.66 207.34 294 207 C296.0625 207.4375 296.0625 207.4375 298 208 C297.67 206.68 297.34 205.36 297 204 C299.60416667 203.47916667 302.20833333 202.95833333 304.8125 202.4375 C305.8953125 202.2209375 305.8953125 202.2209375 307 202 C307.33 202.99 307.66 203.98 308 205 C308.66 204.01 309.32 203.02 310 202 C309.34 202 308.68 202 308 202 C308.66 201.01 309.32 200.02 310 199 C310.66 199.66 311.32 200.32 312 201 C312.33 200.01 312.66 199.02 313 198 C313.66 198 314.32 198 315 198 C315 197.34 315 196.68 315 196 C315.99 196.33 316.98 196.66 318 197 C320.08894035 196.47339282 320.08894035 196.47339282 322.1875 195.5625 C322.90292969 195.27503906 323.61835937 194.98757812 324.35546875 194.69140625 C324.89816406 194.46324219 325.44085937 194.23507813 326 194 C326 193.34 326 192.68 326 192 C327.32 191.67 328.64 191.34 330 191 C330 190.34 330 189.68 330 189 C330.99 189.33 331.98 189.66 333 190 C335.71356188 188.77195874 335.71356188 188.77195874 338 187 C338 186.34 338 185.68 338 185 C339.32 185.33 340.64 185.66 342 186 C342.33 184.68 342.66 183.36 343 182 C343.7425 182.2475 344.485 182.495 345.25 182.75 C348.10166201 183.33410573 348.10166201 183.33410573 350.125 181.25 C350.74375 180.5075 351.3625 179.765 352 179 C353.6309923 177.23309167 354.73708348 176.11873649 356.9375 175.125 C359.23336457 174.06259165 359.23336457 174.06259165 360.875 171.4375 C363 169 363 169 366.25 168.1875 C367.1575 168.125625 368.065 168.06375 369 168 C369 166.68 369 165.36 369 164 C369.804375 163.87625 370.60875 163.7525 371.4375 163.625 C372.283125 163.41875 373.12875 163.2125 374 163 C374.33 162.34 374.66 161.68 375 161 C376.64142963 159.9590934 378.30712215 158.95495674 380 158 C379.34 157.67 378.68 157.34 378 157 C378 156.34 378 155.68 378 155 C378.66 154.67 379.32 154.34 380 154 C378.68 153.34 377.36 152.68 376 152 C376 151.34 376 150.68 376 150 C375.01 150 374.02 150 373 150 C372.67 149.34 372.34 148.68 372 148 C372 149.32 372 150.64 372 152 C371.01 151.01 370.02 150.02 369 149 C369.66 149 370.32 149 371 149 C371 148.01 371 147.02 371 146 C370.34 146 369.68 146 369 146 C369.33 144.68 369.66 143.36 370 142 C369.443125 142.268125 368.88625 142.53625 368.3125 142.8125 C366 143 366 143 363.25 140.75 C361 138 361 138 361 135 C358.525 134.01 358.525 134.01 356 133 C356 133.66 356 134.32 356 135 C355.236875 134.175 354.47375 133.35 353.6875 132.5 C351.24565858 129.65944803 351.24565858 129.65944803 348 130 C346.33333333 130 344.66666667 130 343 130 C343 129.34 343 128.68 343 128 C342.34 128 341.68 128 341 128 C341 127.34 341 126.68 341 126 C342.485 125.505 342.485 125.505 344 125 C343.01 124.67 342.02 124.34 341 124 C341 123.34 341 122.68 341 122 C340.34 122 339.68 122 339 122 C338.67 122.66 338.34 123.32 338 124 C333 118.125 333 118.125 333 117 C329.53058454 117.45822468 326.32604951 117.89131683 323 119 C323 118.34 323 117.68 323 117 C324.32 117 325.64 117 327 117 C327 116.34 327 115.68 327 115 C328.485 114.505 328.485 114.505 330 114 C328.02 114.33 326.04 114.66 324 115 C324 114.34 324 113.68 324 113 C322.68 113.33 321.36 113.66 320 114 C320 112.68 320 111.36 320 110 C316.535 110.495 316.535 110.495 313 111 C312.88978516 110.05447266 312.88978516 110.05447266 312.77734375 109.08984375 C312.39255859 108.05537109 312.39255859 108.05537109 312 107 C309.97465553 106.04386771 309.97465553 106.04386771 307.5625 105.5625 C303.18052789 104.31050797 303.18052789 104.31050797 301.4375 101.3125 C301.293125 100.549375 301.14875 99.78625 301 99 C299.68 99 298.36 99 297 99 C297 98.01 297 97.02 297 96 C296.360625 95.896875 295.72125 95.79375 295.0625 95.6875 C294.0415625 95.3471875 294.0415625 95.3471875 293 95 C292.67 94.01 292.34 93.02 292 92 C291.443125 92.2475 290.88625 92.495 290.3125 92.75 C288 93 288 93 285.25 91.0625 C284.5075 90.381875 283.765 89.70125 283 89 C282.01 89.66 281.02 90.32 280 91 C279.67 89.35 279.34 87.7 279 86 C277.68 86.66 276.36 87.32 275 88 C274.87625 87.401875 274.7525 86.80375 274.625 86.1875 C274.04524015 83.73768652 274.04524015 83.73768652 272 81 C269.03 81.99 266.06 82.98 263 84 C263.33 83.01 263.66 82.02 264 81 C264.66 81.33 265.32 81.66 266 82 C266 80.02 266 78.04 266 76 C264.515 76.495 264.515 76.495 263 77 C263 77.66 263 78.32 263 79 C262.01 79 261.02 79 260 79 C260.33 77.68 260.66 76.36 261 75 C259.515 75.495 259.515 75.495 258 76 C258 76.66 258 77.32 258 78 C257.01 77.34 256.02 76.68 255 76 C255.66 75.34 256.32 74.68 257 74 C256.6814823 71.89179203 256.6814823 71.89179203 256 70 C255.34 70.33 254.68 70.66 254 71 C254 71.99 254 72.98 254 74 C252.68 74 251.36 74 250 74 C249.67 73.01 249.34 72.02 249 71 C250.485 70.505 250.485 70.505 252 70 C250.68 70 249.36 70 248 70 C248 70.66 248 71.32 248 72 C246.02 71.67 244.04 71.34 242 71 C242.33 70.01 242.66 69.02 243 68 C239.535 66.515 239.535 66.515 236 65 C237.485 63.515 237.485 63.515 239 62 C234.66072031 60.16304566 234.66072031 60.16304566 230.125 60.875 C229.42375 61.24625 228.7225 61.6175 228 62 C227.67 61.01 227.34 60.02 227 59 C225.37347684 57.29413425 223.70993434 55.6222454 222 54 C222 54.99 222 55.98 222 57 C220.02 57.495 220.02 57.495 218 58 C217.67 57.34 217.34 56.68 217 56 C217 56.66 217 57.32 217 58 C216.278125 57.195625 215.55625 56.39125 214.8125 55.5625 C211.97484311 52.97707928 210.72833853 52.31957187 207 52 C207 51.34 207 50.68 207 50 C205.35 50.33 203.7 50.66 202 51 C200.02 46.545 200.02 46.545 198 42 C197.34 42.66 196.68 43.32 196 44 C194.67607028 45.01241685 193.34400833 46.01439389 192 47 C191.34 46.34 190.68 45.68 190 45 C187.86809626 44.3963783 187.86809626 44.3963783 185.5 44 C181.22222222 43.22222222 181.22222222 43.22222222 179 41 C178.67 42.32 178.34 43.64 178 45 C177.01 44.67 176.02 44.34 175 44 C175.33 42.68 175.66 41.36 176 40 C174.35 39.67 172.7 39.34 171 39 C170.67 39.66 170.34 40.32 170 41 C170.33 41.66 170.66 42.32 171 43 C168.23723823 42.47731534 165.6739124 41.89130413 163 41 C162.34 41.33 161.68 41.66 161 42 C161.33 40.35 161.66 38.7 162 37 C161.01 37 160.02 37 159 37 C159.33 38.32 159.66 39.64 160 41 C158 40 158 40 157 37 C154.00667261 37.9977758 153.05233685 38.7522025 151 41 C151 40.34 151 39.68 151 39 C150.01 39 149.02 39 148 39 C148.66 37.35 149.32 35.7 150 34 C147.69 34.66 145.38 35.32 143 36 C142.5978125 34.7934375 142.5978125 34.7934375 142.1875 33.5625 C141.795625 32.716875 141.40375 31.87125 141 31 C140.01 30.67 139.02 30.34 138 30 C138 30.99 138 31.98 138 33 C138.66 33 139.32 33 140 33 C138.515 34.485 138.515 34.485 137 36 C136.01 35.67 135.02 35.34 134 35 C134 34.01 134 33.02 134 32 C132.35 32.33 130.7 32.66 129 33 C129 33.66 129 34.32 129 35 C127.02 34.505 127.02 34.505 125 34 C125.66 33.34 126.32 32.68 127 32 C126.34 32 125.68 32 125 32 C124.67 31.34 124.34 30.68 124 30 C122.68 31.65 121.36 33.3 120 35 C120.33 35.66 120.66 36.32 121 37 C119 35 119 35 118 33 C115.2303041 32.27113266 112.87137415 32 110 32 C109.67 32.99 109.34 33.98 109 35 C108.236875 34.62875 107.47375 34.2575 106.6875 33.875 C105.800625 33.58625 104.91375 33.2975 104 33 C102.515 33.99 102.515 33.99 101 35 C101 34.34 101 33.68 101 33 C100.34 33 99.68 33 99 33 C98.67 32.34 98.34 31.68 98 31 C98 31.99 98 32.98 98 34 C97.01 33.67 96.02 33.34 95 33 C94.67 32.34 94.34 31.68 94 31 C91.66834966 30.66501699 91.66834966 30.66501699 89 31 C86.7914234 32.87508162 86.7914234 32.87508162 85 35 C84.34 35.33 83.68 35.66 83 36 C83 35.34 83 34.68 83 34 C81.948125 33.855625 80.89625 33.71125 79.8125 33.5625 C76 33 76 33 73.375 32.375 C70.66049955 31.94639467 68.64461921 32.31995506 66 33 C66 33.99 66 34.98 66 36 C65.34 36 64.68 36 64 36 C64 34.68 64 33.36 64 32 C62.948125 32.20625 61.89625 32.4125 60.8125 32.625 C56.89937328 33.00989771 55.49352804 32.45563668 52 31 C51.01 31.66 50.02 32.32 49 33 C48.01 32.01 48.01 32.01 47 31 C45.68 31.66 44.36 32.32 43 33 C42.67 32.34 42.34 31.68 42 31 C39.58354218 30.83312552 39.58354218 30.83312552 37 31 C36.34 31.66 35.68 32.32 35 33 C32.8359375 33.4140625 32.8359375 33.4140625 30.375 33.625 C29.55773437 33.69976562 28.74046875 33.77453125 27.8984375 33.8515625 C27.27195313 33.90054688 26.64546875 33.94953125 26 34 C25.67 33.34 25.34 32.68 25 32 C24.01 32.66 23.02 33.32 22 34 C21.01 33.34 20.02 32.68 19 32 C18.34 32 17.68 32 17 32 C16.01 31.01 16.01 31.01 15 30 C13.02463255 30.34786708 13.02463255 30.34786708 11 31 C7.58900832 31 4.36911686 30.50854594 1 30 Z M22 30 C22 30.66 22 31.32 22 32 C22.66 32 23.32 32 24 32 C24 31.34 24 30.68 24 30 C23.34 30 22.68 30 22 30 Z M82 30 C82.66 31.32 83.32 32.64 84 34 C84 33.01 84 32.02 84 31 C83.34 30.67 82.68 30.34 82 30 Z M77 31 C77.33 31.66 77.66 32.32 78 33 C78.33 32.34 78.66 31.68 79 31 C78.34 31 77.68 31 77 31 Z M102 31 C102 31.66 102 32.32 102 33 C102.66 33 103.32 33 104 33 C104 32.34 104 31.68 104 31 C103.34 31 102.68 31 102 31 Z M-31 32 C-31 32.66 -31 33.32 -31 34 C-30.34 34 -29.68 34 -29 34 C-29 33.34 -29 32.68 -29 32 C-29.66 32 -30.32 32 -31 32 Z M136 33 C135.67 33.66 135.34 34.32 135 35 C135.99 34.67 136.98 34.34 138 34 C137.34 33.67 136.68 33.34 136 33 Z M-68 38 C-68 38.99 -68 39.98 -68 41 C-67.01 40.01 -66.02 39.02 -65 38 C-65.99 38 -66.98 38 -68 38 Z M-98 46 C-97 48 -97 48 -97 48 Z M219 53 C220 55 220 55 220 55 Z M230 57 C231 60 231 60 231 60 Z M557 59 C558 61 558 61 558 61 Z M239 60 C239 60.66 239 61.32 239 62 C239.66 61.67 240.32 61.34 241 61 C240.34 60.67 239.68 60.34 239 60 Z M529 66 C530 68 530 68 530 68 Z M247 68 C248 70 248 70 248 70 Z M-183 69 C-183.33 70.32 -183.66 71.64 -184 73 C-183.34 73 -182.68 73 -182 73 C-181.67 71.68 -181.34 70.36 -181 69 C-181.66 69 -182.32 69 -183 69 Z M520 72 C521 75 521 75 521 75 Z M507 75 C508 79 508 79 508 79 Z M514 76 C515 78 515 78 515 78 Z M562 84 C561.67 84.66 561.34 85.32 561 86 C558.9375 86.625 558.9375 86.625 557 87 C557.495 87.99 557.495 87.99 558 89 C556.35 88.67 554.7 88.34 553 88 C553 88.66 553 89.32 553 90 C551.68 89.67 550.36 89.34 549 89 C548.67 89.66 548.34 90.32 548 91 C546.125 91.8125 546.125 91.8125 544 92 C542.25 90.5625 542.25 90.5625 541 89 C540.9071875 89.8971875 540.9071875 89.8971875 540.8125 90.8125 C539.66164586 93.91095345 537.89365887 94.55317057 535 96 C534.01 96.33 533.02 96.66 532 97 C531.505 96.01 531.505 96.01 531 95 C531 95.66 531 96.32 531 97 C528.69 97.66 526.38 98.32 524 99 C524.495 100.98 524.495 100.98 525 103 C523.68 103.33 522.36 103.66 521 104 C520.505 102.515 520.505 102.515 520 101 C519.01 101 518.02 101 517 101 C516.01 102.485 516.01 102.485 515 104 C513.515 103.505 513.515 103.505 512 103 C512 104.65 512 106.3 512 108 C510.35 107.34 508.7 106.68 507 106 C507 106.66 507 107.32 507 108 C506.05125 108.103125 505.1025 108.20625 504.125 108.3125 C500.70892499 108.68539295 500.70892499 108.68539295 499 112 C497.68 112 496.36 112 495 112 C494.505 113.485 494.505 113.485 494 115 C492.02 114.67 490.04 114.34 488 114 C488 115.32 488 116.64 488 118 C487.443125 117.773125 486.88625 117.54625 486.3125 117.3125 C483.03950399 116.87020324 481.58016648 118.06487514 479 120 C479 120.66 479 121.32 479 122 C478.236875 122.103125 477.47375 122.20625 476.6875 122.3125 C473.78105605 123.05600892 472.96433971 123.84858032 471 126 C470.34 126 469.68 126 469 126 C469 126.66 469 127.32 469 128 C467.68 127.67 466.36 127.34 465 127 C464.79375 127.78375 464.5875 128.5675 464.375 129.375 C463 132 463 132 459.875 133.3125 C458.451875 133.6528125 458.451875 133.6528125 457 134 C457 134.66 457 135.32 457 136 C456.34 136 455.68 136 455 136 C455.33 137.32 455.66 138.64 456 140 C454.68 139.67 453.36 139.34 452 139 C451.938125 139.61875 451.87625 140.2375 451.8125 140.875 C451.544375 141.57625 451.27625 142.2775 451 143 C449.33927151 143.68132451 447.672233 144.34742127 446 145 C444.65589738 147.01735205 444.65589738 147.01735205 444 149 C443.34 148.67 442.68 148.34 442 148 C441.01 148.495 441.01 148.495 440 149 C440 149.66 440 150.32 440 151 C439.34 151 438.68 151 438 151 C437.01 154.465 437.01 154.465 436 158 C437.32 158 438.64 158 440 158 C441.02019573 158.9793879 442.02149805 159.97895449 443 161 C443.99 161 444.98 161 446 161 C446.33 161.99 446.66 162.98 447 164 C448.485 163.505 448.485 163.505 450 163 C450.33 163.99 450.66 164.98 451 166 C452.32 166 453.64 166 455 166 C455.33 166.99 455.66 167.98 456 169 C456.57878906 168.77570313 457.15757812 168.55140625 457.75390625 168.3203125 C460 168 460 168 461.96484375 169.1796875 C462.61582031 169.73914063 463.26679687 170.29859375 463.9375 170.875 C466.93418354 173.29475194 469.03565437 174.7522284 473 175 C473.33 175.99 473.66 176.98 474 178 C475.32303717 178.3721042 476.65737935 178.70630173 478 179 C478.33 179.66 478.66 180.32 479 181 C481.90259811 182.3749149 483.76138705 183 487 183 C489.469364 184.9754912 490.71700242 187.13792848 492 190 C494.97 189.01 494.97 189.01 498 188 C497.505 189.485 497.505 189.485 497 191 C498.32 191 499.64 191 501 191 C500.34 191.99 499.68 192.98 499 194 C499.63808594 194.10957031 500.27617188 194.21914062 500.93359375 194.33203125 C501.75988281 194.49058594 502.58617187 194.64914063 503.4375 194.8125 C504.26121094 194.96332031 505.08492187 195.11414063 505.93359375 195.26953125 C506.61550781 195.51058594 507.29742188 195.75164062 508 196 C508.33 196.99 508.66 197.98 509 199 C510.32 199 511.64 199 513 199 C513.33 199.99 513.66 200.98 514 202 C515.32 201.67 516.64 201.34 518 201 C518.4125 201.639375 518.825 202.27875 519.25 202.9375 C521.23988774 205.28272484 522.12843008 205.32996702 525 206 C525.33 206.99 525.66 207.98 526 209 C527.98 209.33 529.96 209.66 532 210 C532.33 210.99 532.66 211.98 533 213 C535.34754398 214.33903214 535.34754398 214.33903214 538 215 C538.99 214.67 539.98 214.34 541 214 C541 214.99 541 215.98 541 217 C545.95 216.01 545.95 216.01 551 215 C551.33 214.01 551.66 213.02 552 212 C552.66 211.34 553.32 210.68 554 210 C553.0409375 209.814375 553.0409375 209.814375 552.0625 209.625 C551.381875 209.41875 550.70125 209.2125 550 209 C549.67 208.34 549.34 207.68 549 207 C549.99 206.67 550.98 206.34 552 206 C551.34 205.67 550.68 205.34 550 205 C550.2165625 203.95392578 550.2165625 203.95392578 550.4375 202.88671875 C551.22945674 198.82244076 551.85451793 194.73426528 552.5 190.64453125 C553 188 553 188 554 186 C553.34 186 552.68 186 552 186 C552.185625 185.401875 552.37125 184.80375 552.5625 184.1875 C553.22093687 181.83591238 553.22093687 181.83591238 552 179 C552.66 178.67 553.32 178.34 554 178 C553.15811388 176.05270463 553.15811388 176.05270463 552 175 C552.33 174.4225 552.66 173.845 553 173.25 C554.27075898 170.80116138 554.27075898 170.80116138 554 167 C554.33 166.34 554.66 165.68 555 165 C554.34 165 553.68 165 553 165 C553.4640625 163.7625 553.4640625 163.7625 553.9375 162.5 C555.53889638 157.22481194 556.30691564 152.78011072 555.375 147.375 C554.91563417 143.24070756 556.08082591 141.60804729 558 138 C558.16681109 134.91652174 558.16681109 134.91652174 558 132 C558.5 129.625 558.5 129.625 559 128 C559.99 128 560.98 128 562 128 C561.690625 126.205625 561.690625 126.205625 561.375 124.375 C560.77123745 119.64552669 561.88150461 116.23699077 564 112 C564.2532288 110.15142975 564.45542004 108.2956118 564.625 106.4375 C564.72039062 105.44621094 564.81578125 104.45492187 564.9140625 103.43359375 C564.94242188 102.63050781 564.97078125 101.82742187 565 101 C564.67 100.67 564.34 100.34 564 100 C564.99 99.01 565.98 98.02 567 97 C566.34 97 565.68 97 565 97 C565.99 94.36 566.98 91.72 568 89 C567.01 89 566.02 89 565 89 C565.33 88.01 565.66 87.02 566 86 C565.67 85.34 565.34 84.68 565 84 C564.01 84 563.02 84 562 84 Z M477 90 C476.67 90.66 476.34 91.32 476 92 C476.99 92.33 477.98 92.66 479 93 C478.67 92.01 478.34 91.02 478 90 C477.67 90 477.34 90 477 90 Z M568 91 C567.67 91.66 567.34 92.32 567 93 C567.66 93 568.32 93 569 93 C568.67 92.34 568.34 91.68 568 91 Z M308 101 C309 103 309 103 309 103 Z M309 104 C310 106 310 106 310 106 Z M587 106 C588 108 588 108 588 108 Z M446 110 C446 110.66 446 111.32 446 112 C446.66 112 447.32 112 448 112 C448 111.34 448 110.68 448 110 C447.34 110 446.68 110 446 110 Z M444 111 C445 113 445 113 445 113 Z M563 118 C564 120 564 120 564 120 Z M346 126 C346 126.99 346 127.98 346 129 C346.99 128.67 347.98 128.34 349 128 C348.01 127.34 347.02 126.68 346 126 Z M428 126 C427.01 126.495 427.01 126.495 426 127 C426.33 127.66 426.66 128.32 427 129 C427.66 128.67 428.32 128.34 429 128 C428.67 127.34 428.34 126.68 428 126 Z M-135 147 C-134 150 -134 150 -134 150 Z M433 154 C433.33 154.66 433.66 155.32 434 156 C434.33 155.34 434.66 154.68 435 154 C434.34 154 433.68 154 433 154 Z M-95 160 C-94.01 161.485 -94.01 161.485 -93 163 C-93 162.01 -93 161.02 -93 160 C-93.66 160 -94.32 160 -95 160 Z M-180 169 C-180 169.66 -180 170.32 -180 171 C-179.34 170.67 -178.68 170.34 -178 170 C-178.66 169.67 -179.32 169.34 -180 169 Z M369 169 C369 169.66 369 170.32 369 171 C369.66 170.67 370.32 170.34 371 170 C370.34 169.67 369.68 169.34 369 169 Z M-135 170 C-135 170.66 -135 171.32 -135 172 C-134.34 172 -133.68 172 -133 172 C-133 171.34 -133 170.68 -133 170 C-133.66 170 -134.32 170 -135 170 Z M-178 171 C-177 173 -177 173 -177 173 Z M-137 172 C-136.67 172.66 -136.34 173.32 -136 174 C-135.67 173.34 -135.34 172.68 -135 172 C-135.66 172 -136.32 172 -137 172 Z M465 172 C464.67 172.66 464.34 173.32 464 174 C464.66 174 465.32 174 466 174 C465.67 173.34 465.34 172.68 465 172 Z M-177 173 C-176.67 173.99 -176.34 174.98 -176 176 C-175.67 175.01 -175.34 174.02 -175 173 C-175.66 173 -176.32 173 -177 173 Z M417 174 C418 176 418 176 418 176 Z M358 175 C358.33 175.99 358.66 176.98 359 178 C359.33 177.01 359.66 176.02 360 175 C359.34 175 358.68 175 358 175 Z M422 180 C423 182 423 182 423 182 Z M553 180 C553 180.66 553 181.32 553 182 C553.66 182 554.32 182 555 182 C555 181.34 555 180.68 555 180 C554.34 180 553.68 180 553 180 Z M434 184 C435 186 435 186 435 186 Z M337 189 C337.33 189.66 337.66 190.32 338 191 C338.66 190.34 339.32 189.68 340 189 C339.01 189 338.02 189 337 189 Z M553 197 C554 199 554 199 554 199 Z M324 198 C325 200 325 200 325 200 Z M-92 199 C-92 200.32 -92 201.64 -92 203 C-91.01 201.68 -90.02 200.36 -89 199 C-89.99 199 -90.98 199 -92 199 Z M320 200 C320.33 200.66 320.66 201.32 321 202 C321.33 201.34 321.66 200.68 322 200 C321.34 200 320.68 200 320 200 Z M360 203 C361 205 361 205 361 205 Z M300 205 C300 206.32 300 207.64 300 209 C300.66 209 301.32 209 302 209 C302.33 208.01 302.66 207.02 303 206 C302.01 205.67 301.02 205.34 300 205 Z M471 206 C471.66 207.32 472.32 208.64 473 210 C473 209.01 473 208.02 473 207 C472.34 206.67 471.68 206.34 471 206 Z M351 208 C352 210 352 210 352 210 Z M478 211 C478.33 211.66 478.66 212.32 479 213 C479.99 213.33 480.98 213.66 482 214 C482 213.01 482 212.02 482 211 C480.68 211 479.36 211 478 211 Z M290 212 C291 214 291 214 291 214 Z M281 214 C281 214.66 281 215.32 281 216 C281.66 215.67 282.32 215.34 283 215 C282.34 214.67 281.68 214.34 281 214 Z M274 216 C274.33 216.66 274.66 217.32 275 218 C275.33 217.34 275.66 216.68 276 216 C275.34 216 274.68 216 274 216 Z M551 216 C550.67 216.66 550.34 217.32 550 218 C550.66 218 551.32 218 552 218 C551.67 217.34 551.34 216.68 551 216 Z M272 220 C273 222 273 222 273 222 Z M515 230 C516 232 516 232 516 232 Z M220 232 C219.67 232.99 219.34 233.98 219 235 C219.66 235 220.32 235 221 235 C220.67 234.01 220.34 233.02 220 232 Z M286 233 C287 235 287 235 287 235 Z M517 233 C517 233.66 517 234.32 517 235 C517.66 235 518.32 235 519 235 C519 234.34 519 233.68 519 233 C518.34 233 517.68 233 517 233 Z M281 238 C281 238.66 281 239.32 281 240 C281.66 240 282.32 240 283 240 C283 239.34 283 238.68 283 238 C282.34 238 281.68 238 281 238 Z M-131 240 C-131 240.66 -131 241.32 -131 242 C-130.34 242 -129.68 242 -129 242 C-129 241.34 -129 240.68 -129 240 C-129.66 240 -130.32 240 -131 240 Z M157 245 C157.66 245.66 158.32 246.32 159 247 C159 246.34 159 245.68 159 245 C158.34 245 157.68 245 157 245 Z M138 246 C137.67 246.66 137.34 247.32 137 248 C137.66 248 138.32 248 139 248 C138.67 247.34 138.34 246.68 138 246 Z M263 246 C263.33 246.66 263.66 247.32 264 248 C264.33 247.34 264.66 246.68 265 246 C264.34 246 263.68 246 263 246 Z M144 247 C145 249 145 249 145 249 Z M117 248 C118 250 118 250 118 250 Z M122 248 C123 250 123 250 123 250 Z M22 249 C23 251 23 251 23 251 Z M543 249 C543 249.66 543 250.32 543 251 C543.66 250.67 544.32 250.34 545 250 C544.34 249.67 543.68 249.34 543 249 Z M32 250 C31.67 250.66 31.34 251.32 31 252 C31.66 252 32.32 252 33 252 C32.67 251.34 32.34 250.68 32 250 Z M-117 252 C-116 254 -116 254 -116 254 Z M-107 252 C-106 254 -106 254 -106 254 Z M-105 254 C-104 256 -104 256 -104 256 Z M228 254 C228 254.99 228 255.98 228 257 C228.66 256.34 229.32 255.68 230 255 C229.34 254.67 228.68 254.34 228 254 Z M-68 257 C-66.515 257.99 -66.515 257.99 -65 259 C-65 258.34 -65 257.68 -65 257 C-65.99 257 -66.98 257 -68 257 Z M213 260 C213.33 260.66 213.66 261.32 214 262 C214.33 261.34 214.66 260.68 215 260 C214.34 260 213.68 260 213 260 Z M-79 261 C-78.67 261.99 -78.34 262.98 -78 264 C-78 263.01 -78 262.02 -78 261 C-78.33 261 -78.66 261 -79 261 Z M201 262 C201 263.32 201 264.64 201 266 C201.33 264.68 201.66 263.36 202 262 C201.67 262 201.34 262 201 262 Z M205 262 C205.33 262.66 205.66 263.32 206 264 C206.33 263.34 206.66 262.68 207 262 C206.34 262 205.68 262 205 262 Z M181 264 C181.66 264.66 182.32 265.32 183 266 C183 265.34 183 264.68 183 264 C182.34 264 181.68 264 181 264 Z M193 264 C194 266 194 266 194 266 Z M-17 269 C-17 270.32 -17 271.64 -17 273 C-16.34 273 -15.68 273 -15 273 C-15.33 271.68 -15.66 270.36 -16 269 C-16.33 269 -16.66 269 -17 269 Z M136 270 C136 271.32 136 272.64 136 274 C135.01 274.495 135.01 274.495 134 275 C134.99 275 135.98 275 137 275 C137 273.35 137 271.7 137 270 C136.67 270 136.34 270 136 270 Z M99 272 C99.66 272.66 100.32 273.32 101 274 C101 273.34 101 272.68 101 272 C100.34 272 99.68 272 99 272 Z M15 273 C15.66 273.66 16.32 274.32 17 275 C17.33 274.34 17.66 273.68 18 273 C17.01 273 16.02 273 15 273 Z M82 273 C82 273.66 82 274.32 82 275 C82.66 274.67 83.32 274.34 84 274 C83.34 273.67 82.68 273.34 82 273 Z M37 274 C37 274.66 37 275.32 37 276 C37.99 276 38.98 276 40 276 C39.67 275.34 39.34 274.68 39 274 C38.34 274 37.68 274 37 274 Z M98 274 C98.66 274.66 99.32 275.32 100 276 C100 275.34 100 274.68 100 274 C99.34 274 98.68 274 98 274 Z M5 275 C4.67 275.66 4.34 276.32 4 277 C4.99 276.67 5.98 276.34 7 276 C6.34 275.67 5.68 275.34 5 275 Z M102 275 C102.33 275.66 102.66 276.32 103 277 C103.66 277 104.32 277 105 277 C105 276.34 105 275.68 105 275 C104.01 275 103.02 275 102 275 Z " fill="#242424" transform="translate(193,0)"/>
<path d="M0 0 C0.495 1.485 0.495 1.485 1 3 C2.32 2.67 3.64 2.34 5 2 C5.495 2.99 5.495 2.99 6 4 C8.02463255 4.65213292 8.02463255 4.65213292 10 5 C9.34 6.32 8.68 7.64 8 9 C9.32 9 10.64 9 12 9 C12 9.66 12 10.32 12 11 C11.01 11 10.02 11 9 11 C8.67 11.66 8.34 12.32 8 13 C8.99 12.67 9.98 12.34 11 12 C11.495 13.485 11.495 13.485 12 15 C11.34 15 10.68 15 10 15 C10 16.32 10 17.64 10 19 C9.01 19.66 8.02 20.32 7 21 C7 22.32 7 23.64 7 25 C6.34 25 5.68 25 5 25 C5 26.65 5 28.3 5 30 C5.99 30 6.98 30 8 30 C8.99 32.97 8.99 32.97 10 36 C10.99 35.67 11.98 35.34 13 35 C16 38.625 16 38.625 16 42 C15.34 42 14.68 42 14 42 C13.67 43.32 13.34 44.64 13 46 C14.32 46.66 15.64 47.32 17 48 C16.814375 48.556875 16.62875 49.11375 16.4375 49.6875 C15.92448835 52.399133 16.3359276 54.34371039 17 57 C15.68 57 14.36 57 13 57 C12.34 57.99 11.68 58.98 11 60 C10.01 60 9.02 60 8 60 C7.505 60.99 7.505 60.99 7 62 C6.34 62 5.68 62 5 62 C4.34 61.34 3.68 60.68 3 60 C2.505 60.99 2.505 60.99 2 62 C1.34 62 0.68 62 0 62 C-0.495 60.02 -0.495 60.02 -1 58 C-2.65 58.33 -4.3 58.66 -6 59 C-6 58.01 -6 57.02 -6 56 C-7.65 56.33 -9.3 56.66 -11 57 C-11.99 55.02 -11.99 55.02 -13 53 C-13.99 53 -14.98 53 -16 53 C-17.35827971 54.64639965 -18.69254251 56.31295807 -20 58 C-20.66 58 -21.32 58 -22 58 C-22 59.98 -22 61.96 -22 64 C-22.66 64 -23.32 64 -24 64 C-24 64.66 -24 65.32 -24 66 C-24.66 66 -25.32 66 -26 66 C-26 66.99 -26 67.98 -26 69 C-28.25 71.75 -28.25 71.75 -31 74 C-33.3125 73.8125 -33.3125 73.8125 -35 73 C-35.495 74.485 -35.495 74.485 -36 76 C-37.875 76.5625 -37.875 76.5625 -40 77 C-40.99 77.66 -41.98 78.32 -43 79 C-43.99 78.67 -44.98 78.34 -46 78 C-45.67 77.34 -45.34 76.68 -45 76 C-45.99 75.34 -46.98 74.68 -48 74 C-47.67 71.36 -47.34 68.72 -47 66 C-47.66 66 -48.32 66 -49 66 C-50 59.25 -50 59.25 -50 57 C-49.01 57 -48.02 57 -47 57 C-47 56.34 -47 55.68 -47 55 C-47.99 54.505 -47.99 54.505 -49 54 C-48.319375 53.505 -48.319375 53.505 -47.625 53 C-45.15680026 49.9622157 -44.81156856 46.80812939 -44 43 C-43.01 43 -42.02 43 -41 43 C-40.67 43.33 -40.34 43.66 -40 44 C-40.33 42.35 -40.66 40.7 -41 39 C-41.886875 39.020625 -42.77375 39.04125 -43.6875 39.0625 C-51.07692308 38.92307692 -51.07692308 38.92307692 -54 36 C-56.82673737 35.61116804 -56.82673737 35.61116804 -60 35.5 C-65.77777778 35.22222222 -65.77777778 35.22222222 -68 33 C-70.06874034 32.3574765 -70.06874034 32.3574765 -72 32 C-71.67 30.02 -71.34 28.04 -71 26 C-72.65 25.67 -74.3 25.34 -76 25 C-76.33 23.68 -76.66 22.36 -77 21 C-77.33 21.66 -77.66 22.32 -78 23 C-78.66 23 -79.32 23 -80 23 C-81.00099189 19.4965284 -81.70539953 16.41079907 -80 13 C-78.68 13 -77.36 13 -76 13 C-74.65835921 12.7018576 -73.32148827 12.37756808 -72 12 C-71.67 10.68 -71.34 9.36 -71 8 C-70.01 8 -69.02 8 -68 8 C-67.67 8.99 -67.34 9.98 -67 11 C-66.34 9.02 -65.68 7.04 -65 5 C-63.08351538 4.83125293 -61.16680367 4.66508357 -59.25 4.5 C-57.64898437 4.36078125 -57.64898437 4.36078125 -56.015625 4.21875 C-53.6820782 4.04947717 -51.33967818 4 -49 4 C-49 4.66 -49 5.32 -49 6 C-47.88625 5.690625 -47.88625 5.690625 -46.75 5.375 C-43.59244012 4.94442365 -42.52168374 5.08699854 -40 7 C-38.75 9.625 -38.75 9.625 -38 12 C-37.67 10.68 -37.34 9.36 -37 8 C-36.34 8 -35.68 8 -35 8 C-35 8.66 -35 9.32 -35 10 C-33.02 9.67 -31.04 9.34 -29 9 C-28.505 11.97 -28.505 11.97 -28 15 C-25.525 15.495 -25.525 15.495 -23 16 C-21.68 13.36 -20.36 10.72 -19 8 C-18.01 8 -17.02 8 -16 8 C-16 8.66 -16 9.32 -16 10 C-15.67 10 -15.34 10 -15 10 C-15.495 8.02 -15.495 8.02 -16 6 C-15.01 5.67 -14.02 5.34 -13 5 C-12.01 5.495 -12.01 5.495 -11 6 C-10.67 4.68 -10.34 3.36 -10 2 C-10 2.66 -10 3.32 -10 4 C-6.7 2.68 -3.4 1.36 0 0 Z M-55 6 C-55.33 6.99 -55.66 7.98 -56 9 C-55.34 9 -54.68 9 -54 9 C-54.33 8.01 -54.66 7.02 -55 6 Z M-54 9 C-53.34 9.66 -52.68 10.32 -52 11 C-52 10.34 -52 9.68 -52 9 C-52.66 9 -53.32 9 -54 9 Z M-33 13 C-32.01 14.485 -32.01 14.485 -31 16 C-31 15.01 -31 14.02 -31 13 C-31.66 13 -32.32 13 -33 13 Z M-80 16 C-80 16.66 -80 17.32 -80 18 C-79.01 17.67 -78.02 17.34 -77 17 C-77.99 16.67 -78.98 16.34 -80 16 Z M-68 28 C-67 30 -67 30 -67 30 Z M2 29 C3 31 3 31 3 31 Z M-64 30 C-64 30.66 -64 31.32 -64 32 C-63.01 32 -62.02 32 -61 32 C-61.33 31.34 -61.66 30.68 -62 30 C-62.66 30 -63.32 30 -64 30 Z M-42 45 C-42 46.65 -42 48.3 -42 50 C-41.34 48.68 -40.68 47.36 -40 46 C-40.66 45.67 -41.32 45.34 -42 45 Z M-48 61 C-48 61.66 -48 62.32 -48 63 C-47.01 63 -46.02 63 -45 63 C-45 62.34 -45 61.68 -45 61 C-45.99 61 -46.98 61 -48 61 Z " fill="#242424" transform="translate(180,53)"/>
<path d="M0 0 C0.66 0 1.32 0 2 0 C2 0.66 2 1.32 2 2 C1.34 2 0.68 2 0 2 C-0.33 2.99 -0.66 3.98 -1 5 C-1.33 4.01 -1.66 3.02 -2 2 C-1.34 1.34 -0.68 0.68 0 0 Z " fill="#242424" transform="translate(131,129)"/>
<path d="M0 0 C0.66 0 1.32 0 2 0 C1.67 1.65 1.34 3.3 1 5 C0.34 5 -0.32 5 -1 5 C-0.67 3.35 -0.34 1.7 0 0 Z " fill="#242424" transform="translate(785,105)"/>
<path d="M0 0 C0.99 0 1.98 0 3 0 C2.67 0.99 2.34 1.98 2 3 C1.01 2.67 0.02 2.34 -1 2 C-0.67 1.34 -0.34 0.68 0 0 Z " fill="#242424" transform="translate(117,55)"/>
<path d="M0 0 C0.99 0.33 1.98 0.66 3 1 C3 1.66 3 2.32 3 3 C2.01 2.67 1.02 2.34 0 2 C0 1.34 0 0.68 0 0 Z " fill="#242424" transform="translate(427,225)"/>
<path d="M0 0 C0.99 0 1.98 0 3 0 C2.67 0.99 2.34 1.98 2 3 C1.34 2.67 0.68 2.34 0 2 C0 1.34 0 0.68 0 0 Z " fill="#242424" transform="translate(190,85)"/>
<path d="M0 0 C0.66 0.33 1.32 0.66 2 1 C2 1.66 2 2.32 2 3 C1.01 2.67 0.02 2.34 -1 2 C-0.67 1.34 -0.34 0.68 0 0 Z " fill="#242424" transform="translate(745,259)"/>
<path d="M0 0 C1.32 0 2.64 0 4 0 C4 0.66 4 1.32 4 2 C2.68 1.34 1.36 0.68 0 0 Z " fill="#242424" transform="translate(42,225)"/>
<path d="M0 0 C0.99 0 1.98 0 3 0 C3 0.66 3 1.32 3 2 C2.01 2 1.02 2 0 2 C0 1.34 0 0.68 0 0 Z " fill="#242424" transform="translate(197,105)"/>
<path d="M0 0 C0.66 0.33 1.32 0.66 2 1 C2 1.66 2 2.32 2 3 C1.01 2.67 0.02 2.34 -1 2 C-0.67 1.34 -0.34 0.68 0 0 Z " fill="#242424" transform="translate(129,104)"/>
<path d="M0 0 C0.99 0.33 1.98 0.66 3 1 C2.01 1.33 1.02 1.66 0 2 C0 1.34 0 0.68 0 0 Z " fill="#242424" transform="translate(102,228)"/>
<path d="M0 0 C0 0.99 0 1.98 0 3 C-0.66 2.34 -1.32 1.68 -2 1 C-1.34 0.67 -0.68 0.34 0 0 Z " fill="#242424" transform="translate(532,220)"/>
<path d="M0 0 C0.66 0 1.32 0 2 0 C2 0.66 2 1.32 2 2 C1.01 1.67 0.02 1.34 -1 1 C-0.67 0.67 -0.34 0.34 0 0 Z " fill="#242424" transform="translate(627,189)"/>
<path d="M0 0 C0.66 0.66 1.32 1.32 2 2 C1.01 2 0.02 2 -1 2 C-0.67 1.34 -0.34 0.68 0 0 Z " fill="#242424" transform="translate(106,159)"/>
<path d="M0 0 C0.66 0 1.32 0 2 0 C1.67 0.99 1.34 1.98 1 3 C0.67 2.01 0.34 1.02 0 0 Z " fill="#242424" transform="translate(166,54)"/>
<path d="M0 0 C0.66 0 1.32 0 2 0 C1.67 0.99 1.34 1.98 1 3 C0.67 2.01 0.34 1.02 0 0 Z " fill="#242424" transform="translate(407,20)"/>
<path d="M0 0 C0.66 0 1.32 0 2 0 C2 0.66 2 1.32 2 2 C1.34 2 0.68 2 0 2 C0 1.34 0 0.68 0 0 Z " fill="#242424" transform="translate(51,233)"/>
<path d="M0 0 C0.66 0 1.32 0 2 0 C2 0.66 2 1.32 2 2 C1.34 2 0.68 2 0 2 C0 1.34 0 0.68 0 0 Z " fill="#242424" transform="translate(682,221)"/>
<path d="M0 0 C0 3 0 3 0 3 Z " fill="#242424" transform="translate(109,174)"/>
<path d="M0 0 C0.66 0.33 1.32 0.66 2 1 C1.01 1 0.02 1 -1 1 C-0.67 0.67 -0.34 0.34 0 0 Z " fill="#242424" transform="translate(189,114)"/>
<path d="M0 0 C0.66 0 1.32 0 2 0 C2 0.66 2 1.32 2 2 C1.34 2 0.68 2 0 2 C0 1.34 0 0.68 0 0 Z " fill="#242424" transform="translate(484,97)"/>
<path d="M0 0 C0 3 0 3 0 3 Z " fill="#242424" transform="translate(500,68)"/>
<path d="M0 0 C0.99 0.33 1.98 0.66 3 1 C2.01 1 1.02 1 0 1 C0 0.67 0 0.34 0 0 Z " fill="#242424" transform="translate(185,53)"/>
<path d="M0 0 C0.66 0 1.32 0 2 0 C2 0.66 2 1.32 2 2 C1.34 2 0.68 2 0 2 C0 1.34 0 0.68 0 0 Z " fill="#242424" transform="translate(33,45)"/>
<path d="M0 0 C0.66 0 1.32 0 2 0 C2 0.66 2 1.32 2 2 C1.34 2 0.68 2 0 2 C0 1.34 0 0.68 0 0 Z " fill="#242424" transform="translate(351,42)"/>
<path d="M0 0 C0 3 0 3 0 3 Z " fill="#242424" transform="translate(212,34)"/>
<path d="M0 0 C0.66 0.33 1.32 0.66 2 1 C1.01 1 0.02 1 -1 1 C-0.67 0.67 -0.34 0.34 0 0 Z " fill="#242424" transform="translate(331,2)"/>
<path d="M0 0 C0.99 0.495 0.99 0.495 2 1 C1.01 1.495 1.01 1.495 0 2 C0 1.34 0 0.68 0 0 Z " fill="#242424" transform="translate(259,282)"/>
<path d="M0 0 C0.99 0.495 0.99 0.495 2 1 C1.01 1.495 1.01 1.495 0 2 C0 1.34 0 0.68 0 0 Z " fill="#242424" transform="translate(82,257)"/>
<path d="M0 0 C0.66 0.66 1.32 1.32 2 2 C1.34 2 0.68 2 0 2 C0 1.34 0 0.68 0 0 Z " fill="#242424" transform="translate(193,245)"/>
<path d="M0 0 C0.99 0.495 0.99 0.495 2 1 C1.01 1.495 1.01 1.495 0 2 C0 1.34 0 0.68 0 0 Z " fill="#242424" transform="translate(65,246)"/>
<path d="M0 0 C0.66 0 1.32 0 2 0 C1.67 0.66 1.34 1.32 1 2 C0.67 1.34 0.34 0.68 0 0 Z " fill="#242424" transform="translate(771,216)"/>
<path d="M0 0 C0.99 0.495 0.99 0.495 2 1 C1.01 1.495 1.01 1.495 0 2 C0 1.34 0 0.68 0 0 Z " fill="#242424" transform="translate(110,191)"/>
<path d="M0 0 C0.33 0.66 0.66 1.32 1 2 C0.34 1.67 -0.32 1.34 -1 1 C-0.67 0.67 -0.34 0.34 0 0 Z " fill="#242424" transform="translate(775,181)"/>
<path d="M0 0 C0.66 0 1.32 0 2 0 C1.67 0.66 1.34 1.32 1 2 C0.67 1.34 0.34 0.68 0 0 Z " fill="#242424" transform="translate(596,180)"/>
<path d="" fill="#242424" transform="translate(0,0)"/>
<path d="M0 0 C0.99 0.495 0.99 0.495 2 1 C1.01 1.495 1.01 1.495 0 2 C0 1.34 0 0.68 0 0 Z " fill="#242424" transform="translate(550,140)"/>
<path d="M0 0 C0.33 0.66 0.66 1.32 1 2 C0.34 1.67 -0.32 1.34 -1 1 C-0.67 0.67 -0.34 0.34 0 0 Z " fill="#242424" transform="translate(136,133)"/>
<path d="M0 0 C0.33 0.66 0.66 1.32 1 2 C0.34 1.67 -0.32 1.34 -1 1 C-0.67 0.67 -0.34 0.34 0 0 Z " fill="#242424" transform="translate(659,128)"/>
<path d="M0 0 C0.66 0 1.32 0 2 0 C1.67 0.66 1.34 1.32 1 2 C0.67 1.34 0.34 0.68 0 0 Z " fill="#242424" transform="translate(644,101)"/>
<path d="M0 0 C0.66 0 1.32 0 2 0 C1.67 0.66 1.34 1.32 1 2 C0.67 1.34 0.34 0.68 0 0 Z " fill="#242424" transform="translate(462,83)"/>
<path d="M0 0 C0.66 0.66 1.32 1.32 2 2 C1.34 2 0.68 2 0 2 C0 1.34 0 0.68 0 0 Z " fill="#242424" transform="translate(452,80)"/>
<path d="M0 0 C0.66 0.66 1.32 1.32 2 2 C1.34 2 0.68 2 0 2 C0 1.34 0 0.68 0 0 Z " fill="#242424" transform="translate(193,62)"/>
<path d="M0 0 C0.33 0.66 0.66 1.32 1 2 C0.34 1.67 -0.32 1.34 -1 1 C-0.67 0.67 -0.34 0.34 0 0 Z " fill="#242424" transform="translate(410,58)"/>
<path d="" fill="#242424" transform="translate(0,0)"/>
<path d="M0 0 C0.66 0.66 1.32 1.32 2 2 C1.34 2 0.68 2 0 2 C0 1.34 0 0.68 0 0 Z " fill="#242424" transform="translate(274,1)"/>
<path d="M0 0 C0.66 0.66 1.32 1.32 2 2 C1.34 2 0.68 2 0 2 C0 1.34 0 0.68 0 0 Z " fill="#242424" transform="translate(252,1)"/>
<path d="M0 0 C2 1 2 1 2 1 Z " fill="#242424" transform="translate(208,284)"/>
<path d="" fill="#242424" transform="translate(0,0)"/>
<path d="M0 0 C2 1 2 1 2 1 Z " fill="#242424" transform="translate(441,256)"/>
<path d="" fill="#242424" transform="translate(0,0)"/>
<path d="M0 0 C2 1 2 1 2 1 Z " fill="#242424" transform="translate(53,237)"/>
<path d="M0 0 C2 1 2 1 2 1 Z " fill="#242424" transform="translate(498,236)"/>
<path d="M0 0 C2 1 2 1 2 1 Z " fill="#242424" transform="translate(494,236)"/>
<path d="M0 0 C2 1 2 1 2 1 Z " fill="#242424" transform="translate(687,226)"/>
<path d="M0 0 C2 1 2 1 2 1 Z " fill="#242424" transform="translate(89,214)"/>
<path d="" fill="#242424" transform="translate(0,0)"/>
<path d="" fill="#242424" transform="translate(0,0)"/>
<path d="" fill="#242424" transform="translate(0,0)"/>
<path d="M0 0 C2 1 2 1 2 1 Z " fill="#242424" transform="translate(658,206)"/>
<path d="M0 0 C2 1 2 1 2 1 Z " fill="#242424" transform="translate(488,206)"/>
<path d="M0 0 C2 1 2 1 2 1 Z " fill="#242424" transform="translate(106,199)"/>
<path d="M0 0 C2 1 2 1 2 1 Z " fill="#242424" transform="translate(569,197)"/>
<path d="M0 0 C2 1 2 1 2 1 Z " fill="#242424" transform="translate(615,187)"/>
<path d="" fill="#242424" transform="translate(0,0)"/>
<path d="M0 0 C2 1 2 1 2 1 Z " fill="#242424" transform="translate(14,179)"/>
<path d="M0 0 C2 1 2 1 2 1 Z " fill="#242424" transform="translate(648,162)"/>
<path d="" fill="#242424" transform="translate(0,0)"/>
<path d="M0 0 C2 1 2 1 2 1 Z " fill="#242424" transform="translate(74,145)"/>
<path d="" fill="#242424" transform="translate(0,0)"/>
<path d="M0 0 C2 1 2 1 2 1 Z " fill="#242424" transform="translate(748,136)"/>
<path d="" fill="#242424" transform="translate(0,0)"/>
<path d="M0 0 C2 1 2 1 2 1 Z " fill="#242424" transform="translate(609,127)"/>
<path d="M0 0 C2 1 2 1 2 1 Z " fill="#242424" transform="translate(161,112)"/>
<path d="M0 0 C2 1 2 1 2 1 Z " fill="#242424" transform="translate(467,90)"/>
<path d="M0 0 C2 1 2 1 2 1 Z " fill="#242424" transform="translate(196,89)"/>
<path d="" fill="#242424" transform="translate(0,0)"/>
<path d="" fill="#242424" transform="translate(0,0)"/>
<path d="M0 0 C2 1 2 1 2 1 Z " fill="#242424" transform="translate(193,58)"/>
<path d="M0 0 C2 1 2 1 2 1 Z " fill="#242424" transform="translate(172,52)"/>
<path d="M0 0 C2 1 2 1 2 1 Z " fill="#242424" transform="translate(178,51)"/>
<path d="" fill="#242424" transform="translate(0,0)"/>
<path d="" fill="#242424" transform="translate(0,0)"/>
<path d="" fill="#242424" transform="translate(0,0)"/>
<path d="" fill="#242424" transform="translate(0,0)"/>
<path d="M0 0 C2 1 2 1 2 1 Z " fill="#242424" transform="translate(333,39)"/>
<path d="M0 0 C2 1 2 1 2 1 Z " fill="#242424" transform="translate(441,35)"/>
<path d="" fill="#242424" transform="translate(0,0)"/>
<path d="M0 0 C2 1 2 1 2 1 Z " fill="#242424" transform="translate(202,32)"/>
<path d="M0 0 C2 1 2 1 2 1 Z " fill="#242424" transform="translate(212,2)"/>
<path d="" fill="#242424" transform="translate(0,0)"/>
<path d="" fill="#242424" transform="translate(0,0)"/>
<path d="" fill="#242424" transform="translate(0,0)"/>
<path d="" fill="#242424" transform="translate(0,0)"/>
<path d="" fill="#242424" transform="translate(0,0)"/>
<path d="" fill="#242424" transform="translate(0,0)"/>
<path d="" fill="#242424" transform="translate(0,0)"/>
<path d="" fill="#242424" transform="translate(0,0)"/>
<path d="" fill="#242424" transform="translate(0,0)"/>
<path d="" fill="#242424" transform="translate(0,0)"/>
<path d="" fill="#242424" transform="translate(0,0)"/>
<path d="" fill="#242424" transform="translate(0,0)"/>
<path d="" fill="#242424" transform="translate(0,0)"/>
<path d="" fill="#242424" transform="translate(0,0)"/>
<path d="" fill="#242424" transform="translate(0,0)"/>
<path d="" fill="#242424" transform="translate(0,0)"/>
<path d="" fill="#242424" transform="translate(0,0)"/>
<path d="" fill="#242424" transform="translate(0,0)"/>
<path d="" fill="#242424" transform="translate(0,0)"/>
<path d="" fill="#242424" transform="translate(0,0)"/>
<path d="" fill="#242424" transform="translate(0,0)"/>
<path d="" fill="#242424" transform="translate(0,0)"/>
<path d="" fill="#242424" transform="translate(0,0)"/>
<path d="" fill="#242424" transform="translate(0,0)"/>
<path d="" fill="#242424" transform="translate(0,0)"/>
<path d="" fill="#242424" transform="translate(0,0)"/>
<path d="" fill="#242424" transform="translate(0,0)"/>
<path d="" fill="#242424" transform="translate(0,0)"/>
<path d="" fill="#242424" transform="translate(0,0)"/>
<path d="" fill="#242424" transform="translate(0,0)"/>
<path d="" fill="#242424" transform="translate(0,0)"/>
<path d="" fill="#242424" transform="translate(0,0)"/>
<path d="" fill="#242424" transform="translate(0,0)"/>
<path d="" fill="#242424" transform="translate(0,0)"/>
<path d="" fill="#242424" transform="translate(0,0)"/>
<path d="" fill="#242424" transform="translate(0,0)"/>
<path d="" fill="#242424" transform="translate(0,0)"/>
<path d="" fill="#242424" transform="translate(0,0)"/>
<path d="" fill="#242424" transform="translate(0,0)"/>
<path d="" fill="#242424" transform="translate(0,0)"/>
<path d="" fill="#242424" transform="translate(0,0)"/>
<path d="" fill="#242424" transform="translate(0,0)"/>
<path d="" fill="#242424" transform="translate(0,0)"/>
<path d="" fill="#242424" transform="translate(0,0)"/>
<path d="" fill="#242424" transform="translate(0,0)"/>
<path d="" fill="#242424" transform="translate(0,0)"/>
<path d="" fill="#242424" transform="translate(0,0)"/>
<path d="" fill="#242424" transform="translate(0,0)"/>
<path d="" fill="#242424" transform="translate(0,0)"/>
<path d="" fill="#242424" transform="translate(0,0)"/>
<path d="" fill="#242424" transform="translate(0,0)"/>
<path d="" fill="#242424" transform="translate(0,0)"/>
<path d="" fill="#242424" transform="translate(0,0)"/>
<path d="" fill="#242424" transform="translate(0,0)"/>
<path d="" fill="#242424" transform="translate(0,0)"/>
<path d="" fill="#242424" transform="translate(0,0)"/>
<path d="" fill="#242424" transform="translate(0,0)"/>
<path d="" fill="#242424" transform="translate(0,0)"/>
<path d="" fill="#242424" transform="translate(0,0)"/>
<path d="" fill="#242424" transform="translate(0,0)"/>
<path d="" fill="#242424" transform="translate(0,0)"/>
<path d="" fill="#242424" transform="translate(0,0)"/>
<path d="" fill="#242424" transform="translate(0,0)"/>
<path d="" fill="#242424" transform="translate(0,0)"/>
<path d="" fill="#242424" transform="translate(0,0)"/>
<path d="" fill="#242424" transform="translate(0,0)"/>
<path d="" fill="#242424" transform="translate(0,0)"/>
<path d="" fill="#242424" transform="translate(0,0)"/>
<path d="" fill="#242424" transform="translate(0,0)"/>
<path d="" fill="#242424" transform="translate(0,0)"/>
<path d="" fill="#242424" transform="translate(0,0)"/>
<path d="" fill="#242424" transform="translate(0,0)"/>
<path d="" fill="#242424" transform="translate(0,0)"/>
<path d="" fill="#242424" transform="translate(0,0)"/>
<path d="" fill="#242424" transform="translate(0,0)"/>
<path d="" fill="#242424" transform="translate(0,0)"/>
<path d="" fill="#242424" transform="translate(0,0)"/>
<path d="" fill="#242424" transform="translate(0,0)"/>
<path d="" fill="#242424" transform="translate(0,0)"/>
<path d="" fill="#242424" transform="translate(0,0)"/>
<path d="" fill="#242424" transform="translate(0,0)"/>
<path d="" fill="#242424" transform="translate(0,0)"/>
<path d="" fill="#242424" transform="translate(0,0)"/>
<path d="" fill="#242424" transform="translate(0,0)"/>
<path d="" fill="#242424" transform="translate(0,0)"/>
<path d="" fill="#242424" transform="translate(0,0)"/>
<path d="" fill="#242424" transform="translate(0,0)"/>
<path d="" fill="#242424" transform="translate(0,0)"/>
<path d="" fill="#242424" transform="translate(0,0)"/>
<path d="" fill="#242424" transform="translate(0,0)"/>
<path d="" fill="#242424" transform="translate(0,0)"/>
<path d="" fill="#242424" transform="translate(0,0)"/>
<path d="" fill="#242424" transform="translate(0,0)"/>
<path d="" fill="#242424" transform="translate(0,0)"/>
<path d="" fill="#242424" transform="translate(0,0)"/>
<path d="" fill="#242424" transform="translate(0,0)"/>
<path d="" fill="#242424" transform="translate(0,0)"/>
<path d="" fill="#242424" transform="translate(0,0)"/>
<path d="" fill="#242424" transform="translate(0,0)"/>
<path d="" fill="#242424" transform="translate(0,0)"/>
<path d="" fill="#242424" transform="translate(0,0)"/>
<path d="" fill="#242424" transform="translate(0,0)"/>
<path d="" fill="#242424" transform="translate(0,0)"/>
<path d="" fill="#242424" transform="translate(0,0)"/>
<path d="" fill="#242424" transform="translate(0,0)"/>
<path d="" fill="#242424" transform="translate(0,0)"/>
<path d="" fill="#242424" transform="translate(0,0)"/>
<path d="" fill="#242424" transform="translate(0,0)"/>
<path d="" fill="#242424" transform="translate(0,0)"/>
<path d="" fill="#242424" transform="translate(0,0)"/>
<path d="" fill="#242424" transform="translate(0,0)"/>
<path d="" fill="#242424" transform="translate(0,0)"/>
<path d="" fill="#242424" transform="translate(0,0)"/>
<path d="" fill="#242424" transform="translate(0,0)"/>
<path d="" fill="#242424" transform="translate(0,0)"/>
<path d="" fill="#242424" transform="translate(0,0)"/>
<path d="" fill="#242424" transform="translate(0,0)"/>
</svg>
