<?xml version="1.0" encoding="UTF-8"?>
<svg version="1.1" xmlns="http://www.w3.org/2000/svg" width="358" height="128">
<path d="M0 0 C2.63804589 -0.39397335 2.63804589 -0.39397335 5 -1 C5 -0.34 5 0.32 5 1 C6.175625 0.9071875 6.175625 0.9071875 7.375 0.8125 C8.674375 0.9053125 8.674375 0.9053125 10 1 C10.99 2.485 10.99 2.485 12 4 C12 3.34 12 2.68 12 2 C17.36996587 3.09219645 21.0056508 4.0056508 25 8 C25 8.66 25 9.32 25 10 C25.5775 10.185625 26.155 10.37125 26.75 10.5625 C30.21525414 12.77641237 31.26458248 15.27206606 33 19 C32.6875 21.3125 32.6875 21.3125 32 23 C32.495 23.99 32.495 23.99 33 25 C31.8125 28.0625 31.8125 28.0625 30 31 C27.8125 31.875 27.8125 31.875 26 32 C25.9175 32.598125 25.835 33.19625 25.75 33.8125 C24.78423221 36.62932273 23.51131433 37.47799132 21 39 C20.34 39 19.68 39 19 39 C18.34 40.32 17.68 41.64 17 43 C16.01 43 15.02 43 14 43 C13.6847405 48.98993047 14.31780178 52.63560356 17 58 C17.45375 57.505 17.9075 57.01 18.375 56.5 C20 55 20 55 22 55 C22 54.34 22 53.68 22 53 C23.58074564 52.18247697 25.16471223 51.37118003 26.75 50.5625 C27.63171875 50.11003906 28.5134375 49.65757813 29.421875 49.19140625 C32 48 32 48 34.203125 47.52734375 C36.40347925 47.09046955 36.40347925 47.09046955 38 44 C41.10470262 42.96509913 44.17461929 42.17376436 47.375 41.5 C47.91125 41.335 48.4475 41.17 49 41 C49.495 40.01 49.495 40.01 50 39 C52.32741989 38.62761282 54.66235715 38.30163134 57 38 C59.3347961 37.33847444 61.66836622 36.67258667 64 36 C64.99 36 65.98 36 67 36 C67.99 35.01 67.99 35.01 69 34 C70.485 34.495 70.485 34.495 72 35 C72.66 34.01 73.32 33.02 74 32 C74.66 32 75.32 32 76 32 C75.67 33.32 75.34 34.64 75 36 C75.66 36 76.32 36 77 36 C77.33 35.01 77.66 34.02 78 33 C78.886875 33.020625 79.77375 33.04125 80.6875 33.0625 C83.87371656 33.10313435 83.87371656 33.10313435 86.4375 32.5 C89.64686751 31.87378195 92.73694221 32 96 32 C96.66 31.67 97.32 31.34 98 31 C99.54613014 31.08651631 101.08909387 31.24002636 102.625 31.4375 C103.44226563 31.53933594 104.25953125 31.64117187 105.1015625 31.74609375 C105.72804687 31.82988281 106.35453125 31.91367187 107 32 C107 31.34 107 30.68 107 30 C108.11375 30.33 109.2275 30.66 110.375 31 C113.78390376 31.94038724 114.96957021 32.25760745 118.25 31.4375 C121.40879938 30.93496373 123.88704434 31.34845114 127 32 C127 32.66 127 33.32 127 34 C128.051875 33.814375 129.10375 33.62875 130.1875 33.4375 C133.74509337 33.02925158 135.59931444 33.21560829 139 34 C140.06476563 34.22558594 141.12953125 34.45117188 142.2265625 34.68359375 C143.34804687 34.93238281 144.46953125 35.18117187 145.625 35.4375 C146.75164062 35.68371094 147.87828125 35.92992187 149.0390625 36.18359375 C152 37 152 37 155 39 C155.804375 38.835 156.60875 38.67 157.4375 38.5 C160.43500803 37.91512038 161.47031315 38.4072342 164 40 C164.33 39.34 164.66 38.68 165 38 C165.66 38.33 166.32 38.66 167 39 C167.33 38.01 167.66 37.02 168 36 C168.33 35.34 168.66 34.68 169 34 C169.66 34 170.32 34 171 34 C171.144375 33.360625 171.28875 32.72125 171.4375 32.0625 C172 30 172 30 173 29 C172.071875 27.6078125 172.071875 27.6078125 171.125 26.1875 C166.66711366 19.50067049 164.75095648 13.64881234 165.1875 5.5 C166.48447205 1.50931677 166.48447205 1.50931677 169 0 C172.6875 -0.1875 172.6875 -0.1875 176 0 C176 0.66 176 1.32 176 2 C176.53625 1.7525 177.0725 1.505 177.625 1.25 C181.3439485 0.85853174 183.14816586 2.7681298 186 5 C186.99 6.485 186.99 6.485 188 8 C188.66 8 189.32 8 190 8 C190 8.66 190 9.32 190 10 C191.98 10.99 191.98 10.99 194 12 C194 12.99 194 13.98 194 15 C195.27875 14.71125 196.5575 14.4225 197.875 14.125 C198.69742188 13.94453125 199.51984375 13.7640625 200.3671875 13.578125 C202.08266801 13.20143195 203.79634912 12.81641796 205.5078125 12.421875 C213.57869865 10.65083415 220.14777205 10.15983244 228 13 C229.95009218 13.25574979 231.90066146 13.50977699 233.85546875 13.7265625 C240.24958371 14.54184127 247.80944852 15.58788245 252.40625 20.50390625 C254.72255665 22.67828234 257.26906441 23.2366352 260.2578125 24.15625 C260.83273437 24.4346875 261.40765625 24.713125 262 25 C262.33 25.99 262.66 26.98 263 28 C263.99 28.33 264.98 28.66 266 29 C266.6837045 30.32467746 267.34964186 31.65863633 268 33 C270.81509993 35.2773501 270.81509993 35.2773501 274 35 C274 35.99 274 36.98 274 38 C275.485 37.505 275.485 37.505 277 37 C277.33 37.99 277.66 38.98 278 40 C277.34 40.33 276.68 40.66 276 41 C276.99 41.33 277.98 41.66 279 42 C279.29128045 47.63142202 279.11798003 51.10031709 276 56 C274.70766393 57.37310707 273.37562854 58.71034824 272 60 C271.2575 61.051875 271.2575 61.051875 270.5 62.125 C268.82984804 64.21268995 267.35323058 64.82338471 265 66 C264.67 66.99 264.34 67.98 264 69 C262.22265625 69.66015625 262.22265625 69.66015625 260.0625 70.0625 C256.64897659 70.70261846 256.64897659 70.70261846 254 73 C252.02015519 73.72433347 250.01416562 74.37743972 248 75 C247.11054687 75.32291016 247.11054687 75.32291016 246.203125 75.65234375 C235.07335929 79.64266673 223.45234376 82.29470931 211.63671875 82.82421875 C209.28154138 82.98123057 207.27317207 83.4167519 205 84 C203.3247643 83.71281674 201.65919896 83.36871088 200 83 C197.6641525 82.76884842 195.32824685 82.56374387 192.98828125 82.37890625 C191 82 191 82 189 80 C187.01643517 79.28591666 185.01684563 78.61382258 183 78 C183.33 79.65 183.66 81.3 184 83 C181.525 83.495 181.525 83.495 179 84 C178.67 85.65 178.34 87.3 178 89 C175.525 89.495 175.525 89.495 173 90 C171.84188612 92.94729537 171.84188612 92.94729537 172 96 C171.01 95.67 170.02 95.34 169 95 C169 95.66 169 96.32 169 97 C167.03852126 98.38938077 165.03833424 99.7260411 163 101 C163.33 101.99 163.66 102.98 164 104 C162.68 103.67 161.36 103.34 160 103 C160 103.66 160 104.32 160 105 C159.34 105 158.68 105 158 105 C157.67 105.66 157.34 106.32 157 107 C155.35 106.67 153.7 106.34 152 106 C152 107.32 152 108.64 152 110 C150.7625 110.103125 149.525 110.20625 148.25 110.3125 C144.672448 110.7423119 142.73817407 111.57776909 140 114 C139.34 114 138.68 114 138 114 C138 113.01 138 112.02 138 111 C137.01 111.33 136.02 111.66 135 112 C135.66 112.66 136.32 113.32 137 114 C135 115 135 115 131 115 C131 115.66 131 116.32 131 117 C130.01 117 129.02 117 128 117 C128 116.01 128 115.02 128 114 C127.34 114 126.68 114 126 114 C126 114.99 126 115.98 126 117 C122.37 118.32 118.74 119.64 115 121 C115 120.01 115 119.02 115 118 C114.01 118 113.02 118 112 118 C112 118.99 112 119.98 112 121 C110.35 120.67 108.7 120.34 107 120 C106.67 120.66 106.34 121.32 106 122 C103.67843403 122.40729228 101.3431213 122.74438677 99 123 C99 122.34 99 121.68 99 121 C98.34 121 97.68 121 97 121 C97 120.34 97 119.68 97 119 C99.475 118.505 99.475 118.505 102 118 C98.37 117.67 94.74 117.34 91 117 C91 117.66 91 118.32 91 119 C90.34 119 89.68 119 89 119 C89.33 120.32 89.66 121.64 90 123 C87.525 123.495 87.525 123.495 85 124 C85 123.01 85 122.02 85 121 C84.34 121 83.68 121 83 121 C82.67 120.34 82.34 119.68 82 119 C81.01 119.495 81.01 119.495 80 120 C80 120.66 80 121.32 80 122 C79.01 122 78.02 122 77 122 C76.67 121.34 76.34 120.68 76 120 C74.35 120.33 72.7 120.66 71 121 C70.67 119.68 70.34 118.36 70 117 C70 117.66 70 118.32 70 119 C68.515 119.495 68.515 119.495 67 120 C64.8125 118.5625 64.8125 118.5625 63 117 C62.01 117.66 61.02 118.32 60 119 C59.01 119 58.02 119 57 119 C56.67 118.67 56.34 118.34 56 118 C55.01 118.495 55.01 118.495 54 119 C53.67 117.68 53.34 116.36 53 115 C52.01 115 51.02 115 50 115 C49.67 115.66 49.34 116.32 49 117 C48.67 115.68 48.34 114.36 48 113 C47.525625 113.556875 47.05125 114.11375 46.5625 114.6875 C43.41375222 116.30027325 42.60646268 115.89780688 39.3125 114.875 C36.92578125 114.0546875 36.92578125 114.0546875 35 113 C34.67 112.01 34.34 111.02 34 110 C32.68 110.33 31.36 110.66 30 111 C30 110.34 30 109.68 30 109 C29.4225 108.896875 28.845 108.79375 28.25 108.6875 C25.67950842 107.90207202 24.06342716 106.69495803 22 105 C21.01 105.495 21.01 105.495 20 106 C19.731875 105.38125 19.46375 104.7625 19.1875 104.125 C18.04443152 101.7004767 18.04443152 101.7004767 15 100 C15 99.34 15 98.68 15 98 C13.515 97.505 13.515 97.505 12 97 C12 96.34 12 95.68 12 95 C10.515 94.01 10.515 94.01 9 93 C9.165 92.38125 9.33 91.7625 9.5 91.125 C10.07634644 89.03936614 10.07634644 89.03936614 10 87 C9.01 86.505 9.01 86.505 8 86 C8 85.34 8 84.68 8 84 C8.66 84 9.32 84 10 84 C9.67 83.34 9.34 82.68 9 82 C8.34 82 7.68 82 7 82 C7.02320313 81.40832031 7.04640625 80.81664063 7.0703125 80.20703125 C7.17566044 75.59429647 6.99719276 72.24403462 5 68 C5 67.01 5 66.02 5 65 C4.34 65 3.68 65 3 65 C2.01 60.05 1.02 55.1 0 50 C0.66 49.67 1.32 49.34 2 49 C2 45.7 2 42.4 2 39 C2.99 38.67 3.98 38.34 5 38 C4.67 37.01 4.34 36.02 4 35 C5.98 34.505 5.98 34.505 8 34 C8 33.01 8 32.02 8 31 C8.99 31 9.98 31 11 31 C11.33 30.34 11.66 29.68 12 29 C12.66 29 13.32 29 14 29 C14 28.34 14 27.68 14 27 C14.66 27 15.32 27 16 27 C15.505 23.04 15.505 23.04 15 19 C12.76994998 18.42183888 10.5892255 17.93312973 8.3125 17.5625 C7.549375 17.376875 6.78625 17.19125 6 17 C5.505 16.01 5.505 16.01 5 15 C0.85906302 14.79029441 0.85906302 14.79029441 -3 16 C-4.423125 15.7525 -4.423125 15.7525 -5.875 15.5 C-8.94431538 15.00890954 -10.11431158 15.22579091 -13 16 C-15.95052863 16.32449368 -18.91153984 16.46222513 -21.875 16.625 C-22.66519531 16.6765625 -23.45539062 16.728125 -24.26953125 16.78125 C-28.70684692 17.03227951 -32.6092879 16.8248823 -37 16 C-39.33746522 16.30300475 -41.67085177 16.63858045 -44 17 C-46.67394157 17.08458866 -49.32373363 17.04695204 -52 17 C-53.125 13.25 -53.125 13.25 -52 11 C-52.66 10.34 -53.32 9.68 -54 9 C-53.34 9 -52.68 9 -52 9 C-52 8.01 -52 7.02 -52 6 C-51.34 6 -50.68 6 -50 6 C-49.67 4.68 -49.34 3.36 -49 2 C-46.25048307 1.77787745 -43.50134388 1.57184412 -40.75 1.375 C-39.97269531 1.31054688 -39.19539063 1.24609375 -38.39453125 1.1796875 C-31.27568856 0.69292903 -31.27568856 0.69292903 -28 3 C-28 2.34 -28 1.68 -28 1 C-6.59116022 -2.19705341 -6.59116022 -2.19705341 0 0 Z M101 33 C102 35 102 35 102 35 Z M144 37 C144 37.66 144 38.32 144 39 C144.66 39 145.32 39 146 39 C146 38.34 146 37.68 146 37 C145.34 37 144.68 37 144 37 Z M180 41 C180 41.99 180 42.98 180 44 C180.66 44 181.32 44 182 44 C181.67 43.01 181.34 42.02 181 41 C180.67 41 180.34 41 180 41 Z M178 44 C178 45.65 178 47.3 178 49 C178.66 48.34 179.32 47.68 180 47 C179.34 46.01 178.68 45.02 178 44 Z M15 95 C16 97 16 97 16 97 Z M143 105 C143.33 105.66 143.66 106.32 144 107 C144.66 106.67 145.32 106.34 146 106 C145.01 105.67 144.02 105.34 143 105 Z M33 106 C32.67 106.99 32.34 107.98 32 109 C33.32 109.33 34.64 109.66 36 110 C35.34 108.68 34.68 107.36 34 106 C33.67 106 33.34 106 33 106 Z M146 107 C146 107.66 146 108.32 146 109 C146.99 109.33 147.98 109.66 149 110 C149.33 109.34 149.66 108.68 150 108 C148.68 107.67 147.36 107.34 146 107 Z M131 110 C131.33 110.66 131.66 111.32 132 112 C132.33 111.34 132.66 110.68 133 110 C132.34 110 131.68 110 131 110 Z M118 114 C118 114.66 118 115.32 118 116 C118.66 116 119.32 116 120 116 C120 115.34 120 114.68 120 114 C119.34 114 118.68 114 118 114 Z M104 116 C105 119 105 119 105 119 Z " fill="#242424" transform="translate(56,1)"/>
<path d="M0 0 C0.66 0 1.32 0 2 0 C1.67 0.99 1.34 1.98 1 3 C0.34 2.34 -0.32 1.68 -1 1 C-0.67 0.67 -0.34 0.34 0 0 Z " fill="#242424" transform="translate(212,37)"/>
<path d="M0 0 C0.66 0 1.32 0 2 0 C2 0.66 2 1.32 2 2 C1.34 2 0.68 2 0 2 C0 1.34 0 0.68 0 0 Z " fill="#242424" transform="translate(147,120)"/>
<path d="M0 0 C0.99 0.495 0.99 0.495 2 1 C1.01 1.495 1.01 1.495 0 2 C0 1.34 0 0.68 0 0 Z " fill="#000000" transform="translate(354,126)"/>
<path d="M0 0 C0.66 0 1.32 0 2 0 C1.67 0.66 1.34 1.32 1 2 C0.67 1.34 0.34 0.68 0 0 Z " fill="#242424" transform="translate(120,121)"/>
<path d="M0 0 C0.33 0.66 0.66 1.32 1 2 C0.34 1.67 -0.32 1.34 -1 1 C-0.67 0.67 -0.34 0.34 0 0 Z " fill="#242424" transform="translate(61,74)"/>
<path d="M0 0 C3 1 3 1 3 1 Z " fill="#242424" transform="translate(0,8)"/>
<path d="M0 0 C2 1 2 1 2 1 Z " fill="#242424" transform="translate(118,120)"/>
<path d="M0 0 C2 1 2 1 2 1 Z " fill="#242424" transform="translate(232,91)"/>
<path d="M0 0 C2 1 2 1 2 1 Z " fill="#242424" transform="translate(72,55)"/>
<path d="" fill="#000000" transform="translate(0,0)"/>
<path d="" fill="#242424" transform="translate(0,0)"/>
<path d="" fill="#242424" transform="translate(0,0)"/>
<path d="" fill="#242424" transform="translate(0,0)"/>
<path d="" fill="#242424" transform="translate(0,0)"/>
<path d="" fill="#242424" transform="translate(0,0)"/>
<path d="" fill="#242424" transform="translate(0,0)"/>
<path d="" fill="#242424" transform="translate(0,0)"/>
<path d="" fill="#242424" transform="translate(0,0)"/>
<path d="" fill="#242424" transform="translate(0,0)"/>
<path d="" fill="#242424" transform="translate(0,0)"/>
<path d="" fill="#242424" transform="translate(0,0)"/>
<path d="" fill="#242424" transform="translate(0,0)"/>
<path d="" fill="#242424" transform="translate(0,0)"/>
<path d="" fill="#242424" transform="translate(0,0)"/>
<path d="" fill="#242424" transform="translate(0,0)"/>
<path d="" fill="#242424" transform="translate(0,0)"/>
</svg>
