# Blender 4.2.3 LTS
# www.blender.org
o Bucket
v -0.285525 -0.453992 0.285525
v -0.294637 -0.433742 0.294638
v -0.327375 0.316575 0.327375
v -0.317250 0.336825 0.317250
v -0.285525 -0.453992 -0.285525
v -0.294637 -0.433742 -0.294637
v -0.317250 0.336825 -0.317250
v -0.327375 0.316575 -0.327375
v 0.285525 -0.453992 0.285525
v 0.294638 -0.433742 0.294638
v 0.317250 0.336825 0.317250
v 0.327375 0.316575 0.327375
v 0.285525 -0.453992 -0.285525
v 0.294638 -0.433742 -0.294637
v 0.317250 0.336825 -0.317250
v 0.327375 0.316575 -0.327375
v -0.285525 0.336825 0.285525
v -0.285525 0.336825 -0.285525
v 0.285525 0.336825 -0.285525
v 0.285525 0.336825 0.285525
v -0.256972 -0.418105 0.256973
v -0.256972 -0.418105 -0.256972
v 0.256973 -0.418105 -0.256972
v 0.256973 -0.418105 0.256973
v 0.000000 -0.453992 -0.371182
v 0.000000 -0.433742 -0.394875
v 0.000000 0.336825 -0.412425
v 0.000000 0.316575 -0.438750
v 0.000000 -0.453992 0.371183
v 0.000000 -0.433742 0.394875
v 0.000000 0.336825 0.412425
v 0.000000 0.316575 0.438750
v 0.000000 0.336825 -0.371182
v 0.000000 0.336825 0.371183
v 0.000000 -0.418105 -0.334064
v 0.000000 -0.418105 0.334064
v -0.371182 -0.453992 0.000000
v -0.394875 -0.433742 0.000000
v -0.412425 0.336825 0.000000
v -0.438750 0.316575 0.000000
v 0.371183 -0.453992 0.000000
v 0.394875 -0.433742 0.000000
v 0.412425 0.336825 0.000000
v 0.438750 0.316575 0.000000
v -0.371182 0.336825 0.000000
v 0.371183 0.336825 0.000000
v -0.334064 -0.418105 0.000000
v 0.334065 -0.418105 0.000000
v 0.000000 -0.418105 0.000000
v 0.000000 -0.453992 0.000000
v -0.327375 -0.135126 0.327375
v -0.327375 -0.135126 -0.327375
v 0.327375 -0.135126 -0.327375
v 0.327375 -0.135126 0.327375
v 0.000000 -0.135126 -0.438750
v 0.000000 -0.135126 0.438750
v -0.438750 -0.135126 0.000000
v 0.438750 -0.135126 0.000000
vn -0.3221 -0.0000 0.9467
vn 0.9467 -0.0000 0.3221
vn -0.0000 1.0000 -0.0000
vn -0.9467 -0.0000 -0.3221
vn 0.3221 -0.0000 -0.9467
vn -0.7292 -0.6432 0.2336
vn -0.6962 0.6823 -0.2231
vn -0.2336 -0.6432 -0.7292
vn 0.2231 0.6823 -0.6962
vn 0.7292 -0.6432 -0.2336
vn 0.6962 0.6823 0.2231
vn 0.2336 -0.6432 0.7292
vn -0.2231 0.6823 0.6962
vn -0.0000 -1.0000 -0.0000
vn -0.9568 0.0470 0.2870
vn 0.9568 0.0470 -0.2870
vn -0.2870 0.0470 -0.9568
vn 0.2870 0.0470 0.9568
vn -0.2870 0.0470 0.9568
vn 0.2870 0.0470 -0.9568
vn 0.2231 0.6823 0.6962
vn -0.2336 -0.6432 0.7292
vn -0.2231 0.6823 -0.6962
vn 0.2336 -0.6432 -0.7292
vn -0.3221 -0.0000 -0.9467
vn 0.3221 -0.0000 0.9467
vn 0.9568 0.0470 0.2870
vn -0.9568 0.0470 -0.2870
vn 0.6962 0.6823 -0.2231
vn 0.7292 -0.6432 0.2336
vn -0.6962 0.6823 0.2231
vn -0.7292 -0.6432 -0.2336
vn -0.9467 -0.0000 0.3221
vn 0.9467 -0.0000 -0.3221
vn 0.9377 -0.1378 -0.3190
vn -0.9377 -0.1378 0.3190
vn 0.3190 -0.1378 0.9377
vn -0.3190 -0.1378 -0.9377
vn 0.3190 -0.1378 -0.9377
vn -0.9377 -0.1378 -0.3190
vn 0.9377 -0.1378 0.3190
vn -0.3190 -0.1378 0.9377
vt 0.500000 0.875000
vt 0.617500 0.875000
vt 0.617500 0.992500
vt 0.500000 0.992500
vt 0.500000 0.625000
vt 0.617500 0.625000
vt 0.617500 0.742500
vt 0.500000 0.742500
vt 0.625000 0.375000
vt 0.625000 0.257500
vt 0.500000 0.125000
vt 0.617500 0.125000
vt 0.617500 0.242500
vt 0.500000 0.242500
vt 0.500000 0.375000
vt 0.617500 0.375000
vt 0.617500 0.492500
vt 0.500000 0.492500
vt 0.132500 0.625000
vt 0.132500 0.742500
vt 0.125000 0.742500
vt 0.125000 0.625000
vt 0.625000 0.125000
vt 0.625000 0.242500
vt 0.250000 0.507500
vt 0.132500 0.507500
vt 0.132500 0.500000
vt 0.250000 0.500000
vt 0.625000 0.492500
vt 0.367500 0.625000
vt 0.367500 0.507500
vt 0.382500 0.507500
vt 0.382500 0.625000
vt 0.632500 0.625000
vt 0.632500 0.742500
vt 0.250000 0.742500
vt 0.367500 0.742500
vt 0.367500 0.750000
vt 0.250000 0.750000
vt 0.625000 0.875000
vt 0.625000 0.992500
vt 0.250000 0.625000
vt 0.632500 0.507500
vt 0.625000 0.007500
vt 0.625000 0.757500
vt 0.750000 0.625000
vt 0.867500 0.625000
vt 0.867500 0.742500
vt 0.750000 0.742500
vt 0.617500 0.757500
vt 0.132500 0.750000
vt 0.617500 0.257500
vt 0.367500 0.500000
vt 0.500000 0.257500
vt 0.500000 0.757500
vt 0.750000 0.507500
vt 0.867500 0.507500
vt 0.617500 0.507500
vt 0.382500 0.742500
vt 0.617500 0.007500
vt 0.125000 0.507500
vt 0.500000 0.007500
vt 0.500000 0.507500
vt 0.382500 0.007500
vt 0.382500 0.125000
vt 0.382500 0.757500
vt 0.382500 0.875000
vt 0.382500 0.257500
vt 0.382500 0.375000
vt 0.382500 0.492500
vt 0.382500 0.242500
vt 0.382500 0.992500
s 0
f 56/1/1 32/2/1 3/3/1 51/4/1
f 58/5/2 44/6/2 12/7/2 54/8/2
f 27/9/3 7/10/3 18/10/3 33/9/3
f 57/11/4 40/12/4 8/13/4 52/14/4
f 55/15/5 28/16/5 16/17/5 53/18/5
f 37/19/6 1/20/6 2/21/6 38/22/6
f 39/23/7 7/24/7 8/13/7 40/12/7
f 25/25/8 5/26/8 6/27/8 26/28/8
f 27/9/9 15/29/9 16/17/9 28/16/9
f 41/30/10 13/31/10 14/32/10 42/33/10
f 43/34/11 11/35/11 12/7/11 44/6/11
f 29/36/12 9/37/12 10/38/12 30/39/12
f 31/40/13 4/41/13 3/3/13 32/2/13
f 50/42/14 41/30/14 9/37/14 29/36/14
f 46/34/15 19/43/15 23/43/15 48/34/15
f 39/23/3 4/44/3 17/44/3 45/23/3
f 31/40/3 11/45/3 20/45/3 34/40/3
f 43/34/3 15/43/3 19/43/3 46/34/3
f 49/46/3 47/47/3 21/48/3 36/49/3
f 45/23/16 17/44/16 21/44/16 47/23/16
f 34/40/17 20/45/17 24/45/17 36/40/17
f 33/9/18 18/10/18 22/10/18 35/9/18
f 19/29/19 33/9/19 35/9/19 23/29/19
f 17/41/20 34/40/20 36/40/20 21/41/20
f 48/34/3 49/46/3 36/49/3 24/35/3
f 4/41/3 31/40/3 34/40/3 17/41/3
f 37/19/14 50/42/14 29/36/14 1/20/14
f 11/45/21 31/40/21 32/2/21 12/50/21
f 1/20/22 29/36/22 30/39/22 2/51/22
f 7/10/23 27/9/23 28/16/23 8/52/23
f 13/31/24 25/25/24 26/28/24 14/53/24
f 52/54/25 8/52/25 28/16/25 55/15/25
f 15/29/3 27/9/3 33/9/3 19/29/3
f 54/55/26 12/50/26 32/2/26 56/1/26
f 5/26/14 25/25/14 50/42/14 37/19/14
f 23/43/3 35/56/3 49/46/3 48/34/3
f 18/24/27 45/23/27 47/23/27 22/24/27
f 35/56/3 22/57/3 47/47/3 49/46/3
f 11/35/3 43/34/3 46/34/3 20/35/3
f 7/24/3 39/23/3 45/23/3 18/24/3
f 20/35/28 46/34/28 48/34/28 24/35/28
f 25/25/14 13/31/14 41/30/14 50/42/14
f 15/43/29 43/34/29 44/6/29 16/58/29
f 9/37/30 41/30/30 42/33/30 10/59/30
f 4/44/31 39/23/31 40/12/31 3/60/31
f 5/26/32 37/19/32 38/22/32 6/61/32
f 51/62/33 3/60/33 40/12/33 57/11/33
f 53/63/34 16/58/34 44/6/34 58/5/34
f 14/32/35 53/63/35 58/5/35 42/33/35
f 2/64/36 51/62/36 57/11/36 38/65/36
f 10/66/37 54/55/37 56/1/37 30/67/37
f 6/68/38 52/54/38 55/15/38 26/69/38
f 26/69/39 55/15/39 53/18/39 14/70/39
f 38/65/40 57/11/40 52/14/40 6/71/40
f 42/33/41 58/5/41 54/8/41 10/59/41
f 30/67/42 56/1/42 51/4/42 2/72/42
