# Blender 4.2.3 LTS
# www.blender.org
o Mirror
v -0.100000 0.000000 0.500000
v -0.100000 0.000000 -0.500000
v 0.100000 0.000000 0.500000
v 0.100000 0.000000 -0.500000
v -0.050000 0.200000 0.400000
v -0.050000 0.200000 -0.400000
v 0.050000 0.200000 -0.400000
v 0.050000 0.200000 0.400000
v -0.050000 0.280000 0.400000
v -0.050000 0.280000 -0.400000
v 0.050000 0.280000 -0.400000
v 0.050000 0.280000 0.400000
v -0.100000 0.000000 -0.320000
v -0.100000 0.000000 0.320000
v -0.100000 0.200000 0.320000
v -0.100000 0.200000 -0.320000
v 0.100000 0.000000 0.320000
v 0.100000 0.000000 -0.320000
v 0.100000 0.200000 -0.320000
v 0.100000 0.200000 0.320000
v -0.050000 0.200000 0.320000
v -0.050000 0.200000 -0.320000
v 0.050000 0.200000 -0.320000
v 0.050000 0.200000 0.320000
v -0.050000 0.280000 0.320000
v -0.050000 0.280000 -0.320000
v 0.050000 0.280000 -0.320000
v 0.050000 0.280000 0.320000
v -0.050000 1.000000 0.320000
v -0.050000 1.000000 -0.320000
v 0.050000 1.000000 -0.320000
v 0.050000 1.000000 0.320000
v 0.050000 0.920000 0.400000
v -0.050000 0.920000 0.400000
v -0.050000 0.920000 -0.400000
v 0.050000 0.920000 -0.400000
v -0.050000 0.920000 -0.320000
v -0.050000 0.920000 0.320000
v 0.050000 0.920000 0.320000
v 0.050000 0.920000 -0.320000
v 0.000000 0.280000 -0.320000
v 0.000000 0.280000 0.320000
v 0.000000 0.920000 0.320000
v 0.000000 0.920000 -0.320000
v -0.050000 0.970000 0.400000
v -0.050000 1.000000 0.370000
v -0.050000 1.000000 -0.370000
v -0.050000 0.970000 -0.400000
v 0.050000 0.970000 -0.400000
v 0.050000 1.000000 -0.370000
v 0.050000 1.000000 0.370000
v 0.050000 0.970000 0.400000
v -0.100000 0.170000 0.500000
v -0.050000 0.200000 0.470000
v -0.100000 0.200000 0.470000
v -0.050000 0.200000 -0.470000
v -0.100000 0.170000 -0.500000
v -0.100000 0.200000 -0.470000
v 0.050000 0.200000 0.470000
v 0.100000 0.170000 0.500000
v 0.100000 0.200000 0.470000
v 0.100000 0.170000 -0.500000
v 0.050000 0.200000 -0.470000
v 0.100000 0.200000 -0.470000
vn -0.0000 -0.0000 -1.0000
vn -0.0000 1.0000 -0.0000
vn 1.0000 -0.0000 -0.0000
vn -0.0000 -1.0000 -0.0000
vn -1.0000 -0.0000 -0.0000
vn -0.0000 -0.0000 1.0000
vn -0.0000 0.7071 -0.7071
vn -0.0000 0.7071 0.7071
vt 0.375000 0.250000
vt 0.587500 0.250000
vt 0.587500 0.500000
vt 0.375000 0.500000
vt 0.625000 0.500000
vt 0.625000 0.250000
vt 0.587500 0.500000
vt 0.625000 0.513889
vt 0.625000 0.583333
vt 0.375000 0.583333
vt 0.625000 1.000000
vt 0.625000 0.750000
vt 0.125000 0.666667
vt 0.375000 0.666667
vt 0.375000 0.750000
vt 0.125000 0.750000
vt 0.625000 0.236111
vt 0.625000 0.166667
vt 0.625000 0.083333
vt 0.625000 0.013889
vt 0.625000 0.000000
vt 0.625000 0.736111
vt 0.625000 0.666667
vt 0.625000 0.531250
vt 0.875000 0.531250
vt 0.875000 0.583333
vt 0.625000 0.031250
vt 0.625000 0.218750
vt 0.625000 0.718750
vt 0.875000 0.666667
vt 0.625000 0.736111
vt 0.587500 0.750000
vt 0.375000 0.166667
vt 0.625000 0.236111
vt 0.587500 0.250000
vt 0.125000 0.500000
vt 0.125000 0.583333
vt 0.587500 0.750000
vt 0.587500 1.000000
vt 0.375000 1.000000
vt 0.375000 0.083333
vt 0.875000 0.718750
vt 0.625000 0.975000
vt 0.625000 0.475000
vt 0.375000 0.000000
vt 0.587500 0.000000
vt 0.625000 0.013889
s 0
f 2/1/1 57/2/1 62/3/1 4/4/1
f 63/5/2 56/6/2 6/6/2 7/5/2
f 4/4/3 62/7/3 64/8/3 19/9/3 18/10/3
f 54/11/2 59/12/2 8/12/2 5/11/2
f 14/13/4 17/14/4 3/15/4 1/16/4
f 56/6/2 58/17/2 16/18/2 22/18/2 6/6/2
f 23/9/3 7/5/3 11/5/3 27/9/3
f 15/19/2 55/20/2 54/21/2 5/21/2 21/19/2
f 59/12/2 61/22/2 20/23/2 24/23/2 8/12/2
f 50/24/2 47/25/2 30/26/2 31/9/2
f 21/19/5 5/21/5 9/21/5 25/19/5
f 5/11/6 8/12/6 12/12/6 9/11/6
f 7/5/1 6/6/1 10/6/1 11/5/1
f 38/19/5 34/21/5 45/21/5 46/27/5 29/19/5
f 35/6/5 37/18/5 30/18/5 47/28/5 48/6/5
f 33/12/3 39/23/3 32/23/3 51/29/3 52/12/3
f 34/11/6 33/12/6 52/12/6 45/11/6
f 40/9/3 36/5/3 49/5/3 50/24/3 31/9/3
f 37/18/5 38/19/5 29/19/5 30/18/5
f 39/23/3 40/9/3 31/9/3 32/23/3
f 36/5/1 35/6/1 48/6/1 49/5/1
f 31/9/2 30/26/2 29/30/2 32/23/2
f 6/6/5 22/18/5 26/18/5 10/6/5
f 22/18/5 21/19/5 25/19/5 26/18/5
f 17/14/3 20/23/3 61/31/3 60/32/3 3/15/3
f 20/23/2 19/9/2 23/9/2 24/23/2
f 8/12/3 24/23/3 28/23/3 12/12/3
f 24/23/3 23/9/3 27/9/3 28/23/3
f 13/33/5 16/18/5 58/34/5 57/35/5 2/1/5
f 16/18/2 15/19/2 21/19/2 22/18/2
f 2/36/4 4/4/4 18/10/4 13/37/4
f 13/37/4 18/10/4 17/14/4 14/13/4
f 19/9/2 64/8/2 63/5/2 7/5/2 23/9/2
f 18/10/3 19/9/3 20/23/3 17/14/3
f 3/15/6 60/38/6 53/39/6 1/40/6
f 14/41/5 15/19/5 16/18/5 13/33/5
f 39/23/1 28/23/1 42/23/1 43/23/1
f 12/12/3 28/23/3 39/23/3 33/12/3
f 26/18/5 25/19/5 38/19/5 37/18/5
f 10/6/5 26/18/5 37/18/5 35/6/5
f 25/19/5 9/21/5 34/21/5 38/19/5
f 27/9/3 11/5/3 36/5/3 40/9/3
f 11/5/1 10/6/1 35/6/1 36/5/1
f 9/11/6 12/12/6 33/12/6 34/11/6
f 42/23/3 41/9/3 44/9/3 43/23/3
f 27/9/6 40/9/6 44/9/6 41/9/6
f 28/23/2 27/9/2 41/9/2 42/23/2
f 40/9/4 39/23/4 43/23/4 44/9/4
f 47/6/7 50/5/7 49/5/7 48/6/7
f 51/12/8 46/11/8 45/11/8 52/12/8
f 32/23/2 29/30/2 46/42/2 51/29/2
f 53/39/8 54/43/8 55/11/8
f 56/6/7 57/6/7 58/34/7
f 59/12/8 60/12/8 61/31/8
f 62/3/7 63/44/7 64/8/7
f 56/6/7 63/5/7 62/3/7 57/2/7
f 59/12/8 54/11/8 53/39/8 60/38/8
f 1/45/5 53/46/5 55/47/5 15/19/5 14/41/5
