# Blender 4.2.3 LTS
# www.blender.org
o Rope
v -0.000000 0.500000 0.056569
v 0.007071 0.510000 0.063640
v -0.007071 0.510000 0.063640
v 0.007071 0.690000 0.063640
v -0.000000 0.700000 0.056569
v -0.007071 0.690000 0.063640
v -0.056569 0.500000 -0.000000
v -0.063640 0.510000 0.007071
v -0.063640 0.510000 -0.007071
v -0.056569 0.700000 -0.000000
v -0.063640 0.690000 -0.007071
v -0.063640 0.690000 0.007071
v 0.056569 0.500000 -0.000000
v 0.063640 0.510000 -0.007071
v 0.063640 0.510000 0.007071
v 0.056569 0.700000 -0.000000
v 0.063640 0.690000 0.007071
v 0.063640 0.690000 -0.007071
v -0.000000 0.500000 -0.056569
v -0.007071 0.510000 -0.063640
v 0.007071 0.510000 -0.063640
v -0.000000 0.700000 -0.056569
v 0.007071 0.690000 -0.063640
v -0.007071 0.690000 -0.063640
v 0.040000 0.700000 0.040000
v 0.050000 0.710000 0.040000
v 0.040000 0.710000 0.050000
v 0.050000 0.890000 0.040000
v 0.040000 0.900000 0.040000
v 0.040000 0.890000 0.050000
v -0.040000 0.700000 0.040000
v -0.040000 0.710000 0.050000
v -0.050000 0.710000 0.040000
v -0.040000 0.900000 0.040000
v -0.050000 0.890000 0.040000
v -0.040000 0.890000 0.050000
v 0.040000 0.700000 -0.040000
v 0.040000 0.710000 -0.050000
v 0.050000 0.710000 -0.040000
v 0.040000 0.900000 -0.040000
v 0.050000 0.890000 -0.040000
v 0.040000 0.890000 -0.050000
v -0.040000 0.700000 -0.040000
v -0.050000 0.710000 -0.040000
v -0.040000 0.710000 -0.050000
v -0.040000 0.900000 -0.040000
v -0.040000 0.890000 -0.050000
v -0.050000 0.890000 -0.040000
v -0.000000 0.900000 0.056569
v 0.007071 0.910000 0.063640
v -0.007071 0.910000 0.063640
v 0.007071 1.090000 0.063640
v -0.000000 1.100000 0.056569
v -0.007071 1.090000 0.063640
v -0.056569 0.900000 -0.000000
v -0.063640 0.910000 0.007071
v -0.063640 0.910000 -0.007071
v -0.056569 1.100000 -0.000000
v -0.063640 1.090000 -0.007071
v -0.063640 1.090000 0.007071
v 0.056569 0.900000 -0.000000
v 0.063640 0.910000 -0.007071
v 0.063640 0.910000 0.007071
v 0.056569 1.100000 -0.000000
v 0.063640 1.090000 0.007071
v 0.063640 1.090000 -0.007071
v -0.000000 0.900000 -0.056569
v -0.007071 0.910000 -0.063640
v 0.007071 0.910000 -0.063640
v -0.000000 1.100000 -0.056569
v 0.007071 1.090000 -0.063640
v -0.007071 1.090000 -0.063640
v 0.040000 1.100000 0.040000
v 0.050000 1.110000 0.040000
v 0.040000 1.110000 0.050000
v 0.050000 1.290000 0.040000
v 0.040000 1.300000 0.040000
v 0.040000 1.290000 0.050000
v -0.040000 1.100000 0.040000
v -0.040000 1.110000 0.050000
v -0.050000 1.110000 0.040000
v -0.040000 1.300000 0.040000
v -0.050000 1.290000 0.040000
v -0.040000 1.290000 0.050000
v 0.040000 1.100000 -0.040000
v 0.040000 1.110000 -0.050000
v 0.050000 1.110000 -0.040000
v 0.040000 1.300000 -0.040000
v 0.050000 1.290000 -0.040000
v 0.040000 1.290000 -0.050000
v -0.040000 1.100000 -0.040000
v -0.050000 1.110000 -0.040000
v -0.040000 1.110000 -0.050000
v -0.040000 1.300000 -0.040000
v -0.040000 1.290000 -0.050000
v -0.050000 1.290000 -0.040000
v -0.000000 1.300000 0.056569
v 0.007071 1.310000 0.063640
v -0.007071 1.310000 0.063640
v 0.007071 1.490000 0.063640
v -0.000000 1.500000 0.056569
v -0.007071 1.490000 0.063640
v -0.056569 1.300000 -0.000000
v -0.063640 1.310000 0.007071
v -0.063640 1.310000 -0.007071
v -0.056569 1.500000 -0.000000
v -0.063640 1.490000 -0.007071
v -0.063640 1.490000 0.007071
v 0.056569 1.300000 -0.000000
v 0.063640 1.310000 -0.007071
v 0.063640 1.310000 0.007071
v 0.056569 1.500000 -0.000000
v 0.063640 1.490000 0.007071
v 0.063640 1.490000 -0.007071
v -0.000000 1.300000 -0.056569
v -0.007071 1.310000 -0.063640
v 0.007071 1.310000 -0.063640
v -0.000000 1.500000 -0.056569
v 0.007071 1.490000 -0.063640
v -0.007071 1.490000 -0.063640
v -0.040000 -0.500000 0.040000
v -0.040000 -0.490000 0.050000
v -0.050000 -0.490000 0.040000
v -0.040000 -0.310000 0.050000
v -0.040000 -0.300000 0.040000
v -0.050000 -0.310000 0.040000
v -0.040000 -0.500000 -0.040000
v -0.050000 -0.490000 -0.040000
v -0.040000 -0.490000 -0.050000
v -0.040000 -0.300000 -0.040000
v -0.040000 -0.310000 -0.050000
v -0.050000 -0.310000 -0.040000
v 0.040000 -0.500000 0.040000
v 0.050000 -0.490000 0.040000
v 0.040000 -0.490000 0.050000
v 0.040000 -0.300000 0.040000
v 0.040000 -0.310000 0.050000
v 0.050000 -0.310000 0.040000
v 0.040000 -0.500000 -0.040000
v 0.040000 -0.490000 -0.050000
v 0.050000 -0.490000 -0.040000
v 0.040000 -0.300000 -0.040000
v 0.050000 -0.310000 -0.040000
v 0.040000 -0.310000 -0.050000
v -0.000000 -0.300000 0.056569
v 0.007071 -0.290000 0.063640
v -0.007071 -0.290000 0.063640
v 0.007071 -0.110000 0.063640
v -0.000000 -0.100000 0.056569
v -0.007071 -0.110000 0.063640
v -0.056569 -0.300000 -0.000000
v -0.063640 -0.290000 0.007071
v -0.063640 -0.290000 -0.007071
v -0.056569 -0.100000 -0.000000
v -0.063640 -0.110000 -0.007071
v -0.063640 -0.110000 0.007071
v 0.056569 -0.300000 -0.000000
v 0.063640 -0.290000 -0.007071
v 0.063640 -0.290000 0.007071
v 0.056569 -0.100000 -0.000000
v 0.063640 -0.110000 0.007071
v 0.063640 -0.110000 -0.007071
v -0.000000 -0.300000 -0.056569
v -0.007071 -0.290000 -0.063640
v 0.007071 -0.290000 -0.063640
v -0.000000 -0.100000 -0.056569
v 0.007071 -0.110000 -0.063640
v -0.007071 -0.110000 -0.063640
v -0.040000 -0.100000 0.040000
v -0.040000 -0.090000 0.050000
v -0.050000 -0.090000 0.040000
v -0.040000 0.090000 0.050000
v -0.040000 0.100000 0.040000
v -0.050000 0.090000 0.040000
v -0.040000 -0.100000 -0.040000
v -0.050000 -0.090000 -0.040000
v -0.040000 -0.090000 -0.050000
v -0.040000 0.100000 -0.040000
v -0.040000 0.090000 -0.050000
v -0.050000 0.090000 -0.040000
v 0.040000 -0.100000 0.040000
v 0.050000 -0.090000 0.040000
v 0.040000 -0.090000 0.050000
v 0.040000 0.100000 0.040000
v 0.040000 0.090000 0.050000
v 0.050000 0.090000 0.040000
v 0.040000 -0.100000 -0.040000
v 0.040000 -0.090000 -0.050000
v 0.050000 -0.090000 -0.040000
v 0.040000 0.100000 -0.040000
v 0.050000 0.090000 -0.040000
v 0.040000 0.090000 -0.050000
v -0.000000 0.100000 0.056569
v 0.007071 0.110000 0.063640
v -0.007071 0.110000 0.063640
v 0.007071 0.290000 0.063640
v -0.000000 0.300000 0.056569
v -0.007071 0.290000 0.063640
v -0.056569 0.100000 -0.000000
v -0.063640 0.110000 0.007071
v -0.063640 0.110000 -0.007071
v -0.056569 0.300000 -0.000000
v -0.063640 0.290000 -0.007071
v -0.063640 0.290000 0.007071
v 0.056569 0.100000 -0.000000
v 0.063640 0.110000 -0.007071
v 0.063640 0.110000 0.007071
v 0.056569 0.300000 -0.000000
v 0.063640 0.290000 0.007071
v 0.063640 0.290000 -0.007071
v -0.000000 0.100000 -0.056569
v -0.007071 0.110000 -0.063640
v 0.007071 0.110000 -0.063640
v -0.000000 0.300000 -0.056569
v 0.007071 0.290000 -0.063640
v -0.007071 0.290000 -0.063640
v -0.040000 0.300000 0.040000
v -0.040000 0.310000 0.050000
v -0.050000 0.310000 0.040000
v -0.040000 0.490000 0.050000
v -0.040000 0.500000 0.040000
v -0.050000 0.490000 0.040000
v -0.040000 0.300000 -0.040000
v -0.050000 0.310000 -0.040000
v -0.040000 0.310000 -0.050000
v -0.040000 0.500000 -0.040000
v -0.040000 0.490000 -0.050000
v -0.050000 0.490000 -0.040000
v 0.040000 0.300000 0.040000
v 0.050000 0.310000 0.040000
v 0.040000 0.310000 0.050000
v 0.040000 0.500000 0.040000
v 0.040000 0.490000 0.050000
v 0.050000 0.490000 0.040000
v 0.040000 0.300000 -0.040000
v 0.040000 0.310000 -0.050000
v 0.050000 0.310000 -0.040000
v 0.040000 0.500000 -0.040000
v 0.050000 0.490000 -0.040000
v 0.040000 0.490000 -0.050000
vn 0.7071 -0.0000 0.7071
vn 0.7071 -0.0000 -0.7071
vn -0.0000 1.0000 -0.0000
vn -0.7071 -0.0000 0.7071
vn -0.7071 -0.0000 -0.7071
vn -0.0000 -0.5773 0.8165
vn -0.0000 0.5774 0.8165
vn -0.8165 -0.5773 -0.0000
vn -0.8165 0.5774 -0.0000
vn 0.8165 -0.5773 -0.0000
vn 0.8165 0.5774 -0.0000
vn -0.0000 -0.5773 -0.8165
vn -0.0000 0.5774 -0.8165
vn -0.5000 -0.7071 0.5000
vn -0.0000 -0.0000 1.0000
vn -0.5000 0.7071 0.5000
vn -1.0000 -0.0000 -0.0000
vn -0.5000 -0.7071 -0.5000
vn -0.5000 0.7071 -0.5000
vn -0.0000 -0.0000 -1.0000
vn 0.5000 -0.7071 -0.5000
vn 0.5000 0.7071 -0.5000
vn 1.0000 -0.0000 -0.0000
vn 0.5000 -0.7071 0.5000
vn 0.5000 0.7071 0.5000
vn -0.0000 -1.0000 -0.0000
vn 0.5774 -0.5773 0.5774
vn 0.5774 0.5774 0.5774
vn -0.5774 -0.5773 0.5774
vn -0.5774 0.5773 0.5774
vn 0.5774 -0.5773 -0.5774
vn 0.5774 0.5773 -0.5774
vn -0.5774 -0.5773 -0.5774
vn -0.5774 0.5774 -0.5774
vn -0.0000 -0.7071 0.7071
vn -0.0000 0.7071 0.7071
vn -0.7071 -0.7071 -0.0000
vn -0.7071 0.7071 -0.0000
vn -0.0000 -0.7071 -0.7071
vn -0.0000 0.7071 -0.7071
vn 0.7071 -0.7071 -0.0000
vn 0.7071 0.7071 -0.0000
vn -0.0000 -0.5774 0.8165
vn -0.8165 -0.5774 -0.0000
vn 0.8165 -0.5774 -0.0000
vn -0.0000 -0.5774 -0.8165
vn 0.5774 -0.5774 0.5774
vn -0.5774 -0.5774 0.5774
vn 0.5774 -0.5774 -0.5774
vn -0.5774 -0.5774 -0.5774
vn -0.0000 0.5773 0.8165
vn -0.8165 0.5773 -0.0000
vn 0.8165 0.5773 -0.0000
vn -0.0000 0.5773 -0.8165
vn -0.5774 0.5774 0.5774
vn 0.5774 0.5774 -0.5774
vn -0.5774 0.5773 -0.5774
vn 0.5774 0.5773 0.5774
vt 0.387500 0.775000
vt 0.612500 0.775000
vt 0.612500 0.975000
vt 0.387500 0.975000
vt 0.387500 0.525000
vt 0.612500 0.525000
vt 0.612500 0.725000
vt 0.387500 0.725000
vt 0.650000 0.525000
vt 0.850000 0.525000
vt 0.850000 0.725000
vt 0.650000 0.725000
vt 0.387500 0.025000
vt 0.612500 0.025000
vt 0.612500 0.225000
vt 0.387500 0.225000
vt 0.387500 0.275000
vt 0.612500 0.275000
vt 0.612500 0.475000
vt 0.387500 0.475000
vt 0.150000 0.725000
vt 0.150000 0.750000
vt 0.125000 0.725000
vt 0.625000 0.975000
vt 0.612500 1.000000
vt 0.150000 0.525000
vt 0.125000 0.525000
vt 0.150000 0.500000
vt 0.625000 0.275000
vt 0.612500 0.250000
vt 0.350000 0.725000
vt 0.375000 0.725000
vt 0.350000 0.750000
vt 0.625000 0.775000
vt 0.612500 0.750000
vt 0.350000 0.525000
vt 0.350000 0.500000
vt 0.375000 0.525000
vt 0.625000 0.525000
vt 0.612500 0.500000
vt 0.387500 0.000000
vt 0.612500 0.000000
vt 0.625000 0.025000
vt 0.625000 0.225000
vt 0.625000 0.475000
s 0
f 15/1/1 17/2/1 4/3/1 2/4/1
f 21/5/2 23/6/2 18/7/2 14/8/2
f 22/9/3 10/10/3 5/11/3 16/12/3
f 3/13/4 6/14/4 12/15/4 8/16/4
f 9/17/5 11/18/5 24/19/5 20/20/5
f 1/21/6 2/22/6 3/23/6
f 4/3/7 5/24/7 6/25/7
f 7/26/8 8/27/8 9/28/8
f 10/29/9 11/18/9 12/30/9
f 13/31/10 14/32/10 15/33/10
f 16/34/11 17/2/11 18/35/11
f 19/36/12 20/37/12 21/38/12
f 22/39/13 23/6/13 24/40/13
f 7/26/14 1/21/14 3/23/14 8/27/14
f 2/41/15 4/42/15 6/14/15 3/13/15
f 5/43/16 10/44/16 12/15/16 6/14/16
f 11/18/17 9/17/17 8/16/17 12/15/17
f 19/36/18 7/26/18 9/28/18 20/37/18
f 10/29/19 22/45/19 24/19/19 11/18/19
f 23/6/20 21/5/20 20/20/20 24/19/20
f 13/31/21 19/36/21 21/5/21 14/8/21
f 22/9/22 16/12/22 18/7/22 23/6/22
f 17/2/23 15/1/23 14/8/23 18/7/23
f 1/21/24 13/31/24 15/33/24 2/22/24
f 16/34/25 5/24/25 4/3/25 17/2/25
f 7/26/26 19/36/26 13/31/26 1/21/26
f 39/1/23 41/2/23 28/3/23 26/4/23
f 45/5/20 47/6/20 42/7/20 38/8/20
f 46/9/3 34/10/3 29/11/3 40/12/3
f 27/13/15 30/14/15 36/15/15 32/16/15
f 33/17/17 35/18/17 48/19/17 44/20/17
f 25/21/27 26/22/27 27/23/27
f 28/3/28 29/24/28 30/25/28
f 31/26/29 32/27/29 33/28/29
f 34/29/30 35/18/30 36/30/30
f 37/31/31 38/32/31 39/33/31
f 40/34/32 41/2/32 42/35/32
f 43/36/33 44/37/33 45/38/33
f 46/39/34 47/6/34 48/40/34
f 31/26/35 25/21/35 27/23/35 32/27/35
f 26/41/1 28/42/1 30/14/1 27/13/1
f 29/43/36 34/44/36 36/15/36 30/14/36
f 35/18/4 33/17/4 32/16/4 36/15/4
f 43/36/37 31/26/37 33/28/37 44/37/37
f 34/29/38 46/45/38 48/19/38 35/18/38
f 47/6/5 45/5/5 44/20/5 48/19/5
f 37/31/39 43/36/39 45/5/39 38/8/39
f 46/9/40 40/12/40 42/7/40 47/6/40
f 41/2/2 39/1/2 38/8/2 42/7/2
f 25/21/41 37/31/41 39/33/41 26/22/41
f 40/34/42 29/24/42 28/3/42 41/2/42
f 31/26/26 43/36/26 37/31/26 25/21/26
f 63/1/1 65/2/1 52/3/1 50/4/1
f 69/5/2 71/6/2 66/7/2 62/8/2
f 70/9/3 58/10/3 53/11/3 64/12/3
f 51/13/4 54/14/4 60/15/4 56/16/4
f 57/17/5 59/18/5 72/19/5 68/20/5
f 49/21/43 50/22/43 51/23/43
f 52/3/7 53/24/7 54/25/7
f 55/26/44 56/27/44 57/28/44
f 58/29/9 59/18/9 60/30/9
f 61/31/45 62/32/45 63/33/45
f 64/34/11 65/2/11 66/35/11
f 67/36/46 68/37/46 69/38/46
f 70/39/13 71/6/13 72/40/13
f 55/26/14 49/21/14 51/23/14 56/27/14
f 50/41/15 52/42/15 54/14/15 51/13/15
f 53/43/16 58/44/16 60/15/16 54/14/16
f 59/18/17 57/17/17 56/16/17 60/15/17
f 67/36/18 55/26/18 57/28/18 68/37/18
f 58/29/19 70/45/19 72/19/19 59/18/19
f 71/6/20 69/5/20 68/20/20 72/19/20
f 61/31/21 67/36/21 69/5/21 62/8/21
f 70/9/22 64/12/22 66/7/22 71/6/22
f 65/2/23 63/1/23 62/8/23 66/7/23
f 49/21/24 61/31/24 63/33/24 50/22/24
f 64/34/25 53/24/25 52/3/25 65/2/25
f 55/26/26 67/36/26 61/31/26 49/21/26
f 87/1/23 89/2/23 76/3/23 74/4/23
f 93/5/20 95/6/20 90/7/20 86/8/20
f 94/9/3 82/10/3 77/11/3 88/12/3
f 75/13/15 78/14/15 84/15/15 80/16/15
f 81/17/17 83/18/17 96/19/17 92/20/17
f 73/21/47 74/22/47 75/23/47
f 76/3/28 77/24/28 78/25/28
f 79/26/48 80/27/48 81/28/48
f 82/29/30 83/18/30 84/30/30
f 85/31/49 86/32/49 87/33/49
f 88/34/32 89/2/32 90/35/32
f 91/36/50 92/37/50 93/38/50
f 94/39/34 95/6/34 96/40/34
f 79/26/35 73/21/35 75/23/35 80/27/35
f 74/41/1 76/42/1 78/14/1 75/13/1
f 77/43/36 82/44/36 84/15/36 78/14/36
f 83/18/4 81/17/4 80/16/4 84/15/4
f 91/36/37 79/26/37 81/28/37 92/37/37
f 82/29/38 94/45/38 96/19/38 83/18/38
f 95/6/5 93/5/5 92/20/5 96/19/5
f 85/31/39 91/36/39 93/5/39 86/8/39
f 94/9/40 88/12/40 90/7/40 95/6/40
f 89/2/2 87/1/2 86/8/2 90/7/2
f 73/21/41 85/31/41 87/33/41 74/22/41
f 88/34/42 77/24/42 76/3/42 89/2/42
f 79/26/26 91/36/26 85/31/26 73/21/26
f 111/1/1 113/2/1 100/3/1 98/4/1
f 117/5/2 119/6/2 114/7/2 110/8/2
f 118/9/3 106/10/3 101/11/3 112/12/3
f 99/13/4 102/14/4 108/15/4 104/16/4
f 105/17/5 107/18/5 120/19/5 116/20/5
f 97/21/6 98/22/6 99/23/6
f 100/3/51 101/24/51 102/25/51
f 103/26/8 104/27/8 105/28/8
f 106/29/52 107/18/52 108/30/52
f 109/31/10 110/32/10 111/33/10
f 112/34/53 113/2/53 114/35/53
f 115/36/12 116/37/12 117/38/12
f 118/39/54 119/6/54 120/40/54
f 103/26/14 97/21/14 99/23/14 104/27/14
f 98/41/15 100/42/15 102/14/15 99/13/15
f 101/43/16 106/44/16 108/15/16 102/14/16
f 107/18/17 105/17/17 104/16/17 108/15/17
f 115/36/18 103/26/18 105/28/18 116/37/18
f 106/29/19 118/45/19 120/19/19 107/18/19
f 119/6/20 117/5/20 116/20/20 120/19/20
f 109/31/21 115/36/21 117/5/21 110/8/21
f 118/9/22 112/12/22 114/7/22 119/6/22
f 113/2/23 111/1/23 110/8/23 114/7/23
f 97/21/24 109/31/24 111/33/24 98/22/24
f 112/34/25 101/24/25 100/3/25 113/2/25
f 103/26/26 115/36/26 109/31/26 97/21/26
f 135/1/15 137/2/15 124/3/15 122/4/15
f 141/5/23 143/6/23 138/7/23 134/8/23
f 142/9/3 130/10/3 125/11/3 136/12/3
f 123/13/17 126/14/17 132/15/17 128/16/17
f 129/17/20 131/18/20 144/19/20 140/20/20
f 121/21/48 122/22/48 123/23/48
f 124/3/55 125/24/55 126/25/55
f 127/26/50 128/27/50 129/28/50
f 130/29/34 131/18/34 132/30/34
f 133/31/47 134/32/47 135/33/47
f 136/34/28 137/2/28 138/35/28
f 139/36/49 140/37/49 141/38/49
f 142/39/56 143/6/56 144/40/56
f 127/26/37 121/21/37 123/23/37 128/27/37
f 122/41/4 124/42/4 126/14/4 123/13/4
f 125/43/38 130/44/38 132/15/38 126/14/38
f 131/18/5 129/17/5 128/16/5 132/15/5
f 139/36/39 127/26/39 129/28/39 140/37/39
f 130/29/40 142/45/40 144/19/40 131/18/40
f 143/6/2 141/5/2 140/20/2 144/19/2
f 133/31/41 139/36/41 141/5/41 134/8/41
f 142/9/42 136/12/42 138/7/42 143/6/42
f 137/2/1 135/1/1 134/8/1 138/7/1
f 121/21/35 133/31/35 135/33/35 122/22/35
f 136/34/36 125/24/36 124/3/36 137/2/36
f 127/26/26 139/36/26 133/31/26 121/21/26
f 159/1/1 161/2/1 148/3/1 146/4/1
f 165/5/2 167/6/2 162/7/2 158/8/2
f 166/9/3 154/10/3 149/11/3 160/12/3
f 147/13/4 150/14/4 156/15/4 152/16/4
f 153/17/5 155/18/5 168/19/5 164/20/5
f 145/21/43 146/22/43 147/23/43
f 148/3/51 149/24/51 150/25/51
f 151/26/44 152/27/44 153/28/44
f 154/29/9 155/18/9 156/30/9
f 157/31/45 158/32/45 159/33/45
f 160/34/11 161/2/11 162/35/11
f 163/36/46 164/37/46 165/38/46
f 166/39/13 167/6/13 168/40/13
f 151/26/14 145/21/14 147/23/14 152/27/14
f 146/41/15 148/42/15 150/14/15 147/13/15
f 149/43/16 154/44/16 156/15/16 150/14/16
f 155/18/17 153/17/17 152/16/17 156/15/17
f 163/36/18 151/26/18 153/28/18 164/37/18
f 154/29/19 166/45/19 168/19/19 155/18/19
f 167/6/20 165/5/20 164/20/20 168/19/20
f 157/31/21 163/36/21 165/5/21 158/8/21
f 166/9/22 160/12/22 162/7/22 167/6/22
f 161/2/23 159/1/23 158/8/23 162/7/23
f 145/21/24 157/31/24 159/33/24 146/22/24
f 160/34/25 149/24/25 148/3/25 161/2/25
f 151/26/26 163/36/26 157/31/26 145/21/26
f 183/1/15 185/2/15 172/3/15 170/4/15
f 189/5/23 191/6/23 186/7/23 182/8/23
f 190/9/3 178/10/3 173/11/3 184/12/3
f 171/13/17 174/14/17 180/15/17 176/16/17
f 177/17/20 179/18/20 192/19/20 188/20/20
f 169/21/48 170/22/48 171/23/48
f 172/3/55 173/24/55 174/25/55
f 175/26/50 176/27/50 177/28/50
f 178/29/34 179/18/34 180/30/34
f 181/31/47 182/32/47 183/33/47
f 184/34/28 185/2/28 186/35/28
f 187/36/49 188/37/49 189/38/49
f 190/39/56 191/6/56 192/40/56
f 175/26/37 169/21/37 171/23/37 176/27/37
f 170/41/4 172/42/4 174/14/4 171/13/4
f 173/43/38 178/44/38 180/15/38 174/14/38
f 179/18/5 177/17/5 176/16/5 180/15/5
f 187/36/39 175/26/39 177/28/39 188/37/39
f 178/29/40 190/45/40 192/19/40 179/18/40
f 191/6/2 189/5/2 188/20/2 192/19/2
f 181/31/41 187/36/41 189/5/41 182/8/41
f 190/9/42 184/12/42 186/7/42 191/6/42
f 185/2/1 183/1/1 182/8/1 186/7/1
f 169/21/35 181/31/35 183/33/35 170/22/35
f 184/34/36 173/24/36 172/3/36 185/2/36
f 175/26/26 187/36/26 181/31/26 169/21/26
f 207/1/1 209/2/1 196/3/1 194/4/1
f 213/5/2 215/6/2 210/7/2 206/8/2
f 214/9/3 202/10/3 197/11/3 208/12/3
f 195/13/4 198/14/4 204/15/4 200/16/4
f 201/17/5 203/18/5 216/19/5 212/20/5
f 193/21/43 194/22/43 195/23/43
f 196/3/7 197/24/7 198/25/7
f 199/26/44 200/27/44 201/28/44
f 202/29/9 203/18/9 204/30/9
f 205/31/45 206/32/45 207/33/45
f 208/34/11 209/2/11 210/35/11
f 211/36/46 212/37/46 213/38/46
f 214/39/13 215/6/13 216/40/13
f 199/26/14 193/21/14 195/23/14 200/27/14
f 194/41/15 196/42/15 198/14/15 195/13/15
f 197/43/16 202/44/16 204/15/16 198/14/16
f 203/18/17 201/17/17 200/16/17 204/15/17
f 211/36/18 199/26/18 201/28/18 212/37/18
f 202/29/19 214/45/19 216/19/19 203/18/19
f 215/6/20 213/5/20 212/20/20 216/19/20
f 205/31/21 211/36/21 213/5/21 206/8/21
f 214/9/22 208/12/22 210/7/22 215/6/22
f 209/2/23 207/1/23 206/8/23 210/7/23
f 193/21/24 205/31/24 207/33/24 194/22/24
f 208/34/25 197/24/25 196/3/25 209/2/25
f 199/26/26 211/36/26 205/31/26 193/21/26
f 231/1/15 233/2/15 220/3/15 218/4/15
f 237/5/23 239/6/23 234/7/23 230/8/23
f 238/9/3 226/10/3 221/11/3 232/12/3
f 219/13/17 222/14/17 228/15/17 224/16/17
f 225/17/20 227/18/20 240/19/20 236/20/20
f 217/21/29 218/22/29 219/23/29
f 220/3/30 221/24/30 222/25/30
f 223/26/33 224/27/33 225/28/33
f 226/29/57 227/18/57 228/30/57
f 229/31/27 230/32/27 231/33/27
f 232/34/58 233/2/58 234/35/58
f 235/36/31 236/37/31 237/38/31
f 238/39/32 239/6/32 240/40/32
f 223/26/37 217/21/37 219/23/37 224/27/37
f 218/41/4 220/42/4 222/14/4 219/13/4
f 221/43/38 226/44/38 228/15/38 222/14/38
f 227/18/5 225/17/5 224/16/5 228/15/5
f 235/36/39 223/26/39 225/28/39 236/37/39
f 226/29/40 238/45/40 240/19/40 227/18/40
f 239/6/2 237/5/2 236/20/2 240/19/2
f 229/31/41 235/36/41 237/5/41 230/8/41
f 238/9/42 232/12/42 234/7/42 239/6/42
f 233/2/1 231/1/1 230/8/1 234/7/1
f 217/21/35 229/31/35 231/33/35 218/22/35
f 232/34/36 221/24/36 220/3/36 233/2/36
f 223/26/26 235/36/26 229/31/26 217/21/26
