# Blender 4.3.0
# www.blender.org
o Single_Spike
v -0.134996 -0.500000 0.143613
v -0.143612 -0.500000 0.134996
v -0.134996 -0.254877 0.143613
v -0.134996 -0.245123 0.134996
v -0.143612 -0.254877 0.134996
v -0.143612 -0.500000 -0.134996
v -0.134996 -0.500000 -0.143612
v -0.134996 -0.245123 -0.134996
v -0.134996 -0.254877 -0.143612
v -0.143612 -0.254877 -0.134996
v 0.143613 -0.500000 0.134996
v 0.134996 -0.500000 0.143613
v 0.134996 -0.245123 0.134996
v 0.134996 -0.254877 0.143613
v 0.143613 -0.254877 0.134996
v 0.134996 -0.500000 -0.143612
v 0.143613 -0.500000 -0.134996
v 0.134996 -0.245123 -0.134996
v 0.143613 -0.254877 -0.134996
v 0.134996 -0.254877 -0.143612
v -0.086397 -0.245123 0.086397
v -0.086397 -0.245123 -0.086397
v 0.086398 -0.245123 -0.086397
v 0.086398 -0.245123 0.086397
v -0.041470 0.103297 0.041471
v -0.041470 0.103297 -0.041471
v 0.041471 0.103297 -0.041471
v 0.041471 0.103297 0.041471
v -0.086397 0.093406 0.086397
v -0.076505 0.103297 0.076506
v -0.076505 0.103297 -0.076506
v -0.086397 0.093406 -0.086397
v 0.076506 0.103297 -0.076506
v 0.086398 0.093406 -0.086397
v 0.076506 0.103297 0.076506
v 0.086398 0.093406 0.086397
v -0.041470 0.427126 0.041471
v -0.035070 0.435126 0.035071
v -0.035070 0.435126 -0.035071
v -0.041470 0.427126 -0.041471
v 0.035071 0.435126 -0.035071
v 0.041471 0.427126 -0.041471
v 0.035071 0.435126 0.035071
v 0.041471 0.427126 0.041471
v 0.008617 -0.500000 0.000000
v 0.000000 -0.500000 0.008617
v 0.000000 -0.500000 -0.008617
v -0.008616 -0.500000 0.000000
vn -0.0000 -0.0000 1.0000
vn 1.0000 -0.0000 -0.0000
vn -0.0000 1.0000 -0.0000
vn -1.0000 -0.0000 -0.0000
vn -0.0000 -0.0000 -1.0000
vn -0.5997 0.5298 0.5997
vn -0.5997 0.5298 -0.5997
vn 0.5997 0.5298 0.5997
vn 0.5997 0.5298 -0.5997
vn -0.7071 -0.0000 0.7071
vn -0.7495 0.6620 -0.0000
vn -0.7071 -0.0000 -0.7071
vn -0.0000 0.6620 -0.7495
vn 0.7071 -0.0000 -0.7071
vn 0.7495 0.6620 -0.0000
vn 0.7071 -0.0000 0.7071
vn -0.0000 0.6620 0.7495
vn -0.0000 -1.0000 -0.0000
vn -0.7071 0.7071 -0.0000
vn -0.0000 0.7071 -0.7071
vn 0.7071 0.7071 -0.0000
vn -0.0000 0.7071 0.7071
vn -0.7809 0.6247 -0.0000
vn -0.0000 0.6247 -0.7809
vn 0.7809 0.6247 -0.0000
vn -0.0000 0.6247 0.7809
vt 0.382500 0.757500
vt 0.617500 0.757500
vt 0.617500 0.992500
vt 0.382500 0.992500
vt 0.382500 0.507500
vt 0.617500 0.507500
vt 0.617500 0.742500
vt 0.382500 0.742500
vt 0.625000 0.242500
vt 0.625000 0.007500
vt 0.382500 0.007500
vt 0.617500 0.007500
vt 0.617500 0.242500
vt 0.382500 0.242500
vt 0.382500 0.257500
vt 0.617500 0.257500
vt 0.617500 0.492500
vt 0.382500 0.492500
vt 0.617500 0.000000
vt 0.617500 0.250000
vt 0.625000 0.757500
vt 0.617500 0.750000
vt 0.625000 0.492500
vt 0.617500 0.500000
vt 0.382500 0.000000
vt 0.625000 0.257500
vt 0.632500 0.507500
vt 0.632500 0.742500
vt 0.625000 0.992500
vt 0.382500 0.492500
vt 0.625000 0.992500
vt 0.625000 0.992500
vt 0.650633 0.525633
vt 0.849367 0.525633
vt 0.849367 0.724367
vt 0.650633 0.724367
vt 0.632500 0.742500
vt 0.867500 0.507500
vt 0.867500 0.742500
vt 0.382500 0.492036
vt 0.382500 0.507964
vt 0.382500 0.507500
s 0
f 12/1/1 14/2/1 3/3/1 1/4/1
f 17/5/2 19/6/2 15/7/2 11/8/2
f 8/9/3 4/10/3 21/10/3 22/9/3
f 2/11/4 5/12/4 10/13/4 6/14/4
f 7/15/5 9/16/5 20/17/5 16/18/5
f 3/19/6 4/10/6 5/12/6
f 8/9/7 9/20/7 10/13/7
f 13/21/8 14/2/8 15/22/8
f 18/23/9 19/24/9 20/17/9
f 1/25/10 3/19/10 5/12/10 2/11/10
f 4/10/11 8/9/11 10/13/11 5/12/11
f 9/16/12 7/15/12 6/14/12 10/13/12
f 8/26/13 18/23/13 20/17/13 9/16/13
f 19/6/14 17/5/14 16/18/14 20/17/14
f 18/27/15 13/28/15 15/7/15 19/6/15
f 14/2/16 12/1/16 11/8/16 15/7/16
f 13/21/17 4/29/17 3/3/17 14/2/17
f 47/30/18 7/15/18 16/18/18
f 4/29/3 13/21/3 24/21/3 21/29/3
f 13/28/3 18/27/3 23/27/3 24/28/3
f 18/23/3 8/26/3 22/26/3 23/23/3
f 21/29/1 24/21/1 36/21/1 29/31/1
f 30/32/3 35/21/3 28/21/3 25/29/3
f 33/23/3 31/26/3 26/26/3 27/23/3
f 35/28/3 33/27/3 27/27/3 28/28/3
f 23/23/5 22/26/5 32/26/5 34/23/5
f 24/28/2 23/27/2 34/27/2 36/28/2
f 22/9/4 21/10/4 29/10/4 32/9/4
f 25/29/1 28/21/1 44/21/1 37/32/1
f 41/33/3 39/34/3 38/35/3 43/36/3
f 27/23/5 26/26/5 40/26/5 42/23/5
f 28/28/2 27/27/2 42/27/2 44/37/2
f 30/10/19 31/9/19 32/9/19 29/10/19
f 31/26/20 33/23/20 34/23/20 32/26/20
f 33/27/21 35/28/21 36/28/21 34/27/21
f 35/21/22 30/32/22 29/31/22 36/21/22
f 31/9/3 30/10/3 25/10/3 26/9/3
f 38/35/23 39/34/23 40/38/23 37/39/23
f 39/34/24 41/33/24 42/27/24 40/38/24
f 41/33/25 43/36/25 44/37/25 42/27/25
f 43/36/26 38/35/26 37/39/26 44/28/26
f 26/9/4 25/10/4 37/10/4 40/9/4
f 48/40/18 6/14/18 7/15/18 47/30/18
f 2/11/18 6/14/18 48/40/18
f 12/1/18 46/41/18 45/42/18 11/8/18
f 11/8/18 45/42/18 17/5/18
f 12/1/18 1/4/18 46/41/18
f 46/41/18 48/40/18 47/30/18 45/42/18
f 45/42/18 47/30/18 16/18/18 17/5/18
f 1/4/18 2/11/18 48/40/18 46/41/18
