<?xml version="1.0" encoding="UTF-8"?>
<svg version="1.1" xmlns="http://www.w3.org/2000/svg" width="920" height="800">
<path d="M0 0 C1.00588203 -0.00327219 2.01176405 -0.00654439 3.04812735 -0.00991574 C4.15853945 -0.00843212 5.26895155 -0.00694849 6.4130125 -0.00541991 C7.59335168 -0.00777214 8.77369086 -0.01012437 9.98979789 -0.01254788 C13.28626356 -0.01808417 16.58267614 -0.01910818 19.87914279 -0.01827047 C23.45793116 -0.01843964 27.03671073 -0.02434211 30.61549473 -0.02951133 C37.72276113 -0.0388507 44.8300213 -0.04276163 51.93729307 -0.0450303 C60.44678968 -0.04798892 68.95627799 -0.05668436 77.46577025 -0.06544458 C98.03657664 -0.08630451 118.60738449 -0.09676141 139.17819899 -0.10557419 C148.90723845 -0.10977869 158.6362773 -0.11500096 168.36531624 -0.12025872 C201.65999674 -0.13815069 234.95467741 -0.15314711 268.24936199 -0.16057891 C270.34025868 -0.16105367 272.43115536 -0.16152955 274.52205205 -0.16200657 C275.55896455 -0.16224294 276.59587705 -0.16247932 277.66421114 -0.16272286 C282.91785518 -0.16392408 288.17149921 -0.16513952 293.42514324 -0.16636485 C294.46775128 -0.166605 295.51035931 -0.16684515 296.58456153 -0.16709258 C330.3904064 -0.17498596 364.19621619 -0.1984177 398.00204574 -0.23092079 C433.73171686 -0.26521094 469.46136745 -0.28492932 505.1910553 -0.28822315 C509.11270238 -0.2886407 513.03434945 -0.28912026 516.95599651 -0.28964633 C517.92163755 -0.28976952 518.88727858 -0.28989271 519.88218146 -0.29001964 C535.429462 -0.29235275 550.97670185 -0.30801901 566.52396788 -0.32848817 C582.14957864 -0.3487342 597.77514046 -0.35422928 613.4007619 -0.34471754 C622.68558753 -0.33949772 631.97025035 -0.34540273 641.25505258 -0.36725221 C647.457986 -0.3807469 653.66080718 -0.3796951 659.86374168 -0.36685025 C663.39759156 -0.3599447 666.93112989 -0.35931412 670.46495211 -0.37641034 C674.27570323 -0.39146919 678.08563451 -0.38189668 681.89636517 -0.36618346 C682.98804794 -0.37640567 684.07973071 -0.38662787 685.20449477 -0.39715984 C696.5159861 -0.29522183 705.15866385 3.47071621 714.1580534 10.12880117 C715.0243034 10.70630117 715.8905534 11.28380117 716.7830534 11.87880117 C723.93202874 18.65151464 730.66323984 29.11065075 731.28685457 39.21594512 C731.28953742 40.34388359 731.28953742 40.34388359 731.29227448 41.4946087 C731.29673232 42.3666381 731.30119016 43.2386675 731.30578309 44.13712204 C731.30550655 45.56749562 731.30550655 45.56749562 731.30522442 47.02676564 C731.30890111 48.04331021 731.31257779 49.05985478 731.3163659 50.10720372 C731.32740598 53.52399454 731.33124716 56.94075495 731.33505535 60.35756093 C731.3413198 62.80332709 731.34796658 65.2490923 731.35496807 67.69485646 C731.37419718 75.04221167 731.38479707 82.3895588 731.39369586 89.73693177 C731.39808209 93.19978479 731.40344808 96.66263629 731.40868473 100.1254881 C731.42569624 111.64207213 731.440189 123.15865521 731.44743347 134.67524987 C731.44934327 137.66277805 731.45126361 140.65030622 731.45321941 143.63783437 C731.45370315 144.38034064 731.45418689 145.12284691 731.45468529 145.88785338 C731.46298031 157.9079548 731.4883086 169.92795653 731.52080009 181.94801445 C731.55391055 194.29810172 731.57188588 206.6481384 731.57507771 218.99827027 C731.57723926 225.92859337 731.58593553 232.85877114 731.61153889 239.78905088 C731.63558177 246.3118978 731.63904658 252.83453083 731.6287775 259.35742933 C731.62828239 261.74746871 731.63459557 264.13752101 731.64833355 266.52752095 C731.66608307 269.7993085 731.65893044 273.07016208 731.64580059 276.34195119 C731.66225446 277.7489022 731.66225446 277.7489022 731.67904073 279.18427646 C731.57490829 289.98821104 727.49356817 298.56541307 721.1580534 307.12880117 C720.5805534 307.99505117 720.0030534 308.86130117 719.4080534 309.75380117 C712.56047987 316.98179544 702.03735712 323.70123789 691.82572221 324.25536301 C690.52198433 324.25647147 690.52198433 324.25647147 689.1919083 324.25760233 C688.18377898 324.26087453 687.17564966 324.26414672 686.13697097 324.26751807 C685.02918588 324.26603445 683.92140079 324.26455083 682.78004646 324.26302224 C681.59855344 324.26537447 680.41706042 324.2677267 679.19976458 324.27015021 C675.90472492 324.27568041 672.60973843 324.27671121 669.31469781 324.27587281 C665.73571696 324.27604215 662.15674488 324.28194654 658.57776839 324.28711367 C651.47224888 324.29644765 644.3667356 324.30036306 637.26121072 324.30263263 C628.7529993 324.30559263 620.24479616 324.31428884 611.73658908 324.32304691 C591.1702473 324.34390058 570.60390407 324.35436252 550.03755417 324.36317652 C540.31027207 324.36738168 530.58299058 324.37260384 520.855709 324.37786105 C487.56534523 324.39575195 454.27498128 324.41074851 420.98461342 324.41818124 C418.89425726 324.418656 416.8039011 324.41913189 414.71354494 324.4196089 C413.15858496 324.41996347 413.15858496 324.41996347 411.57221165 324.42032519 C406.31998246 324.42152641 401.06775328 324.42274185 395.8155241 324.42396718 C394.77319895 324.42420733 393.73087381 324.42444748 392.65696305 324.42469491 C358.85780123 324.43258888 325.05867449 324.45602236 291.25952798 324.48852313 C255.53447778 324.52281317 219.8094481 324.54253161 184.08438116 324.54582548 C180.16331135 324.54624303 176.24224156 324.54672259 172.32117176 324.54724866 C171.35567723 324.54737185 170.3901827 324.54749504 169.39543076 324.54762197 C153.85099466 324.54995502 138.30659928 324.56562081 122.76217771 324.58609051 C107.14004962 324.6063363 91.51797048 324.61183171 75.8958317 324.60231987 C66.61322272 324.59710008 57.33077659 324.60300498 48.04819101 324.62485455 C41.8467706 324.63834922 35.64546244 324.63729744 29.44404095 324.62445259 C25.91107283 324.61754706 22.37841635 324.61691637 18.8454759 324.63401268 C15.03568654 324.64907156 11.22671721 324.639499 7.41694832 324.62378579 C6.3255514 324.634008 5.23415447 324.64423021 4.10968491 324.65476218 C-7.20083999 324.55280741 -15.84338047 320.78627692 -24.8419466 314.12880117 C-25.7081966 313.55130117 -26.5744466 312.97380117 -27.4669466 312.37880117 C-34.61592194 305.60608769 -41.34713304 295.14695158 -41.97074777 285.04165721 C-41.97253634 284.28969823 -41.97432491 283.53773925 -41.97616768 282.76299363 C-41.98062552 281.89096423 -41.98508337 281.01893483 -41.9896763 280.1204803 C-41.98949193 279.16689791 -41.98930757 278.21331552 -41.98911762 277.23083669 C-41.99279431 276.21429212 -41.996471 275.19774756 -42.0002591 274.15039861 C-42.01129918 270.7336078 -42.01514036 267.31684739 -42.01894855 263.9000414 C-42.025213 261.45427524 -42.03185979 259.00851003 -42.03886127 256.56274587 C-42.05809039 249.21539067 -42.06869028 241.86804354 -42.07758906 234.52067056 C-42.0819753 231.05781754 -42.08734129 227.59496605 -42.09257793 224.13211423 C-42.10958945 212.6155302 -42.1240822 201.09894712 -42.13132668 189.58235246 C-42.13323647 186.59482428 -42.13515682 183.60729611 -42.13711262 180.61976796 C-42.13759636 179.87726169 -42.1380801 179.13475542 -42.1385785 178.36974896 C-42.14687351 166.34964754 -42.1722018 154.32964581 -42.2046933 142.30958789 C-42.23780375 129.95950062 -42.25577908 117.60946394 -42.25897092 105.25933206 C-42.26113247 98.32900897 -42.26982873 91.39883119 -42.29543209 84.46855146 C-42.31947497 77.94570453 -42.32293978 71.42307151 -42.31267071 64.90017301 C-42.31217559 62.51013363 -42.31848878 60.12008133 -42.33222675 57.73008138 C-42.34997628 54.45829383 -42.34282364 51.18744026 -42.32969379 47.91565114 C-42.34066304 46.9776838 -42.35163229 46.03971646 -42.36293393 45.07332587 C-42.2588015 34.2693913 -38.17746137 25.69218926 -31.8419466 17.12880117 C-30.9756966 15.82942617 -30.9756966 15.82942617 -30.0919466 14.50380117 C-22.59001792 6.58509866 -11.10252313 0.00943792 0 0 Z " fill="#FEFEFE" transform="translate(115.84194660186768,238.87119883298874)"/>
<path d="M0 0 C1.00588203 -0.00327219 2.01176405 -0.00654439 3.04812735 -0.00991574 C4.15853945 -0.00843212 5.26895155 -0.00694849 6.4130125 -0.00541991 C7.59335168 -0.00777214 8.77369086 -0.01012437 9.98979789 -0.01254788 C13.28626356 -0.01808417 16.58267614 -0.01910818 19.87914279 -0.01827047 C23.45793116 -0.01843964 27.03671073 -0.02434211 30.61549473 -0.02951133 C37.72276113 -0.0388507 44.8300213 -0.04276163 51.93729307 -0.0450303 C60.44678968 -0.04798892 68.95627799 -0.05668436 77.46577025 -0.06544458 C98.03657664 -0.08630451 118.60738449 -0.09676141 139.17819899 -0.10557419 C148.90723845 -0.10977869 158.6362773 -0.11500096 168.36531624 -0.12025872 C201.65999674 -0.13815069 234.95467741 -0.15314711 268.24936199 -0.16057891 C270.34025868 -0.16105367 272.43115536 -0.16152955 274.52205205 -0.16200657 C275.55896455 -0.16224294 276.59587705 -0.16247932 277.66421114 -0.16272286 C282.91785518 -0.16392408 288.17149921 -0.16513952 293.42514324 -0.16636485 C294.46775128 -0.166605 295.51035931 -0.16684515 296.58456153 -0.16709258 C330.3904064 -0.17498596 364.19621619 -0.1984177 398.00204574 -0.23092079 C433.73171686 -0.26521094 469.46136745 -0.28492932 505.1910553 -0.28822315 C509.11270238 -0.2886407 513.03434945 -0.28912026 516.95599651 -0.28964633 C517.92163755 -0.28976952 518.88727858 -0.28989271 519.88218146 -0.29001964 C535.429462 -0.29235275 550.97670185 -0.30801901 566.52396788 -0.32848817 C582.14957864 -0.3487342 597.77514046 -0.35422928 613.4007619 -0.34471754 C622.68558753 -0.33949772 631.97025035 -0.34540273 641.25505258 -0.36725221 C647.457986 -0.3807469 653.66080718 -0.3796951 659.86374168 -0.36685025 C663.39759156 -0.3599447 666.93112989 -0.35931412 670.46495211 -0.37641034 C674.27570323 -0.39146919 678.08563451 -0.38189668 681.89636517 -0.36618346 C682.98804794 -0.37640567 684.07973071 -0.38662787 685.20449477 -0.39715984 C696.5159861 -0.29522183 705.15866385 3.47071621 714.1580534 10.12880117 C715.0243034 10.70630117 715.8905534 11.28380117 716.7830534 11.87880117 C723.93202874 18.65151464 730.66323984 29.11065075 731.28685457 39.21594512 C731.28953742 40.34388359 731.28953742 40.34388359 731.29227448 41.4946087 C731.29673232 42.3666381 731.30119016 43.2386675 731.30578309 44.13712204 C731.30550655 45.56749562 731.30550655 45.56749562 731.30522442 47.02676564 C731.30890111 48.04331021 731.31257779 49.05985478 731.3163659 50.10720372 C731.32740598 53.52399454 731.33124716 56.94075495 731.33505535 60.35756093 C731.3413198 62.80332709 731.34796658 65.2490923 731.35496807 67.69485646 C731.37419718 75.04221167 731.38479707 82.3895588 731.39369586 89.73693177 C731.39808209 93.19978479 731.40344808 96.66263629 731.40868473 100.1254881 C731.42569624 111.64207213 731.440189 123.15865521 731.44743347 134.67524987 C731.44934327 137.66277805 731.45126361 140.65030622 731.45321941 143.63783437 C731.45370315 144.38034064 731.45418689 145.12284691 731.45468529 145.88785338 C731.46298031 157.9079548 731.4883086 169.92795653 731.52080009 181.94801445 C731.55391055 194.29810172 731.57188588 206.6481384 731.57507771 218.99827027 C731.57723926 225.92859337 731.58593553 232.85877114 731.61153889 239.78905088 C731.63558177 246.3118978 731.63904658 252.83453083 731.6287775 259.35742933 C731.62828239 261.74746871 731.63459557 264.13752101 731.64833355 266.52752095 C731.66608307 269.7993085 731.65893044 273.07016208 731.64580059 276.34195119 C731.66225446 277.7489022 731.66225446 277.7489022 731.67904073 279.18427646 C731.57490829 289.98821104 727.49356817 298.56541307 721.1580534 307.12880117 C720.5805534 307.99505117 720.0030534 308.86130117 719.4080534 309.75380117 C712.56047987 316.98179544 702.03735712 323.70123789 691.82572221 324.25536301 C690.52198433 324.25647147 690.52198433 324.25647147 689.1919083 324.25760233 C688.18377898 324.26087453 687.17564966 324.26414672 686.13697097 324.26751807 C685.02918588 324.26603445 683.92140079 324.26455083 682.78004646 324.26302224 C681.59855344 324.26537447 680.41706042 324.2677267 679.19976458 324.27015021 C675.90472492 324.27568041 672.60973843 324.27671121 669.31469781 324.27587281 C665.73571696 324.27604215 662.15674488 324.28194654 658.57776839 324.28711367 C651.47224888 324.29644765 644.3667356 324.30036306 637.26121072 324.30263263 C628.7529993 324.30559263 620.24479616 324.31428884 611.73658908 324.32304691 C591.1702473 324.34390058 570.60390407 324.35436252 550.03755417 324.36317652 C540.31027207 324.36738168 530.58299058 324.37260384 520.855709 324.37786105 C487.56534523 324.39575195 454.27498128 324.41074851 420.98461342 324.41818124 C418.89425726 324.418656 416.8039011 324.41913189 414.71354494 324.4196089 C413.15858496 324.41996347 413.15858496 324.41996347 411.57221165 324.42032519 C406.31998246 324.42152641 401.06775328 324.42274185 395.8155241 324.42396718 C394.77319895 324.42420733 393.73087381 324.42444748 392.65696305 324.42469491 C358.85780123 324.43258888 325.05867449 324.45602236 291.25952798 324.48852313 C255.53447778 324.52281317 219.8094481 324.54253161 184.08438116 324.54582548 C180.16331135 324.54624303 176.24224156 324.54672259 172.32117176 324.54724866 C171.35567723 324.54737185 170.3901827 324.54749504 169.39543076 324.54762197 C153.85099466 324.54995502 138.30659928 324.56562081 122.76217771 324.58609051 C107.14004962 324.6063363 91.51797048 324.61183171 75.8958317 324.60231987 C66.61322272 324.59710008 57.33077659 324.60300498 48.04819101 324.62485455 C41.8467706 324.63834922 35.64546244 324.63729744 29.44404095 324.62445259 C25.91107283 324.61754706 22.37841635 324.61691637 18.8454759 324.63401268 C15.03568654 324.64907156 11.22671721 324.639499 7.41694832 324.62378579 C6.3255514 324.634008 5.23415447 324.64423021 4.10968491 324.65476218 C-7.20083999 324.55280741 -15.84338047 320.78627692 -24.8419466 314.12880117 C-25.7081966 313.55130117 -26.5744466 312.97380117 -27.4669466 312.37880117 C-34.61592194 305.60608769 -41.34713304 295.14695158 -41.97074777 285.04165721 C-41.97253634 284.28969823 -41.97432491 283.53773925 -41.97616768 282.76299363 C-41.98062552 281.89096423 -41.98508337 281.01893483 -41.9896763 280.1204803 C-41.98949193 279.16689791 -41.98930757 278.21331552 -41.98911762 277.23083669 C-41.99279431 276.21429212 -41.996471 275.19774756 -42.0002591 274.15039861 C-42.01129918 270.7336078 -42.01514036 267.31684739 -42.01894855 263.9000414 C-42.025213 261.45427524 -42.03185979 259.00851003 -42.03886127 256.56274587 C-42.05809039 249.21539067 -42.06869028 241.86804354 -42.07758906 234.52067056 C-42.0819753 231.05781754 -42.08734129 227.59496605 -42.09257793 224.13211423 C-42.10958945 212.6155302 -42.1240822 201.09894712 -42.13132668 189.58235246 C-42.13323647 186.59482428 -42.13515682 183.60729611 -42.13711262 180.61976796 C-42.13759636 179.87726169 -42.1380801 179.13475542 -42.1385785 178.36974896 C-42.14687351 166.34964754 -42.1722018 154.32964581 -42.2046933 142.30958789 C-42.23780375 129.95950062 -42.25577908 117.60946394 -42.25897092 105.25933206 C-42.26113247 98.32900897 -42.26982873 91.39883119 -42.29543209 84.46855146 C-42.31947497 77.94570453 -42.32293978 71.42307151 -42.31267071 64.90017301 C-42.31217559 62.51013363 -42.31848878 60.12008133 -42.33222675 57.73008138 C-42.34997628 54.45829383 -42.34282364 51.18744026 -42.32969379 47.91565114 C-42.34066304 46.9776838 -42.35163229 46.03971646 -42.36293393 45.07332587 C-42.2588015 34.2693913 -38.17746137 25.69218926 -31.8419466 17.12880117 C-30.9756966 15.82942617 -30.9756966 15.82942617 -30.0919466 14.50380117 C-22.59001792 6.58509866 -11.10252313 0.00943792 0 0 Z M-21.8419466 29.12880117 C-26.48900031 36.49130193 -26.99120928 43.27410284 -26.99584675 51.79861623 C-27.000229 52.77855768 -27.00461126 53.75849914 -27.00912631 54.76813579 C-27.02249157 58.0551076 -27.02868809 61.34205261 -27.0348177 64.62904531 C-27.04272047 66.98466787 -27.05098953 69.34028923 -27.05959797 71.69590932 C-27.08353618 78.76698137 -27.09874268 85.83805423 -27.11165804 92.90915415 C-27.11661227 95.57477323 -27.1220592 98.2403913 -27.12747335 100.90600948 C-27.15117778 112.66573493 -27.17135984 124.42546243 -27.18313885 136.18520623 C-27.18606829 139.06117998 -27.18902999 141.93715368 -27.19204426 144.81312734 C-27.19279031 145.52789027 -27.19353636 146.24265319 -27.19430502 146.9790756 C-27.20694954 158.54904187 -27.24016311 170.11885415 -27.28184609 181.68874849 C-27.32433819 193.58121623 -27.34784223 205.47360528 -27.35305941 217.36614871 C-27.35646526 224.03773822 -27.36869517 230.7091186 -27.40116215 237.38064939 C-27.43128581 243.66062951 -27.43753887 249.94019101 -27.42577839 256.22022802 C-27.42555802 258.51955205 -27.43383272 260.81889575 -27.45143223 263.11815244 C-27.61626641 281.6834092 -27.61626641 281.6834092 -19.66616535 298.12880117 C-12.07264442 305.23644782 -5.40356477 309.24686076 5.18953806 309.258753 C6.18675769 309.26228142 7.18397733 309.26580984 8.21141574 309.26944518 C9.30184885 309.2682474 10.39228197 309.26704963 11.51575851 309.26581556 C12.68291042 309.26846738 13.85006233 309.27111921 15.05258247 309.27385139 C18.30273779 309.28020696 21.55286054 309.28208067 24.80302095 309.28207417 C28.33510942 309.28314396 31.86718765 309.28993511 35.39927047 309.29598087 C42.40948974 309.30705403 49.41970401 309.31270449 56.42993048 309.31668975 C64.82493481 309.32169937 73.21992942 309.33242693 81.61492802 309.34317148 C101.90667861 309.36880022 122.19843298 309.38383655 142.4901951 309.39668195 C149.21065523 309.40093658 155.93111507 309.4055023 162.65157485 309.41026527 C198.38153067 309.43552422 234.11148695 309.45757323 269.84144974 309.46999341 C278.11959173 309.47291476 286.39773371 309.47588228 294.67587566 309.47889882 C296.21856254 309.47945519 296.21856254 309.47945519 297.79241481 309.48002279 C331.14139656 309.49217972 364.49032556 309.52312651 397.83928253 309.56482035 C432.12100278 309.60760222 466.40269516 309.63423364 500.68444283 309.63946813 C505.52584004 309.64020858 510.36723721 309.64111926 515.20863438 309.6421259 C516.16146663 309.64231652 517.11429888 309.64250713 518.09600484 309.64270352 C533.4328474 309.64621767 548.76962388 309.66651807 564.10644217 309.69292254 C579.52123351 309.71906119 594.93594847 309.7267971 610.3507588 309.71582125 C619.50877998 309.70984286 628.66654216 309.71776446 637.82452416 309.74565209 C643.94413444 309.76290839 650.06356818 309.76195139 656.18318225 309.7462844 C659.66864147 309.73787645 663.15360658 309.73727583 666.63901991 309.75889586 C670.39960744 309.77798974 674.15890223 309.76621835 677.9194603 309.74683362 C678.99350525 309.75968284 680.0675502 309.77253206 681.17414197 309.78577065 C691.12526046 309.67306725 699.61566624 306.73411225 707.0955534 300.06630117 C717.80253237 288.12871862 716.86792411 274.92304673 716.77328777 259.78627187 C716.77679279 257.42474642 716.78245564 255.06322333 716.79010296 252.70170766 C716.80430324 246.31549586 716.78733699 239.92971708 716.76381779 233.54354674 C716.74570183 227.52876582 716.74895815 221.51402097 716.75129563 215.49922272 C716.75497762 203.583276 716.73422892 191.66749665 716.70004559 179.7516039 C716.6669371 168.205988 716.65279203 156.66054757 716.65902996 145.11488515 C716.66580242 132.51806068 716.66331121 119.92130947 716.64367056 107.32449579 C716.64263107 106.65771841 716.64159159 105.99094102 716.6405206 105.30395826 C716.63842983 103.96504683 716.63631886 102.62613543 716.63418743 101.28722406 C716.62730958 96.64007828 716.62669067 91.99295586 716.62806988 87.34580594 C716.62894995 81.08711514 716.61469928 74.82863328 716.58884335 68.56999761 C716.58169288 66.27588395 716.57959251 63.98174804 716.58296108 61.68762571 C716.58668724 58.55140328 716.57188847 55.41578682 716.55246258 52.2796343 C716.56045447 50.924658 716.56045447 50.924658 716.56860781 49.54230845 C716.4577572 39.13834578 713.05434531 31.34973742 706.1580534 23.56630117 C698.25429948 16.07933839 688.43465798 14.38498147 677.93063354 14.50518209 C676.16644214 14.49518007 676.16644214 14.49518007 674.3666105 14.48497599 C671.12360633 14.4716023 667.88156828 14.48040464 664.63861841 14.49886612 C661.10248884 14.51342743 657.56645538 14.49879981 654.03032893 14.48798114 C647.84003431 14.47303481 641.64996702 14.47657885 635.4596777 14.49239904 C626.25459101 14.51585906 617.04967494 14.51060612 607.84457282 14.49969014 C591.40366485 14.48111696 574.96286533 14.4908045 558.52196622 14.51216777 C544.13609882 14.53072864 529.75026784 14.53914616 515.36438847 14.53759938 C513.93271605 14.53746187 513.93271605 14.53746187 512.47212095 14.53732158 C508.59768425 14.53692842 504.72324756 14.5364788 500.84881087 14.53595019 C464.51105661 14.53108008 428.17336697 14.55373556 391.83563279 14.58990642 C359.54961965 14.62190695 327.26366169 14.63394863 294.97763348 14.6278246 C292.90411263 14.62743776 290.83059178 14.6270513 288.75707094 14.62666523 C287.7319621 14.62647389 286.70685326 14.62628254 285.65068052 14.6260854 C280.49044544 14.62513106 275.33021037 14.6242167 270.16997528 14.62334615 C268.64292878 14.62308546 268.64292878 14.62308546 267.08503286 14.6228195 C240.10653348 14.61846507 213.12804005 14.62847687 186.14954489 14.64318401 C184.71014836 14.64396422 184.71014836 14.64396422 183.24167312 14.64476019 C181.80490184 14.64553921 181.80490184 14.64553921 180.33910489 14.64633396 C178.90496082 14.64711057 178.90496082 14.64711057 177.44184414 14.64790287 C175.51636116 14.64895096 173.59087818 14.65001117 171.66539522 14.65108359 C158.23918166 14.65846572 144.81297654 14.66055213 131.38676122 14.65908959 C114.08723497 14.6572445 96.78776072 14.66530027 79.48825148 14.69073105 C70.33852499 14.70390139 61.1888815 14.70890378 52.03914756 14.70209251 C45.92911967 14.69838357 39.81916758 14.70557779 33.70915994 14.72168489 C30.22694618 14.73056697 26.74490328 14.73474563 23.26268587 14.72575772 C19.5109319 14.71860452 15.75966673 14.72981195 12.00794983 14.74569112 C10.92802477 14.73923932 9.84809971 14.73278751 8.73544964 14.7261402 C-4.01592431 14.82781328 -13.59720107 19.24311114 -21.8419466 29.12880117 Z " fill="#000000" transform="translate(115.84194660186768,238.87119883298874)"/>
</svg>
