<?xml version="1.0" encoding="UTF-8"?>
<svg version="1.1" xmlns="http://www.w3.org/2000/svg" width="920" height="800">
<path d="M0 0 C4.28727181 1.41968226 7.68168035 3.91770749 11.37890625 6.47290039 C12.64141457 7.33062294 12.64141457 7.33062294 13.9294281 8.20567322 C16.70143802 10.09091317 19.46578538 11.98709265 22.23046875 13.88305664 C25.14430381 15.8680313 28.06014822 17.8500302 30.97608948 19.83190918 C32.9718672 21.1886489 34.96700836 22.54632544 36.96153259 23.90490723 C46.00079053 30.05900642 55.09317049 36.13117283 64.20172119 42.18206787 C77.09354326 50.74694434 89.96043477 59.34429753 102.73046875 68.09008789 C103.44847656 68.56526855 104.16648437 69.04044922 104.90625 69.5300293 C106.85546875 70.94555664 106.85546875 70.94555664 108.3984375 72.57592773 C110.21638678 74.37810431 111.41150817 75.13574462 113.85546875 75.94555664 C116.83359854 75.59080868 116.83359854 75.59080868 120.23095703 74.59228516 C120.91361696 74.41042789 121.59627689 74.22857063 122.29962349 74.04120255 C124.8234601 73.36049613 127.33937842 72.65435912 129.85546875 71.94555664 C130.87805534 71.66013189 131.90064194 71.37470715 132.954216 71.08063316 C141.19965148 68.77550174 149.4320557 66.42585314 157.66269064 64.06860447 C161.25652357 63.04009491 164.85133536 62.01501863 168.44607544 60.98968506 C177.5417511 58.39471244 186.63617721 55.79537516 195.73046875 53.19555664 C205.6009267 50.37385865 215.47159531 47.55291138 225.34373295 44.73709464 C229.61562681 43.51846473 233.88678027 42.29728279 238.15738463 41.07414198 C240.16578227 40.49934242 242.17451618 39.92573692 244.18341064 39.35267639 C246.63431155 38.65352146 249.08466931 37.95245879 251.53439331 37.24919128 C253.14459351 36.79087669 253.14459351 36.79087669 254.787323 36.32330322 C256.19138303 35.92182005 256.19138303 35.92182005 257.62380791 35.5122261 C259.85546875 34.94555664 259.85546875 34.94555664 261.85546875 34.94555664 C260.58745227 44.19469172 259.1340529 53.38374316 257.48535156 62.57275391 C257.135663 64.53960233 256.78597895 66.50645157 256.43646669 68.47333133 C256.06617612 70.55529128 255.69485154 72.63706486 255.32337189 74.71881294 C254.54632299 79.07655106 253.7753723 83.4353547 253.00579834 87.79441833 C252.87519587 88.53404786 252.7445934 89.27367739 252.61003327 90.03571993 C252.34337273 91.54597252 252.07672844 93.05622797 251.81010008 94.56648624 C250.02216066 104.69278486 248.2304306 114.81836596 246.42138672 124.94091797 C245.19510929 131.80284851 243.97869522 138.6664463 242.77370906 145.53214878 C242.13732544 149.15578603 241.49591879 152.77837142 240.84238434 156.39895821 C240.11586204 160.42438364 239.41104609 164.45331691 238.70800781 168.48291016 C238.48889236 169.67723663 238.26977692 170.87156311 238.04402161 172.1020813 C237.85613571 173.19939072 237.66824982 174.29670013 237.47467041 175.42726135 C237.30581455 176.37788232 237.13695869 177.32850328 236.96298599 178.30793095 C236.7572052 183.35616977 239.54538742 187.34108013 241.98828125 191.60961914 C242.6212915 192.71772949 243.25430176 193.82583984 243.90649414 194.9675293 C244.59761384 196.16865649 245.28894445 197.36966234 245.98046875 198.57055664 C246.69983355 199.82492529 247.41915245 201.07932026 248.13842773 202.33374023 C253.63715338 211.90536793 259.24825339 221.40786259 264.89599609 230.89233398 C271.49960488 241.99284883 277.99524762 253.15694542 284.37304688 264.38891602 C285.27969763 265.95256006 286.21487336 267.50061966 287.19726562 269.01782227 C288.99322597 271.82688844 289.89730062 273.44173312 289.61694336 276.81835938 C288.84367872 279.99397552 287.81079326 282.29538866 286.1875 285.12133789 C285.63118896 286.10118652 285.07487793 287.08103516 284.50170898 288.09057617 C283.59400757 289.658479 283.59400757 289.658479 282.66796875 291.25805664 C281.38385749 293.51181642 280.10001066 295.7657269 278.81640625 298.01977539 C278.15087003 299.18181015 277.48517979 300.34375671 276.81933594 301.50561523 C273.77385178 306.84013435 270.78570029 312.20632998 267.79296875 317.57055664 C263.80753575 324.69034345 259.81638246 331.80692521 255.80712891 338.91333008 C254.72560779 340.83152392 253.64708986 342.75141453 252.57177734 344.6730957 C249.98446574 349.27685871 247.33776452 353.81773235 244.52734375 358.28930664 C244.00358154 359.13895996 243.47981934 359.98861328 242.94018555 360.86401367 C241.95924092 362.44705534 240.95688921 364.01712769 239.92895508 365.57006836 C237.46739375 369.52821905 237.46739375 369.52821905 237.0355835 374.05198669 C237.21945618 374.76766312 237.40332886 375.48333954 237.59277344 376.22070312 C237.79266373 377.00890442 237.99255402 377.79710571 238.19850159 378.60919189 C239.15876198 382.02415485 240.18772494 385.40283919 241.3046875 388.76977539 C241.55025894 389.52161606 241.79583038 390.27345673 242.04884338 391.04808044 C242.58965667 392.70149461 243.13249886 394.35424621 243.67712402 396.00640869 C244.56638054 398.70407924 245.45017501 401.40349237 246.33300781 404.10327148 C249.70306756 414.39775338 253.09812436 424.68399176 256.49509525 434.96961689 C258.58238736 441.28990657 260.66705577 447.61105895 262.75058651 453.93258953 C264.31165069 458.66768643 265.87712331 463.40129748 267.44586849 468.13385487 C268.43875208 471.13204217 269.42800523 474.13141885 270.41639519 477.13109016 C270.87965977 478.53448097 271.34443546 479.93737402 271.81085396 481.33971977 C274.18551395 488.48192475 276.40197466 495.55007387 277.85546875 502.94555664 C270.83320993 502.18462876 264.10979905 500.31583619 257.28515625 498.54321289 C255.91373397 498.1897999 254.54223112 497.83669946 253.1706543 497.48388672 C249.4619392 496.52880596 245.75448447 495.56891525 242.0472641 494.6080513 C238.94524638 493.8047028 235.84249267 493.00421827 232.73973274 492.20374203 C206.44584012 485.41972915 180.16866286 478.57093023 153.89794922 471.69775391 C152.49137623 471.3299057 151.08480076 470.96206696 149.67822266 470.59423828 C147.1010338 469.92028432 144.52408157 469.24544897 141.94726562 468.57006836 C139.67004988 467.97436445 137.39174203 467.38281418 135.11218262 466.79614258 C132.88823776 466.21529443 130.66996955 465.61237852 128.45715332 464.99047852 C127.3863855 464.69794189 126.31561768 464.40540527 125.21240234 464.10400391 C124.26400482 463.83636734 123.3156073 463.56873077 122.33847046 463.29298401 C119.5674632 462.65761708 119.5674632 462.65761708 116.33984375 464.81274414 C114.91351401 466.22901161 114.91351401 466.22901161 113.60546875 467.82055664 C112.60352218 468.86806103 111.60091805 469.91493686 110.59765625 470.96118164 C110.12811523 471.47745117 109.65857422 471.9937207 109.17480469 472.52563477 C107.47622685 474.35371188 105.63686605 475.96275169 103.73046875 477.57055664 C100.74149417 480.16265493 97.7922534 482.7944167 94.85546875 485.44555664 C89.53212182 490.24463456 84.16683536 494.98633614 78.703125 499.62524414 C71.57722661 505.68335962 64.61607459 511.87452778 57.76953125 518.24633789 C54.72137759 521.06976172 51.64623856 523.8484023 48.48046875 526.53930664 C47.04852283 527.77849061 45.69450684 529.10651855 44.35546875 530.44555664 C40.7541018 532.60637681 37.8015031 531.74104725 33.85546875 530.94555664 C29.44419426 529.8198807 25.09028011 528.52053311 20.73046875 527.21118164 C19.41346525 526.82066687 18.0962858 526.43074511 16.77894592 526.04136658 C13.94999877 525.20404806 11.122194 524.36301187 8.29519653 523.51913452 C3.81164417 522.18122267 -0.67504577 520.85406207 -5.16235352 519.52880859 C-11.51288224 517.65247958 -17.86263199 515.77354884 -24.21142578 513.89135742 C-25.02350841 513.65060706 -25.83559103 513.4098567 -26.67228222 513.16181087 C-30.85360452 511.92199056 -35.03469315 510.68138678 -39.21551514 509.43988037 C-48.42596025 506.70506169 -57.63810774 503.9762468 -66.85519981 501.26390266 C-71.64967368 499.8525111 -76.44096509 498.43092064 -81.23015499 497.00170803 C-84.2150143 496.11353835 -87.20261502 495.23489713 -90.19107246 494.35891914 C-91.57922241 493.94995413 -92.9662281 493.53708202 -94.35197258 493.12003899 C-96.24706986 492.55032952 -98.14676 491.99596505 -100.04663086 491.44238281 C-101.10949814 491.12742355 -102.17236542 490.81246429 -103.2674408 490.48796082 C-108.11440034 489.57418659 -111.50866208 490.93938656 -115.81689453 493.10351562 C-116.71618683 493.55166122 -117.61547913 493.99980682 -118.54202271 494.46153259 C-119.50655365 494.94997147 -120.47108459 495.43841034 -121.46484375 495.94165039 C-122.47811737 496.44922379 -123.49139099 496.95679718 -124.53536987 497.47975159 C-126.68693362 498.55889551 -128.83705596 499.64091734 -130.98583984 500.72558594 C-134.20632461 502.35115256 -137.43080402 503.96853231 -140.65625 505.58422852 C-149.86208593 510.20475866 -159.04322861 514.86125409 -168.13671875 519.69946289 C-176.61165716 524.20142213 -185.18326635 528.50500101 -193.76953125 532.78930664 C-194.46958157 533.13862307 -195.16963188 533.48793949 -195.89089584 533.84784126 C-201.70961203 536.75016073 -207.53093044 539.64724778 -213.35229492 542.54425049 C-238.38059801 554.98695155 -238.38059801 554.98695155 -263.14453125 567.94555664 C-264.09270218 568.45357063 -264.09270218 568.45357063 -265.06002808 568.97184753 C-267.60879159 570.33765228 -270.15571081 571.70670477 -272.69921875 573.08227539 C-275.77522973 574.16821537 -277.09717184 574.11615971 -280.14453125 572.94555664 C-282.7578125 570.68774414 -282.7578125 570.68774414 -285.45703125 567.82055664 C-288.49707438 564.6163068 -291.52032775 561.57687639 -294.875 558.70336914 C-300.81407916 553.57739075 -306.22078712 547.91359992 -311.72265625 542.32836914 C-315.42638493 538.59055707 -319.11524431 534.90080794 -323.11328125 531.47680664 C-329.21302143 526.24670813 -334.73048977 520.40140647 -340.3671875 514.68383789 C-344.92451879 510.08670459 -349.50291412 505.61763619 -354.45849609 501.44946289 C-356.21088993 499.88636615 -357.71255615 498.20096484 -359.26953125 496.44555664 C-361.85590022 493.60864982 -361.85590022 493.60864982 -364.88549805 494.10400391 C-368.49706376 495.03658815 -371.78715444 496.35934709 -375.1640625 497.91040039 C-375.84239136 498.21486084 -376.52072021 498.51932129 -377.21960449 498.83300781 C-378.69274548 499.49507873 -380.16446994 500.16030858 -381.63491821 500.82833862 C-384.83351455 502.28116074 -388.03917887 503.7180781 -391.24443054 505.15614319 C-392.94360111 505.91866247 -394.64241706 506.68197239 -396.34089661 507.44602966 C-405.68795415 511.64869295 -415.07059177 515.76928753 -424.45703125 519.88305664 C-426.1755466 520.63694125 -427.89405243 521.39084758 -429.61254883 522.14477539 C-443.23853035 528.1202216 -456.87755945 534.06566299 -470.51904297 540.00561523 C-483.40886339 545.61912658 -496.28317856 551.2670774 -509.14453125 556.94555664 C-510.16947535 553.78281375 -510.10058219 551.88607756 -509.14414978 548.71867371 C-508.89650375 547.88078308 -508.64885773 547.04289246 -508.39370728 546.17961121 C-507.97247086 544.81114799 -507.97247086 544.81114799 -507.54272461 543.41503906 C-507.25324448 542.44631866 -506.96376434 541.47759827 -506.66551208 540.47952271 C-505.69797206 537.25041519 -504.71615956 534.02582785 -503.734375 530.80102539 C-503.0481402 528.52064006 -502.3628185 526.23997978 -501.67835999 523.95906067 C-499.85950216 517.90645461 -498.02868452 511.85753065 -496.19525146 505.80932617 C-494.3897781 499.84697783 -492.59455644 493.88154882 -490.79882812 487.91625977 C-490.08895828 485.55973113 -489.37904824 483.2032146 -488.6690979 480.84671021 C-487.60832814 477.32540363 -486.54777965 473.80403109 -485.48786545 470.28246689 C-484.43365755 466.77987479 -483.37888762 463.27745273 -482.32373047 459.77514648 C-481.97893835 458.63058928 -481.63414623 457.48603207 -481.27890587 456.30679131 C-479.18476837 449.36504287 -477.06956431 442.4300937 -474.93838024 435.49963284 C-473.58851094 431.10302949 -472.24976198 426.70308731 -470.91299629 422.30248451 C-470.2830538 420.23899007 -469.64786018 418.17709071 -469.00718498 416.11690331 C-468.13028721 413.2958173 -467.27128026 410.46986926 -466.41625977 407.64208984 C-466.15352579 406.81321321 -465.89079182 405.98433659 -465.62009621 405.13034248 C-464.2515225 400.98319392 -464.2515225 400.98319392 -464.98631191 396.83581829 C-466.43806056 394.46650472 -468.13658617 392.55308673 -470.01953125 390.50805664 C-470.82519531 389.62891602 -471.63085938 388.74977539 -472.4609375 387.84399414 C-473.34652344 386.88750977 -474.23210937 385.93102539 -475.14453125 384.94555664 C-476.09144057 383.91718212 -477.03804764 382.88852922 -477.984375 381.85961914 C-480.51584843 379.11015422 -483.05298156 376.36597607 -485.59179688 373.62329102 C-488.13219605 370.87838172 -490.66985462 368.13094445 -493.20703125 365.38305664 C-493.95303589 364.575177 -493.95303589 364.575177 -494.71411133 363.75097656 C-498.48575586 359.66436188 -502.2449026 355.56643684 -506.00024414 351.46484375 C-508.86921373 348.33276966 -511.74487367 345.20702448 -514.62817383 342.08813477 C-515.63259043 341.00011112 -516.63506088 339.91028737 -517.63549805 338.81860352 C-520.17799105 336.04815711 -522.74808382 333.31615079 -525.3828125 330.63305664 C-525.89908203 330.09745117 -526.41535156 329.5618457 -526.94726562 329.01000977 C-528.37440461 327.53117622 -529.81570068 326.06604291 -531.2578125 324.60180664 C-533.14453125 321.94555664 -533.14453125 321.94555664 -533.01928711 319.69189453 C-531.9020778 316.18436244 -530.07882943 313.36953258 -528.03515625 310.34790039 C-527.60476547 309.69751297 -527.17437469 309.04712555 -526.73094177 308.37702942 C-525.29281137 306.20739627 -523.84362962 304.04537644 -522.39453125 301.88305664 C-521.37523249 300.34942526 -520.35677797 298.81523247 -519.33911133 297.28051758 C-517.13455598 293.95746105 -514.92605645 290.63707049 -512.71533203 287.31811523 C-508.96419554 281.68095278 -505.23790421 276.02758379 -501.515625 270.37133789 C-500.87611908 269.39966171 -500.23661316 268.42798553 -499.57772827 267.42686462 C-498.29365628 265.47562886 -497.00964911 263.52435045 -495.72570801 261.57302856 C-471.86284674 225.31303169 -471.86284674 225.31303169 -466.9453125 218.41040039 C-466.52185547 217.80905273 -466.09839844 217.20770508 -465.66210938 216.58813477 C-464.82779664 215.40765662 -463.98050119 214.23628744 -463.12304688 213.07250977 C-461.15086982 210.23071134 -460.09108541 208.56707982 -460.39263916 205.06030273 C-461.12366703 202.0319876 -462.06941921 199.56187361 -463.43652344 196.76977539 C-463.91148254 195.79016846 -464.38644165 194.81056152 -464.87579346 193.80126953 C-465.39244568 192.75575928 -465.9090979 191.71024902 -466.44140625 190.63305664 C-466.97820007 189.53147217 -467.5149939 188.4298877 -468.0680542 187.29492188 C-469.75296469 183.84153336 -471.44835565 180.39342352 -473.14453125 176.94555664 C-474.16929943 174.84953462 -475.19340932 172.7531906 -476.21679688 170.65649414 C-478.74430773 165.48310874 -481.28097295 160.31427661 -483.8210144 155.14703369 C-486.54246913 149.60996247 -489.25962232 144.07078165 -491.9765625 138.53149414 C-492.51007828 137.4437973 -493.04359406 136.35610046 -493.59327698 135.23544312 C-499.93877804 122.29346712 -506.24215844 109.3313208 -512.50341797 96.34838867 C-513.59217137 94.09086934 -514.68232717 91.83402579 -515.77392578 89.57788086 C-517.23500523 86.55661154 -518.69085723 83.53289449 -520.14453125 80.50805664 C-520.56081787 79.64841309 -520.97710449 78.78876953 -521.40600586 77.90307617 C-524.14453125 72.17624978 -524.14453125 72.17624978 -524.14453125 69.94555664 C-509.2604675 71.42879245 -494.47189335 73.54169389 -479.66965866 75.67573929 C-475.2726875 76.3095999 -470.87500665 76.93844009 -466.47720337 77.5664978 C-453.98736236 79.35094079 -441.49846619 81.14193948 -429.01025391 82.93774414 C-422.07928502 83.93437265 -415.14774971 84.9269646 -408.21558917 85.91527116 C-403.85003073 86.53790744 -399.48522588 87.16551288 -395.12092853 87.79692483 C-391.77054844 88.28016601 -388.41913544 88.7560851 -385.06787109 89.2331543 C-383.87191315 89.40767624 -382.6759552 89.58219818 -381.4437561 89.76200867 C-371.0071395 91.78635923 -371.0071395 91.78635923 -361.34375 89.07446289 C-360.51488281 88.22754883 -359.68601562 87.38063477 -358.83203125 86.50805664 C-355.19429641 82.94066474 -351.56294714 79.56554024 -347.58203125 76.38305664 C-344.00624656 73.49706871 -340.54051807 70.5411086 -337.14453125 67.44555664 C-333.82463639 64.42273243 -330.44689013 61.52043503 -326.95703125 58.69555664 C-320.51741132 53.48037149 -314.28997722 48.03223912 -308.04101562 42.59204102 C-303.34668604 38.5165314 -298.61554384 34.48371817 -293.89160156 30.44262695 C-292.10617501 28.91268905 -290.3241698 27.37884864 -288.54296875 25.84399414 C-281.49179976 19.77297681 -274.3820087 13.79462005 -267.14453125 7.94555664 C-262.90304411 9.43442131 -259.38689038 11.63732911 -255.70703125 14.16430664 C-254.36638414 15.07129425 -253.02520538 15.97749635 -251.68359375 16.88305664 C-250.95688477 17.37483398 -250.23017578 17.86661133 -249.48144531 18.37329102 C-245.20264714 21.25204783 -240.89057868 24.08035653 -236.58203125 26.91430664 C-234.69398705 28.15776075 -232.80596654 29.40125082 -230.91796875 30.64477539 C-228.99352203 31.91175176 -227.06904271 33.17867861 -225.14453125 34.44555664 C-203.71548185 48.5519896 -203.71548185 48.5519896 -195.67578125 53.92602539 C-189.56872042 58.00806466 -183.43746609 62.05273701 -177.30078125 66.09008789 C-176.35235352 66.71418549 -175.40392578 67.33828308 -174.42675781 67.98129272 C-170.5008994 70.56424872 -166.57475818 73.14677115 -162.64746094 75.72753906 C-159.73942446 77.63882721 -156.83252174 79.55182955 -153.92578125 81.46508789 C-153.04651978 82.04225052 -152.1672583 82.61941315 -151.26135254 83.21406555 C-147.50274655 85.68953973 -143.79740994 88.18470349 -140.18847656 90.87451172 C-137.40460991 93.27467425 -137.40460991 93.27467425 -134.66015625 92.56274414 C-133.83 92.02907227 -132.99984375 91.49540039 -132.14453125 90.94555664 C-131.61279297 90.60814453 -131.08105469 90.27073242 -130.53320312 89.9230957 C-128.62224965 88.68024177 -126.75844406 87.38285201 -124.89453125 86.07055664 C-124.19489258 85.58369385 -123.49525391 85.09683105 -122.77441406 84.59521484 C-120.56013847 83.05138639 -118.3515459 81.49974417 -116.14453125 79.94555664 C-115.45746094 79.46231934 -114.77039063 78.97908203 -114.0625 78.48120117 C-110.58088535 76.03059048 -107.10379641 73.57365945 -103.62890625 71.11352539 C-98.8129969 67.70670753 -93.97936111 64.32544584 -89.14453125 60.94555664 C-80.12572798 54.63869517 -71.13049129 48.29909393 -62.14453125 41.94555664 C-52.31932688 34.99863031 -42.47964773 28.07326438 -32.61743164 21.17895508 C-26.29618448 16.75795259 -19.99064136 12.31515551 -13.69921875 7.85180664 C-12.43360918 6.95575506 -11.16459438 6.06448616 -9.89160156 5.17895508 C-8.22829231 4.00469036 -6.6030367 2.77706571 -4.98046875 1.54711914 C-2.14453125 -0.05444336 -2.14453125 -0.05444336 0 0 Z " fill="#FEFEFE" transform="translate(581.14453125,113.054443359375)"/>
<path d="M0 0 C4.28727181 1.41968226 7.68168035 3.91770749 11.37890625 6.47290039 C12.64141457 7.33062294 12.64141457 7.33062294 13.9294281 8.20567322 C16.70143802 10.09091317 19.46578538 11.98709265 22.23046875 13.88305664 C25.14430381 15.8680313 28.06014822 17.8500302 30.97608948 19.83190918 C32.9718672 21.1886489 34.96700836 22.54632544 36.96153259 23.90490723 C46.00079053 30.05900642 55.09317049 36.13117283 64.20172119 42.18206787 C77.09354326 50.74694434 89.96043477 59.34429753 102.73046875 68.09008789 C103.44847656 68.56526855 104.16648437 69.04044922 104.90625 69.5300293 C106.85546875 70.94555664 106.85546875 70.94555664 108.3984375 72.57592773 C110.21638678 74.37810431 111.41150817 75.13574462 113.85546875 75.94555664 C116.83359854 75.59080868 116.83359854 75.59080868 120.23095703 74.59228516 C120.91361696 74.41042789 121.59627689 74.22857063 122.29962349 74.04120255 C124.8234601 73.36049613 127.33937842 72.65435912 129.85546875 71.94555664 C130.87805534 71.66013189 131.90064194 71.37470715 132.954216 71.08063316 C141.19965148 68.77550174 149.4320557 66.42585314 157.66269064 64.06860447 C161.25652357 63.04009491 164.85133536 62.01501863 168.44607544 60.98968506 C177.5417511 58.39471244 186.63617721 55.79537516 195.73046875 53.19555664 C205.6009267 50.37385865 215.47159531 47.55291138 225.34373295 44.73709464 C229.61562681 43.51846473 233.88678027 42.29728279 238.15738463 41.07414198 C240.16578227 40.49934242 242.17451618 39.92573692 244.18341064 39.35267639 C246.63431155 38.65352146 249.08466931 37.95245879 251.53439331 37.24919128 C253.14459351 36.79087669 253.14459351 36.79087669 254.787323 36.32330322 C256.19138303 35.92182005 256.19138303 35.92182005 257.62380791 35.5122261 C259.85546875 34.94555664 259.85546875 34.94555664 261.85546875 34.94555664 C260.58745227 44.19469172 259.1340529 53.38374316 257.48535156 62.57275391 C257.135663 64.53960233 256.78597895 66.50645157 256.43646669 68.47333133 C256.06617612 70.55529128 255.69485154 72.63706486 255.32337189 74.71881294 C254.54632299 79.07655106 253.7753723 83.4353547 253.00579834 87.79441833 C252.87519587 88.53404786 252.7445934 89.27367739 252.61003327 90.03571993 C252.34337273 91.54597252 252.07672844 93.05622797 251.81010008 94.56648624 C250.02216066 104.69278486 248.2304306 114.81836596 246.42138672 124.94091797 C245.19510929 131.80284851 243.97869522 138.6664463 242.77370906 145.53214878 C242.13732544 149.15578603 241.49591879 152.77837142 240.84238434 156.39895821 C240.11586204 160.42438364 239.41104609 164.45331691 238.70800781 168.48291016 C238.48889236 169.67723663 238.26977692 170.87156311 238.04402161 172.1020813 C237.85613571 173.19939072 237.66824982 174.29670013 237.47467041 175.42726135 C237.30581455 176.37788232 237.13695869 177.32850328 236.96298599 178.30793095 C236.7572052 183.35616977 239.54538742 187.34108013 241.98828125 191.60961914 C242.6212915 192.71772949 243.25430176 193.82583984 243.90649414 194.9675293 C244.59761384 196.16865649 245.28894445 197.36966234 245.98046875 198.57055664 C246.69983355 199.82492529 247.41915245 201.07932026 248.13842773 202.33374023 C253.63715338 211.90536793 259.24825339 221.40786259 264.89599609 230.89233398 C271.49960488 241.99284883 277.99524762 253.15694542 284.37304688 264.38891602 C285.27969763 265.95256006 286.21487336 267.50061966 287.19726562 269.01782227 C288.99322597 271.82688844 289.89730062 273.44173312 289.61694336 276.81835938 C288.84367872 279.99397552 287.81079326 282.29538866 286.1875 285.12133789 C285.63118896 286.10118652 285.07487793 287.08103516 284.50170898 288.09057617 C283.59400757 289.658479 283.59400757 289.658479 282.66796875 291.25805664 C281.38385749 293.51181642 280.10001066 295.7657269 278.81640625 298.01977539 C278.15087003 299.18181015 277.48517979 300.34375671 276.81933594 301.50561523 C273.77385178 306.84013435 270.78570029 312.20632998 267.79296875 317.57055664 C263.80753575 324.69034345 259.81638246 331.80692521 255.80712891 338.91333008 C254.72560779 340.83152392 253.64708986 342.75141453 252.57177734 344.6730957 C249.98446574 349.27685871 247.33776452 353.81773235 244.52734375 358.28930664 C244.00358154 359.13895996 243.47981934 359.98861328 242.94018555 360.86401367 C241.95924092 362.44705534 240.95688921 364.01712769 239.92895508 365.57006836 C237.46739375 369.52821905 237.46739375 369.52821905 237.0355835 374.05198669 C237.21945618 374.76766312 237.40332886 375.48333954 237.59277344 376.22070312 C237.79266373 377.00890442 237.99255402 377.79710571 238.19850159 378.60919189 C239.15876198 382.02415485 240.18772494 385.40283919 241.3046875 388.76977539 C241.55025894 389.52161606 241.79583038 390.27345673 242.04884338 391.04808044 C242.58965667 392.70149461 243.13249886 394.35424621 243.67712402 396.00640869 C244.56638054 398.70407924 245.45017501 401.40349237 246.33300781 404.10327148 C249.70306756 414.39775338 253.09812436 424.68399176 256.49509525 434.96961689 C258.58238736 441.28990657 260.66705577 447.61105895 262.75058651 453.93258953 C264.31165069 458.66768643 265.87712331 463.40129748 267.44586849 468.13385487 C268.43875208 471.13204217 269.42800523 474.13141885 270.41639519 477.13109016 C270.87965977 478.53448097 271.34443546 479.93737402 271.81085396 481.33971977 C274.18551395 488.48192475 276.40197466 495.55007387 277.85546875 502.94555664 C270.83320993 502.18462876 264.10979905 500.31583619 257.28515625 498.54321289 C255.91373397 498.1897999 254.54223112 497.83669946 253.1706543 497.48388672 C249.4619392 496.52880596 245.75448447 495.56891525 242.0472641 494.6080513 C238.94524638 493.8047028 235.84249267 493.00421827 232.73973274 492.20374203 C206.44584012 485.41972915 180.16866286 478.57093023 153.89794922 471.69775391 C152.49137623 471.3299057 151.08480076 470.96206696 149.67822266 470.59423828 C147.1010338 469.92028432 144.52408157 469.24544897 141.94726562 468.57006836 C139.67004988 467.97436445 137.39174203 467.38281418 135.11218262 466.79614258 C132.88823776 466.21529443 130.66996955 465.61237852 128.45715332 464.99047852 C127.3863855 464.69794189 126.31561768 464.40540527 125.21240234 464.10400391 C124.26400482 463.83636734 123.3156073 463.56873077 122.33847046 463.29298401 C119.5674632 462.65761708 119.5674632 462.65761708 116.33984375 464.81274414 C114.91351401 466.22901161 114.91351401 466.22901161 113.60546875 467.82055664 C112.60352218 468.86806103 111.60091805 469.91493686 110.59765625 470.96118164 C110.12811523 471.47745117 109.65857422 471.9937207 109.17480469 472.52563477 C107.47622685 474.35371188 105.63686605 475.96275169 103.73046875 477.57055664 C100.74149417 480.16265493 97.7922534 482.7944167 94.85546875 485.44555664 C89.53212182 490.24463456 84.16683536 494.98633614 78.703125 499.62524414 C71.57722661 505.68335962 64.61607459 511.87452778 57.76953125 518.24633789 C54.72137759 521.06976172 51.64623856 523.8484023 48.48046875 526.53930664 C47.04852283 527.77849061 45.69450684 529.10651855 44.35546875 530.44555664 C40.7541018 532.60637681 37.8015031 531.74104725 33.85546875 530.94555664 C29.44419426 529.8198807 25.09028011 528.52053311 20.73046875 527.21118164 C19.41346525 526.82066687 18.0962858 526.43074511 16.77894592 526.04136658 C13.94999877 525.20404806 11.122194 524.36301187 8.29519653 523.51913452 C3.81164417 522.18122267 -0.67504577 520.85406207 -5.16235352 519.52880859 C-11.51288224 517.65247958 -17.86263199 515.77354884 -24.21142578 513.89135742 C-25.02350841 513.65060706 -25.83559103 513.4098567 -26.67228222 513.16181087 C-30.85360452 511.92199056 -35.03469315 510.68138678 -39.21551514 509.43988037 C-48.42596025 506.70506169 -57.63810774 503.9762468 -66.85519981 501.26390266 C-71.64967368 499.8525111 -76.44096509 498.43092064 -81.23015499 497.00170803 C-84.2150143 496.11353835 -87.20261502 495.23489713 -90.19107246 494.35891914 C-91.57922241 493.94995413 -92.9662281 493.53708202 -94.35197258 493.12003899 C-96.24706986 492.55032952 -98.14676 491.99596505 -100.04663086 491.44238281 C-101.10949814 491.12742355 -102.17236542 490.81246429 -103.2674408 490.48796082 C-108.11440034 489.57418659 -111.50866208 490.93938656 -115.81689453 493.10351562 C-116.71618683 493.55166122 -117.61547913 493.99980682 -118.54202271 494.46153259 C-119.50655365 494.94997147 -120.47108459 495.43841034 -121.46484375 495.94165039 C-122.47811737 496.44922379 -123.49139099 496.95679718 -124.53536987 497.47975159 C-126.68693362 498.55889551 -128.83705596 499.64091734 -130.98583984 500.72558594 C-134.20632461 502.35115256 -137.43080402 503.96853231 -140.65625 505.58422852 C-149.86208593 510.20475866 -159.04322861 514.86125409 -168.13671875 519.69946289 C-176.61165716 524.20142213 -185.18326635 528.50500101 -193.76953125 532.78930664 C-194.46958157 533.13862307 -195.16963188 533.48793949 -195.89089584 533.84784126 C-201.70961203 536.75016073 -207.53093044 539.64724778 -213.35229492 542.54425049 C-238.38059801 554.98695155 -238.38059801 554.98695155 -263.14453125 567.94555664 C-264.09270218 568.45357063 -264.09270218 568.45357063 -265.06002808 568.97184753 C-267.60879159 570.33765228 -270.15571081 571.70670477 -272.69921875 573.08227539 C-275.77522973 574.16821537 -277.09717184 574.11615971 -280.14453125 572.94555664 C-282.7578125 570.68774414 -282.7578125 570.68774414 -285.45703125 567.82055664 C-288.49707438 564.6163068 -291.52032775 561.57687639 -294.875 558.70336914 C-300.81407916 553.57739075 -306.22078712 547.91359992 -311.72265625 542.32836914 C-315.42638493 538.59055707 -319.11524431 534.90080794 -323.11328125 531.47680664 C-329.21302143 526.24670813 -334.73048977 520.40140647 -340.3671875 514.68383789 C-344.92451879 510.08670459 -349.50291412 505.61763619 -354.45849609 501.44946289 C-356.21088993 499.88636615 -357.71255615 498.20096484 -359.26953125 496.44555664 C-361.85590022 493.60864982 -361.85590022 493.60864982 -364.88549805 494.10400391 C-368.49706376 495.03658815 -371.78715444 496.35934709 -375.1640625 497.91040039 C-375.84239136 498.21486084 -376.52072021 498.51932129 -377.21960449 498.83300781 C-378.69274548 499.49507873 -380.16446994 500.16030858 -381.63491821 500.82833862 C-384.83351455 502.28116074 -388.03917887 503.7180781 -391.24443054 505.15614319 C-392.94360111 505.91866247 -394.64241706 506.68197239 -396.34089661 507.44602966 C-405.68795415 511.64869295 -415.07059177 515.76928753 -424.45703125 519.88305664 C-426.1755466 520.63694125 -427.89405243 521.39084758 -429.61254883 522.14477539 C-443.23853035 528.1202216 -456.87755945 534.06566299 -470.51904297 540.00561523 C-483.40886339 545.61912658 -496.28317856 551.2670774 -509.14453125 556.94555664 C-510.16947535 553.78281375 -510.10058219 551.88607756 -509.14414978 548.71867371 C-508.89650375 547.88078308 -508.64885773 547.04289246 -508.39370728 546.17961121 C-507.97247086 544.81114799 -507.97247086 544.81114799 -507.54272461 543.41503906 C-507.25324448 542.44631866 -506.96376434 541.47759827 -506.66551208 540.47952271 C-505.69797206 537.25041519 -504.71615956 534.02582785 -503.734375 530.80102539 C-503.0481402 528.52064006 -502.3628185 526.23997978 -501.67835999 523.95906067 C-499.85950216 517.90645461 -498.02868452 511.85753065 -496.19525146 505.80932617 C-494.3897781 499.84697783 -492.59455644 493.88154882 -490.79882812 487.91625977 C-490.08895828 485.55973113 -489.37904824 483.2032146 -488.6690979 480.84671021 C-487.60832814 477.32540363 -486.54777965 473.80403109 -485.48786545 470.28246689 C-484.43365755 466.77987479 -483.37888762 463.27745273 -482.32373047 459.77514648 C-481.97893835 458.63058928 -481.63414623 457.48603207 -481.27890587 456.30679131 C-479.18476837 449.36504287 -477.06956431 442.4300937 -474.93838024 435.49963284 C-473.58851094 431.10302949 -472.24976198 426.70308731 -470.91299629 422.30248451 C-470.2830538 420.23899007 -469.64786018 418.17709071 -469.00718498 416.11690331 C-468.13028721 413.2958173 -467.27128026 410.46986926 -466.41625977 407.64208984 C-466.15352579 406.81321321 -465.89079182 405.98433659 -465.62009621 405.13034248 C-464.2515225 400.98319392 -464.2515225 400.98319392 -464.98631191 396.83581829 C-466.43806056 394.46650472 -468.13658617 392.55308673 -470.01953125 390.50805664 C-470.82519531 389.62891602 -471.63085938 388.74977539 -472.4609375 387.84399414 C-473.34652344 386.88750977 -474.23210937 385.93102539 -475.14453125 384.94555664 C-476.09144057 383.91718212 -477.03804764 382.88852922 -477.984375 381.85961914 C-480.51584843 379.11015422 -483.05298156 376.36597607 -485.59179688 373.62329102 C-488.13219605 370.87838172 -490.66985462 368.13094445 -493.20703125 365.38305664 C-493.95303589 364.575177 -493.95303589 364.575177 -494.71411133 363.75097656 C-498.48575586 359.66436188 -502.2449026 355.56643684 -506.00024414 351.46484375 C-508.86921373 348.33276966 -511.74487367 345.20702448 -514.62817383 342.08813477 C-515.63259043 341.00011112 -516.63506088 339.91028737 -517.63549805 338.81860352 C-520.17799105 336.04815711 -522.74808382 333.31615079 -525.3828125 330.63305664 C-525.89908203 330.09745117 -526.41535156 329.5618457 -526.94726562 329.01000977 C-528.37440461 327.53117622 -529.81570068 326.06604291 -531.2578125 324.60180664 C-533.14453125 321.94555664 -533.14453125 321.94555664 -533.01928711 319.69189453 C-531.9020778 316.18436244 -530.07882943 313.36953258 -528.03515625 310.34790039 C-527.60476547 309.69751297 -527.17437469 309.04712555 -526.73094177 308.37702942 C-525.29281137 306.20739627 -523.84362962 304.04537644 -522.39453125 301.88305664 C-521.37523249 300.34942526 -520.35677797 298.81523247 -519.33911133 297.28051758 C-517.13455598 293.95746105 -514.92605645 290.63707049 -512.71533203 287.31811523 C-508.96419554 281.68095278 -505.23790421 276.02758379 -501.515625 270.37133789 C-500.87611908 269.39966171 -500.23661316 268.42798553 -499.57772827 267.42686462 C-498.29365628 265.47562886 -497.00964911 263.52435045 -495.72570801 261.57302856 C-471.86284674 225.31303169 -471.86284674 225.31303169 -466.9453125 218.41040039 C-466.52185547 217.80905273 -466.09839844 217.20770508 -465.66210938 216.58813477 C-464.82779664 215.40765662 -463.98050119 214.23628744 -463.12304688 213.07250977 C-461.15086982 210.23071134 -460.09108541 208.56707982 -460.39263916 205.06030273 C-461.12366703 202.0319876 -462.06941921 199.56187361 -463.43652344 196.76977539 C-463.91148254 195.79016846 -464.38644165 194.81056152 -464.87579346 193.80126953 C-465.39244568 192.75575928 -465.9090979 191.71024902 -466.44140625 190.63305664 C-466.97820007 189.53147217 -467.5149939 188.4298877 -468.0680542 187.29492188 C-469.75296469 183.84153336 -471.44835565 180.39342352 -473.14453125 176.94555664 C-474.16929943 174.84953462 -475.19340932 172.7531906 -476.21679688 170.65649414 C-478.74430773 165.48310874 -481.28097295 160.31427661 -483.8210144 155.14703369 C-486.54246913 149.60996247 -489.25962232 144.07078165 -491.9765625 138.53149414 C-492.51007828 137.4437973 -493.04359406 136.35610046 -493.59327698 135.23544312 C-499.93877804 122.29346712 -506.24215844 109.3313208 -512.50341797 96.34838867 C-513.59217137 94.09086934 -514.68232717 91.83402579 -515.77392578 89.57788086 C-517.23500523 86.55661154 -518.69085723 83.53289449 -520.14453125 80.50805664 C-520.56081787 79.64841309 -520.97710449 78.78876953 -521.40600586 77.90307617 C-524.14453125 72.17624978 -524.14453125 72.17624978 -524.14453125 69.94555664 C-509.2604675 71.42879245 -494.47189335 73.54169389 -479.66965866 75.67573929 C-475.2726875 76.3095999 -470.87500665 76.93844009 -466.47720337 77.5664978 C-453.98736236 79.35094079 -441.49846619 81.14193948 -429.01025391 82.93774414 C-422.07928502 83.93437265 -415.14774971 84.9269646 -408.21558917 85.91527116 C-403.85003073 86.53790744 -399.48522588 87.16551288 -395.12092853 87.79692483 C-391.77054844 88.28016601 -388.41913544 88.7560851 -385.06787109 89.2331543 C-383.87191315 89.40767624 -382.6759552 89.58219818 -381.4437561 89.76200867 C-371.0071395 91.78635923 -371.0071395 91.78635923 -361.34375 89.07446289 C-360.51488281 88.22754883 -359.68601562 87.38063477 -358.83203125 86.50805664 C-355.19429641 82.94066474 -351.56294714 79.56554024 -347.58203125 76.38305664 C-344.00624656 73.49706871 -340.54051807 70.5411086 -337.14453125 67.44555664 C-333.82463639 64.42273243 -330.44689013 61.52043503 -326.95703125 58.69555664 C-320.51741132 53.48037149 -314.28997722 48.03223912 -308.04101562 42.59204102 C-303.34668604 38.5165314 -298.61554384 34.48371817 -293.89160156 30.44262695 C-292.10617501 28.91268905 -290.3241698 27.37884864 -288.54296875 25.84399414 C-281.49179976 19.77297681 -274.3820087 13.79462005 -267.14453125 7.94555664 C-262.90304411 9.43442131 -259.38689038 11.63732911 -255.70703125 14.16430664 C-254.36638414 15.07129425 -253.02520538 15.97749635 -251.68359375 16.88305664 C-250.95688477 17.37483398 -250.23017578 17.86661133 -249.48144531 18.37329102 C-245.20264714 21.25204783 -240.89057868 24.08035653 -236.58203125 26.91430664 C-234.69398705 28.15776075 -232.80596654 29.40125082 -230.91796875 30.64477539 C-228.99352203 31.91175176 -227.06904271 33.17867861 -225.14453125 34.44555664 C-203.71548185 48.5519896 -203.71548185 48.5519896 -195.67578125 53.92602539 C-189.56872042 58.00806466 -183.43746609 62.05273701 -177.30078125 66.09008789 C-176.35235352 66.71418549 -175.40392578 67.33828308 -174.42675781 67.98129272 C-170.5008994 70.56424872 -166.57475818 73.14677115 -162.64746094 75.72753906 C-159.73942446 77.63882721 -156.83252174 79.55182955 -153.92578125 81.46508789 C-153.04651978 82.04225052 -152.1672583 82.61941315 -151.26135254 83.21406555 C-147.50274655 85.68953973 -143.79740994 88.18470349 -140.18847656 90.87451172 C-137.40460991 93.27467425 -137.40460991 93.27467425 -134.66015625 92.56274414 C-133.83 92.02907227 -132.99984375 91.49540039 -132.14453125 90.94555664 C-131.61279297 90.60814453 -131.08105469 90.27073242 -130.53320312 89.9230957 C-128.62224965 88.68024177 -126.75844406 87.38285201 -124.89453125 86.07055664 C-124.19489258 85.58369385 -123.49525391 85.09683105 -122.77441406 84.59521484 C-120.56013847 83.05138639 -118.3515459 81.49974417 -116.14453125 79.94555664 C-115.45746094 79.46231934 -114.77039063 78.97908203 -114.0625 78.48120117 C-110.58088535 76.03059048 -107.10379641 73.57365945 -103.62890625 71.11352539 C-98.8129969 67.70670753 -93.97936111 64.32544584 -89.14453125 60.94555664 C-80.12572798 54.63869517 -71.13049129 48.29909393 -62.14453125 41.94555664 C-52.31932688 34.99863031 -42.47964773 28.07326438 -32.61743164 21.17895508 C-26.29618448 16.75795259 -19.99064136 12.31515551 -13.69921875 7.85180664 C-12.43360918 6.95575506 -11.16459438 6.06448616 -9.89160156 5.17895508 C-8.22829231 4.00469036 -6.6030367 2.77706571 -4.98046875 1.54711914 C-2.14453125 -0.05444336 -2.14453125 -0.05444336 0 0 Z M-5.91015625 33.40258789 C-6.98535522 34.19741577 -6.98535522 34.19741577 -8.08227539 35.00830078 C-8.84531982 35.58572021 -9.60836426 36.16313965 -10.39453125 36.75805664 C-12.02228729 37.96273735 -13.65121549 39.16583569 -15.28125 40.36743164 C-16.09899902 40.97264648 -16.91674805 41.57786133 -17.75927734 42.20141602 C-21.19192884 44.71143263 -24.69095226 47.11696417 -28.20703125 49.50805664 C-35.86819986 54.73715349 -43.44807265 60.07618634 -51.01660156 65.43823242 C-54.49467666 67.90193546 -57.97547975 70.36176942 -61.45703125 72.82055664 C-62.49718384 73.55520142 -62.49718384 73.55520142 -63.55834961 74.3046875 C-69.92497915 78.79762371 -76.31007406 83.26400514 -82.69580078 87.72973633 C-90.15810257 92.95032408 -97.60061399 98.19855305 -105.03710938 103.45581055 C-107.23405227 105.00883945 -109.43139184 106.56130529 -111.62890625 108.11352539 C-112.73890991 108.89808105 -112.73890991 108.89808105 -113.87133789 109.69848633 C-115.32455587 110.72368307 -116.77942665 111.74654169 -118.23608398 112.7668457 C-121.28618727 114.90568356 -124.29696681 117.062035 -127.2578125 119.32446289 C-128.12792969 119.98317383 -128.99804688 120.64188477 -129.89453125 121.32055664 C-130.61125 121.88516602 -131.32796875 122.44977539 -132.06640625 123.03149414 C-134.14453125 123.94555664 -134.14453125 123.94555664 -136.36206055 123.265625 C-139.68239931 121.69037961 -142.69357487 119.77422542 -145.7421875 117.73852539 C-146.39243896 117.3096402 -147.04269043 116.880755 -147.71264648 116.43887329 C-149.88024565 115.00779408 -152.04358914 113.57041101 -154.20703125 112.13305664 C-155.74311415 111.11723099 -157.27949818 110.10186056 -158.81616211 109.08691406 C-162.14052753 106.89048666 -165.46330413 104.69168154 -168.78515625 102.49145508 C-174.38838561 98.7819145 -180.00020146 95.08548201 -185.61328125 91.39086914 C-187.55982042 90.10938406 -189.50635363 88.82788994 -191.45288086 87.54638672 C-192.40967743 86.91648834 -193.366474 86.28658997 -194.3522644 85.63760376 C-207.61823854 76.90343217 -220.86942721 68.14855318 -234.07699585 59.32626343 C-237.31952263 57.16089362 -240.56410432 54.99860909 -243.80859375 52.83618164 C-244.9804796 52.05494791 -246.15235482 51.27369824 -247.32421875 50.49243164 C-248.17258301 49.92685547 -248.17258301 49.92685547 -249.03808594 49.34985352 C-253.74023438 46.21508789 -258.44238281 43.08032227 -263.14453125 39.94555664 C-272.92481952 44.64744532 -281.16114299 53.516054 -289.31640625 60.61743164 C-294.64916379 65.26000418 -300.02469606 69.85236053 -305.39746094 74.44848633 C-307.18288749 75.97842423 -308.9648927 77.51226465 -310.74609375 79.04711914 C-316.08003189 83.63932799 -321.42495338 88.20200621 -326.89453125 92.63305664 C-331.26028933 96.17544807 -335.43278483 99.8844439 -339.5859375 103.67211914 C-343.22418249 106.90488034 -347.00232888 109.95368769 -350.796875 113.00024414 C-353.10408183 114.75071211 -353.10408183 114.75071211 -354.33979797 116.57843018 C-357.2443954 118.77872873 -359.81681992 118.0590115 -363.36791992 117.76489258 C-364.07910823 117.70791073 -364.79029654 117.65092888 -365.523036 117.59222031 C-372.90986506 116.9612285 -380.24098777 115.93828406 -387.5703125 114.83618164 C-389.00066664 114.62617242 -390.43110945 114.41676631 -391.8616333 114.20791626 C-394.85828495 113.76921836 -397.85431648 113.32659403 -400.84988403 112.8805542 C-405.49716767 112.18862329 -410.14579118 111.50601767 -414.79467773 110.82495117 C-420.86032462 109.9356449 -426.925495 109.04317876 -432.99023438 108.14770508 C-442.17339752 106.79219889 -451.35847094 105.45036053 -460.54696655 104.13146973 C-462.64864453 103.82896065 -464.74975093 103.52270073 -466.85083008 103.21606445 C-468.06279053 103.04171875 -469.27475098 102.86737305 -470.5234375 102.68774414 C-471.52963135 102.54191895 -472.5358252 102.39609375 -473.57250977 102.24584961 C-476.37511799 101.868246 -476.37511799 101.868246 -480.14453125 101.94555664 C-478.63275139 106.91554511 -476.57098776 111.41873591 -474.27734375 116.05883789 C-473.89039337 116.84937057 -473.50344299 117.63990326 -473.10476685 118.45439148 C-471.82977014 121.05730327 -470.54959541 123.65763373 -469.26953125 126.25805664 C-468.37556771 128.08142395 -467.48201948 129.90499494 -466.58886719 131.72875977 C-464.72336251 135.53704222 -462.85605245 139.34443097 -460.98730469 143.15112305 C-456.87139259 151.53750984 -452.77074429 159.93133988 -448.67327881 168.32675171 C-447.43206492 170.86868975 -446.18905817 173.40974454 -444.94580078 175.95068359 C-443.41037021 179.08942881 -441.88441174 182.23251009 -440.36523438 185.37915039 C-438.85031571 188.51404544 -437.29699179 191.62625685 -435.72070312 194.73071289 C-434.96063526 196.26051068 -434.2008578 197.7904528 -433.44140625 199.32055664 C-432.89725067 200.36433472 -432.89725067 200.36433472 -432.34210205 201.42919922 C-429.95044837 206.31413792 -429.95044837 206.31413792 -430.89703369 209.39370728 C-432.09026092 211.83454264 -433.37512666 214.05053803 -434.875 216.31420898 C-435.42317383 217.14632904 -435.97134766 217.9784491 -436.53613281 218.83578491 C-437.1287793 219.72536896 -437.72142578 220.614953 -438.33203125 221.53149414 C-438.94916992 222.46547028 -439.56630859 223.39944641 -440.20214844 224.36172485 C-442.17871983 227.35082232 -444.1615452 230.33571185 -446.14453125 233.32055664 C-447.44832526 235.29033834 -448.75171478 237.26038783 -450.0546875 239.23071289 C-455.78637618 247.89298935 -461.53772972 256.54211482 -467.30210876 265.18266296 C-472.95991368 273.66471997 -478.60596798 282.15449125 -484.23413086 290.65625 C-485.56338506 292.66189242 -486.89481099 294.666097 -488.22827148 296.66894531 C-490.17579989 299.59485516 -492.1159794 302.52551619 -494.0546875 305.45727539 C-494.65249527 306.35202072 -495.25030304 307.24676605 -495.8662262 308.16862488 C-496.68860023 309.41691826 -496.68860023 309.41691826 -497.52758789 310.69042969 C-498.01038712 311.41795944 -498.49318634 312.1454892 -498.99061584 312.89506531 C-500.15504443 314.96423841 -500.84771691 316.59011221 -501.14453125 318.94555664 C-499.51358235 321.14951388 -499.51358235 321.14951388 -497.14453125 323.19555664 C-494.28302088 325.90369356 -491.50789598 328.5672249 -488.95703125 331.57055664 C-485.54255226 335.54751361 -481.97790176 339.37150842 -478.39453125 343.19555664 C-473.1803587 348.76137789 -468.00151609 354.35565827 -462.85546875 359.98461914 C-460.46680954 362.59661537 -458.06814871 365.19922239 -455.66601562 367.79882812 C-454.65885998 368.88888988 -453.65233995 369.97953928 -452.64648438 371.07080078 C-450.11134697 373.82092778 -447.56859384 376.5632742 -445.01171875 379.29321289 C-444.01429628 380.36480268 -443.01689945 381.43641634 -442.01953125 382.50805664 C-441.13007813 383.4580957 -440.240625 384.40813477 -439.32421875 385.38696289 C-437.40977178 387.63420799 -436.19330309 389.22644784 -435.14453125 391.94555664 C-435.38891602 393.87402344 -435.38891602 393.87402344 -436.0859375 395.89477539 C-436.33730469 396.65137451 -436.58867187 397.40797363 -436.84765625 398.1875 C-437.13125 398.99453369 -437.41484375 399.80156738 -437.70703125 400.63305664 C-438.28277426 402.35650652 -438.85696496 404.08047567 -439.4296875 405.80493164 C-439.72117676 406.67053711 -440.01266602 407.53614258 -440.31298828 408.42797852 C-441.51101194 412.05511299 -442.58588703 415.71326515 -443.64453125 419.38305664 C-444.05166521 420.78161593 -444.45922378 422.18005167 -444.8671875 423.57836914 C-445.07359863 424.28638672 -445.28000977 424.9944043 -445.49267578 425.72387695 C-446.67121656 429.74062641 -447.87707414 433.74916744 -449.08203125 437.75805664 C-449.33339844 438.59457764 -449.58476562 439.43109863 -449.84375 440.29296875 C-450.3551809 441.99442237 -450.86673739 443.69583825 -451.37841797 445.3972168 C-452.63572239 449.57941678 -453.88999093 453.76252685 -455.14453125 457.94555664 C-455.64451631 459.61222779 -456.14451632 461.27889445 -456.64453125 462.94555664 C-456.89203125 463.77055664 -457.13953125 464.59555664 -457.39453125 465.44555664 C-459.64453125 472.94555664 -459.64453125 472.94555664 -460.39599609 475.44970703 C-460.89165178 477.10237765 -461.38677639 478.75520766 -461.88134766 480.40820312 C-463.19331494 484.79052025 -464.51666001 489.16901461 -465.85546875 493.54321289 C-466.13390625 494.45780273 -466.41234375 495.37239258 -466.69921875 496.31469727 C-467.23490718 498.07354094 -467.77382788 499.83140431 -468.31640625 501.58813477 C-468.55617188 502.37768555 -468.7959375 503.16723633 -469.04296875 503.98071289 C-469.25614746 504.67559814 -469.46932617 505.3704834 -469.68896484 506.08642578 C-470.26353192 508.11216675 -470.26353192 508.11216675 -470.14453125 510.94555664 C-463.83098939 508.97004153 -457.81806133 506.59910042 -451.79296875 503.87524414 C-450.47195412 503.28463699 -450.47195412 503.28463699 -449.12425232 502.68209839 C-447.23540751 501.83725262 -445.34738204 500.99057304 -443.46011353 500.14221191 C-438.43313667 497.8828191 -433.39992726 495.63738873 -428.3671875 493.39086914 C-426.83390053 492.70589355 -426.83390053 492.70589355 -425.26963806 492.00708008 C-413.65017857 486.82180685 -401.98396419 481.74515844 -390.31201172 476.67944336 C-389.56904846 476.35656342 -388.82608521 476.03368347 -388.06060791 475.70101929 C-386.60622049 475.06990604 -385.15095867 474.44080342 -383.69476318 473.81387329 C-379.82497666 472.14150793 -375.99010512 470.41422917 -372.17724609 468.61547852 C-371.35842453 468.23482239 -370.53960297 467.85416626 -369.69596863 467.4619751 C-368.12087783 466.72763409 -366.55156486 465.9807315 -364.98921204 465.21966553 C-359.74896865 462.79397866 -359.74896865 462.79397866 -356.86157227 463.51806641 C-354.98715987 465.07638992 -353.23589703 466.64618124 -351.53515625 468.39477539 C-350.52582031 469.42054688 -350.52582031 469.42054688 -349.49609375 470.46704102 C-348.80257812 471.18182617 -348.1090625 471.89661133 -347.39453125 472.63305664 C-343.45622614 476.67243992 -339.5399387 480.66680731 -335.25390625 484.34008789 C-329.36257928 489.40660022 -324.01547854 495.03111015 -318.56640625 500.56274414 C-314.85235278 504.31097602 -311.15169773 508.00969301 -307.14453125 511.44555664 C-301.2848617 516.46981146 -295.97916317 522.06797576 -290.56640625 527.56274414 C-282.15007623 537.43386825 -282.15007623 537.43386825 -271.14453125 542.94555664 C-267.99027412 541.80997207 -267.99027412 541.80997207 -264.56616211 540.00488281 C-263.91334763 539.6797168 -263.26053314 539.35455078 -262.5879364 539.01953125 C-260.4224817 537.93726417 -258.26608876 536.83809465 -256.109375 535.73852539 C-254.59169117 534.97534954 -253.07349876 534.21318431 -251.55482483 533.45198059 C-247.54043083 531.43615047 -243.53360107 529.40569951 -239.52801514 527.37243652 C-235.52411872 525.34366246 -231.51256038 523.33016168 -227.50195312 521.31469727 C-209.44064213 512.23284996 -209.44064213 512.23284996 -191.5234375 502.87133789 C-177.22515363 495.25441124 -162.64684541 488.16364427 -148.14453125 480.94555664 C-142.87312228 478.32170962 -137.60240926 475.69648191 -132.33334351 473.06793213 C-130.24298435 472.02597772 -128.15143304 470.98644485 -126.05981445 469.94702148 C-124.78721365 469.31253591 -123.51466823 468.67793924 -122.2421875 468.04321289 C-121.13367432 467.49157471 -120.02516113 466.93993652 -118.88305664 466.37158203 C-116.0397076 464.95345865 -116.0397076 464.95345865 -113.14453125 462.94555664 C-105.89192972 463.26869235 -99.21604939 465.12082484 -92.26953125 467.13305664 C-90.61860474 467.60279907 -90.61860474 467.60279907 -88.93432617 468.08203125 C-81.63930392 470.17486984 -74.39865841 472.40973091 -67.17822266 474.74511719 C-61.21184969 476.65712333 -55.19683544 478.32828437 -49.14453125 479.94555664 C-42.23522648 481.79216419 -35.38972615 483.75313928 -28.58203125 485.94555664 C-16.29388259 489.89999429 -3.87115691 493.35829137 8.56640625 496.80883789 C9.69546387 497.12280518 10.82452148 497.43677246 11.98779297 497.76025391 C14.18915931 498.37163816 16.39127987 498.98031491 18.59423828 499.5859375 C20.10026611 500.0037146 20.10026611 500.0037146 21.63671875 500.42993164 C22.52423828 500.67453125 23.41175781 500.91913086 24.32617188 501.17114258 C26.85546875 501.94555664 26.85546875 501.94555664 29.55688477 503.04614258 C31.75469174 504.0862157 31.75469174 504.0862157 33.8515625 503.85180664 C36.73433482 502.54809674 38.63284051 500.62635649 40.91796875 498.44555664 C44.54174522 495.04022618 48.20966054 491.79356855 52.10546875 488.69555664 C58.15582225 483.81707935 63.75835745 478.50291647 69.41015625 473.17602539 C72.53664937 470.23200914 75.72429717 467.37448974 78.98046875 464.57446289 C81.24298056 462.60890575 83.45237558 460.58882355 85.66796875 458.57055664 C90.01396059 454.64321539 94.48514121 450.92309714 99.09765625 447.31274414 C101.94927527 444.98709589 101.94927527 444.98709589 104.36328125 442.01586914 C107.08661435 438.94275014 109.20135087 436.84177166 112.85546875 434.94555664 C118.29830213 434.65685098 123.54430349 436.54464918 128.65234375 438.22875977 C131.76636946 439.24192239 134.93103387 440.01992484 138.10546875 440.82055664 C141.44991217 441.72979416 144.79096326 442.64989875 148.13037109 443.57739258 C161.49085084 447.28549753 174.89735298 450.75139934 188.36303711 454.05395508 C195.79318154 455.88314422 203.16636543 457.85147835 210.51611328 459.98168945 C215.6750548 461.47075958 220.85423826 462.87693358 226.04296875 464.25805664 C227.55600586 464.6728125 227.55600586 464.6728125 229.09960938 465.09594727 C230.06447266 465.35182617 231.02933594 465.60770508 232.0234375 465.87133789 C232.88219482 466.10248291 233.74095215 466.33362793 234.62573242 466.57177734 C237.01779074 467.1518488 237.01779074 467.1518488 239.85546875 465.94555664 C239.46265717 464.78124115 239.06984558 463.61692566 238.66513062 462.41732788 C234.96668663 451.44719575 231.28718053 440.47087221 227.62615013 429.48819542 C225.74333619 423.84199415 223.85390658 418.19818985 221.94921875 412.55932617 C220.1115361 407.1180259 218.29141631 401.6711407 216.48335648 396.21992874 C215.79027004 394.14061361 215.09086705 392.06339301 214.38508224 389.98835373 C213.39798523 387.08272393 212.43355912 384.17047462 211.47412109 381.25561523 C211.02852592 379.96951859 211.02852592 379.96951859 210.57392883 378.65744019 C208.56512243 372.43713617 209.2241936 369.20719203 212.16137695 363.33447266 C212.65468506 362.46491943 213.14799316 361.59536621 213.65625 360.69946289 C214.21441406 359.70946289 214.77257812 358.71946289 215.34765625 357.69946289 C215.94835937 356.64629883 216.5490625 355.59313477 217.16796875 354.50805664 C217.79316406 353.40204102 218.41835938 352.29602539 219.0625 351.15649414 C220.9889488 347.75025301 222.92204604 344.34784285 224.85546875 340.94555664 C226.4967181 338.04527957 228.13603715 335.14391853 229.77514648 332.24243164 C230.83258596 330.37096143 231.89069645 328.49987021 232.94946289 326.62915039 C237.61790708 318.37880326 242.26614337 310.11703634 246.87109375 301.83105469 C249.45471145 297.18824963 252.05713405 292.56940837 254.80859375 288.02368164 C255.24397461 287.29270264 255.67935547 286.56172363 256.12792969 285.80859375 C256.91623694 284.49176944 257.72038125 283.18422649 258.54394531 281.88916016 C260.21582954 279.07112402 260.92598385 277.41500437 260.43359375 274.13696289 C258.20993628 269.64011102 255.70442627 265.35957998 253.10546875 261.07055664 C251.92117162 259.09181078 250.73760267 257.11262896 249.5546875 255.13305664 C248.94286621 254.11211914 248.33104492 253.09118164 247.70068359 252.03930664 C244.73720022 247.07062956 241.82722756 242.07111469 238.91796875 237.07055664 C237.75132667 235.06793815 236.58465982 233.06533409 235.41796875 231.06274414 C234.8353125 230.06210937 234.25265625 229.06147461 233.65234375 228.03051758 C230.57698031 222.75058655 227.49722533 217.4732178 224.41796875 212.19555664 C221.1155687 206.53443641 221.1155687 206.53443641 219.52001953 203.76391602 C218.34994184 201.78278124 217.13562875 199.82743499 215.89013672 197.89282227 C211.92150506 191.59163556 209.66343853 187.37091156 210.85546875 179.94555664 C211.08363281 178.39022217 211.08363281 178.39022217 211.31640625 176.8034668 C211.82228118 173.64824515 212.37647307 170.50638034 212.96246338 167.36514282 C213.5106831 164.42587968 214.04126668 161.48349536 214.57351685 158.54130554 C214.86416437 156.93608748 215.1557526 155.33103951 215.44821167 153.72615051 C217.17557929 144.23612404 218.81980015 134.73175625 220.46606445 125.22738647 C221.12492465 121.42420433 221.78553503 117.62132769 222.44659424 113.81852722 C222.76436906 111.988428 223.08139379 110.15819837 223.39764404 108.32783508 C224.2445716 103.43092567 225.10636122 98.53715366 225.98730469 93.64624023 C226.17283905 92.6064653 226.35837341 91.56669037 226.54953003 90.4954071 C226.90562844 88.50133728 227.2656954 86.50797062 227.63040161 84.51545715 C228.44473399 79.93196936 229.07464793 75.62381441 228.85546875 70.94555664 C221.83066104 72.23828359 215.00426351 73.92672519 208.14501953 75.91064453 C206.61627953 76.34758385 206.61627953 76.34758385 205.05665588 76.79335022 C201.72028479 77.74791429 198.3855435 78.70804503 195.05078125 79.66821289 C192.72063519 80.33593273 190.39038242 81.00328028 188.06002808 81.67027283 C181.94834278 83.42053566 175.83800056 85.17544097 169.72796631 86.93145752 C162.29009261 89.06824565 154.8507684 91.1999769 147.41152763 93.33199978 C141.62759721 94.98965705 135.84393191 96.64821917 130.06106567 98.30958557 C129.00011185 98.61413666 127.93915802 98.91868774 126.84605408 99.23246765 C124.86571451 99.8009412 122.88552114 100.36992444 120.90550232 100.93951416 C120.03096909 101.19042313 119.15643585 101.44133209 118.25540161 101.69984436 C117.49777086 101.91755525 116.74014011 102.13526613 115.95955086 102.35957432 C115.26520376 102.55294848 114.57085667 102.74632265 113.85546875 102.94555664 C112.78577929 103.25589891 112.78577929 103.25589891 111.69447994 103.57251072 C109.85546875 103.94555664 109.85546875 103.94555664 108.03135681 103.16000366 C107.40604568 102.73007111 106.78073456 102.30013855 106.13647461 101.85717773 C105.41308395 101.36903091 104.6896933 100.88088409 103.94438171 100.37794495 C103.16093887 99.83049118 102.37749603 99.28303741 101.5703125 98.71899414 C100.737845 98.15232529 99.9053775 97.58565643 99.04768372 97.0018158 C96.2880429 95.11957351 93.54077588 93.22002308 90.79296875 91.32055664 C88.87297924 90.00697126 86.95206737 88.69473313 85.03027344 87.38378906 C81.01055804 84.64022823 76.99495687 81.89079028 72.98193359 79.13745117 C64.14530445 73.08197874 55.25777492 67.10212303 46.37112427 61.12042236 C43.67455436 59.30457822 40.97945513 57.48657479 38.28491211 55.66772461 C30.14089213 50.1714733 21.99458893 44.67967408 13.79779053 39.26228333 C11.50272332 37.73989824 9.21922926 36.22160301 7.02478027 34.55630493 C6.41815552 34.09734833 5.81153076 33.63839172 5.18652344 33.16552734 C4.37232941 32.53007744 4.37232941 32.53007744 3.54168701 31.88179016 C-0.24080329 29.78165028 -2.80715926 31.06979626 -5.91015625 33.40258789 Z " fill="#010101" transform="translate(581.14453125,113.054443359375)"/>
</svg>
