<?xml version="1.0" standalone="no"?>
<!DOCTYPE svg PUBLIC "-//W3C//DTD SVG 20010904//EN"
 "http://www.w3.org/TR/2001/REC-SVG-20010904/DTD/svg10.dtd">
<svg version="1.0" xmlns="http://www.w3.org/2000/svg"
 width="671.000000pt" height="1145.000000pt" viewBox="0 0 671.000000 1145.000000"
 preserveAspectRatio="xMidYMid meet">

<g transform="translate(0.000000,1145.000000) scale(0.100000,-0.100000)"
fill="#000000" stroke="none">
<path d="M4500 11425 c-9 -11 -16 -12 -31 -2 -17 10 -23 9 -37 -9 -9 -12 -25
-24 -36 -28 -14 -5 -17 -2 -12 11 5 16 4 16 -9 -1 -8 -10 -27 -20 -42 -22 -15
-1 -29 -8 -31 -13 -2 -6 -7 -9 -12 -6 -4 2 -15 -4 -25 -15 -10 -11 -23 -20
-28 -20 -6 0 -2 7 9 16 17 14 17 15 1 10 -10 -3 -25 -6 -33 -6 -9 0 -12 -5 -8
-12 4 -7 3 -8 -4 -4 -6 4 -27 0 -46 -8 -26 -11 -36 -11 -40 -3 -3 8 -7 9 -13
2 -10 -12 -76 -15 -83 -4 -3 4 -17 2 -30 -5 -21 -10 -30 -10 -52 1 -22 11 -26
11 -23 0 4 -8 -4 -13 -20 -15 -15 -1 -24 2 -20 8 4 6 -4 6 -22 -1 -19 -7 -29
-7 -31 0 -2 6 -17 11 -33 11 -17 0 -28 -4 -24 -10 3 -5 0 -7 -8 -4 -8 3 -18 1
-22 -5 -10 -17 -25 -13 -18 5 4 12 0 14 -23 8 -39 -9 -46 -14 -41 -28 3 -8 -9
-12 -34 -13 -24 -1 -39 3 -39 10 0 6 -7 2 -15 -11 -13 -18 -19 -20 -34 -10
-25 15 -63 4 -80 -24 -13 -21 -13 -22 2 -10 10 9 17 10 22 2 6 -10 -8 -13 -55
-11 -14 0 -19 -2 -12 -5 20 -9 13 -27 -9 -21 -15 4 -19 2 -15 -9 5 -12 1 -14
-15 -9 -16 5 -19 4 -14 -6 6 -9 3 -11 -9 -6 -9 4 -15 3 -12 -2 3 -4 -4 -18
-15 -29 -24 -26 -37 -29 -18 -4 13 15 12 16 -3 3 -10 -7 -18 -19 -18 -27 0
-13 -39 -40 -52 -36 -5 1 -8 -4 -8 -11 0 -6 -13 -25 -30 -40 -23 -23 -33 -26
-48 -18 -11 6 -23 7 -27 3 -5 -4 -5 -2 -2 4 4 7 -8 23 -27 37 -25 20 -36 23
-45 14 -9 -9 -14 -8 -21 3 -7 10 -12 12 -17 4 -5 -6 -25 -14 -45 -18 -25 -5
-38 -12 -38 -23 0 -13 -3 -13 -15 -3 -13 10 -19 8 -36 -14 -20 -25 -47 -31
-60 -12 -10 13 -29 -3 -22 -19 3 -8 1 -15 -5 -15 -6 0 -18 -3 -27 -7 -14 -5
-16 -2 -10 17 5 15 4 20 -4 16 -12 -8 -44 18 -35 27 3 3 -4 10 -15 17 -12 6
-21 18 -21 26 0 10 -6 14 -14 11 -7 -3 -19 0 -25 6 -8 8 -11 7 -11 -4 0 -9 -7
-16 -15 -16 -8 0 -12 4 -9 9 3 4 0 8 -5 8 -6 0 -11 -4 -11 -8 0 -10 -33 -27
-69 -38 -19 -5 -23 -3 -18 9 4 12 -3 14 -41 10 -26 -2 -62 -11 -80 -20 -25
-13 -37 -14 -56 -5 -13 6 -35 9 -50 8 -18 -2 -26 1 -26 13 -1 15 -1 15 -10 0
-10 -17 -60 -15 -60 2 0 5 -5 9 -12 9 -6 0 -8 -3 -5 -7 4 -3 2 -12 -4 -20 -10
-11 -14 -10 -24 3 -17 24 -73 10 -77 -19 -2 -17 -10 -22 -30 -22 -16 1 -28 -5
-28 -11 0 -7 -15 -25 -32 -40 -18 -15 -33 -30 -33 -33 0 -4 -10 -18 -23 -31
-13 -14 -33 -45 -44 -69 -11 -24 -28 -46 -39 -48 -10 -3 -16 -10 -12 -16 4 -6
0 -8 -10 -4 -10 4 -20 0 -25 -9 -5 -8 -18 -16 -30 -17 -26 -2 -30 -17 -4 -17
13 -1 11 -5 -10 -21 -32 -24 -35 -37 -11 -54 14 -10 15 -16 5 -27 -6 -8 -9
-18 -5 -22 4 -4 3 -10 -3 -14 -6 -4 -14 -23 -18 -42 -5 -30 -5 -32 7 -16 12
16 13 16 13 -3 0 -12 -6 -21 -13 -21 -16 0 -17 -12 0 -29 10 -11 9 -13 -5 -8
-14 5 -18 1 -19 -16 -1 -12 -1 -26 0 -31 1 -5 -5 -6 -14 -3 -9 4 -15 1 -15 -8
0 -8 -6 -16 -12 -17 -16 -1 -24 -3 -70 -12 -21 -5 -35 -12 -32 -17 3 -5 0 -9
-5 -9 -6 0 -11 4 -11 10 0 11 -32 1 -42 -14 -5 -7 -8 -4 -8 7 0 22 -6 22 -33
-3 -19 -18 -23 -19 -33 -5 -9 11 -22 14 -57 9 -38 -5 -50 -13 -69 -40 -12 -18
-30 -35 -39 -37 -9 -3 -25 -21 -34 -41 -9 -20 -21 -33 -26 -30 -5 3 -9 -2 -9
-11 0 -9 -5 -13 -10 -10 -6 4 -8 12 -4 18 3 7 -2 3 -10 -8 -9 -11 -14 -25 -12
-32 3 -8 -2 -13 -14 -13 -11 0 -20 -7 -20 -16 0 -8 -4 -13 -9 -9 -5 3 -17 -2
-25 -11 -10 -10 -16 -11 -16 -3 0 9 -3 9 -14 -1 -8 -6 -12 -18 -9 -26 3 -8 -3
-24 -12 -34 -11 -12 -13 -20 -7 -20 7 0 12 -7 12 -16 0 -8 -4 -12 -10 -9 -15
9 -12 -2 6 -19 14 -15 14 -16 -1 -16 -9 0 -14 -4 -11 -9 10 -16 -5 -41 -23
-39 -10 2 -17 -5 -19 -19 -2 -13 -10 -23 -18 -23 -8 0 -14 -5 -14 -10 0 -6 -5
-16 -10 -23 -39 -46 -50 -61 -50 -69 0 -4 -5 -7 -12 -5 -7 1 -13 -5 -14 -13
-3 -37 -16 -58 -32 -53 -10 4 -13 2 -8 -5 3 -6 1 -14 -5 -17 -5 -4 -8 -13 -5
-21 3 -8 0 -17 -8 -20 -10 -4 -13 -26 -9 -97 5 -116 5 -117 15 -117 4 0 8 -12
8 -26 0 -14 7 -33 16 -41 10 -10 13 -25 10 -39 -5 -17 -2 -24 8 -24 20 0 37
-92 20 -109 -3 -4 -16 -6 -57 -10 -5 -1 -5 -5 -2 -11 11 -17 -5 -32 -21 -19
-10 8 -14 8 -14 0 0 -6 -7 -11 -15 -11 -8 0 -15 -5 -15 -11 0 -6 7 -8 16 -5
12 5 12 1 -4 -22 -27 -40 -34 -62 -16 -55 17 6 19 -28 2 -45 -8 -8 -8 -15 2
-26 7 -9 16 -13 21 -10 5 3 9 -3 9 -13 1 -17 1 -17 11 -1 6 12 19 16 39 13 20
-2 33 2 39 13 9 16 10 16 16 0 4 -10 11 -18 16 -18 6 0 16 -6 23 -12 12 -11
11 -19 -5 -50 -21 -41 -23 -52 -10 -44 11 7 9 -14 -4 -34 -13 -21 -15 -40 -4
-40 19 0 8 -21 -28 -56 -32 -32 -35 -38 -21 -48 13 -9 13 -13 2 -24 -7 -6 -18
-12 -24 -12 -5 0 -10 -5 -10 -11 0 -5 4 -7 10 -4 15 9 22 -38 10 -70 -12 -33
1 -48 35 -40 17 4 16 3 -2 -6 -25 -13 -31 -39 -10 -39 7 -1 4 -8 -8 -18 -27
-24 -29 -41 -9 -63 15 -17 15 -19 0 -25 -18 -7 -22 -49 -6 -59 13 -8 13 -52 0
-60 -6 -3 -6 -15 0 -30 6 -15 6 -27 0 -30 -5 -3 -7 -12 -4 -19 4 -9 -4 -16
-23 -20 -16 -4 -35 -15 -43 -25 -7 -11 -19 -17 -27 -14 -7 3 -13 0 -13 -6 0
-6 -6 -8 -14 -5 -8 3 -17 1 -21 -5 -3 -7 2 -11 14 -11 19 0 18 -3 -10 -29 -20
-19 -26 -32 -19 -36 7 -4 10 -18 7 -31 -2 -14 1 -24 7 -24 6 0 3 -7 -8 -15
-17 -13 -17 -16 -2 -45 10 -20 12 -38 7 -49 -5 -9 -6 -23 -3 -31 5 -13 3 -13
-11 -1 -15 12 -17 11 -18 -5 -1 -11 -1 -25 0 -31 1 -8 -5 -10 -14 -7 -20 8
-19 -15 2 -38 17 -19 25 -68 11 -68 -4 0 -8 -5 -8 -11 0 -5 4 -8 9 -4 5 3 17
-2 26 -12 16 -16 18 -16 31 2 8 10 24 20 36 22 13 2 25 8 26 13 7 19 20 0 15
-20 -7 -25 -49 -60 -73 -60 -10 0 -23 -7 -30 -15 -7 -8 -36 -22 -66 -32 -37
-11 -54 -22 -54 -34 0 -9 -6 -22 -14 -28 -14 -12 -16 -76 -3 -98 4 -7 0 -14
-12 -18 -30 -9 -32 -32 -5 -50 18 -11 22 -20 16 -28 -6 -7 -12 -25 -14 -42 -3
-26 0 -30 20 -28 26 3 27 0 6 -21 -8 -9 -11 -16 -5 -16 6 0 8 -6 5 -14 -3 -7
1 -16 9 -19 16 -6 12 -53 -5 -63 -5 -4 0 -11 13 -18 23 -11 35 -46 16 -46 -6
0 -19 -8 -30 -17 -11 -10 -17 -13 -14 -6 8 13 -30 6 -39 -8 -3 -5 -14 -9 -25
-9 -10 0 -19 -4 -19 -10 0 -5 -9 -10 -20 -10 -11 0 -20 -5 -20 -11 0 -5 -4 -8
-8 -5 -4 2 -14 1 -22 -5 -13 -7 -12 -9 3 -9 25 0 21 -15 -8 -28 -14 -6 -25
-16 -25 -22 0 -6 5 -8 10 -5 6 3 10 -1 10 -9 0 -9 5 -16 10 -16 6 0 10 -7 10
-15 0 -8 -6 -15 -12 -15 -10 0 -10 -2 -1 -8 8 -5 9 -13 3 -22 -16 -25 -12 -30
20 -26 16 2 30 -1 30 -7 0 -6 7 -18 15 -27 12 -14 13 -23 5 -45 -6 -16 -9 -34
-6 -41 3 -8 -6 -27 -19 -43 -24 -28 -24 -29 -5 -42 20 -15 39 -109 21 -109 -5
0 -11 -12 -13 -26 -2 -15 -12 -32 -23 -38 -11 -6 -27 -19 -37 -29 -9 -11 -22
-16 -28 -12 -5 3 -17 -1 -26 -9 -8 -9 -22 -16 -30 -16 -8 0 -14 -5 -14 -11 0
-6 -9 -9 -20 -6 -11 3 -34 -4 -52 -17 -18 -12 -42 -22 -53 -23 -37 -3 -95 -33
-95 -49 0 -14 3 -14 15 -4 8 7 15 8 15 3 0 -5 -11 -16 -25 -23 -17 -9 -24 -19
-19 -29 14 -37 16 -82 4 -96 -11 -13 -10 -18 6 -30 10 -8 25 -15 32 -15 15 0
16 -12 2 -26 -7 -7 -8 -19 -1 -37 9 -24 13 -26 36 -15 14 6 25 14 25 18 0 4
11 5 25 2 15 -2 25 0 25 7 0 19 21 12 42 -14 15 -20 25 -23 51 -18 18 3 34 10
35 15 2 4 8 6 13 2 5 -3 33 6 62 21 29 14 62 27 72 29 72 15 155 40 155 47 0
5 3 8 8 8 4 -1 9 0 12 1 3 1 21 4 40 5 35 2 36 1 32 -31 -4 -28 0 -35 19 -43
24 -8 45 -1 82 28 15 12 17 12 17 -2 0 -25 17 -29 47 -11 17 11 23 12 16 4 -7
-8 -13 -19 -13 -24 1 -6 10 0 22 14 14 16 19 19 15 8 -4 -12 -1 -18 8 -18 8 0
15 5 15 10 0 6 5 10 10 10 6 0 10 -6 9 -12 -4 -35 1 -40 35 -34 21 4 36 2 38
-4 2 -6 11 -8 21 -4 17 6 17 7 0 20 -14 11 -14 14 -3 12 8 -2 21 -11 29 -22
13 -17 15 -17 23 -2 5 9 17 16 28 16 13 0 17 -5 13 -21 l-6 -20 34 20 c19 12
39 21 44 21 6 0 3 -4 -5 -10 -12 -7 -11 -10 5 -16 11 -4 23 -12 28 -18 5 -7
13 -4 23 9 13 17 16 18 24 5 8 -12 10 -12 10 -1 0 10 6 10 26 -4 18 -12 29
-14 37 -6 7 7 16 4 28 -11 13 -15 22 -18 31 -11 19 15 58 23 58 12 0 -5 12
-14 28 -20 27 -10 39 -10 35 3 -1 3 4 9 12 12 11 4 12 0 5 -18 -8 -22 -7 -23
31 -20 22 2 39 -1 39 -7 0 -6 5 -7 10 -4 5 3 10 2 10 -4 0 -6 12 -9 27 -8 19
1 29 -3 31 -15 2 -13 -3 -18 -19 -18 -12 0 -20 -3 -16 -6 3 -3 -8 -19 -24 -35
-31 -31 -36 -45 -17 -51 7 -3 13 -13 13 -24 0 -12 14 -26 42 -39 23 -11 44
-28 46 -37 3 -10 14 -18 24 -18 11 0 29 -14 42 -30 12 -17 26 -28 32 -25 14 9
11 -3 -7 -30 -10 -16 -13 -31 -8 -42 4 -10 8 -20 8 -23 6 -25 26 -42 45 -37
11 3 19 1 15 -4 -3 -5 -11 -9 -18 -9 -7 0 -18 -11 -25 -24 -7 -13 -24 -30 -37
-37 -13 -7 -24 -18 -24 -26 0 -7 -4 -13 -9 -13 -14 0 -62 -50 -57 -59 4 -5 16
-7 28 -3 19 5 18 1 -12 -36 -18 -23 -36 -39 -41 -37 -4 3 -10 -4 -14 -15 -4
-11 -11 -18 -16 -15 -5 4 -14 -6 -20 -22 -7 -19 -7 -29 0 -31 6 -2 8 -16 4
-33 -5 -25 -2 -29 16 -29 11 0 21 -5 21 -11 0 -5 -4 -8 -9 -4 -12 7 -22 -9
-28 -48 -3 -17 -11 -40 -18 -51 -11 -15 -12 -24 -2 -40 6 -12 10 -25 8 -31 -8
-24 -8 -75 0 -75 14 0 11 -38 -3 -43 -10 -3 -8 -9 4 -24 12 -13 14 -23 8 -29
-7 -7 -6 -21 1 -43 9 -24 14 -29 20 -19 12 19 11 3 -2 -26 -10 -20 -9 -28 5
-41 18 -19 20 -31 6 -40 -7 -4 -7 -13 0 -26 8 -13 7 -19 0 -19 -6 0 -8 -5 -5
-10 4 -6 -5 -20 -19 -31 -14 -11 -26 -30 -26 -42 0 -18 -2 -19 -10 -7 -9 12
-17 8 -46 -25 -19 -22 -41 -40 -47 -40 -16 0 -125 -81 -154 -114 -23 -27 -30
-51 -14 -51 5 0 7 -9 4 -20 -4 -14 0 -20 10 -20 26 0 29 -18 6 -41 -17 -17
-18 -23 -8 -30 7 -4 18 -5 24 -1 5 3 5 -1 -2 -9 -13 -16 -14 -61 -2 -53 4 2
11 0 14 -6 5 -8 11 -8 20 0 10 9 19 6 35 -10 11 -11 18 -26 14 -32 -5 -8 2 -9
22 -4 16 4 31 12 35 17 7 11 39 1 39 -13 0 -5 -5 -6 -12 -2 -7 4 -8 3 -4 -4 4
-8 15 -8 31 -2 19 7 25 6 25 -5 0 -7 -4 -16 -9 -20 -11 -6 -10 -45 1 -45 4 0
8 -7 8 -15 0 -9 -6 -12 -17 -8 -11 4 -14 3 -9 -5 4 -7 1 -12 -8 -12 -8 0 -21
-6 -28 -13 -7 -8 -19 -16 -26 -18 -10 -3 -9 -9 2 -24 14 -17 17 -18 26 -5 5 8
10 10 10 4 0 -6 -7 -17 -15 -24 -22 -18 1 -43 32 -36 21 6 22 4 13 -20 -13
-34 -13 -47 3 -38 7 5 6 0 -3 -11 -11 -14 -12 -19 -2 -22 6 -3 12 -11 12 -18
0 -7 6 -16 12 -18 8 -4 7 -6 -3 -6 -14 -1 -16 -12 -15 -62 2 -45 -2 -62 -13
-69 -9 -5 -11 -10 -6 -10 6 0 4 -4 -3 -9 -11 -7 -11 -10 0 -22 7 -8 13 -32 13
-55 0 -35 3 -40 19 -36 16 4 17 2 7 -16 -7 -14 -8 -23 -1 -27 17 -10 9 -106
-10 -125 -12 -12 -14 -22 -9 -33 5 -8 10 -24 12 -36 2 -11 6 -24 10 -27 11
-11 8 -44 -3 -44 -6 0 -9 -3 -8 -7 5 -24 -17 -85 -33 -91 -10 -4 -19 -11 -19
-17 -1 -5 -6 -9 -11 -7 -5 1 -12 -5 -15 -13 -4 -8 -10 -15 -16 -15 -16 0 -39
-28 -28 -35 14 -9 8 -105 -7 -105 -7 0 -13 -6 -13 -13 0 -7 -10 -24 -23 -37
-12 -14 -21 -29 -19 -33 1 -5 -5 -16 -15 -24 -13 -10 -15 -16 -5 -19 6 -3 12
-11 12 -17 0 -8 -4 -7 -12 1 -22 22 -41 14 -35 -14 3 -18 1 -24 -9 -20 -8 3
-15 -6 -19 -25 -4 -16 -15 -35 -26 -42 -10 -6 -19 -17 -19 -24 0 -7 -7 -13
-15 -13 -8 0 -12 -6 -9 -14 3 -7 -1 -20 -8 -27 -7 -8 -22 -31 -33 -52 -11 -22
-28 -45 -39 -52 -12 -9 -16 -20 -12 -30 5 -13 2 -16 -10 -11 -12 5 -14 1 -9
-15 5 -14 3 -19 -4 -15 -6 4 -13 -4 -17 -19 -3 -14 -13 -25 -21 -25 -8 0 -13
-6 -11 -12 3 -7 -2 -19 -9 -27 -8 -8 -13 -22 -10 -31 2 -9 -3 -21 -12 -27 -18
-12 -46 -97 -36 -112 3 -6 1 -11 -5 -11 -7 0 -9 -8 -5 -20 5 -15 2 -20 -10
-20 -13 0 -16 -7 -13 -29 2 -17 1 -28 -4 -25 -4 3 -8 -6 -8 -20 0 -19 -6 -26
-33 -31 -17 -4 -44 -16 -58 -26 -14 -10 -29 -16 -33 -12 -3 3 -6 1 -6 -5 0 -7
-9 -12 -20 -12 -12 0 -20 -7 -20 -16 0 -9 -6 -14 -12 -12 -18 6 -41 -19 -32
-34 4 -7 8 -27 7 -46 0 -23 4 -32 12 -28 13 4 35 -13 65 -50 20 -25 14 -54
-11 -54 -29 0 -61 -19 -53 -32 4 -7 2 -8 -5 -4 -7 5 -20 -2 -32 -15 -18 -21
-19 -24 -4 -35 9 -7 16 -15 16 -18 -3 -25 1 -36 9 -31 6 4 17 2 24 -5 17 -13
5 -66 -13 -62 -6 1 -16 -10 -23 -25 -6 -16 -17 -41 -24 -57 -11 -26 -10 -32 4
-43 9 -7 12 -13 6 -13 -16 0 -14 -32 3 -52 8 -9 21 -14 28 -12 7 3 15 -4 18
-16 4 -18 9 -20 23 -12 14 8 22 5 36 -10 10 -12 18 -18 18 -14 0 4 7 1 15 -6
41 -37 46 -40 59 -29 8 7 23 7 46 1 24 -7 38 -6 49 3 12 10 13 9 6 -2 -6 -11
-4 -13 8 -8 9 3 19 2 21 -2 3 -5 16 -6 29 -4 30 6 46 -24 19 -35 -9 -4 -17
-16 -17 -27 0 -14 -6 -20 -23 -19 -12 0 -22 -2 -22 -6 0 -4 -19 -16 -43 -28
-60 -32 -75 -45 -79 -72 -3 -28 -37 -60 -62 -60 -9 0 -16 -6 -16 -14 0 -7 -9
-16 -20 -19 -11 -3 -20 -11 -20 -17 0 -7 8 -10 19 -7 13 3 18 0 15 -8 -3 -6 2
-18 11 -25 18 -15 20 -32 3 -28 -7 2 -15 -2 -16 -7 -7 -21 -26 -36 -38 -31 -8
3 -18 -3 -24 -14 -11 -21 -3 -70 11 -70 5 0 8 -6 7 -12 -2 -8 9 -14 25 -16 15
-2 25 -8 22 -13 -4 -5 1 -9 9 -9 9 0 16 -7 16 -15 0 -10 10 -14 35 -13 19 1
32 5 28 11 -3 5 4 4 15 -2 15 -8 21 -8 25 2 3 9 9 7 24 -6 11 -9 24 -17 30
-17 14 0 73 -33 73 -41 0 -3 13 -4 29 -1 16 2 32 -1 35 -7 5 -7 13 -7 26 -1
11 6 29 14 40 20 14 7 23 6 33 -5 16 -16 37 -2 37 24 0 12 2 12 13 -2 14 -20
78 -18 85 2 2 6 8 11 14 11 6 0 7 -7 4 -16 -4 -10 -2 -13 6 -8 7 5 9 0 6 -14
-3 -12 -3 -20 1 -19 4 1 19 -10 33 -25 20 -19 24 -29 15 -36 -19 -14 -78 -32
-88 -26 -5 3 -9 0 -9 -6 0 -6 -4 -9 -8 -6 -11 7 -149 -32 -176 -49 -13 -9 -31
-13 -40 -9 -9 3 -16 2 -16 -4 0 -5 -12 -12 -28 -15 -45 -9 -71 -38 -65 -72 7
-36 32 -68 49 -61 7 3 15 -1 18 -9 4 -11 110 -14 626 -15 385 0 619 3 616 9
-6 10 48 61 65 61 5 0 9 7 9 15 0 8 4 15 10 15 5 0 7 7 4 15 -4 8 -14 15 -24
15 -21 0 -34 26 -19 36 6 3 8 19 5 35 -4 22 1 35 19 55 28 30 33 63 10 65 -8
1 -20 2 -27 3 -15 1 -22 22 -10 30 15 9 1 56 -16 56 -10 0 -1 10 20 25 20 14
42 25 47 25 6 0 11 4 11 9 0 4 30 23 67 42 37 19 77 43 88 54 12 11 38 33 58
48 44 33 47 47 11 47 -23 0 -25 3 -20 25 5 19 3 23 -9 19 -10 -4 -15 0 -15 12
0 17 -1 16 -15 -2 -9 -12 -17 -15 -22 -9 -5 6 -17 10 -29 9 -16 -1 -20 4 -19
26 1 21 -6 32 -26 44 -15 9 -31 16 -36 15 -4 -1 -10 -1 -13 1 -3 1 -15 3 -28
6 -29 5 -52 27 -52 48 0 9 -8 16 -19 16 -24 0 -36 32 -22 58 6 11 6 23 1 28
-13 13 -1 27 53 59 27 15 51 34 54 42 3 8 13 11 25 7 13 -4 18 -2 14 4 -3 5 5
13 19 16 14 4 25 11 25 16 0 5 22 19 49 32 42 19 48 25 40 40 -10 19 0 24 16
9 6 -6 16 -3 24 6 13 14 9 15 -41 9 -58 -7 -88 2 -115 34 -9 11 -13 11 -14 3
-1 -7 -2 -19 -3 -25 -1 -7 -9 -12 -19 -12 -9 1 -14 -3 -10 -9 4 -6 -2 -8 -15
-5 -12 4 -26 0 -33 -8 -6 -8 -18 -14 -26 -14 -9 0 -13 -6 -10 -13 4 -10 -2
-13 -20 -9 -18 3 -24 1 -19 -7 5 -7 0 -11 -13 -11 -12 0 -21 -4 -21 -10 0 -5
-7 -10 -15 -10 -8 0 -24 -5 -35 -12 -22 -14 -25 -12 -35 21 -5 16 -4 21 4 17
7 -5 9 -1 5 8 -3 9 -11 17 -18 17 -6 1 -15 2 -21 4 -5 1 -16 3 -23 3 -9 2 -9
10 3 38 13 32 13 35 0 30 -28 -10 -15 13 22 41 20 15 47 38 59 50 13 12 31 24
41 28 10 3 32 24 48 46 17 22 36 46 43 54 13 15 0 31 -18 20 -6 -3 -10 1 -10
9 0 9 9 16 21 16 11 0 18 4 15 9 -3 5 1 11 9 15 8 3 15 16 15 30 0 18 -7 26
-27 31 -15 3 -23 9 -17 13 11 8 12 48 1 58 -14 14 -7 31 18 44 14 7 25 19 25
27 0 7 6 13 13 13 19 0 49 54 36 67 -8 8 -7 13 0 17 6 4 11 13 11 19 0 7 -7 4
-15 -7 -7 -10 -18 -15 -24 -11 -6 3 -11 0 -11 -7 0 -10 -2 -10 -8 0 -6 9 -19
3 -48 -21 -39 -34 -66 -37 -72 -7 -2 8 -8 16 -13 18 -5 2 -9 10 -9 17 0 15
-27 28 -41 19 -14 -8 -11 9 7 45 15 30 15 33 -2 46 -11 8 -14 15 -9 15 14 1
92 70 80 70 -6 0 -2 5 8 11 9 5 17 15 17 21 0 7 -6 6 -15 -2 -13 -11 -14 -10
-8 6 3 10 13 29 20 41 8 12 13 27 12 35 -1 7 7 35 19 61 12 26 21 51 20 55 -1
4 6 22 15 40 10 17 15 32 11 32 -4 0 -1 7 6 15 7 8 9 15 5 15 -4 0 -2 6 4 14
9 11 7 15 -10 19 -12 3 -18 10 -14 16 3 6 2 11 -4 11 -7 0 -7 8 -1 26 13 34
13 37 -6 30 -14 -5 -15 -4 -4 9 7 8 17 12 24 8 6 -4 4 2 -4 12 -14 17 -13 18
3 12 15 -6 22 3 18 26 0 4 3 7 9 7 5 0 10 6 10 14 0 8 9 18 20 21 17 6 25 23
21 47 0 5 3 9 9 9 14 2 22 5 43 13 10 5 23 3 31 -3 10 -8 16 -8 23 1 18 24 24
51 12 59 -15 9 7 78 27 86 8 3 14 16 14 29 0 13 8 32 18 42 10 10 16 24 14 30
-2 7 1 12 7 12 12 0 51 40 51 53 0 5 -7 7 -14 4 -10 -4 -13 -1 -9 9 3 7 12 14
20 14 12 0 13 6 8 23 -5 12 -8 44 -7 71 1 46 0 48 -23 43 -14 -2 -25 0 -25 4
0 5 -7 9 -15 9 -8 0 -15 5 -15 11 0 6 -9 18 -19 27 -20 18 -35 98 -20 108 5 3
9 11 9 17 0 7 -4 6 -10 -3 -8 -13 -10 -13 -10 2 0 9 5 20 11 24 8 4 7 9 -2 15
-11 7 -11 9 1 9 10 0 11 3 4 8 -6 4 -15 23 -19 42 l-7 35 21 -19 c19 -17 21
-18 21 -2 0 10 -5 14 -12 10 -8 -5 -9 0 -5 15 4 17 2 21 -9 17 -17 -6 -18 8
-3 32 9 14 8 25 -4 48 -12 24 -17 69 -7 69 7 0 5 112 -2 122 -12 16 -5 63 12
73 16 10 23 77 9 85 -5 4 -7 11 -3 16 3 5 -5 18 -17 28 -22 17 -24 17 -36 2
-8 -11 -12 -12 -13 -3 0 7 -11 25 -24 39 -27 29 -24 53 6 53 10 0 17 3 15 7
-3 5 13 22 34 38 36 28 46 53 20 47 -7 -1 -9 2 -6 8 4 6 14 9 23 5 9 -3 13 -3
9 1 -4 4 -1 14 7 23 19 21 20 32 6 41 -9 6 -7 11 9 19 11 7 21 18 21 26 0 7 9
17 20 20 22 7 26 21 9 27 -8 3 -5 10 6 21 17 17 17 19 -4 41 -15 16 -18 25
-10 33 20 20 0 53 -32 54 -51 2 -54 4 -54 21 0 10 -5 22 -12 29 -6 6 -9 19 -6
28 12 35 45 101 54 107 5 3 9 16 9 30 0 14 5 34 10 44 8 14 6 21 -5 27 -13 8
-13 15 -4 41 8 25 8 36 -1 47 -7 8 -10 21 -7 29 4 10 1 13 -9 9 -17 -6 -17 -5
-3 35 6 17 17 33 25 36 10 4 13 13 9 25 -4 13 1 27 14 40 22 22 28 51 11 51
-5 0 -10 14 -10 30 0 17 -5 30 -12 30 -10 0 -9 3 1 9 11 7 9 10 -8 16 -16 5
-20 12 -16 26 4 13 2 19 -8 19 -12 0 -14 12 -12 58 4 53 22 134 24 103 2 -23
31 8 31 33 -1 19 -2 19 -11 4 -24 -42 -33 -3 -16 67 3 11 6 35 6 54 1 29 4 33
22 28 14 -4 19 -2 16 8 -3 7 0 18 6 24 9 10 9 12 -2 9 -7 -2 -16 3 -18 10 -3
7 3 12 14 12 13 0 15 2 5 9 -10 6 -11 19 -6 46 4 24 9 33 15 24 5 -9 10 -5 15
15 4 17 11 25 20 22 8 -3 14 1 14 9 0 19 19 19 26 1 3 -8 14 -16 25 -19 12 -3
17 -1 13 5 -4 6 -8 24 -10 40 -3 21 0 27 9 22 9 -5 9 -4 0 7 -7 7 -12 22 -12
34 1 18 2 18 6 1 8 -32 22 3 16 41 -4 26 -2 33 11 33 9 0 16 4 16 10 0 5 -7 7
-16 3 -13 -5 -15 2 -10 43 2 27 5 50 5 52 1 1 8 2 16 2 8 0 15 7 15 15 0 8 4
15 9 15 5 0 8 8 7 17 0 10 8 19 19 21 11 3 25 11 31 20 10 13 11 13 17 -2 4
-9 1 -16 -5 -16 -7 0 -6 -5 2 -15 9 -11 16 -12 25 -5 9 8 14 6 19 -6 9 -24 7
-41 -4 -24 -5 8 -12 11 -17 7 -10 -11 16 -26 36 -20 11 3 21 24 30 60 7 31 18
65 23 77 6 12 14 28 18 36 4 8 14 14 22 12 8 -1 21 10 28 25 7 16 15 23 17 16
3 -7 9 -13 15 -13 6 0 8 6 5 13 -3 9 5 12 30 9 29 -4 35 -1 40 18 3 12 9 17
12 11 9 -14 61 8 61 25 0 7 7 15 16 18 8 3 12 11 8 17 -4 7 -3 9 3 6 5 -4 23
6 39 21 32 31 84 66 99 68 6 1 16 2 24 3 8 1 11 8 8 19 -4 17 1 19 46 15 28
-2 58 -8 68 -14 24 -12 110 -1 130 17 9 8 20 14 25 13 16 -4 84 31 84 42 0 8
4 8 13 1 10 -9 19 -8 35 3 19 14 22 14 30 -1 7 -12 14 -14 28 -7 10 6 41 16
69 22 27 7 53 18 57 24 5 8 10 4 14 -10 4 -13 10 -23 15 -23 5 0 5 -8 2 -17
-5 -12 -2 -15 10 -10 10 4 17 2 17 -4 0 -7 12 -9 29 -7 29 4 29 4 16 -21 -10
-21 -10 -28 0 -38 15 -14 76 -7 118 14 15 8 32 11 37 8 13 -8 13 -38 0 -51 -7
-7 0 -17 20 -32 18 -13 30 -18 30 -11 0 7 3 9 7 6 3 -4 12 1 20 11 7 9 13 13
12 7 -3 -21 1 -35 11 -35 5 0 7 6 4 14 -3 8 -1 17 4 20 6 3 12 -1 16 -9 3 -8
1 -17 -5 -20 -15 -10 -7 -64 8 -58 7 3 13 0 13 -6 0 -6 -7 -11 -15 -11 -8 0
-15 -3 -15 -8 0 -4 -25 -22 -55 -40 -31 -18 -53 -37 -50 -42 3 -5 -3 -18 -15
-30 -11 -11 -20 -25 -20 -31 0 -7 -11 -9 -30 -5 -22 4 -29 2 -24 -6 5 -8 2 -9
-10 -5 -10 4 -15 3 -11 -3 3 -6 -3 -10 -14 -10 -11 0 -26 -6 -33 -13 -7 -8
-20 -11 -28 -9 -11 4 -10 -2 4 -24 11 -16 25 -32 32 -37 16 -9 7 -37 -12 -37
-8 0 -13 -3 -12 -7 5 -19 -15 -54 -27 -49 -12 4 -43 -15 -69 -43 -37 -40 -44
-50 -38 -55 3 -3 0 -6 -6 -6 -6 0 -18 -14 -27 -30 -9 -16 -12 -30 -8 -30 4 0
-3 -7 -15 -16 -12 -8 -22 -23 -22 -33 0 -10 -6 -24 -14 -30 -8 -7 -18 -26 -21
-42 -4 -16 -11 -29 -16 -29 -18 0 -9 -42 11 -47 11 -3 20 -14 20 -24 0 -11 7
-19 15 -19 18 0 20 21 3 39 -7 7 -8 12 -3 11 23 -5 34 1 29 14 -6 17 24 36 56
36 14 0 24 -9 31 -29 10 -28 39 -51 39 -31 0 6 7 10 15 10 8 0 15 7 15 17 0 9
3 13 7 10 3 -4 14 0 23 8 21 19 150 33 150 17 0 -6 -8 -13 -17 -15 -17 -4 -17
-5 0 -6 9 0 17 -8 17 -17 0 -9 -5 -12 -12 -8 -10 6 -10 4 -2 -7 15 -19 14 -49
-2 -49 -11 0 -30 -17 -113 -104 -19 -20 -38 -36 -43 -36 -6 0 -7 -8 -3 -17 4
-10 7 -26 7 -35 0 -9 8 -20 18 -23 10 -3 20 -15 23 -27 4 -13 11 -19 21 -15 9
4 27 -6 44 -21 27 -25 28 -30 16 -47 -10 -14 -11 -21 -2 -26 21 -13 -11 -97
-46 -121 -17 -12 -36 -29 -43 -38 -7 -8 -13 -12 -13 -7 0 9 -40 -30 -40 -40 0
-5 -13 -15 -29 -25 -25 -14 -29 -22 -28 -53 2 -28 7 -37 25 -42 12 -3 27 -14
32 -24 6 -11 17 -16 25 -13 9 4 21 1 29 -5 7 -6 17 -7 21 -3 5 4 5 -1 2 -11
-4 -11 -1 -17 8 -17 9 0 15 -10 15 -26 0 -14 -4 -23 -8 -20 -4 2 -13 -4 -20
-15 -7 -11 -8 -19 -2 -19 5 0 10 5 10 10 0 6 5 10 10 10 6 0 10 -7 10 -15 0
-8 -7 -15 -15 -15 -8 0 -15 -5 -15 -11 0 -5 5 -7 10 -4 7 4 9 -3 6 -20 -7 -35
-15 -43 -26 -25 -5 8 -12 11 -17 6 -4 -4 0 -12 10 -17 19 -11 24 -39 6 -39 -5
0 -7 -5 -3 -11 3 -6 0 -16 -7 -21 -10 -7 -8 -8 9 -5 15 4 22 0 22 -10 0 -9 -6
-13 -15 -9 -18 7 -20 -5 -3 -22 9 -9 7 -12 -9 -12 -12 0 -25 -5 -29 -12 -5 -8
0 -9 14 -6 12 4 22 2 22 -3 0 -5 -5 -9 -11 -9 -6 0 -9 -7 -5 -15 3 -8 1 -15
-4 -15 -6 0 -10 -8 -10 -17 0 -9 -3 -14 -6 -10 -3 3 -17 -7 -31 -23 -17 -20
-22 -37 -19 -57 2 -15 5 -32 5 -36 1 -4 9 -7 19 -5 12 2 17 -3 16 -20 0 -16 4
-21 13 -18 8 3 11 1 8 -4 -13 -21 -15 -61 -5 -80 8 -14 8 -26 0 -40 -13 -24
-2 -50 11 -29 7 11 9 11 9 -2 0 -8 -5 -20 -12 -27 -7 -7 -8 -12 -4 -12 5 0 3
-6 -3 -13 -15 -18 7 -74 31 -80 15 -4 24 -30 19 -59 0 -5 3 -8 9 -8 5 0 10 -4
10 -10 0 -5 -7 -10 -15 -10 -8 0 -15 -4 -15 -10 0 -5 6 -7 13 -5 18 7 19 -104
1 -123 -12 -11 -12 -18 1 -42 8 -16 12 -37 8 -46 -4 -11 -2 -15 4 -11 6 4 10
-2 9 -14 0 -11 -7 -24 -15 -29 -12 -7 -12 -11 -2 -24 10 -12 11 -19 2 -30 -8
-10 -9 -16 -1 -21 16 -10 12 -45 -5 -45 -13 0 -13 -3 -3 -19 10 -17 9 -23 -7
-41 -18 -20 -18 -22 -2 -50 11 -18 14 -31 7 -35 -7 -4 -7 -13 0 -26 8 -14 8
-19 -2 -17 -7 2 -14 -7 -16 -20 -2 -12 -8 -20 -13 -17 -5 4 -9 -1 -9 -9 0 -8
6 -13 13 -10 7 2 13 -4 14 -16 1 -11 -3 -20 -9 -20 -7 0 -6 -5 1 -14 10 -12 8
-13 -10 -9 -17 5 -20 3 -13 -8 4 -8 7 -24 6 -36 -2 -11 2 -24 8 -28 7 -4 4
-13 -9 -24 -11 -10 -17 -22 -13 -26 4 -5 -1 -5 -10 -2 -23 8 -33 -9 -12 -21
15 -9 15 -12 -2 -43 -11 -19 -23 -37 -28 -40 -4 -4 -3 -10 4 -14 6 -4 9 -18 5
-35 -4 -19 -2 -29 9 -33 9 -4 18 -2 21 3 3 6 15 6 30 0 14 -5 32 -7 41 -3 10
4 17 -2 21 -16 3 -13 11 -20 19 -17 20 8 28 -13 11 -27 -20 -17 -27 -43 -14
-56 8 -8 7 -17 -3 -35 -10 -20 -10 -29 -1 -40 9 -11 6 -20 -13 -43 l-25 -30
21 -17 c19 -17 20 -19 5 -28 -10 -5 -17 -16 -17 -23 0 -8 -4 -15 -10 -15 -5 0
-10 -7 -10 -15 0 -8 4 -15 8 -15 5 0 14 -12 21 -26 7 -16 17 -24 26 -21 7 3
15 1 17 -5 3 -7 13 -3 26 10 19 19 40 27 65 23 4 0 7 4 7 10 0 6 7 8 16 5 8
-3 12 -2 9 4 -11 19 8 10 26 -12 11 -11 19 -16 19 -10 0 15 33 8 39 -9 2 -7
10 -20 18 -28 12 -11 11 -16 -3 -33 -10 -10 -19 -36 -20 -56 -1 -22 -6 -36
-13 -34 -16 3 -44 -25 -36 -37 9 -16 -15 -23 -32 -9 -14 11 -15 11 -11 -2 5
-15 -13 -40 -29 -40 -5 0 -16 -20 -25 -45 -17 -44 -17 -45 5 -42 12 1 25 6 29
12 9 12 58 17 58 6 0 -4 14 -7 30 -6 30 2 58 -24 43 -39 -3 -3 -1 -6 5 -6 8 0
9 -7 3 -22 -5 -13 -15 -42 -22 -65 -7 -24 -17 -43 -23 -43 -6 0 -20 -12 -33
-26 -14 -16 -28 -24 -38 -21 -10 4 -15 0 -15 -12 0 -10 -11 -24 -25 -31 -22
-12 -30 -28 -26 -53 1 -5 -3 -6 -9 -2 -5 3 -10 2 -10 -3 0 -4 -8 -17 -18 -28
-10 -10 -21 -27 -25 -36 -3 -10 -13 -18 -22 -18 -8 0 -15 -7 -15 -16 0 -8 -4
-12 -10 -9 -5 3 -10 -1 -10 -9 0 -9 -4 -16 -10 -16 -5 0 -10 -9 -10 -20 0 -11
-7 -23 -15 -26 -17 -7 -20 -45 -4 -61 8 -8 8 -13 0 -17 -6 -4 -11 -13 -11 -19
0 -8 3 -7 9 2 5 7 29 15 55 16 36 3 46 0 46 -12 0 -8 8 -17 18 -20 13 -3 19
-14 19 -34 0 -16 -4 -29 -9 -29 -4 0 -8 -11 -8 -25 0 -14 -4 -25 -10 -25 -5 0
-7 -7 -4 -15 7 -18 -14 -47 -27 -39 -5 3 -9 1 -9 -5 0 -5 -14 -23 -31 -40 -17
-17 -27 -31 -22 -31 4 0 3 -4 -2 -8 -6 -4 -16 -20 -23 -35 -7 -16 -21 -31 -32
-34 -11 -3 -20 -10 -19 -17 3 -29 -2 -56 -14 -68 -13 -13 -9 -62 5 -56 14 7
50 -53 42 -70 -4 -9 -8 -19 -8 -22 -1 -3 -5 -10 -9 -17 -4 -6 -1 -13 5 -16 9
-3 7 -10 -7 -21 -11 -8 -15 -16 -7 -16 6 0 12 -5 12 -12 0 -6 -3 -8 -7 -5 -7
8 -33 -11 -33 -25 0 -5 5 -6 12 -2 8 5 9 2 4 -12 -4 -10 -4 -15 0 -12 11 12
34 -19 34 -45 0 -14 -7 -30 -15 -37 -8 -7 -15 -23 -15 -35 0 -13 -19 -43 -45
-71 -25 -26 -45 -53 -45 -60 0 -6 -7 -17 -15 -24 -8 -7 -15 -17 -15 -23 0 -8
3 -8 11 0 9 9 17 7 32 -7 14 -14 25 -17 37 -10 13 7 22 4 34 -9 16 -18 23 -56
7 -47 -4 3 -8 -7 -9 -22 0 -15 -2 -38 -5 -52 -2 -14 -5 -28 -6 -32 0 -5 -8 -8
-16 -8 -8 0 -20 -9 -27 -20 -7 -11 -18 -20 -24 -20 -7 0 -15 -7 -18 -16 -3 -8
-10 -13 -14 -10 -5 3 -14 -3 -22 -14 -7 -10 -19 -16 -26 -13 -7 2 -20 -4 -30
-15 -9 -11 -23 -18 -30 -15 -8 3 -21 -3 -30 -12 -9 -9 -23 -14 -31 -11 -8 4
-11 1 -7 -5 7 -12 -53 -68 -73 -69 -7 0 -13 -4 -13 -10 0 -5 -7 -10 -15 -10
-8 0 -15 -5 -15 -11 0 -5 -4 -7 -10 -4 -5 3 -10 2 -10 -3 0 -5 -10 -14 -22
-20 -17 -8 102 -11 447 -11 266 0 464 3 456 8 -18 11 0 22 29 16 18 -3 21 -1
17 15 -6 22 8 27 20 8 10 -16 53 -18 53 -3 0 13 22 13 58 1 12 -4 20 -12 17
-17 -4 -5 -1 -9 5 -9 6 0 13 7 16 15 4 8 15 15 25 15 22 0 24 11 7 28 -9 9 -7
12 10 12 12 0 22 -5 22 -12 0 -6 12 0 28 14 15 14 35 28 45 31 9 4 17 11 17
17 0 5 7 10 16 10 10 0 14 6 10 15 -7 20 11 19 22 -2 9 -15 11 -14 23 5 8 12
22 22 32 22 14 0 16 4 8 19 -9 16 -8 18 7 14 10 -2 24 3 32 12 11 13 11 15 -2
10 -11 -4 -14 5 -14 41 -1 28 -6 49 -15 55 -13 8 -6 13 14 10 16 -2 6 18 -13
24 -11 3 -20 12 -20 20 0 7 -7 15 -15 19 -8 3 -15 13 -15 22 0 21 39 56 53 47
5 -3 7 0 5 8 -3 8 -13 13 -22 11 -15 -3 -15 -1 1 17 20 24 39 27 45 9 3 -9 9
-8 22 5 10 9 14 17 9 17 -4 1 4 7 18 15 14 8 32 28 39 44 7 17 16 28 21 25 5
-3 6 2 3 10 -3 9 -10 13 -15 10 -5 -3 -9 -1 -9 4 0 17 13 22 28 10 11 -10 13
-8 11 7 -3 26 10 55 25 55 15 0 76 67 76 83 0 7 4 7 12 -1 15 -15 29 -16 26
-1 -2 6 5 16 16 22 10 7 36 28 57 48 21 21 40 34 43 31 3 -3 6 0 6 6 0 5 2 17
5 25 3 7 -8 29 -25 46 -16 18 -30 37 -30 42 0 5 -5 9 -11 9 -6 0 -9 -7 -5 -15
7 -20 1 -19 -20 2 -15 16 -17 16 -29 0 -13 -18 -40 -24 -29 -6 4 8 0 7 -15 -1
-12 -6 -18 -16 -15 -22 9 -15 -56 -2 -71 14 -7 8 -6 9 4 3 10 -6 12 -2 6 14
-5 15 1 27 22 45 15 13 24 28 20 32 -4 5 -12 2 -17 -6 -8 -13 -10 -12 -10 3 0
10 7 20 16 24 13 5 13 7 2 14 -9 6 -8 9 7 9 14 0 21 7 22 20 1 11 -2 18 -8 15
-5 -4 -9 2 -9 12 0 11 -6 25 -12 32 -10 11 -10 13 0 7 7 -4 12 -2 12 6 1 8 7
5 16 -7 13 -17 16 -18 24 -5 6 8 8 25 5 37 -3 14 1 26 13 35 11 7 18 22 16 33
-3 18 -2 19 10 3 10 -13 15 -15 24 -6 7 7 12 18 12 25 0 7 4 13 10 13 8 0 90
80 130 127 10 12 15 38 14 75 0 46 3 58 18 61 10 3 18 13 18 23 0 9 8 26 17
36 15 16 15 22 4 40 -19 30 -21 80 -3 73 16 -6 23 1 79 77 40 52 48 88 21 88
-5 0 -6 9 -3 20 6 19 -3 25 -29 21 -5 -1 -19 8 -31 19 -19 18 -27 20 -43 11
-11 -6 -29 -8 -39 -5 -13 4 -14 3 -5 -3 10 -7 7 -14 -9 -29 -13 -10 -19 -13
-15 -6 10 17 -33 13 -51 -4 -6 -6 -23 -10 -37 -9 -15 2 -24 -1 -20 -6 3 -5 -1
-9 -8 -10 -7 0 -21 -2 -30 -4 -14 -3 -17 2 -12 21 5 18 3 23 -8 19 -9 -4 -15
0 -15 9 0 8 4 13 9 10 13 -8 9 20 -4 35 -11 11 -10 12 0 7 10 -6 12 4 8 44 -5
47 -3 55 19 72 14 11 25 29 25 40 0 17 2 18 15 8 12 -10 15 -10 15 3 0 9 6 20
14 24 15 9 41 54 38 65 -1 4 6 4 15 1 10 -4 14 -2 10 4 -4 6 -3 23 3 37 5 14
6 25 2 25 -19 -3 -33 2 -27 10 3 6 -4 15 -15 21 -11 6 -17 16 -14 22 4 7 3 8
-5 4 -17 -11 -81 15 -82 34 -1 8 -2 20 -4 25 -1 6 -3 17 -3 26 -2 22 -33 33
-44 17 -5 -9 -8 -7 -8 7 0 17 -2 17 -10 5 -5 -8 -10 -10 -10 -5 0 6 5 17 10
25 6 10 10 11 10 3 0 -7 5 -13 11 -13 7 0 9 9 6 21 -6 21 9 57 27 70 5 4 6 14
3 23 -4 9 -3 16 2 16 10 0 34 51 26 58 -2 3 0 11 6 18 8 9 4 16 -13 25 -13 7
-27 12 -31 11 -5 -1 -6 7 -2 18 5 16 2 20 -19 20 -28 0 -35 14 -12 23 12 5 13
13 6 38 -5 17 -7 36 -4 40 3 5 1 9 -4 9 -5 0 -12 13 -15 29 -8 39 -40 111 -49
111 -5 0 -8 16 -8 36 0 27 5 37 20 41 11 3 20 10 20 17 0 6 5 4 10 -4 8 -12
10 -11 10 7 0 16 8 25 25 29 14 3 30 15 36 26 9 16 13 17 27 6 13 -11 15 -11
9 4 -5 13 -1 18 12 18 21 0 44 23 34 34 -4 4 1 4 10 0 13 -5 20 -1 24 15 3 11
9 21 15 21 5 0 18 9 30 20 l21 19 -25 33 c-13 18 -27 40 -30 48 -3 9 -23 21
-43 27 -34 11 -37 10 -32 -8 3 -10 1 -19 -4 -19 -5 0 -9 5 -9 10 0 16 -24 12
-42 -8 -21 -21 -46 -42 -52 -42 -2 0 -6 7 -9 14 -4 10 -1 13 9 9 22 -8 17 2
-21 40 -29 29 -34 39 -27 59 12 30 5 48 -19 48 -11 0 -19 7 -19 16 0 9 -5 12
-12 8 -8 -5 -7 0 2 11 8 10 10 16 3 12 -6 -4 -15 -2 -18 4 -4 5 -13 8 -20 5
-8 -3 -25 7 -40 22 -22 21 -28 24 -36 12 -7 -13 -9 -13 -9 1 0 8 6 21 13 28
10 11 9 13 -6 8 -15 -6 -17 -3 -12 13 5 16 3 19 -12 13 -10 -4 -3 6 15 21 32
28 32 29 13 42 -13 9 -18 21 -14 36 4 19 3 20 -6 8 -14 -19 -14 -5 -1 21 6 10
17 19 25 19 8 0 15 8 15 19 0 10 6 24 14 30 8 6 19 32 25 56 6 25 15 45 21 45
11 0 9 41 -3 58 -5 6 -6 12 -1 12 4 0 -1 6 -11 14 -16 12 -17 16 -6 29 7 9 9
21 5 28 -15 26 -9 55 18 75 15 11 25 24 22 27 -3 3 4 10 15 17 12 6 21 18 21
26 0 8 7 29 16 46 10 18 12 33 6 37 -5 3 -12 16 -16 28 -4 12 -17 23 -29 25
-14 2 -22 10 -22 23 0 11 -6 19 -13 17 -20 -4 -43 24 -35 44 4 12 3 15 -5 10
-22 -13 -12 15 17 52 23 30 28 45 26 82 -2 25 -3 53 -4 62 -1 9 -10 20 -21 23
-11 3 -20 13 -20 21 0 8 -6 14 -14 14 -21 0 -38 27 -31 50 3 11 10 18 14 16 4
-3 5 8 3 25 -2 16 1 36 8 44 9 10 9 15 1 15 -19 0 -12 17 18 46 17 15 28 31
25 36 -3 4 -2 13 2 19 4 8 9 7 15 -2 7 -11 9 -10 9 3 0 9 -6 19 -12 21 -10 4
-10 8 1 15 9 6 10 12 3 16 -11 7 -5 37 6 34 15 -4 52 28 52 44 0 10 5 18 11
18 18 0 58 51 68 85 10 35 5 49 -16 41 -22 -9 -36 3 -22 20 8 10 8 18 1 27 -8
10 -2 23 26 55 21 23 43 42 50 42 15 0 15 12 0 29 -11 12 -10 13 6 7 11 -4 23
-2 27 5 9 15 0 41 -12 33 -5 -3 -9 -1 -9 5 0 5 6 12 13 15 6 4 2 4 -10 2 -20
-3 -23 0 -23 24 0 30 -21 53 -28 32 -6 -18 -19 -14 -25 7 -2 11 -15 21 -28 23
-19 2 -25 10 -27 36 -2 22 2 34 12 38 18 7 22 34 5 34 -7 0 -9 10 -7 25 5 22
3 24 -21 18 l-26 -6 20 23 c14 16 16 24 8 27 -20 7 11 63 35 63 15 0 21 37 8
50 -8 8 -6 9 7 4 10 -3 16 -11 14 -18 -3 -10 33 -46 47 -46 3 0 6 9 6 20 0 11
4 20 10 20 5 0 9 -3 9 -7 -3 -21 3 -22 23 -3 24 22 38 19 19 -4 -10 -12 -9
-15 8 -13 12 1 21 8 22 17 0 8 5 4 10 -10 l10 -25 20 24 c18 22 19 23 19 2 0
-15 4 -19 17 -14 11 4 14 3 9 -5 -5 -8 -2 -10 8 -6 9 3 16 11 16 16 0 6 8 7
17 4 9 -4 20 -1 24 6 5 8 11 9 21 1 21 -16 57 -22 62 -9 2 6 5 3 5 -6 1 -10 6
-18 11 -18 7 0 8 14 4 38 -4 21 -3 33 2 29 5 -5 10 -13 10 -18 1 -5 2 -13 3
-19 0 -5 10 -10 21 -10 11 0 20 -6 20 -12 0 -9 3 -9 9 1 5 8 7 20 4 28 -3 7
-1 13 5 13 6 0 13 -6 15 -12 3 -8 6 -6 6 5 1 11 9 17 26 17 16 0 25 6 25 15 0
8 8 15 17 15 9 0 25 7 35 17 12 11 18 12 18 3 0 -8 11 -11 35 -8 36 4 47 -5
19 -16 -13 -5 -14 -9 -4 -21 7 -8 9 -15 6 -15 -4 0 -1 -6 6 -13 14 -15 108
-19 108 -5 0 4 8 8 18 8 10 0 22 3 26 7 3 4 16 8 28 10 12 2 25 7 28 12 5 8
76 35 95 36 6 1 20 6 32 13 12 7 29 12 38 12 20 0 66 29 83 52 7 10 19 18 27
18 8 0 21 10 29 22 14 19 14 24 1 38 -8 9 -15 25 -15 35 0 10 -3 15 -6 12 -4
-4 -20 3 -35 14 -20 14 -36 18 -51 13 -13 -4 -25 -7 -28 -6 -3 0 -13 -4 -23
-10 -12 -6 -23 -6 -31 1 -7 6 -16 8 -20 4 -4 -4 -3 4 1 17 5 14 9 32 8 40 -1
8 7 29 17 47 10 17 22 56 25 85 4 37 15 63 34 87 15 19 26 38 23 42 -3 5 7 11
20 15 20 5 24 10 17 23 -5 9 -10 21 -11 26 -6 25 -13 35 -25 35 -7 0 -15 9
-18 20 -3 11 -1 20 4 20 5 0 9 6 9 14 0 9 7 13 20 11 13 -2 20 2 20 11 0 8 4
13 9 10 5 -3 11 4 14 15 3 12 10 18 16 14 6 -3 11 -1 11 6 0 7 8 21 17 31 9
10 18 26 19 36 0 9 3 24 5 32 2 8 -3 15 -11 15 -8 0 -23 8 -32 19 -11 11 -24
16 -34 12 -10 -4 -22 1 -30 11 -12 16 -15 16 -24 3 -8 -12 -10 -12 -10 -1 0 9
-7 11 -21 8 -20 -5 -54 15 -43 25 2 3 0 16 -5 30 -8 22 -4 30 27 62 30 31 36
46 40 91 2 30 8 52 13 49 9 -5 10 0 13 36 1 8 9 14 19 12 9 -2 18 4 19 13 0 8
1 21 2 28 1 6 5 15 10 19 6 4 4 13 -3 22 -11 14 -11 16 5 17 14 0 15 2 4 6
-20 8 -50 47 -40 53 11 7 41 82 36 88 -8 8 23 34 33 27 5 -3 13 4 16 16 4 11
9 18 12 15 3 -3 15 7 28 22 17 21 21 36 17 64 -2 22 -8 35 -14 32 -15 -9 -29
19 -15 28 9 6 8 10 -3 18 -11 7 -16 5 -18 -5 -4 -15 -32 -21 -32 -7 0 4 -15
13 -34 20 -22 8 -33 19 -32 30 0 11 -7 18 -21 20 -15 2 -23 10 -23 22 0 10 -4
22 -10 25 -12 8 -13 45 -1 45 15 0 81 63 81 77 0 7 5 13 11 13 5 0 16 15 24
33 13 33 11 71 -6 93 -9 11 26 86 42 92 13 5 11 32 -2 32 -5 0 -8 4 -4 9 3 5
-2 16 -10 24 -16 17 -20 37 -7 37 5 0 8 10 7 23 -1 12 1 27 6 33 11 13 -17 54
-37 54 -8 0 -14 5 -14 10 0 6 -7 10 -15 10 -8 0 -15 6 -15 14 0 25 30 87 40
81 5 -3 12 11 16 31 3 19 12 38 20 41 7 2 10 11 7 19 -3 8 1 14 10 14 8 0 22
15 30 33 9 17 18 31 21 30 4 -2 11 -3 16 -3 15 0 12 30 -4 36 -8 3 -12 13 -9
24 3 12 -2 20 -16 25 -12 3 -21 13 -21 21 0 17 -85 20 -95 4 -3 -5 -15 -10
-25 -10 -10 0 -26 -8 -35 -17 -15 -15 -18 -15 -26 -1 -5 9 -17 14 -32 11 -23
-5 -24 -3 -21 47 2 44 8 57 44 96 36 39 41 50 36 76 -5 23 -3 29 8 25 9 -4 12
0 9 13 -3 11 -11 16 -19 13 -8 -3 -15 0 -15 6 -1 6 -2 15 -3 20 -1 8 30 51 66
94 10 10 20 27 23 36 4 15 27 29 95 60 61 27 109 68 126 108 16 38 18 57 4 48
-6 -3 -10 -1 -10 6 0 6 -8 9 -20 6 -21 -5 -21 1 -3 51 3 7 -4 12 -18 12 -19 0
-21 2 -9 10 13 8 13 10 -1 10 -27 0 -32 31 -9 52 11 10 20 23 20 28 0 5 9 12
20 15 24 8 27 56 5 79 -8 8 -15 21 -15 30 0 8 -4 18 -10 21 -5 3 -10 1 -10 -6
0 -8 -3 -9 -13 0 -8 6 -17 8 -20 4 -4 -3 -13 -1 -20 5 -8 7 -16 9 -20 6 -3 -3
-10 4 -17 15 -6 12 -7 21 -3 21 4 0 1 5 -7 10 -8 5 -10 10 -4 10 7 0 19 12 29
26 14 22 15 28 4 35 -11 7 -11 9 3 9 11 0 15 6 11 21 -4 15 -11 19 -25 15 -14
-3 -22 1 -25 14 -6 23 -34 35 -43 19 -6 -8 -9 -8 -14 0 -10 16 -52 14 -69 -4
-11 -10 -17 -11 -19 -3 -3 7 -13 5 -31 -7 -15 -10 -30 -15 -34 -11 -3 3 -12 1
-20 -5 -15 -13 -43 4 -43 27 0 7 -6 11 -14 8 -9 -4 -21 6 -31 26 -11 21 -20
29 -28 23 -7 -5 -22 -8 -35 -7 -17 1 -22 -3 -17 -14 4 -12 -1 -14 -30 -9 -19
3 -37 1 -41 -4 -3 -5 -10 -6 -16 -3 -6 4 2 16 18 30 35 28 48 30 40 7 -6 -17
-5 -17 8 0 7 9 18 17 25 17 6 0 19 8 29 18 19 19 54 37 90 47 15 4 21 12 18
21 -3 9 -1 12 5 9 6 -4 19 1 29 10 10 9 23 15 28 12 4 -3 15 3 22 14 8 10 21
19 30 19 14 0 50 33 50 46 0 3 14 19 31 34 30 29 30 29 10 49 -10 10 -17 22
-14 24 2 3 -5 15 -17 27 -16 16 -25 19 -35 10 -10 -8 -15 -8 -20 0 -4 7 -18
10 -31 7 -14 -2 -27 0 -30 5 -3 5 -12 7 -20 4 -8 -3 -14 -1 -14 4 0 6 -3 9 -7
9 -20 -3 -33 2 -33 14 0 18 -37 47 -63 50 -26 2 -41 19 -25 28 5 4 -11 10 -36
13 -36 6 -46 11 -46 26 0 10 5 22 10 25 21 13 57 115 40 115 -4 0 -28 20 -54
44 -42 40 -45 45 -26 51 11 3 20 13 20 21 0 17 -16 19 -24 2 -3 -7 -3 -1 -2
13 2 14 -4 36 -15 50 -10 13 -19 20 -19 16 0 -5 -7 -1 -16 8 -9 9 -24 13 -35
10 -12 -4 -19 -2 -19 6 0 7 -7 5 -16 -7 -10 -13 -17 -15 -20 -7 -3 7 -11 10
-19 7 -7 -3 -16 3 -20 15 -3 12 -12 21 -19 21 -8 0 -12 9 -9 23 3 14 -2 31
-12 41 -10 10 -14 23 -10 34 5 14 4 14 -6 5 -10 -10 -15 -7 -25 17 -7 17 -18
30 -24 30 -6 0 -8 -4 -5 -10 3 -5 0 -10 -9 -10 -8 0 -16 5 -18 10 -5 17 -68
-9 -68 -28 0 -14 -2 -14 -9 -3 -7 11 -11 10 -20 -5 -6 -11 -11 -13 -11 -6 0
19 -20 14 -20 -5 0 -13 -3 -14 -11 -6 -6 6 -18 9 -25 6 -8 -3 -14 0 -14 6 0 6
-6 11 -14 11 -13 0 -66 61 -66 75 0 4 7 5 15 1 20 -7 19 -5 -8 47 -13 24 -29
41 -35 39 -7 -2 -12 1 -12 6 0 5 -21 13 -46 17 -37 5 -43 9 -34 20 7 8 9 19 5
25 -3 5 -1 10 6 10 9 0 9 4 -1 15 -6 8 -9 18 -6 24 4 5 -3 12 -14 16 -11 3
-20 12 -20 20 0 9 -7 11 -22 7 -12 -3 -19 -1 -15 4 3 6 -5 11 -19 12 -16 1
-24 -3 -24 -14 0 -9 -5 -12 -11 -8 -6 3 -15 0 -20 -7 -8 -12 -11 -12 -19 1 -5
8 -10 10 -10 4 0 -6 -17 -15 -37 -20 -23 -5 -38 -15 -38 -24 -1 -8 -7 -13 -15
-11 -8 3 -27 5 -43 5 -20 1 -26 5 -22 16 5 12 4 13 -6 3 -7 -7 -18 -13 -25
-13 -17 0 -61 44 -57 57 6 18 -41 26 -110 20 -47 -5 -58 -3 -46 5 15 10 13 14
-11 38 -32 32 -57 43 -65 30 -10 -16 -25 -11 -18 5 4 13 -2 15 -38 9 -24 -4
-48 -10 -53 -14 -12 -12 -36 -1 -36 16 0 19 -44 18 -60 -1z m-985 -195 c3 -6
-1 -7 -9 -4 -18 7 -21 14 -7 14 6 0 13 -4 16 -10z m145 -90 c0 -5 -5 -10 -11
-10 -5 0 -7 5 -4 10 3 6 8 10 11 10 2 0 4 -4 4 -10z m-50 -69 c0 -3 -4 0 -9 8
-7 10 -13 11 -30 2 -17 -10 -21 -9 -21 4 0 8 7 15 15 15 9 0 15 9 15 23 1 18
3 16 15 -12 8 -18 15 -36 15 -40z m-90 -1 c0 -16 -4 -30 -8 -30 -5 0 -9 14 -9
30 0 17 4 30 9 30 4 0 8 -13 8 -30z m-20 -4 c0 -11 -19 -15 -25 -6 -3 5 1 10
9 10 9 0 16 -2 16 -4z m-10 -38 c0 -5 -9 -4 -20 2 -11 6 -20 12 -20 14 0 2 9
2 20 -1 11 -3 20 -9 20 -15z m-1376 -26 c6 -10 -40 -10 -50 1 -4 4 4 7 19 7
14 0 28 -4 31 -8z m2246 -46 c0 -3 -4 -8 -10 -11 -5 -3 -10 -1 -10 4 0 6 5 11
10 11 6 0 10 -2 10 -4z m173 -527 c4 -16 3 -18 -9 -8 -16 13 -19 29 -5 29 5 0
11 -9 14 -21z m-1843 -7 c0 -15 -16 -30 -37 -36 -13 -4 -23 -14 -23 -22 0 -14
-2 -14 -15 0 -21 21 -19 33 10 49 28 14 65 20 65 9z m933 -32 c-3 -12 -12 -16
-28 -12 -30 5 -22 30 9 30 17 0 22 -5 19 -18z m-83 0 c0 -5 -5 -10 -11 -10 -5
0 -7 5 -4 10 3 6 8 10 11 10 2 0 4 -4 4 -10z m1514 -82 c11 -10 27 -18 35 -18
24 0 -19 -27 -49 -32 -16 -2 -25 -9 -24 -20 2 -17 -12 -17 -58 -2 -16 5 -20 3
-15 -9 4 -11 -1 -17 -16 -19 -12 -2 -21 -9 -19 -16 2 -10 -2 -10 -18 0 -11 7
-20 17 -20 21 0 12 42 46 56 47 18 0 26 32 12 42 -10 6 -7 10 10 14 12 4 22
12 22 19 0 17 55 -1 84 -27z m-3009 -38 c-9 -14 9 -12 24 3 10 10 10 7 2 -15
-7 -18 -7 -28 -1 -28 6 0 10 -7 10 -15 0 -14 12 -19 33 -16 15 2 6 -17 -15
-32 -13 -8 -34 -25 -48 -37 -14 -12 -35 -29 -47 -37 -13 -8 -20 -20 -16 -26 4
-6 0 -8 -10 -4 -12 5 -17 1 -17 -13 0 -11 -5 -19 -12 -17 -6 1 -12 -9 -12 -23
-1 -15 -8 -26 -19 -28 -19 -4 -38 29 -19 36 7 2 8 11 2 26 -5 13 -4 30 3 41 7
14 7 20 -1 23 -9 3 -9 9 -2 23 8 15 7 19 -5 19 -8 0 -15 -4 -15 -10 0 -14 -33
-13 -48 2 -9 9 -12 9 -12 -1 0 -9 -8 -11 -24 -7 -14 3 -28 1 -31 -5 -4 -6 -14
-8 -22 -5 -9 4 -21 2 -28 -4 -9 -8 -14 -5 -18 10 -3 11 -1 18 3 15 5 -3 10 0
12 6 2 6 18 12 36 14 18 1 35 5 39 9 3 3 15 6 25 6 10 0 18 5 18 11 0 5 5 7
10 4 6 -3 10 -1 10 4 0 6 8 11 19 11 10 0 24 7 31 15 7 8 34 18 61 21 27 4 49
10 49 15 0 4 8 10 18 12 9 3 18 5 20 6 2 0 0 -3 -3 -9z m2810 -70 c-3 -5 -12
-10 -18 -10 -7 0 -6 4 3 10 19 12 23 12 15 0z m-40 -41 c0 -7 -9 -15 -20 -17
-15 -2 -17 -1 -6 6 8 6 10 15 6 22 -5 8 -3 11 6 8 8 -3 14 -11 14 -19z m40 3
c-3 -3 -11 0 -18 7 -9 10 -8 11 6 5 10 -3 15 -9 12 -12z m-3170 -43 c11 -17
-1 -21 -15 -4 -8 9 -8 15 -2 15 6 0 14 -5 17 -11z m395 -9 c0 -5 -2 -10 -4
-10 -3 0 -8 5 -11 10 -3 6 -1 10 4 10 6 0 11 -4 11 -10z m2700 0 c0 -5 -5 -10
-11 -10 -5 0 -7 5 -4 10 3 6 8 10 11 10 2 0 4 -4 4 -10z m-2720 -20 c0 -5 -4
-10 -10 -10 -5 0 -10 5 -10 10 0 6 5 10 10 10 6 0 10 -4 10 -10z m-165 -130
c-3 -5 -12 -7 -20 -3 -21 7 -19 13 6 13 11 0 18 -4 14 -10z m-83 -62 c-22 -22
-42 -17 -41 10 0 14 2 13 9 -3 5 -11 9 -17 9 -12 1 4 0 9 -1 12 -2 2 6 11 17
19 27 20 33 0 7 -26z m4218 21 c0 -5 -4 -9 -10 -9 -5 0 -10 7 -10 16 0 8 5 12
10 9 6 -3 10 -10 10 -16z m-730 -224 c-14 -17 -30 -20 -30 -4 0 5 5 7 10 4 6
-3 13 1 16 10 4 9 9 14 12 11 3 -3 -1 -12 -8 -21z m-4380 -196 c0 -6 -4 -7
-10 -4 -5 3 -10 11 -10 16 0 6 5 7 10 4 6 -3 10 -11 10 -16z m94 -14 c3 -8 0
-15 -7 -15 -7 0 -13 -8 -13 -17 0 -10 -4 -28 -8 -40 -5 -17 -3 -23 7 -23 18 0
17 -30 0 -48 -7 -7 -13 -21 -13 -30 -1 -15 -2 -15 -11 1 -5 9 -7 22 -4 27 4 6
-6 10 -22 10 -22 0 -25 2 -13 10 12 8 13 13 3 30 -7 11 -13 27 -13 35 0 8 -4
15 -10 15 -5 0 -10 5 -10 11 0 5 5 7 10 4 6 -3 13 0 16 8 3 8 17 15 32 15 14
0 28 5 30 11 5 16 19 14 26 -4z m876 -67 c0 -5 -10 -4 -22 3 -18 10 -20 9 -15
-5 4 -10 1 -16 -7 -16 -9 0 -12 8 -9 24 5 22 8 23 29 14 13 -6 24 -15 24 -20z
m-600 -28 c0 -5 -2 -10 -4 -10 -2 0 -12 -3 -22 -7 -16 -6 -17 -5 -4 10 17 19
30 22 30 7z m1193 -184 c3 -8 3 -17 -1 -21 -4 -4 -7 -12 -7 -18 0 -6 -18 -20
-40 -30 -22 -11 -47 -23 -55 -27 -9 -4 -36 -6 -60 -5 -25 1 -49 -1 -55 -4 -5
-3 -17 -6 -25 -6 -8 0 -14 -7 -12 -15 3 -11 -2 -10 -17 4 -21 19 -58 15 -45
-5 4 -8 3 -9 -5 -5 -6 4 -18 2 -26 -4 -12 -10 -15 -9 -15 4 0 9 4 16 9 16 15
0 19 39 5 51 -20 16 -7 30 22 23 13 -3 31 -1 38 5 8 7 31 10 55 7 24 -3 41 -1
41 5 0 6 9 7 21 4 16 -5 19 -4 14 5 -6 9 0 11 24 8 17 -2 31 0 31 5 0 5 9 7
20 4 11 -3 20 -1 20 4 0 15 57 10 63 -5z m-1164 -165 c8 -5 11 -16 8 -24 -3
-9 -1 -18 6 -20 7 -2 -2 -11 -20 -20 -35 -18 -65 -14 -56 9 3 8 0 14 -6 14
-19 0 -7 25 19 37 32 14 32 14 49 4z m-92 -16 c0 -8 -4 -12 -9 -9 -5 3 -6 10
-3 15 9 13 12 11 12 -6z m3965 -173 c-7 -5 -10 -16 -6 -26 5 -12 1 -19 -15
-23 -11 -3 -21 -8 -21 -12 0 -4 -9 -7 -20 -7 -12 0 -19 5 -16 12 2 6 -1 11 -7
10 -27 -3 -20 18 13 35 34 19 99 28 72 11z m-4352 -362 c0 -5 -2 -10 -4 -10
-3 0 -8 5 -11 10 -3 6 -1 10 4 10 6 0 11 -4 11 -10z m355 -150 c10 1 22 -30
24 -59 1 -10 -5 -9 -21 5 -14 13 -19 14 -14 4 4 -8 0 -6 -8 5 -9 11 -14 26
-11 33 3 8 5 21 6 30 0 15 1 14 8 -1 4 -10 11 -18 16 -17z m805 -54 c0 -3 -4
-8 -10 -11 -5 -3 -10 -1 -10 4 0 6 5 11 10 11 6 0 10 -2 10 -4z m-60 -25 c0
-13 -25 -20 -40 -11 -10 6 -8 9 6 13 31 8 34 7 34 -2z m-75 -22 c-8 -12 -35
-12 -35 0 0 11 22 20 33 14 4 -2 5 -9 2 -14z m4127 -382 c3 -17 -2 -26 -17
-34 -23 -10 -24 -4 -9 45 6 20 21 14 26 -11z m-812 -281 c0 -11 -19 -15 -25
-6 -3 5 1 10 9 10 9 0 16 -2 16 -4z m-3770 -160 c0 -2 -8 -10 -17 -17 -16 -13
-17 -12 -4 4 13 16 21 21 21 13z m-5 -56 c-10 -11 -21 -18 -23 -15 -3 3 3 12
14 20 27 20 30 18 9 -5z m3774 -282 c-20 -36 -38 -50 -57 -43 -15 6 -14 9 7
23 14 10 30 22 35 29 18 20 27 14 15 -9z m615 -413 c4 -11 -2 -15 -24 -15 -30
0 -41 14 -17 23 22 10 35 7 41 -8z m-1009 -95 c3 -5 2 -10 -4 -10 -5 0 -13 5
-16 10 -3 6 -2 10 4 10 5 0 13 -4 16 -10z m-3922 -178 c-3 -12 -9 -19 -14 -16
-5 3 -4 14 2 25 13 26 20 21 12 -9z m4877 -23 c0 -12 -47 -45 -58 -41 -7 2
-12 -1 -12 -7 0 -6 7 -11 15 -11 23 0 18 -14 -11 -27 -21 -10 -26 -9 -31 4 -3
8 0 19 8 24 12 7 12 9 0 9 -8 0 -1 13 18 30 17 17 29 35 26 39 -3 5 6 4 20 -2
14 -7 25 -15 25 -18z m-3320 -29 c0 -5 -4 -10 -10 -10 -5 0 -10 5 -10 10 0 6
5 10 10 10 6 0 10 -4 10 -10z m-128 -36 c-9 -7 -19 -10 -22 -7 -3 3 1 8 8 10
6 3 12 12 12 21 0 14 2 15 9 3 7 -10 4 -19 -7 -27z m539 -4 c-7 -4 -11 -13 -9
-20 2 -7 -3 -15 -9 -17 -7 -3 -13 0 -13 7 0 6 -5 8 -10 5 -6 -4 -8 -11 -5 -16
9 -14 -5 -11 -21 6 -13 12 -12 15 5 25 11 5 27 10 35 10 9 0 16 5 16 11 0 5 5
7 11 3 8 -5 8 -8 0 -14z m129 -18 c0 -5 -7 -9 -15 -9 -8 0 -15 4 -15 9 0 4 7
8 15 8 8 0 15 -4 15 -8z m-213 -29 c2 -6 -3 -13 -11 -16 -10 -4 -14 0 -13 14
1 20 18 21 24 2z m-718 -102 c-13 -11 -26 -18 -28 -16 -6 7 24 34 38 35 7 0 3
-8 -10 -19z m2453 1 c4 -12 -1 -18 -14 -19 -10 -1 -16 2 -13 8 4 5 1 9 -5 9
-6 0 -8 5 -5 10 10 16 32 11 37 -8z m648 3 c0 -8 6 -15 14 -15 7 0 19 -7 26
-15 11 -13 6 -15 -34 -15 -48 0 -57 9 -31 30 8 7 12 16 9 21 -3 5 0 9 5 9 6 0
11 -7 11 -15z m-700 -15 c0 -5 -4 -10 -10 -10 -5 0 -10 5 -10 10 0 6 5 10 10
10 6 0 10 -4 10 -10z m-2786 -24 c9 3 16 2 16 -4 0 -5 16 -9 35 -7 27 3 38 -1
46 -16 13 -25 -7 -93 -25 -86 -7 3 -18 2 -25 -3 -7 -4 -32 -3 -55 2 -22 6 -48
10 -56 11 -8 0 -20 4 -27 9 -11 9 -44 17 -85 21 -30 2 -20 24 13 31 17 3 35 3
40 0 5 -3 9 3 9 13 0 15 2 16 10 3 8 -13 14 -11 36 13 19 21 29 25 39 17 7 -6
20 -8 29 -4z m-564 -14 c0 -8 -14 -11 -45 -10 -61 4 -61 27 0 25 29 -1 45 -7
45 -15z m4440 -3 c0 -6 -4 -7 -10 -4 -5 3 -10 11 -10 16 0 6 5 7 10 4 6 -3 10
-11 10 -16z m-400 -9 c0 -5 -4 -10 -10 -10 -5 0 -10 5 -10 10 0 6 5 10 10 10
6 0 10 -4 10 -10z m230 -100 c0 -5 -2 -10 -4 -10 -3 0 -8 5 -11 10 -3 6 -1 10
4 10 6 0 11 -4 11 -10z m-4235 -10 c3 -5 1 -10 -4 -10 -6 0 -11 5 -11 10 0 6
2 10 4 10 3 0 8 -4 11 -10z m4315 -5 c-7 -9 -15 -13 -17 -11 -7 7 7 26 19 26
6 0 6 -6 -2 -15z m-4420 -9 c0 -23 -16 -27 -17 -5 -1 10 2 19 8 19 5 0 9 -6 9
-14z m4685 -16 c-3 -5 -12 -10 -18 -10 -7 0 -6 4 3 10 19 12 23 12 15 0z
m-4335 -24 c0 -3 -4 -8 -10 -11 -5 -3 -10 -1 -10 4 0 6 5 11 10 11 6 0 10 -2
10 -4z m260 -40 c0 -2 -7 -9 -15 -16 -13 -11 -14 -10 -9 4 5 14 24 23 24 12z
m60 -6 c0 -5 -4 -10 -9 -10 -6 0 -13 5 -16 10 -3 6 1 10 9 10 9 0 16 -4 16
-10z m30 -31 c0 -5 5 -7 10 -4 6 3 10 1 10 -4 0 -15 -11 -13 -34 4 -17 13 -18
15 -3 15 9 0 17 -5 17 -11z m2560 -1094 c0 -12 -19 -12 -23 0 -4 9 -1 12 9 8
7 -3 14 -7 14 -8z m478 -46 c1 -19 3 -41 4 -49 0 -8 5 -18 11 -21 5 -4 5 -15
-2 -28 -13 -24 -33 -29 -25 -6 4 8 1 22 -6 30 -6 8 -10 20 -7 27 2 7 -5 24
-17 37 -18 21 -19 23 -3 18 11 -4 16 -3 12 3 -3 6 -3 15 0 21 12 19 29 3 33
-32z m-38 -39 c0 -5 -2 -10 -4 -10 -3 0 -8 5 -11 10 -3 6 -1 10 4 10 6 0 11
-4 11 -10z m56 -339 c-17 -32 -33 -43 -22 -16 3 8 1 15 -5 15 -6 0 -3 7 5 16
9 8 16 21 16 27 0 8 3 8 11 0 8 -8 6 -19 -5 -42z m414 -155 c0 -3 -4 -8 -10
-11 -5 -3 -10 -1 -10 4 0 6 5 11 10 11 6 0 10 -2 10 -4z m-400 -166 c0 -5 -4
-10 -9 -10 -6 0 -13 5 -16 10 -3 6 1 10 9 10 9 0 16 -4 16 -10z m-35 -80 c-3
-5 -11 -10 -16 -10 -6 0 -7 5 -4 10 3 6 11 10 16 10 6 0 7 -4 4 -10z m49 -52
c6 -25 4 -28 -19 -28 l-26 0 17 30 c10 16 19 28 20 27 0 -1 4 -14 8 -29z m-14
-44 c0 -3 -7 -12 -15 -20 -13 -14 -15 -13 -15 5 0 12 6 21 15 21 8 0 15 -3 15
-6z m340 -34 c0 -5 -5 -10 -11 -10 -5 0 -7 5 -4 10 3 6 8 10 11 10 2 0 4 -4 4
-10z m-3280 -135 c-7 -14 -20 -25 -27 -25 -8 0 -12 -4 -9 -8 3 -5 -9 -16 -25
-26 -17 -10 -34 -28 -38 -39 -8 -20 -10 -19 -25 17 -16 38 -16 40 4 58 20 18
120 58 129 51 2 -2 -2 -14 -9 -28z m2420 -11 c0 -8 -5 -12 -10 -9 -6 4 -8 11
-5 16 9 14 15 11 15 -7z m661 -461 c7 -10 10 -15 5 -11 -4 3 -16 -2 -27 -13
-11 -11 -24 -17 -30 -14 -5 4 -8 1 -7 -6 2 -7 -5 -15 -16 -17 -12 -3 -16 0
-11 8 6 9 2 9 -14 1 -12 -7 -26 -9 -31 -6 -5 3 -11 1 -15 -5 -3 -5 -16 -10
-28 -10 -21 0 -21 0 3 20 91 72 144 88 171 53z m252 -177 c6 -18 6 -31 -1 -35
-10 -6 2 -51 14 -51 3 0 4 7 0 15 -3 8 -1 15 4 15 11 0 24 -64 17 -82 -3 -7
-6 -3 -6 10 -1 16 -10 26 -31 34 -19 6 -32 19 -36 34 -5 19 -11 23 -28 19 -11
-2 -16 -2 -9 1 7 3 17 21 23 40 14 42 39 42 53 0z m-992 -109 c-10 -9 -11 -8
-5 6 3 10 9 15 12 12 3 -3 0 -11 -7 -18z m664 -17 c-3 -5 -11 -10 -16 -10 -6
0 -7 5 -4 10 3 6 11 10 16 10 6 0 7 -4 4 -10z m35 -242 c24 14 33 16 25 2 -3
-5 7 -12 22 -16 15 -4 34 -12 42 -18 11 -8 13 -8 8 1 -4 6 -3 14 3 18 13 8 13
-1 -2 -42 -9 -26 -9 -36 0 -45 9 -9 12 -8 12 5 0 15 2 15 14 5 11 -11 11 -15
-3 -25 -11 -9 -12 -12 -3 -13 7 0 10 -5 7 -10 -4 -6 -12 -4 -22 5 -20 20 -28
13 -14 -13 9 -18 8 -19 -10 -15 -12 4 -25 0 -31 -8 -7 -11 -9 -8 -5 8 4 19 1
22 -24 20 -31 -2 -35 -7 -20 -22 6 -6 3 -16 -7 -25 -14 -13 -15 -13 -10 1 5
13 0 15 -27 12 -23 -2 -35 1 -39 13 -4 12 -1 14 14 9 22 -7 26 6 10 36 -9 15
-7 21 5 25 22 9 19 31 -6 37 -12 3 -18 10 -14 16 3 6 11 8 17 5 7 -5 9 0 6 14
-6 23 12 36 24 18 5 -8 13 -7 28 2z m-3304 -75 c-10 -10 -19 5 -10 18 6 11 8
11 12 0 2 -7 1 -15 -2 -18z m3204 -143 c0 -5 -4 -10 -10 -10 -5 0 -10 5 -10
10 0 6 5 10 10 10 6 0 10 -4 10 -10z m-3325 -91 c-5 -16 -4 -20 6 -14 15 8
-19 -23 -75 -69 -19 -16 -33 -33 -30 -37 2 -4 -5 -7 -16 -6 -19 1 -28 22 -12
29 4 2 19 22 35 46 22 33 60 62 95 71 2 1 0 -9 -3 -20z m-205 -249 c0 -5 -2
-10 -4 -10 -3 0 -8 5 -11 10 -3 6 -1 10 4 10 6 0 11 -4 11 -10z m4006 -137
c-10 -10 -19 5 -10 18 6 11 8 11 12 0 2 -7 1 -15 -2 -18z m-542 -44 c-3 -5 1
-9 8 -9 7 0 2 -9 -11 -19 -14 -11 -22 -25 -18 -34 6 -16 -10 -37 -30 -37 -17
0 -16 20 3 59 9 17 14 38 11 45 -4 9 2 12 19 8 13 -2 21 -8 18 -13z m513 -164
c0 -10 -6 -13 -19 -9 -14 4 -18 0 -18 -21 0 -20 -4 -26 -15 -21 -8 3 -15 1
-15 -5 0 -5 -12 -2 -26 7 -24 16 -24 18 -7 28 15 9 75 32 94 35 3 1 6 -6 6
-14z m373 -89 c0 -3 -4 -8 -10 -11 -5 -3 -10 -1 -10 4 0 6 5 11 10 11 6 0 10
-2 10 -4z m-404 -178 c-4 -23 -14 -48 -24 -55 -15 -13 -15 -14 8 -9 l25 6 -26
-13 c-19 -9 -25 -18 -23 -37 1 -14 0 -19 -2 -12 -8 18 -27 15 -20 -4 6 -16
-27 -68 -37 -58 -3 3 -25 -7 -49 -22 -23 -16 -51 -28 -60 -29 -9 0 -29 -10
-44 -22 -16 -13 -34 -23 -41 -23 -7 0 -13 -4 -13 -10 0 -5 -9 -10 -20 -10 -11
0 -20 -4 -20 -10 0 -5 -5 -10 -12 -10 -6 0 -20 -7 -30 -16 -15 -14 -20 -15
-33 -4 -13 11 -13 15 -3 21 10 7 10 9 0 9 -7 0 5 17 25 38 21 21 43 36 50 34
14 -4 36 35 29 53 -3 10 0 12 11 8 13 -5 15 -2 10 11 -6 14 -3 17 8 12 9 -3
14 -2 10 3 -3 5 6 18 19 29 14 10 28 31 32 46 3 15 11 25 18 23 6 -3 19 2 29
11 13 11 17 12 17 2 0 -10 5 -9 18 3 10 10 22 14 25 10 4 -3 7 0 7 7 0 7 3 10
6 7 4 -4 19 2 34 13 16 11 35 20 43 20 9 0 19 5 22 10 13 21 17 8 11 -32z
m-4439 -310 c-3 -8 -6 -5 -6 6 -1 11 2 17 5 13 3 -3 4 -12 1 -19z m4518 12 c3
-5 1 -10 -4 -10 -6 0 -11 5 -11 10 0 6 2 10 4 10 3 0 8 -4 11 -10z m-35 -114
c0 -3 -4 -8 -10 -11 -5 -3 -10 -1 -10 4 0 6 5 11 10 11 6 0 10 -2 10 -4z
m-136 -61 c-4 -8 -11 -15 -16 -15 -6 0 -5 6 2 15 7 8 14 15 16 15 2 0 1 -7 -2
-15z m134 -10 c8 -18 8 -26 0 -31 -7 -4 -8 -3 -4 5 4 6 0 14 -8 17 -9 3 -16
12 -16 20 0 22 16 16 28 -11z m-163 -32 c-7 -16 -10 -34 -14 -70 0 -7 -6 -13
-12 -13 -5 0 -7 5 -4 10 3 6 1 10 -4 10 -6 0 -11 -7 -11 -15 0 -8 -4 -15 -10
-15 -5 0 2 25 17 55 15 30 31 55 36 55 5 0 6 -8 2 -17z m45 3 c0 -2 -7 -7 -16
-10 -8 -3 -12 -2 -9 4 6 10 25 14 25 6z m-2780 -546 c0 -15 -20 -22 -65 -25
-24 -2 -47 -5 -53 -8 -16 -11 -74 -18 -68 -9 3 5 24 14 48 21 24 7 52 17 63
21 46 19 75 19 75 0z m-790 -149 c0 -4 -9 -7 -20 -8 -22 -2 -23 -1 -14 21 5
13 9 14 20 5 8 -6 14 -14 14 -18z m3480 -68 c0 -14 -19 -38 -25 -32 -8 8 5 39
16 39 5 0 9 -3 9 -7z"/>
<path d="M4840 2500 c0 -5 5 -10 10 -10 6 0 10 5 10 10 0 6 -4 10 -10 10 -5 0
-10 -4 -10 -10z"/>
<path d="M3601 11291 c-10 -6 -9 -10 3 -14 8 -3 18 -2 21 3 8 13 -9 20 -24 11z"/>
<path d="M5480 11131 c0 -5 5 -13 10 -16 6 -3 10 -2 10 4 0 5 -4 13 -10 16 -5
3 -10 2 -10 -4z"/>
<path d="M2535 11040 c-3 -5 -2 -10 4 -10 5 0 13 5 16 10 3 6 2 10 -4 10 -5 0
-13 -4 -16 -10z"/>
<path d="M4270 6285 c-7 -9 -10 -18 -6 -22 3 -3 6 -1 6 5 0 6 8 12 18 14 11 2
13 6 6 11 -7 4 -17 0 -24 -8z"/>
<path d="M4195 6250 c-3 -5 -15 -10 -25 -10 -14 0 -18 -7 -18 -30 1 -19 -6
-36 -18 -45 -10 -8 -15 -15 -11 -15 5 0 23 11 41 25 18 14 35 23 37 22 2 -2
12 5 22 15 9 10 13 18 7 18 -5 0 -10 7 -10 15 0 17 -16 20 -25 5z"/>
<path d="M4084 6135 c-5 -13 -9 -13 -22 -3 -13 11 -15 10 -9 -5 4 -10 7 -21 7
-23 0 -14 19 0 28 21 6 14 9 25 6 25 -2 0 -7 -7 -10 -15z"/>
<path d="M4003 6060 c-9 -23 -16 -29 -30 -24 -16 6 -16 5 2 -9 18 -14 21 -14
27 3 4 10 11 21 17 25 13 7 15 35 3 35 -4 0 -13 -14 -19 -30z"/>
<path d="M3017 5926 c-3 -8 0 -17 8 -20 14 -5 28 17 18 28 -10 10 -21 7 -26
-8z"/>
<path d="M1180 5919 c0 -5 5 -7 10 -4 6 3 10 8 10 11 0 2 -4 4 -10 4 -5 0 -10
-5 -10 -11z"/>
<path d="M3010 5875 c-6 -8 -10 -20 -7 -27 3 -8 6 -6 6 5 1 10 6 15 11 12 6
-3 10 1 10 9 0 20 -4 20 -20 1z"/>
<path d="M2696 5434 c4 -37 11 -39 12 -4 0 16 -3 30 -7 30 -5 0 -7 -12 -5 -26z"/>
<path d="M3981 5399 c-2 -24 -3 -55 -3 -69 0 -14 -3 -29 -8 -35 -11 -15 -22
-99 -14 -119 6 -16 8 -16 25 0 15 14 17 19 7 26 -10 6 -10 8 1 8 7 0 11 6 7
15 -3 8 -2 15 2 15 5 0 6 38 4 85 -3 60 -1 85 8 85 6 0 8 5 5 10 -4 6 -10 8
-15 5 -4 -3 -10 0 -12 6 -2 6 -5 -9 -7 -32z"/>
<path d="M4167 5416 c-3 -8 0 -19 6 -24 9 -8 12 -4 12 14 0 27 -10 32 -18 10z"/>
<path d="M4140 5374 c0 -8 5 -12 10 -9 6 3 10 10 10 16 0 5 -4 9 -10 9 -5 0
-10 -7 -10 -16z"/>
<path d="M2670 5241 c-12 -24 -14 -69 -1 -55 10 11 25 74 17 74 -3 0 -10 -9
-16 -19z"/>
<path d="M3950 5135 c10 -12 10 -18 -1 -31 -10 -13 -10 -17 2 -25 11 -7 11 -9
0 -9 -10 0 -11 -3 -2 -14 10 -11 8 -17 -6 -25 -16 -9 -16 -10 5 -11 12 0 22 5
22 10 0 6 6 10 14 10 7 0 16 9 19 20 6 25 -1 26 -19 3 -12 -16 -13 -15 -14 15
0 29 3 32 20 27 15 -5 18 -3 14 9 -3 9 -12 12 -22 9 -11 -5 -14 -2 -9 10 5 13
1 17 -15 17 -17 0 -18 -2 -8 -15z"/>
<path d="M4250 5090 c8 -5 20 -10 25 -10 6 0 3 5 -5 10 -8 5 -19 10 -25 10 -5
0 -3 -5 5 -10z"/>
<path d="M3960 4989 c-14 -26 -7 -34 17 -20 10 6 13 11 6 11 -7 0 -10 7 -7 15
9 22 -4 18 -16 -6z"/>
<path d="M3925 4960 c3 -5 8 -10 11 -10 2 0 4 5 4 10 0 6 -5 10 -11 10 -5 0
-7 -4 -4 -10z"/>
<path d="M2690 4930 c0 -5 5 -10 10 -10 6 0 10 5 10 10 0 6 -4 10 -10 10 -5 0
-10 -4 -10 -10z"/>
<path d="M3920 4900 c-10 -19 -10 -20 9 -8 22 13 28 28 11 28 -5 0 -14 -9 -20
-20z"/>
<path d="M3935 4790 c-3 -5 -1 -10 4 -10 6 0 11 5 11 10 0 6 -2 10 -4 10 -3 0
-8 -4 -11 -10z"/>
<path d="M2860 4480 c0 -5 5 -10 11 -10 5 0 7 5 4 10 -3 6 -8 10 -11 10 -2 0
-4 -4 -4 -10z"/>
<path d="M2700 4110 c-8 -5 -11 -12 -7 -16 4 -4 13 -2 19 4 15 15 7 24 -12 12z"/>
<path d="M2857 4035 c3 -8 9 -12 14 -9 12 7 11 11 -5 17 -10 4 -13 1 -9 -8z"/>
<path d="M2850 4000 c-13 -8 -13 -10 2 -10 9 0 20 5 23 10 8 13 -5 13 -25 0z"/>
<path d="M3000 3985 c0 -8 5 -15 11 -15 6 0 8 -7 5 -16 -5 -14 -4 -15 8 -5 17
14 12 37 -10 45 -8 3 -14 -1 -14 -9z"/>
<path d="M2990 3920 c0 -5 5 -10 10 -10 6 0 10 5 10 10 0 6 -4 10 -10 10 -5 0
-10 -4 -10 -10z"/>
<path d="M3015 3849 c-4 -6 -5 -12 -2 -15 2 -3 7 2 10 11 7 17 1 20 -8 4z"/>
<path d="M2973 3835 c-15 -17 -17 -51 -3 -60 6 -3 7 1 4 9 -4 11 0 16 12 16
15 0 16 2 5 9 -12 8 -12 12 -2 25 17 20 1 21 -16 1z"/>
<path d="M2916 3773 c-6 -14 -5 -15 5 -6 7 7 10 15 7 18 -3 3 -9 -2 -12 -12z"/>
<path d="M2751 3763 c-12 -13 -12 -17 2 -25 10 -5 17 -15 17 -23 0 -8 5 -17
12 -21 8 -5 9 -2 5 9 -3 10 -2 17 3 17 17 0 11 39 -7 49 -13 6 -22 4 -32 -6z"/>
<path d="M5130 3770 c0 -5 5 -10 10 -10 6 0 10 5 10 10 0 6 -4 10 -10 10 -5 0
-10 -4 -10 -10z"/>
<path d="M2940 3720 c20 -13 33 -13 25 0 -3 6 -14 10 -23 10 -15 0 -15 -2 -2
-10z"/>
<path d="M2877 3429 c6 -6 9 -19 6 -28 -4 -12 -3 -13 6 -5 13 12 5 44 -12 44
-8 0 -8 -3 0 -11z"/>
<path d="M2850 3409 c0 -5 5 -7 10 -4 6 3 10 8 10 11 0 2 -4 4 -10 4 -5 0 -10
-5 -10 -11z"/>
<path d="M2877 3374 c-8 -8 1 -24 12 -24 4 0 8 7 8 15 0 16 -9 20 -20 9z"/>
<path d="M2870 3330 c0 -5 5 -10 10 -10 6 0 10 5 10 10 0 6 -4 10 -10 10 -5 0
-10 -4 -10 -10z"/>
<path d="M2905 3320 c-3 -5 -1 -10 4 -10 6 0 11 5 11 10 0 6 -2 10 -4 10 -3 0
-8 -4 -11 -10z"/>
<path d="M2873 3299 c-7 -7 -7 -17 1 -35 16 -34 23 -30 18 11 -5 39 -4 39 -19
24z"/>
<path d="M3022 3160 c-8 -11 -17 -25 -18 -32 -2 -7 -6 -24 -10 -37 -5 -17 -4
-22 4 -17 6 3 16 -2 21 -13 14 -26 14 -34 -1 -25 -9 5 -8 2 1 -9 8 -10 11 -20
8 -24 -3 -3 1 -19 9 -35 8 -16 13 -32 10 -36 -3 -5 4 -13 14 -20 14 -9 19 -8
24 3 3 8 1 15 -5 15 -6 0 -6 7 1 20 6 11 8 25 5 30 -3 6 -1 10 5 10 7 0 9 8 5
20 -4 12 -1 27 5 35 9 11 9 15 1 15 -6 0 -11 7 -11 16 0 11 6 14 18 10 16 -6
16 -5 0 8 -21 16 -23 44 -5 60 7 6 11 10 9 10 -2 -1 -19 2 -38 6 -29 7 -39 5
-52 -10z"/>
<path d="M3110 3130 c0 -5 5 -10 10 -10 6 0 10 5 10 10 0 6 -4 10 -10 10 -5 0
-10 -4 -10 -10z"/>
<path d="M2874 3006 c4 -11 0 -26 -10 -37 -9 -10 -14 -24 -11 -31 4 -8 6 -7 6
5 1 9 8 17 16 17 17 0 20 28 4 50 -9 12 -10 12 -5 -4z"/>
<path d="M2987 3006 c-4 -10 -1 -13 9 -9 15 6 19 23 5 23 -5 0 -11 -7 -14 -14z"/>
<path d="M2861 2894 c0 -11 3 -14 6 -6 3 7 2 16 -1 19 -3 4 -6 -2 -5 -13z"/>
<path d="M2899 2878 c-5 -17 -4 -48 3 -48 4 0 7 11 6 25 -2 21 -6 31 -9 23z"/>
<path d="M2840 2540 c-8 -11 -20 -20 -27 -20 -21 0 -53 -42 -53 -70 0 -14 -5
-31 -12 -38 -19 -19 0 -27 32 -15 19 7 30 8 30 2 0 -6 5 -7 10 -4 6 4 8 11 5
16 -4 5 -1 9 4 9 6 0 11 5 11 11 0 5 -4 8 -9 5 -5 -4 -7 3 -4 15 3 11 11 18
17 16 7 -3 12 4 12 15 -1 12 5 23 12 25 8 3 10 -1 5 -13 -4 -12 -3 -15 6 -10
6 4 9 16 6 27 -4 11 -2 26 4 32 7 10 4 13 -13 15 -12 1 -28 -7 -36 -18z"/>
<path d="M2572 2258 c-6 -6 -12 -19 -12 -27 0 -8 -8 -23 -17 -33 -16 -17 -15
-18 4 -15 35 5 56 34 46 62 -7 21 -11 23 -21 13z"/>
<path d="M3150 2141 c0 -6 4 -13 10 -16 6 -3 7 1 4 9 -7 18 -14 21 -14 7z"/>
<path d="M5675 2030 c3 -5 8 -10 11 -10 2 0 4 5 4 10 0 6 -5 10 -11 10 -5 0
-7 -4 -4 -10z"/>
<path d="M3848 1665 c-3 -3 -18 -7 -33 -8 -16 -1 -33 -11 -39 -22 -6 -10 -17
-25 -23 -33 -24 -26 -13 -29 30 -9 60 29 87 52 78 65 -4 7 -10 10 -13 7z"/>
<path d="M3630 1163 c1 -10 1 -20 0 -23 -7 -19 -10 -99 -3 -103 10 -7 38 13
46 33 5 13 6 13 6 0 2 -26 67 -13 86 17 15 23 12 49 -3 27 -7 -9 -57 -12 -65
-4 -2 3 -9 19 -14 35 -11 35 -56 50 -53 18z"/>
<path d="M5275 1050 c-3 -5 -1 -10 4 -10 6 0 11 5 11 10 0 6 -2 10 -4 10 -3 0
-8 -4 -11 -10z"/>
<path d="M3668 643 c-1 -5 -20 -17 -42 -28 -39 -20 -62 -55 -43 -66 5 -4 7
-11 3 -17 -3 -6 0 -12 6 -15 17 -6 5 -18 -20 -20 -14 -1 -19 -8 -18 -23 1 -18
4 -20 16 -11 27 21 39 42 35 57 -3 9 12 29 40 50 46 36 59 55 49 71 -6 11 -21
12 -26 2z"/>
<path d="M3050 445 c0 -8 2 -15 4 -15 2 0 6 7 10 15 3 8 1 15 -4 15 -6 0 -10
-7 -10 -15z"/>
<path d="M3110 449 c0 -6 -6 -9 -12 -6 -7 2 -21 -3 -31 -11 -16 -14 -19 -14
-27 -2 -8 13 -10 12 -10 -2 0 -10 -7 -18 -15 -18 -8 0 -15 -4 -15 -10 0 -5 15
-10 33 -10 25 0 42 9 67 35 19 19 29 35 22 35 -7 0 -12 -5 -12 -11z"/>
<path d="M3535 420 c3 -5 11 -10 16 -10 6 0 7 5 4 10 -3 6 -11 10 -16 10 -6 0
-7 -4 -4 -10z"/>
<path d="M3530 15 c0 -10 10 -15 30 -15 32 0 40 14 14 24 -27 10 -44 7 -44 -9z"/>
<path d="M3600 20 c0 -5 5 -10 11 -10 5 0 7 5 4 10 -3 6 -8 10 -11 10 -2 0 -4
-4 -4 -10z"/>
</g>
</svg>
