<?xml version="1.0" encoding="UTF-8"?>
<!DOCTYPE svg PUBLIC "-//W3C//DTD SVG 1.1//EN" "http://www.w3.org/Graphics/SVG/1.1/DTD/svg11.dtd">
<svg xmlns="http://www.w3.org/2000/svg" version="1.1" width="1268px" height="1192px" style="shape-rendering:geometricPrecision; text-rendering:geometricPrecision; image-rendering:optimizeQuality; fill-rule:evenodd; clip-rule:evenodd" xmlns:xlink="http://www.w3.org/1999/xlink">
<g><path style="opacity:0.937" fill="#fefefe" d="M 670.5,384.5 C 673.29,387.113 676.29,389.613 679.5,392C 680.449,392.617 681.282,392.451 682,391.5C 684.703,394.538 687.703,397.205 691,399.5C 689.992,401.366 690.492,402.699 692.5,403.5C 694.617,406.896 696.617,410.396 698.5,414C 697.117,415.461 697.451,416.294 699.5,416.5C 699.36,418.124 700.027,419.29 701.5,420C 700.833,420.333 700.167,420.667 699.5,421C 701.706,423.209 702.04,425.709 700.5,428.5C 702.433,430.572 702.433,432.905 700.5,435.5C 706.021,450.393 702.521,463.393 690,474.5C 689.667,474.167 689.333,473.833 689,473.5C 687.737,476.468 685.737,477.468 683,476.5C 682.581,477.672 681.915,478.672 681,479.5C 680.977,483.346 681.143,486.846 681.5,490C 681.05,491.285 680.383,492.452 679.5,493.5C 681.802,494.999 681.469,496.332 678.5,497.5C 681.308,500.971 680.808,503.971 677,506.5C 675.887,505.289 674.72,505.289 673.5,506.5C 671.768,504.717 670.268,502.717 669,500.5C 669.129,497.261 668.962,494.094 668.5,491C 668.615,489.105 669.282,487.438 670.5,486C 669.773,484.601 669.273,483.101 669,481.5C 666.644,483.973 665.644,486.64 666,489.5C 665.667,489.167 665.333,488.833 665,488.5C 664.667,489.5 664.333,490.5 664,491.5C 663.667,491.167 663.333,490.833 663,490.5C 662.257,492.441 662.424,494.274 663.5,496C 661.354,498.795 660.187,501.961 660,505.5C 659.015,506.814 657.848,507.814 656.5,508.5C 655.504,508.586 654.671,508.252 654,507.5C 652.302,508.741 650.802,510.074 649.5,511.5C 648.085,510.711 646.585,510.044 645,509.5C 637.089,510.434 629.256,510.767 621.5,510.5C 619.412,508.608 617.079,507.108 614.5,506C 615.167,505.667 615.833,505.333 616.5,505C 613.584,504.173 612.917,502.506 614.5,500C 614.05,498.715 613.383,497.548 612.5,496.5C 613.327,494.059 613.327,491.893 612.5,490C 615,489.167 615.167,488 613,486.5C 611.764,487.399 610.93,488.566 610.5,490C 610.438,495.862 610.772,501.196 611.5,506C 609.094,506.779 607.427,505.946 606.5,503.5C 605.109,504.645 603.776,504.645 602.5,503.5C 601.96,502.252 601.293,501.085 600.5,500C 600.411,498.284 600.744,496.451 601.5,494.5C 600.486,488.545 599.653,482.545 599,476.5C 598.082,474.368 596.749,473.701 595,474.5C 594.667,473.833 594.333,473.167 594,472.5C 593.259,473.641 592.425,473.641 591.5,472.5C 589.962,469.027 587.962,465.861 585.5,463C 585.957,462.586 586.291,462.086 586.5,461.5C 585.218,459.821 584.218,457.987 583.5,456C 582.684,449.442 582.684,442.942 583.5,436.5C 585.034,434.698 585.368,432.865 584.5,431C 585.269,427.757 586.269,424.59 587.5,421.5C 587.291,420.914 586.957,420.414 586.5,420C 589.39,412.637 591.89,405.47 594,398.5C 595.314,397.687 596.481,396.687 597.5,395.5C 598.086,395.709 598.586,396.043 599,396.5C 599.249,393.823 600.249,391.49 602,389.5C 603.333,390.167 604.667,390.833 606,391.5C 606.5,390.333 607.333,389.5 608.5,389C 607.833,388.667 607.167,388.333 606.5,388C 611.667,384.605 617.167,381.771 623,379.5C 623.667,380.167 624.333,380.833 625,381.5C 626,380.167 627,378.833 628,377.5C 628.308,378.308 628.808,378.975 629.5,379.5C 631.953,375.796 634.119,375.796 636,379.5C 637.506,376.526 639.172,376.193 641,378.5C 646.299,375.911 651.299,376.577 656,380.5C 657.682,380.193 659.348,379.86 661,379.5C 663.301,380.8 665.301,382.467 667,384.5C 668.373,385.515 669.54,385.515 670.5,384.5 Z M 629.5,484.5 C 630.552,484.351 631.552,484.517 632.5,485C 631.745,487.175 630.912,489.341 630,491.5C 628.951,492.517 627.784,492.684 626.5,492C 627.651,489.536 628.651,487.036 629.5,484.5 Z M 648.5,505.5 C 647.206,504.71 646.039,503.71 645,502.5C 644.727,504.101 644.227,505.601 643.5,507C 634.892,510.732 627.226,509.399 620.5,503C 621.416,502.722 622.082,502.222 622.5,501.5C 624.41,500.025 625.576,498.025 626,495.5C 627.388,494.446 628.888,494.28 630.5,495C 629.833,495.333 629.167,495.667 628.5,496C 629.91,496.368 630.91,497.201 631.5,498.5C 630.572,499.768 630.405,501.101 631,502.5C 631.333,501.833 631.667,501.167 632,500.5C 633,501.833 634,501.833 635,500.5C 635.333,501.5 635.667,502.5 636,503.5C 637.25,502.427 638.584,502.427 640,503.5C 641.221,502.728 642.221,501.728 643,500.5C 643.414,500.957 643.914,501.291 644.5,501.5C 644.848,497.277 646.182,493.11 648.5,489C 646.939,488.059 645.605,486.892 644.5,485.5C 646.007,484.261 647.174,484.595 648,486.5C 648.333,485.833 648.667,485.167 649,484.5C 650.467,487.784 650.301,490.784 648.5,493.5C 649.571,495.325 648.904,496.492 646.5,497C 648.321,499.456 648.988,502.289 648.5,505.5 Z"/></g>
<g><path style="opacity:0.451" fill="#fefffe" d="M 624.5,378.5 C 625.833,379.167 625.833,379.167 624.5,378.5 Z"/></g>
<g><path style="opacity:0.247" fill="#fefffe" d="M 670.5,384.5 C 669.833,383.167 669.833,383.167 670.5,384.5 Z"/></g>
<g><path style="opacity:0.129" fill="#fefffe" d="M 692.5,402.5 C 693.833,403.167 693.833,403.167 692.5,402.5 Z"/></g>
<g><path style="opacity:1" fill="#0a0a0a" d="M 635.5,414.5 C 634.989,417.988 633.989,421.655 632.5,425.5C 632.167,426.5 631.5,427.167 630.5,427.5C 628.214,427.595 626.214,428.262 624.5,429.5C 623.778,429.918 623.278,430.584 623,431.5C 622.617,430.944 622.117,430.611 621.5,430.5C 621.611,428.352 620.944,428.019 619.5,429.5C 618.158,427.995 616.492,427.328 614.5,427.5C 615.84,423.502 614.84,420.168 611.5,417.5C 613.138,413.564 615.304,409.897 618,406.5C 618.333,406.833 618.667,407.167 619,407.5C 622.89,404.838 626.724,405.005 630.5,408C 631.727,410.562 633.394,412.728 635.5,414.5 Z"/></g>
<g><path style="opacity:1" fill="#0c0c0c" d="M 656.5,424.5 C 656.938,424.565 657.272,424.399 657.5,424C 656.707,422.915 656.04,421.748 655.5,420.5C 656.167,420.167 656.833,419.833 657.5,419.5C 657.291,418.914 656.957,418.414 656.5,418C 658.204,415.763 659.204,413.263 659.5,410.5C 662.414,405.385 666.414,404.385 671.5,407.5C 678.896,420.3 675.229,427.633 660.5,429.5C 658.02,428.693 656.687,427.026 656.5,424.5 Z"/></g>
<g><path style="opacity:1" fill="#3a3a3a" d="M 659.5,410.5 C 659.204,413.263 658.204,415.763 656.5,418C 656.957,418.414 657.291,418.914 657.5,419.5C 656.833,419.833 656.167,420.167 655.5,420.5C 656.04,421.748 656.707,422.915 657.5,424C 657.272,424.399 656.938,424.565 656.5,424.5C 654.95,422.7 653.95,420.533 653.5,418C 656.014,415.943 657.347,413.61 657.5,411C 658.094,410.536 658.761,410.369 659.5,410.5 Z"/></g>
<g><path style="opacity:0.227" fill="#fefffe" d="M 699.5,415.5 C 700.833,416.167 700.833,416.167 699.5,415.5 Z"/></g>
<g><path style="opacity:1" fill="#2d2d2d" d="M 611.5,417.5 C 614.84,420.168 615.84,423.502 614.5,427.5C 616.492,427.328 618.158,427.995 619.5,429.5C 620.944,428.019 621.611,428.352 621.5,430.5C 616.263,431.796 612.763,429.796 611,424.5C 610.667,424.833 610.333,425.167 610,425.5C 610.581,422.608 611.081,419.941 611.5,417.5 Z"/></g>
<g><path style="opacity:1" fill="#868686" d="M 635.5,414.5 C 636.267,415.172 636.934,416.005 637.5,417C 637.307,418.645 637.14,420.479 637,422.5C 636.082,424.376 634.582,425.376 632.5,425.5C 633.989,421.655 634.989,417.988 635.5,414.5 Z"/></g>
<g><path style="opacity:1" fill="#8d8d8d" d="M 630.5,427.5 C 629.166,429.159 627.499,430.492 625.5,431.5C 625.213,430.8 624.88,430.133 624.5,429.5C 626.214,428.262 628.214,427.595 630.5,427.5 Z"/></g>
<g><path style="opacity:0.09" fill="#fefffe" d="M 702.5,437.5 C 703.525,437.897 703.692,438.563 703,439.5C 702.536,438.906 702.369,438.239 702.5,437.5 Z"/></g>
<g><path style="opacity:1" fill="#111111" d="M 640.5,440.5 C 648.107,441.123 650.607,445.123 648,452.5C 645.235,457.501 642.235,457.501 639,452.5C 638.421,450.351 637.921,448.185 637.5,446C 638.313,444.032 639.313,442.198 640.5,440.5 Z"/></g>
<g><path style="opacity:0.247" fill="#fefffe" d="M 656.5,508.5 C 657.833,509.167 657.833,509.167 656.5,508.5 Z"/></g>
<g><path style="opacity:0.024" fill="#fefffe" d="M 649.5,511.5 C 650.833,512.167 650.833,512.167 649.5,511.5 Z"/></g>
<g><path style="opacity:0.886" fill="#fefffe" d="M 653.5,532.5 C 652.373,535.857 652.373,539.191 653.5,542.5C 657.115,542.794 660.282,541.794 663,539.5C 666.555,540.428 669.888,540.428 673,539.5C 673.945,539.095 674.612,538.428 675,537.5C 677.011,538.717 679.011,538.384 681,536.5C 681.667,537.167 682.333,537.833 683,538.5C 689.068,536.765 695.068,535.098 701,533.5C 701.928,535.335 703.094,535.668 704.5,534.5C 707.177,535.074 709.843,535.741 712.5,536.5C 710.809,539.345 711.143,541.679 713.5,543.5C 713.07,545.62 713.07,547.62 713.5,549.5C 711.083,550.072 708.916,551.072 707,552.5C 706,551.833 705,551.167 704,550.5C 703.751,551.624 703.251,552.624 702.5,553.5C 700.169,553.55 698.003,553.217 696,552.5C 693.763,553.056 691.763,554.056 690,555.5C 688.269,551.665 686.935,551.998 686,556.5C 685.617,555.944 685.117,555.611 684.5,555.5C 683.833,554.167 683.167,554.167 682.5,555.5C 681.508,555.328 680.842,555.662 680.5,556.5C 675.973,557.318 671.307,557.318 666.5,556.5C 665.719,557.737 664.719,558.737 663.5,559.5C 661.037,559.413 658.537,559.413 656,559.5C 654.333,558.167 652.667,556.833 651,555.5C 651.817,558.063 651.484,560.397 650,562.5C 650.561,563.022 651.228,563.355 652,563.5C 653.077,562.571 654.244,561.904 655.5,561.5C 655.369,562.239 655.536,562.906 656,563.5C 657.458,562.253 658.958,562.253 660.5,563.5C 662.742,561.461 665.242,559.795 668,558.5C 668.492,559.549 668.326,560.549 667.5,561.5C 669.005,564.131 669.671,563.797 669.5,560.5C 672.325,560.081 674.491,561.081 676,563.5C 676.333,562.5 676.667,561.5 677,560.5C 677.417,561.756 678.25,562.423 679.5,562.5C 679.369,563.239 679.536,563.906 680,564.5C 683.086,562.78 685.419,563.447 687,566.5C 687.414,566.043 687.914,565.709 688.5,565.5C 689.806,566.912 690.64,568.579 691,570.5C 691.333,570.167 691.667,569.833 692,569.5C 692.065,571.883 692.898,572.55 694.5,571.5C 695.711,572.274 695.711,573.107 694.5,574C 697.167,575.333 699.167,577.333 700.5,580C 696.719,580.367 696.052,581.7 698.5,584C 696.21,584.79 695.877,586.124 697.5,588C 696.464,589.901 695.298,591.735 694,593.5C 693.667,593.167 693.333,592.833 693,592.5C 690.401,595.305 687.401,597.639 684,599.5C 680.338,598.54 676.504,597.04 672.5,595C 673.833,593.667 675.167,592.333 676.5,591C 675.167,588.333 675.167,585.667 676.5,583C 674.544,577.511 671.21,576.345 666.5,579.5C 665.038,578.529 663.705,578.862 662.5,580.5C 660.057,579.68 657.891,580.347 656,582.5C 652.483,580.807 649.65,581.64 647.5,585C 648.73,588.922 648.064,592.589 645.5,596C 645.749,603.339 647.915,604.172 652,598.5C 653.74,599.716 654.74,601.382 655,603.5C 656.284,602.428 656.617,601.095 656,599.5C 663.789,600.413 671.789,600.413 680,599.5C 680.065,601.883 680.898,602.55 682.5,601.5C 683.192,602.025 683.692,602.692 684,603.5C 684.893,602.289 685.726,602.289 686.5,603.5C 687.189,605.444 687.689,607.444 688,609.5C 688.708,610.381 689.542,611.047 690.5,611.5C 692.419,613.649 693.085,615.983 692.5,618.5C 691.244,618.461 690.244,618.961 689.5,620C 690.38,621.356 690.714,622.856 690.5,624.5C 687.951,624.387 685.618,625.054 683.5,626.5C 682.914,626.291 682.414,625.957 682,625.5C 680.459,628.624 678.625,628.957 676.5,626.5C 673.689,627.08 671.023,627.746 668.5,628.5C 664.509,627.662 660.842,626.329 657.5,624.5C 656.972,623.279 656.305,622.113 655.5,621C 657.301,620.683 657.634,620.016 656.5,619C 654.568,618.862 652.734,619.362 651,620.5C 649.108,619.87 647.441,618.87 646,617.5C 645.833,617.833 645.667,618.167 645.5,618.5C 646.49,622.292 646.49,626.292 645.5,630.5C 646.313,631.814 647.313,632.981 648.5,634C 647.5,634.333 646.5,634.667 645.5,635C 647.044,635.29 648.377,635.956 649.5,637C 649.5,638.333 649.5,639.667 649.5,641C 650.167,641.333 650.833,641.667 651.5,642C 651.384,643.268 651.051,644.602 650.5,646C 652.165,645.256 653.831,645.423 655.5,646.5C 656.672,646.081 657.672,645.415 658.5,644.5C 660.572,646.433 662.905,646.433 665.5,644.5C 667.702,645.78 669.868,645.78 672,644.5C 672.923,645.759 673.757,647.092 674.5,648.5C 675.258,647.189 676.258,646.689 677.5,647C 677.167,647.333 676.833,647.667 676.5,648C 678.541,649.242 679.707,651.075 680,653.5C 680.333,653.167 680.667,652.833 681,652.5C 681.21,654.058 681.71,655.391 682.5,656.5C 682.324,658.991 682.324,661.491 682.5,664C 683.167,664.333 683.833,664.667 684.5,665C 683.139,666.584 682.472,668.418 682.5,670.5C 680.381,671.738 678.381,673.238 676.5,675C 677.863,677.129 677.529,677.629 675.5,676.5C 674.243,678.679 672.743,680.679 671,682.5C 669.301,681.594 667.467,681.261 665.5,681.5C 665.66,683.199 665.494,684.866 665,686.5C 664.331,683.972 663.498,683.972 662.5,686.5C 662.709,687.086 663.043,687.586 663.5,688C 662.069,688.465 660.903,689.299 660,690.5C 659,689.5 658,688.5 657,687.5C 656.135,689.225 655.469,690.892 655,692.5C 652.017,689.303 648.85,688.637 645.5,690.5C 642.917,689.062 640.583,689.396 638.5,691.5C 636.958,690.253 635.458,690.253 634,691.5C 631.853,690.887 629.686,690.221 627.5,689.5C 628.894,688.313 628.727,687.646 627,687.5C 624.98,688.032 624.147,689.365 624.5,691.5C 622.508,691.672 620.842,691.005 619.5,689.5C 618.914,689.709 618.414,690.043 618,690.5C 614.678,688.092 611.178,686.092 607.5,684.5C 607.657,683.127 607.49,681.793 607,680.5C 604.789,679.915 602.956,678.915 601.5,677.5C 602.041,675.477 601.541,673.477 600,671.5C 599.257,669.559 599.424,667.726 600.5,666C 598.789,664.867 598.289,663.367 599,661.5C 602.354,656.481 606.687,652.481 612,649.5C 612.561,650.022 613.228,650.355 614,650.5C 615.626,649.711 617.126,648.711 618.5,647.5C 619.969,649.375 621.802,649.375 624,647.5C 625.518,647.057 626.685,647.724 627.5,649.5C 629.368,649.054 631.201,648.721 633,648.5C 633.374,647.584 633.874,646.75 634.5,646C 633.257,643.884 632.091,641.718 631,639.5C 630.08,639.07 629.247,638.736 628.5,638.5C 629.641,637.575 629.641,636.741 628.5,636C 632.378,633.77 632.378,631.603 628.5,629.5C 630.991,628.459 630.991,627.626 628.5,627C 632.378,626.051 632.378,624.885 628.5,623.5C 628.977,622.522 629.643,621.689 630.5,621C 626.554,620.825 622.72,620.658 619,620.5C 617.316,622.351 615.483,624.018 613.5,625.5C 614.97,627.482 614.636,629.148 612.5,630.5C 614.848,631.86 615.015,633.527 613,635.5C 612.667,635.167 612.333,634.833 612,634.5C 611.717,637.742 610.883,638.076 609.5,635.5C 608.808,636.025 608.308,636.692 608,637.5C 606.829,636.107 605.329,635.273 603.5,635C 602.789,633.745 601.956,632.579 601,631.5C 600.667,631.833 600.333,632.167 600,632.5C 599.667,631.167 599.333,629.833 599,628.5C 598.333,629.833 597.667,629.833 597,628.5C 596.427,626.359 595.594,624.359 594.5,622.5C 595.073,619.341 595.24,616.008 595,612.5C 595.283,615.742 596.117,616.076 597.5,613.5C 596.674,612.549 596.508,611.549 597,610.5C 599.341,608.479 601.841,606.812 604.5,605.5C 601.747,601.232 598.747,597.066 595.5,593C 596.167,592.667 596.833,592.333 597.5,592C 596.545,590.283 595.545,588.616 594.5,587C 595.212,585.575 595.379,584.075 595,582.5C 595.914,583.654 596.747,583.487 597.5,582C 595.579,580.759 595.246,579.259 596.5,577.5C 596.833,578.167 597.167,578.833 597.5,579.5C 598.167,578.5 598.833,577.5 599.5,576.5C 601.529,577.629 601.863,577.129 600.5,575C 602.23,573.148 603.396,573.314 604,575.5C 606.206,571.749 605.039,569.582 600.5,569C 602.878,568.489 605.212,567.822 607.5,567C 610.125,564.54 613.125,562.706 616.5,561.5C 617.711,562.274 617.711,563.107 616.5,564C 617.167,564.667 617.833,565.333 618.5,566C 616.714,566.785 615.214,567.951 614,569.5C 612.16,568.167 611.66,568.334 612.5,570C 617.928,568.518 623.594,567.518 629.5,567C 632.646,566.89 633.646,565.557 632.5,563C 633.167,562 633.833,561 634.5,560C 630.785,557.855 626.952,557.021 623,557.5C 619.595,556.418 616.095,555.584 612.5,555C 611.251,553.176 610.085,553.343 609,555.5C 608.333,554.833 607.667,554.167 607,553.5C 603.581,554.088 599.914,554.422 596,554.5C 595.085,553.672 594.419,552.672 594,551.5C 593.275,553.158 592.108,553.658 590.5,553C 588.3,550.766 586.467,548.266 585,545.5C 584.333,546.833 583.667,546.833 583,545.5C 582.383,544.551 582.549,543.718 583.5,543C 582.062,542.781 580.729,542.281 579.5,541.5C 581.304,540.284 582.971,539.284 584.5,538.5C 586.123,539.476 587.457,538.976 588.5,537C 591.604,536.873 594.604,536.707 597.5,536.5C 598.852,538.636 600.518,538.97 602.5,537.5C 606.589,538.132 610.589,539.132 614.5,540.5C 615.842,539.098 616.676,539.431 617,541.5C 618.533,541.056 620.033,540.723 621.5,540.5C 625.782,542.382 630.116,543.049 634.5,542.5C 633.935,539.492 632.935,536.659 631.5,534C 636.025,533.618 637.691,531.118 636.5,526.5C 635.5,526.5 634.5,526.5 633.5,526.5C 634.18,523.938 634.347,521.271 634,518.5C 638,518.5 642,518.5 646,518.5C 647,517.833 648,517.167 649,516.5C 649.466,519.153 650.3,521.987 651.5,525C 650.833,526 650.167,527 649.5,528C 650.92,529.492 652.254,530.992 653.5,532.5 Z M 609.5,569.5 C 611.332,570.14 611.665,571.14 610.5,572.5C 609.614,571.675 609.281,570.675 609.5,569.5 Z M 609.5,604.5 C 611.019,603.59 612.685,602.757 614.5,602C 613.549,601.282 613.383,600.449 614,599.5C 614.671,600.252 615.504,600.586 616.5,600.5C 617.301,598.958 617.634,597.292 617.5,595.5C 618.822,595.33 619.989,595.663 621,596.5C 620.799,593.223 620.632,589.889 620.5,586.5C 624.106,586.789 627.606,586.456 631,585.5C 630.745,586.915 630.245,588.415 629.5,590C 631.679,593.901 631.012,597.567 627.5,601C 627.833,601.333 628.167,601.667 628.5,602C 622.202,602.312 615.869,603.146 609.5,604.5 Z M 616.5,587.5 C 617.627,588.122 618.627,588.955 619.5,590C 617.511,590.519 616.511,589.686 616.5,587.5 Z M 606.5,603.5 C 607.713,604.497 607.546,605.497 606,606.5C 605.53,605.423 605.697,604.423 606.5,603.5 Z M 619.5,667.5 C 621.76,668.238 621.927,669.238 620,670.5C 619.517,669.552 619.351,668.552 619.5,667.5 Z"/></g>
<g><path style="opacity:0.513" fill="#fefffe" d="M 633.5,529.5 C 635.337,529.639 635.67,530.306 634.5,531.5C 633.702,531.043 633.369,530.376 633.5,529.5 Z"/></g>
<g><path style="opacity:0.012" fill="#fefffe" d="M 653.5,531.5 C 654.833,532.167 654.833,532.167 653.5,531.5 Z"/></g>
<g><path style="opacity:0.329" fill="#fefffe" d="M 713.5,543.5 C 713.369,542.761 713.536,542.094 714,541.5C 714.692,542.437 714.525,543.103 713.5,543.5 Z"/></g>
<g><path style="opacity:0.841" fill="#fefffe" d="M 577.5,550.5 C 578.309,551.469 579.309,552.302 580.5,553C 580.167,553.333 579.833,553.667 579.5,554C 581.398,556.388 583.065,558.888 584.5,561.5C 584.06,563.765 583.394,565.932 582.5,568C 584.991,568.626 584.991,569.459 582.5,570.5C 583.687,572.21 583.354,573.71 581.5,575C 582.301,579.647 581.301,583.98 578.5,588C 579.098,593.389 577.932,598.556 575,603.5C 574.667,602.167 574.333,600.833 574,599.5C 572.488,601.957 571.154,601.957 570,599.5C 569.586,599.957 569.086,600.291 568.5,600.5C 566.679,599.272 565.679,597.606 565.5,595.5C 564.5,595.5 563.5,595.5 562.5,595.5C 562.336,592.813 562.503,590.146 563,587.5C 565.427,582.743 567.26,578.076 568.5,573.5C 567.636,571.014 567.636,568.848 568.5,567C 569.167,566.333 569.833,565.667 570.5,565C 569.275,562.371 569.608,559.871 571.5,557.5C 572.451,558.326 573.451,558.492 574.5,558C 573.483,556.951 573.316,555.784 574,554.5C 575.376,553.295 576.542,551.962 577.5,550.5 Z"/></g>
<g><path style="opacity:0.293" fill="#fefffe" d="M 682.5,555.5 C 683.167,555.5 683.833,555.5 684.5,555.5C 683.934,557.078 682.934,558.412 681.5,559.5C 679.481,558.867 679.147,557.867 680.5,556.5C 681.492,556.672 682.158,556.338 682.5,555.5 Z"/></g>
<g><path style="opacity:0.039" fill="#fefffe" d="M 583.5,556.5 C 584.833,557.167 584.833,557.167 583.5,556.5 Z"/></g>
<g><path style="opacity:0.09" fill="#fefffe" d="M 624.5,557.5 C 625.833,558.167 625.833,558.167 624.5,557.5 Z"/></g>
<g><path style="opacity:0.825" fill="#fefffe" d="M 712.5,558.5 C 713.339,559.641 714.006,560.974 714.5,562.5C 715.689,563.429 717.022,563.762 718.5,563.5C 718.343,564.873 718.51,566.207 719,567.5C 719.414,567.043 719.914,566.709 720.5,566.5C 723.068,567.829 723.734,569.662 722.5,572C 722.765,574.151 723.765,575.818 725.5,577C 724.833,577.333 724.167,577.667 723.5,578C 725.35,579.845 725.683,581.845 724.5,584C 726.811,586.828 727.811,589.828 727.5,593C 726.833,593.333 726.167,593.667 725.5,594C 728.167,595.333 728.167,596.667 725.5,598C 727.211,599.133 727.711,600.633 727,602.5C 726.667,601.833 726.333,601.167 726,600.5C 725.3,602.032 724.134,603.032 722.5,603.5C 721.304,603.154 721.304,602.654 722.5,602C 721.552,601.517 720.552,601.351 719.5,601.5C 719.709,603.714 718.876,605.381 717,606.5C 714.999,603.667 712.499,601.334 709.5,599.5C 708.926,597.941 708.26,596.441 707.5,595C 708.204,592.02 708.204,588.854 707.5,585.5C 705.2,583.172 705.2,581.005 707.5,579C 706.584,578.626 705.75,578.126 705,577.5C 702.343,572.579 703.176,568.413 707.5,565C 706.353,562.915 707.02,561.415 709.5,560.5C 710.451,561.326 711.451,561.492 712.5,561C 711.402,560.23 711.402,559.397 712.5,558.5 Z"/></g>
<g><path style="opacity:0.141" fill="#fefffe" d="M 655.5,560.5 C 656.833,561.167 656.833,561.167 655.5,560.5 Z"/></g>
<g><path style="opacity:0.024" fill="#fefffe" d="M 679.5,561.5 C 680.833,562.167 680.833,562.167 679.5,561.5 Z"/></g>
<g><path style="opacity:0.09" fill="#fefffe" d="M 567.5,562.5 C 568.833,563.167 568.833,563.167 567.5,562.5 Z"/></g>
<g><path style="opacity:0.165" fill="#fefffe" d="M 565.5,573.5 C 566.833,574.167 566.833,574.167 565.5,573.5 Z"/></g>
<g><path style="opacity:0.127" fill="#fefffe" d="M 653.5,582.5 C 654.525,582.897 654.692,583.563 654,584.5C 653.536,583.906 653.369,583.239 653.5,582.5 Z"/></g>
<g><path style="opacity:0.265" fill="#fefffe" d="M 709.5,601.5 C 710.573,602.251 710.74,603.251 710,604.5C 708.272,603.648 708.105,602.648 709.5,601.5 Z"/></g>
<g><path style="opacity:0.102" fill="#fefffe" d="M 568.5,602.5 C 569.833,603.167 569.833,603.167 568.5,602.5 Z"/></g>
<g><path style="opacity:0.865" fill="#fefffe" d="M 718.5,636.5 C 719.404,637.209 719.737,638.209 719.5,639.5C 717.915,640.474 716.915,641.974 716.5,644C 717.516,644.519 718.182,645.353 718.5,646.5C 717.74,648.437 716.74,650.27 715.5,652C 716.051,653.398 716.384,654.732 716.5,656C 715.833,656.333 715.167,656.667 714.5,657C 715.833,658 715.833,659 714.5,660C 712.613,660.163 711.113,659.329 710,657.5C 709.333,658.167 708.667,658.833 708,659.5C 705.483,657.659 703.483,655.326 702,652.5C 701.782,649.574 701.282,646.74 700.5,644C 701.797,641.412 702.797,638.912 703.5,636.5C 702.374,630.218 702.207,623.885 703,617.5C 704.617,616.464 704.784,615.297 703.5,614C 704.563,612.812 705.897,612.312 707.5,612.5C 707.34,610.801 707.506,609.134 708,607.5C 708.371,612.811 711.205,615.311 716.5,615C 715.253,616.494 715.253,617.994 716.5,619.5C 721.72,621.242 721.72,622.742 716.5,624C 719.993,625.981 720.326,628.481 717.5,631.5C 719.729,632.034 720.062,633.701 718.5,636.5 Z M 718.5,636.5 C 718.361,638.337 717.694,638.67 716.5,637.5C 716.957,636.702 717.624,636.369 718.5,636.5 Z"/></g>
<g><path style="opacity:0.847" fill="#fefffe" d="M 594.5,671.5 C 593.833,671.5 593.5,671.833 593.5,672.5C 592.127,672.343 590.793,672.51 589.5,673C 588.845,674.487 587.845,675.653 586.5,676.5C 584.501,675.492 582.834,674.159 581.5,672.5C 578.78,670.083 576.78,667.083 575.5,663.5C 576.167,662.833 576.833,662.167 577.5,661.5C 574.403,659.472 574.07,657.305 576.5,655C 574.667,654.5 573.5,653.333 573,651.5C 570.982,645.275 568.482,639.275 565.5,633.5C 565.709,632.914 566.043,632.414 566.5,632C 562.431,626.894 560.931,621.061 562,614.5C 563.243,615.336 564.41,615.003 565.5,613.5C 565.137,612.817 564.804,612.15 564.5,611.5C 566.481,609.266 568.815,609.1 571.5,611C 572.191,612.067 572.691,613.234 573,614.5C 573.308,613.692 573.808,613.025 574.5,612.5C 575.281,613.729 575.781,615.062 576,616.5C 578.328,617.486 580.328,619.486 582,622.5C 582.667,623.167 582.667,623.833 582,624.5C 581.346,623.304 580.846,623.304 580.5,624.5C 581.951,625.906 583.284,627.406 584.5,629C 583.833,629.667 583.167,630.333 582.5,631C 584.681,632.348 586.348,634.182 587.5,636.5C 588.799,641.629 590.799,646.463 593.5,651C 592.332,652.406 592.665,653.572 594.5,654.5C 591.949,657.036 592.616,658.702 596.5,659.5C 594.321,661.1 594.654,662.6 597.5,664C 597.306,665.903 597.306,667.737 597.5,669.5C 596.398,670.176 595.398,670.842 594.5,671.5 Z"/></g>
<g><path style="opacity:0.2" fill="#fefffe" d="M 564.5,611.5 C 563.833,610.167 563.833,610.167 564.5,611.5 Z"/></g>
<g><path style="opacity:0.039" fill="#fefffe" d="M 690.5,610.5 C 691.833,611.167 691.833,611.167 690.5,610.5 Z"/></g>
<g><path style="opacity:0.027" fill="#fefffe" d="M 705.5,610.5 C 706.833,611.167 706.833,611.167 705.5,610.5 Z"/></g>
<g><path style="opacity:0.212" fill="#fefffe" d="M 701.5,614.5 C 702.833,615.167 702.833,615.167 701.5,614.5 Z"/></g>
<g><path style="opacity:0.468" fill="#fefffe" d="M 692.5,618.5 C 694.975,618.747 694.975,619.413 692.5,620.5C 691.537,620.03 691.537,619.363 692.5,618.5 Z"/></g>
<g><path style="opacity:0.35" fill="#fefffe" d="M 594.5,622.5 C 592.972,622.483 592.472,621.816 593,620.5C 593.717,621.044 594.217,621.711 594.5,622.5 Z"/></g>
<g><path style="opacity:0.165" fill="#fefffe" d="M 657.5,624.5 C 656.833,625.167 656.833,625.167 657.5,624.5 Z"/></g>
<g><path style="opacity:0.396" fill="#fefffe" d="M 668.5,628.5 C 669.833,629.167 669.833,629.167 668.5,628.5 Z"/></g>
<g><path style="opacity:0.075" fill="#fefffe" d="M 627.5,632.5 C 628.833,633.167 628.833,633.167 627.5,632.5 Z"/></g>
<g><path style="opacity:0.024" fill="#fefffe" d="M 651.5,639.5 C 652.833,640.167 652.833,640.167 651.5,639.5 Z"/></g>
<g><path style="opacity:0.169" fill="#fefffe" d="M 719.5,639.5 C 720.833,640.167 720.833,640.167 719.5,639.5 Z"/></g>
<g><path style="opacity:0.106" fill="#fefffe" d="M 717.5,651.5 C 718.525,651.897 718.692,652.563 718,653.5C 717.536,652.906 717.369,652.239 717.5,651.5 Z"/></g>
<g><path style="opacity:0.176" fill="#fefffe" d="M 682.5,655.5 C 683.833,656.167 683.833,656.167 682.5,655.5 Z"/></g>
<g><path style="opacity:0.392" fill="#fefffe" d="M 577.5,670.5 C 578.525,670.897 578.692,671.563 578,672.5C 577.536,671.906 577.369,671.239 577.5,670.5 Z"/></g>
<g><path style="opacity:0.067" fill="#fefffe" d="M 682.5,670.5 C 683.833,671.167 683.833,671.167 682.5,670.5 Z"/></g>
<g><path style="opacity:0.224" fill="#fefffe" d="M 594.5,671.5 C 595.043,671.56 595.376,671.893 595.5,672.5C 594.743,673.773 594.077,673.773 593.5,672.5C 594.167,672.5 594.5,672.167 594.5,671.5 Z"/></g>
<g><path style="opacity:0.331" fill="#fefffe" d="M 581.5,672.5 C 581.631,673.239 581.464,673.906 581,674.5C 580.308,673.563 580.475,672.897 581.5,672.5 Z"/></g>
<g><path style="opacity:0.849" fill="#fefffe" d="M 727.5,723.5 C 725.7,722.527 723.866,721.527 722,720.5C 721.383,721.449 721.549,722.282 722.5,723C 721.5,723.667 720.5,723.667 719.5,723C 717.935,721.129 717.269,719.296 717.5,717.5C 715.736,719.479 713.736,719.812 711.5,718.5C 712.5,717.667 713.5,716.833 714.5,716C 713.333,715.5 712.5,714.667 712,713.5C 711.612,714.428 710.945,715.095 710,715.5C 708.121,713.987 705.954,713.321 703.5,713.5C 703.66,711.801 703.494,710.134 703,708.5C 702.667,709.167 702.333,709.833 702,710.5C 699.674,709.187 698.341,707.187 698,704.5C 697.581,705.672 696.915,706.672 696,707.5C 693.866,704.847 691.366,702.847 688.5,701.5C 689.713,700.503 689.546,699.503 688,698.5C 686.989,699.337 685.822,699.67 684.5,699.5C 684.646,697.058 683.813,696.391 682,697.5C 680.959,695.415 679.459,693.748 677.5,692.5C 677.968,690.866 678.968,689.7 680.5,689C 679.418,687.67 678.751,686.17 678.5,684.5C 679.5,684.5 680.5,684.5 681.5,684.5C 681.474,680.633 682.641,679.966 685,682.5C 686.796,682.087 688.463,682.087 690,682.5C 690.605,684.481 691.605,684.815 693,683.5C 695.858,686.024 699.025,688.19 702.5,690C 701.66,691.666 702.16,691.833 704,690.5C 706.291,692.162 708.791,694.328 711.5,697C 715.373,698.521 719.04,700.521 722.5,703C 723.793,703.49 725.127,703.657 726.5,703.5C 726.351,704.552 726.517,705.552 727,706.5C 731.459,709.035 734.959,711.869 737.5,715C 735.541,715.931 733.541,716.764 731.5,717.5C 729.327,719.532 727.994,721.532 727.5,723.5 Z"/></g>
<g><path style="opacity:0.188" fill="#fefffe" d="M 678.5,684.5 C 677.833,683.167 677.833,683.167 678.5,684.5 Z"/></g>
<g><path style="opacity:0.866" fill="#fefffe" d="M 817.5,712.5 C 816.21,716.645 814.877,721.145 813.5,726C 813.833,726.333 814.167,726.667 814.5,727C 811.384,728.449 808.884,730.616 807,733.5C 806.667,733.167 806.333,732.833 806,732.5C 805.707,735.954 804.374,736.288 802,733.5C 801.667,733.833 801.333,734.167 801,734.5C 797.41,734.115 794.077,733.115 791,731.5C 788.283,732.884 785.616,733.884 783,734.5C 782.055,734.095 781.388,733.428 781,732.5C 777.26,733.794 773.26,734.461 769,734.5C 765.167,734.333 761.333,734.167 757.5,734C 756.874,733.25 756.374,732.416 756,731.5C 755.751,732.624 755.251,733.624 754.5,734.5C 752.618,733.907 750.785,733.24 749,732.5C 747.467,732.944 745.967,733.277 744.5,733.5C 743.614,732.675 743.281,731.675 743.5,730.5C 742.448,730.351 741.448,730.517 740.5,731C 741.696,731.654 741.696,732.154 740.5,732.5C 739.817,732.137 739.15,731.804 738.5,731.5C 739.677,729.897 739.511,728.564 738,727.5C 736.951,728.517 735.784,728.684 734.5,728C 735.672,727.581 736.672,726.915 737.5,726C 736.167,724.667 736.167,723.333 737.5,722C 736.833,721.667 736.167,721.333 735.5,721C 740.454,719.751 744.954,717.584 749,714.5C 751.718,716.769 754.551,716.769 757.5,714.5C 760.146,714.321 762.813,714.988 765.5,716.5C 768.034,714.269 770.701,714.269 773.5,716.5C 777.011,712.283 781.011,711.616 785.5,714.5C 787.682,713.623 789.849,713.956 792,715.5C 794.976,714.48 797.643,714.48 800,715.5C 801.847,708.296 804.18,701.962 807,696.5C 808,697.167 809,697.833 810,698.5C 810.902,695.196 812.236,694.862 814,697.5C 815.722,697.389 815.888,696.889 814.5,696C 815.793,695.51 817.127,695.343 818.5,695.5C 818.579,696.93 818.246,698.264 817.5,699.5C 820.797,700.142 821.131,701.309 818.5,703C 819.428,703.388 820.095,704.055 820.5,705C 819.394,707.489 818.394,709.989 817.5,712.5 Z"/></g>
<g><path style="opacity:0.841" fill="#fefffe" d="M 691.5,755.5 C 688.138,755.93 685.305,754.93 683,752.5C 682.586,752.957 682.086,753.291 681.5,753.5C 680.183,751.841 678.517,750.674 676.5,750C 670.866,748.522 665.533,746.356 660.5,743.5C 659.808,742.975 659.308,742.308 659,741.5C 657.951,742.517 656.784,742.684 655.5,742C 648.714,737.958 641.714,734.291 634.5,731C 633.809,729.933 633.309,728.766 633,727.5C 632.282,728.451 631.449,728.617 630.5,728C 628.68,727.021 627.513,725.521 627,723.5C 626.667,723.833 626.333,724.167 626,724.5C 623.637,722.06 621.137,719.727 618.5,717.5C 617.349,716.269 616.183,716.269 615,717.5C 614.517,716.552 614.351,715.552 614.5,714.5C 613.5,714.5 612.5,714.5 611.5,714.5C 610.658,710.807 609.325,707.307 607.5,704C 608.01,702.174 608.844,702.007 610,703.5C 611.746,700.19 614.246,699.19 617.5,700.5C 619.227,696.693 621.061,696.693 623,700.5C 625.428,698.026 625.928,698.526 624.5,702C 627.754,700.959 630.087,702.126 631.5,705.5C 632.451,704.674 633.451,704.508 634.5,705C 634.167,705.333 633.833,705.667 633.5,706C 639.588,708.154 643.755,711.654 646,716.5C 648.228,715.701 649.561,716.701 650,719.5C 650.414,719.043 650.914,718.709 651.5,718.5C 657.566,721.865 663.899,724.698 670.5,727C 671.191,728.067 671.691,729.234 672,730.5C 672.308,729.692 672.808,729.025 673.5,728.5C 674.333,729.5 675.167,730.5 676,731.5C 676.333,730.833 676.667,730.167 677,729.5C 678.333,730.833 679.667,732.167 681,733.5C 681.667,732.833 682.333,732.167 683,731.5C 687.681,734.3 692.181,736.8 696.5,739C 696.721,740.799 697.054,742.632 697.5,744.5C 696.833,744.833 696.167,745.167 695.5,745.5C 697.256,747.191 697.756,749.191 697,751.5C 694.984,752.747 693.151,754.081 691.5,755.5 Z"/></g>
<g><path style="opacity:0.198" fill="#fefffe" d="M 688.5,701.5 C 687.761,701.631 687.094,701.464 686.5,701C 687.437,700.308 688.103,700.475 688.5,701.5 Z"/></g>
<g><path style="opacity:0.306" fill="#fefffe" d="M 775.5,711.5 C 776.833,712.167 776.833,712.167 775.5,711.5 Z"/></g>
<g><path style="opacity:0.322" fill="#fefffe" d="M 817.5,712.5 C 818.833,713.167 818.833,713.167 817.5,712.5 Z"/></g>
<g><path style="opacity:0.484" fill="#fefffe" d="M 753.5,714.5 C 753.897,713.475 754.563,713.308 755.5,714C 754.906,714.464 754.239,714.631 753.5,714.5 Z"/></g>
<g><path style="opacity:0.09" fill="#fefffe" d="M 727.5,723.5 C 728.833,724.167 728.833,724.167 727.5,723.5 Z"/></g>
<g><path style="opacity:0.149" fill="#fefffe" d="M 738.5,731.5 C 737.833,732.167 737.833,732.167 738.5,731.5 Z"/></g>
<g><path style="opacity:0.842" fill="#fefffe" d="M 785.5,764.5 C 784.542,764.953 783.708,765.619 783,766.5C 782.667,768.5 782.333,770.5 782,772.5C 781.667,771.833 781.333,771.167 781,770.5C 779.028,772.442 776.861,772.776 774.5,771.5C 773.459,773.991 772.626,773.991 772,771.5C 771.581,772.672 770.915,773.672 770,774.5C 768.67,773.418 767.17,772.751 765.5,772.5C 762.35,770.875 759.017,770.542 755.5,771.5C 754.667,770.5 753.833,769.5 753,768.5C 752.667,769.167 752.333,769.833 752,770.5C 750.75,769.427 749.416,769.427 748,770.5C 746.71,768.646 745.21,768.313 743.5,769.5C 741.405,767.411 739.572,767.411 738,769.5C 736.488,768.743 735.154,767.743 734,766.5C 733.586,766.957 733.086,767.291 732.5,767.5C 729.851,766.028 727.018,765.028 724,764.5C 723.667,764.833 723.333,765.167 723,765.5C 721.667,762.833 720.333,762.833 719,765.5C 718.667,764.5 718.333,763.5 718,762.5C 716.497,762.835 715.164,762.835 714,762.5C 712.73,759.894 711.063,757.561 709,755.5C 708.764,753.236 708.264,751.069 707.5,749C 708.833,748.333 709.833,747.333 710.5,746C 711.996,745.493 713.163,745.993 714,747.5C 715.779,744.724 716.779,745.057 717,748.5C 717.667,747.833 718.333,747.167 719,746.5C 720.566,745.939 721.899,746.606 723,748.5C 723.689,747.643 724.522,746.977 725.5,746.5C 730.333,747.701 735.333,749.368 740.5,751.5C 743.625,751.751 746.792,751.751 750,751.5C 750.667,752.167 751.333,752.833 752,753.5C 754.333,753.167 756.667,752.833 759,752.5C 759.317,754.301 759.984,754.634 761,753.5C 762.57,754.358 764.237,755.025 766,755.5C 771.138,754.185 776.138,755.185 781,758.5C 783.972,756.552 785.972,753.886 787,750.5C 789.996,748.267 792.829,745.934 795.5,743.5C 796.15,743.804 796.817,744.137 797.5,744.5C 800.965,740.048 802.965,740.715 803.5,746.5C 804.5,745.167 805.5,745.167 806.5,746.5C 807.205,748.672 808.205,750.672 809.5,752.5C 808.345,753.95 806.845,754.95 805,755.5C 804.086,757.664 802.919,759.664 801.5,761.5C 799.288,760.953 797.621,761.953 796.5,764.5C 793.407,765.36 790.573,766.694 788,768.5C 786.519,767.529 785.685,766.196 785.5,764.5 Z M 785.5,764.5 C 784.282,763.839 782.949,763.172 781.5,762.5C 785.457,758.47 786.79,759.137 785.5,764.5 Z"/></g>
<g><path style="opacity:0.306" fill="#fefffe" d="M 795.5,743.5 C 794.833,742.167 794.833,742.167 795.5,743.5 Z"/></g>
<g><path style="opacity:0.414" fill="#fefffe" d="M 705.5,750.5 C 706.525,750.897 706.692,751.563 706,752.5C 705.536,751.906 705.369,751.239 705.5,750.5 Z"/></g>
<g><path style="opacity:0.169" fill="#fefffe" d="M 783.5,751.5 C 784.833,752.167 784.833,752.167 783.5,751.5 Z"/></g>
<g><path style="opacity:0.52" fill="#fefffe" d="M 691.5,755.5 C 693.028,755.517 693.528,756.184 693,757.5C 692.283,756.956 691.783,756.289 691.5,755.5 Z"/></g>
<g><path style="opacity:0.435" fill="#fefffe" d="M 707.5,756.5 C 708.833,757.167 708.833,757.167 707.5,756.5 Z"/></g>
<g><path style="opacity:0.153" fill="#fefffe" d="M 765.5,772.5 C 764.833,773.167 764.833,773.167 765.5,772.5 Z"/></g>
<g><path style="opacity:0.22" fill="#fefffe" d="M 776.5,773.5 C 777.833,774.167 777.833,774.167 776.5,773.5 Z"/></g>
</svg>
