# Blender 4.2.3 LTS
# www.blender.org
o Pulley_Axis
v -0.125000 0.025000 0.150000
v -0.125000 0.025000 -0.150000
v 0.125000 0.025000 -0.150000
v 0.125000 0.025000 0.150000
v -0.125000 -0.225000 0.150000
v 0.125000 -0.225000 0.150000
v -0.125000 -0.225000 -0.150000
v 0.125000 -0.225000 -0.150000
v -0.250000 -0.225000 -0.050000
v -0.250000 -0.225000 0.050000
v -0.250000 0.025000 0.050000
v -0.250000 0.025000 -0.050000
v 0.250000 -0.225000 0.050000
v 0.250000 -0.225000 -0.050000
v 0.250000 0.025000 -0.050000
v 0.250000 0.025000 0.050000
v 0.375000 -0.225000 0.050000
v 0.375000 -0.225000 -0.050000
v 0.375000 0.025000 -0.050000
v 0.375000 0.025000 0.050000
v -0.250000 0.150000 0.050000
v -0.250000 0.150000 -0.050000
v 0.250000 0.150000 -0.050000
v 0.250000 0.150000 0.050000
v -0.375000 -0.225000 -0.050000
v -0.375000 -0.225000 0.050000
v -0.375000 0.025000 0.050000
v -0.375000 0.025000 -0.050000
v -0.250000 -0.350000 -0.050000
v -0.250000 -0.350000 0.050000
v 0.250000 -0.350000 0.050000
v 0.250000 -0.350000 -0.050000
v -0.125000 0.275000 0.050000
v -0.125000 0.275000 -0.050000
v 0.125000 0.275000 -0.050000
v 0.125000 0.275000 0.050000
v -0.125000 -0.475000 -0.050000
v -0.125000 -0.475000 0.050000
v 0.125000 -0.475000 0.050000
v 0.125000 -0.475000 -0.050000
v 0.125000 0.150000 -0.050000
v 0.125000 0.150000 0.050000
v -0.125000 0.150000 0.050000
v -0.125000 0.150000 -0.050000
v -0.125000 -0.350000 -0.050000
v -0.125000 -0.350000 0.050000
v 0.125000 -0.350000 0.050000
v 0.125000 -0.350000 -0.050000
v -0.187500 -0.193750 -0.050000
v -0.187500 -0.193750 0.050000
v -0.187500 -0.006250 0.050000
v -0.187500 -0.006250 -0.050000
v 0.187500 -0.193750 0.050000
v 0.187500 -0.193750 -0.050000
v 0.187500 -0.006250 -0.050000
v 0.187500 -0.006250 0.050000
v 0.281250 -0.193750 0.050000
v 0.281250 -0.193750 -0.050000
v 0.281250 -0.006250 -0.050000
v 0.281250 -0.006250 0.050000
v -0.187500 0.087500 0.050000
v -0.187500 0.087500 -0.050000
v 0.187500 0.087500 -0.050000
v 0.187500 0.087500 0.050000
v -0.281250 -0.193750 -0.050000
v -0.281250 -0.193750 0.050000
v -0.281250 -0.006250 0.050000
v -0.281250 -0.006250 -0.050000
v -0.187500 -0.287500 -0.050000
v -0.187500 -0.287500 0.050000
v 0.187500 -0.287500 0.050000
v 0.187500 -0.287500 -0.050000
v -0.093750 0.181250 0.050000
v -0.093750 0.181250 -0.050000
v 0.093750 0.181250 -0.050000
v 0.093750 0.181250 0.050000
v -0.093750 -0.381250 -0.050000
v -0.093750 -0.381250 0.050000
v 0.093750 -0.381250 0.050000
v 0.093750 -0.381250 -0.050000
v 0.093750 0.087500 -0.050000
v 0.093750 0.087500 0.050000
v -0.093750 0.087500 0.050000
v -0.093750 0.087500 -0.050000
v -0.093750 -0.287500 -0.050000
v -0.093750 -0.287500 0.050000
v 0.093750 -0.287500 0.050000
v 0.093750 -0.287500 -0.050000
v -0.250000 -0.225000 0.120000
v -0.220000 -0.195000 0.150000
v -0.250000 0.025000 0.120000
v -0.220000 -0.005000 0.150000
v -0.220000 -0.195000 -0.150000
v -0.250000 -0.225000 -0.120000
v -0.220000 -0.005000 -0.150000
v -0.250000 0.025000 -0.120000
v 0.220000 -0.195000 0.150000
v 0.250000 -0.225000 0.120000
v 0.250000 0.025000 0.120000
v 0.220000 -0.005000 0.150000
v 0.250000 -0.225000 -0.120000
v 0.220000 -0.195000 -0.150000
v 0.220000 -0.005000 -0.150000
v 0.250000 0.025000 -0.120000
v 0.345000 -0.005000 -0.150000
v 0.375000 0.025000 -0.120000
v 0.345000 -0.195000 -0.150000
v 0.375000 -0.225000 -0.120000
v 0.345000 -0.195000 0.150000
v 0.375000 -0.225000 0.120000
v 0.345000 -0.005000 0.150000
v 0.375000 0.025000 0.120000
v -0.250000 0.150000 0.120000
v -0.220000 0.120000 0.150000
v -0.220000 0.120000 -0.150000
v -0.250000 0.150000 -0.120000
v 0.250000 0.150000 -0.120000
v 0.220000 0.120000 -0.150000
v 0.220000 0.120000 0.150000
v 0.250000 0.150000 0.120000
v -0.345000 -0.195000 -0.150000
v -0.375000 -0.225000 -0.120000
v -0.345000 -0.195000 0.150000
v -0.375000 -0.225000 0.120000
v -0.345000 -0.005000 0.150000
v -0.375000 0.025000 0.120000
v -0.345000 -0.005000 -0.150000
v -0.375000 0.025000 -0.120000
v -0.250000 -0.350000 -0.120000
v -0.220000 -0.320000 -0.150000
v -0.220000 -0.320000 0.150000
v -0.250000 -0.350000 0.120000
v 0.220000 -0.320000 -0.150000
v 0.250000 -0.350000 -0.120000
v 0.250000 -0.350000 0.120000
v 0.220000 -0.320000 0.150000
v -0.095000 0.245000 0.150000
v -0.125000 0.275000 0.120000
v -0.095000 0.245000 -0.150000
v -0.125000 0.275000 -0.120000
v 0.095000 0.245000 -0.150000
v 0.125000 0.275000 -0.120000
v 0.095000 0.245000 0.150000
v 0.125000 0.275000 0.120000
v -0.095000 -0.445000 -0.150000
v -0.125000 -0.475000 -0.120000
v -0.095000 -0.445000 0.150000
v -0.125000 -0.475000 0.120000
v 0.095000 -0.445000 -0.150000
v 0.125000 -0.475000 -0.120000
v 0.095000 -0.445000 0.150000
v 0.125000 -0.475000 0.120000
v -0.095000 0.120000 0.150000
v -0.125000 0.150000 0.120000
v -0.125000 0.150000 -0.120000
v -0.095000 0.120000 -0.150000
v 0.095000 0.120000 -0.150000
v 0.125000 0.150000 -0.120000
v 0.125000 0.150000 0.120000
v 0.095000 0.120000 0.150000
v -0.125000 -0.350000 0.120000
v -0.095000 -0.320000 0.150000
v 0.095000 -0.320000 0.150000
v 0.125000 -0.350000 0.120000
v -0.095000 -0.320000 -0.150000
v -0.125000 -0.350000 -0.120000
v 0.125000 -0.350000 -0.120000
v 0.095000 -0.320000 -0.150000
vn -0.0000 -0.0000 -1.0000
vn -0.0000 -1.0000 -0.0000
vn -0.0000 1.0000 -0.0000
vn -0.0000 -0.0000 1.0000
vn 1.0000 -0.0000 -0.0000
vn -1.0000 -0.0000 -0.0000
vn -0.0000 -0.7071 -0.7071
vn -0.0000 -0.7071 0.7071
vn -0.0000 0.7071 0.7071
vn -0.0000 0.7071 -0.7071
vn -0.7071 -0.0000 -0.7071
vn 0.7071 -0.0000 -0.7071
vn 0.7071 -0.0000 0.7071
vn -0.7071 -0.0000 0.7071
vt 0.375000 0.437500
vt 0.375000 0.485000
vt 0.375000 0.485000
vt 0.375000 0.422500
vt 0.375000 0.725000
vt 0.375000 0.666667
vt 0.375000 0.725000
vt 0.625000 0.166667
vt 0.625000 0.225000
vt 0.625000 0.225000
vt 0.625000 0.812500
vt 0.625000 0.765000
vt 0.625000 0.765000
vt 0.625000 0.827500
vt 0.625000 0.666667
vt 0.875000 0.666667
vt 0.875000 0.725000
vt 0.625000 0.725000
vt 0.625000 0.525000
vt 0.625000 0.583333
vt 0.625000 0.025000
vt 0.625000 0.083333
vt 0.625000 0.025000
vt 0.375000 0.525000
vt 0.375000 0.583333
vt 0.000000 0.000000
vt 0.375000 0.937500
vt 0.375000 0.985000
vt 0.375000 0.985000
vt 0.375000 0.922500
vt 0.625000 0.325000
vt 0.625000 0.500000
vt 0.625000 0.520833
vt 0.625000 0.375000
vt 0.125000 0.525000
vt 0.125000 0.583333
vt 0.595000 0.750000
vt 0.405000 0.750000
vt 0.405000 0.750000
vt 0.595000 0.750000
vt 0.375000 0.925000
vt 0.375000 0.750000
vt 0.375000 0.729167
vt 0.375000 0.875000
vt 0.595000 0.250000
vt 0.405000 0.250000
vt 0.405000 0.250000
vt 0.595000 0.250000
vt 0.625000 0.918123
vt 0.625000 0.831877
vt 0.625000 0.790155
vt 0.625000 0.959845
vt 0.625000 0.725000
vt 0.625000 0.775000
vt 0.625000 0.687500
vt 0.375000 0.166667
vt 0.375000 0.225000
vt 0.625000 0.562500
vt 0.375000 0.331877
vt 0.375000 0.418123
vt 0.375000 0.459845
vt 0.375000 0.290155
vt 0.375000 0.775000
vt 0.375000 0.687500
vt 0.375000 0.562500
vt 0.375000 0.475000
vt 0.375000 0.831877
vt 0.375000 0.918123
vt 0.375000 0.959845
vt 0.375000 0.790155
vt 0.375000 0.520833
vt 0.375000 0.500000
vt 0.125000 0.666667
vt 0.125000 0.725000
vt 0.125000 0.725000
vt 0.625000 0.475000
vt 0.625000 0.312500
vt 0.625000 0.265000
vt 0.625000 0.265000
vt 0.625000 0.327500
vt 0.625000 0.418123
vt 0.625000 0.331877
vt 0.625000 0.290155
vt 0.625000 0.459845
vt 0.625000 0.750000
vt 0.625000 0.729167
vt 0.375000 0.083333
vt 0.375000 0.325000
vt 0.375000 0.375000
vt 0.625000 0.985000
vt 0.625000 0.937500
vt 0.625000 0.922500
vt 0.625000 0.985000
vt 0.375000 0.025000
vt 0.875000 0.583333
vt 0.625000 0.875000
vt 0.625000 0.925000
vt 0.875000 0.525000
vt 0.625000 0.485000
vt 0.625000 0.437500
vt 0.625000 0.422500
vt 0.625000 0.485000
vt 0.625000 0.925000
vt 0.375000 0.765000
vt 0.375000 0.812500
vt 0.375000 0.827500
vt 0.405000 0.500000
vt 0.595000 0.500000
vt 0.595000 0.500000
vt 0.405000 0.500000
vt 0.375000 0.265000
vt 0.375000 0.312500
vt 0.375000 0.327500
vt 0.405000 1.000000
vt 0.595000 1.000000
vt 0.595000 1.000000
vt 0.405000 1.000000
vt 0.625000 0.000000
vt 0.375000 0.250000
vt 0.125000 0.750000
vt 0.375000 1.000000
vt 0.405000 0.000000
vt 0.595000 0.000000
vt 0.625000 0.250000
vt 0.625000 0.500000
vt 0.625000 0.750000
vt 0.625000 1.000000
vt 0.155000 0.500000
vt 0.345000 0.500000
vt 0.345000 0.750000
vt 0.155000 0.750000
s 0
f 8/1/1 102/2/1 133/3/1 168/4/1
f 98/5/2 13/6/2 17/6/2 110/7/2
f 12/8/3 96/9/3 128/10/3 28/8/3
f 4/11/4 100/12/4 119/13/4 160/14/4
f 36/15/3 33/16/3 138/17/3 144/18/3
f 104/19/3 15/20/3 19/20/3 106/19/3
f 91/21/3 11/22/3 27/22/3 126/23/3
f 101/24/5 14/25/5 32/25/5 134/24/5
f 4/26/4 6/26/4 97/26/4 100/26/4
f 5/27/4 90/28/4 131/29/4 162/30/4
f 116/31/3 22/32/3 44/33/3 155/34/3
f 90/26/4 5/26/4 1/26/4 92/26/4
f 3/26/1 103/26/1 102/26/1 8/26/1
f 94/35/2 9/36/2 25/36/2 122/35/2
f 100/37/4 97/38/4 109/39/4 111/40/4
f 146/35/2 150/24/2 40/25/2 37/36/2
f 132/41/2 30/42/2 46/43/2 161/44/2
f 4/26/4 160/26/4 153/26/4 1/26/4
f 11/22/6 91/23/6 113/21/6 21/22/6
f 15/20/5 104/19/5 117/19/5 23/20/5
f 95/45/1 93/46/1 121/47/1 127/48/1
f 153/49/4 160/50/4 143/51/4 137/52/4
f 144/53/5 159/54/5 42/55/5 36/15/5
f 25/56/6 28/8/6 128/9/6 122/57/6
f 42/55/3 159/54/3 120/18/3 24/15/3
f 23/20/4 41/58/4 81/58/4 63/20/4
f 165/59/1 168/60/1 149/61/1 145/62/1
f 31/6/2 135/7/2 164/63/2 47/64/2
f 22/8/4 12/8/4 52/8/4 62/8/4
f 39/6/5 47/64/5 164/63/5 152/5/5
f 14/25/4 18/25/4 58/25/4 54/25/4
f 134/24/2 32/25/2 48/65/2 167/66/2
f 163/67/4 162/68/4 147/69/4 151/70/4
f 17/6/1 13/6/1 53/6/1 57/6/1
f 45/71/4 37/72/4 77/72/4 85/71/4
f 10/73/2 89/74/2 124/75/2 26/73/2
f 158/76/3 41/58/3 23/20/3 117/19/3
f 13/6/1 31/6/1 71/6/1 53/6/1
f 96/10/6 12/8/6 22/8/6 116/9/6
f 38/42/1 46/43/1 86/43/1 78/42/1
f 95/26/1 2/26/1 7/26/1 93/26/1
f 12/8/4 28/8/4 68/8/4 52/8/4
f 32/25/4 14/25/4 54/25/4 72/25/4
f 2/77/1 95/78/1 115/79/1 156/80/1
f 29/72/4 45/71/4 85/71/4 69/72/4
f 16/15/3 99/53/3 112/18/3 20/15/3
f 27/22/1 11/22/1 51/22/1 67/22/1
f 157/81/1 156/82/1 139/83/1 141/84/1
f 108/24/5 106/19/5 19/20/5 18/25/5
f 46/43/1 30/42/1 70/42/1 86/43/1
f 10/73/1 26/73/1 66/73/1 50/73/1
f 14/25/2 101/24/2 108/24/2 18/25/2
f 99/18/5 16/15/5 24/15/5 120/53/5
f 47/64/1 39/6/1 79/6/1 87/64/1
f 81/58/3 82/55/3 64/15/3 63/20/3
f 76/15/5 82/55/5 81/58/5 75/20/5
f 72/25/2 71/6/2 87/64/2 88/65/2
f 80/25/5 88/65/5 87/64/5 79/6/5
f 70/42/2 69/72/2 85/71/2 86/43/2
f 78/42/6 86/43/6 85/71/6 77/72/6
f 50/73/6 49/36/6 69/36/6 70/73/6
f 62/32/3 61/85/3 83/86/3 84/33/3
f 49/36/2 50/73/2 66/73/2 65/36/2
f 51/22/3 52/8/3 68/8/3 67/22/3
f 52/8/6 51/22/6 61/22/6 62/8/6
f 56/15/5 55/20/5 63/20/5 64/15/5
f 74/32/6 84/33/6 83/86/6 73/85/6
f 55/20/3 56/15/3 60/15/3 59/20/3
f 54/25/5 53/6/5 71/6/5 72/25/5
f 53/6/2 54/25/2 58/25/2 57/6/2
f 11/22/1 21/22/1 61/22/1 51/22/1
f 42/55/1 24/15/1 64/15/1 82/55/1
f 24/15/1 16/15/1 56/15/1 64/15/1
f 36/15/1 42/55/1 82/55/1 76/15/1
f 15/20/4 23/20/4 63/20/4 55/20/4
f 30/73/1 10/73/1 50/73/1 70/73/1
f 41/58/4 35/20/4 75/20/4 81/58/4
f 34/32/4 44/33/4 84/33/4 74/32/4
f 9/36/4 29/36/4 69/36/4 49/36/4
f 48/65/4 32/25/4 72/25/4 88/65/4
f 43/86/1 33/85/1 73/85/1 83/86/1
f 44/33/4 22/32/4 62/32/4 84/33/4
f 31/6/1 47/64/1 87/64/1 71/6/1
f 19/20/4 15/20/4 55/20/4 59/20/4
f 21/85/1 43/86/1 83/86/1 61/85/1
f 40/25/4 48/65/4 88/65/4 80/25/4
f 16/15/1 20/15/1 60/15/1 56/15/1
f 25/36/4 9/36/4 49/36/4 65/36/4
f 66/87/6 67/22/6 68/8/6 65/56/6
f 29/72/2 129/88/2 166/89/2 45/71/2
f 26/87/1 27/22/1 67/22/1 66/87/1
f 28/8/4 25/56/4 65/56/4 68/8/4
f 92/90/4 1/91/4 153/92/4 114/93/4
f 124/94/6 126/21/6 27/22/6 26/87/6
f 9/36/6 94/35/6 129/35/6 29/36/6
f 33/16/1 36/15/1 76/15/1 73/16/1
f 35/20/4 34/95/4 74/95/4 75/20/4
f 75/20/3 74/95/3 73/16/3 76/15/3
f 140/31/6 155/34/6 44/33/6 34/32/6
f 33/85/6 43/86/6 154/96/6 138/97/6
f 35/20/5 41/58/5 158/76/5 142/19/5
f 142/19/3 140/98/3 34/95/3 35/20/3
f 58/25/5 59/20/5 60/15/5 57/6/5
f 18/25/4 19/20/4 59/20/4 58/25/4
f 17/6/5 20/15/5 112/53/5 110/5/5
f 20/15/1 17/6/1 57/6/1 60/15/1
f 13/6/5 98/7/5 135/5/5 31/6/5
f 103/99/1 3/100/1 157/101/1 118/102/1
f 21/85/3 113/103/3 154/96/3 43/86/3
f 77/36/2 80/25/2 79/6/2 78/73/2
f 38/73/2 39/6/2 152/7/2 148/75/2
f 37/36/4 40/25/4 80/25/4 77/36/4
f 39/6/1 38/73/1 78/73/1 79/6/1
f 37/72/6 45/71/6 166/89/6 146/88/6
f 148/41/6 161/44/6 46/43/6 38/42/6
f 150/24/5 167/66/5 48/65/5 40/25/5
f 1/26/2 2/26/2 3/26/2 4/26/2
f 8/26/6 6/26/6 4/26/6 3/26/6
f 6/26/4 5/26/4 162/26/4 163/26/4
f 2/26/1 156/26/1 157/26/1 3/26/1
f 97/104/4 6/105/4 163/106/4 136/104/4
f 102/107/1 103/108/1 105/109/1 107/110/1
f 93/111/1 7/112/1 165/113/1 130/111/1
f 90/114/4 92/115/4 125/116/4 123/117/4
f 7/26/1 8/26/1 168/26/1 165/26/1
f 7/26/5 2/26/5 1/26/5 5/26/5
f 7/26/3 5/26/3 6/26/3 8/26/3
f 102/107/7 107/110/7 108/24/7 101/24/7
f 109/39/8 97/38/8 98/5/8 110/7/8
f 100/37/9 111/40/9 112/18/9 99/53/9
f 105/109/10 103/108/10 104/19/10 106/19/10
f 158/76/10 117/19/10 118/102/10 157/101/10
f 154/96/9 113/103/9 114/93/9 153/92/9
f 96/10/11 116/9/11 115/79/11 95/78/11
f 117/19/12 104/19/12 103/99/12 118/102/12
f 119/13/13 100/12/13 99/18/13 120/53/13
f 92/118/14 114/118/14 113/21/14 91/23/14
f 94/119/7 122/119/7 121/47/7 93/46/7
f 128/10/10 96/9/10 95/45/10 127/48/10
f 91/21/9 126/23/9 125/118/9 92/118/9
f 124/75/8 89/74/8 90/120/8 123/120/8
f 166/89/7 129/88/7 130/111/7 165/113/7
f 164/63/8 135/7/8 136/104/8 163/106/8
f 97/104/13 136/104/13 135/5/13 98/7/13
f 133/3/12 102/2/12 101/24/12 134/24/12
f 89/121/14 132/121/14 131/29/14 90/28/14
f 129/119/11 94/119/11 93/111/11 130/111/11
f 132/41/8 161/44/8 162/30/8 131/29/8
f 153/49/14 137/52/14 138/97/14 154/96/14
f 116/31/10 155/34/10 156/80/10 115/79/10
f 155/34/11 140/31/11 139/83/11 156/82/11
f 157/81/12 141/84/12 142/19/12 158/76/12
f 120/18/9 159/54/9 160/14/9 119/13/9
f 159/54/13 144/53/13 143/51/13 160/50/13
f 161/44/14 148/41/14 147/69/14 162/68/14
f 163/67/13 151/70/13 152/5/13 164/63/13
f 165/59/11 145/62/11 146/88/11 166/89/11
f 134/24/7 167/66/7 168/4/7 133/3/7
f 167/66/12 150/24/12 149/61/12 168/60/12
f 123/122/14 125/123/14 126/21/14 124/94/14
f 127/48/11 121/47/11 122/57/11 128/9/11
f 140/124/10 142/125/10 141/84/10 139/83/10
f 144/126/9 138/127/9 137/52/9 143/51/9
f 106/19/12 108/24/12 107/110/12 105/109/12
f 111/40/13 109/39/13 110/5/13 112/53/13
f 150/24/7 146/35/7 145/128/7 149/129/7
f 148/75/8 152/7/8 151/130/8 147/131/8
f 89/75/6 10/73/6 30/73/6 132/74/6
